<?xml version="1.0" encoding="UTF-8" standalone="no"?>
<!-- Created with Inkscape (http://www.inkscape.org/) -->

<svg
   xmlns:dc="http://purl.org/dc/elements/1.1/"
   xmlns:cc="http://creativecommons.org/ns#"
   xmlns:rdf="http://www.w3.org/1999/02/22-rdf-syntax-ns#"
   xmlns:svg="http://www.w3.org/2000/svg"
   xmlns="http://www.w3.org/2000/svg"
   xmlns:xlink="http://www.w3.org/1999/xlink"
   version="1.2"
   width="559.69006"
   height="166.08203"
   id="svg2">
  <defs
     id="defs4">
    <linearGradient
       id="linearGradient4162">
      <stop
         id="stop4164"
         style="stop-color:#ffffff;stop-opacity:1"
         offset="0" />
    </linearGradient>
    <linearGradient
       id="linearGradient4134">
      <stop
         id="stop4136"
         style="stop-color:#ffffff;stop-opacity:1"
         offset="0" />
    </linearGradient>
    <linearGradient
       id="linearGradient4128">
      <stop
         id="stop4130"
         style="stop-color:#ffffff;stop-opacity:1"
         offset="0" />
    </linearGradient>
    <linearGradient
       id="linearGradient4122">
      <stop
         id="stop4124"
         style="stop-color:#ffffff;stop-opacity:1"
         offset="0" />
    </linearGradient>
    <linearGradient
       id="linearGradient4096">
      <stop
         id="stop4098"
         style="stop-color:#ffffff;stop-opacity:1"
         offset="0" />
    </linearGradient>
    <radialGradient
       cx="-480.72501"
       cy="443.14178"
       r="10.70114"
       fx="-480.72501"
       fy="443.14178"
       id="radialGradient4102"
       xlink:href="#linearGradient4096"
       gradientUnits="userSpaceOnUse"
       gradientTransform="matrix(1.0642288,0.25691514,-0.11258761,0.46637568,93.602761,360.43512)" />
    <linearGradient
       x1="-586.63373"
       y1="457.53033"
       x2="-578.33331"
       y2="456.95758"
       id="linearGradient4126"
       xlink:href="#linearGradient4122"
       gradientUnits="userSpaceOnUse"
       gradientTransform="translate(2.2687707,-12.154128)" />
    <linearGradient
       x1="-630.48102"
       y1="457.80765"
       x2="-604.69257"
       y2="457.80765"
       id="linearGradient4132"
       xlink:href="#linearGradient4128"
       gradientUnits="userSpaceOnUse"
       gradientTransform="translate(-18.150165,-57.853652)" />
    <linearGradient
       x1="-706.3656"
       y1="390.72418"
       x2="-524.8396"
       y2="390.72418"
       id="linearGradient4138"
       xlink:href="#linearGradient4134"
       gradientUnits="userSpaceOnUse" />
    <linearGradient
       x1="-566.92944"
       y1="414.81769"
       x2="-544.88379"
       y2="414.81769"
       id="linearGradient4166"
       xlink:href="#linearGradient4162"
       gradientUnits="userSpaceOnUse" />
  </defs>
  <metadata
     id="metadata7">
    <rdf:RDF>
      <cc:Work
         rdf:about="">
        <dc:format>image/svg+xml</dc:format>
        <dc:type
           rdf:resource="http://purl.org/dc/dcmitype/StillImage" />
        <dc:title></dc:title>
      </cc:Work>
    </rdf:RDF>
  </metadata>
  <g
     transform="translate(713.85297,-330.44534)"
     id="layer1">
    <path
       d="m -645.375,443.23123 c 21.55369,0.78108 43.12367,0.63107 64.69428,0.12469 12.05963,-0.26283 23.79605,0.57162 35.82356,-0.36252 5.71258,-0.49506 11.80135,0.98906 17.36026,-0.48402 0.89181,-0.29551 2.10371,-0.45068 2.40315,-1.50938 0.0811,-1.63841 -1.04628,-2.98691 -1.54156,-4.48309 -5.79968,-13.42486 -12.11989,-26.62568 -18.93359,-39.5651 -1.57409,-2.93939 -3.50562,-5.99274 -6.645,-7.43759 -3.43697,-1.6375 -7.30296,-1.92253 -11.03469,-2.33227 -5.24133,-0.5556 -10.63316,-0.60816 -15.6514,-2.38507 -3.98485,-1.67019 -6.68301,-5.23808 -10.20653,-7.60795 -8.64667,-6.48538 -18.56586,-10.93407 -28.38,-15.32481 -4.90211,-2.1677 -9.85503,-4.22799 -14.87391,-6.10958 -5.4508,-1.94695 -10.99956,-3.94049 -16.82238,-4.31704 -2.57481,-0.58292 -3.62016,-2.64254 -6.23973,-3.68539 -2.81423,-0.98877 -5.86344,-1.68619 -8.16372,-3.70211 -4.30493,-3.09104 -8.76576,-6.10874 -13.814,-7.84628 -2.72056,-1.01881 -5.65318,-1.63918 -8.56849,-1.48497 -3.6688,0.35291 -7.60972,1.03482 -10.375,3.6875 -2.74793,3.04106 -4.29872,6.9182 -5.45529,10.79593 -1.57117,5.39117 -2.54107,12.4596 -3.9729,17.88932"
       id="path4114"
       style="fill:url(#linearGradient4138);fill-opacity:1;stroke:#000000;stroke-width:0.5;stroke-linecap:butt;stroke-linejoin:miter;stroke-miterlimit:4;stroke-opacity:1;stroke-dasharray:none" />
    <g
       transform="translate(311.42857,100)"
       id="flowRoot2985"
       style="font-size:12px;font-style:normal;font-variant:normal;font-weight:bold;font-stretch:normal;line-height:125%;letter-spacing:0px;word-spacing:0px;fill:#000000;fill-opacity:1;stroke:none;font-family:Linux Biolinum Shadow O;-inkscape-font-specification:Linux Biolinum Shadow O Bold">
      <path
         d="m -947.50275,342.7737 c -4.392,0 -10.44,-4.75201 -12.96,-8.568 l -1.872,0.072 c -0.288,2.59199 -0.864,6.624 -1.44,8.784 l 0.144,0.216 c 0,0 6.69601,3.24 15.48,3.24 10.58399,0 17.208,-6.76801 17.208,-14.112 0,-7.84799 -8.49601,-11.88001 -14.256,-14.616 -3.888,-1.8 -7.344,-3.52801 -7.344,-8.856 0,-3.6 2.592,-6.984 6.552,-6.984 4.32,0 8.568,5.112 10.44,8.64 l 2.16,-0.072 c 0.288,-2.592 0.792,-6.48 1.44,-8.64 l -0.144,-0.216 c 0,0 -5.90401,-3.24 -14.688,-3.24 -8.13599,0 -15.552,4.82401 -15.552,12.456 0,2.80799 0.504,5.544 2.232,7.776 3.312,4.39199 8.856,7.056 13.032,9.144 3.384,1.728 6.264,4.608 6.264,7.56 0,5.11199 -2.376,7.416 -6.696,7.416"
         id="path3306"
         style="font-size:72px;font-family:Linux Biolinum O;-inkscape-font-specification:Linux Biolinum O Bold" />
      <path
         d="m -889.761,332.8377 0,-7.992 c 0,-7.56 -3.52801,-10.656 -10.008,-10.656 -3.672,0 -7.992,2.232 -11.304,6.48 l -0.36,-0.216 c 0,-1.584 0,-4.608 -0.072,-5.256 -0.144,-0.432 -0.216,-0.72 -0.648,-0.72 -2.088,0.36 -6.84,0.36 -9.36,0.216 l -0.144,0.216 c 0.504,3.09599 0.792,8.64 0.792,13.968 l 0,3.96 c 0,5.39999 -0.216,9.144 -0.792,12.96 l 0.144,0.216 c 0,0 3.384,-0.216 5.904,-0.216 2.448,0 4.464,0.216 4.464,0.216 l 0.216,-0.216 c -0.36,-4.104 -0.432,-7.48801 -0.432,-12.96 l 0,-7.344 c 2.736,-3.6 5.76,-5.76 8.352,-5.76 1.944,0 3.744,1.44 3.744,6.696 l 0,6.408 c 0,5.39999 0,9.144 -0.432,12.96 l 0.144,0.216 c 0,0 2.304,-0.216 4.824,-0.216 2.448,0 5.616,0.216 5.616,0.216 l 0.144,-0.216 c -0.648,-4.104 -0.792,-7.48801 -0.792,-12.96"
         id="path3308"
         style="font-size:72px;font-family:Linux Biolinum O;-inkscape-font-specification:Linux Biolinum O Bold" />
      <path
         d="m -880.50112,331.0377 c 0,9.57599 6.69601,15.48 17.42399,15.48 11.01599,0 17.424,-6.12001 17.424,-16.128 0,-9.07199 -5.11201,-16.2 -17.28,-16.2 -10.29598,0 -17.56799,5.68801 -17.56799,16.848 m 17.06399,-13.248 c 6.12,0 7.56001,4.53601 7.56001,14.544 0,8.27999 -2.95201,10.584 -6.192,10.584 -7.488,0 -8.208,-7.99201 -8.208,-13.536 0,-6.264 0.648,-11.592 6.83999,-11.592"
         id="path3310"
         style="font-size:72px;font-family:Linux Biolinum O;-inkscape-font-specification:Linux Biolinum O Bold" />
      <path
         d="m -829.623,346.0857 c 0.648,-0.216 3.672,-0.216 4.32,-0.216 0.648,0 3.888,0 4.464,0.216 1.8,-5.544 4.032,-11.37601 6.336,-16.776 2.232,5.54399 4.392,11.088 6.336,16.704 0.648,-0.216 3.816,-0.216 4.464,-0.216 0.648,0 2.808,0 3.384,0.216 3.744,-10.22399 8.28,-21.02401 12.6,-31.32 -0.576,0.216 -3.096,0.216 -3.744,0.216 -0.648,0 -2.376,0 -2.952,-0.216 -2.448,7.55999 -4.896,16.344 -7.704,23.184 l -0.504,0 c -2.88,-7.70399 -4.68,-15.48001 -6.912,-23.184 -0.864,0.216 -4.032,0.216 -4.968,0.216 -1.008,0 -4.968,0 -5.976,-0.216 1.152,2.95199 2.376,5.832 3.528,8.784 -1.872,5.61599 -3.888,11.304 -5.832,15.912 l -0.72,0 c -3.24,-8.27999 -5.256,-16.34401 -7.632,-24.624 -0.864,0.216 -3.672,0.216 -4.608,0.216 -1.008,0 -5.328,0 -6.336,-0.216 4.32,10.58399 8.856,20.80801 12.456,31.32"
         id="path3312"
         style="font-size:72px;font-family:Linux Biolinum O;-inkscape-font-specification:Linux Biolinum O Bold" />
      <path
         d="m -759.56587,336.2217 c -1.8,4.60799 -4.10401,6.12 -6.98401,6.12 -3.88799,0 -6.47999,-3.45601 -6.47999,-12.456 0,-9.71999 3.096,-12.096 6.62399,-12.096 3.384,0 6.04801,2.52 6.84001,6.192 l 0,12.24 m 0,5.688 0.144,0 0.36,3.888 c 0,0.144 0.216,0.216 0.648,0.216 0.93599,-0.072 3.528,-0.216 4.53599,-0.216 0.936,0 4.10401,0.072 5.04,0.216 l 0.144,-0.216 c -0.57599,-3.096 -1.36799,-8.42401 -1.36799,-13.824 l 0,-22.176 c 0,-5.328 0.288,-9.07201 0.864,-13.536 0,-0.504 -0.36001,-0.72 -0.792,-0.72 -1.872,0.72 -7.41601,2.16 -10.29601,2.376 l -0.144,0.216 c 0.504,3.09599 0.86401,8.064 0.86401,13.536 l 0,5.76 c -1.368,-1.944 -4.75201,-3.24 -6.76801,-3.24 -4.82399,0 -7.488,1.008 -10.72799,3.384 -4.464,3.23999 -6.192,8.496 -6.192,13.608 0,8.85599 5.4,15.336 13.39199,15.336 4.536,0 8.35201,-1.22401 10.29601,-4.608"
         id="path3314"
         style="font-size:72px;font-family:Linux Biolinum O;-inkscape-font-specification:Linux Biolinum O Bold" />
      <path
         d="m -728.59687,320.6697 -0.36,-0.216 c 0,-1.584 -10e-6,-4.608 -0.072,-5.256 -0.144,-0.432 -0.21601,-0.72 -0.648,-0.72 -2.088,0.36 -6.84001,0.36 -9.36,0.216 l -0.14401,0.216 c 0.504,3.09599 0.79201,8.64 0.79201,13.968 l 0,3.96 c 0,5.39999 -0.14401,9.072 -0.72,12.96 l 0.072,0.216 c 0,0 2.304,-0.216 4.82399,-0.216 2.448,0 5.90401,0.216 5.90401,0.216 l 0.14399,-0.216 c -0.57599,-4.104 -0.71999,-7.48801 -0.71999,-12.96 l 0,-5.256 c 0,-5.544 4.896,-6.408 6.048,-6.408 1.36799,0 2.88,0.36 4.17599,1.368 l 1.29601,-0.144 1.43999,-7.416 -0.288,-0.288 c -1.22399,-0.36 -2.376,-0.504 -3.67199,-0.504 -3.384,0 -6.84001,3.672 -8.712,6.48"
         id="path3316"
         style="font-size:72px;font-family:Linux Biolinum O;-inkscape-font-specification:Linux Biolinum O Bold" />
      <path
         d="m -708.58987,302.0937 c 0,2.87999 2.376,5.112 5.39999,5.112 3.024,0 5.4,-2.23201 5.4,-5.112 0,-2.88 -2.376,-5.112 -5.4,-5.112 -3.02399,0 -5.39999,2.232 -5.39999,5.112 m 0.648,26.784 0,3.96 c 0,5.39999 -0.14401,9.072 -0.72,12.96 l 0.144,0.216 c 2.15999,-0.144 2.808,-0.216 5.32799,-0.216 2.448,0 3.16801,0.072 5.328,0.216 l 0.144,-0.216 c -0.57599,-4.104 -0.71999,-7.48801 -0.71999,-12.96 l 0,-4.752 c 0,-5.4 0.36,-8.42401 0.71999,-12.816 0,-0.504 -0.216,-0.72 -0.64799,-0.72 -1.008,0.144 -2.95201,0.36 -4.96801,0.36 -1.87199,0 -3.816,-0.144 -5.11199,-0.216 l -0.216,0.288 c 0.57599,3.09599 0.72,8.496 0.72,13.896"
         id="path3318"
         style="font-size:72px;font-family:Linux Biolinum O;-inkscape-font-specification:Linux Biolinum O Bold" />
      <path
         d="m -680.0385,300.5097 c -3.168,3.31199 -5.328,7.848 -5.328,12.24 l 0,2.16 -3.456,0 c -1.296,0 -1.656,0.864 -1.656,1.44 l 0,1.728 c 0,0.36 0.072,0.432 0.36,0.432 l 4.752,0 0,12.888 c 0,5.39999 0,10.728 -0.504,14.4 l 0.072,0.216 c 0,0 2.88,-0.216 5.4,-0.216 2.448,0 4.968,0.216 4.968,0.216 l 0.144,-0.216 c -0.504,-4.176 -0.576,-9.00001 -0.576,-14.4 l 0,-12.888 9.72,0 0.576,0 4.176,0 -0.216,8.496 c -0.144,4.31999 -0.216,10.296 -0.216,12.456 0,3.38399 2.376,7.056 6.984,7.056 3.744,0 7.488,-0.648 10.584,-2.52 0,-1.152 -0.432,-2.448 -1.224,-2.952 -1.584,0.792 -2.304,0.864 -4.176,0.864 -1.944,0 -2.664,-2.59201 -2.664,-5.544 0,-2.16 -0.072,-5.83201 0.072,-10.152 l 0.144,-7.704 6.552,0 c 0.72,0 1.728,-0.288 1.728,-0.936 l 0,-2.232 c 0,-0.288 -0.216,-0.432 -0.576,-0.432 l -7.704,0 c 0,-5.4 0.072,-5.83201 0.36,-10.008 0,-0.504 -0.216,-0.72 -0.648,-0.72 -1.8,0.72 -6.48,2.592 -9.36,3.24 l -0.144,0.216 c 0.504,3.02399 0.504,3.096 0.504,7.272 l -3.096,0 -1.08,0 -10.296,0 0,-0.72 c 0,-1.8 -0.36,-5.328 -0.36,-6.912 0,-3.96 2.52,-6.768 6.408,-6.768 2.088,0 3.096,1.8 3.888,3.24 l 2.16,-0.072 c 0.504,-1.944 0.864,-5.904 1.656,-7.272 l -0.072,-0.216 c -0.576,-0.36 -2.592,-0.648 -3.96,-0.648 -5.75999,0 -10.872,1.872 -13.896,4.968"
         id="path3320"
         style="font-size:72px;font-family:Linux Biolinum O;-inkscape-font-specification:Linux Biolinum O Bold" />
      <path
         d="m -638.53387,342.3417 c 0.79199,3.02399 2.016,4.248 4.968,4.896 l 0.288,0 c 2.59199,-0.648 3.96,-1.94401 4.96799,-4.896 l 0,-0.36 c -0.93599,-2.592 -2.304,-3.96 -4.96799,-4.896 l -0.288,0 c -2.736,1.08 -4.03201,2.52 -4.968,4.896 l 0,0.36"
         id="path3322"
         style="font-size:72px;font-family:Linux Biolinum O;-inkscape-font-specification:Linux Biolinum O Bold" />
      <path
         d="m -603.53512,317.7897 c 2.73599,0 4.896,2.088 6.48,6.048 l 2.01599,-0.072 1.72801,-6.984 -0.144,-0.216 c -2.232,-1.152 -7.12801,-2.376 -10.72801,-2.376 -9.64799,0 -17.49599,5.76001 -17.49599,17.064 0,4.53599 1.44,8.064 3.888,10.656 2.51999,2.80799 7.128,4.608 12.6,4.608 5.47199,0 8.64,-1.15201 11.88,-3.888 -0.216,-0.648 -0.36,-1.656 -0.36,-2.808 l -1.152,-0.36 c -2.016,2.44799 -5.54401,3.456 -8.424,3.456 -2.088,0 -4.96801,-1.8 -6.264,-3.888 -1.296,-2.088 -2.16,-5.47201 -2.16,-9.648 0,-3.384 0.504,-6.12 1.728,-8.136 1.36799,-2.232 3.816,-3.456 6.408,-3.456"
         id="path3324"
         style="font-size:72px;font-family:Linux Biolinum O;-inkscape-font-specification:Linux Biolinum O Bold" />
      <path
         d="m -588.00112,331.0377 c 0,9.57599 6.69601,15.48 17.42399,15.48 11.01599,0 17.424,-6.12001 17.424,-16.128 0,-9.07199 -5.11201,-16.2 -17.28,-16.2 -10.29598,0 -17.56799,5.68801 -17.56799,16.848 m 17.06399,-13.248 c 6.12,0 7.56001,4.53601 7.56001,14.544 0,8.27999 -2.95201,10.584 -6.192,10.584 -7.488,0 -8.208,-7.99201 -8.208,-13.536 0,-6.264 0.648,-11.592 6.83999,-11.592"
         id="path3326"
         style="font-size:72px;font-family:Linux Biolinum O;-inkscape-font-specification:Linux Biolinum O Bold" />
      <path
         d="m -546.51675,331.0377 c 0,9.57599 6.69601,15.48 17.424,15.48 11.01599,0 17.424,-6.12001 17.424,-16.128 0,-9.07199 -5.11201,-16.2 -17.28,-16.2 -10.29599,0 -17.568,5.68801 -17.568,16.848 m 17.064,-13.248 c 6.11999,0 7.56,4.53601 7.56,14.544 0,8.27999 -2.952,10.584 -6.192,10.584 -7.48799,0 -8.208,-7.99201 -8.208,-13.536 0,-6.264 0.64801,-11.592 6.84,-11.592"
         id="path3328"
         style="font-size:72px;font-family:Linux Biolinum O;-inkscape-font-specification:Linux Biolinum O Bold" />
      <path
         d="m -493.4235,325.4937 c 1.584,-3.816 5.256,-6.624 7.704,-6.624 4.392,0 5.904,5.04001 5.904,12.672 0,6.91199 -3.168,11.376 -7.2,11.376 -1.8,0 -3.744,-0.36 -6.408,-2.592 l 0,-14.832 m 0.288,-5.472 -0.36,-0.216 c 0,-1.584 0,-3.96 -0.072,-4.608 -0.144,-0.432 -0.216,-0.72 -0.648,-0.72 -2.088,0.36 -6.84,0.36 -9.36,0.216 l -0.144,0.216 c 0.504,3.09599 0.792,8.64 0.792,13.968 l 0,19.224 c 0,5.39999 -0.144,10.584 -0.72,14.4 l 0.072,0.216 c 0,0 2.808,-0.216 5.328,-0.216 2.448,0 5.4,0.216 5.4,0.216 l 0.144,-0.216 c -0.648,-4.104 -0.72,-9.00001 -0.72,-14.4 l 0,-3.6 c 2.376,1.512 5.04,2.016 7.704,2.016 9.07199,0 16.128,-7.48801 16.128,-17.64 0,-5.688 -2.16,-9.43201 -5.472,-12.096 -2.16,-1.656 -4.392,-2.592 -7.992,-2.592 -3.096,0 -6.552,1.008 -10.08,5.832"
         id="path3330"
         style="font-size:72px;font-family:Linux Biolinum O;-inkscape-font-specification:Linux Biolinum O Bold" />
    </g>
    <path
       d="m -241.3667,378.22379 c -3.67593,-2.62927 -7.41523,2.55535 -8.23797,5.8463 -2.66405,10.65618 19.8635,10.16265 16.21021,-0.79722 -0.70602,-2.11805 -3.26537,-3.7395 -5.31483,-4.25186 -3.17142,-0.79286 -4.54813,-0.62557 -7.44075,0.53148"
       id="path3049"
       style="fill:none;stroke:#000000;stroke-width:1px;stroke-linecap:butt;stroke-linejoin:miter;stroke-opacity:1" />
    <path
       d="m -243.22688,392.30806 c -0.92509,10.83656 -5.84631,26.67072 -5.84631,34.2806"
       id="path3051"
       style="fill:none;stroke:#000000;stroke-width:1px;stroke-linecap:butt;stroke-linejoin:miter;stroke-opacity:1" />
    <path
       d="m -246.15004,403.73493 c -2.48646,-3.77678 -21.02423,-10.59895 -16.47594,-15.14724"
       id="path3053"
       style="fill:none;stroke:#000000;stroke-width:1px;stroke-linecap:butt;stroke-linejoin:miter;stroke-opacity:1" />
    <path
       d="m -244.28985,404.00067 c 7.46255,-3.31979 20.28972,-8.06563 23.11947,-10.89538"
       id="path3055"
       style="fill:none;stroke:#000000;stroke-width:1px;stroke-linecap:butt;stroke-linejoin:miter;stroke-opacity:1" />
    <path
       d="m -262.14626,377.89681 c 0.78692,8.86032 -0.50548,19.64327 1.05317,25.87784 -6.4642,5.28127 6.9979,0.60181 2.55769,0.60181 -0.96939,0 -1.42732,-0.82789 -2.55769,-0.60181"
       id="path3080"
       style="fill:none;stroke:#000000;stroke-width:1px;stroke-linecap:butt;stroke-linejoin:miter;stroke-opacity:1" />
    <path
       d="m -268.61572,379.10043 c 2.2029,-0.60213 4.47272,-1.41908 6.61991,-1.95588 2.35015,-0.58754 6.84965,-1.28291 7.82353,-2.25679 0.28518,-0.28518 -1.73687,-8.72625 -0.15045,-8.72625 0.143,0 -2.26439,0.7548 -4.51358,1.50453 -2.32134,0.77378 -4.63704,1.19462 -6.92081,1.95588 -0.62982,0.20994 -6.46946,1.79589 -6.46946,1.80543 0,0.91762 0.89514,7.21415 1.35407,7.67308 1.19761,0.56644 1.56554,-0.58023 2.25679,0 z"
       id="path3082"
       style="fill:none;stroke:#000000;stroke-width:1px;stroke-linecap:butt;stroke-linejoin:miter;stroke-opacity:1" />
    <path
       d="m -270.2707,372.48052 c 0.16471,1.56231 1.01831,3.62188 1.20362,4.36312"
       id="path3098"
       style="fill:none;stroke:#000000;stroke-width:1px;stroke-linecap:butt;stroke-linejoin:miter;stroke-opacity:1" />
    <path
       d="m -267.1112,372.02916 c 0.1724,-0.0254 0.23471,2.97094 1.05317,4.06222"
       id="path3104"
       style="fill:none;stroke:#000000;stroke-width:1px;stroke-linecap:butt;stroke-linejoin:miter;stroke-opacity:1" />
    <path
       d="m -263.65079,370.976 c -0.77275,0.29275 0.60181,3.27821 0.60181,4.36312"
       id="path3106"
       style="fill:none;stroke:#000000;stroke-width:1px;stroke-linecap:butt;stroke-linejoin:miter;stroke-opacity:1" />
    <path
       d="m -260.34083,370.52464 c -0.53656,1.41338 0.146,3.29213 0.3009,3.91176"
       id="path3108"
       style="fill:none;stroke:#000000;stroke-width:1px;stroke-linecap:butt;stroke-linejoin:miter;stroke-opacity:1" />
    <path
       d="m -257.48223,369.77238 c -0.74932,1.33909 0,3.53507 0,4.36312"
       id="path3110"
       style="fill:none;stroke:#000000;stroke-width:1px;stroke-linecap:butt;stroke-linejoin:miter;stroke-opacity:1" />
    <path
       d="m -193.28355,377.59651 c 3.67593,-2.62927 7.41523,2.55535 8.23797,5.8463 2.66405,10.65618 -19.8635,10.16265 -16.21021,-0.79722 0.70602,-2.11805 3.26537,-3.7395 5.31483,-4.25186 3.17142,-0.79286 4.54813,-0.62557 7.44075,0.53148"
       id="path3049-6"
       style="fill:none;stroke:#000000;stroke-width:1px;stroke-linecap:butt;stroke-linejoin:miter;stroke-opacity:1" />
    <path
       d="m -191.42337,391.68078 c 0.92509,10.83656 5.84631,26.67072 5.84631,34.2806"
       id="path3051-2"
       style="fill:none;stroke:#000000;stroke-width:1px;stroke-linecap:butt;stroke-linejoin:miter;stroke-opacity:1" />
    <path
       d="m -188.50021,403.10765 c 2.48646,-3.77678 21.02423,-10.59895 16.47594,-15.14724"
       id="path3053-8"
       style="fill:none;stroke:#000000;stroke-width:1px;stroke-linecap:butt;stroke-linejoin:miter;stroke-opacity:1" />
    <path
       d="m -190.3604,403.37339 c -7.46255,-3.31979 -20.28972,-8.06563 -23.11947,-10.89538"
       id="path3055-4"
       style="fill:none;stroke:#000000;stroke-width:1px;stroke-linecap:butt;stroke-linejoin:miter;stroke-opacity:1" />
    <path
       d="m -172.50399,377.26953 c -0.78692,8.86032 0.50548,19.64327 -1.05317,25.87784 6.4642,5.28127 -6.9979,0.60181 -2.55769,0.60181 0.96939,0 1.42732,-0.82789 2.55769,-0.60181"
       id="path3080-5"
       style="fill:none;stroke:#000000;stroke-width:1px;stroke-linecap:butt;stroke-linejoin:miter;stroke-opacity:1" />
    <path
       d="m -166.03453,378.47315 c -2.2029,-0.60213 -4.47272,-1.41908 -6.61991,-1.95588 -2.35015,-0.58754 -6.84965,-1.28291 -7.82353,-2.25679 -0.28518,-0.28518 1.73687,-8.72625 0.15045,-8.72625 -0.143,0 2.26439,0.7548 4.51358,1.50453 2.32134,0.77378 4.63704,1.19462 6.92081,1.95588 0.62982,0.20994 6.46946,1.79589 6.46946,1.80543 0,0.91762 -0.89514,7.21415 -1.35407,7.67308 -1.19761,0.56644 -1.56554,-0.58023 -2.25679,0 z"
       id="path3082-0"
       style="fill:none;stroke:#000000;stroke-width:1px;stroke-linecap:butt;stroke-linejoin:miter;stroke-opacity:1" />
    <path
       d="m -164.37955,371.85324 c -0.16471,1.56231 -1.01831,3.62188 -1.20362,4.36312"
       id="path3098-4"
       style="fill:none;stroke:#000000;stroke-width:1px;stroke-linecap:butt;stroke-linejoin:miter;stroke-opacity:1" />
    <path
       d="m -167.53905,371.40188 c -0.1724,-0.0254 -0.23471,2.97094 -1.05317,4.06222"
       id="path3104-8"
       style="fill:none;stroke:#000000;stroke-width:1px;stroke-linecap:butt;stroke-linejoin:miter;stroke-opacity:1" />
    <path
       d="m -170.99946,370.34872 c 0.77275,0.29275 -0.60181,3.27821 -0.60181,4.36312"
       id="path3106-9"
       style="fill:none;stroke:#000000;stroke-width:1px;stroke-linecap:butt;stroke-linejoin:miter;stroke-opacity:1" />
    <path
       d="m -174.30942,369.89736 c 0.53656,1.41338 -0.146,3.29213 -0.3009,3.91176"
       id="path3108-5"
       style="fill:none;stroke:#000000;stroke-width:1px;stroke-linecap:butt;stroke-linejoin:miter;stroke-opacity:1" />
    <path
       d="m -177.16802,369.1451 c 0.74932,1.33909 0,3.53507 0,4.36312"
       id="path3110-6"
       style="fill:none;stroke:#000000;stroke-width:1px;stroke-linecap:butt;stroke-linejoin:miter;stroke-opacity:1" />
    <path
       d="m -221.1442,386.38583 c -4.05568,20.2733 6.06897,-4.55173 0,0 z"
       id="path3182"
       style="fill:none;stroke:#000000;stroke-width:1px;stroke-linecap:butt;stroke-linejoin:miter;stroke-opacity:1" />
    <path
       d="m -216.88876,385.1092 c 3.19712,17.55157 4.36859,1.74743 0,0 z"
       id="path3184"
       style="fill:none;stroke:#000000;stroke-width:1px;stroke-linecap:butt;stroke-linejoin:miter;stroke-opacity:1" />
    <path
       d="m -553.06347,410.23082 c -11.07164,-4.85035 -23.4779,19.80544 -0.60181,4.98594 1.70457,-1.10425 4.76518,1.33278 7.82353,-0.77327 4.33593,-2.98581 -5.14048,-4.7378 -7.22172,-4.21267 z"
       id="path3186"
       style="fill:url(#linearGradient4166);fill-opacity:1;stroke:#000000;stroke-width:1px;stroke-linecap:butt;stroke-linejoin:miter;stroke-opacity:1" />
    <path
       d="m -573.93079,445.80289 c -0.28816,-0.007 -2.07107,-4.47432 -5.78899,-2.86545 -11.73959,5.86979 5.09028,6.47357 5.78899,2.86545 z"
       id="path3190"
       style="fill:url(#linearGradient4126);fill-opacity:1;stroke:#000000;stroke-width:1px;stroke-linecap:butt;stroke-linejoin:miter;stroke-opacity:1" />
    <path
       d="m -640.41145,396.1568 c -5.21534,0 -10.88095,7.70898 -5.93259,7.70898 1.2304,0 9.83119,-2.60946 10.83258,-3.61086 2.82381,-2.8238 9.74085,2.29536 12.03621,0 1.63376,-1.63376 -7.33251,-5.70186 -17.1056,-4.09811"
       id="path3198"
       style="fill:url(#linearGradient4132);fill-opacity:1;stroke:#000000;stroke-width:1px;stroke-linecap:butt;stroke-linejoin:miter;stroke-opacity:1" />
    <path
       d="m -706.375,367.3125 c -1.4871,0.96644 -1.46672,2.97705 -1.6094,4.5628 -1.0032,10.62273 -1.2943,21.29871 -1.3808,31.96359 -0.1034,13.44934 -0.0906,26.89918 -0.01,40.34861 -0.36004,1.19656 0.57328,2.72899 1.90625,2.625 5.27034,0.88272 10.63738,0.55176 15.95462,0.78861 12.54946,0.18909 25.11354,0.12217 37.64338,-0.6502 2.5362,-0.20958 5.05812,-0.57198 7.55825,-1.04466 0.93876,-0.69131 0.27038,-2.02707 -0.4375,-2.625 -1.52749,-3.03085 -0.70517,-6.5959 -1.90625,-9.71875 -1.81878,-6.56433 -4.87912,-12.69131 -7.12354,-19.10377 -1.20971,-4.28249 -0.8906,-8.78055 -1.4387,-13.15908 -0.26039,-3.11111 -1.21246,-6.14911 -2.80779,-8.83445 -0.85785,-1.47044 -1.71953,-3.0491 -3.09872,-4.0902 -2.40409,-1.64116 -5.44525,-1.66416 -8.06153,-2.81423 -2.30436,-0.85085 -4.74286,-2.01178 -6.03534,-4.20014 -0.41622,-0.96205 -0.75138,-2.15838 -1.77813,-2.64188 -1.31111,-1.28384 -1.43624,-3.50732 -3.1875,-4.375 -1.87773,-1.62831 -4.21893,-2.6386 -6.64292,-3.11803 -5.60535,-1.69622 -11.21032,-3.88541 -17.14576,-3.9386 -0.13583,-0.002 -0.26624,-0.0207 -0.39882,0.0254 z"
       id="path3244"
       style="opacity:0.60606061;fill:none;stroke:#000000;stroke-width:0.80000001;stroke-linecap:butt;stroke-linejoin:miter;stroke-miterlimit:4;stroke-opacity:1;stroke-dasharray:none" />
    <path
       d="m -704.25752,446.77887 c -4.46026,-0.49497 -4.3578,-0.41231 -4.33935,-3.501 l 0.016,-2.673 4.78794,-1.2679 c 8.47145,-2.24334 8.95648,-4.16226 9.64,-3.73983 0.31259,0.19319 1.25997,1.75684 2.10531,3.47478 2.0088,4.08242 2.67024,4.33971 7.16328,2.78646 5.59094,-1.93279 11.04862,-2.52586 20.75741,-2.25562 4.68098,0.13029 10.36632,-1.24693 11.09398,-1.10035 1.32173,0.26624 1.32261,0.26832 0.91905,2.16048 -0.22217,1.0417 -0.30202,2.15961 -0.17744,2.48425 0.12457,0.32464 1.29083,0.92575 2.59168,1.33581 1.30085,0.41006 2.36518,0.87655 2.36518,1.03666 0,0.16011 -1.67558,0.53758 -3.72351,0.83883 -4.33066,0.63704 -48.12866,0.98317 -53.19951,0.42043 l 0,0 z"
       id="path3276"
       style="fill:#e2e3db;fill-opacity:1;stroke-width:4;stroke-miterlimit:4;stroke-dasharray:none" />
    <path
       d="m -670.62191,391.89506 c -2.70555,-1.24576 -4.55335,-2.08338 -6.2054,-2.77412 -2.76819,-1.15741 -3.94983,-4.3401 -0.35441,-4.00044 1.42772,1.19443 1.98347,2.37847 3.57549,2.69599 6.11158,1.21893 7.34021,1.75089 9.91626,4.29342 1.40989,1.39156 2.43286,2.76205 2.27326,3.04554 -0.52276,0.92851 -4.72413,-1.61682 -9.2052,-3.26035 z"
       id="path3278"
       style="fill:#e2e3db;fill-opacity:1;stroke-width:4;stroke-miterlimit:4;stroke-dasharray:none" />
    <path
       d="m -682.86233,380.39344 c -3.13177,-0.11723 -2.91155,-0.74626 -6.42436,-2.38165 -1.98644,-0.92477 -4.28385,-1.03 -7.91471,-1.76867 -3.37056,-0.6857 -5.39439,-3.63277 -6.52178,-4.71362 -2.42988,-2.32953 -1.9386,-3.24218 0.95627,-1.77641 1.14663,0.58058 3.5374,1.31484 5.01658,1.63167 5.06007,1.08387 7.57741,2.23921 11.01495,3.37805 1.55324,0.51457 2.94757,0.28044 3.72222,2.26306 0.4831,1.23642 3.54933,3.49484 0.15083,3.36757 z"
       id="path3280"
       style="fill:#e2e3db;fill-opacity:1;stroke-width:4;stroke-miterlimit:4;stroke-dasharray:none" />
    <path
       d="m -468.33071,439.19001 c -6.39955,-1.01553 -11.75374,5.09019 -9.28133,7.56259 1.93732,1.93733 8.10592,1.29609 12.94388,1.25623 6.89699,-0.0568 5.42022,-5.66031 -3.77666,-8.93352"
       id="path4094"
       style="fill:url(#radialGradient4102);fill-opacity:1;stroke:#000000;stroke-width:1px;stroke-linecap:butt;stroke-linejoin:miter;stroke-opacity:1" />
    <g
       id="text4104"
       style="font-size:13.34514427px;font-style:normal;font-variant:normal;font-weight:normal;font-stretch:normal;line-height:125%;letter-spacing:0px;word-spacing:0px;fill:#000000;fill-opacity:1;stroke:none;font-family:Linux Biolinum O;-inkscape-font-specification:Linux Biolinum O">
      <path
         d="m -700.25649,484.83598 c 0.35587,-0.10676 0.8185,-0.10676 1.17437,-0.10676 0.35587,0 0.96085,0 1.28114,0.10676 0.96084,-2.77578 2.02846,-5.72952 3.20283,-8.57648 1.03202,2.81138 2.13522,5.76511 3.16725,8.5409 0.35587,-0.10677 0.56939,-0.10677 0.92526,-0.10677 0.35587,0 0.99644,0 1.31672,0.10677 1.74377,-4.19927 4.59073,-11.032 6.61919,-15.48037 -0.32028,0.10676 -1.17437,0.10676 -1.53024,0.10676 -0.35587,0 -0.88968,0 -1.20996,-0.10676 -1.31672,4.19927 -2.91814,8.75442 -4.41279,12.17077 l -0.2847,0 c -1.45907,-3.91457 -2.56227,-8.39855 -3.38077,-12.17077 -0.46263,0.10676 -1.28113,0.10676 -1.77935,0.10676 -0.56939,0 -1.31672,0 -1.88612,-0.10676 0.46263,1.42348 0.96085,2.91814 1.53025,4.48397 -0.96085,2.7402 -1.95729,5.4804 -3.0249,7.72239 l -0.21352,0 c -1.77936,-4.05692 -2.95373,-8.07827 -4.23486,-12.17078 -0.46264,0.10677 -1.28114,0.10677 -1.77936,0.10677 -0.56939,0 -1.31672,0 -1.88611,-0.10677 2.38433,5.2313 4.4128,10.28467 6.40567,15.48037"
         id="path3247"
         style="font-size:35.58705139px" />
      <path
         d="m -680.72142,477.39829 c 0,4.27044 2.81138,7.65121 7.54445,7.65121 4.69749,0 7.54446,-3.3096 7.54446,-7.97149 0,-4.83984 -2.59786,-8.00709 -7.40211,-8.00709 -4.6619,0 -7.6868,3.27401 -7.6868,8.32737 m 7.43769,-6.90389 c 3.77222,0 4.51955,2.91814 4.51955,7.22417 0,3.41636 -1.70818,5.90745 -4.09251,5.90745 -3.77222,0 -4.73307,-4.09251 -4.73307,-6.83271 0,-3.09607 0.96085,-6.29891 4.30603,-6.29891"
         id="path3249"
         style="font-size:35.58705139px" />
      <path
         d="m -658.33717,472.80756 0,-3.23842 c 0,-0.24911 -0.0712,-0.35587 -0.21352,-0.35587 -0.8185,0.17793 -2.09964,0.21352 -2.88255,0.10676 l -0.0712,0.10676 c 0.2491,1.56583 0.32028,4.23486 0.32028,6.90389 l 0,1.95728 c 0,2.66903 -0.0712,4.51956 -0.32028,6.40567 l 0.0712,0.10677 c 0.42704,-0.0712 1.24555,-0.10677 1.67259,-0.10677 0.42704,0 1.24555,0.0356 1.67259,0.10677 l 0.0712,-0.10677 c -0.2847,-2.02846 -0.32029,-3.70105 -0.32029,-6.40567 l 0,-1.85052 c 0,-1.49466 0.42705,-2.34875 1.20996,-3.52312 0.49822,-0.78291 1.31672,-1.24555 1.99288,-1.24555 0.71174,0 1.38789,0.0712 1.85052,0.49822 l 0.2847,-0.0712 0.71174,-2.63344 -0.14235,-0.14235 c -0.60498,-0.17794 -0.64056,-0.24911 -1.28113,-0.24911 -1.9217,0 -2.95373,1.1032 -4.51956,3.80781 l -0.10676,-0.0712"
         id="path3251"
         style="font-size:35.58705139px" />
      <path
         d="m -648.42729,477.57622 c 0,2.66903 -0.0712,5.2313 -0.32028,7.11741 l 0.0712,0.10677 c 0.42705,-0.0712 1.24555,-0.10677 1.67259,-0.10677 0.42705,0 1.24555,0.0356 1.67259,0.10677 l 0.0712,-0.10677 c -0.2847,-2.02846 -0.32028,-4.41279 -0.32028,-7.11741 l 0,-0.35587 c 0.28469,0.0356 1.13878,0.14235 1.45906,0.39146 2.31316,2.41992 3.16725,3.70106 5.58717,7.18859 0.53381,-0.0356 1.74377,-0.10677 2.34875,-0.10677 0.56939,0 1.81494,0.0712 2.13522,0.10677 l 0.0712,-0.10677 c -2.66902,-2.77578 -4.55514,-4.34162 -7.93591,-8.46971 1.3879,-1.42348 4.87543,-4.80426 7.18859,-6.79713 l -0.0712,-0.10676 c -0.67615,0.10676 -2.63344,0.10676 -3.59429,0.10676 -1.56583,2.24198 -4.23486,5.12454 -5.62275,6.19215 -0.46264,0.35587 -1.1032,0.49821 -1.56583,0.5338 l 0,-9.25263 c 0,-2.66903 0.14234,-4.4128 0.32028,-6.69037 0,-0.24911 -0.10676,-0.35587 -0.32028,-0.35587 -0.92527,0.35587 -1.6726,0.60498 -3.09608,0.71174 l -0.0712,0.10676 c 0.24911,1.53025 0.32028,4.16369 0.32028,6.86831 l 0,10.03554"
         id="path3253"
         style="font-size:35.58705139px" />
      <path
         d="m -630.85062,463.44816 c 0,0.96085 0.85409,1.81494 1.81494,1.81494 0.96085,0 1.81494,-0.85409 1.81494,-1.81494 0,-0.96085 -0.85409,-1.81494 -1.81494,-1.81494 -0.96085,0 -1.81494,0.85409 -1.81494,1.81494 m 0.35587,12.88252 0,1.95728 c 0,2.66903 -0.0712,4.48398 -0.32028,6.40567 l 0.0712,0.10677 c 0.42704,-0.0712 1.24555,-0.10677 1.67259,-0.10677 0.42704,0 1.24555,0.0356 1.67259,0.10677 l 0.0712,-0.10677 c -0.2847,-1.99287 -0.32029,-3.70105 -0.32029,-6.40567 l 0,-2.52668 c 0,-2.66902 0.0712,-3.95016 0.32029,-6.12097 0,-0.32028 -0.0712,-0.35587 -0.32029,-0.35587 -0.8185,0.10676 -2.34874,0.10676 -3.09607,0.0356 l -0.0712,0.10676 c 0.21352,1.53024 0.32028,4.23486 0.32028,6.90389"
         id="path3255"
         style="font-size:35.58705139px" />
      <path
         d="m -608.08325,478.28796 c 0,-1.13878 0.0712,-2.4555 0.0712,-3.59429 0,-3.70105 -1.20996,-5.62275 -4.41279,-5.62275 -1.35231,0 -3.87899,0.53381 -6.15656,3.20283 l -0.0712,-0.10676 0,-2.59785 c -0.0356,-0.24911 -0.0712,-0.35587 -0.21353,-0.35587 -0.8185,0.17793 -2.09963,0.21352 -2.88255,0.10676 l -0.0712,0.10676 c 0.24911,1.56583 0.32028,4.23486 0.32028,6.90389 l 0,1.95728 c 0,2.66903 -0.0356,4.48398 -0.32028,6.40567 l 0.0712,0.10677 c 0.42705,-0.0712 1.24555,-0.10677 1.67259,-0.10677 0.42705,0 1.24555,0.0356 1.6726,0.10677 l 0.0712,-0.10677 c -0.2847,-2.02846 -0.32028,-3.70105 -0.32028,-6.40567 l 0,-4.16368 c 1.81493,-2.13522 3.87899,-2.91814 5.16012,-2.91814 1.81494,0 2.56227,0.71175 2.56227,3.59429 l 0,3.48753 c 0,2.66903 -0.0712,4.51956 -0.32029,6.40567 l 0.0712,0.10677 c 0.42704,-0.0712 1.24554,-0.10677 1.67259,-0.10677 0.42704,0 1.24555,0.0356 1.67259,0.10677 l 0.0712,-0.10677 c -0.28469,-2.02846 -0.32028,-3.70105 -0.32028,-6.40567"
         id="path3257"
         style="font-size:35.58705139px" />
      <path
         d="m -601.67535,488.39469 c 0,-1.17437 1.06761,-2.4911 2.31315,-3.16725 1.03203,0 2.66903,-0.10676 3.16725,-0.10676 1.70818,0 2.77579,0.0356 3.77223,0.60498 1.03202,0.60498 1.38789,1.637 1.38789,2.56227 0,2.1708 -2.91814,3.34518 -5.97862,3.34518 -1.20996,0 -4.6619,-0.81851 -4.6619,-3.23842 m 10.28465,-13.98571 c 0,-2.45551 -0.96085,-3.45195 -1.81494,-3.98575 1.06762,0.0712 2.24199,0.21352 3.73665,0.35587 l 0.10676,-0.10676 c -0.0712,-0.32029 -0.10676,-0.60498 -0.10676,-0.92527 0,-0.32028 0.0356,-0.60498 0.10676,-0.92526 l -0.10676,-0.10676 c -1.70818,0.17793 -2.98932,0.5338 -5.62276,0.67615 -0.64057,-0.21352 -1.42348,-0.32028 -2.17081,-0.32028 -2.81137,0 -6.0498,1.88612 -6.0498,5.40923 0,2.66903 1.53025,3.87899 2.52668,4.44838 -1.03202,0.71174 -2.20639,1.74377 -2.20639,2.95373 0,1.45906 0.78291,2.7402 2.66902,3.09607 -0.74732,0.42704 -2.09963,1.06761 -2.98931,1.77935 -0.46263,0.67616 -0.8185,1.70818 -0.8185,2.34875 0,3.09607 3.52312,4.05692 6.12097,4.05692 4.59073,0 9.57292,-1.85053 9.57292,-5.69393 0,-1.56582 -0.49822,-2.66903 -1.49466,-3.52311 -1.3523,-1.13879 -3.77223,-1.17438 -5.01777,-1.17438 -0.60498,0 -2.13522,0.0712 -2.95373,0.17794 -0.49821,0.0356 -0.85409,0.0712 -1.03202,0.0712 -0.99644,0 -2.06405,-0.14235 -2.06405,-1.67259 0,-0.71174 0.2847,-1.31672 1.06761,-1.99287 0.46263,0.24911 1.53025,0.49822 2.63344,0.49822 3.95016,0 5.90745,-2.45551 5.90745,-5.44482 m -2.77579,0.17793 c 0,2.31316 -0.67615,3.8434 -2.95372,3.8434 -2.56227,0 -3.41636,-1.53024 -3.41636,-4.12809 0,-2.34875 1.06762,-3.87899 3.13166,-3.87899 2.31316,0 3.23842,1.637 3.23842,4.16368"
         id="path3259"
         style="font-size:35.58705139px" />
      <path
         d="m -575.26809,469.42679 c -0.74733,0 -1.49466,0 -1.92171,-0.0712 -0.2491,0.60498 -0.46263,0.92527 -0.78291,1.45907 l 0.17793,0.24911 c 0.60498,-0.0356 1.70818,-0.0356 2.52669,-0.0712 l 0,4.87543 c 0,2.13522 -0.10677,4.69749 -0.10677,5.7651 0,2.31315 1.49466,3.41635 3.13166,3.41635 1.49466,0 2.63345,-0.35587 4.1281,-1.31672 l -0.46263,-0.85409 c -1.06761,0.39146 -1.88611,0.42705 -2.77579,0.2847 -0.85409,-0.14235 -1.17437,-0.99644 -1.17437,-2.91814 0,-1.06761 0.10676,-2.59785 0.10676,-4.73308 l 0,-4.48396 1.35231,0 c 0.85409,0 2.06405,0 2.56226,0.0712 0.10677,-0.56939 0.21353,-0.96085 0.42705,-1.45907 l -0.17794,-0.24911 c -0.64056,0 -1.67259,0.0712 -2.49109,0.0712 l -1.67259,0 c 0,-2.66903 0,-3.13167 0.17793,-5.19571 0,-0.2847 -0.10676,-0.35587 -0.32028,-0.35587 -0.92526,0.35587 -1.35231,0.71174 -2.49109,0.88967 l -0.0712,0.10676 c 0,1.35231 -0.14234,2.4911 -0.14234,4.55515 l 0,-0.0356"
         id="path3261"
         style="font-size:35.58705139px" />
      <path
         d="m -565.20252,477.39829 c 0,4.27044 2.81138,7.65121 7.54446,7.65121 4.69748,0 7.54445,-3.3096 7.54445,-7.97149 0,-4.83984 -2.59786,-8.00709 -7.4021,-8.00709 -4.6619,0 -7.68681,3.27401 -7.68681,8.32737 m 7.4377,-6.90389 c 3.77222,0 4.51955,2.91814 4.51955,7.22417 0,3.41636 -1.70818,5.90745 -4.09251,5.90745 -3.77222,0 -4.73308,-4.09251 -4.73308,-6.83271 0,-3.09607 0.96086,-6.29891 4.30604,-6.29891"
         id="path3263"
         style="font-size:35.58705139px" />
      <path
         d="m -545.16701,488.39469 c 0,-1.17437 1.06761,-2.4911 2.31315,-3.16725 1.03203,0 2.66903,-0.10676 3.16725,-0.10676 1.70818,0 2.77579,0.0356 3.77223,0.60498 1.03202,0.60498 1.38789,1.637 1.38789,2.56227 0,2.1708 -2.91814,3.34518 -5.97862,3.34518 -1.20996,0 -4.6619,-0.81851 -4.6619,-3.23842 m 10.28465,-13.98571 c 0,-2.45551 -0.96085,-3.45195 -1.81494,-3.98575 1.06761,0.0712 2.24199,0.21352 3.73664,0.35587 l 0.10677,-0.10676 c -0.0712,-0.32029 -0.10677,-0.60498 -0.10677,-0.92527 0,-0.32028 0.0356,-0.60498 0.10677,-0.92526 l -0.10677,-0.10676 c -1.70817,0.17793 -2.98931,0.5338 -5.62275,0.67615 -0.64057,-0.21352 -1.42348,-0.32028 -2.17081,-0.32028 -2.81137,0 -6.0498,1.88612 -6.0498,5.40923 0,2.66903 1.53025,3.87899 2.52668,4.44838 -1.03202,0.71174 -2.2064,1.74377 -2.2064,2.95373 0,1.45906 0.78292,2.7402 2.66903,3.09607 -0.74732,0.42704 -2.09963,1.06761 -2.98931,1.77935 -0.46263,0.67616 -0.8185,1.70818 -0.8185,2.34875 0,3.09607 3.52312,4.05692 6.12097,4.05692 4.59073,0 9.57292,-1.85053 9.57292,-5.69393 0,-1.56582 -0.49822,-2.66903 -1.49466,-3.52311 -1.3523,-1.13879 -3.77223,-1.17438 -5.01777,-1.17438 -0.60498,0 -2.13523,0.0712 -2.95373,0.17794 -0.49822,0.0356 -0.85409,0.0712 -1.03202,0.0712 -0.99644,0 -2.06405,-0.14235 -2.06405,-1.67259 0,-0.71174 0.2847,-1.31672 1.06761,-1.99287 0.46263,0.24911 1.53025,0.49822 2.63344,0.49822 3.95016,0 5.90745,-2.45551 5.90745,-5.44482 m -2.77579,0.17793 c 0,2.31316 -0.67615,3.8434 -2.95372,3.8434 -2.56227,0 -3.41636,-1.53024 -3.41636,-4.12809 0,-2.34875 1.06761,-3.87899 3.13166,-3.87899 2.31316,0 3.23842,1.637 3.23842,4.16368"
         id="path3265"
         style="font-size:35.58705139px" />
      <path
         d="m -527.14494,474.97837 c 0.60498,-3.70105 3.23842,-4.48397 4.05692,-4.48397 1.28114,0 2.98931,1.31672 2.98931,3.98575 0,0.32028 -0.14234,0.49822 -0.49821,0.49822 l -6.54802,0 m 9.50174,6.01421 c -1.24554,1.35231 -2.91814,1.95729 -4.87542,1.95729 -1.24555,0 -2.91814,-0.46263 -3.87899,-2.02846 -0.64057,-0.99644 -0.85409,-2.41993 -0.85409,-4.51956 l 9.67968,0 c 0.39145,0 0.64056,-0.21352 0.64056,-0.60498 0,-2.98931 -1.45907,-6.72595 -6.15656,-6.72595 -3.38076,0 -7.29534,2.95373 -7.29534,8.18502 0,2.02846 0.39146,4.02134 1.60141,5.44482 1.20996,1.49465 3.23843,2.34874 5.65835,2.34874 2.56226,0 4.83984,-1.31672 6.19214,-3.16724 l -0.71174,-0.88968"
         id="path3267"
         style="font-size:35.58705139px" />
      <path
         d="m -512.08717,469.42679 c -0.74733,0 -1.49466,0 -1.9217,-0.0712 -0.24911,0.60498 -0.46263,0.92527 -0.78292,1.45907 l 0.17794,0.24911 c 0.60498,-0.0356 1.70818,-0.0356 2.52668,-0.0712 l 0,4.87543 c 0,2.13522 -0.10676,4.69749 -0.10676,5.7651 0,2.31315 1.49466,3.41635 3.13166,3.41635 1.49465,0 2.63344,-0.35587 4.1281,-1.31672 l -0.46264,-0.85409 c -1.06761,0.39146 -1.88611,0.42705 -2.77579,0.2847 -0.85408,-0.14235 -1.17437,-0.99644 -1.17437,-2.91814 0,-1.06761 0.10676,-2.59785 0.10676,-4.73308 l 0,-4.48396 1.35231,0 c 0.85409,0 2.06405,0 2.56227,0.0712 0.10676,-0.56939 0.21352,-0.96085 0.42704,-1.45907 l -0.17793,-0.24911 c -0.64057,0 -1.67259,0.0712 -2.4911,0.0712 l -1.67259,0 c 0,-2.66903 0,-3.13167 0.17794,-5.19571 0,-0.2847 -0.10676,-0.35587 -0.32029,-0.35587 -0.92526,0.35587 -1.3523,0.71174 -2.49109,0.88967 l -0.0712,0.10676 c 0,1.35231 -0.14235,2.4911 -0.14235,4.55515 l 0,-0.0356"
         id="path3269"
         style="font-size:35.58705139px" />
      <path
         d="m -497.3241,472.16699 0,-5.30247 c 0,-2.63344 0.14235,-4.44838 0.32028,-6.65478 0,-0.24911 -0.10676,-0.35587 -0.32028,-0.35587 -0.92527,0.35587 -1.6726,0.60498 -3.09608,0.71174 l -0.0712,0.10676 c 0.24911,1.53025 0.32028,4.19928 0.32028,6.90389 l 0,10.7117 c 0,2.66903 -0.0712,4.4128 -0.32028,6.40567 l 0.0712,0.10677 c 0.42705,-0.0712 1.24555,-0.10677 1.6726,-0.10677 0.42704,0 1.24554,0.0356 1.67259,0.10677 l 0.0712,-0.10677 c -0.2847,-2.02846 -0.32028,-3.70105 -0.32028,-6.40567 l 0,-4.16368 c 1.81494,-2.13522 3.87899,-2.91814 5.16012,-2.91814 1.81494,0 2.56227,0.71175 2.56227,3.59429 l 0,3.48753 c 0,2.66903 -0.0356,4.51956 -0.32029,6.40567 l 0.0712,0.10677 c 0.42704,-0.0712 1.24555,-0.10677 1.67259,-0.10677 0.42704,0 1.24555,0.0356 1.67259,0.10677 l 0.0712,-0.10677 c -0.2847,-2.02846 -0.32029,-3.70105 -0.32029,-6.40567 0,-1.13878 0.0712,-2.4555 0.0712,-3.59429 0,-3.70105 -1.20997,-5.62275 -4.4128,-5.62275 -1.35231,0 -3.87899,0.53381 -6.15656,3.20283 l -0.0712,-0.10676"
         id="path3271"
         style="font-size:35.58705139px" />
      <path
         d="m -479.39435,474.97837 c 0.60498,-3.70105 3.23843,-4.48397 4.05693,-4.48397 1.28113,0 2.98931,1.31672 2.98931,3.98575 0,0.32028 -0.14235,0.49822 -0.49822,0.49822 l -6.54802,0 m 9.50175,6.01421 c -1.24555,1.35231 -2.91814,1.95729 -4.87543,1.95729 -1.24555,0 -2.91814,-0.46263 -3.87899,-2.02846 -0.64056,-0.99644 -0.85409,-2.41993 -0.85409,-4.51956 l 9.67968,0 c 0.39146,0 0.64057,-0.21352 0.64057,-0.60498 0,-2.98931 -1.45908,-6.72595 -6.15656,-6.72595 -3.38077,0 -7.29535,2.95373 -7.29535,8.18502 0,2.02846 0.39146,4.02134 1.60142,5.44482 1.20996,1.49465 3.23842,2.34874 5.65834,2.34874 2.56227,0 4.83984,-1.31672 6.19215,-3.16724 l -0.71174,-0.88968"
         id="path3273"
         style="font-size:35.58705139px" />
      <path
         d="m -461.77431,472.80756 0,-3.23842 c 0,-0.24911 -0.0712,-0.35587 -0.21352,-0.35587 -0.8185,0.17793 -2.09964,0.21352 -2.88255,0.10676 l -0.0712,0.10676 c 0.24911,1.56583 0.32029,4.23486 0.32029,6.90389 l 0,1.95728 c 0,2.66903 -0.0712,4.51956 -0.32029,6.40567 l 0.0712,0.10677 c 0.42704,-0.0712 1.24555,-0.10677 1.67259,-0.10677 0.42704,0 1.24555,0.0356 1.67259,0.10677 l 0.0712,-0.10677 c -0.28469,-2.02846 -0.32028,-3.70105 -0.32028,-6.40567 l 0,-1.85052 c 0,-1.49466 0.42705,-2.34875 1.20996,-3.52312 0.49822,-0.78291 1.31672,-1.24555 1.99288,-1.24555 0.71174,0 1.38789,0.0712 1.85052,0.49822 l 0.2847,-0.0712 0.71174,-2.63344 -0.14235,-0.14235 c -0.60498,-0.17794 -0.64057,-0.24911 -1.28113,-0.24911 -1.9217,0 -2.95373,1.1032 -4.51956,3.80781 l -0.10676,-0.0712"
         id="path3275"
         style="font-size:35.58705139px" />
      <path
         d="m -442.78973,469.42679 c -0.74733,0 -1.49466,0 -1.9217,-0.0712 -0.24911,0.60498 -0.46263,0.92527 -0.78292,1.45907 l 0.17794,0.24911 c 0.60498,-0.0356 1.70818,-0.0356 2.52668,-0.0712 l 0,4.87543 c 0,2.13522 -0.10676,4.69749 -0.10676,5.7651 0,2.31315 1.49465,3.41635 3.13166,3.41635 1.49465,0 2.63344,-0.35587 4.1281,-1.31672 l -0.46264,-0.85409 c -1.06761,0.39146 -1.88611,0.42705 -2.77579,0.2847 -0.85408,-0.14235 -1.17437,-0.99644 -1.17437,-2.91814 0,-1.06761 0.10676,-2.59785 0.10676,-4.73308 l 0,-4.48396 1.35231,0 c 0.85409,0 2.06405,0 2.56227,0.0712 0.10676,-0.56939 0.21352,-0.96085 0.42704,-1.45907 l -0.17793,-0.24911 c -0.64057,0 -1.67259,0.0712 -2.4911,0.0712 l -1.67259,0 c 0,-2.66903 0,-3.13167 0.17794,-5.19571 0,-0.2847 -0.10676,-0.35587 -0.32029,-0.35587 -0.92526,0.35587 -1.35231,0.71174 -2.49109,0.88967 l -0.0712,0.10676 c 0,1.35231 -0.14235,2.4911 -0.14235,4.55515 l 0,-0.0356"
         id="path3277"
         style="font-size:35.58705139px" />
      <path
         d="m -432.72417,477.39829 c 0,4.27044 2.81138,7.65121 7.54446,7.65121 4.69748,0 7.54445,-3.3096 7.54445,-7.97149 0,-4.83984 -2.59786,-8.00709 -7.40211,-8.00709 -4.6619,0 -7.6868,3.27401 -7.6868,8.32737 m 7.43769,-6.90389 c 3.77223,0 4.51956,2.91814 4.51956,7.22417 0,3.41636 -1.70818,5.90745 -4.09251,5.90745 -3.77222,0 -4.73308,-4.09251 -4.73308,-6.83271 0,-3.09607 0.96086,-6.29891 4.30603,-6.29891"
         id="path3279"
         style="font-size:35.58705139px" />
      <path
         d="m -398.48941,470.4944 c 1.35231,0 2.59786,1.03203 3.55871,2.63344 l 0.46263,-0.0356 0.8185,-2.91814 -0.0712,-0.10676 c -1.1032,-0.5694 -2.95373,-0.99644 -4.73308,-0.99644 -3.70105,0 -7.58004,3.0249 -7.58004,7.86474 0,4.98218 2.81138,8.11384 7.153,8.11384 2.13522,0 3.80781,-0.71174 5.23129,-2.52668 l -0.67615,-0.74732 -0.14235,0 c -1.35231,1.20995 -2.49109,1.49465 -3.80781,1.49465 -2.59786,0 -4.62632,-2.34875 -4.62632,-6.51243 0,-3.91457 2.06405,-6.26332 4.41279,-6.26332"
         id="path3281"
         style="font-size:35.58705139px" />
      <path
         d="m -388.89204,477.57622 c 0,2.66903 -0.0712,5.2313 -0.32029,7.11741 l 0.0712,0.10677 c 0.42704,-0.0712 1.24554,-0.10677 1.67259,-0.10677 0.42704,0 1.24554,0.0356 1.67259,0.10677 l 0.0712,-0.10677 c -0.28469,-2.02846 -0.32028,-4.41279 -0.32028,-7.11741 l 0,-10.67611 c 0,-2.66903 0.14235,-4.4128 0.32028,-6.69037 0,-0.24911 -0.10676,-0.35587 -0.32028,-0.35587 -0.92526,0.35587 -1.67259,0.60498 -3.09607,0.71174 l -0.0712,0.10676 c 0.24911,1.53025 0.32029,4.16369 0.32029,6.86831 l 0,10.03554"
         id="path3283"
         style="font-size:35.58705139px" />
      <path
         d="m -378.68022,474.97837 c 0.60498,-3.70105 3.23842,-4.48397 4.05692,-4.48397 1.28114,0 2.98932,1.31672 2.98932,3.98575 0,0.32028 -0.14235,0.49822 -0.49822,0.49822 l -6.54802,0 m 9.50174,6.01421 c -1.24554,1.35231 -2.91814,1.95729 -4.87542,1.95729 -1.24555,0 -2.91814,-0.46263 -3.87899,-2.02846 -0.64057,-0.99644 -0.85409,-2.41993 -0.85409,-4.51956 l 9.67968,0 c 0.39145,0 0.64056,-0.21352 0.64056,-0.60498 0,-2.98931 -1.45907,-6.72595 -6.15656,-6.72595 -3.38076,0 -7.29534,2.95373 -7.29534,8.18502 0,2.02846 0.39146,4.02134 1.60142,5.44482 1.20995,1.49465 3.23842,2.34874 5.65834,2.34874 2.56226,0 4.83984,-1.31672 6.19214,-3.16724 l -0.71174,-0.88968"
         id="path3285"
         style="font-size:35.58705139px" />
      <path
         d="m -355.76272,476.68655 -0.14235,4.23486 c 0,0.46263 -0.21352,0.71174 -0.49822,0.92526 -0.99644,0.74733 -2.2064,1.38789 -3.27401,1.38789 -1.60141,0 -2.63344,-1.06761 -2.63344,-2.17081 0,-1.60141 0.74733,-2.81137 3.52312,-3.5587 l 3.0249,-0.8185 m 0,6.29891 c 0.39145,1.42348 1.45907,2.06404 2.77579,2.06404 0.88967,0 1.99287,-0.21352 2.81137,-1.10319 l -0.2491,-0.85409 c -0.39146,0.14234 -0.71175,0.17793 -0.96085,0.17793 -0.35588,0 -0.81851,-0.0712 -1.06762,-0.24911 -0.35587,-0.35587 -0.56939,-1.20996 -0.56939,-2.77579 0,-1.03202 0.10676,-4.98218 0.10676,-5.37364 0,-4.80425 -3.16725,-5.7651 -5.87186,-5.7651 -2.70461,0 -4.34162,1.31672 -5.2313,2.06404 l -0.10676,0.14235 0.60498,2.38434 0.46263,0.0356 c 0.99644,-1.60141 2.2064,-3.0249 3.91458,-3.0249 1.28113,0 3.41635,0.17794 3.41635,4.19927 0,0.24911 -0.14234,0.39146 -0.2491,0.42705 l -3.3096,0.74733 c -3.62988,0.8185 -5.90745,2.7402 -5.90745,5.16012 0,2.63344 1.81494,3.8434 4.44838,3.8434 1.95729,0 2.95373,-0.46263 4.83984,-2.06405 l 0.14235,-0.0356"
         id="path3287"
         style="font-size:35.58705139px" />
      <path
         d="m -343.75319,472.80756 0,-3.23842 c 0,-0.24911 -0.0712,-0.35587 -0.21352,-0.35587 -0.8185,0.17793 -2.09964,0.21352 -2.88255,0.10676 l -0.0712,0.10676 c 0.24911,1.56583 0.32029,4.23486 0.32029,6.90389 l 0,1.95728 c 0,2.66903 -0.0712,4.51956 -0.32029,6.40567 l 0.0712,0.10677 c 0.42704,-0.0712 1.24554,-0.10677 1.67259,-0.10677 0.42704,0 1.24554,0.0356 1.67259,0.10677 l 0.0712,-0.10677 c -0.28469,-2.02846 -0.32028,-3.70105 -0.32028,-6.40567 l 0,-1.85052 c 0,-1.49466 0.42704,-2.34875 1.20996,-3.52312 0.49822,-0.78291 1.31672,-1.24555 1.99287,-1.24555 0.71174,0 1.3879,0.0712 1.85053,0.49822 l 0.2847,-0.0712 0.71174,-2.63344 -0.14235,-0.14235 c -0.60498,-0.17794 -0.64057,-0.24911 -1.28113,-0.24911 -1.9217,0 -2.95373,1.1032 -4.51956,3.80781 l -0.10676,-0.0712"
         id="path3289"
         style="font-size:35.58705139px" />
      <path
         d="m -324.76861,469.42679 c -0.74733,0 -1.49466,0 -1.9217,-0.0712 -0.24911,0.60498 -0.46264,0.92527 -0.78292,1.45907 l 0.17794,0.24911 c 0.60497,-0.0356 1.70817,-0.0356 2.52668,-0.0712 l 0,4.87543 c 0,2.13522 -0.10676,4.69749 -0.10676,5.7651 0,2.31315 1.49465,3.41635 3.13166,3.41635 1.49465,0 2.63344,-0.35587 4.12809,-1.31672 l -0.46263,-0.85409 c -1.06761,0.39146 -1.88611,0.42705 -2.77579,0.2847 -0.85409,-0.14235 -1.17437,-0.99644 -1.17437,-2.91814 0,-1.06761 0.10676,-2.59785 0.10676,-4.73308 l 0,-4.48396 1.35231,0 c 0.85409,0 2.06405,0 2.56227,0.0712 0.10676,-0.56939 0.21352,-0.96085 0.42704,-1.45907 l -0.17793,-0.24911 c -0.64057,0 -1.6726,0.0712 -2.4911,0.0712 l -1.67259,0 c 0,-2.66903 0,-3.13167 0.17794,-5.19571 0,-0.2847 -0.10677,-0.35587 -0.32029,-0.35587 -0.92526,0.35587 -1.35231,0.71174 -2.49109,0.88967 l -0.0712,0.10676 c 0,1.35231 -0.14234,2.4911 -0.14234,4.55515 l 0,-0.0356"
         id="path3291"
         style="font-size:35.58705139px" />
      <path
         d="m -310.00556,472.16699 0,-5.30247 c 0,-2.63344 0.14235,-4.44838 0.32028,-6.65478 0,-0.24911 -0.10676,-0.35587 -0.32028,-0.35587 -0.92526,0.35587 -1.67259,0.60498 -3.09607,0.71174 l -0.0712,0.10676 c 0.24911,1.53025 0.32029,4.19928 0.32029,6.90389 l 0,10.7117 c 0,2.66903 -0.0712,4.4128 -0.32029,6.40567 l 0.0712,0.10677 c 0.42704,-0.0712 1.24554,-0.10677 1.67259,-0.10677 0.42704,0 1.24555,0.0356 1.67259,0.10677 l 0.0712,-0.10677 c -0.28469,-2.02846 -0.32028,-3.70105 -0.32028,-6.40567 l 0,-4.16368 c 1.81494,-2.13522 3.87899,-2.91814 5.16012,-2.91814 1.81494,0 2.56227,0.71175 2.56227,3.59429 l 0,3.48753 c 0,2.66903 -0.0356,4.51956 -0.32028,6.40567 l 0.0712,0.10677 c 0.42704,-0.0712 1.24555,-0.10677 1.67259,-0.10677 0.42705,0 1.24555,0.0356 1.67259,0.10677 l 0.0712,-0.10677 c -0.2847,-2.02846 -0.32029,-3.70105 -0.32029,-6.40567 0,-1.13878 0.0712,-2.4555 0.0712,-3.59429 0,-3.70105 -1.20996,-5.62275 -4.4128,-5.62275 -1.3523,0 -3.87899,0.53381 -6.15656,3.20283 l -0.0712,-0.10676"
         id="path3293"
         style="font-size:35.58705139px" />
      <path
         d="m -292.07579,474.97837 c 0.60498,-3.70105 3.23842,-4.48397 4.05693,-4.48397 1.28113,0 2.98931,1.31672 2.98931,3.98575 0,0.32028 -0.14235,0.49822 -0.49822,0.49822 l -6.54802,0 m 9.50174,6.01421 c -1.24554,1.35231 -2.91814,1.95729 -4.87542,1.95729 -1.24555,0 -2.91814,-0.46263 -3.87899,-2.02846 -0.64057,-0.99644 -0.85409,-2.41993 -0.85409,-4.51956 l 9.67968,0 c 0.39146,0 0.64057,-0.21352 0.64057,-0.60498 0,-2.98931 -1.45908,-6.72595 -6.15656,-6.72595 -3.38077,0 -7.29535,2.95373 -7.29535,8.18502 0,2.02846 0.39146,4.02134 1.60142,5.44482 1.20996,1.49465 3.23842,2.34874 5.65834,2.34874 2.56226,0 4.83984,-1.31672 6.19215,-3.16724 l -0.71175,-0.88968"
         id="path3295"
         style="font-size:35.58705139px" />
      <path
         d="m -265.73691,474.23104 c 0.78291,-1.88611 2.88255,-3.52312 4.27044,-3.52312 2.41992,0 3.66547,2.2064 3.66547,6.22774 0,2.91813 -0.81851,6.69036 -4.62632,6.69036 -0.56939,0 -2.06405,-0.14235 -3.30959,-1.60141 l 0,-7.79357 m 0,-2.06405 0,-2.59785 c 0,-0.24911 -0.0712,-0.35587 -0.21352,-0.35587 -0.81851,0.17793 -2.09964,0.21352 -2.88256,0.10676 l -0.0712,0.10676 c 0.24911,1.56583 0.32028,4.23486 0.32028,6.90389 l 0,9.50174 c 0,2.66903 -0.0712,5.2313 -0.32028,7.11741 l 0.0712,0.10676 c 0.42705,-0.0712 1.24555,-0.10676 1.6726,-0.10676 0.42704,0 1.24554,0.0356 1.67259,0.10676 l 0.0712,-0.10676 c -0.28469,-2.02846 -0.32028,-4.4128 -0.32028,-7.11741 l 0,-1.56583 c 0.92526,0.49822 2.24198,0.78291 3.52312,0.78291 4.69748,0 7.54445,-3.55871 7.54445,-8.57647 0,-3.77223 -2.2064,-7.40211 -6.19215,-7.40211 -1.38789,0 -3.16725,0.71174 -4.80425,3.20283 l -0.0712,-0.10676"
         id="path3297"
         style="font-size:35.58705139px" />
      <path
         d="m -241.63391,476.68655 -0.14235,4.23486 c 0,0.46263 -0.21352,0.71174 -0.49821,0.92526 -0.99644,0.74733 -2.2064,1.38789 -3.27401,1.38789 -1.60142,0 -2.63345,-1.06761 -2.63345,-2.17081 0,-1.60141 0.74734,-2.81137 3.52312,-3.5587 l 3.0249,-0.8185 m 0,6.29891 c 0.39146,1.42348 1.45907,2.06404 2.77579,2.06404 0.88968,0 1.99288,-0.21352 2.81138,-1.10319 l -0.24911,-0.85409 c -0.39146,0.14234 -0.71174,0.17793 -0.96085,0.17793 -0.35587,0 -0.8185,-0.0712 -1.06761,-0.24911 -0.35587,-0.35587 -0.56939,-1.20996 -0.56939,-2.77579 0,-1.03202 0.10676,-4.98218 0.10676,-5.37364 0,-4.80425 -3.16725,-5.7651 -5.87187,-5.7651 -2.70461,0 -4.34162,1.31672 -5.23129,2.06404 l -0.10676,0.14235 0.60498,2.38434 0.46263,0.0356 c 0.99643,-1.60141 2.2064,-3.0249 3.91457,-3.0249 1.28114,0 3.41636,0.17794 3.41636,4.19927 0,0.24911 -0.14235,0.39146 -0.24911,0.42705 l -3.3096,0.74733 c -3.62987,0.8185 -5.90745,2.7402 -5.90745,5.16012 0,2.63344 1.81495,3.8434 4.44839,3.8434 1.95728,0 2.95372,-0.46263 4.83983,-2.06405 l 0.14235,-0.0356"
         id="path3299"
         style="font-size:35.58705139px" />
      <path
         d="m -232.18667,469.42679 c -0.74733,0 -1.49466,0 -1.9217,-0.0712 -0.24911,0.60498 -0.46264,0.92527 -0.78292,1.45907 l 0.17794,0.24911 c 0.60497,-0.0356 1.70817,-0.0356 2.52668,-0.0712 l 0,4.87543 c 0,2.13522 -0.10677,4.69749 -0.10677,5.7651 0,2.31315 1.49466,3.41635 3.13167,3.41635 1.49465,0 2.63344,-0.35587 4.12809,-1.31672 l -0.46263,-0.85409 c -1.06761,0.39146 -1.88611,0.42705 -2.77579,0.2847 -0.85409,-0.14235 -1.17437,-0.99644 -1.17437,-2.91814 0,-1.06761 0.10676,-2.59785 0.10676,-4.73308 l 0,-4.48396 1.35231,0 c 0.85409,0 2.06405,0 2.56227,0.0712 0.10676,-0.56939 0.21352,-0.96085 0.42704,-1.45907 l -0.17793,-0.24911 c -0.64057,0 -1.6726,0.0712 -2.4911,0.0712 l -1.67259,0 c 0,-2.66903 0,-3.13167 0.17794,-5.19571 0,-0.2847 -0.10677,-0.35587 -0.32029,-0.35587 -0.92526,0.35587 -1.35231,0.71174 -2.49109,0.88967 l -0.0712,0.10676 c 0,1.35231 -0.14234,2.4911 -0.14234,4.55515 l 0,-0.0356"
         id="path3301"
         style="font-size:35.58705139px" />
      <path
         d="m -217.42362,472.16699 0,-5.30247 c 0,-2.63344 0.14235,-4.44838 0.32028,-6.65478 0,-0.24911 -0.10676,-0.35587 -0.32028,-0.35587 -0.92526,0.35587 -1.67259,0.60498 -3.09607,0.71174 l -0.0712,0.10676 c 0.24911,1.53025 0.32029,4.19928 0.32029,6.90389 l 0,10.7117 c 0,2.66903 -0.0712,4.4128 -0.32029,6.40567 l 0.0712,0.10677 c 0.42704,-0.0712 1.24554,-0.10677 1.67259,-0.10677 0.42704,0 1.24554,0.0356 1.67259,0.10677 l 0.0712,-0.10677 c -0.28469,-2.02846 -0.32028,-3.70105 -0.32028,-6.40567 l 0,-4.16368 c 1.81494,-2.13522 3.87899,-2.91814 5.16012,-2.91814 1.81494,0 2.56227,0.71175 2.56227,3.59429 l 0,3.48753 c 0,2.66903 -0.0356,4.51956 -0.32028,6.40567 l 0.0712,0.10677 c 0.42704,-0.0712 1.24555,-0.10677 1.67259,-0.10677 0.42705,0 1.24555,0.0356 1.67259,0.10677 l 0.0712,-0.10677 c -0.2847,-2.02846 -0.32029,-3.70105 -0.32029,-6.40567 0,-1.13878 0.0712,-2.4555 0.0712,-3.59429 0,-3.70105 -1.20997,-5.62275 -4.4128,-5.62275 -1.3523,0 -3.87899,0.53381 -6.15656,3.20283 l -0.0712,-0.10676"
         id="path3303"
         style="font-size:35.58705139px" />
    </g>
    <path
       d="m -584.26792,388.35388 c -3.12321,-3.58758 -8.37081,-9.12749 -13.59299,-9.41387 -4.94338,-4.74486 -11.90004,-4.51262 -17.74435,-7.60293 -10.12615,-9.44405 -16.98808,-5.93426 -22.19071,-9.47472 -8.06031,-3.1023 -15.30628,-4.75674 -19.48635,-6.17748 -6.55759,-1.96716 -12.25768,-5.72218 -18.54971,-10.21813 -4.8706,-4.52266 -21.34071,-1.39055 -17.01185,-5.41496 2.94533,-3.93079 8.22345,-2.32481 13.44195,-1.11202 6.49003,2.48923 11.38588,5.64055 16.95553,8.14029 4.56796,2.81075 8.60886,6.98524 14.24965,7.32989 12.40405,1.76242 22.60764,6.59965 33.46924,11.29987 3.97616,2.52906 8.05806,3.34582 12.82435,6.59117 4.93881,3.36282 9.85011,4.72348 15.87408,9.91682 5.20754,6.01708 10.48437,4.77524 17.46307,6.38726 4.52623,3.49778 11.92227,-0.62427 15.87391,3.24445 9.26625,5.19911 -10.67786,2.42495 -14.43401,2.26857 -6.97963,0.11351 -11.24585,-4.01336 -17.14181,-5.76421 z"
       id="path4158"
       style="fill:#e2e3db;fill-opacity:1;stroke-width:0.5;stroke-miterlimit:4;stroke-dasharray:none" />
  </g>
</svg>
