<?xml version="1.0" encoding="UTF-8" standalone="no"?>
<!-- Created with Inkscape (http://www.inkscape.org/) -->

<svg
   xmlns:dc="http://purl.org/dc/elements/1.1/"
   xmlns:cc="http://creativecommons.org/ns#"
   xmlns:rdf="http://www.w3.org/1999/02/22-rdf-syntax-ns#"
   xmlns:svg="http://www.w3.org/2000/svg"
   xmlns="http://www.w3.org/2000/svg"
   xmlns:xlink="http://www.w3.org/1999/xlink"
   version="1.2"
   width="559.52014"
   height="159.43358"
   id="svg2">
  <defs
     id="defs4">
    <linearGradient
       id="linearGradient3908">
      <stop
         id="stop3910"
         style="stop-color:#e2e3db;stop-opacity:1"
         offset="0" />
      <stop
         id="stop3912"
         style="stop-color:#e2e3db;stop-opacity:0"
         offset="1" />
    </linearGradient>
    <linearGradient
       id="linearGradient3898">
      <stop
         id="stop3900"
         style="stop-color:#e2e3db;stop-opacity:1"
         offset="0" />
      <stop
         id="stop3902"
         style="stop-color:#e2e3db;stop-opacity:0"
         offset="1" />
    </linearGradient>
    <linearGradient
       id="linearGradient3890">
      <stop
         id="stop3892"
         style="stop-color:#e2e3db;stop-opacity:1"
         offset="0" />
      <stop
         id="stop3894"
         style="stop-color:#e2e3db;stop-opacity:0"
         offset="1" />
    </linearGradient>
    <linearGradient
       id="linearGradient3864">
      <stop
         id="stop3866"
         style="stop-color:#333333;stop-opacity:1"
         offset="0" />
    </linearGradient>
    <linearGradient
       id="linearGradient4162">
      <stop
         id="stop4164"
         style="stop-color:#ffffff;stop-opacity:1"
         offset="0" />
    </linearGradient>
    <linearGradient
       id="linearGradient4134">
      <stop
         id="stop4136"
         style="stop-color:#ffffff;stop-opacity:1"
         offset="0" />
    </linearGradient>
    <linearGradient
       id="linearGradient4128">
      <stop
         id="stop4130"
         style="stop-color:#ffffff;stop-opacity:1"
         offset="0" />
    </linearGradient>
    <linearGradient
       id="linearGradient4122">
      <stop
         id="stop4124"
         style="stop-color:#ffffff;stop-opacity:1"
         offset="0" />
    </linearGradient>
    <linearGradient
       id="linearGradient4096">
      <stop
         id="stop4098"
         style="stop-color:#ffffff;stop-opacity:1"
         offset="0" />
    </linearGradient>
    <radialGradient
       cx="-480.72501"
       cy="443.14178"
       r="10.70114"
       fx="-480.72501"
       fy="443.14178"
       id="radialGradient4102"
       xlink:href="#linearGradient4096"
       gradientUnits="userSpaceOnUse"
       gradientTransform="matrix(1.0642288,0.25691514,-0.11258761,0.46637568,93.602761,360.43512)" />
    <linearGradient
       x1="-586.63373"
       y1="457.53033"
       x2="-578.33331"
       y2="456.95758"
       id="linearGradient4126"
       xlink:href="#linearGradient4122"
       gradientUnits="userSpaceOnUse"
       gradientTransform="translate(2.2687707,-12.154128)" />
    <linearGradient
       x1="-630.48102"
       y1="457.80765"
       x2="-604.69257"
       y2="457.80765"
       id="linearGradient4132"
       xlink:href="#linearGradient4128"
       gradientUnits="userSpaceOnUse"
       gradientTransform="translate(-18.150165,-57.853652)" />
    <linearGradient
       x1="-706.3656"
       y1="390.72418"
       x2="-524.8396"
       y2="390.72418"
       id="linearGradient4138"
       xlink:href="#linearGradient4134"
       gradientUnits="userSpaceOnUse" />
    <linearGradient
       x1="-566.92944"
       y1="414.81769"
       x2="-544.88379"
       y2="414.81769"
       id="linearGradient4166"
       xlink:href="#linearGradient4162"
       gradientUnits="userSpaceOnUse" />
    <linearGradient
       x1="-273.52643"
       y1="373.75037"
       x2="-253.28392"
       y2="373.75037"
       id="linearGradient3906"
       xlink:href="#linearGradient3898"
       gradientUnits="userSpaceOnUse"
       spreadMethod="pad" />
    <linearGradient
       x1="-252.70134"
       y1="374.04568"
       x2="-273.40765"
       y2="375.75604"
       id="linearGradient3914"
       xlink:href="#linearGradient3908"
       gradientUnits="userSpaceOnUse" />
  </defs>
  <metadata
     id="metadata7">
    <rdf:RDF>
      <cc:Work
         rdf:about="">
        <dc:format>image/svg+xml</dc:format>
        <dc:type
           rdf:resource="http://purl.org/dc/dcmitype/StillImage" />
        <dc:title></dc:title>
      </cc:Work>
    </rdf:RDF>
  </metadata>
  <g
     transform="translate(713.68309,-333.68606)"
     id="layer1">
    <g
       id="g4236">
      <path
         d="m -685.5625,337.96875 c -3.89154,0.16939 -7.61993,2.11919 -10.07103,5.13353 -3.29194,3.22708 -6.58464,6.92589 -7.38832,11.62847 -0.91011,3.95738 -1.93189,7.93274 -2.2648,11.98147 0.4709,2.54367 2.76039,4.13399 4.12747,6.18619 18.46973,23.28386 36.93945,46.56773 55.40918,69.85159 1.59123,1.01228 3.54729,0.31451 5.30302,0.60222 21.50763,0.5622 43.02851,0.5482 64.53603,-0.01 13.01964,-0.13413 26.05997,0.44335 39.0621,-0.42418 3.64933,0.24921 7.39047,0.16799 10.91135,-0.91841 1.16349,-2.4027 -0.41034,-4.89257 -1.35813,-7.07211 -5.29904,-11.32361 -10.31429,-22.80457 -16.45437,-33.70914 -4.04232,-4.77575 -8.08342,-10.02737 -14.01458,-12.53383 -6.92496,-2.70508 -14.82168,-1.19266 -21.56703,-4.49794 -6.03058,-3.07617 -10.59589,-8.36121 -16.67049,-11.37326 -9.79901,-5.88958 -20.30743,-10.49263 -30.92388,-14.68634 -5.14615,-1.97703 -10.24949,-4.12721 -15.63652,-5.37738 -3.36302,-0.8594 -6.82374,-1.52348 -9.90021,-3.20701 -4.94327,-2.3757 -9.84427,-4.84405 -14.62334,-7.53466 -3.18705,-1.56495 -6.52665,-2.8873 -10.08118,-3.27799 -2.80341,-0.26408 -5.56203,-0.9514 -8.39527,-0.76159 z"
         id="path4114"
         style="fill:url(#linearGradient4138);fill-opacity:1;stroke:#000000;stroke-width:0.5;stroke-linecap:butt;stroke-linejoin:miter;stroke-miterlimit:4;stroke-opacity:1;stroke-dasharray:none" />
      <path
         d="m -690.26519,344.02057 c 11.81784,-1.27315 18.24278,4.46395 22.2263,8.21938 6.13353,3.33295 14.93921,4.54673 21.50186,6.80784 6.94877,2.2507 13.92845,4.41413 20.96218,6.37973 3.91425,1.22559 7.20068,3.73182 10.67215,5.81751 2.35737,1.42965 4.96018,2.3537 7.58884,3.13276 6.13469,2.27517 12.21311,4.89354 17.63868,8.58663 2.93265,2.51561 5.58514,5.5477 9.2717,6.97742 4.31143,2.12019 8.9671,3.71575 13.77848,4.08941 7.34256,-0.4691 11.86294,1.21636 11.875,-0.9375 -2.7719,-2.0809 -7.66368,-2.47789 -10.84868,-3.49021 -4.94403,-1.11111 -9.96804,-1.99618 -14.79324,-3.5434 -4.65004,-2.21415 -8.26045,-6.0425 -12.75677,-8.51557 -10.59805,-6.65936 -21.97518,-11.97623 -33.50756,-16.79457 -7.77665,-3.05537 -15.86384,-5.24702 -24.0067,-7.07294 -6.0002,-1.81589 -10.79977,-6.07709 -16.39955,-8.73956 -9.2507,-3.58873 -16.47366,-5.37013 -20.21622,-4.86456 -5.29919,0.65385 -5.56413,4.03089 -2.98647,3.94763 z"
         id="path4158"
         style="fill:#e2e3db;fill-opacity:1;stroke-width:0.5;stroke-miterlimit:4;stroke-dasharray:none" />
    </g>
    <g
       transform="matrix(-0.99984591,0.01755383,0.01755383,0.99984591,-440.3902,1.7188904)"
       id="g3872">
      <path
         d="m -261.16757,400.82319 c 0.1661,1.7237 0.0903,2.91935 0.0903,2.91935 -2.28805,1.53954 -2.6791,3.21064 -2.1328,2.99618 1.03917,-0.40794 4.87188,-1.2359 4.80025,-1.5638 -0.20689,-0.94706 -1.521,-1.5528 -2.66745,-1.43238"
         id="path3874"
         style="fill:none;stroke:#000000;stroke-width:1.5;stroke-linecap:butt;stroke-linejoin:miter;stroke-miterlimit:4;stroke-opacity:1;stroke-dasharray:none" />
      <path
         d="m -253.79914,375.38528 c 0.28518,-0.28518 -3.55782,-3.33179 -1.5186,-7.48247 l -16.5357,4.02206 c -3.10945,4.15145 0.89514,7.21415 1.35407,7.67308 1.48698,-0.31884 12.42582,-2.91376 16.70023,-4.21267 z"
         id="path3876"
         style="fill:url(#linearGradient3914);fill-opacity:1;stroke:#000000;stroke-width:1px;stroke-linecap:butt;stroke-linejoin:bevel;stroke-opacity:1" />
      <path
         d="m -269.85301,372.96913 c -1.20345,2.93047 0.89393,4.49252 1.328,4.73625"
         id="path3878"
         style="fill:none;stroke:#000000;stroke-width:1px;stroke-linecap:butt;stroke-linejoin:miter;stroke-opacity:1" />
      <path
         d="m -266.1206,372.08855 c -1.20345,2.93047 0.89393,4.49252 1.328,4.73625"
         id="path3880"
         style="fill:none;stroke:#000000;stroke-width:1px;stroke-linecap:butt;stroke-linejoin:miter;stroke-opacity:1" />
      <path
         d="m -262.28264,371.10242 c -1.20345,2.93047 0.89393,4.49252 1.328,4.73625"
         id="path3882"
         style="fill:none;stroke:#000000;stroke-width:1px;stroke-linecap:butt;stroke-linejoin:miter;stroke-opacity:1" />
      <path
         d="m -258.56906,370.23176 c -1.20345,2.93047 0.89393,4.49252 1.328,4.73625"
         id="path3884"
         style="fill:none;stroke:#000000;stroke-width:1px;stroke-linecap:butt;stroke-linejoin:miter;stroke-opacity:1" />
      <path
         d="M 452.77504,71.739463 451.1584,47.489843"
         transform="translate(-713.85297,330.44534)"
         id="path3886"
         style="fill:none;stroke:#000000;stroke-width:1px;stroke-linecap:butt;stroke-linejoin:miter;stroke-opacity:1" />
    </g>
    <g
       id="g4240">
      <path
         d="m -702.4375,367.125 c -1.57142,0.27664 -3.38517,0.35711 -4.53125,1.625 -1.34205,8.11233 -1.97284,16.33179 -1.97402,24.55308 -0.25903,17.18941 -0.48656,34.38016 -0.43223,51.57192 0.64602,1.91836 2.98269,2.1651 4.71875,2.09375 19.26458,0.58517 38.6221,1.22663 57.8125,-1 1.18888,-0.43986 0.87506,-2.01499 0.3125,-2.84375 -1.74521,-6.1945 -2.54227,-12.70315 -5.35148,-18.55942 -2.60279,-6.40388 -4.26483,-13.13444 -5.8214,-19.85164 -1.57293,-5.0106 -3.76786,-9.80712 -6.05915,-14.51839 -2.12593,-3.14516 -6.08557,-3.84269 -9.24166,-5.50195 -2.58826,-1.30008 -4.43951,-3.64664 -5.91675,-6.07224 -1.85455,-2.63737 -4.09347,-5.53177 -7.44839,-6.16174 -3.63054,-0.31739 -6.84211,-2.19036 -10.0126,-3.82855 -1.88917,-0.95003 -3.90793,-1.66306 -6.05482,-1.50607 z"
         id="path3244"
         style="fill:#ffffff;fill-opacity:1;stroke:#000000;stroke-width:0.60000002;stroke-linecap:butt;stroke-linejoin:miter;stroke-miterlimit:4;stroke-opacity:1;stroke-dasharray:none" />
      <path
         d="m -704.25752,446.77887 c -4.46026,-0.49497 -4.3578,-0.41231 -4.33935,-3.501 l 0.016,-2.673 4.78794,-1.2679 c 8.47145,-2.24334 8.95648,-4.16226 9.64,-3.73983 0.31259,0.19319 1.25997,1.75684 2.10531,3.47478 2.0088,4.08242 2.67024,4.33971 7.16328,2.78646 5.59094,-1.93279 11.04862,-2.52586 20.75741,-2.25562 4.68098,0.13029 10.36632,-1.24693 11.09398,-1.10035 1.32173,0.26624 1.32261,0.26832 0.91905,2.16048 -0.22217,1.0417 -0.30202,2.15961 -0.17744,2.48425 0.12457,0.32464 1.29083,0.92575 2.59168,1.33581 1.30085,0.41006 2.36518,0.87655 2.36518,1.03666 0,0.16011 -1.67558,0.53758 -3.72351,0.83883 -4.33066,0.63704 -48.12866,0.98317 -53.19951,0.42043 l 0,0 z"
         id="path3276"
         style="fill:#e2e3db;fill-opacity:1;stroke-width:4;stroke-miterlimit:4;stroke-dasharray:none" />
      <path
         d="m -678.09375,385.125 c -1.41674,-0.11065 -1.74103,2.16563 -0.53125,2.6875 2.22228,2.20813 5.11952,0.78859 7.03978,3.38353 2.36194,0.0327 4.2902,1.499 6.43812,0.29731 -1.77333,-2.12823 -1.44203,-1.62435 -5.18387,-2.7971 -2.15406,-0.67512 -4.74522,-0.90472 -6.14754,-2.91352 -0.40789,-0.43705 -0.99889,-0.77942 -1.61524,-0.65772 z"
         id="path3278"
         style="fill:#e2e3db;fill-opacity:1;stroke-width:4;stroke-miterlimit:4;stroke-dasharray:none" />
      <path
         d="m -703.3125,369.34375 c -1.30139,0.52589 -1.08455,2.60342 0.0937,3.15625 1.95339,2.08764 4.64497,2.88287 7.37069,3.19825 2.09479,0.24239 -0.97986,1.86331 6.87439,1.9393 2.10172,0.0203 3.65244,2.36701 5.78617,2.6437 0.79186,0.13033 1.67446,-0.57674 1.25,-1.40625 -0.60691,-2.36286 -3.1734,-3.59165 -5.43047,-3.81036 -2.1838,-0.33389 -4.54943,-0.32448 -6.44453,-1.59589 -3.07959,-1.16597 -5.53288,-3.9021 -8.9375,-4.1875 -0.19383,-0.0116 -0.37823,-0.005 -0.5625,0.0625 z"
         id="path3280"
         style="fill:#e2e3db;fill-opacity:1;stroke-width:4;stroke-miterlimit:4;stroke-dasharray:none" />
    </g>
    <g
       transform="translate(311.42857,100)"
       id="flowRoot2985"
       style="font-size:12px;font-style:normal;font-variant:normal;font-weight:bold;font-stretch:normal;line-height:125%;letter-spacing:0px;word-spacing:0px;fill:#000000;fill-opacity:1;stroke:none;font-family:Linux Biolinum Shadow O;-inkscape-font-specification:Linux Biolinum Shadow O Bold">
      <path
         d="m -947.50275,342.7737 c -4.392,0 -10.44,-4.75201 -12.96,-8.568 l -1.872,0.072 c -0.288,2.59199 -0.864,6.624 -1.44,8.784 l 0.144,0.216 c 0,0 6.69601,3.24 15.48,3.24 10.58399,0 17.208,-6.76801 17.208,-14.112 0,-7.84799 -8.49601,-11.88001 -14.256,-14.616 -3.888,-1.8 -7.344,-3.52801 -7.344,-8.856 0,-3.6 2.592,-6.984 6.552,-6.984 4.32,0 8.568,5.112 10.44,8.64 l 2.16,-0.072 c 0.288,-2.592 0.792,-6.48 1.44,-8.64 l -0.144,-0.216 c 0,0 -5.90401,-3.24 -14.688,-3.24 -8.13599,0 -15.552,4.82401 -15.552,12.456 0,2.80799 0.504,5.544 2.232,7.776 3.312,4.39199 8.856,7.056 13.032,9.144 3.384,1.728 6.264,4.608 6.264,7.56 0,5.11199 -2.376,7.416 -6.696,7.416"
         id="path3134"
         style="font-size:72px;font-family:Linux Biolinum O;-inkscape-font-specification:Linux Biolinum O Bold" />
      <path
         d="m -889.761,332.8377 0,-7.992 c 0,-7.56 -3.52801,-10.656 -10.008,-10.656 -3.672,0 -7.992,2.232 -11.304,6.48 l -0.36,-0.216 c 0,-1.584 0,-4.608 -0.072,-5.256 -0.144,-0.432 -0.216,-0.72 -0.648,-0.72 -2.088,0.36 -6.84,0.36 -9.36,0.216 l -0.144,0.216 c 0.504,3.09599 0.792,8.64 0.792,13.968 l 0,3.96 c 0,5.39999 -0.216,9.144 -0.792,12.96 l 0.144,0.216 c 0,0 3.384,-0.216 5.904,-0.216 2.448,0 4.464,0.216 4.464,0.216 l 0.216,-0.216 c -0.36,-4.104 -0.432,-7.48801 -0.432,-12.96 l 0,-7.344 c 2.736,-3.6 5.76,-5.76 8.352,-5.76 1.944,0 3.744,1.44 3.744,6.696 l 0,6.408 c 0,5.39999 0,9.144 -0.432,12.96 l 0.144,0.216 c 0,0 2.304,-0.216 4.824,-0.216 2.448,0 5.616,0.216 5.616,0.216 l 0.144,-0.216 c -0.648,-4.104 -0.792,-7.48801 -0.792,-12.96"
         id="path3136"
         style="font-size:72px;font-family:Linux Biolinum O;-inkscape-font-specification:Linux Biolinum O Bold" />
      <path
         d="m -880.50112,331.0377 c 0,9.57599 6.69601,15.48 17.42399,15.48 11.01599,0 17.424,-6.12001 17.424,-16.128 0,-9.07199 -5.11201,-16.2 -17.28,-16.2 -10.29598,0 -17.56799,5.68801 -17.56799,16.848 m 17.06399,-13.248 c 6.12,0 7.56001,4.53601 7.56001,14.544 0,8.27999 -2.95201,10.584 -6.192,10.584 -7.488,0 -8.208,-7.99201 -8.208,-13.536 0,-6.264 0.648,-11.592 6.83999,-11.592"
         id="path3138"
         style="font-size:72px;font-family:Linux Biolinum O;-inkscape-font-specification:Linux Biolinum O Bold" />
      <path
         d="m -829.623,346.0857 c 0.648,-0.216 3.672,-0.216 4.32,-0.216 0.648,0 3.888,0 4.464,0.216 1.8,-5.544 4.032,-11.37601 6.336,-16.776 2.232,5.54399 4.392,11.088 6.336,16.704 0.648,-0.216 3.816,-0.216 4.464,-0.216 0.648,0 2.808,0 3.384,0.216 3.744,-10.22399 8.28,-21.02401 12.6,-31.32 -0.576,0.216 -3.096,0.216 -3.744,0.216 -0.648,0 -2.376,0 -2.952,-0.216 -2.448,7.55999 -4.896,16.344 -7.704,23.184 l -0.504,0 c -2.88,-7.70399 -4.68,-15.48001 -6.912,-23.184 -0.864,0.216 -4.032,0.216 -4.968,0.216 -1.008,0 -4.968,0 -5.976,-0.216 1.152,2.95199 2.376,5.832 3.528,8.784 -1.872,5.61599 -3.888,11.304 -5.832,15.912 l -0.72,0 c -3.24,-8.27999 -5.256,-16.34401 -7.632,-24.624 -0.864,0.216 -3.672,0.216 -4.608,0.216 -1.008,0 -5.328,0 -6.336,-0.216 4.32,10.58399 8.856,20.80801 12.456,31.32"
         id="path3140"
         style="font-size:72px;font-family:Linux Biolinum O;-inkscape-font-specification:Linux Biolinum O Bold" />
      <path
         d="m -759.56587,336.2217 c -1.8,4.60799 -4.10401,6.12 -6.98401,6.12 -3.88799,0 -6.47999,-3.45601 -6.47999,-12.456 0,-9.71999 3.096,-12.096 6.62399,-12.096 3.384,0 6.04801,2.52 6.84001,6.192 l 0,12.24 m 0,5.688 0.144,0 0.36,3.888 c 0,0.144 0.216,0.216 0.648,0.216 0.93599,-0.072 3.528,-0.216 4.53599,-0.216 0.936,0 4.10401,0.072 5.04001,0.216 l 0.14399,-0.216 c -0.57599,-3.096 -1.36799,-8.42401 -1.36799,-13.824 l 0,-22.176 c 0,-5.328 0.288,-9.07201 0.864,-13.536 0,-0.504 -0.36001,-0.72 -0.792,-0.72 -1.872,0.72 -7.41601,2.16 -10.29601,2.376 l -0.144,0.216 c 0.504,3.09599 0.86401,8.064 0.86401,13.536 l 0,5.76 c -1.368,-1.944 -4.75201,-3.24 -6.76801,-3.24 -4.82399,0 -7.488,1.008 -10.72799,3.384 -4.464,3.23999 -6.192,8.496 -6.192,13.608 0,8.85599 5.4,15.336 13.39199,15.336 4.536,0 8.35201,-1.22401 10.29601,-4.608"
         id="path3142"
         style="font-size:72px;font-family:Linux Biolinum O;-inkscape-font-specification:Linux Biolinum O Bold" />
      <path
         d="m -728.59687,320.6697 -0.36,-0.216 c 0,-1.584 -10e-6,-4.608 -0.072,-5.256 -0.144,-0.432 -0.21601,-0.72 -0.648,-0.72 -2.088,0.36 -6.84001,0.36 -9.36,0.216 l -0.14401,0.216 c 0.504,3.09599 0.79201,8.64 0.79201,13.968 l 0,3.96 c 0,5.39999 -0.14401,9.072 -0.72,12.96 l 0.072,0.216 c 0,0 2.304,-0.216 4.82399,-0.216 2.448,0 5.90401,0.216 5.90401,0.216 l 0.14399,-0.216 c -0.57599,-4.104 -0.71999,-7.48801 -0.71999,-12.96 l 0,-5.256 c 0,-5.544 4.896,-6.408 6.048,-6.408 1.36799,0 2.88,0.36 4.17599,1.368 l 1.29601,-0.144 1.43999,-7.416 -0.28799,-0.288 c -1.224,-0.36 -2.37601,-0.504 -3.672,-0.504 -3.384,0 -6.84001,3.672 -8.712,6.48"
         id="path3144"
         style="font-size:72px;font-family:Linux Biolinum O;-inkscape-font-specification:Linux Biolinum O Bold" />
      <path
         d="m -708.58987,302.0937 c 0,2.87999 2.376,5.112 5.39999,5.112 3.024,0 5.4,-2.23201 5.4,-5.112 0,-2.88 -2.376,-5.112 -5.4,-5.112 -3.02399,0 -5.39999,2.232 -5.39999,5.112 m 0.648,26.784 0,3.96 c 0,5.39999 -0.14401,9.072 -0.72,12.96 l 0.144,0.216 c 2.15999,-0.144 2.808,-0.216 5.32799,-0.216 2.448,0 3.16801,0.072 5.328,0.216 l 0.144,-0.216 c -0.57599,-4.104 -0.71999,-7.48801 -0.71999,-12.96 l 0,-4.752 c 0,-5.4 0.36,-8.42401 0.71999,-12.816 0,-0.504 -0.216,-0.72 -0.64799,-0.72 -1.008,0.144 -2.95201,0.36 -4.96801,0.36 -1.87199,0 -3.816,-0.144 -5.11199,-0.216 l -0.216,0.288 c 0.57599,3.09599 0.72,8.496 0.72,13.896"
         id="path3146"
         style="font-size:72px;font-family:Linux Biolinum O;-inkscape-font-specification:Linux Biolinum O Bold" />
      <path
         d="m -680.0385,300.5097 c -3.168,3.31199 -5.328,7.848 -5.328,12.24 l 0,2.16 -3.456,0 c -1.296,0 -1.656,0.864 -1.656,1.44 l 0,1.728 c 0,0.36 0.072,0.432 0.36,0.432 l 4.752,0 0,12.888 c 0,5.39999 0,10.728 -0.504,14.4 l 0.072,0.216 c 0,0 2.88,-0.216 5.4,-0.216 2.448,0 4.968,0.216 4.968,0.216 l 0.144,-0.216 c -0.504,-4.176 -0.576,-9.00001 -0.576,-14.4 l 0,-12.888 9.72,0 0.576,0 4.176,0 -0.216,8.496 c -0.144,4.31999 -0.216,10.296 -0.216,12.456 0,3.38399 2.376,7.056 6.984,7.056 3.744,0 7.488,-0.648 10.584,-2.52 0,-1.152 -0.432,-2.448 -1.224,-2.952 -1.584,0.792 -2.304,0.864 -4.176,0.864 -1.944,0 -2.664,-2.59201 -2.664,-5.544 0,-2.16 -0.072,-5.83201 0.072,-10.152 l 0.144,-7.704 6.552,0 c 0.72,0 1.728,-0.288 1.728,-0.936 l 0,-2.232 c 0,-0.288 -0.216,-0.432 -0.576,-0.432 l -7.704,0 c 0,-5.4 0.072,-5.83201 0.36,-10.008 0,-0.504 -0.216,-0.72 -0.648,-0.72 -1.8,0.72 -6.48,2.592 -9.36,3.24 l -0.144,0.216 c 0.504,3.02399 0.504,3.096 0.504,7.272 l -3.096,0 -1.08,0 -10.296,0 0,-0.72 c 0,-1.8 -0.36,-5.328 -0.36,-6.912 0,-3.96 2.52,-6.768 6.408,-6.768 2.088,0 3.096,1.8 3.888,3.24 l 2.16,-0.072 c 0.504,-1.944 0.864,-5.904 1.656,-7.272 l -0.072,-0.216 c -0.576,-0.36 -2.592,-0.648 -3.96,-0.648 -5.75999,0 -10.872,1.872 -13.896,4.968"
         id="path3148"
         style="font-size:72px;font-family:Linux Biolinum O;-inkscape-font-specification:Linux Biolinum O Bold" />
      <path
         d="m -638.53387,342.3417 c 0.79199,3.02399 2.016,4.248 4.968,4.896 l 0.288,0 c 2.59199,-0.648 3.96,-1.94401 4.96799,-4.896 l 0,-0.36 c -0.93599,-2.592 -2.304,-3.96 -4.96799,-4.896 l -0.288,0 c -2.736,1.08 -4.03201,2.52 -4.968,4.896 l 0,0.36"
         id="path3150"
         style="font-size:72px;font-family:Linux Biolinum O;-inkscape-font-specification:Linux Biolinum O Bold" />
      <path
         d="m -603.53512,317.7897 c 2.73599,0 4.896,2.088 6.48,6.048 l 2.01599,-0.072 1.72801,-6.984 -0.144,-0.216 c -2.232,-1.152 -7.12801,-2.376 -10.72801,-2.376 -9.64799,0 -17.49599,5.76001 -17.49599,17.064 0,4.53599 1.44,8.064 3.888,10.656 2.51999,2.80799 7.128,4.608 12.59999,4.608 5.472,0 8.64001,-1.15201 11.88001,-3.888 -0.216,-0.648 -0.36,-1.656 -0.36,-2.808 l -1.152,-0.36 c -2.016,2.44799 -5.54401,3.456 -8.424,3.456 -2.088,0 -4.96801,-1.8 -6.264,-3.888 -1.296,-2.088 -2.16,-5.47201 -2.16,-9.648 0,-3.384 0.504,-6.12 1.728,-8.136 1.36799,-2.232 3.816,-3.456 6.408,-3.456"
         id="path3152"
         style="font-size:72px;font-family:Linux Biolinum O;-inkscape-font-specification:Linux Biolinum O Bold" />
      <path
         d="m -588.00112,331.0377 c 0,9.57599 6.69601,15.48 17.42399,15.48 11.01599,0 17.424,-6.12001 17.424,-16.128 0,-9.07199 -5.11201,-16.2 -17.28,-16.2 -10.29598,0 -17.56799,5.68801 -17.56799,16.848 m 17.06399,-13.248 c 6.12,0 7.56001,4.53601 7.56001,14.544 0,8.27999 -2.95201,10.584 -6.192,10.584 -7.488,0 -8.208,-7.99201 -8.208,-13.536 0,-6.264 0.648,-11.592 6.83999,-11.592"
         id="path3154"
         style="font-size:72px;font-family:Linux Biolinum O;-inkscape-font-specification:Linux Biolinum O Bold" />
      <path
         d="m -546.51675,331.0377 c 0,9.57599 6.69601,15.48 17.424,15.48 11.01599,0 17.424,-6.12001 17.424,-16.128 0,-9.07199 -5.11201,-16.2 -17.28,-16.2 -10.29599,0 -17.568,5.68801 -17.568,16.848 m 17.064,-13.248 c 6.11999,0 7.56,4.53601 7.56,14.544 0,8.27999 -2.952,10.584 -6.192,10.584 -7.48799,0 -8.208,-7.99201 -8.208,-13.536 0,-6.264 0.64801,-11.592 6.84,-11.592"
         id="path3156"
         style="font-size:72px;font-family:Linux Biolinum O;-inkscape-font-specification:Linux Biolinum O Bold" />
      <path
         d="m -493.4235,325.4937 c 1.584,-3.816 5.256,-6.624 7.704,-6.624 4.392,0 5.904,5.04001 5.904,12.672 0,6.91199 -3.168,11.376 -7.2,11.376 -1.8,0 -3.744,-0.36 -6.408,-2.592 l 0,-14.832 m 0.288,-5.472 -0.36,-0.216 c 0,-1.584 0,-3.96 -0.072,-4.608 -0.144,-0.432 -0.216,-0.72 -0.648,-0.72 -2.088,0.36 -6.84,0.36 -9.36,0.216 l -0.144,0.216 c 0.504,3.09599 0.792,8.64 0.792,13.968 l 0,19.224 c 0,5.39999 -0.144,10.584 -0.72,14.4 l 0.072,0.216 c 0,0 2.808,-0.216 5.328,-0.216 2.448,0 5.4,0.216 5.4,0.216 l 0.144,-0.216 c -0.648,-4.104 -0.72,-9.00001 -0.72,-14.4 l 0,-3.6 c 2.376,1.512 5.04,2.016 7.704,2.016 9.07199,0 16.128,-7.48801 16.128,-17.64 0,-5.688 -2.16,-9.43201 -5.472,-12.096 -2.16,-1.656 -4.392,-2.592 -7.992,-2.592 -3.096,0 -6.552,1.008 -10.08,5.832"
         id="path3158"
         style="font-size:72px;font-family:Linux Biolinum O;-inkscape-font-specification:Linux Biolinum O Bold" />
    </g>
    <path
       d="m -241.3667,378.22379 c -3.67593,-2.62927 -7.41523,2.55535 -8.23797,5.8463 -2.66405,10.65618 19.8635,10.16265 16.21021,-0.79722 -0.70602,-2.11805 -3.26537,-3.7395 -5.31483,-4.25186 -3.17142,-0.79286 -4.54813,-0.62557 -7.44075,0.53148"
       id="path3049"
       style="fill:none;stroke:#000000;stroke-width:1px;stroke-linecap:butt;stroke-linejoin:miter;stroke-opacity:1" />
    <path
       d="m -243.22688,392.30806 c -0.92509,10.83656 -5.84631,26.67072 -5.84631,34.2806"
       id="path3051"
       style="fill:none;stroke:#000000;stroke-width:1px;stroke-linecap:butt;stroke-linejoin:miter;stroke-opacity:1" />
    <path
       d="m -244.48161,402.99493 c -3.83504,-2.39564 -23.52888,-0.86482 -21.29194,-6.89557"
       id="path3053"
       style="fill:none;stroke:#000000;stroke-width:1px;stroke-linecap:butt;stroke-linejoin:miter;stroke-opacity:1" />
    <path
       d="m -244.28985,404.00067 c 7.46255,-3.31979 20.28972,-8.06563 23.11947,-10.89538"
       id="path3055"
       style="fill:none;stroke:#000000;stroke-width:1px;stroke-linecap:butt;stroke-linejoin:miter;stroke-opacity:1" />
    <path
       d="m -193.28355,377.59651 c 3.67593,-2.62927 7.41523,2.55535 8.23797,5.8463 2.66405,10.65618 -19.8635,10.16265 -16.21021,-0.79722 0.70602,-2.11805 3.26537,-3.7395 5.31483,-4.25186 3.17142,-0.79286 4.54813,-0.62557 7.44075,0.53148"
       id="path3049-6"
       style="fill:none;stroke:#000000;stroke-width:1px;stroke-linecap:butt;stroke-linejoin:miter;stroke-opacity:1" />
    <path
       d="m -191.42337,391.68078 c 0.92509,10.83656 5.84631,26.67072 5.84631,34.2806"
       id="path3051-2"
       style="fill:none;stroke:#000000;stroke-width:1px;stroke-linecap:butt;stroke-linejoin:miter;stroke-opacity:1" />
    <path
       d="m -188.50021,403.10765 c 2.48646,-3.77678 21.02423,-10.59895 16.47594,-15.14724"
       id="path3053-8"
       style="fill:none;stroke:#000000;stroke-width:1px;stroke-linecap:butt;stroke-linejoin:miter;stroke-opacity:1" />
    <path
       d="m -190.3604,403.37339 c -7.46255,-3.31979 -20.28972,-8.06563 -23.11947,-10.89538"
       id="path3055-4"
       style="fill:none;stroke:#000000;stroke-width:1px;stroke-linecap:butt;stroke-linejoin:miter;stroke-opacity:1" />
    <path
       d="m -221.1442,386.38583 c -4.05568,20.2733 6.06897,-4.55173 0,0 z"
       id="path3182"
       style="fill:none;stroke:#000000;stroke-width:1px;stroke-linecap:butt;stroke-linejoin:miter;stroke-opacity:1" />
    <path
       d="m -216.88876,384.98482 c 0.16661,3.53563 2.1986,8.21862 4.04349,7.6062 2.04852,-0.68002 -2.4678,-9.18489 -4.04349,-7.6062 z"
       id="path3184"
       style="fill:none;stroke:#000000;stroke-width:1px;stroke-linecap:butt;stroke-linejoin:miter;stroke-opacity:1" />
    <path
       d="m -553.06347,410.23082 c -11.07164,-4.85035 -23.4779,19.80544 -0.60181,4.98594 1.70457,-1.10425 4.76518,1.33278 7.82353,-0.77327 4.33593,-2.98581 -5.14048,-4.7378 -7.22172,-4.21267 z"
       id="path3186"
       style="fill:url(#linearGradient4166);fill-opacity:1;stroke:#000000;stroke-width:1px;stroke-linecap:butt;stroke-linejoin:miter;stroke-opacity:1" />
    <path
       d="m -573.93079,445.80289 c -0.28816,-0.007 -2.07107,-4.47432 -5.78899,-2.86545 -11.73959,5.86979 5.09028,6.47357 5.78899,2.86545 z"
       id="path3190"
       style="fill:url(#linearGradient4126);fill-opacity:1;stroke:#000000;stroke-width:1px;stroke-linecap:butt;stroke-linejoin:miter;stroke-opacity:1" />
    <path
       d="m -640.41145,396.1568 c -5.21534,0 -10.88095,7.70898 -5.93259,7.70898 1.2304,0 9.83119,-2.60946 10.83258,-3.61086 2.82381,-2.8238 9.74085,2.29536 12.03621,0 1.63376,-1.63376 -7.33251,-5.70186 -17.1056,-4.09811"
       id="path3198"
       style="fill:url(#linearGradient4132);fill-opacity:1;stroke:#000000;stroke-width:1px;stroke-linecap:butt;stroke-linejoin:miter;stroke-opacity:1" />
    <path
       d="m -468.33071,439.19001 c -6.39955,-1.01553 -11.75374,5.09019 -9.28133,7.56259 1.93732,1.93733 8.10592,1.29609 12.94388,1.25623 6.89699,-0.0568 5.42022,-5.66031 -3.77666,-8.93352"
       id="path4094"
       style="fill:url(#radialGradient4102);fill-opacity:1;stroke:#000000;stroke-width:1px;stroke-linecap:butt;stroke-linejoin:miter;stroke-opacity:1" />
    <g
       id="text4104"
       style="font-size:13.34514427px;font-style:normal;font-variant:normal;font-weight:normal;font-stretch:normal;line-height:125%;letter-spacing:0px;word-spacing:0px;fill:#000000;fill-opacity:1;stroke:none;font-family:Linux Biolinum O;-inkscape-font-specification:Linux Biolinum O">
      <path
         d="m -698.6239,471.92063 c 1.026,0 1.971,0.78301 2.7,1.998 l 0.351,-0.027 0.621,-2.214 -0.054,-0.081 c -0.837,-0.432 -2.241,-0.756 -3.591,-0.756 -2.808,0 -5.751,2.29501 -5.751,5.967 0,3.78 2.133,6.156 5.427,6.156 1.62,0 2.889,-0.54 3.969,-1.917 l -0.513,-0.567 -0.108,0 c -1.026,0.918 -1.89,1.134 -2.889,1.134 -1.971,0 -3.51,-1.782 -3.51,-4.941 0,-2.96999 1.566,-4.752 3.348,-4.752"
         id="path3057"
         style="font-size:27px" />
      <path
         d="m -691.34234,477.29363 c 0,2.025 -0.054,3.96901 -0.243,5.4 l 0.054,0.081 c 0.324,-0.054 0.945,-0.081 1.269,-0.081 0.324,0 0.945,0.027 1.269,0.081 l 0.054,-0.081 c -0.216,-1.53899 -0.243,-3.348 -0.243,-5.4 l 0,-8.1 c 0,-2.02499 0.108,-3.348 0.243,-5.076 0,-0.189 -0.081,-0.27 -0.243,-0.27 -0.702,0.27 -1.269,0.459 -2.349,0.54 l -0.054,0.081 c 0.189,1.161 0.243,3.15901 0.243,5.211 l 0,7.614"
         id="path3059"
         style="font-size:27px" />
      <path
         d="m -683.5946,475.32263 c 0.459,-2.80799 2.457,-3.402 3.078,-3.402 0.97199,0 2.268,0.99901 2.268,3.024 0,0.243 -0.108,0.378 -0.378,0.378 l -4.968,0 m 7.209,4.563 c -0.945,1.026 -2.21401,1.485 -3.699,1.485 -0.945,0 -2.21401,-0.351 -2.943,-1.539 -0.486,-0.756 -0.648,-1.836 -0.648,-3.429 l 7.344,0 c 0.297,0 0.486,-0.162 0.486,-0.459 0,-2.26799 -1.10701,-5.103 -4.671,-5.103 -2.565,0 -5.535,2.24101 -5.535,6.21 0,1.539 0.297,3.05101 1.215,4.131 0.91799,1.134 2.457,1.782 4.293,1.782 1.94399,0 3.672,-0.999 4.698,-2.403 l -0.54,-0.675"
         id="path3061"
         style="font-size:27px" />
      <path
         d="m -666.20703,476.61863 -0.108,3.213 c 0,0.351 -0.162,0.54 -0.378,0.702 -0.756,0.567 -1.674,1.053 -2.484,1.053 -1.215,0 -1.998,-0.81 -1.998,-1.647 0,-1.21499 0.56701,-2.133 2.673,-2.7 l 2.295,-0.621 m 0,4.779 c 0.297,1.08 1.107,1.566 2.106,1.566 0.675,0 1.512,-0.162 2.133,-0.837 l -0.189,-0.648 c -0.297,0.108 -0.54,0.135 -0.729,0.135 -0.27,0 -0.621,-0.054 -0.81,-0.189 -0.27,-0.27 -0.432,-0.918 -0.432,-2.106 0,-0.783 0.081,-3.78 0.081,-4.077 0,-3.64499 -2.403,-4.374 -4.455,-4.374 -2.05199,0 -3.294,0.999 -3.969,1.566 l -0.081,0.108 0.459,1.809 0.351,0.027 c 0.756,-1.21499 1.674,-2.295 2.97,-2.295 0.972,0 2.592,0.13501 2.592,3.186 0,0.189 -0.108,0.297 -0.189,0.324 l -2.511,0.567 c -2.75399,0.621 -4.482,2.07901 -4.482,3.915 0,1.998 1.37701,2.916 3.375,2.916 1.485,0 2.24101,-0.351 3.672,-1.566 l 0.108,-0.027"
         id="path3063"
         style="font-size:27px" />
      <path
         d="m -657.09537,473.67563 0,-2.457 c 0,-0.189 -0.054,-0.27 -0.162,-0.27 -0.621,0.135 -1.593,0.162 -2.187,0.081 l -0.054,0.081 c 0.189,1.188 0.243,3.21301 0.243,5.238 l 0,1.485 c 0,2.025 -0.054,3.42901 -0.243,4.86 l 0.054,0.081 c 0.324,-0.054 0.945,-0.081 1.269,-0.081 0.324,0 0.945,0.027 1.269,0.081 l 0.054,-0.081 c -0.216,-1.53899 -0.243,-2.808 -0.243,-4.86 l 0,-1.404 c 0,-1.13399 0.324,-1.782 0.918,-2.673 0.378,-0.594 0.999,-0.945 1.512,-0.945 0.54,0 1.053,0.054 1.404,0.378 l 0.216,-0.054 0.54,-1.998 -0.108,-0.108 c -0.459,-0.135 -0.486,-0.189 -0.972,-0.189 -1.458,0 -2.241,0.83701 -3.429,2.889 l -0.081,-0.054"
         id="path3065"
         style="font-size:27px" />
      <path
         d="m -649.84671,466.57463 c 0,0.729 0.648,1.377 1.377,1.377 0.729,0 1.377,-0.648 1.377,-1.377 0,-0.729 -0.648,-1.377 -1.377,-1.377 -0.729,0 -1.377,0.648 -1.377,1.377 m 0.27,9.774 0,1.485 c 0,2.025 -0.054,3.40201 -0.243,4.86 l 0.054,0.081 c 0.324,-0.054 0.945,-0.081 1.269,-0.081 0.324,0 0.945,0.027 1.269,0.081 l 0.054,-0.081 c -0.216,-1.51199 -0.243,-2.808 -0.243,-4.86 l 0,-1.917 c 0,-2.02499 0.054,-2.997 0.243,-4.644 0,-0.243 -0.054,-0.27 -0.243,-0.27 -0.621,0.081 -1.782,0.081 -2.349,0.027 l -0.054,0.081 c 0.162,1.161 0.243,3.21301 0.243,5.238"
         id="path3067"
         style="font-size:27px" />
      <path
         d="m -632.57304,477.83363 c 0,-0.864 0.054,-1.863 0.054,-2.727 0,-2.80799 -0.918,-4.266 -3.348,-4.266 -1.026,0 -2.943,0.40501 -4.671,2.43 l -0.054,-0.081 0,-1.971 c -0.027,-0.189 -0.054,-0.27 -0.162,-0.27 -0.621,0.135 -1.593,0.162 -2.187,0.081 l -0.054,0.081 c 0.189,1.188 0.243,3.21301 0.243,5.238 l 0,1.485 c 0,2.025 -0.027,3.40201 -0.243,4.86 l 0.054,0.081 c 0.324,-0.054 0.945,-0.081 1.269,-0.081 0.324,0 0.945,0.027 1.269,0.081 l 0.054,-0.081 c -0.216,-1.53899 -0.243,-2.808 -0.243,-4.86 l 0,-3.159 c 1.377,-1.61999 2.943,-2.214 3.915,-2.214 1.377,0 1.944,0.54001 1.944,2.727 l 0,2.646 c 0,2.025 -0.054,3.42901 -0.243,4.86 l 0.054,0.081 c 0.324,-0.054 0.945,-0.081 1.269,-0.081 0.324,0 0.945,0.027 1.269,0.081 l 0.054,-0.081 c -0.216,-1.53899 -0.243,-2.808 -0.243,-4.86"
         id="path3069"
         style="font-size:27px" />
      <path
         d="m -627.71135,485.50163 c 0,-0.891 0.81,-1.89 1.755,-2.403 0.78299,0 2.025,-0.081 2.403,-0.081 1.29599,0 2.106,0.027 2.862,0.459 0.78299,0.459 1.053,1.242 1.053,1.944 0,1.647 -2.21401,2.538 -4.536,2.538 -0.918,0 -3.537,-0.621 -3.537,-2.457 m 7.803,-10.611 c 0,-1.86299 -0.72901,-2.619 -1.377,-3.024 0.80999,0.054 1.701,0.162 2.835,0.27 l 0.081,-0.081 c -0.054,-0.243 -0.081,-0.459 -0.081,-0.702 0,-0.243 0.027,-0.459 0.081,-0.702 l -0.081,-0.081 c -1.296,0.135 -2.26801,0.405 -4.266,0.513 -0.486,-0.162 -1.08001,-0.243 -1.647,-0.243 -2.133,0 -4.59,1.43101 -4.59,4.104 0,2.025 1.161,2.943 1.917,3.375 -0.783,0.54 -1.674,1.323 -1.674,2.241 0,1.107 0.594,2.079 2.025,2.349 -0.567,0.324 -1.59301,0.81 -2.268,1.35 -0.351,0.513 -0.621,1.296 -0.621,1.782 0,2.349 2.673,3.078 4.644,3.078 3.48299,0 7.263,-1.404 7.263,-4.32 0,-1.18799 -0.37801,-2.025 -1.134,-2.673 -1.026,-0.864 -2.86201,-0.891 -3.807,-0.891 -0.459,0 -1.62001,0.054 -2.241,0.135 -0.378,0.027 -0.648,0.054 -0.783,0.054 -0.756,0 -1.566,-0.108 -1.566,-1.269 0,-0.54 0.216,-0.999 0.81,-1.512 0.351,0.189 1.161,0.378 1.998,0.378 2.99699,0 4.482,-1.863 4.482,-4.131 m -2.106,0.135 c 0,1.755 -0.51301,2.916 -2.241,2.916 -1.944,0 -2.592,-1.161 -2.592,-3.132 0,-1.78199 0.81,-2.943 2.376,-2.943 1.75499,0 2.457,1.24201 2.457,3.159"
         id="path3071"
         style="font-size:27px" />
      <path
         d="m -607.67609,471.11063 c -0.567,0 -1.134,0 -1.458,-0.054 -0.189,0.459 -0.351,0.702 -0.594,1.107 l 0.135,0.189 c 0.459,-0.027 1.296,-0.027 1.917,-0.054 l 0,3.699 c 0,1.62 -0.081,3.564 -0.081,4.374 0,1.755 1.134,2.592 2.376,2.592 1.134,0 1.998,-0.27 3.132,-0.999 l -0.351,-0.648 c -0.81,0.297 -1.431,0.324 -2.106,0.216 -0.648,-0.108 -0.891,-0.756 -0.891,-2.214 0,-0.81 0.081,-1.971 0.081,-3.591 l 0,-3.402 1.026,0 c 0.648,0 1.566,0 1.944,0.054 0.081,-0.432 0.162,-0.729 0.324,-1.107 l -0.135,-0.189 c -0.486,0 -1.269,0.054 -1.89,0.054 l -1.269,0 c 0,-2.02499 0,-2.376 0.135,-3.942 0,-0.216 -0.081,-0.27 -0.243,-0.27 -0.702,0.27 -1.026,0.54 -1.89,0.675 l -0.054,0.081 c 0,1.026 -0.108,1.89001 -0.108,3.456 l 0,-0.027"
         id="path3073"
         style="font-size:27px" />
      <path
         d="m -596.47531,473.18963 0,-4.023 c 0,-1.99799 0.108,-3.375 0.243,-5.049 0,-0.189 -0.081,-0.27 -0.243,-0.27 -0.702,0.27 -1.269,0.459 -2.349,0.54 l -0.054,0.081 c 0.189,1.161 0.243,3.18601 0.243,5.238 l 0,8.127 c 0,2.025 -0.054,3.34801 -0.243,4.86 l 0.054,0.081 c 0.324,-0.054 0.945,-0.081 1.269,-0.081 0.324,0 0.945,0.027 1.269,0.081 l 0.054,-0.081 c -0.216,-1.53899 -0.243,-2.808 -0.243,-4.86 l 0,-3.159 c 1.377,-1.61999 2.943,-2.214 3.915,-2.214 1.377,0 1.944,0.54001 1.944,2.727 l 0,2.646 c 0,2.025 -0.027,3.42901 -0.243,4.86 l 0.054,0.081 c 0.324,-0.054 0.945,-0.081 1.269,-0.081 0.324,0 0.945,0.027 1.269,0.081 l 0.054,-0.081 c -0.216,-1.53899 -0.243,-2.808 -0.243,-4.86 0,-0.864 0.054,-1.863 0.054,-2.727 0,-2.80799 -0.918,-4.266 -3.348,-4.266 -1.026,0 -2.943,0.40501 -4.671,2.43 l -0.054,-0.081"
         id="path3075"
         style="font-size:27px" />
      <path
         d="m -582.87195,475.32263 c 0.459,-2.80799 2.457,-3.402 3.078,-3.402 0.972,0 2.268,0.99901 2.268,3.024 0,0.243 -0.108,0.378 -0.378,0.378 l -4.968,0 m 7.209,4.563 c -0.945,1.026 -2.214,1.485 -3.699,1.485 -0.945,0 -2.214,-0.351 -2.943,-1.539 -0.486,-0.756 -0.648,-1.836 -0.648,-3.429 l 7.344,0 c 0.297,0 0.486,-0.162 0.486,-0.459 0,-2.26799 -1.107,-5.103 -4.671,-5.103 -2.565,0 -5.535,2.24101 -5.535,6.21 0,1.539 0.297,3.05101 1.215,4.131 0.918,1.134 2.457,1.782 4.293,1.782 1.944,0 3.672,-0.999 4.698,-2.403 l -0.54,-0.675"
         id="path3077"
         style="font-size:27px" />
      <path
         d="m -562.88857,474.75563 c 0.594,-1.43099 2.187,-2.673 3.24,-2.673 1.83599,0 2.781,1.67401 2.781,4.725 0,2.214 -0.62101,5.076 -3.51,5.076 -0.432,0 -1.566,-0.108 -2.511,-1.215 l 0,-5.913 m 0,-1.566 0,-1.971 c 0,-0.189 -0.054,-0.27 -0.162,-0.27 -0.621,0.135 -1.593,0.162 -2.187,0.081 l -0.054,0.081 c 0.189,1.188 0.243,3.21301 0.243,5.238 l 0,7.209 c 0,2.025 -0.054,3.96901 -0.243,5.4 l 0.054,0.081 c 0.324,-0.054 0.945,-0.081 1.269,-0.081 0.324,0 0.945,0.027 1.269,0.081 l 0.054,-0.081 c -0.216,-1.53899 -0.243,-3.348 -0.243,-5.4 l 0,-1.188 c 0.702,0.378 1.701,0.594 2.673,0.594 3.56399,0 5.724,-2.7 5.724,-6.507 0,-2.86199 -1.67401,-5.616 -4.698,-5.616 -1.053,0 -2.403,0.54001 -3.645,2.43 l -0.054,-0.081"
         id="path3079"
         style="font-size:27px" />
      <path
         d="m -544.60156,476.61863 -0.108,3.213 c 0,0.351 -0.162,0.54 -0.378,0.702 -0.756,0.567 -1.674,1.053 -2.484,1.053 -1.215,0 -1.998,-0.81 -1.998,-1.647 0,-1.21499 0.567,-2.133 2.673,-2.7 l 2.295,-0.621 m 0,4.779 c 0.297,1.08 1.107,1.566 2.106,1.566 0.675,0 1.512,-0.162 2.133,-0.837 l -0.189,-0.648 c -0.297,0.108 -0.54,0.135 -0.729,0.135 -0.27,0 -0.621,-0.054 -0.81,-0.189 -0.27,-0.27 -0.432,-0.918 -0.432,-2.106 0,-0.783 0.081,-3.78 0.081,-4.077 0,-3.64499 -2.403,-4.374 -4.455,-4.374 -2.052,0 -3.294,0.999 -3.969,1.566 l -0.081,0.108 0.459,1.809 0.351,0.027 c 0.756,-1.21499 1.674,-2.295 2.97,-2.295 0.972,0 2.592,0.13501 2.592,3.186 0,0.189 -0.108,0.297 -0.189,0.324 l -2.511,0.567 c -2.75399,0.621 -4.482,2.07901 -4.482,3.915 0,1.998 1.377,2.916 3.375,2.916 1.485,0 2.241,-0.351 3.672,-1.566 l 0.108,-0.027"
         id="path3081"
         style="font-size:27px" />
      <path
         d="m -537.4339,471.11063 c -0.567,0 -1.134,0 -1.458,-0.054 -0.189,0.459 -0.351,0.702 -0.594,1.107 l 0.135,0.189 c 0.459,-0.027 1.296,-0.027 1.917,-0.054 l 0,3.699 c 0,1.62 -0.081,3.564 -0.081,4.374 0,1.755 1.134,2.592 2.376,2.592 1.134,0 1.998,-0.27 3.132,-0.999 l -0.351,-0.648 c -0.81,0.297 -1.431,0.324 -2.106,0.216 -0.648,-0.108 -0.891,-0.756 -0.891,-2.214 0,-0.81 0.081,-1.971 0.081,-3.591 l 0,-3.402 1.026,0 c 0.648,0 1.566,0 1.944,0.054 0.081,-0.432 0.162,-0.729 0.324,-1.107 l -0.135,-0.189 c -0.486,0 -1.269,0.054 -1.89,0.054 l -1.269,0 c 0,-2.02499 0,-2.376 0.135,-3.942 0,-0.216 -0.081,-0.27 -0.243,-0.27 -0.702,0.27 -1.026,0.54 -1.89,0.675 l -0.054,0.081 c 0,1.026 -0.108,1.89001 -0.108,3.456 l 0,-0.027"
         id="path3083"
         style="font-size:27px" />
      <path
         d="m -526.23312,473.18963 0,-4.023 c 0,-1.99799 0.108,-3.375 0.243,-5.049 0,-0.189 -0.081,-0.27 -0.243,-0.27 -0.702,0.27 -1.269,0.459 -2.349,0.54 l -0.054,0.081 c 0.189,1.161 0.243,3.18601 0.243,5.238 l 0,8.127 c 0,2.025 -0.054,3.34801 -0.243,4.86 l 0.054,0.081 c 0.324,-0.054 0.945,-0.081 1.269,-0.081 0.324,0 0.945,0.027 1.269,0.081 l 0.054,-0.081 c -0.216,-1.53899 -0.243,-2.808 -0.243,-4.86 l 0,-3.159 c 1.377,-1.61999 2.943,-2.214 3.915,-2.214 1.377,0 1.944,0.54001 1.944,2.727 l 0,2.646 c 0,2.025 -0.027,3.42901 -0.243,4.86 l 0.054,0.081 c 0.324,-0.054 0.945,-0.081 1.269,-0.081 0.324,0 0.945,0.027 1.269,0.081 l 0.054,-0.081 c -0.216,-1.53899 -0.243,-2.808 -0.243,-4.86 0,-0.864 0.054,-1.863 0.054,-2.727 0,-2.80799 -0.918,-4.266 -3.348,-4.266 -1.026,0 -2.943,0.40501 -4.671,2.43 l -0.054,-0.081"
         id="path3085"
         style="font-size:27px" />
      <path
         d="m -506.68976,471.11063 c -0.567,0 -1.134,0 -1.458,-0.054 -0.189,0.459 -0.351,0.702 -0.594,1.107 l 0.135,0.189 c 0.459,-0.027 1.296,-0.027 1.917,-0.054 l 0,3.699 c 0,1.62 -0.081,3.564 -0.081,4.374 0,1.755 1.134,2.592 2.376,2.592 1.134,0 1.998,-0.27 3.132,-0.999 l -0.351,-0.648 c -0.81,0.297 -1.431,0.324 -2.106,0.216 -0.648,-0.108 -0.891,-0.756 -0.891,-2.214 0,-0.81 0.081,-1.971 0.081,-3.591 l 0,-3.402 1.026,0 c 0.648,0 1.566,0 1.944,0.054 0.081,-0.432 0.162,-0.729 0.324,-1.107 l -0.135,-0.189 c -0.486,0 -1.269,0.054 -1.89,0.054 l -1.269,0 c 0,-2.02499 0,-2.376 0.135,-3.942 0,-0.216 -0.081,-0.27 -0.243,-0.27 -0.702,0.27 -1.026,0.54 -1.89,0.675 l -0.054,0.081 c 0,1.026 -0.108,1.89001 -0.108,3.456 l 0,-0.027"
         id="path3087"
         style="font-size:27px" />
      <path
         d="m -499.05298,477.15863 c 0,3.24 2.133,5.805 5.724,5.805 3.564,0 5.724,-2.511 5.724,-6.048 0,-3.67199 -1.971,-6.075 -5.616,-6.075 -3.537,0 -5.832,2.48401 -5.832,6.318 m 5.643,-5.238 c 2.862,0 3.429,2.21401 3.429,5.481 0,2.592 -1.296,4.482 -3.105,4.482 -2.862,0 -3.591,-3.105 -3.591,-5.184 0,-2.34899 0.729,-4.779 3.267,-4.779"
         id="path3089"
         style="font-size:27px" />
      <path
         d="m -471.45898,476.61863 -0.108,3.213 c 0,0.351 -0.162,0.54 -0.378,0.702 -0.756,0.567 -1.674,1.053 -2.484,1.053 -1.215,0 -1.998,-0.81 -1.998,-1.647 0,-1.21499 0.567,-2.133 2.673,-2.7 l 2.295,-0.621 m 0,4.779 c 0.297,1.08 1.107,1.566 2.106,1.566 0.675,0 1.512,-0.162 2.133,-0.837 l -0.189,-0.648 c -0.297,0.108 -0.54,0.135 -0.729,0.135 -0.27,0 -0.621,-0.054 -0.81,-0.189 -0.27,-0.27 -0.432,-0.918 -0.432,-2.106 0,-0.783 0.081,-3.78 0.081,-4.077 0,-3.64499 -2.403,-4.374 -4.455,-4.374 -2.052,0 -3.294,0.999 -3.969,1.566 l -0.081,0.108 0.459,1.809 0.351,0.027 c 0.756,-1.21499 1.674,-2.295 2.97,-2.295 0.972,0 2.592,0.13501 2.592,3.186 0,0.189 -0.108,0.297 -0.189,0.324 l -2.511,0.567 c -2.754,0.621 -4.482,2.07901 -4.482,3.915 0,1.998 1.377,2.916 3.375,2.916 1.485,0 2.241,-0.351 3.672,-1.566 l 0.108,-0.027"
         id="path3091"
         style="font-size:27px" />
      <path
         d="m -449.11732,465.27863 -7.02,0 c -0.918,0 -1.377,-0.081 -1.377,-0.081 l -0.054,0.081 c 0.216,1.539 0.27,3.37501 0.27,5.4 l 0,6.615 c 0,2.025 -0.054,3.94201 -0.27,5.4 l 0.027,0.081 c 0,0 0.459,-0.081 1.404,-0.081 0.918,0 1.377,0.081 1.377,0.081 l 0.054,-0.081 c -0.216,-1.53899 -0.27,-3.375 -0.27,-5.4 l 0,-3.159 c 1.296,0 4.158,0.081 6.021,0.27 l 0.081,-0.081 c -0.054,-0.243 -0.081,-0.621 -0.081,-0.864 0,-0.243 0.027,-0.621 0.081,-0.864 l -0.081,-0.081 c -1.593,0.135 -2.83501,0.27 -6.021,0.27 l 0,-2.106 c 0,-0.459 0.027,-3.24 0.216,-3.888 3.61799,0 7.344,0.324 7.344,0.324 l 0.054,-0.108 c -0.027,-0.216 -0.054,-0.567 -0.054,-0.81 0,-0.216 0.027,-0.54 0.054,-0.918 l -0.054,-0.081 c -0.432,0.054 -1.053,0.081 -1.701,0.081"
         id="path3093"
         style="font-size:27px" />
      <path
         d="m -441.99185,473.67563 0,-2.457 c 0,-0.189 -0.054,-0.27 -0.162,-0.27 -0.621,0.135 -1.59301,0.162 -2.187,0.081 l -0.054,0.081 c 0.189,1.188 0.243,3.21301 0.243,5.238 l 0,1.485 c 0,2.025 -0.054,3.42901 -0.243,4.86 l 0.054,0.081 c 0.324,-0.054 0.945,-0.081 1.269,-0.081 0.324,0 0.945,0.027 1.269,0.081 l 0.054,-0.081 c -0.216,-1.53899 -0.243,-2.808 -0.243,-4.86 l 0,-1.404 c 0,-1.13399 0.324,-1.782 0.918,-2.673 0.378,-0.594 0.999,-0.945 1.512,-0.945 0.53999,0 1.053,0.054 1.404,0.378 l 0.216,-0.054 0.54,-1.998 -0.108,-0.108 c -0.459,-0.135 -0.486,-0.189 -0.972,-0.189 -1.458,0 -2.24101,0.83701 -3.429,2.889 l -0.081,-0.054"
         id="path3095"
         style="font-size:27px" />
      <path
         d="m -433.6864,475.32263 c 0.459,-2.80799 2.457,-3.402 3.078,-3.402 0.972,0 2.268,0.99901 2.268,3.024 0,0.243 -0.108,0.378 -0.378,0.378 l -4.968,0 m 7.209,4.563 c -0.945,1.026 -2.214,1.485 -3.699,1.485 -0.945,0 -2.214,-0.351 -2.943,-1.539 -0.486,-0.756 -0.648,-1.836 -0.648,-3.429 l 7.344,0 c 0.297,0 0.486,-0.162 0.486,-0.459 0,-2.26799 -1.107,-5.103 -4.671,-5.103 -2.565,0 -5.535,2.24101 -5.535,6.21 0,1.539 0.297,3.05101 1.215,4.131 0.918,1.134 2.457,1.782 4.293,1.782 1.944,0 3.672,-0.999 4.698,-2.403 l -0.54,-0.675"
         id="path3097"
         style="font-size:27px" />
      <path
         d="m -421.24109,475.32263 c 0.459,-2.80799 2.457,-3.402 3.078,-3.402 0.972,0 2.268,0.99901 2.268,3.024 0,0.243 -0.108,0.378 -0.378,0.378 l -4.968,0 m 7.209,4.563 c -0.945,1.026 -2.214,1.485 -3.699,1.485 -0.945,0 -2.214,-0.351 -2.943,-1.539 -0.486,-0.756 -0.648,-1.836 -0.648,-3.429 l 7.344,0 c 0.297,0 0.486,-0.162 0.486,-0.459 0,-2.26799 -1.107,-5.103 -4.671,-5.103 -2.565,0 -5.535,2.24101 -5.535,6.21 0,1.539 0.297,3.05101 1.215,4.131 0.918,1.134 2.457,1.782 4.293,1.782 1.944,0 3.672,-0.999 4.698,-2.403 l -0.54,-0.675"
         id="path3099"
         style="font-size:27px" />
      <path
         d="m -404.47071,465.25163 -1.107,0 -6.399,19.035 1.107,0 6.399,-19.035"
         id="path3101"
         style="font-size:27px" />
      <path
         d="m -398.52354,470.67863 c 0,-2.02499 0.054,-3.969 0.27,-5.4 l -0.027,-0.081 c -0.324,0.054 -1.08,0.081 -1.404,0.081 -0.324,0 -1.053,-0.027 -1.377,-0.081 l -0.054,0.081 c 0.216,1.539 0.27,3.37501 0.27,5.4 l 0,6.615 c 0,2.025 -0.054,3.94201 -0.27,5.4 l 0.027,0.081 c 0,0 0.486,-0.081 1.404,-0.081 l 7.371,0 c 0.567,0 1.188,0.027 1.62,0.081 l 0.054,-0.081 c -0.027,-0.378 -0.054,-0.918 -0.054,-1.188 0,-0.27 0.027,-0.729 0.054,-0.945 l -0.054,-0.108 c 0,0 -3.99601,0.594 -7.614,0.594 -0.189,-0.648 -0.216,-3.294 -0.216,-3.753 l 0,-6.615"
         id="path3103"
         style="font-size:27px" />
      <path
         d="m -387.59867,466.57463 c 0,0.729 0.648,1.377 1.377,1.377 0.729,0 1.377,-0.648 1.377,-1.377 0,-0.729 -0.648,-1.377 -1.377,-1.377 -0.729,0 -1.377,0.648 -1.377,1.377 m 0.27,9.774 0,1.485 c 0,2.025 -0.054,3.40201 -0.243,4.86 l 0.054,0.081 c 0.324,-0.054 0.945,-0.081 1.269,-0.081 0.324,0 0.945,0.027 1.269,0.081 l 0.054,-0.081 c -0.216,-1.51199 -0.243,-2.808 -0.243,-4.86 l 0,-1.917 c 0,-2.02499 0.054,-2.997 0.243,-4.644 0,-0.243 -0.054,-0.27 -0.243,-0.27 -0.621,0.081 -1.782,0.081 -2.349,0.027 l -0.054,0.081 c 0.162,1.161 0.243,3.21301 0.243,5.238"
         id="path3105"
         style="font-size:27px" />
      <path
         d="m -378.371,480.50663 0,-6.993 c 1.053,-1.07999 1.72801,-1.593 2.835,-1.593 1.647,0 3.105,1.37701 3.105,4.725 0,3.348 -0.999,5.238 -3.564,5.238 -0.83699,0 -1.836,-0.702 -2.376,-1.377 m 0,-11.313 c 0,-1.99799 0.027,-3.402 0.162,-5.076 0,-0.189 -0.081,-0.27 -0.243,-0.27 -0.70199,0.27 -1.269,0.459 -2.349,0.54 l -0.054,0.081 c 0.189,1.161 0.324,3.15901 0.324,5.211 l 0,11.043 c 0,1.053 -0.027,1.458 -0.135,2.025 0.162,0.162 0.45901,0.216 0.756,0.216 0.297,-0.324 0.59401,-0.783 0.891,-1.323 0.783,0.675 2.02501,1.323 3.186,1.323 2.754,0 5.805,-1.944 5.805,-6.534 0,-3.29399 -2.349,-5.589 -4.968,-5.589 -1.29599,0 -2.457,0.35101 -3.375,1.35 l 0,-2.997"
         id="path3107"
         style="font-size:27px" />
      <path
         d="m -364.63053,473.67563 0,-2.457 c 0,-0.189 -0.054,-0.27 -0.162,-0.27 -0.621,0.135 -1.593,0.162 -2.187,0.081 l -0.054,0.081 c 0.189,1.188 0.243,3.21301 0.243,5.238 l 0,1.485 c 0,2.025 -0.054,3.42901 -0.243,4.86 l 0.054,0.081 c 0.324,-0.054 0.945,-0.081 1.269,-0.081 0.324,0 0.945,0.027 1.269,0.081 l 0.054,-0.081 c -0.216,-1.53899 -0.243,-2.808 -0.243,-4.86 l 0,-1.404 c 0,-1.13399 0.324,-1.782 0.918,-2.673 0.378,-0.594 0.999,-0.945 1.512,-0.945 0.54,0 1.053,0.054 1.404,0.378 l 0.216,-0.054 0.54,-1.998 -0.108,-0.108 c -0.459,-0.135 -0.486,-0.189 -0.972,-0.189 -1.45799,0 -2.241,0.83701 -3.429,2.889 l -0.081,-0.054"
         id="path3109"
         style="font-size:27px" />
      <path
         d="m -356.32507,475.32263 c 0.459,-2.80799 2.457,-3.402 3.078,-3.402 0.972,0 2.268,0.99901 2.268,3.024 0,0.243 -0.108,0.378 -0.378,0.378 l -4.968,0 m 7.209,4.563 c -0.945,1.026 -2.214,1.485 -3.699,1.485 -0.945,0 -2.214,-0.351 -2.943,-1.539 -0.486,-0.756 -0.648,-1.836 -0.648,-3.429 l 7.344,0 c 0.297,0 0.486,-0.162 0.486,-0.459 0,-2.26799 -1.10701,-5.103 -4.671,-5.103 -2.565,0 -5.535,2.24101 -5.535,6.21 0,1.539 0.297,3.05101 1.215,4.131 0.918,1.134 2.457,1.782 4.293,1.782 1.94399,0 3.672,-0.999 4.698,-2.403 l -0.54,-0.675"
         id="path3111"
         style="font-size:27px" />
      <path
         d="m -339.5547,465.25163 -1.107,0 -6.399,19.035 1.107,0 6.399,-19.035"
         id="path3113"
         style="font-size:27px" />
      <path
         d="m -329.17953,466.11563 c 3.807,0 6.237,2.59201 6.237,8.208 0,4.833 -2.241,7.452 -5.319,7.452 -3.23999,0 -6.318,-2.727 -6.318,-7.911 0,-5.66999 2.80801,-7.749 5.4,-7.749 m 9.018,7.695 c 0,-5.34599 -3.807,-8.883 -8.667,-8.883 -4.83299,0 -8.532,4.10401 -8.532,9.396 0,5.319 3.91501,8.64 8.559,8.64 5.157,0 8.64,-3.753 8.64,-9.153"
         id="path3115"
         style="font-size:27px" />
      <path
         d="m -314.4042,474.75563 c 0.594,-1.43099 2.187,-2.673 3.24,-2.673 1.836,0 2.781,1.67401 2.781,4.725 0,2.214 -0.621,5.076 -3.51,5.076 -0.432,0 -1.566,-0.108 -2.511,-1.215 l 0,-5.913 m 0,-1.566 0,-1.971 c 0,-0.189 -0.054,-0.27 -0.162,-0.27 -0.621,0.135 -1.593,0.162 -2.187,0.081 l -0.054,0.081 c 0.189,1.188 0.243,3.21301 0.243,5.238 l 0,7.209 c 0,2.025 -0.054,3.96901 -0.243,5.4 l 0.054,0.081 c 0.324,-0.054 0.945,-0.081 1.269,-0.081 0.324,0 0.945,0.027 1.269,0.081 l 0.054,-0.081 c -0.216,-1.53899 -0.243,-3.348 -0.243,-5.4 l 0,-1.188 c 0.702,0.378 1.701,0.594 2.673,0.594 3.564,0 5.724,-2.7 5.724,-6.507 0,-2.86199 -1.674,-5.616 -4.698,-5.616 -1.053,0 -2.403,0.54001 -3.645,2.43 l -0.054,-0.081"
         id="path3117"
         style="font-size:27px" />
      <path
         d="m -301.05945,475.32263 c 0.459,-2.80799 2.457,-3.402 3.078,-3.402 0.972,0 2.268,0.99901 2.268,3.024 0,0.243 -0.108,0.378 -0.378,0.378 l -4.968,0 m 7.209,4.563 c -0.945,1.026 -2.214,1.485 -3.699,1.485 -0.945,0 -2.214,-0.351 -2.943,-1.539 -0.486,-0.756 -0.648,-1.836 -0.648,-3.429 l 7.344,0 c 0.297,0 0.486,-0.162 0.486,-0.459 0,-2.26799 -1.107,-5.103 -4.671,-5.103 -2.565,0 -5.535,2.24101 -5.535,6.21 0,1.539 0.297,3.05101 1.215,4.131 0.918,1.134 2.457,1.782 4.293,1.782 1.944,0 3.672,-0.999 4.698,-2.403 l -0.54,-0.675"
         id="path3119"
         style="font-size:27px" />
      <path
         d="m -279.78007,477.83363 c 0,-0.864 0.054,-1.863 0.054,-2.727 0,-2.80799 -0.91801,-4.266 -3.348,-4.266 -1.026,0 -2.943,0.40501 -4.671,2.43 l -0.054,-0.081 0,-1.971 c -0.027,-0.189 -0.054,-0.27 -0.162,-0.27 -0.621,0.135 -1.593,0.162 -2.187,0.081 l -0.054,0.081 c 0.189,1.188 0.243,3.21301 0.243,5.238 l 0,1.485 c 0,2.025 -0.027,3.40201 -0.243,4.86 l 0.054,0.081 c 0.324,-0.054 0.945,-0.081 1.269,-0.081 0.324,0 0.945,0.027 1.269,0.081 l 0.054,-0.081 c -0.216,-1.53899 -0.243,-2.808 -0.243,-4.86 l 0,-3.159 c 1.377,-1.61999 2.943,-2.214 3.915,-2.214 1.377,0 1.944,0.54001 1.944,2.727 l 0,2.646 c 0,2.025 -0.054,3.42901 -0.243,4.86 l 0.054,0.081 c 0.324,-0.054 0.945,-0.081 1.269,-0.081 0.324,0 0.945,0.027 1.269,0.081 l 0.054,-0.081 c -0.216,-1.53899 -0.243,-2.808 -0.243,-4.86"
         id="path3121"
         style="font-size:27px" />
      <path
         d="m -265.49539,482.80163 c 0.27,-0.081 0.621,-0.081 0.891,-0.081 0.27,0 0.729,0 0.972,0.081 0.729,-2.10599 1.53901,-4.347 2.43,-6.507 0.783,2.133 1.62001,4.37401 2.403,6.48 0.27,-0.081 0.432,-0.081 0.702,-0.081 0.27,0 0.756,0 0.999,0.081 1.323,-3.18599 3.48301,-8.37 5.022,-11.745 -0.243,0.081 -0.891,0.081 -1.161,0.081 -0.27,0 -0.675,0 -0.918,-0.081 -0.99899,3.186 -2.214,6.64201 -3.348,9.234 l -0.216,0 c -1.10699,-2.96999 -1.944,-6.372 -2.565,-9.234 -0.351,0.081 -0.972,0.081 -1.35,0.081 -0.432,0 -0.999,0 -1.431,-0.081 0.351,1.08 0.729,2.21401 1.161,3.402 -0.729,2.079 -1.485,4.15801 -2.295,5.859 l -0.162,0 c -1.34999,-3.07799 -2.241,-6.129 -3.213,-9.234 -0.351,0.081 -0.972,0.081 -1.35,0.081 -0.432,0 -0.999,0 -1.431,-0.081 1.809,3.969 3.34801,7.80301 4.86,11.745"
         id="path3123"
         style="font-size:27px" />
      <path
         d="m -250.67407,477.15863 c 0,3.24 2.133,5.805 5.724,5.805 3.56399,0 5.724,-2.511 5.724,-6.048 0,-3.67199 -1.97101,-6.075 -5.616,-6.075 -3.537,0 -5.832,2.48401 -5.832,6.318 m 5.643,-5.238 c 2.86199,0 3.429,2.21401 3.429,5.481 0,2.592 -1.29601,4.482 -3.105,4.482 -2.862,0 -3.591,-3.105 -3.591,-5.184 0,-2.34899 0.729,-4.779 3.267,-4.779"
         id="path3125"
         style="font-size:27px" />
      <path
         d="m -233.69107,473.67563 0,-2.457 c 0,-0.189 -0.054,-0.27 -0.162,-0.27 -0.621,0.135 -1.593,0.162 -2.187,0.081 l -0.054,0.081 c 0.189,1.188 0.243,3.21301 0.243,5.238 l 0,1.485 c 0,2.025 -0.054,3.42901 -0.243,4.86 l 0.054,0.081 c 0.324,-0.054 0.945,-0.081 1.269,-0.081 0.324,0 0.945,0.027 1.269,0.081 l 0.054,-0.081 c -0.216,-1.53899 -0.243,-2.808 -0.243,-4.86 l 0,-1.404 c 0,-1.13399 0.324,-1.782 0.918,-2.673 0.378,-0.594 0.999,-0.945 1.512,-0.945 0.54,0 1.053,0.054 1.404,0.378 l 0.216,-0.054 0.54,-1.998 -0.108,-0.108 c -0.459,-0.135 -0.486,-0.189 -0.972,-0.189 -1.458,0 -2.241,0.83701 -3.429,2.889 l -0.081,-0.054"
         id="path3127"
         style="font-size:27px" />
      <path
         d="m -226.17242,477.29363 c 0,2.025 -0.054,3.96901 -0.243,5.4 l 0.054,0.081 c 0.324,-0.054 0.945,-0.081 1.269,-0.081 0.324,0 0.945,0.027 1.269,0.081 l 0.054,-0.081 c -0.216,-1.53899 -0.243,-3.348 -0.243,-5.4 l 0,-8.1 c 0,-2.02499 0.108,-3.348 0.243,-5.076 0,-0.189 -0.081,-0.27 -0.243,-0.27 -0.702,0.27 -1.269,0.459 -2.349,0.54 l -0.054,0.081 c 0.189,1.161 0.243,3.15901 0.243,5.211 l 0,7.614"
         id="path3129"
         style="font-size:27px" />
      <path
         d="m -212.05268,479.64263 c -0.999,1.269 -2.241,1.917 -3.321,1.917 -1.458,0 -2.7,-1.458 -2.7,-4.833 0,-4.04999 2.133,-4.806 3.456,-4.806 1.269,0 1.917,0.54001 2.565,1.566 l 0,6.156 m 0,1.485 0.054,0 0.135,1.566 c 0,0.054 0.081,0.081 0.243,0.081 0.351,-0.027 0.54,-0.081 0.918,-0.081 0.351,0 0.864,0.027 1.215,0.081 l 0.054,-0.081 c -0.216,-1.16099 -0.459,-3.159 -0.459,-5.184 l 0,-8.316 c 0,-1.99799 0.108,-3.402 0.243,-5.076 0,-0.189 -0.081,-0.27 -0.243,-0.27 -0.702,0.27 -1.269,0.459 -2.349,0.54 l -0.054,0.081 c 0.189,1.161 0.243,3.15901 0.243,5.211 l 0,1.755 c -0.621,-0.351 -1.728,-0.594 -2.268,-0.594 -3.537,0 -6.102,2.43001 -6.102,6.102 0,3.321 1.971,6.021 4.887,6.021 1.296,0 2.511,-0.567 3.483,-1.836"
         id="path3131"
         style="font-size:27px" />
    </g>
    <g
       transform="matrix(0.99991267,-0.01321645,0.01321645,0.99991267,-8.5700331,-1.2474351)"
       id="g3821">
      <path
         d="m -261.16757,400.82319 c 0.1661,1.7237 0.0903,2.91935 0.0903,2.91935 -2.28805,1.53954 -2.6791,3.21064 -2.1328,2.99618 1.03917,-0.40794 4.87188,-1.2359 4.80025,-1.5638 -0.20689,-0.94706 -1.521,-1.5528 -2.66745,-1.43238"
         id="path3080"
         style="fill:none;stroke:#000000;stroke-width:1.5;stroke-linecap:butt;stroke-linejoin:miter;stroke-miterlimit:4;stroke-opacity:1;stroke-dasharray:none" />
      <path
         d="m -253.79914,375.38528 c 0.28518,-0.28518 -3.55782,-3.33179 -1.5186,-7.48247 l -16.5357,4.02206 c -3.10945,4.15145 0.89514,7.21415 1.35407,7.67308 1.48698,-0.31884 12.42582,-2.91376 16.70023,-4.21267 z"
         id="path3082"
         style="fill:url(#linearGradient3906);fill-opacity:1;stroke:#000000;stroke-width:1px;stroke-linecap:butt;stroke-linejoin:bevel;stroke-opacity:1" />
      <path
         d="m -269.85301,372.96913 c -1.20345,2.93047 0.89393,4.49252 1.328,4.73625"
         id="path3098"
         style="fill:none;stroke:#000000;stroke-width:1px;stroke-linecap:butt;stroke-linejoin:miter;stroke-opacity:1" />
      <path
         d="m -266.1206,372.08855 c -1.20345,2.93047 0.89393,4.49252 1.328,4.73625"
         id="path3037"
         style="fill:none;stroke:#000000;stroke-width:1px;stroke-linecap:butt;stroke-linejoin:miter;stroke-opacity:1" />
      <path
         d="m -262.28264,371.10242 c -1.20345,2.93047 0.89393,4.49252 1.328,4.73625"
         id="path3039"
         style="fill:none;stroke:#000000;stroke-width:1px;stroke-linecap:butt;stroke-linejoin:miter;stroke-opacity:1" />
      <path
         d="m -258.56906,370.23176 c -1.20345,2.93047 0.89393,4.49252 1.328,4.73625"
         id="path3041"
         style="fill:none;stroke:#000000;stroke-width:1px;stroke-linecap:butt;stroke-linejoin:miter;stroke-opacity:1" />
      <path
         d="M 452.77504,71.739463 451.1584,47.489843"
         transform="translate(-713.85297,330.44534)"
         id="path3819"
         style="fill:none;stroke:#000000;stroke-width:1px;stroke-linecap:butt;stroke-linejoin:miter;stroke-opacity:1" />
    </g>
    <path
       d="m -266.67717,395.538 c 1.44342,9.77501 6.06897,-4.55173 0,0 z"
       id="path3182-2"
       style="fill:#ffffff;fill-opacity:1;stroke:#000000;stroke-width:1px;stroke-linecap:butt;stroke-linejoin:miter;stroke-opacity:1" />
    <path
       d="m -173.44239,387.53931 c 1.44342,9.77501 6.06897,-4.55173 0,0 z"
       id="path3870"
       style="fill:#ffffff;fill-opacity:1;stroke:#000000;stroke-width:1px;stroke-linecap:butt;stroke-linejoin:miter;stroke-opacity:1" />
  </g>
</svg>
