<?xml version="1.0" encoding="UTF-8" standalone="no"?>
<!-- Created with Inkscape (http://www.inkscape.org/) -->

<svg
   xmlns:dc="http://purl.org/dc/elements/1.1/"
   xmlns:cc="http://creativecommons.org/ns#"
   xmlns:rdf="http://www.w3.org/1999/02/22-rdf-syntax-ns#"
   xmlns:svg="http://www.w3.org/2000/svg"
   xmlns="http://www.w3.org/2000/svg"
   xmlns:xlink="http://www.w3.org/1999/xlink"
   version="1.2"
   width="559.69006"
   height="166.08203"
   id="svg2">
  <defs
     id="defs4">
    <linearGradient
       id="linearGradient3908">
      <stop
         id="stop3910"
         style="stop-color:#e2e3db;stop-opacity:1"
         offset="0" />
      <stop
         id="stop3912"
         style="stop-color:#e2e3db;stop-opacity:0"
         offset="1" />
    </linearGradient>
    <linearGradient
       id="linearGradient3898">
      <stop
         id="stop3900"
         style="stop-color:#e2e3db;stop-opacity:1"
         offset="0" />
      <stop
         id="stop3902"
         style="stop-color:#e2e3db;stop-opacity:0"
         offset="1" />
    </linearGradient>
    <linearGradient
       id="linearGradient3890">
      <stop
         id="stop3892"
         style="stop-color:#e2e3db;stop-opacity:1"
         offset="0" />
      <stop
         id="stop3894"
         style="stop-color:#e2e3db;stop-opacity:0"
         offset="1" />
    </linearGradient>
    <linearGradient
       id="linearGradient3864">
      <stop
         id="stop3866"
         style="stop-color:#333333;stop-opacity:1"
         offset="0" />
    </linearGradient>
    <linearGradient
       id="linearGradient4162">
      <stop
         id="stop4164"
         style="stop-color:#ffffff;stop-opacity:1"
         offset="0" />
    </linearGradient>
    <linearGradient
       id="linearGradient4134">
      <stop
         id="stop4136"
         style="stop-color:#ffffff;stop-opacity:1"
         offset="0" />
    </linearGradient>
    <linearGradient
       id="linearGradient4128">
      <stop
         id="stop4130"
         style="stop-color:#ffffff;stop-opacity:1"
         offset="0" />
    </linearGradient>
    <linearGradient
       id="linearGradient4122">
      <stop
         id="stop4124"
         style="stop-color:#ffffff;stop-opacity:1"
         offset="0" />
    </linearGradient>
    <linearGradient
       id="linearGradient4096">
      <stop
         id="stop4098"
         style="stop-color:#ffffff;stop-opacity:1"
         offset="0" />
    </linearGradient>
    <radialGradient
       cx="-480.72501"
       cy="443.14178"
       r="10.70114"
       fx="-480.72501"
       fy="443.14178"
       id="radialGradient4102"
       xlink:href="#linearGradient4096"
       gradientUnits="userSpaceOnUse"
       gradientTransform="matrix(1.0642288,0.25691514,-0.11258761,0.46637568,93.602761,360.43512)" />
    <linearGradient
       x1="-586.63373"
       y1="457.53033"
       x2="-578.33331"
       y2="456.95758"
       id="linearGradient4126"
       xlink:href="#linearGradient4122"
       gradientUnits="userSpaceOnUse"
       gradientTransform="translate(2.2687707,-12.154128)" />
    <linearGradient
       x1="-630.48102"
       y1="457.80765"
       x2="-604.69257"
       y2="457.80765"
       id="linearGradient4132"
       xlink:href="#linearGradient4128"
       gradientUnits="userSpaceOnUse"
       gradientTransform="translate(-18.150165,-57.853652)" />
    <linearGradient
       x1="-706.3656"
       y1="390.72418"
       x2="-524.8396"
       y2="390.72418"
       id="linearGradient4138"
       xlink:href="#linearGradient4134"
       gradientUnits="userSpaceOnUse" />
    <linearGradient
       x1="-566.92944"
       y1="414.81769"
       x2="-544.88379"
       y2="414.81769"
       id="linearGradient4166"
       xlink:href="#linearGradient4162"
       gradientUnits="userSpaceOnUse" />
    <linearGradient
       x1="-273.52643"
       y1="373.75037"
       x2="-253.28392"
       y2="373.75037"
       id="linearGradient3906"
       xlink:href="#linearGradient3898"
       gradientUnits="userSpaceOnUse"
       spreadMethod="pad" />
    <linearGradient
       x1="-252.70134"
       y1="374.04568"
       x2="-273.40765"
       y2="375.75604"
       id="linearGradient3914"
       xlink:href="#linearGradient3908"
       gradientUnits="userSpaceOnUse" />
  </defs>
  <metadata
     id="metadata7">
    <rdf:RDF>
      <cc:Work
         rdf:about="">
        <dc:format>image/svg+xml</dc:format>
        <dc:type
           rdf:resource="http://purl.org/dc/dcmitype/StillImage" />
        <dc:title></dc:title>
      </cc:Work>
    </rdf:RDF>
  </metadata>
  <g
     transform="translate(713.85297,-330.44534)"
     id="layer1">
    <g
       id="g4236">
      <path
         d="m -685.5625,337.96875 c -3.89154,0.16939 -7.61993,2.11919 -10.07103,5.13353 -3.29194,3.22708 -6.58464,6.92589 -7.38832,11.62847 -0.91011,3.95738 -1.93189,7.93274 -2.2648,11.98147 0.4709,2.54367 2.76039,4.13399 4.12747,6.18619 18.46973,23.28386 36.93945,46.56773 55.40918,69.85159 1.59123,1.01228 3.54729,0.31451 5.30302,0.60222 21.50763,0.5622 43.02851,0.5482 64.53603,-0.01 13.01964,-0.13413 26.05997,0.44335 39.0621,-0.42418 3.64933,0.24921 7.39047,0.16799 10.91135,-0.91841 1.16349,-2.4027 -0.41034,-4.89257 -1.35813,-7.07211 -5.29904,-11.32361 -10.31429,-22.80457 -16.45437,-33.70914 -4.04232,-4.77575 -8.08342,-10.02737 -14.01458,-12.53383 -6.92496,-2.70508 -14.82168,-1.19266 -21.56703,-4.49794 -6.03058,-3.07617 -10.59589,-8.36121 -16.67049,-11.37326 -9.79901,-5.88958 -20.30743,-10.49263 -30.92388,-14.68634 -5.14615,-1.97703 -10.24949,-4.12721 -15.63652,-5.37738 -3.36302,-0.8594 -6.82374,-1.52348 -9.90021,-3.20701 -4.94327,-2.3757 -9.84427,-4.84405 -14.62334,-7.53466 -3.18705,-1.56495 -6.52665,-2.8873 -10.08118,-3.27799 -2.80341,-0.26408 -5.56203,-0.9514 -8.39527,-0.76159 z"
         id="path4114"
         style="fill:url(#linearGradient4138);fill-opacity:1;stroke:#000000;stroke-width:0.5;stroke-linecap:butt;stroke-linejoin:miter;stroke-miterlimit:4;stroke-opacity:1;stroke-dasharray:none" />
      <path
         d="m -690.26519,344.02057 c 11.81784,-1.27315 18.24278,4.46395 22.2263,8.21938 6.13353,3.33295 14.93921,4.54673 21.50186,6.80784 6.94877,2.2507 13.92845,4.41413 20.96218,6.37973 3.91425,1.22559 7.20068,3.73182 10.67215,5.81751 2.35737,1.42965 4.96018,2.3537 7.58884,3.13276 6.13469,2.27517 12.21311,4.89354 17.63868,8.58663 2.93265,2.51561 5.58514,5.5477 9.2717,6.97742 4.31143,2.12019 8.9671,3.71575 13.77848,4.08941 7.34256,-0.4691 11.86294,1.21636 11.875,-0.9375 -2.7719,-2.0809 -7.66368,-2.47789 -10.84868,-3.49021 -4.94403,-1.11111 -9.96804,-1.99618 -14.79324,-3.5434 -4.65004,-2.21415 -8.26045,-6.0425 -12.75677,-8.51557 -10.59805,-6.65936 -21.97518,-11.97623 -33.50756,-16.79457 -7.77665,-3.05537 -15.86384,-5.24702 -24.0067,-7.07294 -6.0002,-1.81589 -10.79977,-6.07709 -16.39955,-8.73956 -9.2507,-3.58873 -16.47366,-5.37013 -20.21622,-4.86456 -5.29919,0.65385 -5.56413,4.03089 -2.98647,3.94763 z"
         id="path4158"
         style="fill:#e2e3db;fill-opacity:1;stroke-width:0.5;stroke-miterlimit:4;stroke-dasharray:none" />
    </g>
    <g
       transform="matrix(-0.99984591,0.01755383,0.01755383,0.99984591,-440.3902,1.7188904)"
       id="g3872">
      <path
         d="m -261.16757,400.82319 c 0.1661,1.7237 0.0903,2.91935 0.0903,2.91935 -2.28805,1.53954 -2.6791,3.21064 -2.1328,2.99618 1.03917,-0.40794 4.87188,-1.2359 4.80025,-1.5638 -0.20689,-0.94706 -1.521,-1.5528 -2.66745,-1.43238"
         id="path3874"
         style="fill:none;stroke:#000000;stroke-width:1.5;stroke-linecap:butt;stroke-linejoin:miter;stroke-miterlimit:4;stroke-opacity:1;stroke-dasharray:none" />
      <path
         d="m -253.79914,375.38528 c 0.28518,-0.28518 -3.55782,-3.33179 -1.5186,-7.48247 l -16.5357,4.02206 c -3.10945,4.15145 0.89514,7.21415 1.35407,7.67308 1.48698,-0.31884 12.42582,-2.91376 16.70023,-4.21267 z"
         id="path3876"
         style="fill:url(#linearGradient3914);fill-opacity:1;stroke:#000000;stroke-width:1px;stroke-linecap:butt;stroke-linejoin:bevel;stroke-opacity:1" />
      <path
         d="m -269.85301,372.96913 c -1.20345,2.93047 0.89393,4.49252 1.328,4.73625"
         id="path3878"
         style="fill:none;stroke:#000000;stroke-width:1px;stroke-linecap:butt;stroke-linejoin:miter;stroke-opacity:1" />
      <path
         d="m -266.1206,372.08855 c -1.20345,2.93047 0.89393,4.49252 1.328,4.73625"
         id="path3880"
         style="fill:none;stroke:#000000;stroke-width:1px;stroke-linecap:butt;stroke-linejoin:miter;stroke-opacity:1" />
      <path
         d="m -262.28264,371.10242 c -1.20345,2.93047 0.89393,4.49252 1.328,4.73625"
         id="path3882"
         style="fill:none;stroke:#000000;stroke-width:1px;stroke-linecap:butt;stroke-linejoin:miter;stroke-opacity:1" />
      <path
         d="m -258.56906,370.23176 c -1.20345,2.93047 0.89393,4.49252 1.328,4.73625"
         id="path3884"
         style="fill:none;stroke:#000000;stroke-width:1px;stroke-linecap:butt;stroke-linejoin:miter;stroke-opacity:1" />
      <path
         d="M 452.77504,71.739463 451.1584,47.489843"
         transform="translate(-713.85297,330.44534)"
         id="path3886"
         style="fill:none;stroke:#000000;stroke-width:1px;stroke-linecap:butt;stroke-linejoin:miter;stroke-opacity:1" />
    </g>
    <g
       id="g4240">
      <path
         d="m -702.4375,367.125 c -1.57142,0.27664 -3.38517,0.35711 -4.53125,1.625 -1.34205,8.11233 -1.97284,16.33179 -1.97402,24.55308 -0.25903,17.18941 -0.48656,34.38016 -0.43223,51.57192 0.64602,1.91836 2.98269,2.1651 4.71875,2.09375 19.26458,0.58517 38.6221,1.22663 57.8125,-1 1.18888,-0.43986 0.87506,-2.01499 0.3125,-2.84375 -1.74521,-6.1945 -2.54227,-12.70315 -5.35148,-18.55942 -2.60279,-6.40388 -4.26483,-13.13444 -5.8214,-19.85164 -1.57293,-5.0106 -3.76786,-9.80712 -6.05915,-14.51839 -2.12593,-3.14516 -6.08557,-3.84269 -9.24166,-5.50195 -2.58826,-1.30008 -4.43951,-3.64664 -5.91675,-6.07224 -1.85455,-2.63737 -4.09347,-5.53177 -7.44839,-6.16174 -3.63054,-0.31739 -6.84211,-2.19036 -10.0126,-3.82855 -1.88917,-0.95003 -3.90793,-1.66306 -6.05482,-1.50607 z"
         id="path3244"
         style="fill:#ffffff;fill-opacity:1;stroke:#000000;stroke-width:0.60000002;stroke-linecap:butt;stroke-linejoin:miter;stroke-miterlimit:4;stroke-opacity:1;stroke-dasharray:none" />
      <path
         d="m -704.25752,446.77887 c -4.46026,-0.49497 -4.3578,-0.41231 -4.33935,-3.501 l 0.016,-2.673 4.78794,-1.2679 c 8.47145,-2.24334 8.95648,-4.16226 9.64,-3.73983 0.31259,0.19319 1.25997,1.75684 2.10531,3.47478 2.0088,4.08242 2.67024,4.33971 7.16328,2.78646 5.59094,-1.93279 11.04862,-2.52586 20.75741,-2.25562 4.68098,0.13029 10.36632,-1.24693 11.09398,-1.10035 1.32173,0.26624 1.32261,0.26832 0.91905,2.16048 -0.22217,1.0417 -0.30202,2.15961 -0.17744,2.48425 0.12457,0.32464 1.29083,0.92575 2.59168,1.33581 1.30085,0.41006 2.36518,0.87655 2.36518,1.03666 0,0.16011 -1.67558,0.53758 -3.72351,0.83883 -4.33066,0.63704 -48.12866,0.98317 -53.19951,0.42043 l 0,0 z"
         id="path3276"
         style="fill:#e2e3db;fill-opacity:1;stroke-width:4;stroke-miterlimit:4;stroke-dasharray:none" />
      <path
         d="m -678.09375,385.125 c -1.41674,-0.11065 -1.74103,2.16563 -0.53125,2.6875 2.22228,2.20813 5.11952,0.78859 7.03978,3.38353 2.36194,0.0327 4.2902,1.499 6.43812,0.29731 -1.77333,-2.12823 -1.44203,-1.62435 -5.18387,-2.7971 -2.15406,-0.67512 -4.74522,-0.90472 -6.14754,-2.91352 -0.40789,-0.43705 -0.99889,-0.77942 -1.61524,-0.65772 z"
         id="path3278"
         style="fill:#e2e3db;fill-opacity:1;stroke-width:4;stroke-miterlimit:4;stroke-dasharray:none" />
      <path
         d="m -703.3125,369.34375 c -1.30139,0.52589 -1.08455,2.60342 0.0937,3.15625 1.95339,2.08764 4.64497,2.88287 7.37069,3.19825 2.09479,0.24239 -0.97986,1.86331 6.87439,1.9393 2.10172,0.0203 3.65244,2.36701 5.78617,2.6437 0.79186,0.13033 1.67446,-0.57674 1.25,-1.40625 -0.60691,-2.36286 -3.1734,-3.59165 -5.43047,-3.81036 -2.1838,-0.33389 -4.54943,-0.32448 -6.44453,-1.59589 -3.07959,-1.16597 -5.53288,-3.9021 -8.9375,-4.1875 -0.19383,-0.0116 -0.37823,-0.005 -0.5625,0.0625 z"
         id="path3280"
         style="fill:#e2e3db;fill-opacity:1;stroke-width:4;stroke-miterlimit:4;stroke-dasharray:none" />
    </g>
    <g
       transform="translate(311.42857,100)"
       id="flowRoot2985"
       style="font-size:12px;font-style:normal;font-variant:normal;font-weight:bold;font-stretch:normal;line-height:125%;letter-spacing:0px;word-spacing:0px;fill:#000000;fill-opacity:1;stroke:none;font-family:Linux Biolinum Shadow O;-inkscape-font-specification:Linux Biolinum Shadow O Bold">
      <path
         d="m -947.50275,342.7737 c -4.392,0 -10.44,-4.75201 -12.96,-8.568 l -1.872,0.072 c -0.288,2.59199 -0.864,6.624 -1.44,8.784 l 0.144,0.216 c 0,0 6.69601,3.24 15.48,3.24 10.58399,0 17.208,-6.76801 17.208,-14.112 0,-7.84799 -8.49601,-11.88001 -14.256,-14.616 -3.888,-1.8 -7.344,-3.52801 -7.344,-8.856 0,-3.6 2.592,-6.984 6.552,-6.984 4.32,0 8.568,5.112 10.44,8.64 l 2.16,-0.072 c 0.288,-2.592 0.792,-6.48 1.44,-8.64 l -0.144,-0.216 c 0,0 -5.90401,-3.24 -14.688,-3.24 -8.13599,0 -15.552,4.82401 -15.552,12.456 0,2.80799 0.504,5.544 2.232,7.776 3.312,4.39199 8.856,7.056 13.032,9.144 3.384,1.728 6.264,4.608 6.264,7.56 0,5.11199 -2.376,7.416 -6.696,7.416"
         id="path4343"
         style="font-size:72px;font-family:Linux Biolinum O;-inkscape-font-specification:Linux Biolinum O Bold" />
      <path
         d="m -889.761,332.8377 0,-7.992 c 0,-7.56 -3.52801,-10.656 -10.008,-10.656 -3.672,0 -7.992,2.232 -11.304,6.48 l -0.36,-0.216 c 0,-1.584 0,-4.608 -0.072,-5.256 -0.144,-0.432 -0.216,-0.72 -0.648,-0.72 -2.088,0.36 -6.84,0.36 -9.36,0.216 l -0.144,0.216 c 0.504,3.09599 0.792,8.64 0.792,13.968 l 0,3.96 c 0,5.39999 -0.216,9.144 -0.792,12.96 l 0.144,0.216 c 0,0 3.384,-0.216 5.904,-0.216 2.448,0 4.464,0.216 4.464,0.216 l 0.216,-0.216 c -0.36,-4.104 -0.432,-7.48801 -0.432,-12.96 l 0,-7.344 c 2.736,-3.6 5.76,-5.76 8.352,-5.76 1.944,0 3.744,1.44 3.744,6.696 l 0,6.408 c 0,5.39999 0,9.144 -0.432,12.96 l 0.144,0.216 c 0,0 2.304,-0.216 4.824,-0.216 2.448,0 5.616,0.216 5.616,0.216 l 0.144,-0.216 c -0.648,-4.104 -0.792,-7.48801 -0.792,-12.96"
         id="path4345"
         style="font-size:72px;font-family:Linux Biolinum O;-inkscape-font-specification:Linux Biolinum O Bold" />
      <path
         d="m -880.50112,331.0377 c 0,9.57599 6.69601,15.48 17.42399,15.48 11.01599,0 17.424,-6.12001 17.424,-16.128 0,-9.07199 -5.11201,-16.2 -17.28,-16.2 -10.29598,0 -17.56799,5.68801 -17.56799,16.848 m 17.06399,-13.248 c 6.12,0 7.56001,4.53601 7.56001,14.544 0,8.27999 -2.95201,10.584 -6.192,10.584 -7.488,0 -8.208,-7.99201 -8.208,-13.536 0,-6.264 0.648,-11.592 6.83999,-11.592"
         id="path4347"
         style="font-size:72px;font-family:Linux Biolinum O;-inkscape-font-specification:Linux Biolinum O Bold" />
      <path
         d="m -829.623,346.0857 c 0.648,-0.216 3.672,-0.216 4.32,-0.216 0.648,0 3.888,0 4.464,0.216 1.8,-5.544 4.032,-11.37601 6.336,-16.776 2.232,5.54399 4.392,11.088 6.336,16.704 0.648,-0.216 3.816,-0.216 4.464,-0.216 0.648,0 2.808,0 3.384,0.216 3.744,-10.22399 8.28,-21.02401 12.6,-31.32 -0.576,0.216 -3.096,0.216 -3.744,0.216 -0.648,0 -2.376,0 -2.952,-0.216 -2.448,7.55999 -4.896,16.344 -7.704,23.184 l -0.504,0 c -2.88,-7.70399 -4.68,-15.48001 -6.912,-23.184 -0.864,0.216 -4.032,0.216 -4.968,0.216 -1.008,0 -4.968,0 -5.976,-0.216 1.152,2.95199 2.376,5.832 3.528,8.784 -1.872,5.61599 -3.888,11.304 -5.832,15.912 l -0.72,0 c -3.24,-8.27999 -5.256,-16.34401 -7.632,-24.624 -0.864,0.216 -3.672,0.216 -4.608,0.216 -1.008,0 -5.328,0 -6.336,-0.216 4.32,10.58399 8.856,20.80801 12.456,31.32"
         id="path4349"
         style="font-size:72px;font-family:Linux Biolinum O;-inkscape-font-specification:Linux Biolinum O Bold" />
      <path
         d="m -759.56587,336.2217 c -1.8,4.60799 -4.10401,6.12 -6.98401,6.12 -3.88799,0 -6.47999,-3.45601 -6.47999,-12.456 0,-9.71999 3.096,-12.096 6.62399,-12.096 3.384,0 6.04801,2.52 6.84001,6.192 l 0,12.24 m 0,5.688 0.144,0 0.36,3.888 c 0,0.144 0.216,0.216 0.648,0.216 0.93599,-0.072 3.528,-0.216 4.53599,-0.216 0.936,0 4.10401,0.072 5.04001,0.216 l 0.14399,-0.216 c -0.57599,-3.096 -1.36799,-8.42401 -1.36799,-13.824 l 0,-22.176 c 0,-5.328 0.288,-9.07201 0.864,-13.536 0,-0.504 -0.36001,-0.72 -0.792,-0.72 -1.872,0.72 -7.41601,2.16 -10.29601,2.376 l -0.144,0.216 c 0.504,3.09599 0.86401,8.064 0.86401,13.536 l 0,5.76 c -1.368,-1.944 -4.75201,-3.24 -6.76801,-3.24 -4.82399,0 -7.488,1.008 -10.72799,3.384 -4.464,3.23999 -6.192,8.496 -6.192,13.608 0,8.85599 5.4,15.336 13.39199,15.336 4.536,0 8.35201,-1.22401 10.29601,-4.608"
         id="path4351"
         style="font-size:72px;font-family:Linux Biolinum O;-inkscape-font-specification:Linux Biolinum O Bold" />
      <path
         d="m -728.59687,320.6697 -0.36,-0.216 c 0,-1.584 -10e-6,-4.608 -0.072,-5.256 -0.144,-0.432 -0.21601,-0.72 -0.648,-0.72 -2.088,0.36 -6.84001,0.36 -9.36,0.216 l -0.14401,0.216 c 0.504,3.09599 0.79201,8.64 0.79201,13.968 l 0,3.96 c 0,5.39999 -0.14401,9.072 -0.72,12.96 l 0.072,0.216 c 0,0 2.304,-0.216 4.82399,-0.216 2.448,0 5.90401,0.216 5.90401,0.216 l 0.14399,-0.216 c -0.57599,-4.104 -0.71999,-7.48801 -0.71999,-12.96 l 0,-5.256 c 0,-5.544 4.896,-6.408 6.048,-6.408 1.36799,0 2.88,0.36 4.17599,1.368 l 1.29601,-0.144 1.43999,-7.416 -0.28799,-0.288 c -1.224,-0.36 -2.37601,-0.504 -3.672,-0.504 -3.384,0 -6.84001,3.672 -8.712,6.48"
         id="path4353"
         style="font-size:72px;font-family:Linux Biolinum O;-inkscape-font-specification:Linux Biolinum O Bold" />
      <path
         d="m -708.58987,302.0937 c 0,2.87999 2.376,5.112 5.39999,5.112 3.024,0 5.4,-2.23201 5.4,-5.112 0,-2.88 -2.376,-5.112 -5.4,-5.112 -3.02399,0 -5.39999,2.232 -5.39999,5.112 m 0.648,26.784 0,3.96 c 0,5.39999 -0.14401,9.072 -0.72,12.96 l 0.144,0.216 c 2.15999,-0.144 2.808,-0.216 5.32799,-0.216 2.448,0 3.16801,0.072 5.328,0.216 l 0.144,-0.216 c -0.57599,-4.104 -0.71999,-7.48801 -0.71999,-12.96 l 0,-4.752 c 0,-5.4 0.36,-8.42401 0.71999,-12.816 0,-0.504 -0.216,-0.72 -0.64799,-0.72 -1.008,0.144 -2.95201,0.36 -4.96801,0.36 -1.87199,0 -3.816,-0.144 -5.11199,-0.216 l -0.216,0.288 c 0.57599,3.09599 0.72,8.496 0.72,13.896"
         id="path4355"
         style="font-size:72px;font-family:Linux Biolinum O;-inkscape-font-specification:Linux Biolinum O Bold" />
      <path
         d="m -680.0385,300.5097 c -3.168,3.31199 -5.328,7.848 -5.328,12.24 l 0,2.16 -3.456,0 c -1.296,0 -1.656,0.864 -1.656,1.44 l 0,1.728 c 0,0.36 0.072,0.432 0.36,0.432 l 4.752,0 0,12.888 c 0,5.39999 0,10.728 -0.504,14.4 l 0.072,0.216 c 0,0 2.88,-0.216 5.4,-0.216 2.448,0 4.968,0.216 4.968,0.216 l 0.144,-0.216 c -0.504,-4.176 -0.576,-9.00001 -0.576,-14.4 l 0,-12.888 9.72,0 0.576,0 4.176,0 -0.216,8.496 c -0.144,4.31999 -0.216,10.296 -0.216,12.456 0,3.38399 2.376,7.056 6.984,7.056 3.744,0 7.488,-0.648 10.584,-2.52 0,-1.152 -0.432,-2.448 -1.224,-2.952 -1.584,0.792 -2.304,0.864 -4.176,0.864 -1.944,0 -2.664,-2.59201 -2.664,-5.544 0,-2.16 -0.072,-5.83201 0.072,-10.152 l 0.144,-7.704 6.552,0 c 0.72,0 1.728,-0.288 1.728,-0.936 l 0,-2.232 c 0,-0.288 -0.216,-0.432 -0.576,-0.432 l -7.704,0 c 0,-5.4 0.072,-5.83201 0.36,-10.008 0,-0.504 -0.216,-0.72 -0.648,-0.72 -1.8,0.72 -6.48,2.592 -9.36,3.24 l -0.144,0.216 c 0.504,3.02399 0.504,3.096 0.504,7.272 l -3.096,0 -1.08,0 -10.296,0 0,-0.72 c 0,-1.8 -0.36,-5.328 -0.36,-6.912 0,-3.96 2.52,-6.768 6.408,-6.768 2.088,0 3.096,1.8 3.888,3.24 l 2.16,-0.072 c 0.504,-1.944 0.864,-5.904 1.656,-7.272 l -0.072,-0.216 c -0.576,-0.36 -2.592,-0.648 -3.96,-0.648 -5.75999,0 -10.872,1.872 -13.896,4.968"
         id="path4357"
         style="font-size:72px;font-family:Linux Biolinum O;-inkscape-font-specification:Linux Biolinum O Bold" />
      <path
         d="m -638.53387,342.3417 c 0.79199,3.02399 2.016,4.248 4.968,4.896 l 0.288,0 c 2.59199,-0.648 3.96,-1.94401 4.96799,-4.896 l 0,-0.36 c -0.93599,-2.592 -2.304,-3.96 -4.96799,-4.896 l -0.288,0 c -2.736,1.08 -4.03201,2.52 -4.968,4.896 l 0,0.36"
         id="path4359"
         style="font-size:72px;font-family:Linux Biolinum O;-inkscape-font-specification:Linux Biolinum O Bold" />
      <path
         d="m -603.53512,317.7897 c 2.73599,0 4.896,2.088 6.48,6.048 l 2.01599,-0.072 1.72801,-6.984 -0.144,-0.216 c -2.232,-1.152 -7.12801,-2.376 -10.72801,-2.376 -9.64799,0 -17.49599,5.76001 -17.49599,17.064 0,4.53599 1.44,8.064 3.888,10.656 2.51999,2.80799 7.128,4.608 12.59999,4.608 5.472,0 8.64001,-1.15201 11.88001,-3.888 -0.216,-0.648 -0.36,-1.656 -0.36,-2.808 l -1.152,-0.36 c -2.016,2.44799 -5.54401,3.456 -8.424,3.456 -2.088,0 -4.96801,-1.8 -6.264,-3.888 -1.296,-2.088 -2.16,-5.47201 -2.16,-9.648 0,-3.384 0.504,-6.12 1.728,-8.136 1.36799,-2.232 3.816,-3.456 6.408,-3.456"
         id="path4361"
         style="font-size:72px;font-family:Linux Biolinum O;-inkscape-font-specification:Linux Biolinum O Bold" />
      <path
         d="m -588.00112,331.0377 c 0,9.57599 6.69601,15.48 17.42399,15.48 11.01599,0 17.424,-6.12001 17.424,-16.128 0,-9.07199 -5.11201,-16.2 -17.28,-16.2 -10.29598,0 -17.56799,5.68801 -17.56799,16.848 m 17.06399,-13.248 c 6.12,0 7.56001,4.53601 7.56001,14.544 0,8.27999 -2.95201,10.584 -6.192,10.584 -7.488,0 -8.208,-7.99201 -8.208,-13.536 0,-6.264 0.648,-11.592 6.83999,-11.592"
         id="path4363"
         style="font-size:72px;font-family:Linux Biolinum O;-inkscape-font-specification:Linux Biolinum O Bold" />
      <path
         d="m -546.51675,331.0377 c 0,9.57599 6.69601,15.48 17.424,15.48 11.01599,0 17.424,-6.12001 17.424,-16.128 0,-9.07199 -5.11201,-16.2 -17.28,-16.2 -10.29599,0 -17.568,5.68801 -17.568,16.848 m 17.064,-13.248 c 6.11999,0 7.56,4.53601 7.56,14.544 0,8.27999 -2.952,10.584 -6.192,10.584 -7.48799,0 -8.208,-7.99201 -8.208,-13.536 0,-6.264 0.64801,-11.592 6.84,-11.592"
         id="path4365"
         style="font-size:72px;font-family:Linux Biolinum O;-inkscape-font-specification:Linux Biolinum O Bold" />
      <path
         d="m -493.4235,325.4937 c 1.584,-3.816 5.256,-6.624 7.704,-6.624 4.392,0 5.904,5.04001 5.904,12.672 0,6.91199 -3.168,11.376 -7.2,11.376 -1.8,0 -3.744,-0.36 -6.408,-2.592 l 0,-14.832 m 0.288,-5.472 -0.36,-0.216 c 0,-1.584 0,-3.96 -0.072,-4.608 -0.144,-0.432 -0.216,-0.72 -0.648,-0.72 -2.088,0.36 -6.84,0.36 -9.36,0.216 l -0.144,0.216 c 0.504,3.09599 0.792,8.64 0.792,13.968 l 0,19.224 c 0,5.39999 -0.144,10.584 -0.72,14.4 l 0.072,0.216 c 0,0 2.808,-0.216 5.328,-0.216 2.448,0 5.4,0.216 5.4,0.216 l 0.144,-0.216 c -0.648,-4.104 -0.72,-9.00001 -0.72,-14.4 l 0,-3.6 c 2.376,1.512 5.04,2.016 7.704,2.016 9.07199,0 16.128,-7.48801 16.128,-17.64 0,-5.688 -2.16,-9.43201 -5.472,-12.096 -2.16,-1.656 -4.392,-2.592 -7.992,-2.592 -3.096,0 -6.552,1.008 -10.08,5.832"
         id="path4367"
         style="font-size:72px;font-family:Linux Biolinum O;-inkscape-font-specification:Linux Biolinum O Bold" />
    </g>
    <path
       d="m -241.3667,378.22379 c -3.67593,-2.62927 -7.41523,2.55535 -8.23797,5.8463 -2.66405,10.65618 19.8635,10.16265 16.21021,-0.79722 -0.70602,-2.11805 -3.26537,-3.7395 -5.31483,-4.25186 -3.17142,-0.79286 -4.54813,-0.62557 -7.44075,0.53148"
       id="path3049"
       style="fill:none;stroke:#000000;stroke-width:1px;stroke-linecap:butt;stroke-linejoin:miter;stroke-opacity:1" />
    <path
       d="m -243.22688,392.30806 c -0.92509,10.83656 -5.84631,26.67072 -5.84631,34.2806"
       id="path3051"
       style="fill:none;stroke:#000000;stroke-width:1px;stroke-linecap:butt;stroke-linejoin:miter;stroke-opacity:1" />
    <path
       d="m -244.48161,402.99493 c -3.83504,-2.39564 -23.52888,-0.86482 -21.29194,-6.89557"
       id="path3053"
       style="fill:none;stroke:#000000;stroke-width:1px;stroke-linecap:butt;stroke-linejoin:miter;stroke-opacity:1" />
    <path
       d="m -244.28985,404.00067 c 7.46255,-3.31979 20.28972,-8.06563 23.11947,-10.89538"
       id="path3055"
       style="fill:none;stroke:#000000;stroke-width:1px;stroke-linecap:butt;stroke-linejoin:miter;stroke-opacity:1" />
    <path
       d="m -193.28355,377.59651 c 3.67593,-2.62927 7.41523,2.55535 8.23797,5.8463 2.66405,10.65618 -19.8635,10.16265 -16.21021,-0.79722 0.70602,-2.11805 3.26537,-3.7395 5.31483,-4.25186 3.17142,-0.79286 4.54813,-0.62557 7.44075,0.53148"
       id="path3049-6"
       style="fill:none;stroke:#000000;stroke-width:1px;stroke-linecap:butt;stroke-linejoin:miter;stroke-opacity:1" />
    <path
       d="m -191.42337,391.68078 c 0.92509,10.83656 5.84631,26.67072 5.84631,34.2806"
       id="path3051-2"
       style="fill:none;stroke:#000000;stroke-width:1px;stroke-linecap:butt;stroke-linejoin:miter;stroke-opacity:1" />
    <path
       d="m -188.50021,403.10765 c 2.48646,-3.77678 21.02423,-10.59895 16.47594,-15.14724"
       id="path3053-8"
       style="fill:none;stroke:#000000;stroke-width:1px;stroke-linecap:butt;stroke-linejoin:miter;stroke-opacity:1" />
    <path
       d="m -190.3604,403.37339 c -7.46255,-3.31979 -20.28972,-8.06563 -23.11947,-10.89538"
       id="path3055-4"
       style="fill:none;stroke:#000000;stroke-width:1px;stroke-linecap:butt;stroke-linejoin:miter;stroke-opacity:1" />
    <path
       d="m -221.1442,386.38583 c -4.05568,20.2733 6.06897,-4.55173 0,0 z"
       id="path3182"
       style="fill:none;stroke:#000000;stroke-width:1px;stroke-linecap:butt;stroke-linejoin:miter;stroke-opacity:1" />
    <path
       d="m -216.88876,384.98482 c 0.16661,3.53563 2.1986,8.21862 4.04349,7.6062 2.04852,-0.68002 -2.4678,-9.18489 -4.04349,-7.6062 z"
       id="path3184"
       style="fill:none;stroke:#000000;stroke-width:1px;stroke-linecap:butt;stroke-linejoin:miter;stroke-opacity:1" />
    <path
       d="m -553.06347,410.23082 c -11.07164,-4.85035 -23.4779,19.80544 -0.60181,4.98594 1.70457,-1.10425 4.76518,1.33278 7.82353,-0.77327 4.33593,-2.98581 -5.14048,-4.7378 -7.22172,-4.21267 z"
       id="path3186"
       style="fill:url(#linearGradient4166);fill-opacity:1;stroke:#000000;stroke-width:1px;stroke-linecap:butt;stroke-linejoin:miter;stroke-opacity:1" />
    <path
       d="m -573.93079,445.80289 c -0.28816,-0.007 -2.07107,-4.47432 -5.78899,-2.86545 -11.73959,5.86979 5.09028,6.47357 5.78899,2.86545 z"
       id="path3190"
       style="fill:url(#linearGradient4126);fill-opacity:1;stroke:#000000;stroke-width:1px;stroke-linecap:butt;stroke-linejoin:miter;stroke-opacity:1" />
    <path
       d="m -640.41145,396.1568 c -5.21534,0 -10.88095,7.70898 -5.93259,7.70898 1.2304,0 9.83119,-2.60946 10.83258,-3.61086 2.82381,-2.8238 9.74085,2.29536 12.03621,0 1.63376,-1.63376 -7.33251,-5.70186 -17.1056,-4.09811"
       id="path3198"
       style="fill:url(#linearGradient4132);fill-opacity:1;stroke:#000000;stroke-width:1px;stroke-linecap:butt;stroke-linejoin:miter;stroke-opacity:1" />
    <path
       d="m -468.33071,439.19001 c -6.39955,-1.01553 -11.75374,5.09019 -9.28133,7.56259 1.93732,1.93733 8.10592,1.29609 12.94388,1.25623 6.89699,-0.0568 5.42022,-5.66031 -3.77666,-8.93352"
       id="path4094"
       style="fill:url(#radialGradient4102);fill-opacity:1;stroke:#000000;stroke-width:1px;stroke-linecap:butt;stroke-linejoin:miter;stroke-opacity:1" />
    <g
       id="text4104"
       style="font-size:13.34514427px;font-style:normal;font-variant:normal;font-weight:normal;font-stretch:normal;line-height:125%;letter-spacing:0px;word-spacing:0px;fill:#000000;fill-opacity:1;stroke:none;font-family:Linux Biolinum O;-inkscape-font-specification:Linux Biolinum O">
      <path
         d="m -702.3739,471.52163 c 1.064,0 2.044,0.81201 2.8,2.072 l 0.364,-0.028 0.644,-2.296 -0.056,-0.084 c -0.868,-0.448 -2.324,-0.784 -3.724,-0.784 -2.912,0 -5.964,2.38001 -5.964,6.188 0,3.92 2.212,6.384 5.628,6.384 1.68,0 2.996,-0.56 4.116,-1.988 l -0.532,-0.588 -0.112,0 c -1.064,0.952 -1.96,1.176 -2.996,1.176 -2.044,0 -3.64,-1.848 -3.64,-5.124 0,-3.07999 1.624,-4.928 3.472,-4.928"
         id="path4266"
         style="font-size:28px" />
      <path
         d="m -694.82265,477.09363 c 0,2.1 -0.056,4.11601 -0.252,5.6 l 0.056,0.084 c 0.336,-0.056 0.98,-0.084 1.316,-0.084 0.336,0 0.98,0.028 1.316,0.084 l 0.056,-0.084 c -0.224,-1.59599 -0.252,-3.472 -0.252,-5.6 l 0,-8.4 c 0,-2.09999 0.112,-3.472 0.252,-5.264 0,-0.196 -0.084,-0.28 -0.252,-0.28 -0.728,0.28 -1.316,0.476 -2.436,0.56 l -0.056,0.084 c 0.196,1.204 0.252,3.27601 0.252,5.404 l 0,7.896"
         id="path4268"
         style="font-size:28px" />
      <path
         d="m -686.78796,475.04963 c 0.476,-2.91199 2.548,-3.528 3.192,-3.528 1.008,0 2.352,1.03601 2.352,3.136 0,0.252 -0.112,0.392 -0.392,0.392 l -5.152,0 m 7.476,4.732 c -0.98,1.064 -2.29601,1.54 -3.836,1.54 -0.98,0 -2.296,-0.364 -3.052,-1.596 -0.504,-0.784 -0.672,-1.904 -0.672,-3.556 l 7.616,0 c 0.308,0 0.504,-0.168 0.504,-0.476 0,-2.35199 -1.14801,-5.292 -4.844,-5.292 -2.66,0 -5.74,2.32401 -5.74,6.44 0,1.596 0.308,3.16401 1.26,4.284 0.952,1.176 2.548,1.848 4.452,1.848 2.01599,0 3.808,-1.036 4.872,-2.492 l -0.56,-0.7"
         id="path4270"
         style="font-size:28px" />
      <path
         d="m -668.7564,476.39363 -0.112,3.332 c 0,0.364 -0.168,0.56 -0.392,0.728 -0.784,0.588 -1.736,1.092 -2.576,1.092 -1.26,0 -2.072,-0.84 -2.072,-1.708 0,-1.25999 0.588,-2.212 2.772,-2.8 l 2.38,-0.644 m 0,4.956 c 0.308,1.12 1.148,1.624 2.184,1.624 0.7,0 1.568,-0.168 2.212,-0.868 l -0.196,-0.672 c -0.308,0.112 -0.56,0.14 -0.756,0.14 -0.28,0 -0.644,-0.056 -0.84,-0.196 -0.28,-0.28 -0.448,-0.952 -0.448,-2.184 0,-0.812 0.084,-3.92 0.084,-4.228 0,-3.77999 -2.492,-4.536 -4.62,-4.536 -2.128,0 -3.416,1.036 -4.116,1.624 l -0.084,0.112 0.476,1.876 0.364,0.028 c 0.784,-1.25999 1.736,-2.38 3.08,-2.38 1.008,0 2.688,0.14001 2.688,3.304 0,0.196 -0.112,0.308 -0.196,0.336 l -2.604,0.588 c -2.856,0.644 -4.648,2.15601 -4.648,4.06 0,2.072 1.428,3.024 3.5,3.024 1.54,0 2.324,-0.364 3.808,-1.624 l 0.112,-0.028"
         id="path4272"
         style="font-size:28px" />
      <path
         d="m -659.30728,473.34163 0,-2.548 c 0,-0.196 -0.056,-0.28 -0.168,-0.28 -0.644,0.14 -1.652,0.168 -2.268,0.084 l -0.056,0.084 c 0.196,1.232 0.252,3.33201 0.252,5.432 l 0,1.54 c 0,2.1 -0.056,3.55601 -0.252,5.04 l 0.056,0.084 c 0.336,-0.056 0.98,-0.084 1.316,-0.084 0.336,0 0.98,0.028 1.316,0.084 l 0.056,-0.084 c -0.224,-1.59599 -0.252,-2.912 -0.252,-5.04 l 0,-1.456 c 0,-1.17599 0.336,-1.848 0.952,-2.772 0.392,-0.616 1.036,-0.98 1.568,-0.98 0.56,0 1.092,0.056 1.456,0.392 l 0.224,-0.056 0.56,-2.072 -0.112,-0.112 c -0.476,-0.14 -0.504,-0.196 -1.008,-0.196 -1.51199,0 -2.324,0.86801 -3.556,2.996 l -0.084,-0.056"
         id="path4274"
         style="font-size:28px" />
      <path
         d="m -651.79015,465.97763 c 0,0.756 0.672,1.428 1.428,1.428 0.756,0 1.428,-0.672 1.428,-1.428 0,-0.756 -0.672,-1.428 -1.428,-1.428 -0.756,0 -1.428,0.672 -1.428,1.428 m 0.28,10.136 0,1.54 c 0,2.1 -0.056,3.52801 -0.252,5.04 l 0.056,0.084 c 0.336,-0.056 0.98,-0.084 1.316,-0.084 0.336,0 0.98,0.028 1.316,0.084 l 0.056,-0.084 c -0.224,-1.56799 -0.252,-2.912 -0.252,-5.04 l 0,-1.988 c 0,-2.09999 0.056,-3.108 0.252,-4.816 0,-0.252 -0.056,-0.28 -0.252,-0.28 -0.644,0.084 -1.848,0.084 -2.436,0.028 l -0.056,0.084 c 0.168,1.204 0.252,3.33201 0.252,5.432"
         id="path4276"
         style="font-size:28px" />
      <path
         d="m -633.87671,477.65363 c 0,-0.896 0.056,-1.932 0.056,-2.828 0,-2.91199 -0.95201,-4.424 -3.472,-4.424 -1.064,0 -3.05201,0.42001 -4.844,2.52 l -0.056,-0.084 0,-2.044 c -0.028,-0.196 -0.056,-0.28 -0.168,-0.28 -0.644,0.14 -1.652,0.168 -2.268,0.084 l -0.056,0.084 c 0.196,1.232 0.252,3.33201 0.252,5.432 l 0,1.54 c 0,2.1 -0.028,3.52801 -0.252,5.04 l 0.056,0.084 c 0.336,-0.056 0.98,-0.084 1.316,-0.084 0.336,0 0.98,0.028 1.316,0.084 l 0.056,-0.084 c -0.224,-1.59599 -0.252,-2.912 -0.252,-5.04 l 0,-3.276 c 1.42799,-1.67999 3.052,-2.296 4.06,-2.296 1.42799,0 2.016,0.56001 2.016,2.828 l 0,2.744 c 0,2.1 -0.056,3.55601 -0.252,5.04 l 0.056,0.084 c 0.336,-0.056 0.98,-0.084 1.316,-0.084 0.336,0 0.98,0.028 1.316,0.084 l 0.056,-0.084 c -0.224,-1.59599 -0.252,-2.912 -0.252,-5.04"
         id="path4278"
         style="font-size:28px" />
      <path
         d="m -628.83496,485.60563 c 0,-0.924 0.84,-1.96 1.82,-2.492 0.812,0 2.1,-0.084 2.492,-0.084 1.34399,0 2.184,0.028 2.968,0.476 0.812,0.476 1.092,1.288 1.092,2.016 0,1.708 -2.29601,2.632 -4.704,2.632 -0.952,0 -3.668,-0.644 -3.668,-2.548 m 8.092,-11.004 c 0,-1.93199 -0.756,-2.716 -1.428,-3.136 0.84,0.056 1.764,0.168 2.94,0.28 l 0.084,-0.084 c -0.056,-0.252 -0.084,-0.476 -0.084,-0.728 0,-0.252 0.028,-0.476 0.084,-0.728 l -0.084,-0.084 c -1.344,0.14 -2.35201,0.42 -4.424,0.532 -0.504,-0.168 -1.12,-0.252 -1.708,-0.252 -2.212,0 -4.76,1.48401 -4.76,4.256 0,2.1 1.204,3.052 1.988,3.5 -0.812,0.56 -1.736,1.372 -1.736,2.324 0,1.148 0.616,2.156 2.1,2.436 -0.588,0.336 -1.652,0.84 -2.352,1.4 -0.364,0.532 -0.644,1.344 -0.644,1.848 0,2.436 2.772,3.192 4.816,3.192 3.61199,0 7.532,-1.456 7.532,-4.48 0,-1.23199 -0.392,-2.1 -1.176,-2.772 -1.064,-0.896 -2.968,-0.924 -3.948,-0.924 -0.476,0 -1.68,0.056 -2.324,0.14 -0.392,0.028 -0.672,0.056 -0.812,0.056 -0.784,0 -1.624,-0.112 -1.624,-1.316 0,-0.56 0.224,-1.036 0.84,-1.568 0.364,0.196 1.204,0.392 2.072,0.392 3.10799,0 4.648,-1.932 4.648,-4.284 m -2.184,0.14 c 0,1.82 -0.53201,3.024 -2.324,3.024 -2.016,0 -2.688,-1.204 -2.688,-3.248 0,-1.84799 0.84,-3.052 2.464,-3.052 1.81999,0 2.548,1.28801 2.548,3.276"
         id="path4280"
         style="font-size:28px" />
      <path
         d="m -608.05765,470.68163 c -0.588,0 -1.176,0 -1.512,-0.056 -0.196,0.476 -0.364,0.728 -0.616,1.148 l 0.14,0.196 c 0.476,-0.028 1.344,-0.028 1.988,-0.056 l 0,3.836 c 0,1.68 -0.084,3.696 -0.084,4.536 0,1.82 1.176,2.688 2.464,2.688 1.176,0 2.072,-0.28 3.248,-1.036 l -0.364,-0.672 c -0.84,0.308 -1.484,0.336 -2.184,0.224 -0.672,-0.112 -0.924,-0.784 -0.924,-2.296 0,-0.84 0.084,-2.044 0.084,-3.724 l 0,-3.528 1.064,0 c 0.672,0 1.624,0 2.016,0.056 0.084,-0.448 0.168,-0.756 0.336,-1.148 l -0.14,-0.196 c -0.504,0 -1.316,0.056 -1.96,0.056 l -1.316,0 c 0,-2.09999 0,-2.464 0.14,-4.088 0,-0.224 -0.084,-0.28 -0.252,-0.28 -0.728,0.28 -1.064,0.56 -1.96,0.7 l -0.056,0.084 c 0,1.064 -0.112,1.96001 -0.112,3.584 l 0,-0.028"
         id="path4282"
         style="font-size:28px" />
      <path
         d="m -596.44203,472.83763 0,-4.172 c 0,-2.07199 0.112,-3.5 0.252,-5.236 0,-0.196 -0.084,-0.28 -0.252,-0.28 -0.728,0.28 -1.316,0.476 -2.436,0.56 l -0.056,0.084 c 0.196,1.204 0.252,3.30401 0.252,5.432 l 0,8.428 c 0,2.1 -0.056,3.47201 -0.252,5.04 l 0.056,0.084 c 0.336,-0.056 0.98,-0.084 1.316,-0.084 0.336,0 0.98,0.028 1.316,0.084 l 0.056,-0.084 c -0.224,-1.59599 -0.252,-2.912 -0.252,-5.04 l 0,-3.276 c 1.428,-1.67999 3.052,-2.296 4.06,-2.296 1.428,0 2.016,0.56001 2.016,2.828 l 0,2.744 c 0,2.1 -0.028,3.55601 -0.252,5.04 l 0.056,0.084 c 0.336,-0.056 0.98,-0.084 1.316,-0.084 0.336,0 0.98,0.028 1.316,0.084 l 0.056,-0.084 c -0.224,-1.59599 -0.252,-2.912 -0.252,-5.04 0,-0.896 0.056,-1.932 0.056,-2.828 0,-2.91199 -0.952,-4.424 -3.472,-4.424 -1.064,0 -3.052,0.42001 -4.844,2.52 l -0.056,-0.084"
         id="path4284"
         style="font-size:28px" />
      <path
         d="m -582.33484,475.04963 c 0.476,-2.91199 2.548,-3.528 3.192,-3.528 1.008,0 2.352,1.03601 2.352,3.136 0,0.252 -0.112,0.392 -0.392,0.392 l -5.152,0 m 7.476,4.732 c -0.98,1.064 -2.296,1.54 -3.836,1.54 -0.98,0 -2.296,-0.364 -3.052,-1.596 -0.504,-0.784 -0.672,-1.904 -0.672,-3.556 l 7.616,0 c 0.308,0 0.504,-0.168 0.504,-0.476 0,-2.35199 -1.148,-5.292 -4.844,-5.292 -2.66,0 -5.74,2.32401 -5.74,6.44 0,1.596 0.308,3.16401 1.26,4.284 0.952,1.176 2.548,1.848 4.452,1.848 2.016,0 3.808,-1.036 4.872,-2.492 l -0.56,-0.7"
         id="path4286"
         style="font-size:28px" />
      <path
         d="m -561.61134,474.46163 c 0.616,-1.48399 2.268,-2.772 3.36,-2.772 1.904,0 2.884,1.73601 2.884,4.9 0,2.296 -0.644,5.264 -3.64,5.264 -0.448,0 -1.624,-0.112 -2.604,-1.26 l 0,-6.132 m 0,-1.624 0,-2.044 c 0,-0.196 -0.056,-0.28 -0.168,-0.28 -0.644,0.14 -1.652,0.168 -2.268,0.084 l -0.056,0.084 c 0.196,1.232 0.252,3.33201 0.252,5.432 l 0,7.476 c 0,2.1 -0.056,4.11601 -0.252,5.6 l 0.056,0.084 c 0.336,-0.056 0.98,-0.084 1.316,-0.084 0.336,0 0.98,0.028 1.316,0.084 l 0.056,-0.084 c -0.224,-1.59599 -0.252,-3.472 -0.252,-5.6 l 0,-1.232 c 0.728,0.392 1.764,0.616 2.772,0.616 3.696,0 5.936,-2.8 5.936,-6.748 0,-2.96799 -1.736,-5.824 -4.872,-5.824 -1.092,0 -2.492,0.56001 -3.78,2.52 l -0.056,-0.084"
         id="path4288"
         style="font-size:28px" />
      <path
         d="m -542.64703,476.39363 -0.112,3.332 c 0,0.364 -0.168,0.56 -0.392,0.728 -0.784,0.588 -1.736,1.092 -2.576,1.092 -1.26,0 -2.072,-0.84 -2.072,-1.708 0,-1.25999 0.58801,-2.212 2.772,-2.8 l 2.38,-0.644 m 0,4.956 c 0.308,1.12 1.148,1.624 2.184,1.624 0.7,0 1.568,-0.168 2.212,-0.868 l -0.196,-0.672 c -0.308,0.112 -0.56,0.14 -0.756,0.14 -0.28,0 -0.644,-0.056 -0.84,-0.196 -0.28,-0.28 -0.448,-0.952 -0.448,-2.184 0,-0.812 0.084,-3.92 0.084,-4.228 0,-3.77999 -2.492,-4.536 -4.62,-4.536 -2.12799,0 -3.416,1.036 -4.116,1.624 l -0.084,0.112 0.476,1.876 0.364,0.028 c 0.784,-1.25999 1.736,-2.38 3.08,-2.38 1.008,0 2.688,0.14001 2.688,3.304 0,0.196 -0.112,0.308 -0.196,0.336 l -2.604,0.588 c -2.85599,0.644 -4.648,2.15601 -4.648,4.06 0,2.072 1.42801,3.024 3.5,3.024 1.54,0 2.32401,-0.364 3.808,-1.624 l 0.112,-0.028"
         id="path4290"
         style="font-size:28px" />
      <path
         d="m -535.2139,470.68163 c -0.588,0 -1.176,0 -1.512,-0.056 -0.196,0.476 -0.364,0.728 -0.616,1.148 l 0.14,0.196 c 0.476,-0.028 1.344,-0.028 1.988,-0.056 l 0,3.836 c 0,1.68 -0.084,3.696 -0.084,4.536 0,1.82 1.176,2.688 2.464,2.688 1.176,0 2.072,-0.28 3.248,-1.036 l -0.364,-0.672 c -0.84,0.308 -1.484,0.336 -2.184,0.224 -0.672,-0.112 -0.924,-0.784 -0.924,-2.296 0,-0.84 0.084,-2.044 0.084,-3.724 l 0,-3.528 1.064,0 c 0.672,0 1.624,0 2.016,0.056 0.084,-0.448 0.168,-0.756 0.336,-1.148 l -0.14,-0.196 c -0.504,0 -1.316,0.056 -1.96,0.056 l -1.316,0 c 0,-2.09999 0,-2.464 0.14,-4.088 0,-0.224 -0.084,-0.28 -0.252,-0.28 -0.728,0.28 -1.064,0.56 -1.96,0.7 l -0.056,0.084 c 0,1.064 -0.112,1.96001 -0.112,3.584 l 0,-0.028"
         id="path4292"
         style="font-size:28px" />
      <path
         d="m -523.59828,472.83763 0,-4.172 c 0,-2.07199 0.112,-3.5 0.252,-5.236 0,-0.196 -0.084,-0.28 -0.252,-0.28 -0.728,0.28 -1.316,0.476 -2.436,0.56 l -0.056,0.084 c 0.196,1.204 0.252,3.30401 0.252,5.432 l 0,8.428 c 0,2.1 -0.056,3.47201 -0.252,5.04 l 0.056,0.084 c 0.336,-0.056 0.98,-0.084 1.316,-0.084 0.336,0 0.98,0.028 1.316,0.084 l 0.056,-0.084 c -0.224,-1.59599 -0.252,-2.912 -0.252,-5.04 l 0,-3.276 c 1.428,-1.67999 3.052,-2.296 4.06,-2.296 1.428,0 2.016,0.56001 2.016,2.828 l 0,2.744 c 0,2.1 -0.028,3.55601 -0.252,5.04 l 0.056,0.084 c 0.336,-0.056 0.98,-0.084 1.316,-0.084 0.336,0 0.98,0.028 1.316,0.084 l 0.056,-0.084 c -0.224,-1.59599 -0.252,-2.912 -0.252,-5.04 0,-0.896 0.056,-1.932 0.056,-2.828 0,-2.91199 -0.952,-4.424 -3.472,-4.424 -1.064,0 -3.052,0.42001 -4.844,2.52 l -0.056,-0.084"
         id="path4294"
         style="font-size:28px" />
      <path
         d="m -503.33109,470.68163 c -0.588,0 -1.176,0 -1.512,-0.056 -0.196,0.476 -0.364,0.728 -0.616,1.148 l 0.14,0.196 c 0.476,-0.028 1.344,-0.028 1.988,-0.056 l 0,3.836 c 0,1.68 -0.084,3.696 -0.084,4.536 0,1.82 1.176,2.688 2.464,2.688 1.176,0 2.072,-0.28 3.248,-1.036 l -0.364,-0.672 c -0.84,0.308 -1.484,0.336 -2.184,0.224 -0.672,-0.112 -0.924,-0.784 -0.924,-2.296 0,-0.84 0.084,-2.044 0.084,-3.724 l 0,-3.528 1.064,0 c 0.672,0 1.624,0 2.016,0.056 0.084,-0.448 0.168,-0.756 0.336,-1.148 l -0.14,-0.196 c -0.504,0 -1.316,0.056 -1.96,0.056 l -1.316,0 c 0,-2.09999 0,-2.464 0.14,-4.088 0,-0.224 -0.084,-0.28 -0.252,-0.28 -0.728,0.28 -1.064,0.56 -1.96,0.7 l -0.056,0.084 c 0,1.064 -0.112,1.96001 -0.112,3.584 l 0,-0.028"
         id="path4296"
         style="font-size:28px" />
      <path
         d="m -495.41146,476.95363 c 0,3.36 2.212,6.02 5.936,6.02 3.69599,0 5.936,-2.604 5.936,-6.272 0,-3.80799 -2.04401,-6.3 -5.824,-6.3 -3.668,0 -6.048,2.57601 -6.048,6.552 m 5.852,-5.432 c 2.96799,0 3.556,2.29601 3.556,5.684 0,2.688 -1.34401,4.648 -3.22,4.648 -2.968,0 -3.724,-3.22 -3.724,-5.376 0,-2.43599 0.756,-4.956 3.388,-4.956"
         id="path4298"
         style="font-size:28px" />
      <path
         d="m -466.79546,476.39363 -0.112,3.332 c 0,0.364 -0.168,0.56 -0.392,0.728 -0.784,0.588 -1.736,1.092 -2.576,1.092 -1.26,0 -2.072,-0.84 -2.072,-1.708 0,-1.25999 0.588,-2.212 2.772,-2.8 l 2.38,-0.644 m 0,4.956 c 0.308,1.12 1.148,1.624 2.184,1.624 0.7,0 1.568,-0.168 2.212,-0.868 l -0.196,-0.672 c -0.308,0.112 -0.56,0.14 -0.756,0.14 -0.28,0 -0.644,-0.056 -0.84,-0.196 -0.28,-0.28 -0.448,-0.952 -0.448,-2.184 0,-0.812 0.084,-3.92 0.084,-4.228 0,-3.77999 -2.49201,-4.536 -4.62,-4.536 -2.128,0 -3.416,1.036 -4.116,1.624 l -0.084,0.112 0.476,1.876 0.364,0.028 c 0.784,-1.25999 1.736,-2.38 3.08,-2.38 1.008,0 2.688,0.14001 2.688,3.304 0,0.196 -0.112,0.308 -0.196,0.336 l -2.604,0.588 c -2.856,0.644 -4.648,2.15601 -4.648,4.06 0,2.072 1.428,3.024 3.5,3.024 1.53999,0 2.324,-0.364 3.808,-1.624 l 0.112,-0.028"
         id="path4300"
         style="font-size:28px" />
      <path
         d="m -452.25034,470.68163 c -0.616,0 -1.26,0 -1.624,-0.056 -0.196,0.476 -0.364,0.728 -0.616,1.148 l 0.14,0.196 c 0.504,-0.028 1.428,-0.056 2.072,-0.056 l 0.028,0 0,5.208 c 0,2.1 -0.056,4.08801 -0.28,5.572 l 0.056,0.084 c 0.336,-0.056 1.008,-0.084 1.344,-0.084 0.336,0 1.008,0.028 1.344,0.084 l 0.056,-0.084 c -0.252,-1.59599 -0.28,-3.472 -0.28,-5.572 l 0,-5.208 0.952,0 c 0.672,0 1.624,0.028 2.016,0.056 0.084,-0.448 0.168,-0.728 0.336,-1.148 l -0.14,-0.196 c -0.476,0.028 -1.316,0.056 -1.96,0.056 l -1.204,0 0,-0.252 c 0,-1.00799 -0.14,-2.464 -0.14,-2.968 0,-1.53999 0.98,-2.604 2.604,-2.604 0.7,0 1.316,0.42 1.624,0.98 l 0.308,-0.028 c 0.196,-0.756 0.476,-1.68 0.784,-2.296 l -0.028,-0.084 c -0.224,-0.14 -0.728,-0.28 -1.26,-0.28 -1.764,0 -3.556,0.84001 -4.592,2.156 -1.064,1.344 -1.54,2.66001 -1.54,4.284 l 0,1.092"
         id="path4302"
         style="font-size:28px" />
      <path
         d="m -441.54165,473.34163 0,-2.548 c 0,-0.196 -0.056,-0.28 -0.168,-0.28 -0.644,0.14 -1.652,0.168 -2.268,0.084 l -0.056,0.084 c 0.196,1.232 0.252,3.33201 0.252,5.432 l 0,1.54 c 0,2.1 -0.056,3.55601 -0.252,5.04 l 0.056,0.084 c 0.336,-0.056 0.98,-0.084 1.316,-0.084 0.336,0 0.98,0.028 1.316,0.084 l 0.056,-0.084 c -0.224,-1.59599 -0.252,-2.912 -0.252,-5.04 l 0,-1.456 c 0,-1.17599 0.336,-1.848 0.952,-2.772 0.392,-0.616 1.036,-0.98 1.568,-0.98 0.56,0 1.092,0.056 1.456,0.392 l 0.224,-0.056 0.56,-2.072 -0.112,-0.112 c -0.476,-0.14 -0.504,-0.196 -1.008,-0.196 -1.512,0 -2.324,0.86801 -3.556,2.996 l -0.084,-0.056"
         id="path4304"
         style="font-size:28px" />
      <path
         d="m -432.92859,475.04963 c 0.476,-2.91199 2.548,-3.528 3.192,-3.528 1.008,0 2.352,1.03601 2.352,3.136 0,0.252 -0.112,0.392 -0.392,0.392 l -5.152,0 m 7.476,4.732 c -0.98,1.064 -2.296,1.54 -3.836,1.54 -0.98,0 -2.296,-0.364 -3.052,-1.596 -0.504,-0.784 -0.672,-1.904 -0.672,-3.556 l 7.616,0 c 0.308,0 0.504,-0.168 0.504,-0.476 0,-2.35199 -1.148,-5.292 -4.844,-5.292 -2.66,0 -5.74,2.32401 -5.74,6.44 0,1.596 0.308,3.16401 1.26,4.284 0.952,1.176 2.548,1.848 4.452,1.848 2.016,0 3.808,-1.036 4.872,-2.492 l -0.56,-0.7"
         id="path4306"
         style="font-size:28px" />
      <path
         d="m -420.02234,475.04963 c 0.476,-2.91199 2.548,-3.528 3.192,-3.528 1.008,0 2.352,1.03601 2.352,3.136 0,0.252 -0.112,0.392 -0.392,0.392 l -5.152,0 m 7.476,4.732 c -0.98,1.064 -2.296,1.54 -3.836,1.54 -0.98,0 -2.296,-0.364 -3.052,-1.596 -0.504,-0.784 -0.672,-1.904 -0.672,-3.556 l 7.616,0 c 0.308,0 0.504,-0.168 0.504,-0.476 0,-2.35199 -1.148,-5.292 -4.844,-5.292 -2.66,0 -5.74,2.32401 -5.74,6.44 0,1.596 0.308,3.16401 1.26,4.284 0.952,1.176 2.548,1.848 4.452,1.848 2.016,0 3.808,-1.036 4.872,-2.492 l -0.56,-0.7"
         id="path4308"
         style="font-size:28px" />
      <path
         d="m -409.76428,481.46163 c 0.224,0.952 0.616,1.12 1.512,1.316 0.336,0 0.812,0.056 0.812,0.728 0,0.924 -0.812,1.708 -2.184,2.632 0,0.28 0.168,0.448 0.364,0.588 1.512,-0.868 2.912,-1.652 2.912,-3.948 0,-1.79199 -0.784,-2.548 -1.792,-2.94 l -0.112,0 c -0.868,0.364 -1.26,0.784 -1.512,1.512 l 0,0.112"
         id="path4310"
         style="font-size:28px" />
      <path
         d="m -395.40859,477.09363 c 0,2.1 -0.056,4.11601 -0.252,5.6 l 0.056,0.084 c 0.336,-0.056 0.98,-0.084 1.316,-0.084 0.336,0 0.98,0.028 1.316,0.084 l 0.056,-0.084 c -0.224,-1.59599 -0.252,-3.472 -0.252,-5.6 l 0,-8.4 c 0,-2.09999 0.112,-3.472 0.252,-5.264 0,-0.196 -0.084,-0.28 -0.252,-0.28 -0.728,0.28 -1.316,0.476 -2.436,0.56 l -0.056,0.084 c 0.196,1.204 0.252,3.27601 0.252,5.404 l 0,7.896"
         id="path4312"
         style="font-size:28px" />
      <path
         d="m -388.6339,465.97763 c 0,0.756 0.672,1.428 1.428,1.428 0.756,0 1.428,-0.672 1.428,-1.428 0,-0.756 -0.672,-1.428 -1.428,-1.428 -0.756,0 -1.428,0.672 -1.428,1.428 m 0.28,10.136 0,1.54 c 0,2.1 -0.056,3.52801 -0.252,5.04 l 0.056,0.084 c 0.336,-0.056 0.98,-0.084 1.316,-0.084 0.336,0 0.98,0.028 1.316,0.084 l 0.056,-0.084 c -0.224,-1.56799 -0.252,-2.912 -0.252,-5.04 l 0,-1.988 c 0,-2.09999 0.056,-3.108 0.252,-4.816 0,-0.252 -0.056,-0.28 -0.252,-0.28 -0.644,0.084 -1.848,0.084 -2.436,0.028 l -0.056,0.084 c 0.168,1.204 0.252,3.33201 0.252,5.432"
         id="path4314"
         style="font-size:28px" />
      <path
         d="m -379.06446,480.42563 0,-7.252 c 1.092,-1.11999 1.792,-1.652 2.94,-1.652 1.70799,0 3.22,1.42801 3.22,4.9 0,3.472 -1.03601,5.432 -3.696,5.432 -0.868,0 -1.904,-0.728 -2.464,-1.428 m 0,-11.732 c 0,-2.07199 0.028,-3.528 0.168,-5.264 0,-0.196 -0.084,-0.28 -0.252,-0.28 -0.728,0.28 -1.316,0.476 -2.436,0.56 l -0.056,0.084 c 0.196,1.204 0.336,3.27601 0.336,5.404 l 0,11.452 c 0,1.092 -0.028,1.512 -0.14,2.1 0.168,0.168 0.476,0.224 0.784,0.224 0.308,-0.336 0.616,-0.812 0.924,-1.372 0.812,0.7 2.1,1.372 3.304,1.372 2.85599,0 6.02,-2.016 6.02,-6.776 0,-3.41599 -2.43601,-5.796 -5.152,-5.796 -1.344,0 -2.548,0.36401 -3.5,1.4 l 0,-3.108"
         id="path4316"
         style="font-size:28px" />
      <path
         d="m -364.81509,473.34163 0,-2.548 c 0,-0.196 -0.056,-0.28 -0.168,-0.28 -0.644,0.14 -1.652,0.168 -2.268,0.084 l -0.056,0.084 c 0.196,1.232 0.252,3.33201 0.252,5.432 l 0,1.54 c 0,2.1 -0.056,3.55601 -0.252,5.04 l 0.056,0.084 c 0.336,-0.056 0.98,-0.084 1.316,-0.084 0.336,0 0.98,0.028 1.316,0.084 l 0.056,-0.084 c -0.224,-1.59599 -0.252,-2.912 -0.252,-5.04 l 0,-1.456 c 0,-1.17599 0.336,-1.848 0.952,-2.772 0.392,-0.616 1.036,-0.98 1.568,-0.98 0.56,0 1.092,0.056 1.456,0.392 l 0.224,-0.056 0.56,-2.072 -0.112,-0.112 c -0.476,-0.14 -0.504,-0.196 -1.008,-0.196 -1.512,0 -2.324,0.86801 -3.556,2.996 l -0.084,-0.056"
         id="path4318"
         style="font-size:28px" />
      <path
         d="m -356.20203,475.04963 c 0.476,-2.91199 2.548,-3.528 3.192,-3.528 1.008,0 2.352,1.03601 2.352,3.136 0,0.252 -0.112,0.392 -0.392,0.392 l -5.152,0 m 7.476,4.732 c -0.98,1.064 -2.296,1.54 -3.836,1.54 -0.98,0 -2.296,-0.364 -3.052,-1.596 -0.504,-0.784 -0.672,-1.904 -0.672,-3.556 l 7.616,0 c 0.308,0 0.504,-0.168 0.504,-0.476 0,-2.35199 -1.148,-5.292 -4.844,-5.292 -2.65999,0 -5.74,2.32401 -5.74,6.44 0,1.596 0.308,3.16401 1.26,4.284 0.952,1.176 2.54801,1.848 4.452,1.848 2.016,0 3.808,-1.036 4.872,-2.492 l -0.56,-0.7"
         id="path4320"
         style="font-size:28px" />
      <path
         d="m -345.94396,481.46163 c 0.224,0.952 0.616,1.12 1.512,1.316 0.336,0 0.812,0.056 0.812,0.728 0,0.924 -0.81201,1.708 -2.184,2.632 0,0.28 0.168,0.448 0.364,0.588 1.51199,-0.868 2.912,-1.652 2.912,-3.948 0,-1.79199 -0.784,-2.548 -1.792,-2.94 l -0.112,0 c -0.868,0.364 -1.26,0.784 -1.512,1.512 l 0,0.112"
         id="path4322"
         style="font-size:28px" />
      <path
         d="m -333.04428,476.95363 c 0,3.36 2.21201,6.02 5.936,6.02 3.696,0 5.936,-2.604 5.936,-6.272 0,-3.80799 -2.044,-6.3 -5.824,-6.3 -3.66799,0 -6.048,2.57601 -6.048,6.552 m 5.852,-5.432 c 2.968,0 3.556,2.29601 3.556,5.684 0,2.688 -1.344,4.648 -3.22,4.648 -2.96799,0 -3.724,-3.22 -3.724,-5.376 0,-2.43599 0.75601,-4.956 3.388,-4.956"
         id="path4324"
         style="font-size:28px" />
      <path
         d="m -315.57228,474.46163 c 0.616,-1.48399 2.268,-2.772 3.36,-2.772 1.904,0 2.884,1.73601 2.884,4.9 0,2.296 -0.644,5.264 -3.64,5.264 -0.448,0 -1.624,-0.112 -2.604,-1.26 l 0,-6.132 m 0,-1.624 0,-2.044 c 0,-0.196 -0.056,-0.28 -0.168,-0.28 -0.644,0.14 -1.652,0.168 -2.268,0.084 l -0.056,0.084 c 0.196,1.232 0.252,3.33201 0.252,5.432 l 0,7.476 c 0,2.1 -0.056,4.11601 -0.252,5.6 l 0.056,0.084 c 0.336,-0.056 0.98,-0.084 1.316,-0.084 0.336,0 0.98,0.028 1.316,0.084 l 0.056,-0.084 c -0.224,-1.59599 -0.252,-3.472 -0.252,-5.6 l 0,-1.232 c 0.728,0.392 1.764,0.616 2.772,0.616 3.696,0 5.936,-2.8 5.936,-6.748 0,-2.96799 -1.736,-5.824 -4.872,-5.824 -1.092,0 -2.492,0.56001 -3.78,2.52 l -0.056,-0.084"
         id="path4326"
         style="font-size:28px" />
      <path
         d="m -301.73328,475.04963 c 0.476,-2.91199 2.548,-3.528 3.192,-3.528 1.008,0 2.352,1.03601 2.352,3.136 0,0.252 -0.112,0.392 -0.392,0.392 l -5.152,0 m 7.476,4.732 c -0.98,1.064 -2.296,1.54 -3.836,1.54 -0.98,0 -2.296,-0.364 -3.052,-1.596 -0.504,-0.784 -0.672,-1.904 -0.672,-3.556 l 7.616,0 c 0.308,0 0.504,-0.168 0.504,-0.476 0,-2.35199 -1.148,-5.292 -4.844,-5.292 -2.65999,0 -5.74,2.32401 -5.74,6.44 0,1.596 0.308,3.16401 1.26,4.284 0.952,1.176 2.54801,1.848 4.452,1.848 2.016,0 3.808,-1.036 4.872,-2.492 l -0.56,-0.7"
         id="path4328"
         style="font-size:28px" />
      <path
         d="m -279.66578,477.65363 c 0,-0.896 0.056,-1.932 0.056,-2.828 0,-2.91199 -0.952,-4.424 -3.472,-4.424 -1.064,0 -3.052,0.42001 -4.844,2.52 l -0.056,-0.084 0,-2.044 c -0.028,-0.196 -0.056,-0.28 -0.168,-0.28 -0.644,0.14 -1.652,0.168 -2.268,0.084 l -0.056,0.084 c 0.196,1.232 0.252,3.33201 0.252,5.432 l 0,1.54 c 0,2.1 -0.028,3.52801 -0.252,5.04 l 0.056,0.084 c 0.336,-0.056 0.98,-0.084 1.316,-0.084 0.336,0 0.98,0.028 1.316,0.084 l 0.056,-0.084 c -0.224,-1.59599 -0.252,-2.912 -0.252,-5.04 l 0,-3.276 c 1.428,-1.67999 3.052,-2.296 4.06,-2.296 1.428,0 2.016,0.56001 2.016,2.828 l 0,2.744 c 0,2.1 -0.056,3.55601 -0.252,5.04 l 0.056,0.084 c 0.336,-0.056 0.98,-0.084 1.316,-0.084 0.336,0 0.98,0.028 1.316,0.084 l 0.056,-0.084 c -0.224,-1.59599 -0.252,-2.912 -0.252,-5.04"
         id="path4330"
         style="font-size:28px" />
      <path
         d="m -264.85203,482.80563 c 0.28,-0.084 0.644,-0.084 0.924,-0.084 0.28,0 0.756,0 1.008,0.084 0.756,-2.18399 1.596,-4.508 2.52,-6.748 0.812,2.212 1.68,4.53601 2.492,6.72 0.28,-0.084 0.448,-0.084 0.728,-0.084 0.28,0 0.784,0 1.036,0.084 1.372,-3.30399 3.61201,-8.68 5.208,-12.18 -0.252,0.084 -0.924,0.084 -1.204,0.084 -0.28,0 -0.7,0 -0.952,-0.084 -1.036,3.304 -2.296,6.88801 -3.472,9.576 l -0.224,0 c -1.148,-3.07999 -2.016,-6.608 -2.66,-9.576 -0.364,0.084 -1.008,0.084 -1.4,0.084 -0.448,0 -1.036,0 -1.484,-0.084 0.364,1.12 0.756,2.29601 1.204,3.528 -0.756,2.156 -1.54,4.31201 -2.38,6.076 l -0.168,0 c -1.39999,-3.19199 -2.324,-6.356 -3.332,-9.576 -0.364,0.084 -1.008,0.084 -1.4,0.084 -0.448,0 -1.036,0 -1.484,-0.084 1.876,4.116 3.47201,8.09201 5.04,12.18"
         id="path4332"
         style="font-size:28px" />
      <path
         d="m -249.48178,476.95363 c 0,3.36 2.21201,6.02 5.936,6.02 3.696,0 5.936,-2.604 5.936,-6.272 0,-3.80799 -2.044,-6.3 -5.824,-6.3 -3.66799,0 -6.048,2.57601 -6.048,6.552 m 5.852,-5.432 c 2.968,0 3.556,2.29601 3.556,5.684 0,2.688 -1.344,4.648 -3.22,4.648 -2.96799,0 -3.724,-3.22 -3.724,-5.376 0,-2.43599 0.75601,-4.956 3.388,-4.956"
         id="path4334"
         style="font-size:28px" />
      <path
         d="m -231.86978,473.34163 0,-2.548 c 0,-0.196 -0.056,-0.28 -0.168,-0.28 -0.644,0.14 -1.652,0.168 -2.268,0.084 l -0.056,0.084 c 0.196,1.232 0.252,3.33201 0.252,5.432 l 0,1.54 c 0,2.1 -0.056,3.55601 -0.252,5.04 l 0.056,0.084 c 0.336,-0.056 0.98,-0.084 1.316,-0.084 0.336,0 0.98,0.028 1.316,0.084 l 0.056,-0.084 c -0.224,-1.59599 -0.252,-2.912 -0.252,-5.04 l 0,-1.456 c 0,-1.17599 0.336,-1.848 0.952,-2.772 0.392,-0.616 1.036,-0.98 1.568,-0.98 0.56,0 1.092,0.056 1.456,0.392 l 0.224,-0.056 0.56,-2.072 -0.112,-0.112 c -0.476,-0.14 -0.504,-0.196 -1.008,-0.196 -1.51199,0 -2.324,0.86801 -3.556,2.996 l -0.084,-0.056"
         id="path4336"
         style="font-size:28px" />
      <path
         d="m -224.07265,477.09363 c 0,2.1 -0.056,4.11601 -0.252,5.6 l 0.056,0.084 c 0.336,-0.056 0.98,-0.084 1.316,-0.084 0.336,0 0.98,0.028 1.316,0.084 l 0.056,-0.084 c -0.224,-1.59599 -0.252,-3.472 -0.252,-5.6 l 0,-8.4 c 0,-2.09999 0.112,-3.472 0.252,-5.264 0,-0.196 -0.084,-0.28 -0.252,-0.28 -0.728,0.28 -1.316,0.476 -2.436,0.56 l -0.056,0.084 c 0.196,1.204 0.252,3.27601 0.252,5.404 l 0,7.896"
         id="path4338"
         style="font-size:28px" />
      <path
         d="m -209.42996,479.52963 c -1.036,1.316 -2.324,1.988 -3.444,1.988 -1.512,0 -2.8,-1.512 -2.8,-5.012 0,-4.19999 2.212,-4.984 3.584,-4.984 1.31599,0 1.988,0.56001 2.66,1.624 l 0,6.384 m 0,1.54 0.056,0 0.14,1.624 c 0,0.056 0.084,0.084 0.252,0.084 0.364,-0.028 0.56,-0.084 0.952,-0.084 0.364,0 0.896,0.028 1.26,0.084 l 0.056,-0.084 c -0.224,-1.20399 -0.476,-3.276 -0.476,-5.376 l 0,-8.624 c 0,-2.07199 0.112,-3.528 0.252,-5.264 0,-0.196 -0.084,-0.28 -0.252,-0.28 -0.728,0.28 -1.316,0.476 -2.436,0.56 l -0.056,0.084 c 0.196,1.204 0.252,3.27601 0.252,5.404 l 0,1.82 c -0.644,-0.364 -1.792,-0.616 -2.352,-0.616 -3.668,0 -6.328,2.52001 -6.328,6.328 0,3.444 2.044,6.244 5.068,6.244 1.34399,0 2.604,-0.588 3.612,-1.904"
         id="path4340"
         style="font-size:28px" />
    </g>
    <g
       transform="matrix(0.99991267,-0.01321645,0.01321645,0.99991267,-8.5700331,-1.2474351)"
       id="g3821">
      <path
         d="m -261.16757,400.82319 c 0.1661,1.7237 0.0903,2.91935 0.0903,2.91935 -2.28805,1.53954 -2.6791,3.21064 -2.1328,2.99618 1.03917,-0.40794 4.87188,-1.2359 4.80025,-1.5638 -0.20689,-0.94706 -1.521,-1.5528 -2.66745,-1.43238"
         id="path3080"
         style="fill:none;stroke:#000000;stroke-width:1.5;stroke-linecap:butt;stroke-linejoin:miter;stroke-miterlimit:4;stroke-opacity:1;stroke-dasharray:none" />
      <path
         d="m -253.79914,375.38528 c 0.28518,-0.28518 -3.55782,-3.33179 -1.5186,-7.48247 l -16.5357,4.02206 c -3.10945,4.15145 0.89514,7.21415 1.35407,7.67308 1.48698,-0.31884 12.42582,-2.91376 16.70023,-4.21267 z"
         id="path3082"
         style="fill:url(#linearGradient3906);fill-opacity:1;stroke:#000000;stroke-width:1px;stroke-linecap:butt;stroke-linejoin:bevel;stroke-opacity:1" />
      <path
         d="m -269.85301,372.96913 c -1.20345,2.93047 0.89393,4.49252 1.328,4.73625"
         id="path3098"
         style="fill:none;stroke:#000000;stroke-width:1px;stroke-linecap:butt;stroke-linejoin:miter;stroke-opacity:1" />
      <path
         d="m -266.1206,372.08855 c -1.20345,2.93047 0.89393,4.49252 1.328,4.73625"
         id="path3037"
         style="fill:none;stroke:#000000;stroke-width:1px;stroke-linecap:butt;stroke-linejoin:miter;stroke-opacity:1" />
      <path
         d="m -262.28264,371.10242 c -1.20345,2.93047 0.89393,4.49252 1.328,4.73625"
         id="path3039"
         style="fill:none;stroke:#000000;stroke-width:1px;stroke-linecap:butt;stroke-linejoin:miter;stroke-opacity:1" />
      <path
         d="m -258.56906,370.23176 c -1.20345,2.93047 0.89393,4.49252 1.328,4.73625"
         id="path3041"
         style="fill:none;stroke:#000000;stroke-width:1px;stroke-linecap:butt;stroke-linejoin:miter;stroke-opacity:1" />
      <path
         d="M 452.77504,71.739463 451.1584,47.489843"
         transform="translate(-713.85297,330.44534)"
         id="path3819"
         style="fill:none;stroke:#000000;stroke-width:1px;stroke-linecap:butt;stroke-linejoin:miter;stroke-opacity:1" />
    </g>
    <path
       d="m -266.67717,395.538 c 1.44342,9.77501 6.06897,-4.55173 0,0 z"
       id="path3182-2"
       style="fill:#ffffff;fill-opacity:1;stroke:#000000;stroke-width:1px;stroke-linecap:butt;stroke-linejoin:miter;stroke-opacity:1" />
    <path
       d="m -173.44239,387.53931 c 1.44342,9.77501 6.06897,-4.55173 0,0 z"
       id="path3870"
       style="fill:#ffffff;fill-opacity:1;stroke:#000000;stroke-width:1px;stroke-linecap:butt;stroke-linejoin:miter;stroke-opacity:1" />
  </g>
</svg>
