<?xml version="1.0" encoding="UTF-8" standalone="no"?>
<svg
   xmlns:dc="http://purl.org/dc/elements/1.1/"
   xmlns:cc="http://creativecommons.org/ns#"
   xmlns:rdf="http://www.w3.org/1999/02/22-rdf-syntax-ns#"
   xmlns:svg="http://www.w3.org/2000/svg"
   xmlns="http://www.w3.org/2000/svg"
   xmlns:xlink="http://www.w3.org/1999/xlink"
   version="1.2"
   width="559.69006"
   height="166.08203"
   id="svg2">
  <defs
     id="defs4">
    <linearGradient
       id="linearGradient4162">
      <stop
         id="stop4164"
         style="stop-color:#ffffff;stop-opacity:1"
         offset="0" />
    </linearGradient>
    <linearGradient
       id="linearGradient4134">
      <stop
         id="stop4136"
         style="stop-color:#ffffff;stop-opacity:1"
         offset="0" />
    </linearGradient>
    <linearGradient
       id="linearGradient4128">
      <stop
         id="stop4130"
         style="stop-color:#ffffff;stop-opacity:1"
         offset="0" />
    </linearGradient>
    <linearGradient
       id="linearGradient4122">
      <stop
         id="stop4124"
         style="stop-color:#ffffff;stop-opacity:1"
         offset="0" />
    </linearGradient>
    <linearGradient
       id="linearGradient4096">
      <stop
         id="stop4098"
         style="stop-color:#ffffff;stop-opacity:1"
         offset="0" />
    </linearGradient>
    <radialGradient
       cx="-480.72501"
       cy="443.14178"
       r="10.70114"
       fx="-480.72501"
       fy="443.14178"
       id="radialGradient4102"
       xlink:href="#linearGradient4096"
       gradientUnits="userSpaceOnUse"
       gradientTransform="matrix(1.0642288,0.25691514,-0.11258761,0.46637568,93.602761,360.43512)" />
    <linearGradient
       x1="-586.63373"
       y1="457.53033"
       x2="-578.33331"
       y2="456.95758"
       id="linearGradient4126"
       xlink:href="#linearGradient4122"
       gradientUnits="userSpaceOnUse"
       gradientTransform="translate(2.2687707,-12.154128)" />
    <linearGradient
       x1="-630.48102"
       y1="457.80765"
       x2="-604.69257"
       y2="457.80765"
       id="linearGradient4132"
       xlink:href="#linearGradient4128"
       gradientUnits="userSpaceOnUse"
       gradientTransform="translate(-18.150165,-57.853652)" />
    <linearGradient
       x1="-706.3656"
       y1="390.72418"
       x2="-524.8396"
       y2="390.72418"
       id="linearGradient4138"
       xlink:href="#linearGradient4134"
       gradientUnits="userSpaceOnUse" />
    <linearGradient
       x1="-566.92944"
       y1="414.81769"
       x2="-544.88379"
       y2="414.81769"
       id="linearGradient4166"
       xlink:href="#linearGradient4162"
       gradientUnits="userSpaceOnUse" />
  </defs>
  <metadata
     id="metadata7">
    <rdf:RDF>
      <cc:Work
         rdf:about="">
        <dc:format>image/svg+xml</dc:format>
        <dc:type
           rdf:resource="http://purl.org/dc/dcmitype/StillImage" />
        <dc:title></dc:title>
      </cc:Work>
    </rdf:RDF>
  </metadata>
  <g
     transform="translate(713.85297,-330.44534)"
     id="layer1">
    <path
       d="m -645.375,443.23123 c 21.55369,0.78108 43.12367,0.63107 64.69428,0.12469 12.05963,-0.26283 23.79605,0.57162 35.82356,-0.36252 5.71258,-0.49506 11.80135,0.98906 17.36026,-0.48402 0.89181,-0.29551 2.10371,-0.45068 2.40315,-1.50938 0.0811,-1.63841 -1.04628,-2.98691 -1.54156,-4.48309 -5.79968,-13.42486 -12.11989,-26.62568 -18.93359,-39.5651 -1.57409,-2.93939 -3.50562,-5.99274 -6.645,-7.43759 -3.43697,-1.6375 -7.30296,-1.92253 -11.03469,-2.33227 -5.24133,-0.5556 -10.63316,-0.60816 -15.6514,-2.38507 -3.98485,-1.67019 -6.68301,-5.23808 -10.20653,-7.60795 -8.64667,-6.48538 -18.56586,-10.93407 -28.38,-15.32481 -4.90211,-2.1677 -9.85503,-4.22799 -14.87391,-6.10958 -5.4508,-1.94695 -10.99956,-3.94049 -16.82238,-4.31704 -2.57481,-0.58292 -3.62016,-2.64254 -6.23973,-3.68539 -2.81423,-0.98877 -5.86344,-1.68619 -8.16372,-3.70211 -4.30493,-3.09104 -8.76576,-6.10874 -13.814,-7.84628 -2.72056,-1.01881 -5.65318,-1.63918 -8.56849,-1.48497 -3.6688,0.35291 -7.60972,1.03482 -10.375,3.6875 -2.74793,3.04106 -4.29872,6.9182 -5.45529,10.79593 -1.57117,5.39117 -2.54107,12.4596 -3.9729,17.88932"
       id="path4114"
       style="fill:url(#linearGradient4138);fill-opacity:1;stroke:#000000;stroke-width:0.5;stroke-linecap:butt;stroke-linejoin:miter;stroke-miterlimit:4;stroke-opacity:1;stroke-dasharray:none" />
    <g
       transform="translate(311.42857,100)"
       id="flowRoot2985"
       style="font-size:12px;font-style:normal;font-variant:normal;font-weight:bold;font-stretch:normal;line-height:125%;letter-spacing:0px;word-spacing:0px;fill:#000000;fill-opacity:1;stroke:none;font-family:Linux Biolinum Shadow O;-inkscape-font-specification:Linux Biolinum Shadow O Bold">
      <path
         d="m -947.50275,342.7737 c -4.392,0 -10.44,-4.75201 -12.96,-8.568 l -1.872,0.072 c -0.288,2.59199 -0.864,6.624 -1.44,8.784 l 0.144,0.216 c 0,0 6.69601,3.24 15.48,3.24 10.58399,0 17.208,-6.76801 17.208,-14.112 0,-7.84799 -8.49601,-11.88001 -14.256,-14.616 -3.888,-1.8 -7.344,-3.52801 -7.344,-8.856 0,-3.6 2.592,-6.984 6.552,-6.984 4.32,0 8.568,5.112 10.44,8.64 l 2.16,-0.072 c 0.288,-2.592 0.792,-6.48 1.44,-8.64 l -0.144,-0.216 c 0,0 -5.90401,-3.24 -14.688,-3.24 -8.13599,0 -15.552,4.82401 -15.552,12.456 0,2.80799 0.504,5.544 2.232,7.776 3.312,4.39199 8.856,7.056 13.032,9.144 3.384,1.728 6.264,4.608 6.264,7.56 0,5.11199 -2.376,7.416 -6.696,7.416"
         id="path3153"
         style="font-size:72px;font-family:Linux Biolinum O;-inkscape-font-specification:Linux Biolinum O Bold" />
      <path
         d="m -889.761,332.8377 0,-7.992 c 0,-7.56 -3.52801,-10.656 -10.008,-10.656 -3.672,0 -7.992,2.232 -11.304,6.48 l -0.36,-0.216 c 0,-1.584 0,-4.608 -0.072,-5.256 -0.144,-0.432 -0.216,-0.72 -0.648,-0.72 -2.088,0.36 -6.84,0.36 -9.36,0.216 l -0.144,0.216 c 0.504,3.09599 0.792,8.64 0.792,13.968 l 0,3.96 c 0,5.39999 -0.216,9.144 -0.792,12.96 l 0.144,0.216 c 0,0 3.384,-0.216 5.904,-0.216 2.448,0 4.464,0.216 4.464,0.216 l 0.216,-0.216 c -0.36,-4.104 -0.432,-7.48801 -0.432,-12.96 l 0,-7.344 c 2.736,-3.6 5.76,-5.76 8.352,-5.76 1.944,0 3.744,1.44 3.744,6.696 l 0,6.408 c 0,5.39999 0,9.144 -0.432,12.96 l 0.144,0.216 c 0,0 2.304,-0.216 4.824,-0.216 2.448,0 5.616,0.216 5.616,0.216 l 0.144,-0.216 c -0.648,-4.104 -0.792,-7.48801 -0.792,-12.96"
         id="path3155"
         style="font-size:72px;font-family:Linux Biolinum O;-inkscape-font-specification:Linux Biolinum O Bold" />
      <path
         d="m -880.50112,331.0377 c 0,9.57599 6.69601,15.48 17.42399,15.48 11.01599,0 17.424,-6.12001 17.424,-16.128 0,-9.07199 -5.11201,-16.2 -17.28,-16.2 -10.29598,0 -17.56799,5.68801 -17.56799,16.848 m 17.06399,-13.248 c 6.12,0 7.56001,4.53601 7.56001,14.544 0,8.27999 -2.95201,10.584 -6.192,10.584 -7.488,0 -8.208,-7.99201 -8.208,-13.536 0,-6.264 0.648,-11.592 6.83999,-11.592"
         id="path3157"
         style="font-size:72px;font-family:Linux Biolinum O;-inkscape-font-specification:Linux Biolinum O Bold" />
      <path
         d="m -829.623,346.0857 c 0.648,-0.216 3.672,-0.216 4.32,-0.216 0.648,0 3.888,0 4.464,0.216 1.8,-5.544 4.032,-11.37601 6.336,-16.776 2.232,5.54399 4.392,11.088 6.336,16.704 0.648,-0.216 3.816,-0.216 4.464,-0.216 0.648,0 2.808,0 3.384,0.216 3.744,-10.22399 8.28,-21.02401 12.6,-31.32 -0.576,0.216 -3.096,0.216 -3.744,0.216 -0.648,0 -2.376,0 -2.952,-0.216 -2.448,7.55999 -4.896,16.344 -7.704,23.184 l -0.504,0 c -2.88,-7.70399 -4.68,-15.48001 -6.912,-23.184 -0.864,0.216 -4.032,0.216 -4.968,0.216 -1.008,0 -4.968,0 -5.976,-0.216 1.152,2.95199 2.376,5.832 3.528,8.784 -1.872,5.61599 -3.888,11.304 -5.832,15.912 l -0.72,0 c -3.24,-8.27999 -5.256,-16.34401 -7.632,-24.624 -0.864,0.216 -3.672,0.216 -4.608,0.216 -1.008,0 -5.328,0 -6.336,-0.216 4.32,10.58399 8.856,20.80801 12.456,31.32"
         id="path3159"
         style="font-size:72px;font-family:Linux Biolinum O;-inkscape-font-specification:Linux Biolinum O Bold" />
      <path
         d="m -759.56587,336.2217 c -1.8,4.60799 -4.10401,6.12 -6.98401,6.12 -3.88799,0 -6.47999,-3.45601 -6.47999,-12.456 0,-9.71999 3.096,-12.096 6.62399,-12.096 3.384,0 6.04801,2.52 6.84001,6.192 l 0,12.24 m 0,5.688 0.144,0 0.36,3.888 c 0,0.144 0.216,0.216 0.648,0.216 0.93599,-0.072 3.528,-0.216 4.53599,-0.216 0.936,0 4.10401,0.072 5.04,0.216 l 0.144,-0.216 c -0.57599,-3.096 -1.36799,-8.42401 -1.36799,-13.824 l 0,-22.176 c 0,-5.328 0.288,-9.07201 0.864,-13.536 0,-0.504 -0.36001,-0.72 -0.792,-0.72 -1.872,0.72 -7.41601,2.16 -10.29601,2.376 l -0.144,0.216 c 0.504,3.09599 0.86401,8.064 0.86401,13.536 l 0,5.76 c -1.368,-1.944 -4.75201,-3.24 -6.76801,-3.24 -4.82399,0 -7.488,1.008 -10.72799,3.384 -4.464,3.23999 -6.192,8.496 -6.192,13.608 0,8.85599 5.4,15.336 13.39199,15.336 4.536,0 8.35201,-1.22401 10.29601,-4.608"
         id="path3161"
         style="font-size:72px;font-family:Linux Biolinum O;-inkscape-font-specification:Linux Biolinum O Bold" />
      <path
         d="m -728.59687,320.6697 -0.36,-0.216 c 0,-1.584 -10e-6,-4.608 -0.072,-5.256 -0.144,-0.432 -0.21601,-0.72 -0.648,-0.72 -2.088,0.36 -6.84001,0.36 -9.36,0.216 l -0.14401,0.216 c 0.504,3.09599 0.79201,8.64 0.79201,13.968 l 0,3.96 c 0,5.39999 -0.14401,9.072 -0.72,12.96 l 0.072,0.216 c 0,0 2.304,-0.216 4.82399,-0.216 2.448,0 5.90401,0.216 5.90401,0.216 l 0.14399,-0.216 c -0.57599,-4.104 -0.71999,-7.48801 -0.71999,-12.96 l 0,-5.256 c 0,-5.544 4.896,-6.408 6.048,-6.408 1.36799,0 2.88,0.36 4.17599,1.368 l 1.29601,-0.144 1.43999,-7.416 -0.288,-0.288 c -1.22399,-0.36 -2.376,-0.504 -3.67199,-0.504 -3.384,0 -6.84001,3.672 -8.712,6.48"
         id="path3163"
         style="font-size:72px;font-family:Linux Biolinum O;-inkscape-font-specification:Linux Biolinum O Bold" />
      <path
         d="m -708.58987,302.0937 c 0,2.87999 2.376,5.112 5.39999,5.112 3.024,0 5.4,-2.23201 5.4,-5.112 0,-2.88 -2.376,-5.112 -5.4,-5.112 -3.02399,0 -5.39999,2.232 -5.39999,5.112 m 0.648,26.784 0,3.96 c 0,5.39999 -0.14401,9.072 -0.72,12.96 l 0.144,0.216 c 2.15999,-0.144 2.808,-0.216 5.32799,-0.216 2.448,0 3.16801,0.072 5.328,0.216 l 0.144,-0.216 c -0.57599,-4.104 -0.71999,-7.48801 -0.71999,-12.96 l 0,-4.752 c 0,-5.4 0.36,-8.42401 0.71999,-12.816 0,-0.504 -0.216,-0.72 -0.64799,-0.72 -1.008,0.144 -2.95201,0.36 -4.96801,0.36 -1.87199,0 -3.816,-0.144 -5.11199,-0.216 l -0.216,0.288 c 0.57599,3.09599 0.72,8.496 0.72,13.896"
         id="path3165"
         style="font-size:72px;font-family:Linux Biolinum O;-inkscape-font-specification:Linux Biolinum O Bold" />
      <path
         d="m -680.0385,300.5097 c -3.168,3.31199 -5.328,7.848 -5.328,12.24 l 0,2.16 -3.456,0 c -1.296,0 -1.656,0.864 -1.656,1.44 l 0,1.728 c 0,0.36 0.072,0.432 0.36,0.432 l 4.752,0 0,12.888 c 0,5.39999 0,10.728 -0.504,14.4 l 0.072,0.216 c 0,0 2.88,-0.216 5.4,-0.216 2.448,0 4.968,0.216 4.968,0.216 l 0.144,-0.216 c -0.504,-4.176 -0.576,-9.00001 -0.576,-14.4 l 0,-12.888 9.72,0 0.576,0 4.176,0 -0.216,8.496 c -0.144,4.31999 -0.216,10.296 -0.216,12.456 0,3.38399 2.376,7.056 6.984,7.056 3.744,0 7.488,-0.648 10.584,-2.52 0,-1.152 -0.432,-2.448 -1.224,-2.952 -1.584,0.792 -2.304,0.864 -4.176,0.864 -1.944,0 -2.664,-2.59201 -2.664,-5.544 0,-2.16 -0.072,-5.83201 0.072,-10.152 l 0.144,-7.704 6.552,0 c 0.72,0 1.728,-0.288 1.728,-0.936 l 0,-2.232 c 0,-0.288 -0.216,-0.432 -0.576,-0.432 l -7.704,0 c 0,-5.4 0.072,-5.83201 0.36,-10.008 0,-0.504 -0.216,-0.72 -0.648,-0.72 -1.8,0.72 -6.48,2.592 -9.36,3.24 l -0.144,0.216 c 0.504,3.02399 0.504,3.096 0.504,7.272 l -3.096,0 -1.08,0 -10.296,0 0,-0.72 c 0,-1.8 -0.36,-5.328 -0.36,-6.912 0,-3.96 2.52,-6.768 6.408,-6.768 2.088,0 3.096,1.8 3.888,3.24 l 2.16,-0.072 c 0.504,-1.944 0.864,-5.904 1.656,-7.272 l -0.072,-0.216 c -0.576,-0.36 -2.592,-0.648 -3.96,-0.648 -5.75999,0 -10.872,1.872 -13.896,4.968"
         id="path3167"
         style="font-size:72px;font-family:Linux Biolinum O;-inkscape-font-specification:Linux Biolinum O Bold" />
      <path
         d="m -638.53387,342.3417 c 0.79199,3.02399 2.016,4.248 4.968,4.896 l 0.288,0 c 2.59199,-0.648 3.96,-1.94401 4.96799,-4.896 l 0,-0.36 c -0.93599,-2.592 -2.304,-3.96 -4.96799,-4.896 l -0.288,0 c -2.736,1.08 -4.03201,2.52 -4.968,4.896 l 0,0.36"
         id="path3169"
         style="font-size:72px;font-family:Linux Biolinum O;-inkscape-font-specification:Linux Biolinum O Bold" />
      <path
         d="m -603.53512,317.7897 c 2.73599,0 4.896,2.088 6.48,6.048 l 2.01599,-0.072 1.72801,-6.984 -0.144,-0.216 c -2.232,-1.152 -7.12801,-2.376 -10.72801,-2.376 -9.64799,0 -17.49599,5.76001 -17.49599,17.064 0,4.53599 1.44,8.064 3.888,10.656 2.51999,2.80799 7.128,4.608 12.6,4.608 5.47199,0 8.64,-1.15201 11.88,-3.888 -0.216,-0.648 -0.36,-1.656 -0.36,-2.808 l -1.152,-0.36 c -2.016,2.44799 -5.54401,3.456 -8.424,3.456 -2.088,0 -4.96801,-1.8 -6.264,-3.888 -1.296,-2.088 -2.16,-5.47201 -2.16,-9.648 0,-3.384 0.504,-6.12 1.728,-8.136 1.36799,-2.232 3.816,-3.456 6.408,-3.456"
         id="path3171"
         style="font-size:72px;font-family:Linux Biolinum O;-inkscape-font-specification:Linux Biolinum O Bold" />
      <path
         d="m -588.00112,331.0377 c 0,9.57599 6.69601,15.48 17.42399,15.48 11.01599,0 17.424,-6.12001 17.424,-16.128 0,-9.07199 -5.11201,-16.2 -17.28,-16.2 -10.29598,0 -17.56799,5.68801 -17.56799,16.848 m 17.06399,-13.248 c 6.12,0 7.56001,4.53601 7.56001,14.544 0,8.27999 -2.95201,10.584 -6.192,10.584 -7.488,0 -8.208,-7.99201 -8.208,-13.536 0,-6.264 0.648,-11.592 6.83999,-11.592"
         id="path3173"
         style="font-size:72px;font-family:Linux Biolinum O;-inkscape-font-specification:Linux Biolinum O Bold" />
      <path
         d="m -546.51675,331.0377 c 0,9.57599 6.69601,15.48 17.424,15.48 11.01599,0 17.424,-6.12001 17.424,-16.128 0,-9.07199 -5.11201,-16.2 -17.28,-16.2 -10.29599,0 -17.568,5.68801 -17.568,16.848 m 17.064,-13.248 c 6.11999,0 7.56,4.53601 7.56,14.544 0,8.27999 -2.952,10.584 -6.192,10.584 -7.48799,0 -8.208,-7.99201 -8.208,-13.536 0,-6.264 0.64801,-11.592 6.84,-11.592"
         id="path3175"
         style="font-size:72px;font-family:Linux Biolinum O;-inkscape-font-specification:Linux Biolinum O Bold" />
      <path
         d="m -493.4235,325.4937 c 1.584,-3.816 5.256,-6.624 7.704,-6.624 4.392,0 5.904,5.04001 5.904,12.672 0,6.91199 -3.168,11.376 -7.2,11.376 -1.8,0 -3.744,-0.36 -6.408,-2.592 l 0,-14.832 m 0.288,-5.472 -0.36,-0.216 c 0,-1.584 0,-3.96 -0.072,-4.608 -0.144,-0.432 -0.216,-0.72 -0.648,-0.72 -2.088,0.36 -6.84,0.36 -9.36,0.216 l -0.144,0.216 c 0.504,3.09599 0.792,8.64 0.792,13.968 l 0,19.224 c 0,5.39999 -0.144,10.584 -0.72,14.4 l 0.072,0.216 c 0,0 2.808,-0.216 5.328,-0.216 2.448,0 5.4,0.216 5.4,0.216 l 0.144,-0.216 c -0.648,-4.104 -0.72,-9.00001 -0.72,-14.4 l 0,-3.6 c 2.376,1.512 5.04,2.016 7.704,2.016 9.07199,0 16.128,-7.48801 16.128,-17.64 0,-5.688 -2.16,-9.43201 -5.472,-12.096 -2.16,-1.656 -4.392,-2.592 -7.992,-2.592 -3.096,0 -6.552,1.008 -10.08,5.832"
         id="path3177"
         style="font-size:72px;font-family:Linux Biolinum O;-inkscape-font-specification:Linux Biolinum O Bold" />
    </g>
    <path
       d="m -241.3667,378.22379 c -3.67593,-2.62927 -7.41523,2.55535 -8.23797,5.8463 -2.66405,10.65618 19.8635,10.16265 16.21021,-0.79722 -0.70602,-2.11805 -3.26537,-3.7395 -5.31483,-4.25186 -3.17142,-0.79286 -4.54813,-0.62557 -7.44075,0.53148"
       id="path3049"
       style="fill:none;stroke:#000000;stroke-width:1px;stroke-linecap:butt;stroke-linejoin:miter;stroke-opacity:1" />
    <path
       d="m -243.22688,392.30806 c -0.92509,10.83656 -5.84631,26.67072 -5.84631,34.2806"
       id="path3051"
       style="fill:none;stroke:#000000;stroke-width:1px;stroke-linecap:butt;stroke-linejoin:miter;stroke-opacity:1" />
    <path
       d="m -246.15004,403.73493 c -2.48646,-3.77678 -21.02423,-10.59895 -16.47594,-15.14724"
       id="path3053"
       style="fill:none;stroke:#000000;stroke-width:1px;stroke-linecap:butt;stroke-linejoin:miter;stroke-opacity:1" />
    <path
       d="m -244.28985,404.00067 c 7.46255,-3.31979 20.28972,-8.06563 23.11947,-10.89538"
       id="path3055"
       style="fill:none;stroke:#000000;stroke-width:1px;stroke-linecap:butt;stroke-linejoin:miter;stroke-opacity:1" />
    <path
       d="m -262.14626,377.89681 c 0.78692,8.86032 -0.50548,19.64327 1.05317,25.87784 -6.4642,5.28127 6.9979,0.60181 2.55769,0.60181 -0.96939,0 -1.42732,-0.82789 -2.55769,-0.60181"
       id="path3080"
       style="fill:none;stroke:#000000;stroke-width:1px;stroke-linecap:butt;stroke-linejoin:miter;stroke-opacity:1" />
    <path
       d="m -268.61572,379.10043 c 2.2029,-0.60213 4.47272,-1.41908 6.61991,-1.95588 2.35015,-0.58754 6.84965,-1.28291 7.82353,-2.25679 0.28518,-0.28518 -1.73687,-8.72625 -0.15045,-8.72625 0.143,0 -2.26439,0.7548 -4.51358,1.50453 -2.32134,0.77378 -4.63704,1.19462 -6.92081,1.95588 -0.62982,0.20994 -6.46946,1.79589 -6.46946,1.80543 0,0.91762 0.89514,7.21415 1.35407,7.67308 1.19761,0.56644 1.56554,-0.58023 2.25679,0 z"
       id="path3082"
       style="fill:none;stroke:#000000;stroke-width:1px;stroke-linecap:butt;stroke-linejoin:miter;stroke-opacity:1" />
    <path
       d="m -270.2707,372.48052 c 0.16471,1.56231 1.01831,3.62188 1.20362,4.36312"
       id="path3098"
       style="fill:none;stroke:#000000;stroke-width:1px;stroke-linecap:butt;stroke-linejoin:miter;stroke-opacity:1" />
    <path
       d="m -267.1112,372.02916 c 0.1724,-0.0254 0.23471,2.97094 1.05317,4.06222"
       id="path3104"
       style="fill:none;stroke:#000000;stroke-width:1px;stroke-linecap:butt;stroke-linejoin:miter;stroke-opacity:1" />
    <path
       d="m -263.65079,370.976 c -0.77275,0.29275 0.60181,3.27821 0.60181,4.36312"
       id="path3106"
       style="fill:none;stroke:#000000;stroke-width:1px;stroke-linecap:butt;stroke-linejoin:miter;stroke-opacity:1" />
    <path
       d="m -260.34083,370.52464 c -0.53656,1.41338 0.146,3.29213 0.3009,3.91176"
       id="path3108"
       style="fill:none;stroke:#000000;stroke-width:1px;stroke-linecap:butt;stroke-linejoin:miter;stroke-opacity:1" />
    <path
       d="m -257.48223,369.77238 c -0.74932,1.33909 0,3.53507 0,4.36312"
       id="path3110"
       style="fill:none;stroke:#000000;stroke-width:1px;stroke-linecap:butt;stroke-linejoin:miter;stroke-opacity:1" />
    <path
       d="m -195.24398,377.17642 c 3.67593,-2.62927 9.37566,2.97544 10.1984,6.26639 2.66405,10.65618 -19.8635,10.16265 -16.21021,-0.79722 0.70602,-2.11805 3.26537,-3.7395 5.31483,-4.25186 3.17142,-0.79286 2.76583,-1.81377 5.65845,-0.65672"
       id="path3049-6"
       style="fill:none;stroke:#000000;stroke-width:1px;stroke-linecap:butt;stroke-linejoin:miter;stroke-opacity:1" />
    <path
       d="m -191.42337,391.68078 c 0.92509,10.83656 5.84631,26.67072 5.84631,34.2806"
       id="path3051-2"
       style="fill:none;stroke:#000000;stroke-width:1px;stroke-linecap:butt;stroke-linejoin:miter;stroke-opacity:1" />
    <path
       d="m -188.50021,403.10765 c 2.48646,-3.77678 21.02423,-10.59895 16.47594,-15.14724"
       id="path3053-8"
       style="fill:none;stroke:#000000;stroke-width:1px;stroke-linecap:butt;stroke-linejoin:miter;stroke-opacity:1" />
    <path
       d="m -190.3604,403.37339 c -7.46255,-3.31979 -20.28972,-8.06563 -23.11947,-10.89538"
       id="path3055-4"
       style="fill:none;stroke:#000000;stroke-width:1px;stroke-linecap:butt;stroke-linejoin:miter;stroke-opacity:1" />
    <path
       d="m -172.50399,377.26953 c -0.78692,8.86032 0.50548,19.64327 -1.05317,25.87784 6.4642,5.28127 -6.9979,0.60181 -2.55769,0.60181 0.96939,0 1.42732,-0.82789 2.55769,-0.60181"
       id="path3080-5"
       style="fill:none;stroke:#000000;stroke-width:1px;stroke-linecap:butt;stroke-linejoin:miter;stroke-opacity:1" />
    <path
       d="m -166.03453,378.47315 c -2.2029,-0.60213 -4.47272,-1.41908 -6.61991,-1.95588 -2.35015,-0.58754 -6.84965,-1.28291 -7.82353,-2.25679 -0.28518,-0.28518 1.73687,-8.72625 0.15045,-8.72625 -0.143,0 2.26439,0.7548 4.51358,1.50453 2.32134,0.77378 4.63704,1.19462 6.92081,1.95588 0.62982,0.20994 6.46946,1.79589 6.46946,1.80543 0,0.91762 -0.89514,7.21415 -1.35407,7.67308 -1.19761,0.56644 -1.56554,-0.58023 -2.25679,0 z"
       id="path3082-0"
       style="fill:none;stroke:#000000;stroke-width:1px;stroke-linecap:butt;stroke-linejoin:miter;stroke-opacity:1" />
    <path
       d="m -164.37955,371.85324 c -0.16471,1.56231 -1.01831,3.62188 -1.20362,4.36312"
       id="path3098-4"
       style="fill:none;stroke:#000000;stroke-width:1px;stroke-linecap:butt;stroke-linejoin:miter;stroke-opacity:1" />
    <path
       d="m -167.53905,371.40188 c -0.1724,-0.0254 -0.23471,2.97094 -1.05317,4.06222"
       id="path3104-8"
       style="fill:none;stroke:#000000;stroke-width:1px;stroke-linecap:butt;stroke-linejoin:miter;stroke-opacity:1" />
    <path
       d="m -170.99946,370.34872 c 0.77275,0.29275 -0.60181,3.27821 -0.60181,4.36312"
       id="path3106-9"
       style="fill:none;stroke:#000000;stroke-width:1px;stroke-linecap:butt;stroke-linejoin:miter;stroke-opacity:1" />
    <path
       d="m -174.30942,369.89736 c 0.53656,1.41338 -0.146,3.29213 -0.3009,3.91176"
       id="path3108-5"
       style="fill:none;stroke:#000000;stroke-width:1px;stroke-linecap:butt;stroke-linejoin:miter;stroke-opacity:1" />
    <path
       d="m -177.16802,369.1451 c 0.74932,1.33909 0,3.53507 0,4.36312"
       id="path3110-6"
       style="fill:none;stroke:#000000;stroke-width:1px;stroke-linecap:butt;stroke-linejoin:miter;stroke-opacity:1" />
    <path
       d="m -221.28423,385.75569 c -4.05568,20.2733 6.06897,-4.55173 0,0 z"
       id="path3182"
       style="fill:none;stroke:#000000;stroke-width:1px;stroke-linecap:butt;stroke-linejoin:miter;stroke-opacity:1" />
    <path
       d="m -216.88876,385.1092 c -0.21482,0.70987 0.20178,1.29565 0.30423,1.86577 0.97891,5.44735 2.04218,6.26931 2.87693,5.43592 0.20585,-3.33271 -0.79513,-7.39615 -3.18116,-7.30169 z"
       id="path3184"
       style="fill:none;stroke:#000000;stroke-width:1px;stroke-linecap:butt;stroke-linejoin:miter;stroke-opacity:1" />
    <path
       d="m -553.06347,410.23082 c -11.07164,-4.85035 -23.4779,19.80544 -0.60181,4.98594 1.70457,-1.10425 4.76518,1.33278 7.82353,-0.77327 4.33593,-2.98581 -5.14048,-4.7378 -7.22172,-4.21267 z"
       id="path3186"
       style="fill:url(#linearGradient4166);fill-opacity:1;stroke:#000000;stroke-width:1px;stroke-linecap:butt;stroke-linejoin:miter;stroke-opacity:1" />
    <path
       d="m -573.93079,445.80289 c -0.28816,-0.007 -2.07107,-4.47432 -5.78899,-2.86545 -11.73959,5.86979 5.09028,6.47357 5.78899,2.86545 z"
       id="path3190"
       style="fill:url(#linearGradient4126);fill-opacity:1;stroke:#000000;stroke-width:1px;stroke-linecap:butt;stroke-linejoin:miter;stroke-opacity:1" />
    <path
       d="m -640.41145,396.1568 c -5.21534,0 -10.88095,7.70898 -5.93259,7.70898 1.2304,0 9.83119,-2.60946 10.83258,-3.61086 2.82381,-2.8238 9.74085,2.29536 12.03621,0 1.63376,-1.63376 -7.33251,-5.70186 -17.1056,-4.09811"
       id="path3198"
       style="fill:url(#linearGradient4132);fill-opacity:1;stroke:#000000;stroke-width:1px;stroke-linecap:butt;stroke-linejoin:miter;stroke-opacity:1" />
    <path
       d="m -706.375,367.3125 c -1.4871,0.96644 -1.46672,2.97705 -1.6094,4.5628 -1.0032,10.62273 -1.2943,21.29871 -1.3808,31.96359 -0.1034,13.44934 -0.0906,26.89918 -0.01,40.34861 -0.36004,1.19656 0.57328,2.72899 1.90625,2.625 5.27034,0.88272 10.63738,0.55176 15.95462,0.78861 12.54946,0.18909 25.11354,0.12217 37.64338,-0.6502 2.5362,-0.20958 5.05812,-0.57198 7.55825,-1.04466 0.93876,-0.69131 0.27038,-2.02707 -0.4375,-2.625 -1.52749,-3.03085 -0.70517,-6.5959 -1.90625,-9.71875 -1.81878,-6.56433 -4.87912,-12.69131 -7.12354,-19.10377 -1.20971,-4.28249 -0.8906,-8.78055 -1.4387,-13.15908 -0.26039,-3.11111 -1.21246,-6.14911 -2.80779,-8.83445 -0.85785,-1.47044 -1.71953,-3.0491 -3.09872,-4.0902 -2.40409,-1.64116 -5.44525,-1.66416 -8.06153,-2.81423 -2.30436,-0.85085 -4.74286,-2.01178 -6.03534,-4.20014 -0.41622,-0.96205 -0.75138,-2.15838 -1.77813,-2.64188 -1.31111,-1.28384 -1.43624,-3.50732 -3.1875,-4.375 -1.87773,-1.62831 -4.21893,-2.6386 -6.64292,-3.11803 -5.60535,-1.69622 -11.21032,-3.88541 -17.14576,-3.9386 -0.13583,-0.002 -0.26624,-0.0207 -0.39882,0.0254 z"
       id="path3244"
       style="opacity:0.60606061;fill:none;stroke:#000000;stroke-width:0.80000001;stroke-linecap:butt;stroke-linejoin:miter;stroke-miterlimit:4;stroke-opacity:1;stroke-dasharray:none" />
    <path
       d="m -704.25752,446.77887 c -4.46026,-0.49497 -4.3578,-0.41231 -4.33935,-3.501 l 0.016,-2.673 4.78794,-1.2679 c 8.47145,-2.24334 8.95648,-4.16226 9.64,-3.73983 0.31259,0.19319 1.25997,1.75684 2.10531,3.47478 2.0088,4.08242 2.67024,4.33971 7.16328,2.78646 5.59094,-1.93279 11.04862,-2.52586 20.75741,-2.25562 4.68098,0.13029 10.36632,-1.24693 11.09398,-1.10035 1.32173,0.26624 1.32261,0.26832 0.91905,2.16048 -0.22217,1.0417 -0.30202,2.15961 -0.17744,2.48425 0.12457,0.32464 1.29083,0.92575 2.59168,1.33581 1.30085,0.41006 2.36518,0.87655 2.36518,1.03666 0,0.16011 -1.67558,0.53758 -3.72351,0.83883 -4.33066,0.63704 -48.12866,0.98317 -53.19951,0.42043 l 0,0 z"
       id="path3276"
       style="fill:#e2e3db;fill-opacity:1;stroke-width:4;stroke-miterlimit:4;stroke-dasharray:none" />
    <path
       d="m -670.62191,391.89506 c -2.70555,-1.24576 -4.55335,-2.08338 -6.2054,-2.77412 -2.76819,-1.15741 -3.94983,-4.3401 -0.35441,-4.00044 1.42772,1.19443 1.98347,2.37847 3.57549,2.69599 6.11158,1.21893 7.34021,1.75089 9.91626,4.29342 1.40989,1.39156 2.43286,2.76205 2.27326,3.04554 -0.52276,0.92851 -4.72413,-1.61682 -9.2052,-3.26035 z"
       id="path3278"
       style="fill:#e2e3db;fill-opacity:1;stroke-width:4;stroke-miterlimit:4;stroke-dasharray:none" />
    <path
       d="m -682.86233,380.39344 c -3.13177,-0.11723 -2.91155,-0.74626 -6.42436,-2.38165 -1.98644,-0.92477 -4.28385,-1.03 -7.91471,-1.76867 -3.37056,-0.6857 -5.39439,-3.63277 -6.52178,-4.71362 -2.42988,-2.32953 -1.9386,-3.24218 0.95627,-1.77641 1.14663,0.58058 3.5374,1.31484 5.01658,1.63167 5.06007,1.08387 7.57741,2.23921 11.01495,3.37805 1.55324,0.51457 2.94757,0.28044 3.72222,2.26306 0.4831,1.23642 3.54933,3.49484 0.15083,3.36757 z"
       id="path3280"
       style="fill:#e2e3db;fill-opacity:1;stroke-width:4;stroke-miterlimit:4;stroke-dasharray:none" />
    <path
       d="m -468.33071,439.19001 c -6.39955,-1.01553 -11.75374,5.09019 -9.28133,7.56259 1.93732,1.93733 8.10592,1.29609 12.94388,1.25623 6.89699,-0.0568 5.42022,-5.66031 -3.77666,-8.93352"
       id="path4094"
       style="fill:url(#radialGradient4102);fill-opacity:1;stroke:#000000;stroke-width:1px;stroke-linecap:butt;stroke-linejoin:miter;stroke-opacity:1" />
    <g
       id="text4104"
       style="font-size:12px;font-style:normal;font-variant:normal;font-weight:normal;font-stretch:normal;line-height:125%;letter-spacing:0px;word-spacing:0px;fill:#000000;fill-opacity:1;stroke:none;font-family:Linux Biolinum O;-inkscape-font-specification:Linux Biolinum O">
      <path
         d="m -703.14266,485.03938 c 0.32,-0.096 0.736,-0.096 1.056,-0.096 0.32,0 0.864,0 1.152,0.096 0.864,-2.496 1.824,-5.15201 2.88,-7.712 0.928,2.52799 1.92,5.184 2.848,7.68 0.32,-0.096 0.512,-0.096 0.832,-0.096 0.32,0 0.896,0 1.184,0.096 1.56799,-3.776 4.128,-9.92001 5.952,-13.92 -0.288,0.096 -1.056,0.096 -1.376,0.096 -0.32,0 -0.8,0 -1.088,-0.096 -1.184,3.77599 -2.624,7.872 -3.968,10.944 l -0.256,0 c -1.312,-3.52 -2.304,-7.55201 -3.04,-10.944 -0.416,0.096 -1.152,0.096 -1.6,0.096 -0.512,0 -1.184,0 -1.696,-0.096 0.416,1.28 0.864,2.624 1.376,4.032 -0.864,2.46399 -1.76,4.928 -2.72,6.944 l -0.192,0 c -1.6,-3.648 -2.656,-7.26401 -3.808,-10.944 -0.416,0.096 -1.152,0.096 -1.6,0.096 -0.512,0 -1.184,0 -1.696,-0.096 2.14399,4.70399 3.968,9.248 5.76,13.92"
         id="path3180"
         style="font-size:32px" />
      <path
         d="m -685.57666,478.35138 c 0,3.83999 2.528,6.88 6.784,6.88 4.22399,0 6.784,-2.97601 6.784,-7.168 0,-4.352 -2.33601,-7.2 -6.656,-7.2 -4.192,0 -6.912,2.944 -6.912,7.488 m 6.688,-6.208 c 3.39199,0 4.064,2.624 4.064,6.496 0,3.07199 -1.53601,5.312 -3.68,5.312 -3.392,0 -4.256,-3.68001 -4.256,-6.144 0,-2.784 0.864,-5.664 3.872,-5.664"
         id="path3183"
         style="font-size:32px" />
      <path
         d="m -665.44866,474.22338 0,-2.912 c 0,-0.224 -0.064,-0.32 -0.192,-0.32 -0.736,0.16 -1.888,0.192 -2.592,0.096 l -0.064,0.096 c 0.224,1.408 0.288,3.808 0.288,6.208 l 0,1.76 c 0,2.39999 -0.064,4.064 -0.288,5.76 l 0.064,0.096 c 0.384,-0.064 1.12,-0.096 1.504,-0.096 0.384,0 1.12,0.032 1.504,0.096 l 0.064,-0.096 c -0.256,-1.824 -0.288,-3.32801 -0.288,-5.76 l 0,-1.664 c 0,-1.344 0.384,-2.112 1.088,-3.168 0.448,-0.704 1.184,-1.12 1.792,-1.12 0.64,0 1.248,0.064 1.664,0.448 l 0.256,-0.064 0.64,-2.368 -0.128,-0.128 c -0.544,-0.16 -0.576,-0.224 -1.152,-0.224 -1.728,0 -2.656,0.992 -4.064,3.424 l -0.096,-0.064"
         id="path3185"
         style="font-size:32px" />
      <path
         d="m -656.53766,478.51138 c 0,2.39999 -0.064,4.704 -0.288,6.4 l 0.064,0.096 c 0.384,-0.064 1.12,-0.096 1.504,-0.096 0.384,0 1.12,0.032 1.504,0.096 l 0.064,-0.096 c -0.256,-1.824 -0.288,-3.96801 -0.288,-6.4 l 0,-0.32 c 0.256,0.032 1.024,0.128 1.312,0.352 2.07999,2.17599 2.848,3.328 5.024,6.464 0.48,-0.032 1.568,-0.096 2.112,-0.096 0.512,0 1.632,0.064 1.92,0.096 l 0.064,-0.096 c -2.4,-2.496 -4.09601,-3.90401 -7.136,-7.616 1.248,-1.28 4.384,-4.32 6.464,-6.112 l -0.064,-0.096 c -0.608,0.096 -2.368,0.096 -3.232,0.096 -1.408,2.01599 -3.808,4.608 -5.056,5.568 -0.416,0.32 -0.992,0.448 -1.408,0.48 l 0,-8.32 c 0,-2.4 0.128,-3.96801 0.288,-6.016 0,-0.224 -0.096,-0.32 -0.288,-0.32 -0.832,0.32 -1.504,0.544 -2.784,0.64 l -0.064,0.096 c 0.224,1.376 0.288,3.744 0.288,6.176 l 0,9.024"
         id="path3187"
         style="font-size:32px" />
      <path
         d="m -640.73266,465.80738 c 0,0.864 0.768,1.632 1.632,1.632 0.864,0 1.632,-0.768 1.632,-1.632 0,-0.864 -0.768,-1.632 -1.632,-1.632 -0.864,0 -1.632,0.768 -1.632,1.632 m 0.32,11.584 0,1.76 c 0,2.39999 -0.064,4.032 -0.288,5.76 l 0.064,0.096 c 0.384,-0.064 1.12,-0.096 1.504,-0.096 0.384,0 1.12,0.032 1.504,0.096 l 0.064,-0.096 c -0.256,-1.792 -0.288,-3.32801 -0.288,-5.76 l 0,-2.272 c 0,-2.4 0.064,-3.552 0.288,-5.504 0,-0.288 -0.064,-0.32 -0.288,-0.32 -0.736,0.096 -2.112,0.096 -2.784,0.032 l -0.064,0.096 c 0.192,1.376 0.288,3.808 0.288,6.208"
         id="path3189"
         style="font-size:32px" />
      <path
         d="m -620.26016,479.15138 c 0,-1.024 0.064,-2.208 0.064,-3.232 0,-3.328 -1.08801,-5.056 -3.968,-5.056 -1.216,0 -3.48801,0.48 -5.536,2.88 l -0.064,-0.096 0,-2.336 c -0.032,-0.224 -0.064,-0.32 -0.192,-0.32 -0.736,0.16 -1.888,0.192 -2.592,0.096 l -0.064,0.096 c 0.224,1.408 0.288,3.808 0.288,6.208 l 0,1.76 c 0,2.39999 -0.032,4.032 -0.288,5.76 l 0.064,0.096 c 0.384,-0.064 1.12,-0.096 1.504,-0.096 0.384,0 1.12,0.032 1.504,0.096 l 0.064,-0.096 c -0.256,-1.824 -0.288,-3.32801 -0.288,-5.76 l 0,-3.744 c 1.63199,-1.92 3.488,-2.624 4.64,-2.624 1.63199,0 2.304,0.64 2.304,3.232 l 0,3.136 c 0,2.39999 -0.064,4.064 -0.288,5.76 l 0.064,0.096 c 0.384,-0.064 1.12,-0.096 1.504,-0.096 0.384,0 1.12,0.032 1.504,0.096 l 0.064,-0.096 c -0.256,-1.824 -0.288,-3.32801 -0.288,-5.76"
         id="path3191"
         style="font-size:32px" />
      <path
         d="m -614.49816,488.23938 c 0,-1.056 0.96,-2.24 2.08,-2.848 0.928,0 2.4,-0.096 2.848,-0.096 1.53599,0 2.496,0.032 3.392,0.544 0.928,0.544 1.248,1.472 1.248,2.304 0,1.952 -2.62401,3.008 -5.376,3.008 -1.088,0 -4.192,-0.73601 -4.192,-2.912 m 9.248,-12.576 c 0,-2.208 -0.864,-3.104 -1.632,-3.584 0.96,0.064 2.016,0.192 3.36,0.32 l 0.096,-0.096 c -0.064,-0.288 -0.096,-0.544 -0.096,-0.832 0,-0.288 0.032,-0.544 0.096,-0.832 l -0.096,-0.096 c -1.536,0.16 -2.68801,0.48 -5.056,0.608 -0.576,-0.192 -1.28,-0.288 -1.952,-0.288 -2.528,0 -5.44,1.696 -5.44,4.864 0,2.39999 1.376,3.488 2.272,4 -0.928,0.64 -1.984,1.568 -1.984,2.656 0,1.312 0.704,2.464 2.4,2.784 -0.672,0.384 -1.888,0.96 -2.688,1.6 -0.416,0.608 -0.736,1.536 -0.736,2.112 0,2.78399 3.168,3.648 5.504,3.648 4.12799,0 8.608,-1.66401 8.608,-5.12 0,-1.408 -0.448,-2.4 -1.344,-3.168 -1.216,-1.024 -3.392,-1.056 -4.512,-1.056 -0.544,0 -1.92,0.064 -2.656,0.16 -0.448,0.032 -0.768,0.064 -0.928,0.064 -0.896,0 -1.856,-0.128 -1.856,-1.504 0,-0.64 0.256,-1.184 0.96,-1.792 0.416,0.224 1.376,0.448 2.368,0.448 3.55199,0 5.312,-2.20801 5.312,-4.896 m -2.496,0.16 c 0,2.07999 -0.60801,3.456 -2.656,3.456 -2.304,0 -3.072,-1.37601 -3.072,-3.712 0,-2.112 0.96,-3.488 2.816,-3.488 2.07999,0 2.912,1.472 2.912,3.744"
         id="path3193"
         style="font-size:32px" />
      <path
         d="m -590.75266,471.18338 c -0.672,0 -1.344,0 -1.728,-0.064 -0.224,0.544 -0.416,0.832 -0.704,1.312 l 0.16,0.224 c 0.544,-0.032 1.536,-0.032 2.272,-0.064 l 0,4.384 c 0,1.92 -0.096,4.224 -0.096,5.184 0,2.07999 1.344,3.072 2.816,3.072 1.344,0 2.368,-0.32 3.712,-1.184 l -0.416,-0.768 c -0.96,0.352 -1.696,0.384 -2.496,0.256 -0.768,-0.128 -1.056,-0.896 -1.056,-2.624 0,-0.96 0.096,-2.336 0.096,-4.256 l 0,-4.032 1.216,0 c 0.768,0 1.856,0 2.304,0.064 0.096,-0.512 0.192,-0.864 0.384,-1.312 l -0.16,-0.224 c -0.576,0 -1.504,0.064 -2.24,0.064 l -1.504,0 c 0,-2.4 0,-2.816 0.16,-4.672 0,-0.256 -0.096,-0.32 -0.288,-0.32 -0.832,0.32 -1.216,0.64 -2.24,0.8 l -0.064,0.096 c 0,1.216 -0.128,2.24 -0.128,4.096 l 0,-0.032"
         id="path3195"
         style="font-size:32px" />
      <path
         d="m -581.70166,478.35138 c 0,3.83999 2.528,6.88 6.784,6.88 4.22399,0 6.784,-2.97601 6.784,-7.168 0,-4.352 -2.33601,-7.2 -6.656,-7.2 -4.192,0 -6.912,2.944 -6.912,7.488 m 6.688,-6.208 c 3.39199,0 4.064,2.624 4.064,6.496 0,3.07199 -1.53601,5.312 -3.68,5.312 -3.392,0 -4.256,-3.68001 -4.256,-6.144 0,-2.784 0.864,-5.664 3.872,-5.664"
         id="path3197"
         style="font-size:32px" />
      <path
         d="m -563.68566,488.23938 c 0,-1.056 0.96,-2.24 2.08,-2.848 0.928,0 2.4,-0.096 2.848,-0.096 1.53599,0 2.496,0.032 3.392,0.544 0.928,0.544 1.248,1.472 1.248,2.304 0,1.952 -2.62401,3.008 -5.376,3.008 -1.088,0 -4.192,-0.73601 -4.192,-2.912 m 9.248,-12.576 c 0,-2.208 -0.864,-3.104 -1.632,-3.584 0.96,0.064 2.016,0.192 3.36,0.32 l 0.096,-0.096 c -0.064,-0.288 -0.096,-0.544 -0.096,-0.832 0,-0.288 0.032,-0.544 0.096,-0.832 l -0.096,-0.096 c -1.536,0.16 -2.68801,0.48 -5.056,0.608 -0.576,-0.192 -1.28,-0.288 -1.952,-0.288 -2.528,0 -5.44,1.696 -5.44,4.864 0,2.39999 1.376,3.488 2.272,4 -0.928,0.64 -1.984,1.568 -1.984,2.656 0,1.312 0.704,2.464 2.4,2.784 -0.672,0.384 -1.888,0.96 -2.688,1.6 -0.416,0.608 -0.736,1.536 -0.736,2.112 0,2.78399 3.168,3.648 5.504,3.648 4.12799,0 8.608,-1.66401 8.608,-5.12 0,-1.408 -0.448,-2.4 -1.344,-3.168 -1.216,-1.024 -3.392,-1.056 -4.512,-1.056 -0.544,0 -1.92,0.064 -2.656,0.16 -0.448,0.032 -0.768,0.064 -0.928,0.064 -0.896,0 -1.856,-0.128 -1.856,-1.504 0,-0.64 0.256,-1.184 0.96,-1.792 0.416,0.224 1.376,0.448 2.368,0.448 3.55199,0 5.312,-2.20801 5.312,-4.896 m -2.496,0.16 c 0,2.07999 -0.60801,3.456 -2.656,3.456 -2.304,0 -3.072,-1.37601 -3.072,-3.712 0,-2.112 0.96,-3.488 2.816,-3.488 2.07999,0 2.912,1.472 2.912,3.744"
         id="path3199"
         style="font-size:32px" />
      <path
         d="m -547.48016,476.17538 c 0.544,-3.328 2.912,-4.032 3.648,-4.032 1.152,0 2.688,1.184 2.688,3.584 0,0.288 -0.128,0.448 -0.448,0.448 l -5.888,0 m 8.544,5.408 c -1.12,1.216 -2.62401,1.76 -4.384,1.76 -1.12,0 -2.624,-0.416 -3.488,-1.824 -0.576,-0.896 -0.768,-2.176 -0.768,-4.064 l 8.704,0 c 0.352,0 0.576,-0.192 0.576,-0.544 0,-2.688 -1.31201,-6.048 -5.536,-6.048 -3.04,0 -6.56,2.656 -6.56,7.36 0,1.824 0.352,3.616 1.44,4.896 1.088,1.344 2.912,2.112 5.088,2.112 2.30399,0 4.352,-1.184 5.568,-2.848 l -0.64,-0.8"
         id="path3201"
         style="font-size:32px" />
      <path
         d="m -533.94016,471.18338 c -0.672,0 -1.344,0 -1.728,-0.064 -0.224,0.544 -0.416,0.832 -0.704,1.312 l 0.16,0.224 c 0.544,-0.032 1.536,-0.032 2.272,-0.064 l 0,4.384 c 0,1.92 -0.096,4.224 -0.096,5.184 0,2.07999 1.344,3.072 2.816,3.072 1.344,0 2.368,-0.32 3.712,-1.184 l -0.416,-0.768 c -0.96,0.352 -1.696,0.384 -2.496,0.256 -0.768,-0.128 -1.056,-0.896 -1.056,-2.624 0,-0.96 0.096,-2.336 0.096,-4.256 l 0,-4.032 1.216,0 c 0.768,0 1.856,0 2.304,0.064 0.096,-0.512 0.192,-0.864 0.384,-1.312 l -0.16,-0.224 c -0.576,0 -1.504,0.064 -2.24,0.064 l -1.504,0 c 0,-2.4 0,-2.816 0.16,-4.672 0,-0.256 -0.096,-0.32 -0.288,-0.32 -0.832,0.32 -1.216,0.64 -2.24,0.8 l -0.064,0.096 c 0,1.216 -0.128,2.24 -0.128,4.096 l 0,-0.032"
         id="path3203"
         style="font-size:32px" />
      <path
         d="m -520.66516,473.64738 0,-4.768 c 0,-2.368 0.128,-4.00001 0.288,-5.984 0,-0.224 -0.096,-0.32 -0.288,-0.32 -0.832,0.32 -1.504,0.544 -2.784,0.64 l -0.064,0.096 c 0.224,1.376 0.288,3.776 0.288,6.208 l 0,9.632 c 0,2.39999 -0.064,3.968 -0.288,5.76 l 0.064,0.096 c 0.384,-0.064 1.12,-0.096 1.504,-0.096 0.384,0 1.12,0.032 1.504,0.096 l 0.064,-0.096 c -0.256,-1.824 -0.288,-3.32801 -0.288,-5.76 l 0,-3.744 c 1.63199,-1.92 3.488,-2.624 4.64,-2.624 1.63199,0 2.304,0.64 2.304,3.232 l 0,3.136 c 0,2.39999 -0.032,4.064 -0.288,5.76 l 0.064,0.096 c 0.384,-0.064 1.12,-0.096 1.504,-0.096 0.384,0 1.12,0.032 1.504,0.096 l 0.064,-0.096 c -0.256,-1.824 -0.288,-3.32801 -0.288,-5.76 0,-1.024 0.064,-2.208 0.064,-3.232 0,-3.328 -1.08801,-5.056 -3.968,-5.056 -1.216,0 -3.48801,0.48 -5.536,2.88 l -0.064,-0.096"
         id="path3205"
         style="font-size:32px" />
      <path
         d="m -504.54266,476.17538 c 0.544,-3.328 2.912,-4.032 3.648,-4.032 1.152,0 2.688,1.184 2.688,3.584 0,0.288 -0.128,0.448 -0.448,0.448 l -5.888,0 m 8.544,5.408 c -1.12,1.216 -2.62401,1.76 -4.384,1.76 -1.12,0 -2.624,-0.416 -3.488,-1.824 -0.576,-0.896 -0.768,-2.176 -0.768,-4.064 l 8.704,0 c 0.352,0 0.576,-0.192 0.576,-0.544 0,-2.688 -1.31201,-6.048 -5.536,-6.048 -3.04,0 -6.56,2.656 -6.56,7.36 0,1.824 0.352,3.616 1.44,4.896 1.088,1.344 2.912,2.112 5.088,2.112 2.30399,0 4.352,-1.184 5.568,-2.848 l -0.64,-0.8"
         id="path3207"
         style="font-size:32px" />
      <path
         d="m -488.69866,474.22338 0,-2.912 c 0,-0.224 -0.064,-0.32 -0.192,-0.32 -0.736,0.16 -1.888,0.192 -2.592,0.096 l -0.064,0.096 c 0.224,1.408 0.288,3.808 0.288,6.208 l 0,1.76 c 0,2.39999 -0.064,4.064 -0.288,5.76 l 0.064,0.096 c 0.384,-0.064 1.12,-0.096 1.504,-0.096 0.384,0 1.12,0.032 1.504,0.096 l 0.064,-0.096 c -0.256,-1.824 -0.288,-3.32801 -0.288,-5.76 l 0,-1.664 c 0,-1.344 0.384,-2.112 1.088,-3.168 0.448,-0.704 1.184,-1.12 1.792,-1.12 0.64,0 1.248,0.064 1.664,0.448 l 0.256,-0.064 0.64,-2.368 -0.128,-0.128 c -0.544,-0.16 -0.576,-0.224 -1.152,-0.224 -1.728,0 -2.656,0.992 -4.064,3.424 l -0.096,-0.064"
         id="path3209"
         style="font-size:32px" />
      <path
         d="m -471.62766,471.18338 c -0.672,0 -1.344,0 -1.728,-0.064 -0.224,0.544 -0.416,0.832 -0.704,1.312 l 0.16,0.224 c 0.544,-0.032 1.536,-0.032 2.272,-0.064 l 0,4.384 c 0,1.92 -0.096,4.224 -0.096,5.184 0,2.07999 1.344,3.072 2.816,3.072 1.344,0 2.368,-0.32 3.712,-1.184 l -0.416,-0.768 c -0.96,0.352 -1.696,0.384 -2.496,0.256 -0.768,-0.128 -1.056,-0.896 -1.056,-2.624 0,-0.96 0.096,-2.336 0.096,-4.256 l 0,-4.032 1.216,0 c 0.768,0 1.856,0 2.304,0.064 0.096,-0.512 0.192,-0.864 0.384,-1.312 l -0.16,-0.224 c -0.576,0 -1.504,0.064 -2.24,0.064 l -1.504,0 c 0,-2.4 0,-2.816 0.16,-4.672 0,-0.256 -0.096,-0.32 -0.288,-0.32 -0.832,0.32 -1.216,0.64 -2.24,0.8 l -0.064,0.096 c 0,1.216 -0.128,2.24 -0.128,4.096 l 0,-0.032"
         id="path3211"
         style="font-size:32px" />
      <path
         d="m -462.57666,478.35138 c 0,3.83999 2.528,6.88 6.784,6.88 4.22399,0 6.784,-2.97601 6.784,-7.168 0,-4.352 -2.33601,-7.2 -6.656,-7.2 -4.192,0 -6.912,2.944 -6.912,7.488 m 6.688,-6.208 c 3.39199,0 4.064,2.624 4.064,6.496 0,3.07199 -1.53601,5.312 -3.68,5.312 -3.392,0 -4.256,-3.68001 -4.256,-6.144 0,-2.784 0.864,-5.664 3.872,-5.664"
         id="path3213"
         style="font-size:32px" />
      <path
         d="m -431.79266,472.14338 c 1.216,0 2.336,0.928 3.2,2.368 l 0.416,-0.032 0.736,-2.624 -0.064,-0.096 c -0.992,-0.512 -2.65601,-0.896 -4.256,-0.896 -3.328,0 -6.816,2.72 -6.816,7.072 0,4.47999 2.528,7.296 6.432,7.296 1.91999,0 3.424,-0.64 4.704,-2.272 l -0.608,-0.672 -0.128,0 c -1.216,1.088 -2.24,1.344 -3.424,1.344 -2.336,0 -4.16,-2.11201 -4.16,-5.856 0,-3.52 1.856,-5.632 3.968,-5.632"
         id="path3215"
         style="font-size:32px" />
      <path
         d="m -423.16266,478.51138 c 0,2.39999 -0.064,4.704 -0.288,6.4 l 0.064,0.096 c 0.384,-0.064 1.12,-0.096 1.504,-0.096 0.384,0 1.12,0.032 1.504,0.096 l 0.064,-0.096 c -0.256,-1.824 -0.288,-3.96801 -0.288,-6.4 l 0,-9.6 c 0,-2.4 0.128,-3.96801 0.288,-6.016 0,-0.224 -0.096,-0.32 -0.288,-0.32 -0.832,0.32 -1.504,0.544 -2.784,0.64 l -0.064,0.096 c 0.224,1.376 0.288,3.744 0.288,6.176 l 0,9.024"
         id="path3217"
         style="font-size:32px" />
      <path
         d="m -413.98016,476.17538 c 0.544,-3.328 2.912,-4.032 3.648,-4.032 1.152,0 2.688,1.184 2.688,3.584 0,0.288 -0.128,0.448 -0.448,0.448 l -5.888,0 m 8.544,5.408 c -1.12,1.216 -2.62401,1.76 -4.384,1.76 -1.12,0 -2.624,-0.416 -3.488,-1.824 -0.576,-0.896 -0.768,-2.176 -0.768,-4.064 l 8.704,0 c 0.352,0 0.576,-0.192 0.576,-0.544 0,-2.688 -1.31201,-6.048 -5.536,-6.048 -3.04,0 -6.56,2.656 -6.56,7.36 0,1.824 0.352,3.616 1.44,4.896 1.088,1.344 2.912,2.112 5.088,2.112 2.30399,0 4.352,-1.184 5.568,-2.848 l -0.64,-0.8"
         id="path3219"
         style="font-size:32px" />
      <path
         d="m -393.37266,477.71138 -0.128,3.808 c 0,0.416 -0.192,0.64 -0.448,0.832 -0.896,0.672 -1.984,1.248 -2.944,1.248 -1.44,0 -2.368,-0.96 -2.368,-1.952 0,-1.44 0.672,-2.528 3.168,-3.2 l 2.72,-0.736 m 0,5.664 c 0.352,1.28 1.312,1.856 2.496,1.856 0.8,0 1.792,-0.192 2.528,-0.992 l -0.224,-0.768 c -0.352,0.128 -0.64,0.16 -0.864,0.16 -0.32,0 -0.736,-0.064 -0.96,-0.224 -0.32,-0.32 -0.512,-1.088 -0.512,-2.496 0,-0.928 0.096,-4.48 0.096,-4.832 0,-4.32 -2.84801,-5.184 -5.28,-5.184 -2.432,0 -3.904,1.184 -4.704,1.856 l -0.096,0.128 0.544,2.144 0.416,0.032 c 0.896,-1.44 1.984,-2.72 3.52,-2.72 1.152,0 3.072,0.16 3.072,3.776 0,0.224 -0.128,0.352 -0.224,0.384 l -2.976,0.672 c -3.264,0.736 -5.312,2.464 -5.312,4.64 0,2.36799 1.632,3.456 4,3.456 1.75999,0 2.656,-0.416 4.352,-1.856 l 0.128,-0.032"
         id="path3221"
         style="font-size:32px" />
      <path
         d="m -382.57366,474.22338 0,-2.912 c 0,-0.224 -0.064,-0.32 -0.192,-0.32 -0.736,0.16 -1.888,0.192 -2.592,0.096 l -0.064,0.096 c 0.224,1.408 0.288,3.808 0.288,6.208 l 0,1.76 c 0,2.39999 -0.064,4.064 -0.288,5.76 l 0.064,0.096 c 0.384,-0.064 1.12,-0.096 1.504,-0.096 0.384,0 1.12,0.032 1.504,0.096 l 0.064,-0.096 c -0.256,-1.824 -0.288,-3.32801 -0.288,-5.76 l 0,-1.664 c 0,-1.344 0.384,-2.112 1.088,-3.168 0.448,-0.704 1.184,-1.12 1.792,-1.12 0.64,0 1.248,0.064 1.664,0.448 l 0.256,-0.064 0.64,-2.368 -0.128,-0.128 c -0.544,-0.16 -0.576,-0.224 -1.152,-0.224 -1.728,0 -2.656,0.992 -4.064,3.424 l -0.096,-0.064"
         id="path3223"
         style="font-size:32px" />
      <path
         d="m -367.32666,478.35138 c 0,3.83999 2.528,6.88 6.784,6.88 4.22399,0 6.784,-2.97601 6.784,-7.168 0,-4.352 -2.33601,-7.2 -6.656,-7.2 -4.192,0 -6.912,2.944 -6.912,7.488 m 6.688,-6.208 c 3.39199,0 4.064,2.624 4.064,6.496 0,3.07199 -1.53601,5.312 -3.68,5.312 -3.392,0 -4.256,-3.68001 -4.256,-6.144 0,-2.784 0.864,-5.664 3.872,-5.664"
         id="path3225"
         style="font-size:32px" />
      <path
         d="m -340.86266,481.96738 0.128,0.096 0.16,2.848 c 0,0.064 0.096,0.096 0.288,0.096 0.416,-0.032 0.64,-0.096 1.088,-0.096 0.416,0 1.024,0.032 1.44,0.096 l 0.064,-0.096 c -0.256,-1.376 -0.544,-3.74401 -0.544,-6.144 l 0,-1.824 c 0,-2.4 0.032,-4.064 0.288,-5.76 l -0.064,-0.096 c -0.384,0.064 -1.12,0.096 -1.504,0.096 -0.384,0 -1.12,-0.032 -1.504,-0.096 l -0.064,0.096 c 0.224,1.856 0.288,3.328 0.288,5.76 l 0,3.136 c -0.992,1.664 -2.81601,3.36 -4.384,3.36 -1.12,0 -2.144,-0.35201 -2.144,-3.328 l 0,-3.168 c 0,-2.4 0.032,-4.064 0.288,-5.76 l -0.064,-0.096 c -0.384,0.064 -1.12,0.096 -1.504,0.096 -0.384,0 -1.12,-0.032 -1.504,-0.096 l -0.064,0.096 c 0.256,1.824 0.288,3.328 0.288,5.76 l 0,3.84 c 0,2.20799 1.024,4.448 4.192,4.448 1.98399,0 3.776,-1.632 4.832,-3.264"
         id="path3227"
         style="font-size:32px" />
      <path
         d="m -330.01116,474.22338 0,-2.912 c 0,-0.224 -0.064,-0.32 -0.192,-0.32 -0.736,0.16 -1.888,0.192 -2.592,0.096 l -0.064,0.096 c 0.224,1.408 0.288,3.808 0.288,6.208 l 0,1.76 c 0,2.39999 -0.064,4.064 -0.288,5.76 l 0.064,0.096 c 0.384,-0.064 1.12,-0.096 1.504,-0.096 0.384,0 1.12,0.032 1.504,0.096 l 0.064,-0.096 c -0.256,-1.824 -0.288,-3.32801 -0.288,-5.76 l 0,-1.664 c 0,-1.344 0.384,-2.112 1.088,-3.168 0.448,-0.704 1.184,-1.12 1.792,-1.12 0.64,0 1.248,0.064 1.664,0.448 l 0.256,-0.064 0.64,-2.368 -0.128,-0.128 c -0.544,-0.16 -0.576,-0.224 -1.152,-0.224 -1.728,0 -2.656,0.992 -4.064,3.424 l -0.096,-0.064"
         id="path3229"
         style="font-size:32px" />
      <path
         d="m -314.76416,478.35138 c 0,3.83999 2.528,6.88 6.784,6.88 4.22399,0 6.784,-2.97601 6.784,-7.168 0,-4.352 -2.33601,-7.2 -6.656,-7.2 -4.192,0 -6.912,2.944 -6.912,7.488 m 6.688,-6.208 c 3.39199,0 4.064,2.624 4.064,6.496 0,3.07199 -1.53601,5.312 -3.68,5.312 -3.392,0 -4.256,-3.68001 -4.256,-6.144 0,-2.784 0.864,-5.664 3.872,-5.664"
         id="path3231"
         style="font-size:32px" />
      <path
         d="m -294.79616,482.31938 0,-8.288 c 1.248,-1.28 2.048,-1.888 3.36,-1.888 1.95199,0 3.68,1.632 3.68,5.6 0,3.96799 -1.18401,6.208 -4.224,6.208 -0.992,0 -2.176,-0.832 -2.816,-1.632 m 0,-13.408 c 0,-2.368 0.032,-4.03201 0.192,-6.016 0,-0.224 -0.096,-0.32 -0.288,-0.32 -0.832,0.32 -1.504,0.544 -2.784,0.64 l -0.064,0.096 c 0.224,1.376 0.384,3.744 0.384,6.176 l 0,13.088 c 0,1.248 -0.032,1.728 -0.16,2.4 0.192,0.192 0.544,0.256 0.896,0.256 0.352,-0.384 0.704,-0.928 1.056,-1.568 0.928,0.8 2.4,1.568 3.776,1.568 3.26399,0 6.88,-2.30401 6.88,-7.744 0,-3.904 -2.78401,-6.624 -5.888,-6.624 -1.536,0 -2.912,0.416 -4,1.6 l 0,-3.552"
         id="path3233"
         style="font-size:32px" />
      <path
         d="m -282.25516,481.67938 -0.544,2.688 c 1.82399,0.64 3.616,0.864 4.832,0.864 4.41599,0 5.44,-2.624 5.44,-4.384 0,-2.624 -2.08001,-3.648 -4.352,-4.192 -1.216,-0.288 -2.976,-0.896 -2.976,-2.496 0,-1.312 1.056,-2.016 2.432,-2.016 1.66399,0 2.688,1.312 3.424,2.176 l 0.448,-0.032 0.64,-2.368 -0.064,-0.096 c -0.928,-0.48 -2.68801,-0.96 -4.32,-0.96 -2.368,0 -4.832,1.248 -4.832,3.904 0,2.55999 1.888,3.424 3.84,3.936 1.85599,0.512 3.232,1.024 3.232,2.592 0,1.696 -1.24801,2.656 -2.944,2.656 -1.536,0 -2.88,-1.056 -3.776,-2.304 l -0.48,0.032"
         id="path3235"
         style="font-size:32px" />
      <path
         d="m -268.12766,471.18338 c -0.672,0 -1.344,0 -1.728,-0.064 -0.224,0.544 -0.416,0.832 -0.704,1.312 l 0.16,0.224 c 0.544,-0.032 1.536,-0.032 2.272,-0.064 l 0,4.384 c 0,1.92 -0.096,4.224 -0.096,5.184 0,2.07999 1.344,3.072 2.816,3.072 1.344,0 2.368,-0.32 3.712,-1.184 l -0.416,-0.768 c -0.96,0.352 -1.696,0.384 -2.496,0.256 -0.768,-0.128 -1.056,-0.896 -1.056,-2.624 0,-0.96 0.096,-2.336 0.096,-4.256 l 0,-4.032 1.216,0 c 0.768,0 1.856,0 2.304,0.064 0.096,-0.512 0.192,-0.864 0.384,-1.312 l -0.16,-0.224 c -0.576,0 -1.504,0.064 -2.24,0.064 l -1.504,0 c 0,-2.4 0,-2.816 0.16,-4.672 0,-0.256 -0.096,-0.32 -0.288,-0.32 -0.832,0.32 -1.216,0.64 -2.24,0.8 l -0.064,0.096 c 0,1.216 -0.128,2.24 -0.128,4.096 l 0,-0.032"
         id="path3237"
         style="font-size:32px" />
      <path
         d="m -250.37266,477.71138 -0.128,3.808 c 0,0.416 -0.192,0.64 -0.448,0.832 -0.896,0.672 -1.984,1.248 -2.944,1.248 -1.44,0 -2.368,-0.96 -2.368,-1.952 0,-1.44 0.672,-2.528 3.168,-3.2 l 2.72,-0.736 m 0,5.664 c 0.352,1.28 1.312,1.856 2.496,1.856 0.8,0 1.792,-0.192 2.528,-0.992 l -0.224,-0.768 c -0.352,0.128 -0.64,0.16 -0.864,0.16 -0.32,0 -0.736,-0.064 -0.96,-0.224 -0.32,-0.32 -0.512,-1.088 -0.512,-2.496 0,-0.928 0.096,-4.48 0.096,-4.832 0,-4.32 -2.84801,-5.184 -5.28,-5.184 -2.432,0 -3.904,1.184 -4.704,1.856 l -0.096,0.128 0.544,2.144 0.416,0.032 c 0.896,-1.44 1.984,-2.72 3.52,-2.72 1.152,0 3.072,0.16 3.072,3.776 0,0.224 -0.128,0.352 -0.224,0.384 l -2.976,0.672 c -3.264,0.736 -5.312,2.464 -5.312,4.64 0,2.36799 1.632,3.456 4,3.456 1.75999,0 2.656,-0.416 4.352,-1.856 l 0.128,-0.032"
         id="path3239"
         style="font-size:32px" />
      <path
         d="m -236.91766,472.14338 c 1.216,0 2.336,0.928 3.2,2.368 l 0.416,-0.032 0.736,-2.624 -0.064,-0.096 c -0.992,-0.512 -2.65601,-0.896 -4.256,-0.896 -3.328,0 -6.816,2.72 -6.816,7.072 0,4.47999 2.528,7.296 6.432,7.296 1.91999,0 3.424,-0.64 4.704,-2.272 l -0.608,-0.672 -0.128,0 c -1.216,1.088 -2.24,1.344 -3.424,1.344 -2.336,0 -4.16,-2.11201 -4.16,-5.856 0,-3.52 1.856,-5.632 3.968,-5.632"
         id="path3241"
         style="font-size:32px" />
      <path
         d="m -228.28766,478.51138 c 0,2.39999 -0.064,4.704 -0.288,6.4 l 0.064,0.096 c 0.384,-0.064 1.12,-0.096 1.504,-0.096 0.384,0 1.12,0.032 1.504,0.096 l 0.064,-0.096 c -0.256,-1.824 -0.288,-3.96801 -0.288,-6.4 l 0,-9.6 c 0,-2.4 0.128,-3.96801 0.288,-6.016 0,-0.224 -0.096,-0.32 -0.288,-0.32 -0.832,0.32 -1.504,0.544 -2.784,0.64 l -0.064,0.096 c 0.224,1.376 0.288,3.744 0.288,6.176 l 0,9.024"
         id="path3243"
         style="font-size:32px" />
      <path
         d="m -219.10516,476.17538 c 0.544,-3.328 2.912,-4.032 3.648,-4.032 1.152,0 2.688,1.184 2.688,3.584 0,0.288 -0.128,0.448 -0.448,0.448 l -5.888,0 m 8.544,5.408 c -1.12,1.216 -2.62401,1.76 -4.384,1.76 -1.12,0 -2.624,-0.416 -3.488,-1.824 -0.576,-0.896 -0.768,-2.176 -0.768,-4.064 l 8.704,0 c 0.352,0 0.576,-0.192 0.576,-0.544 0,-2.688 -1.31201,-6.048 -5.536,-6.048 -3.04,0 -6.56,2.656 -6.56,7.36 0,1.824 0.352,3.616 1.44,4.896 1.088,1.344 2.912,2.112 5.088,2.112 2.30399,0 4.352,-1.184 5.568,-2.848 l -0.64,-0.8"
         id="path3245"
         style="font-size:32px" />
      <path
         d="m -207.00516,481.67938 -0.544,2.688 c 1.82399,0.64 3.616,0.864 4.832,0.864 4.41599,0 5.44,-2.624 5.44,-4.384 0,-2.624 -2.08001,-3.648 -4.352,-4.192 -1.216,-0.288 -2.976,-0.896 -2.976,-2.496 0,-1.312 1.056,-2.016 2.432,-2.016 1.66399,0 2.688,1.312 3.424,2.176 l 0.448,-0.032 0.64,-2.368 -0.064,-0.096 c -0.928,-0.48 -2.68801,-0.96 -4.32,-0.96 -2.368,0 -4.832,1.248 -4.832,3.904 0,2.55999 1.888,3.424 3.84,3.936 1.85599,0.512 3.232,1.024 3.232,2.592 0,1.696 -1.24801,2.656 -2.944,2.656 -1.536,0 -2.88,-1.056 -3.776,-2.304 l -0.48,0.032"
         id="path3247"
         style="font-size:32px" />
    </g>
    <path
       d="m -584.26792,388.35388 c -3.12321,-3.58758 -8.37081,-9.12749 -13.59299,-9.41387 -4.94338,-4.74486 -11.90004,-4.51262 -17.74435,-7.60293 -10.12615,-9.44405 -16.98808,-5.93426 -22.19071,-9.47472 -8.06031,-3.1023 -15.30628,-4.75674 -19.48635,-6.17748 -6.55759,-1.96716 -12.25768,-5.72218 -18.54971,-10.21813 -4.8706,-4.52266 -21.34071,-1.39055 -17.01185,-5.41496 2.94533,-3.93079 8.22345,-2.32481 13.44195,-1.11202 6.49003,2.48923 11.38588,5.64055 16.95553,8.14029 4.56796,2.81075 8.60886,6.98524 14.24965,7.32989 12.40405,1.76242 22.60764,6.59965 33.46924,11.29987 3.97616,2.52906 8.05806,3.34582 12.82435,6.59117 4.93881,3.36282 9.85011,4.72348 15.87408,9.91682 5.20754,6.01708 10.48437,4.77524 17.46307,6.38726 4.52623,3.49778 11.92227,-0.62427 15.87391,3.24445 9.26625,5.19911 -10.67786,2.42495 -14.43401,2.26857 -6.97963,0.11351 -11.24585,-4.01336 -17.14181,-5.76421 z"
       id="path4158"
       style="fill:#e2e3db;fill-opacity:1;stroke-width:0.5;stroke-miterlimit:4;stroke-dasharray:none" />
  </g>
</svg>
