<?xml version="1.0" encoding="UTF-8" standalone="no"?>
<!-- Created with Inkscape (http://www.inkscape.org/) -->

<svg
   xmlns:dc="http://purl.org/dc/elements/1.1/"
   xmlns:cc="http://creativecommons.org/ns#"
   xmlns:rdf="http://www.w3.org/1999/02/22-rdf-syntax-ns#"
   xmlns:svg="http://www.w3.org/2000/svg"
   xmlns="http://www.w3.org/2000/svg"
   xmlns:xlink="http://www.w3.org/1999/xlink"
   version="1.2"
   width="559.69006"
   height="166.08203"
   id="svg2">
  <defs
     id="defs4">
    <linearGradient
       id="linearGradient4162">
      <stop
         id="stop4164"
         style="stop-color:#ffffff;stop-opacity:1"
         offset="0" />
    </linearGradient>
    <linearGradient
       id="linearGradient4134">
      <stop
         id="stop4136"
         style="stop-color:#ffffff;stop-opacity:1"
         offset="0" />
    </linearGradient>
    <linearGradient
       id="linearGradient4128">
      <stop
         id="stop4130"
         style="stop-color:#ffffff;stop-opacity:1"
         offset="0" />
    </linearGradient>
    <linearGradient
       id="linearGradient4122">
      <stop
         id="stop4124"
         style="stop-color:#ffffff;stop-opacity:1"
         offset="0" />
    </linearGradient>
    <linearGradient
       id="linearGradient4096">
      <stop
         id="stop4098"
         style="stop-color:#ffffff;stop-opacity:1"
         offset="0" />
    </linearGradient>
    <radialGradient
       cx="-480.72501"
       cy="443.14178"
       r="10.70114"
       fx="-480.72501"
       fy="443.14178"
       id="radialGradient4102"
       xlink:href="#linearGradient4096"
       gradientUnits="userSpaceOnUse"
       gradientTransform="matrix(1.0642288,0.25691514,-0.11258761,0.46637568,93.602761,360.43512)" />
    <linearGradient
       x1="-586.63373"
       y1="457.53033"
       x2="-578.33331"
       y2="456.95758"
       id="linearGradient4126"
       xlink:href="#linearGradient4122"
       gradientUnits="userSpaceOnUse"
       gradientTransform="translate(2.2687707,-12.154128)" />
    <linearGradient
       x1="-630.48102"
       y1="457.80765"
       x2="-604.69257"
       y2="457.80765"
       id="linearGradient4132"
       xlink:href="#linearGradient4128"
       gradientUnits="userSpaceOnUse"
       gradientTransform="translate(-18.150165,-57.853652)" />
    <linearGradient
       x1="-706.3656"
       y1="390.72418"
       x2="-524.8396"
       y2="390.72418"
       id="linearGradient4138"
       xlink:href="#linearGradient4134"
       gradientUnits="userSpaceOnUse" />
    <linearGradient
       x1="-566.92944"
       y1="414.81769"
       x2="-544.88379"
       y2="414.81769"
       id="linearGradient4166"
       xlink:href="#linearGradient4162"
       gradientUnits="userSpaceOnUse" />
  </defs>
  <metadata
     id="metadata7">
    <rdf:RDF>
      <cc:Work
         rdf:about="">
        <dc:format>image/svg+xml</dc:format>
        <dc:type
           rdf:resource="http://purl.org/dc/dcmitype/StillImage" />
        <dc:title></dc:title>
      </cc:Work>
    </rdf:RDF>
  </metadata>
  <g
     transform="translate(713.85297,-330.44534)"
     id="layer1">
    <path
       d="m -645.375,443.23123 c 21.55369,0.78108 43.12367,0.63107 64.69428,0.12469 12.05963,-0.26283 23.79605,0.57162 35.82356,-0.36252 5.71258,-0.49506 11.80135,0.98906 17.36026,-0.48402 0.89181,-0.29551 2.10371,-0.45068 2.40315,-1.50938 0.0811,-1.63841 -1.04628,-2.98691 -1.54156,-4.48309 -5.79968,-13.42486 -12.11989,-26.62568 -18.93359,-39.5651 -1.57409,-2.93939 -3.50562,-5.99274 -6.645,-7.43759 -3.43697,-1.6375 -7.30296,-1.92253 -11.03469,-2.33227 -5.24133,-0.5556 -10.63316,-0.60816 -15.6514,-2.38507 -3.98485,-1.67019 -6.68301,-5.23808 -10.20653,-7.60795 -8.64667,-6.48538 -18.56586,-10.93407 -28.38,-15.32481 -4.90211,-2.1677 -9.85503,-4.22799 -14.87391,-6.10958 -5.4508,-1.94695 -10.99956,-3.94049 -16.82238,-4.31704 -2.57481,-0.58292 -3.62016,-2.64254 -6.23973,-3.68539 -2.81423,-0.98877 -5.86344,-1.68619 -8.16372,-3.70211 -4.30493,-3.09104 -8.76576,-6.10874 -13.814,-7.84628 -2.72056,-1.01881 -5.65318,-1.63918 -8.56849,-1.48497 -3.6688,0.35291 -7.60972,1.03482 -10.375,3.6875 -2.74793,3.04106 -4.29872,6.9182 -5.45529,10.79593 -1.57117,5.39117 -2.54107,12.4596 -3.9729,17.88932"
       id="path4114"
       style="fill:url(#linearGradient4138);fill-opacity:1;stroke:#000000;stroke-width:0.5;stroke-linecap:butt;stroke-linejoin:miter;stroke-miterlimit:4;stroke-opacity:1;stroke-dasharray:none" />
    <g
       transform="translate(311.42857,100)"
       id="flowRoot2985"
       style="font-size:12px;font-style:normal;font-variant:normal;font-weight:bold;font-stretch:normal;line-height:125%;letter-spacing:0px;word-spacing:0px;fill:#000000;fill-opacity:1;stroke:none;font-family:Linux Biolinum Shadow O;-inkscape-font-specification:Linux Biolinum Shadow O Bold">
      <path
         d="m -947.50275,342.7737 c -4.392,0 -10.44,-4.75201 -12.96,-8.568 l -1.872,0.072 c -0.288,2.59199 -0.864,6.624 -1.44,8.784 l 0.144,0.216 c 0,0 6.69601,3.24 15.48,3.24 10.58399,0 17.208,-6.76801 17.208,-14.112 0,-7.84799 -8.49601,-11.88001 -14.256,-14.616 -3.888,-1.8 -7.344,-3.52801 -7.344,-8.856 0,-3.6 2.592,-6.984 6.552,-6.984 4.32,0 8.568,5.112 10.44,8.64 l 2.16,-0.072 c 0.288,-2.592 0.792,-6.48 1.44,-8.64 l -0.144,-0.216 c 0,0 -5.90401,-3.24 -14.688,-3.24 -8.13599,0 -15.552,4.82401 -15.552,12.456 0,2.80799 0.504,5.544 2.232,7.776 3.312,4.39199 8.856,7.056 13.032,9.144 3.384,1.728 6.264,4.608 6.264,7.56 0,5.11199 -2.376,7.416 -6.696,7.416"
         id="path3038"
         style="font-size:72px;font-family:Linux Biolinum O;-inkscape-font-specification:Linux Biolinum O Bold" />
      <path
         d="m -889.761,332.8377 0,-7.992 c 0,-7.56 -3.52801,-10.656 -10.008,-10.656 -3.672,0 -7.992,2.232 -11.304,6.48 l -0.36,-0.216 c 0,-1.584 0,-4.608 -0.072,-5.256 -0.144,-0.432 -0.216,-0.72 -0.648,-0.72 -2.088,0.36 -6.84,0.36 -9.36,0.216 l -0.144,0.216 c 0.504,3.09599 0.792,8.64 0.792,13.968 l 0,3.96 c 0,5.39999 -0.216,9.144 -0.792,12.96 l 0.144,0.216 c 0,0 3.384,-0.216 5.904,-0.216 2.448,0 4.464,0.216 4.464,0.216 l 0.216,-0.216 c -0.36,-4.104 -0.432,-7.48801 -0.432,-12.96 l 0,-7.344 c 2.736,-3.6 5.76,-5.76 8.352,-5.76 1.944,0 3.744,1.44 3.744,6.696 l 0,6.408 c 0,5.39999 0,9.144 -0.432,12.96 l 0.144,0.216 c 0,0 2.304,-0.216 4.824,-0.216 2.448,0 5.616,0.216 5.616,0.216 l 0.144,-0.216 c -0.648,-4.104 -0.792,-7.48801 -0.792,-12.96"
         id="path3040"
         style="font-size:72px;font-family:Linux Biolinum O;-inkscape-font-specification:Linux Biolinum O Bold" />
      <path
         d="m -880.50112,331.0377 c 0,9.57599 6.69601,15.48 17.42399,15.48 11.01599,0 17.424,-6.12001 17.424,-16.128 0,-9.07199 -5.11201,-16.2 -17.28,-16.2 -10.29598,0 -17.56799,5.68801 -17.56799,16.848 m 17.06399,-13.248 c 6.12,0 7.56001,4.53601 7.56001,14.544 0,8.27999 -2.95201,10.584 -6.192,10.584 -7.488,0 -8.208,-7.99201 -8.208,-13.536 0,-6.264 0.648,-11.592 6.83999,-11.592"
         id="path3042"
         style="font-size:72px;font-family:Linux Biolinum O;-inkscape-font-specification:Linux Biolinum O Bold" />
      <path
         d="m -829.623,346.0857 c 0.648,-0.216 3.672,-0.216 4.32,-0.216 0.648,0 3.888,0 4.464,0.216 1.8,-5.544 4.032,-11.37601 6.336,-16.776 2.232,5.54399 4.392,11.088 6.336,16.704 0.648,-0.216 3.816,-0.216 4.464,-0.216 0.648,0 2.808,0 3.384,0.216 3.744,-10.22399 8.28,-21.02401 12.6,-31.32 -0.576,0.216 -3.096,0.216 -3.744,0.216 -0.648,0 -2.376,0 -2.952,-0.216 -2.448,7.55999 -4.896,16.344 -7.704,23.184 l -0.504,0 c -2.88,-7.70399 -4.68,-15.48001 -6.912,-23.184 -0.864,0.216 -4.032,0.216 -4.968,0.216 -1.008,0 -4.968,0 -5.976,-0.216 1.152,2.95199 2.376,5.832 3.528,8.784 -1.872,5.61599 -3.888,11.304 -5.832,15.912 l -0.72,0 c -3.24,-8.27999 -5.256,-16.34401 -7.632,-24.624 -0.864,0.216 -3.672,0.216 -4.608,0.216 -1.008,0 -5.328,0 -6.336,-0.216 4.32,10.58399 8.856,20.80801 12.456,31.32"
         id="path3044"
         style="font-size:72px;font-family:Linux Biolinum O;-inkscape-font-specification:Linux Biolinum O Bold" />
      <path
         d="m -759.56587,336.2217 c -1.8,4.60799 -4.10401,6.12 -6.98401,6.12 -3.88799,0 -6.47999,-3.45601 -6.47999,-12.456 0,-9.71999 3.096,-12.096 6.62399,-12.096 3.384,0 6.04801,2.52 6.84001,6.192 l 0,12.24 m 0,5.688 0.144,0 0.36,3.888 c 0,0.144 0.216,0.216 0.648,0.216 0.93599,-0.072 3.528,-0.216 4.53599,-0.216 0.936,0 4.10401,0.072 5.04001,0.216 l 0.14399,-0.216 c -0.57599,-3.096 -1.36799,-8.42401 -1.36799,-13.824 l 0,-22.176 c 0,-5.328 0.288,-9.07201 0.864,-13.536 0,-0.504 -0.36001,-0.72 -0.792,-0.72 -1.872,0.72 -7.41601,2.16 -10.29601,2.376 l -0.144,0.216 c 0.504,3.09599 0.86401,8.064 0.86401,13.536 l 0,5.76 c -1.368,-1.944 -4.75201,-3.24 -6.76801,-3.24 -4.82399,0 -7.488,1.008 -10.72799,3.384 -4.464,3.23999 -6.192,8.496 -6.192,13.608 0,8.85599 5.4,15.336 13.39199,15.336 4.536,0 8.35201,-1.22401 10.29601,-4.608"
         id="path3046"
         style="font-size:72px;font-family:Linux Biolinum O;-inkscape-font-specification:Linux Biolinum O Bold" />
      <path
         d="m -728.59687,320.6697 -0.36,-0.216 c 0,-1.584 -10e-6,-4.608 -0.072,-5.256 -0.144,-0.432 -0.21601,-0.72 -0.648,-0.72 -2.088,0.36 -6.84001,0.36 -9.36,0.216 l -0.14401,0.216 c 0.504,3.09599 0.79201,8.64 0.79201,13.968 l 0,3.96 c 0,5.39999 -0.14401,9.072 -0.72,12.96 l 0.072,0.216 c 0,0 2.304,-0.216 4.82399,-0.216 2.448,0 5.90401,0.216 5.90401,0.216 l 0.14399,-0.216 c -0.57599,-4.104 -0.71999,-7.48801 -0.71999,-12.96 l 0,-5.256 c 0,-5.544 4.896,-6.408 6.048,-6.408 1.36799,0 2.88,0.36 4.17599,1.368 l 1.29601,-0.144 1.43999,-7.416 -0.28799,-0.288 c -1.224,-0.36 -2.37601,-0.504 -3.672,-0.504 -3.384,0 -6.84001,3.672 -8.712,6.48"
         id="path3048"
         style="font-size:72px;font-family:Linux Biolinum O;-inkscape-font-specification:Linux Biolinum O Bold" />
      <path
         d="m -708.58987,302.0937 c 0,2.87999 2.376,5.112 5.39999,5.112 3.024,0 5.4,-2.23201 5.4,-5.112 0,-2.88 -2.376,-5.112 -5.4,-5.112 -3.02399,0 -5.39999,2.232 -5.39999,5.112 m 0.648,26.784 0,3.96 c 0,5.39999 -0.14401,9.072 -0.72,12.96 l 0.144,0.216 c 2.15999,-0.144 2.808,-0.216 5.32799,-0.216 2.448,0 3.16801,0.072 5.328,0.216 l 0.144,-0.216 c -0.57599,-4.104 -0.71999,-7.48801 -0.71999,-12.96 l 0,-4.752 c 0,-5.4 0.36,-8.42401 0.71999,-12.816 0,-0.504 -0.216,-0.72 -0.64799,-0.72 -1.008,0.144 -2.95201,0.36 -4.96801,0.36 -1.87199,0 -3.816,-0.144 -5.11199,-0.216 l -0.216,0.288 c 0.57599,3.09599 0.72,8.496 0.72,13.896"
         id="path3050"
         style="font-size:72px;font-family:Linux Biolinum O;-inkscape-font-specification:Linux Biolinum O Bold" />
      <path
         d="m -680.0385,300.5097 c -3.168,3.31199 -5.328,7.848 -5.328,12.24 l 0,2.16 -3.456,0 c -1.296,0 -1.656,0.864 -1.656,1.44 l 0,1.728 c 0,0.36 0.072,0.432 0.36,0.432 l 4.752,0 0,12.888 c 0,5.39999 0,10.728 -0.504,14.4 l 0.072,0.216 c 0,0 2.88,-0.216 5.4,-0.216 2.448,0 4.968,0.216 4.968,0.216 l 0.144,-0.216 c -0.504,-4.176 -0.576,-9.00001 -0.576,-14.4 l 0,-12.888 9.72,0 0.576,0 4.176,0 -0.216,8.496 c -0.144,4.31999 -0.216,10.296 -0.216,12.456 0,3.38399 2.376,7.056 6.984,7.056 3.744,0 7.488,-0.648 10.584,-2.52 0,-1.152 -0.432,-2.448 -1.224,-2.952 -1.584,0.792 -2.304,0.864 -4.176,0.864 -1.944,0 -2.664,-2.59201 -2.664,-5.544 0,-2.16 -0.072,-5.83201 0.072,-10.152 l 0.144,-7.704 6.552,0 c 0.72,0 1.728,-0.288 1.728,-0.936 l 0,-2.232 c 0,-0.288 -0.216,-0.432 -0.576,-0.432 l -7.704,0 c 0,-5.4 0.072,-5.83201 0.36,-10.008 0,-0.504 -0.216,-0.72 -0.648,-0.72 -1.8,0.72 -6.48,2.592 -9.36,3.24 l -0.144,0.216 c 0.504,3.02399 0.504,3.096 0.504,7.272 l -3.096,0 -1.08,0 -10.296,0 0,-0.72 c 0,-1.8 -0.36,-5.328 -0.36,-6.912 0,-3.96 2.52,-6.768 6.408,-6.768 2.088,0 3.096,1.8 3.888,3.24 l 2.16,-0.072 c 0.504,-1.944 0.864,-5.904 1.656,-7.272 l -0.072,-0.216 c -0.576,-0.36 -2.592,-0.648 -3.96,-0.648 -5.75999,0 -10.872,1.872 -13.896,4.968"
         id="path3052"
         style="font-size:72px;font-family:Linux Biolinum O;-inkscape-font-specification:Linux Biolinum O Bold" />
      <path
         d="m -638.53387,342.3417 c 0.79199,3.02399 2.016,4.248 4.968,4.896 l 0.288,0 c 2.59199,-0.648 3.96,-1.94401 4.96799,-4.896 l 0,-0.36 c -0.93599,-2.592 -2.304,-3.96 -4.96799,-4.896 l -0.288,0 c -2.736,1.08 -4.03201,2.52 -4.968,4.896 l 0,0.36"
         id="path3054"
         style="font-size:72px;font-family:Linux Biolinum O;-inkscape-font-specification:Linux Biolinum O Bold" />
      <path
         d="m -603.53512,317.7897 c 2.73599,0 4.896,2.088 6.48,6.048 l 2.01599,-0.072 1.72801,-6.984 -0.144,-0.216 c -2.232,-1.152 -7.12801,-2.376 -10.72801,-2.376 -9.64799,0 -17.49599,5.76001 -17.49599,17.064 0,4.53599 1.44,8.064 3.888,10.656 2.51999,2.80799 7.128,4.608 12.59999,4.608 5.472,0 8.64001,-1.15201 11.88001,-3.888 -0.216,-0.648 -0.36,-1.656 -0.36,-2.808 l -1.152,-0.36 c -2.016,2.44799 -5.54401,3.456 -8.424,3.456 -2.088,0 -4.96801,-1.8 -6.264,-3.888 -1.296,-2.088 -2.16,-5.47201 -2.16,-9.648 0,-3.384 0.504,-6.12 1.728,-8.136 1.36799,-2.232 3.816,-3.456 6.408,-3.456"
         id="path3056"
         style="font-size:72px;font-family:Linux Biolinum O;-inkscape-font-specification:Linux Biolinum O Bold" />
      <path
         d="m -588.00112,331.0377 c 0,9.57599 6.69601,15.48 17.42399,15.48 11.01599,0 17.424,-6.12001 17.424,-16.128 0,-9.07199 -5.11201,-16.2 -17.28,-16.2 -10.29598,0 -17.56799,5.68801 -17.56799,16.848 m 17.06399,-13.248 c 6.12,0 7.56001,4.53601 7.56001,14.544 0,8.27999 -2.95201,10.584 -6.192,10.584 -7.488,0 -8.208,-7.99201 -8.208,-13.536 0,-6.264 0.648,-11.592 6.83999,-11.592"
         id="path3058"
         style="font-size:72px;font-family:Linux Biolinum O;-inkscape-font-specification:Linux Biolinum O Bold" />
      <path
         d="m -546.51675,331.0377 c 0,9.57599 6.69601,15.48 17.424,15.48 11.01599,0 17.424,-6.12001 17.424,-16.128 0,-9.07199 -5.11201,-16.2 -17.28,-16.2 -10.29599,0 -17.568,5.68801 -17.568,16.848 m 17.064,-13.248 c 6.11999,0 7.56,4.53601 7.56,14.544 0,8.27999 -2.952,10.584 -6.192,10.584 -7.48799,0 -8.208,-7.99201 -8.208,-13.536 0,-6.264 0.64801,-11.592 6.84,-11.592"
         id="path3060"
         style="font-size:72px;font-family:Linux Biolinum O;-inkscape-font-specification:Linux Biolinum O Bold" />
      <path
         d="m -493.4235,325.4937 c 1.584,-3.816 5.256,-6.624 7.704,-6.624 4.392,0 5.904,5.04001 5.904,12.672 0,6.91199 -3.168,11.376 -7.2,11.376 -1.8,0 -3.744,-0.36 -6.408,-2.592 l 0,-14.832 m 0.288,-5.472 -0.36,-0.216 c 0,-1.584 0,-3.96 -0.072,-4.608 -0.144,-0.432 -0.216,-0.72 -0.648,-0.72 -2.088,0.36 -6.84,0.36 -9.36,0.216 l -0.144,0.216 c 0.504,3.09599 0.792,8.64 0.792,13.968 l 0,19.224 c 0,5.39999 -0.144,10.584 -0.72,14.4 l 0.072,0.216 c 0,0 2.808,-0.216 5.328,-0.216 2.448,0 5.4,0.216 5.4,0.216 l 0.144,-0.216 c -0.648,-4.104 -0.72,-9.00001 -0.72,-14.4 l 0,-3.6 c 2.376,1.512 5.04,2.016 7.704,2.016 9.07199,0 16.128,-7.48801 16.128,-17.64 0,-5.688 -2.16,-9.43201 -5.472,-12.096 -2.16,-1.656 -4.392,-2.592 -7.992,-2.592 -3.096,0 -6.552,1.008 -10.08,5.832"
         id="path3062"
         style="font-size:72px;font-family:Linux Biolinum O;-inkscape-font-specification:Linux Biolinum O Bold" />
    </g>
    <path
       d="m -241.3667,378.22379 c -3.67593,-2.62927 -7.41523,2.55535 -8.23797,5.8463 -2.66405,10.65618 19.8635,10.16265 16.21021,-0.79722 -0.70602,-2.11805 -3.26537,-3.7395 -5.31483,-4.25186 -3.17142,-0.79286 -4.54813,-0.62557 -7.44075,0.53148"
       id="path3049"
       style="fill:none;stroke:#000000;stroke-width:1px;stroke-linecap:butt;stroke-linejoin:miter;stroke-opacity:1" />
    <path
       d="m -243.22688,392.30806 c -0.92509,10.83656 -5.84631,26.67072 -5.84631,34.2806"
       id="path3051"
       style="fill:none;stroke:#000000;stroke-width:1px;stroke-linecap:butt;stroke-linejoin:miter;stroke-opacity:1" />
    <path
       d="m -246.15004,403.73493 c -2.48646,-3.77678 -21.02423,-10.59895 -16.47594,-15.14724"
       id="path3053"
       style="fill:none;stroke:#000000;stroke-width:1px;stroke-linecap:butt;stroke-linejoin:miter;stroke-opacity:1" />
    <path
       d="m -244.28985,404.00067 c 7.46255,-3.31979 20.28972,-8.06563 23.11947,-10.89538"
       id="path3055"
       style="fill:none;stroke:#000000;stroke-width:1px;stroke-linecap:butt;stroke-linejoin:miter;stroke-opacity:1" />
    <path
       d="m -262.14626,377.89681 c 0.78692,8.86032 -0.50548,19.64327 1.05317,25.87784 -6.4642,5.28127 6.9979,0.60181 2.55769,0.60181 -0.96939,0 -1.42732,-0.82789 -2.55769,-0.60181"
       id="path3080"
       style="fill:none;stroke:#000000;stroke-width:1px;stroke-linecap:butt;stroke-linejoin:miter;stroke-opacity:1" />
    <path
       d="m -268.61572,379.10043 c 2.2029,-0.60213 4.47272,-1.41908 6.61991,-1.95588 2.35015,-0.58754 6.84965,-1.28291 7.82353,-2.25679 0.28518,-0.28518 -1.73687,-8.72625 -0.15045,-8.72625 0.143,0 -2.26439,0.7548 -4.51358,1.50453 -2.32134,0.77378 -4.63704,1.19462 -6.92081,1.95588 -0.62982,0.20994 -6.46946,1.79589 -6.46946,1.80543 0,0.91762 0.89514,7.21415 1.35407,7.67308 1.19761,0.56644 1.56554,-0.58023 2.25679,0 z"
       id="path3082"
       style="fill:none;stroke:#000000;stroke-width:1px;stroke-linecap:butt;stroke-linejoin:miter;stroke-opacity:1" />
    <path
       d="m -270.2707,372.48052 c 0.16471,1.56231 1.01831,3.62188 1.20362,4.36312"
       id="path3098"
       style="fill:none;stroke:#000000;stroke-width:1px;stroke-linecap:butt;stroke-linejoin:miter;stroke-opacity:1" />
    <path
       d="m -267.1112,372.02916 c 0.1724,-0.0254 0.23471,2.97094 1.05317,4.06222"
       id="path3104"
       style="fill:none;stroke:#000000;stroke-width:1px;stroke-linecap:butt;stroke-linejoin:miter;stroke-opacity:1" />
    <path
       d="m -263.65079,370.976 c -0.77275,0.29275 0.60181,3.27821 0.60181,4.36312"
       id="path3106"
       style="fill:none;stroke:#000000;stroke-width:1px;stroke-linecap:butt;stroke-linejoin:miter;stroke-opacity:1" />
    <path
       d="m -260.34083,370.52464 c -0.53656,1.41338 0.146,3.29213 0.3009,3.91176"
       id="path3108"
       style="fill:none;stroke:#000000;stroke-width:1px;stroke-linecap:butt;stroke-linejoin:miter;stroke-opacity:1" />
    <path
       d="m -257.48223,369.77238 c -0.74932,1.33909 0,3.53507 0,4.36312"
       id="path3110"
       style="fill:none;stroke:#000000;stroke-width:1px;stroke-linecap:butt;stroke-linejoin:miter;stroke-opacity:1" />
    <path
       d="m -193.28355,377.59651 c 3.67593,-2.62927 7.41523,2.55535 8.23797,5.8463 2.66405,10.65618 -19.8635,10.16265 -16.21021,-0.79722 0.70602,-2.11805 3.26537,-3.7395 5.31483,-4.25186 3.17142,-0.79286 4.54813,-0.62557 7.44075,0.53148"
       id="path3049-6"
       style="fill:none;stroke:#000000;stroke-width:1px;stroke-linecap:butt;stroke-linejoin:miter;stroke-opacity:1" />
    <path
       d="m -191.42337,391.68078 c 0.92509,10.83656 5.84631,26.67072 5.84631,34.2806"
       id="path3051-2"
       style="fill:none;stroke:#000000;stroke-width:1px;stroke-linecap:butt;stroke-linejoin:miter;stroke-opacity:1" />
    <path
       d="m -188.50021,403.10765 c 2.48646,-3.77678 21.02423,-10.59895 16.47594,-15.14724"
       id="path3053-8"
       style="fill:none;stroke:#000000;stroke-width:1px;stroke-linecap:butt;stroke-linejoin:miter;stroke-opacity:1" />
    <path
       d="m -190.3604,403.37339 c -7.46255,-3.31979 -20.28972,-8.06563 -23.11947,-10.89538"
       id="path3055-4"
       style="fill:none;stroke:#000000;stroke-width:1px;stroke-linecap:butt;stroke-linejoin:miter;stroke-opacity:1" />
    <path
       d="m -172.50399,377.26953 c -0.78692,8.86032 0.50548,19.64327 -1.05317,25.87784 6.4642,5.28127 -6.9979,0.60181 -2.55769,0.60181 0.96939,0 1.42732,-0.82789 2.55769,-0.60181"
       id="path3080-5"
       style="fill:none;stroke:#000000;stroke-width:1px;stroke-linecap:butt;stroke-linejoin:miter;stroke-opacity:1" />
    <path
       d="m -166.03453,378.47315 c -2.2029,-0.60213 -4.47272,-1.41908 -6.61991,-1.95588 -2.35015,-0.58754 -6.84965,-1.28291 -7.82353,-2.25679 -0.28518,-0.28518 1.73687,-8.72625 0.15045,-8.72625 -0.143,0 2.26439,0.7548 4.51358,1.50453 2.32134,0.77378 4.63704,1.19462 6.92081,1.95588 0.62982,0.20994 6.46946,1.79589 6.46946,1.80543 0,0.91762 -0.89514,7.21415 -1.35407,7.67308 -1.19761,0.56644 -1.56554,-0.58023 -2.25679,0 z"
       id="path3082-0"
       style="fill:none;stroke:#000000;stroke-width:1px;stroke-linecap:butt;stroke-linejoin:miter;stroke-opacity:1" />
    <path
       d="m -164.37955,371.85324 c -0.16471,1.56231 -1.01831,3.62188 -1.20362,4.36312"
       id="path3098-4"
       style="fill:none;stroke:#000000;stroke-width:1px;stroke-linecap:butt;stroke-linejoin:miter;stroke-opacity:1" />
    <path
       d="m -167.53905,371.40188 c -0.1724,-0.0254 -0.23471,2.97094 -1.05317,4.06222"
       id="path3104-8"
       style="fill:none;stroke:#000000;stroke-width:1px;stroke-linecap:butt;stroke-linejoin:miter;stroke-opacity:1" />
    <path
       d="m -170.99946,370.34872 c 0.77275,0.29275 -0.60181,3.27821 -0.60181,4.36312"
       id="path3106-9"
       style="fill:none;stroke:#000000;stroke-width:1px;stroke-linecap:butt;stroke-linejoin:miter;stroke-opacity:1" />
    <path
       d="m -174.30942,369.89736 c 0.53656,1.41338 -0.146,3.29213 -0.3009,3.91176"
       id="path3108-5"
       style="fill:none;stroke:#000000;stroke-width:1px;stroke-linecap:butt;stroke-linejoin:miter;stroke-opacity:1" />
    <path
       d="m -177.16802,369.1451 c 0.74932,1.33909 0,3.53507 0,4.36312"
       id="path3110-6"
       style="fill:none;stroke:#000000;stroke-width:1px;stroke-linecap:butt;stroke-linejoin:miter;stroke-opacity:1" />
    <path
       d="m -221.1442,386.38583 c -4.05568,20.2733 6.06897,-4.55173 0,0 z"
       id="path3182"
       style="fill:none;stroke:#000000;stroke-width:1px;stroke-linecap:butt;stroke-linejoin:miter;stroke-opacity:1" />
    <path
       d="m -216.88876,385.1092 c 3.19712,17.55157 4.36859,1.74743 0,0 z"
       id="path3184"
       style="fill:none;stroke:#000000;stroke-width:1px;stroke-linecap:butt;stroke-linejoin:miter;stroke-opacity:1" />
    <path
       d="m -553.06347,410.23082 c -11.07164,-4.85035 -23.4779,19.80544 -0.60181,4.98594 1.70457,-1.10425 4.76518,1.33278 7.82353,-0.77327 4.33593,-2.98581 -5.14048,-4.7378 -7.22172,-4.21267 z"
       id="path3186"
       style="fill:url(#linearGradient4166);fill-opacity:1;stroke:#000000;stroke-width:1px;stroke-linecap:butt;stroke-linejoin:miter;stroke-opacity:1" />
    <path
       d="m -573.93079,445.80289 c -0.28816,-0.007 -2.07107,-4.47432 -5.78899,-2.86545 -11.73959,5.86979 5.09028,6.47357 5.78899,2.86545 z"
       id="path3190"
       style="fill:url(#linearGradient4126);fill-opacity:1;stroke:#000000;stroke-width:1px;stroke-linecap:butt;stroke-linejoin:miter;stroke-opacity:1" />
    <path
       d="m -640.41145,396.1568 c -5.21534,0 -10.88095,7.70898 -5.93259,7.70898 1.2304,0 9.83119,-2.60946 10.83258,-3.61086 2.82381,-2.8238 9.74085,2.29536 12.03621,0 1.63376,-1.63376 -7.33251,-5.70186 -17.1056,-4.09811"
       id="path3198"
       style="fill:url(#linearGradient4132);fill-opacity:1;stroke:#000000;stroke-width:1px;stroke-linecap:butt;stroke-linejoin:miter;stroke-opacity:1" />
    <path
       d="m -706.375,367.3125 c -1.4871,0.96644 -1.46672,2.97705 -1.6094,4.5628 -1.0032,10.62273 -1.2943,21.29871 -1.3808,31.96359 -0.1034,13.44934 -0.0906,26.89918 -0.01,40.34861 -0.36004,1.19656 0.57328,2.72899 1.90625,2.625 5.27034,0.88272 10.63738,0.55176 15.95462,0.78861 12.54946,0.18909 25.11354,0.12217 37.64338,-0.6502 2.5362,-0.20958 5.05812,-0.57198 7.55825,-1.04466 0.93876,-0.69131 0.27038,-2.02707 -0.4375,-2.625 -1.52749,-3.03085 -0.70517,-6.5959 -1.90625,-9.71875 -1.81878,-6.56433 -4.87912,-12.69131 -7.12354,-19.10377 -1.20971,-4.28249 -0.8906,-8.78055 -1.4387,-13.15908 -0.26039,-3.11111 -1.21246,-6.14911 -2.80779,-8.83445 -0.85785,-1.47044 -1.71953,-3.0491 -3.09872,-4.0902 -2.40409,-1.64116 -5.44525,-1.66416 -8.06153,-2.81423 -2.30436,-0.85085 -4.74286,-2.01178 -6.03534,-4.20014 -0.41622,-0.96205 -0.75138,-2.15838 -1.77813,-2.64188 -1.31111,-1.28384 -1.43624,-3.50732 -3.1875,-4.375 -1.87773,-1.62831 -4.21893,-2.6386 -6.64292,-3.11803 -5.60535,-1.69622 -11.21032,-3.88541 -17.14576,-3.9386 -0.13583,-0.002 -0.26624,-0.0207 -0.39882,0.0254 z"
       id="path3244"
       style="opacity:0.60606061;fill:none;stroke:#000000;stroke-width:0.80000001;stroke-linecap:butt;stroke-linejoin:miter;stroke-miterlimit:4;stroke-opacity:1;stroke-dasharray:none" />
    <path
       d="m -704.25752,446.77887 c -4.46026,-0.49497 -4.3578,-0.41231 -4.33935,-3.501 l 0.016,-2.673 4.78794,-1.2679 c 8.47145,-2.24334 8.95648,-4.16226 9.64,-3.73983 0.31259,0.19319 1.25997,1.75684 2.10531,3.47478 2.0088,4.08242 2.67024,4.33971 7.16328,2.78646 5.59094,-1.93279 11.04862,-2.52586 20.75741,-2.25562 4.68098,0.13029 10.36632,-1.24693 11.09398,-1.10035 1.32173,0.26624 1.32261,0.26832 0.91905,2.16048 -0.22217,1.0417 -0.30202,2.15961 -0.17744,2.48425 0.12457,0.32464 1.29083,0.92575 2.59168,1.33581 1.30085,0.41006 2.36518,0.87655 2.36518,1.03666 0,0.16011 -1.67558,0.53758 -3.72351,0.83883 -4.33066,0.63704 -48.12866,0.98317 -53.19951,0.42043 l 0,0 z"
       id="path3276"
       style="fill:#e2e3db;fill-opacity:1;stroke-width:4;stroke-miterlimit:4;stroke-dasharray:none" />
    <path
       d="m -670.62191,391.89506 c -2.70555,-1.24576 -4.55335,-2.08338 -6.2054,-2.77412 -2.76819,-1.15741 -3.94983,-4.3401 -0.35441,-4.00044 1.42772,1.19443 1.98347,2.37847 3.57549,2.69599 6.11158,1.21893 7.34021,1.75089 9.91626,4.29342 1.40989,1.39156 2.43286,2.76205 2.27326,3.04554 -0.52276,0.92851 -4.72413,-1.61682 -9.2052,-3.26035 z"
       id="path3278"
       style="fill:#e2e3db;fill-opacity:1;stroke-width:4;stroke-miterlimit:4;stroke-dasharray:none" />
    <path
       d="m -682.86233,380.39344 c -3.13177,-0.11723 -2.91155,-0.74626 -6.42436,-2.38165 -1.98644,-0.92477 -4.28385,-1.03 -7.91471,-1.76867 -3.37056,-0.6857 -5.39439,-3.63277 -6.52178,-4.71362 -2.42988,-2.32953 -1.9386,-3.24218 0.95627,-1.77641 1.14663,0.58058 3.5374,1.31484 5.01658,1.63167 5.06007,1.08387 7.57741,2.23921 11.01495,3.37805 1.55324,0.51457 2.94757,0.28044 3.72222,2.26306 0.4831,1.23642 3.54933,3.49484 0.15083,3.36757 z"
       id="path3280"
       style="fill:#e2e3db;fill-opacity:1;stroke-width:4;stroke-miterlimit:4;stroke-dasharray:none" />
    <path
       d="m -468.33071,439.19001 c -6.39955,-1.01553 -11.75374,5.09019 -9.28133,7.56259 1.93732,1.93733 8.10592,1.29609 12.94388,1.25623 6.89699,-0.0568 5.42022,-5.66031 -3.77666,-8.93352"
       id="path4094"
       style="fill:url(#radialGradient4102);fill-opacity:1;stroke:#000000;stroke-width:1px;stroke-linecap:butt;stroke-linejoin:miter;stroke-opacity:1" />
    <g
       id="text4104"
       style="font-size:13.34514427px;font-style:normal;font-variant:normal;font-weight:normal;font-stretch:normal;line-height:125%;letter-spacing:0px;word-spacing:0px;fill:#000000;fill-opacity:1;stroke:none;font-family:Linux Biolinum O;-inkscape-font-specification:Linux Biolinum O">
      <path
         d="m -698.2489,469.32213 c 1.083,0 2.0805,0.82651 2.85,2.109 l 0.3705,-0.0285 0.6555,-2.337 -0.057,-0.0855 c -0.8835,-0.456 -2.3655,-0.798 -3.7905,-0.798 -2.964,0 -6.0705,2.42251 -6.0705,6.2985 0,3.99 2.2515,6.498 5.7285,6.498 1.71,0 3.0495,-0.57 4.1895,-2.0235 l -0.5415,-0.5985 -0.114,0 c -1.083,0.969 -1.995,1.197 -3.0495,1.197 -2.0805,0 -3.705,-1.881 -3.705,-5.2155 0,-3.13499 1.653,-5.016 3.534,-5.016"
         id="path3065"
         style="font-size:28.5px" />
      <path
         d="m -690.56281,474.99363 c 0,2.1375 -0.057,4.18951 -0.2565,5.7 l 0.057,0.0855 c 0.342,-0.057 0.9975,-0.0855 1.3395,-0.0855 0.342,0 0.9975,0.0285 1.3395,0.0855 l 0.057,-0.0855 c -0.228,-1.62449 -0.2565,-3.534 -0.2565,-5.7 l 0,-8.55 c 0,-2.13749 0.114,-3.534 0.2565,-5.358 0,-0.1995 -0.0855,-0.285 -0.2565,-0.285 -0.741,0.285 -1.3395,0.4845 -2.4795,0.57 l -0.057,0.0855 c 0.1995,1.2255 0.2565,3.33451 0.2565,5.5005 l 0,8.037"
         id="path3067"
         style="font-size:28.5px" />
      <path
         d="m -682.38464,472.91313 c 0.4845,-2.96399 2.5935,-3.591 3.249,-3.591 1.026,0 2.394,1.05451 2.394,3.192 0,0.2565 -0.114,0.399 -0.399,0.399 l -5.244,0 m 7.6095,4.8165 c -0.9975,1.083 -2.33701,1.5675 -3.9045,1.5675 -0.9975,0 -2.337,-0.3705 -3.1065,-1.6245 -0.513,-0.798 -0.684,-1.938 -0.684,-3.6195 l 7.752,0 c 0.3135,0 0.513,-0.171 0.513,-0.4845 0,-2.39399 -1.16851,-5.3865 -4.9305,-5.3865 -2.7075,0 -5.8425,2.36551 -5.8425,6.555 0,1.6245 0.3135,3.22051 1.2825,4.3605 0.969,1.197 2.5935,1.881 4.5315,1.881 2.05199,0 3.876,-1.0545 4.959,-2.5365 l -0.57,-0.7125"
         id="path3069"
         style="font-size:28.5px" />
      <path
         d="m -664.03109,474.28113 -0.114,3.3915 c 0,0.3705 -0.171,0.57 -0.399,0.741 -0.798,0.5985 -1.767,1.1115 -2.622,1.1115 -1.2825,0 -2.109,-0.855 -2.109,-1.7385 0,-1.28249 0.5985,-2.2515 2.8215,-2.85 l 2.4225,-0.6555 m 0,5.0445 c 0.3135,1.14 1.1685,1.653 2.223,1.653 0.7125,0 1.596,-0.171 2.2515,-0.8835 l -0.1995,-0.684 c -0.3135,0.114 -0.57,0.1425 -0.7695,0.1425 -0.285,0 -0.6555,-0.057 -0.855,-0.1995 -0.285,-0.285 -0.456,-0.969 -0.456,-2.223 0,-0.8265 0.0855,-3.99 0.0855,-4.3035 0,-3.84749 -2.5365,-4.617 -4.7025,-4.617 -2.166,0 -3.477,1.0545 -4.1895,1.653 l -0.0855,0.114 0.4845,1.9095 0.3705,0.0285 c 0.798,-1.28249 1.767,-2.4225 3.135,-2.4225 1.026,0 2.736,0.14251 2.736,3.363 0,0.1995 -0.114,0.3135 -0.1995,0.342 l -2.6505,0.5985 c -2.907,0.6555 -4.731,2.19451 -4.731,4.1325 0,2.109 1.4535,3.078 3.5625,3.078 1.5675,0 2.3655,-0.3705 3.876,-1.653 l 0.114,-0.0285"
         id="path3071"
         style="font-size:28.5px" />
      <path
         d="m -654.41323,471.17463 0,-2.5935 c 0,-0.1995 -0.057,-0.285 -0.171,-0.285 -0.6555,0.1425 -1.6815,0.171 -2.3085,0.0855 l -0.057,0.0855 c 0.1995,1.254 0.2565,3.39151 0.2565,5.529 l 0,1.5675 c 0,2.1375 -0.057,3.61951 -0.2565,5.13 l 0.057,0.0855 c 0.342,-0.057 0.9975,-0.0855 1.3395,-0.0855 0.342,0 0.9975,0.0285 1.3395,0.0855 l 0.057,-0.0855 c -0.228,-1.62449 -0.2565,-2.964 -0.2565,-5.13 l 0,-1.482 c 0,-1.19699 0.342,-1.881 0.969,-2.8215 0.399,-0.627 1.0545,-0.9975 1.596,-0.9975 0.57,0 1.1115,0.057 1.482,0.399 l 0.228,-0.057 0.57,-2.109 -0.114,-0.114 c -0.4845,-0.1425 -0.513,-0.1995 -1.026,-0.1995 -1.539,0 -2.3655,0.88351 -3.6195,3.0495 l -0.0855,-0.057"
         id="path3073"
         style="font-size:28.5px" />
      <path
         d="m -646.76187,463.67913 c 0,0.7695 0.684,1.4535 1.4535,1.4535 0.7695,0 1.4535,-0.684 1.4535,-1.4535 0,-0.7695 -0.684,-1.4535 -1.4535,-1.4535 -0.7695,0 -1.4535,0.684 -1.4535,1.4535 m 0.285,10.317 0,1.5675 c 0,2.1375 -0.057,3.59101 -0.2565,5.13 l 0.057,0.0855 c 0.342,-0.057 0.9975,-0.0855 1.3395,-0.0855 0.342,0 0.9975,0.0285 1.3395,0.0855 l 0.057,-0.0855 c -0.228,-1.59599 -0.2565,-2.964 -0.2565,-5.13 l 0,-2.0235 c 0,-2.13749 0.057,-3.1635 0.2565,-4.902 0,-0.2565 -0.057,-0.285 -0.2565,-0.285 -0.6555,0.0855 -1.881,0.0855 -2.4795,0.0285 l -0.057,0.0855 c 0.171,1.2255 0.2565,3.39151 0.2565,5.529"
         id="path3075"
         style="font-size:28.5px" />
      <path
         d="m -628.52855,475.56363 c 0,-0.912 0.057,-1.9665 0.057,-2.8785 0,-2.96399 -0.969,-4.503 -3.534,-4.503 -1.083,0 -3.1065,0.42751 -4.9305,2.565 l -0.057,-0.0855 0,-2.0805 c -0.0285,-0.1995 -0.057,-0.285 -0.171,-0.285 -0.6555,0.1425 -1.6815,0.171 -2.3085,0.0855 l -0.057,0.0855 c 0.1995,1.254 0.2565,3.39151 0.2565,5.529 l 0,1.5675 c 0,2.1375 -0.0285,3.59101 -0.2565,5.13 l 0.057,0.0855 c 0.342,-0.057 0.9975,-0.0855 1.3395,-0.0855 0.342,0 0.9975,0.0285 1.3395,0.0855 l 0.057,-0.0855 c -0.228,-1.62449 -0.2565,-2.964 -0.2565,-5.13 l 0,-3.3345 c 1.4535,-1.70999 3.1065,-2.337 4.1325,-2.337 1.4535,0 2.052,0.57001 2.052,2.8785 l 0,2.793 c 0,2.1375 -0.057,3.61951 -0.2565,5.13 l 0.057,0.0855 c 0.342,-0.057 0.9975,-0.0855 1.3395,-0.0855 0.342,0 0.9975,0.0285 1.3395,0.0855 l 0.057,-0.0855 c -0.228,-1.62449 -0.2565,-2.964 -0.2565,-5.13"
         id="path3077"
         style="font-size:28.5px" />
      <path
         d="m -623.39677,483.65763 c 0,-0.9405 0.855,-1.995 1.8525,-2.5365 0.8265,0 2.1375,-0.0855 2.5365,-0.0855 1.368,0 2.223,0.0285 3.021,0.4845 0.8265,0.4845 1.1115,1.311 1.1115,2.052 0,1.7385 -2.337,2.679 -4.788,2.679 -0.969,0 -3.7335,-0.6555 -3.7335,-2.5935 m 8.2365,-11.2005 c 0,-1.96649 -0.7695,-2.7645 -1.4535,-3.192 0.855,0.057 1.7955,0.171 2.9925,0.285 l 0.0855,-0.0855 c -0.057,-0.2565 -0.0855,-0.4845 -0.0855,-0.741 0,-0.2565 0.0285,-0.4845 0.0855,-0.741 l -0.0855,-0.0855 c -1.368,0.1425 -2.394,0.4275 -4.503,0.5415 -0.513,-0.171 -1.14,-0.2565 -1.7385,-0.2565 -2.2515,0 -4.845,1.51051 -4.845,4.332 0,2.1375 1.2255,3.1065 2.0235,3.5625 -0.8265,0.57 -1.767,1.39651 -1.767,2.3655 0,1.1685 0.627,2.1945 2.1375,2.4795 -0.5985,0.342 -1.6815,0.855 -2.394,1.425 -0.3705,0.5415 -0.6555,1.368 -0.6555,1.881 0,2.4795 2.8215,3.249 4.902,3.249 3.6765,0 7.6665,-1.482 7.6665,-4.56 0,-1.25399 -0.399,-2.1375 -1.197,-2.8215 -1.083,-0.912 -3.021,-0.9405 -4.0185,-0.9405 -0.4845,0 -1.71,0.057 -2.3655,0.1425 -0.399,0.0285 -0.684,0.057 -0.8265,0.057 -0.798,0 -1.653,-0.114 -1.653,-1.3395 0,-0.57 0.228,-1.0545 0.855,-1.596 0.3705,0.1995 1.2255,0.399 2.109,0.399 3.1635,0 4.731,-1.9665 4.731,-4.3605 m -2.223,0.1425 c 0,1.8525 -0.5415,3.078 -2.3655,3.078 -2.052,0 -2.736,-1.2255 -2.736,-3.306 0,-1.88099 0.855,-3.1065 2.508,-3.1065 1.8525,0 2.5935,1.31101 2.5935,3.3345"
         id="path3079"
         style="font-size:28.5px" />
      <path
         d="m -602.24843,468.46713 c -0.5985,0 -1.197,0 -1.539,-0.057 -0.1995,0.4845 -0.3705,0.741 -0.627,1.1685 l 0.1425,0.1995 c 0.4845,-0.0285 1.368,-0.0285 2.0235,-0.057 l 0,3.9045 c 0,1.71 -0.0855,3.762 -0.0855,4.617 0,1.8525 1.197,2.736 2.508,2.736 1.197,0 2.109,-0.285 3.306,-1.0545 l -0.3705,-0.684 c -0.855,0.3135 -1.5105,0.342 -2.223,0.228 -0.684,-0.114 -0.9405,-0.798 -0.9405,-2.337 0,-0.855 0.0855,-2.0805 0.0855,-3.7905 l 0,-3.591 1.083,0 c 0.684,0 1.653,0 2.052,0.057 0.0855,-0.456 0.171,-0.7695 0.342,-1.1685 l -0.1425,-0.1995 c -0.513,0 -1.3395,0.057 -1.995,0.057 l -1.3395,0 c 0,-2.13749 0,-2.508 0.1425,-4.161 0,-0.228 -0.0855,-0.285 -0.2565,-0.285 -0.741,0.285 -1.083,0.57 -1.995,0.7125 l -0.057,0.0855 c 0,1.083 -0.114,1.99501 -0.114,3.648 l 0,-0.0285"
         id="path3081"
         style="font-size:28.5px" />
      <path
         d="m -590.42539,470.66163 0,-4.2465 c 0,-2.10899 0.114,-3.5625 0.2565,-5.3295 0,-0.1995 -0.0855,-0.285 -0.2565,-0.285 -0.741,0.285 -1.3395,0.4845 -2.4795,0.57 l -0.057,0.0855 c 0.1995,1.2255 0.2565,3.36301 0.2565,5.529 l 0,8.5785 c 0,2.1375 -0.057,3.53401 -0.2565,5.13 l 0.057,0.0855 c 0.342,-0.057 0.9975,-0.0855 1.3395,-0.0855 0.342,0 0.9975,0.0285 1.3395,0.0855 l 0.057,-0.0855 c -0.228,-1.62449 -0.2565,-2.964 -0.2565,-5.13 l 0,-3.3345 c 1.4535,-1.70999 3.10651,-2.337 4.1325,-2.337 1.4535,0 2.052,0.57001 2.052,2.8785 l 0,2.793 c 0,2.1375 -0.0285,3.61951 -0.2565,5.13 l 0.057,0.0855 c 0.342,-0.057 0.9975,-0.0855 1.3395,-0.0855 0.342,0 0.9975,0.0285 1.3395,0.0855 l 0.057,-0.0855 c -0.228,-1.62449 -0.2565,-2.964 -0.2565,-5.13 0,-0.912 0.057,-1.9665 0.057,-2.8785 0,-2.96399 -0.969,-4.503 -3.534,-4.503 -1.08299,0 -3.1065,0.42751 -4.9305,2.565 l -0.057,-0.0855"
         id="path3083"
         style="font-size:28.5px" />
      <path
         d="m -576.06628,472.91313 c 0.4845,-2.96399 2.5935,-3.591 3.249,-3.591 1.02599,0 2.394,1.05451 2.394,3.192 0,0.2565 -0.114,0.399 -0.399,0.399 l -5.244,0 m 7.6095,4.8165 c -0.9975,1.083 -2.33701,1.5675 -3.9045,1.5675 -0.9975,0 -2.337,-0.3705 -3.1065,-1.6245 -0.513,-0.798 -0.684,-1.938 -0.684,-3.6195 l 7.752,0 c 0.3135,0 0.513,-0.171 0.513,-0.4845 0,-2.39399 -1.16851,-5.3865 -4.9305,-5.3865 -2.7075,0 -5.8425,2.36551 -5.8425,6.555 0,1.6245 0.3135,3.22051 1.2825,4.3605 0.96899,1.197 2.5935,1.881 4.5315,1.881 2.05199,0 3.876,-1.0545 4.959,-2.5365 l -0.57,-0.7125"
         id="path3085"
         style="font-size:28.5px" />
      <path
         d="m -554.97272,472.31463 c 0.627,-1.51049 2.3085,-2.8215 3.42,-2.8215 1.938,0 2.9355,1.76701 2.9355,4.9875 0,2.337 -0.6555,5.358 -3.705,5.358 -0.456,0 -1.653,-0.114 -2.6505,-1.2825 l 0,-6.2415 m 0,-1.653 0,-2.0805 c 0,-0.1995 -0.057,-0.285 -0.171,-0.285 -0.6555,0.1425 -1.6815,0.171 -2.3085,0.0855 l -0.057,0.0855 c 0.1995,1.254 0.2565,3.39151 0.2565,5.529 l 0,7.6095 c 0,2.1375 -0.057,4.18951 -0.2565,5.7 l 0.057,0.0855 c 0.342,-0.057 0.9975,-0.0855 1.3395,-0.0855 0.342,0 0.9975,0.0285 1.3395,0.0855 l 0.057,-0.0855 c -0.228,-1.62449 -0.2565,-3.534 -0.2565,-5.7 l 0,-1.254 c 0.741,0.399 1.7955,0.627 2.8215,0.627 3.76199,0 6.042,-2.85 6.042,-6.8685 0,-3.02099 -1.767,-5.928 -4.959,-5.928 -1.1115,0 -2.5365,0.57001 -3.8475,2.565 l -0.057,-0.0855"
         id="path3087"
         style="font-size:28.5px" />
      <path
         d="m -535.66976,474.28113 -0.114,3.3915 c 0,0.3705 -0.171,0.57 -0.399,0.741 -0.798,0.5985 -1.767,1.1115 -2.622,1.1115 -1.2825,0 -2.109,-0.855 -2.109,-1.7385 0,-1.28249 0.5985,-2.2515 2.8215,-2.85 l 2.4225,-0.6555 m 0,5.0445 c 0.3135,1.14 1.1685,1.653 2.223,1.653 0.7125,0 1.596,-0.171 2.2515,-0.8835 l -0.1995,-0.684 c -0.3135,0.114 -0.57,0.1425 -0.7695,0.1425 -0.285,0 -0.6555,-0.057 -0.855,-0.1995 -0.285,-0.285 -0.456,-0.969 -0.456,-2.223 0,-0.8265 0.0855,-3.99 0.0855,-4.3035 0,-3.84749 -2.5365,-4.617 -4.7025,-4.617 -2.166,0 -3.477,1.0545 -4.1895,1.653 l -0.0855,0.114 0.4845,1.9095 0.3705,0.0285 c 0.798,-1.28249 1.767,-2.4225 3.135,-2.4225 1.026,0 2.736,0.14251 2.736,3.363 0,0.1995 -0.114,0.3135 -0.1995,0.342 l -2.6505,0.5985 c -2.907,0.6555 -4.731,2.19451 -4.731,4.1325 0,2.109 1.4535,3.078 3.5625,3.078 1.5675,0 2.3655,-0.3705 3.876,-1.653 l 0.114,-0.0285"
         id="path3089"
         style="font-size:28.5px" />
      <path
         d="m -528.1039,468.46713 c -0.5985,0 -1.197,0 -1.539,-0.057 -0.1995,0.4845 -0.3705,0.741 -0.627,1.1685 l 0.1425,0.1995 c 0.4845,-0.0285 1.368,-0.0285 2.0235,-0.057 l 0,3.9045 c 0,1.71 -0.0855,3.762 -0.0855,4.617 0,1.8525 1.197,2.736 2.508,2.736 1.197,0 2.109,-0.285 3.306,-1.0545 l -0.3705,-0.684 c -0.855,0.3135 -1.5105,0.342 -2.223,0.228 -0.684,-0.114 -0.9405,-0.798 -0.9405,-2.337 0,-0.855 0.0855,-2.0805 0.0855,-3.7905 l 0,-3.591 1.083,0 c 0.684,0 1.653,0 2.052,0.057 0.0855,-0.456 0.171,-0.7695 0.342,-1.1685 l -0.1425,-0.1995 c -0.513,0 -1.3395,0.057 -1.995,0.057 l -1.3395,0 c 0,-2.13749 0,-2.508 0.1425,-4.161 0,-0.228 -0.0855,-0.285 -0.2565,-0.285 -0.741,0.285 -1.083,0.57 -1.995,0.7125 l -0.057,0.0855 c 0,1.083 -0.114,1.99501 -0.114,3.648 l 0,-0.0285"
         id="path3091"
         style="font-size:28.5px" />
      <path
         d="m -516.28085,470.66163 0,-4.2465 c 0,-2.10899 0.114,-3.5625 0.2565,-5.3295 0,-0.1995 -0.0855,-0.285 -0.2565,-0.285 -0.741,0.285 -1.33951,0.4845 -2.4795,0.57 l -0.057,0.0855 c 0.1995,1.2255 0.2565,3.36301 0.2565,5.529 l 0,8.5785 c 0,2.1375 -0.057,3.53401 -0.2565,5.13 l 0.057,0.0855 c 0.342,-0.057 0.9975,-0.0855 1.3395,-0.0855 0.342,0 0.9975,0.0285 1.3395,0.0855 l 0.057,-0.0855 c -0.228,-1.62449 -0.2565,-2.964 -0.2565,-5.13 l 0,-3.3345 c 1.45349,-1.70999 3.1065,-2.337 4.1325,-2.337 1.45349,0 2.052,0.57001 2.052,2.8785 l 0,2.793 c 0,2.1375 -0.0285,3.61951 -0.2565,5.13 l 0.057,0.0855 c 0.342,-0.057 0.9975,-0.0855 1.3395,-0.0855 0.342,0 0.9975,0.0285 1.3395,0.0855 l 0.057,-0.0855 c -0.228,-1.62449 -0.2565,-2.964 -0.2565,-5.13 0,-0.912 0.057,-1.9665 0.057,-2.8785 0,-2.96399 -0.96901,-4.503 -3.534,-4.503 -1.083,0 -3.10651,0.42751 -4.9305,2.565 l -0.057,-0.0855"
         id="path3093"
         style="font-size:28.5px" />
      <path
         d="m -495.65175,468.46713 c -0.5985,0 -1.197,0 -1.539,-0.057 -0.1995,0.4845 -0.3705,0.741 -0.627,1.1685 l 0.1425,0.1995 c 0.4845,-0.0285 1.368,-0.0285 2.0235,-0.057 l 0,3.9045 c 0,1.71 -0.0855,3.762 -0.0855,4.617 0,1.8525 1.197,2.736 2.508,2.736 1.197,0 2.109,-0.285 3.306,-1.0545 l -0.3705,-0.684 c -0.855,0.3135 -1.5105,0.342 -2.223,0.228 -0.684,-0.114 -0.9405,-0.798 -0.9405,-2.337 0,-0.855 0.0855,-2.0805 0.0855,-3.7905 l 0,-3.591 1.083,0 c 0.684,0 1.653,0 2.052,0.057 0.0855,-0.456 0.171,-0.7695 0.342,-1.1685 l -0.1425,-0.1995 c -0.513,0 -1.3395,0.057 -1.995,0.057 l -1.3395,0 c 0,-2.13749 0,-2.508 0.1425,-4.161 0,-0.228 -0.0855,-0.285 -0.2565,-0.285 -0.741,0.285 -1.083,0.57 -1.995,0.7125 l -0.057,0.0855 c 0,1.083 -0.114,1.99501 -0.114,3.648 l 0,-0.0285"
         id="path3095"
         style="font-size:28.5px" />
      <path
         d="m -487.59071,474.85113 c 0,3.42 2.25151,6.1275 6.042,6.1275 3.762,0 6.042,-2.6505 6.042,-6.384 0,-3.87599 -2.0805,-6.4125 -5.928,-6.4125 -3.73349,0 -6.156,2.62201 -6.156,6.669 m 5.9565,-5.529 c 3.021,0 3.6195,2.33701 3.6195,5.7855 0,2.736 -1.368,4.731 -3.2775,4.731 -3.02099,0 -3.7905,-3.2775 -3.7905,-5.472 0,-2.47949 0.76951,-5.0445 3.4485,-5.0445"
         id="path3097"
         style="font-size:28.5px" />
      <path
         d="m -458.46371,474.28113 -0.114,3.3915 c 0,0.3705 -0.171,0.57 -0.399,0.741 -0.798,0.5985 -1.767,1.1115 -2.622,1.1115 -1.28249,0 -2.109,-0.855 -2.109,-1.7385 0,-1.28249 0.59851,-2.2515 2.8215,-2.85 l 2.4225,-0.6555 m 0,5.0445 c 0.3135,1.14 1.1685,1.653 2.223,1.653 0.7125,0 1.596,-0.171 2.2515,-0.8835 l -0.1995,-0.684 c -0.3135,0.114 -0.57,0.1425 -0.7695,0.1425 -0.285,0 -0.6555,-0.057 -0.855,-0.1995 -0.285,-0.285 -0.456,-0.969 -0.456,-2.223 0,-0.8265 0.0855,-3.99 0.0855,-4.3035 0,-3.84749 -2.5365,-4.617 -4.7025,-4.617 -2.16599,0 -3.477,1.0545 -4.1895,1.653 l -0.0855,0.114 0.4845,1.9095 0.3705,0.0285 c 0.798,-1.28249 1.76701,-2.4225 3.135,-2.4225 1.026,0 2.736,0.14251 2.736,3.363 0,0.1995 -0.114,0.3135 -0.1995,0.342 l -2.6505,0.5985 c -2.90699,0.6555 -4.731,2.19451 -4.731,4.1325 0,2.109 1.45351,3.078 3.5625,3.078 1.5675,0 2.36551,-0.3705 3.876,-1.653 l 0.114,-0.0285"
         id="path3099"
         style="font-size:28.5px" />
      <path
         d="m -443.65885,468.46713 c -0.627,0 -1.2825,0 -1.653,-0.057 -0.1995,0.4845 -0.3705,0.741 -0.627,1.1685 l 0.1425,0.1995 c 0.513,-0.0285 1.4535,-0.057 2.109,-0.057 l 0.0285,0 0,5.301 c 0,2.1375 -0.057,4.16101 -0.285,5.6715 l 0.057,0.0855 c 0.342,-0.057 1.026,-0.0855 1.368,-0.0855 0.342,0 1.026,0.0285 1.368,0.0855 l 0.057,-0.0855 c -0.2565,-1.62449 -0.285,-3.534 -0.285,-5.6715 l 0,-5.301 0.969,0 c 0.684,0 1.653,0.0285 2.052,0.057 0.0855,-0.456 0.171,-0.741 0.342,-1.1685 l -0.1425,-0.1995 c -0.4845,0.0285 -1.3395,0.057 -1.995,0.057 l -1.2255,0 0,-0.2565 c 0,-1.02599 -0.1425,-2.508 -0.1425,-3.021 0,-1.56749 0.9975,-2.6505 2.6505,-2.6505 0.7125,0 1.3395,0.4275 1.653,0.9975 l 0.3135,-0.0285 c 0.1995,-0.7695 0.4845,-1.71 0.798,-2.337 l -0.0285,-0.0855 c -0.228,-0.1425 -0.741,-0.285 -1.2825,-0.285 -1.79549,0 -3.6195,0.85501 -4.674,2.1945 -1.083,1.368 -1.5675,2.70751 -1.5675,4.3605 l 0,1.1115"
         id="path3101"
         style="font-size:28.5px" />
      <path
         d="m -432.75893,471.17463 0,-2.5935 c 0,-0.1995 -0.057,-0.285 -0.171,-0.285 -0.6555,0.1425 -1.6815,0.171 -2.3085,0.0855 l -0.057,0.0855 c 0.1995,1.254 0.2565,3.39151 0.2565,5.529 l 0,1.5675 c 0,2.1375 -0.057,3.61951 -0.2565,5.13 l 0.057,0.0855 c 0.342,-0.057 0.9975,-0.0855 1.3395,-0.0855 0.342,0 0.9975,0.0285 1.3395,0.0855 l 0.057,-0.0855 c -0.228,-1.62449 -0.2565,-2.964 -0.2565,-5.13 l 0,-1.482 c 0,-1.19699 0.342,-1.881 0.969,-2.8215 0.399,-0.627 1.0545,-0.9975 1.596,-0.9975 0.57,0 1.1115,0.057 1.482,0.399 l 0.228,-0.057 0.57,-2.109 -0.114,-0.114 c -0.4845,-0.1425 -0.513,-0.1995 -1.026,-0.1995 -1.539,0 -2.3655,0.88351 -3.6195,3.0495 l -0.0855,-0.057"
         id="path3103"
         style="font-size:28.5px" />
      <path
         d="m -423.99207,472.91313 c 0.4845,-2.96399 2.59351,-3.591 3.249,-3.591 1.026,0 2.394,1.05451 2.394,3.192 0,0.2565 -0.114,0.399 -0.399,0.399 l -5.244,0 m 7.6095,4.8165 c -0.99749,1.083 -2.337,1.5675 -3.9045,1.5675 -0.99749,0 -2.337,-0.3705 -3.1065,-1.6245 -0.51299,-0.798 -0.684,-1.938 -0.684,-3.6195 l 7.752,0 c 0.3135,0 0.513,-0.171 0.513,-0.4845 0,-2.39399 -1.1685,-5.3865 -4.9305,-5.3865 -2.70749,0 -5.8425,2.36551 -5.8425,6.555 0,1.6245 0.31351,3.22051 1.2825,4.3605 0.969,1.197 2.59351,1.881 4.5315,1.881 2.052,0 3.87601,-1.0545 4.959,-2.5365 l -0.57,-0.7125"
         id="path3105"
         style="font-size:28.5px" />
      <path
         d="m -410.85535,472.91313 c 0.4845,-2.96399 2.5935,-3.591 3.249,-3.591 1.026,0 2.394,1.05451 2.394,3.192 0,0.2565 -0.114,0.399 -0.399,0.399 l -5.244,0 m 7.6095,4.8165 c -0.9975,1.083 -2.337,1.5675 -3.9045,1.5675 -0.9975,0 -2.337,-0.3705 -3.1065,-1.6245 -0.513,-0.798 -0.684,-1.938 -0.684,-3.6195 l 7.752,0 c 0.3135,0 0.513,-0.171 0.513,-0.4845 0,-2.39399 -1.1685,-5.3865 -4.9305,-5.3865 -2.70749,0 -5.8425,2.36551 -5.8425,6.555 0,1.6245 0.3135,3.22051 1.2825,4.3605 0.969,1.197 2.59351,1.881 4.5315,1.881 2.052,0 3.876,-1.0545 4.959,-2.5365 l -0.57,-0.7125"
         id="path3107"
         style="font-size:28.5px" />
      <path
         d="m -393.15328,462.28263 -1.1685,0 -6.7545,20.0925 1.1685,0 6.7545,-20.0925"
         id="path3109"
         style="font-size:28.5px" />
      <path
         d="m -389.75421,474.99363 c 0,2.1375 -0.057,4.18951 -0.2565,5.7 l 0.057,0.0855 c 0.342,-0.057 0.9975,-0.0855 1.3395,-0.0855 0.342,0 0.9975,0.0285 1.3395,0.0855 l 0.057,-0.0855 c -0.228,-1.62449 -0.2565,-3.534 -0.2565,-5.7 l 0,-8.55 c 0,-2.13749 0.114,-3.534 0.2565,-5.358 0,-0.1995 -0.0855,-0.285 -0.2565,-0.285 -0.741,0.285 -1.33951,0.4845 -2.4795,0.57 l -0.057,0.0855 c 0.1995,1.2255 0.2565,3.33451 0.2565,5.5005 l 0,8.037"
         id="path3111"
         style="font-size:28.5px" />
      <path
         d="m -382.85855,463.67913 c 0,0.7695 0.684,1.4535 1.4535,1.4535 0.7695,0 1.4535,-0.684 1.4535,-1.4535 0,-0.7695 -0.684,-1.4535 -1.4535,-1.4535 -0.7695,0 -1.4535,0.684 -1.4535,1.4535 m 0.285,10.317 0,1.5675 c 0,2.1375 -0.057,3.59101 -0.2565,5.13 l 0.057,0.0855 c 0.342,-0.057 0.9975,-0.0855 1.3395,-0.0855 0.342,0 0.9975,0.0285 1.3395,0.0855 l 0.057,-0.0855 c -0.228,-1.59599 -0.2565,-2.964 -0.2565,-5.13 l 0,-2.0235 c 0,-2.13749 0.057,-3.1635 0.2565,-4.902 0,-0.2565 -0.057,-0.285 -0.2565,-0.285 -0.6555,0.0855 -1.881,0.0855 -2.4795,0.0285 l -0.057,0.0855 c 0.171,1.2255 0.2565,3.39151 0.2565,5.529"
         id="path3113"
         style="font-size:28.5px" />
      <path
         d="m -373.11823,478.38513 0,-7.3815 c 1.1115,-1.13999 1.824,-1.6815 2.9925,-1.6815 1.7385,0 3.2775,1.45351 3.2775,4.9875 0,3.534 -1.0545,5.529 -3.762,5.529 -0.8835,0 -1.938,-0.741 -2.508,-1.4535 m 0,-11.9415 c 0,-2.10899 0.0285,-3.591 0.171,-5.358 0,-0.1995 -0.0855,-0.285 -0.2565,-0.285 -0.741,0.285 -1.3395,0.4845 -2.4795,0.57 l -0.057,0.0855 c 0.1995,1.2255 0.342,3.33451 0.342,5.5005 l 0,11.6565 c 0,1.1115 -0.0285,1.539 -0.1425,2.1375 0.171,0.171 0.4845,0.228 0.798,0.228 0.3135,-0.342 0.627,-0.8265 0.9405,-1.3965 0.8265,0.7125 2.1375,1.3965 3.363,1.3965 2.907,0 6.1275,-2.052 6.1275,-6.897 0,-3.47699 -2.4795,-5.8995 -5.244,-5.8995 -1.368,0 -2.5935,0.37051 -3.5625,1.425 l 0,-3.1635"
         id="path3115"
         style="font-size:28.5px" />
      <path
         d="m -358.6144,471.17463 0,-2.5935 c 0,-0.1995 -0.057,-0.285 -0.171,-0.285 -0.6555,0.1425 -1.6815,0.171 -2.3085,0.0855 l -0.057,0.0855 c 0.1995,1.254 0.2565,3.39151 0.2565,5.529 l 0,1.5675 c 0,2.1375 -0.057,3.61951 -0.2565,5.13 l 0.057,0.0855 c 0.342,-0.057 0.9975,-0.0855 1.3395,-0.0855 0.342,0 0.9975,0.0285 1.3395,0.0855 l 0.057,-0.0855 c -0.228,-1.62449 -0.2565,-2.964 -0.2565,-5.13 l 0,-1.482 c 0,-1.19699 0.342,-1.881 0.969,-2.8215 0.399,-0.627 1.0545,-0.9975 1.596,-0.9975 0.57,0 1.1115,0.057 1.482,0.399 l 0.228,-0.057 0.57,-2.109 -0.114,-0.114 c -0.4845,-0.1425 -0.513,-0.1995 -1.026,-0.1995 -1.539,0 -2.3655,0.88351 -3.6195,3.0495 l -0.0855,-0.057"
         id="path3117"
         style="font-size:28.5px" />
      <path
         d="m -349.84753,472.91313 c 0.4845,-2.96399 2.5935,-3.591 3.249,-3.591 1.02599,0 2.394,1.05451 2.394,3.192 0,0.2565 -0.114,0.399 -0.399,0.399 l -5.244,0 m 7.6095,4.8165 c -0.9975,1.083 -2.33701,1.5675 -3.9045,1.5675 -0.9975,0 -2.337,-0.3705 -3.1065,-1.6245 -0.513,-0.798 -0.684,-1.938 -0.684,-3.6195 l 7.752,0 c 0.3135,0 0.513,-0.171 0.513,-0.4845 0,-2.39399 -1.16851,-5.3865 -4.9305,-5.3865 -2.7075,0 -5.8425,2.36551 -5.8425,6.555 0,1.6245 0.3135,3.22051 1.2825,4.3605 0.96899,1.197 2.5935,1.881 4.5315,1.881 2.05199,0 3.876,-1.0545 4.959,-2.5365 l -0.57,-0.7125"
         id="path3119"
         style="font-size:28.5px" />
      <path
         d="m -332.14547,462.28263 -1.1685,0 -6.7545,20.0925 1.1685,0 6.7545,-20.0925"
         id="path3121"
         style="font-size:28.5px" />
      <path
         d="m -330.2284,474.85113 c 0,3.42 2.2515,6.1275 6.042,6.1275 3.76199,0 6.042,-2.6505 6.042,-6.384 0,-3.87599 -2.08051,-6.4125 -5.928,-6.4125 -3.7335,0 -6.156,2.62201 -6.156,6.669 m 5.9565,-5.529 c 3.021,0 3.6195,2.33701 3.6195,5.7855 0,2.736 -1.368,4.731 -3.2775,4.731 -3.021,0 -3.7905,-3.2775 -3.7905,-5.472 0,-2.47949 0.7695,-5.0445 3.4485,-5.0445"
         id="path3123"
         style="font-size:28.5px" />
      <path
         d="m -312.4444,472.31463 c 0.627,-1.51049 2.3085,-2.8215 3.42,-2.8215 1.938,0 2.9355,1.76701 2.9355,4.9875 0,2.337 -0.6555,5.358 -3.705,5.358 -0.456,0 -1.653,-0.114 -2.6505,-1.2825 l 0,-6.2415 m 0,-1.653 0,-2.0805 c 0,-0.1995 -0.057,-0.285 -0.171,-0.285 -0.6555,0.1425 -1.6815,0.171 -2.3085,0.0855 l -0.057,0.0855 c 0.1995,1.254 0.2565,3.39151 0.2565,5.529 l 0,7.6095 c 0,2.1375 -0.057,4.18951 -0.2565,5.7 l 0.057,0.0855 c 0.342,-0.057 0.9975,-0.0855 1.3395,-0.0855 0.342,0 0.9975,0.0285 1.3395,0.0855 l 0.057,-0.0855 c -0.228,-1.62449 -0.2565,-3.534 -0.2565,-5.7 l 0,-1.254 c 0.741,0.399 1.7955,0.627 2.8215,0.627 3.76199,0 6.042,-2.85 6.042,-6.8685 0,-3.02099 -1.767,-5.928 -4.959,-5.928 -1.1115,0 -2.5365,0.57001 -3.8475,2.565 l -0.057,-0.0855"
         id="path3125"
         style="font-size:28.5px" />
      <path
         d="m -298.35828,472.91313 c 0.4845,-2.96399 2.5935,-3.591 3.249,-3.591 1.026,0 2.394,1.05451 2.394,3.192 0,0.2565 -0.114,0.399 -0.399,0.399 l -5.244,0 m 7.6095,4.8165 c -0.9975,1.083 -2.337,1.5675 -3.9045,1.5675 -0.9975,0 -2.337,-0.3705 -3.1065,-1.6245 -0.513,-0.798 -0.684,-1.938 -0.684,-3.6195 l 7.752,0 c 0.3135,0 0.513,-0.171 0.513,-0.4845 0,-2.39399 -1.1685,-5.3865 -4.9305,-5.3865 -2.70749,0 -5.8425,2.36551 -5.8425,6.555 0,1.6245 0.3135,3.22051 1.2825,4.3605 0.969,1.197 2.59351,1.881 4.5315,1.881 2.052,0 3.876,-1.0545 4.959,-2.5365 l -0.57,-0.7125"
         id="path3127"
         style="font-size:28.5px" />
      <path
         d="m -275.89671,475.56363 c 0,-0.912 0.057,-1.9665 0.057,-2.8785 0,-2.96399 -0.96901,-4.503 -3.534,-4.503 -1.083,0 -3.10651,0.42751 -4.9305,2.565 l -0.057,-0.0855 0,-2.0805 c -0.0285,-0.1995 -0.057,-0.285 -0.171,-0.285 -0.6555,0.1425 -1.6815,0.171 -2.3085,0.0855 l -0.057,0.0855 c 0.1995,1.254 0.2565,3.39151 0.2565,5.529 l 0,1.5675 c 0,2.1375 -0.0285,3.59101 -0.2565,5.13 l 0.057,0.0855 c 0.342,-0.057 0.9975,-0.0855 1.3395,-0.0855 0.342,0 0.9975,0.0285 1.3395,0.0855 l 0.057,-0.0855 c -0.228,-1.62449 -0.2565,-2.964 -0.2565,-5.13 l 0,-3.3345 c 1.45349,-1.70999 3.1065,-2.337 4.1325,-2.337 1.45349,0 2.052,0.57001 2.052,2.8785 l 0,2.793 c 0,2.1375 -0.057,3.61951 -0.2565,5.13 l 0.057,0.0855 c 0.342,-0.057 0.9975,-0.0855 1.3395,-0.0855 0.342,0 0.9975,0.0285 1.3395,0.0855 l 0.057,-0.0855 c -0.228,-1.62449 -0.2565,-2.964 -0.2565,-5.13"
         id="path3129"
         style="font-size:28.5px" />
      <path
         d="m -260.81843,480.80763 c 0.285,-0.0855 0.6555,-0.0855 0.9405,-0.0855 0.285,0 0.7695,0 1.026,0.0855 0.7695,-2.22299 1.6245,-4.5885 2.565,-6.8685 0.8265,2.2515 1.71,4.61701 2.5365,6.84 0.285,-0.0855 0.456,-0.0855 0.741,-0.0855 0.285,0 0.798,0 1.0545,0.0855 1.3965,-3.36299 3.6765,-8.835 5.301,-12.3975 -0.2565,0.0855 -0.9405,0.0855 -1.2255,0.0855 -0.285,0 -0.7125,0 -0.969,-0.0855 -1.0545,3.363 -2.337,7.01101 -3.534,9.747 l -0.228,0 c -1.1685,-3.13499 -2.052,-6.726 -2.7075,-9.747 -0.3705,0.0855 -1.026,0.0855 -1.425,0.0855 -0.456,0 -1.0545,0 -1.5105,-0.0855 0.3705,1.14 0.7695,2.33701 1.2255,3.591 -0.7695,2.1945 -1.5675,4.38901 -2.4225,6.1845 l -0.171,0 c -1.425,-3.24899 -2.3655,-6.4695 -3.3915,-9.747 -0.3705,0.0855 -1.026,0.0855 -1.425,0.0855 -0.456,0 -1.0545,0 -1.5105,-0.0855 1.9095,4.1895 3.534,8.23651 5.13,12.3975"
         id="path3131"
         style="font-size:28.5px" />
      <path
         d="m -245.17371,474.85113 c 0,3.42 2.2515,6.1275 6.042,6.1275 3.76199,0 6.042,-2.6505 6.042,-6.384 0,-3.87599 -2.08051,-6.4125 -5.928,-6.4125 -3.7335,0 -6.156,2.62201 -6.156,6.669 m 5.9565,-5.529 c 3.02099,0 3.6195,2.33701 3.6195,5.7855 0,2.736 -1.36801,4.731 -3.2775,4.731 -3.021,0 -3.7905,-3.2775 -3.7905,-5.472 0,-2.47949 0.7695,-5.0445 3.4485,-5.0445"
         id="path3133"
         style="font-size:28.5px" />
      <path
         d="m -227.24721,471.17463 0,-2.5935 c 0,-0.1995 -0.057,-0.285 -0.171,-0.285 -0.6555,0.1425 -1.6815,0.171 -2.3085,0.0855 l -0.057,0.0855 c 0.1995,1.254 0.2565,3.39151 0.2565,5.529 l 0,1.5675 c 0,2.1375 -0.057,3.61951 -0.2565,5.13 l 0.057,0.0855 c 0.342,-0.057 0.9975,-0.0855 1.3395,-0.0855 0.342,0 0.9975,0.0285 1.3395,0.0855 l 0.057,-0.0855 c -0.228,-1.62449 -0.2565,-2.964 -0.2565,-5.13 l 0,-1.482 c 0,-1.19699 0.342,-1.881 0.969,-2.8215 0.399,-0.627 1.0545,-0.9975 1.596,-0.9975 0.57,0 1.1115,0.057 1.482,0.399 l 0.228,-0.057 0.57,-2.109 -0.114,-0.114 c -0.4845,-0.1425 -0.513,-0.1995 -1.026,-0.1995 -1.539,0 -2.36551,0.88351 -3.6195,3.0495 l -0.0855,-0.057"
         id="path3135"
         style="font-size:28.5px" />
      <path
         d="m -219.31085,474.99363 c 0,2.1375 -0.057,4.18951 -0.2565,5.7 l 0.057,0.0855 c 0.342,-0.057 0.9975,-0.0855 1.3395,-0.0855 0.342,0 0.9975,0.0285 1.3395,0.0855 l 0.057,-0.0855 c -0.228,-1.62449 -0.2565,-3.534 -0.2565,-5.7 l 0,-8.55 c 0,-2.13749 0.114,-3.534 0.2565,-5.358 0,-0.1995 -0.0855,-0.285 -0.2565,-0.285 -0.741,0.285 -1.33951,0.4845 -2.4795,0.57 l -0.057,0.0855 c 0.1995,1.2255 0.2565,3.33451 0.2565,5.5005 l 0,8.037"
         id="path3137"
         style="font-size:28.5px" />
      <path
         d="m -204.40669,477.47313 c -1.0545,1.3395 -2.3655,2.0235 -3.5055,2.0235 -1.539,0 -2.85,-1.539 -2.85,-5.1015 0,-4.27499 2.2515,-5.073 3.648,-5.073 1.3395,0 2.0235,0.57001 2.7075,1.653 l 0,6.498 m 0,1.5675 0.057,0 0.1425,1.653 c 0,0.057 0.0855,0.0855 0.2565,0.0855 0.3705,-0.0285 0.57,-0.0855 0.969,-0.0855 0.3705,0 0.912,0.0285 1.2825,0.0855 l 0.057,-0.0855 c -0.228,-1.22549 -0.4845,-3.3345 -0.4845,-5.472 l 0,-8.778 c 0,-2.10899 0.114,-3.591 0.2565,-5.358 0,-0.1995 -0.0855,-0.285 -0.2565,-0.285 -0.741,0.285 -1.3395,0.4845 -2.4795,0.57 l -0.057,0.0855 c 0.1995,1.2255 0.2565,3.33451 0.2565,5.5005 l 0,1.8525 c -0.6555,-0.3705 -1.824,-0.627 -2.394,-0.627 -3.7335,0 -6.441,2.56501 -6.441,6.441 0,3.5055 2.0805,6.3555 5.1585,6.3555 1.368,0 2.6505,-0.5985 3.6765,-1.938"
         id="path3139"
         style="font-size:28.5px" />
    </g>
    <path
       d="m -584.26792,388.35388 c -3.12321,-3.58758 -8.37081,-9.12749 -13.59299,-9.41387 -4.94338,-4.74486 -11.90004,-4.51262 -17.74435,-7.60293 -10.12615,-9.44405 -16.98808,-5.93426 -22.19071,-9.47472 -8.06031,-3.1023 -15.30628,-4.75674 -19.48635,-6.17748 -6.55759,-1.96716 -12.25768,-5.72218 -18.54971,-10.21813 -4.8706,-4.52266 -21.34071,-1.39055 -17.01185,-5.41496 2.94533,-3.93079 8.22345,-2.32481 13.44195,-1.11202 6.49003,2.48923 11.38588,5.64055 16.95553,8.14029 4.56796,2.81075 8.60886,6.98524 14.24965,7.32989 12.40405,1.76242 22.60764,6.59965 33.46924,11.29987 3.97616,2.52906 8.05806,3.34582 12.82435,6.59117 4.93881,3.36282 9.85011,4.72348 15.87408,9.91682 5.20754,6.01708 10.48437,4.77524 17.46307,6.38726 4.52623,3.49778 11.92227,-0.62427 15.87391,3.24445 9.26625,5.19911 -10.67786,2.42495 -14.43401,2.26857 -6.97963,0.11351 -11.24585,-4.01336 -17.14181,-5.76421 z"
       id="path4158"
       style="fill:#e2e3db;fill-opacity:1;stroke-width:0.5;stroke-miterlimit:4;stroke-dasharray:none" />
  </g>
</svg>
