<?xml version="1.0" encoding="UTF-8" standalone="no"?>
<!-- Created with Inkscape (http://www.inkscape.org/) -->
<svg id="svg2" xmlns:rdf="http://www.w3.org/1999/02/22-rdf-syntax-ns#" xmlns="http://www.w3.org/2000/svg" height="188.56" width="354.38" version="1.2" xmlns:cc="http://creativecommons.org/ns#" xmlns:xlink="http://www.w3.org/1999/xlink" xmlns:dc="http://purl.org/dc/elements/1.1/">
 <defs id="defs4">
  <radialGradient id="radialGradient4102" gradientUnits="userSpaceOnUse" cy="443.14" cx="-480.73" gradientTransform="matrix(1.0642288,0.25691514,-0.11258761,0.46637568,93.602761,360.43512)" r="10.701">
   <stop id="stop4098" stop-color="#FFF" offset="0"/>
  </radialGradient>
  <linearGradient id="linearGradient4126" y2="456.96" gradientUnits="userSpaceOnUse" x2="-578.33" gradientTransform="translate(2.2687707,-12.154128)" y1="457.53" x1="-586.63">
   <stop id="stop4124" stop-color="#FFF" offset="0"/>
  </linearGradient>
  <linearGradient id="linearGradient4132" y2="457.81" gradientUnits="userSpaceOnUse" x2="-604.69" gradientTransform="matrix(1,0,0,1.0619089,-18.150165,-86.438213)" y1="457.81" x1="-630.48">
   <stop id="stop4130" stop-color="#FFF" offset="0"/>
  </linearGradient>
  <linearGradient id="linearGradient4166" y2="414.82" gradientUnits="userSpaceOnUse" x2="-544.88" y1="414.82" x1="-566.93">
   <stop id="stop4164" stop-color="#FFF" offset="0"/>
  </linearGradient>
  <linearGradient id="linearGradient3906" y2="373.75" gradientUnits="userSpaceOnUse" x2="-253.28" y1="373.75" x1="-273.53">
   <stop id="stop3900" stop-color="#e2e3db" offset="0"/>
   <stop id="stop3902" stop-color="#e2e3db" stop-opacity="0" offset="1"/>
  </linearGradient>
  <linearGradient id="linearGradient3914" y2="375.76" gradientUnits="userSpaceOnUse" x2="-273.41" y1="374.05" x1="-252.7">
   <stop id="stop3910" stop-color="#e2e3db" offset="0"/>
   <stop id="stop3912" stop-color="#e2e3db" stop-opacity="0" offset="1"/>
  </linearGradient>
 </defs>
 <metadata id="metadata7">
  <rdf:RDF>
   <cc:Work rdf:about="">
    <dc:format>image/svg+xml</dc:format>
    <dc:type rdf:resource="http://purl.org/dc/dcmitype/StillImage"/>
    <dc:title/>
   </cc:Work>
  </rdf:RDF>
 </metadata>
 <rect id="rect3080" stroke-linejoin="miter" stroke-dasharray="none" height="179.68" width="345.88" stroke="#000" stroke-miterlimit="4" y="4.25" x="4.25" stroke-width="0.5" fill="#FFF"/>
 <g id="layer1" transform="translate(660.96099,-339.77767)">
  <g id="g3106" transform="translate(6,-4)">
   <g id="flowRoot2985" style="letter-spacing:0px;word-spacing:0px;" font-weight="bold" transform="translate(311.42857,100)" font-stretch="normal" line-height="125%" font-size="12px" font-variant="normal" font-family="Linux Biolinum Shadow O" font-style="normal" fill="#000">
    <path id="path3908" d="m-947.5,342.77c-4.392,0-10.44-4.752-12.96-8.568l-1.872,0.072c-0.288,2.592-0.864,6.624-1.44,8.784l0.144,0.216s6.696,3.24,15.48,3.24c10.584,0,17.208-6.768,17.208-14.112,0-7.848-8.496-11.88-14.256-14.616-3.888-1.8-7.344-3.528-7.344-8.856,0-3.6,2.592-6.984,6.552-6.984,4.32,0,8.568,5.112,10.44,8.64l2.16-0.072c0.288-2.592,0.792-6.48,1.44-8.64l-0.144-0.216s-5.904-3.24-14.688-3.24c-8.136,0-15.552,4.824-15.552,12.456,0,2.808,0.504,5.544,2.232,7.776,3.312,4.392,8.856,7.056,13.032,9.144,3.384,1.728,6.264,4.608,6.264,7.56,0,5.112-2.376,7.416-6.696,7.416"/>
    <path id="path3910" d="m-889.76,332.84,0-7.992c0-7.56-3.528-10.656-10.008-10.656-3.672,0-7.992,2.232-11.304,6.48l-0.36-0.216c0-1.584,0-4.608-0.072-5.256-0.144-0.432-0.216-0.72-0.648-0.72-2.088,0.36-6.84,0.36-9.36,0.216l-0.144,0.216c0.504,3.096,0.792,8.64,0.792,13.968v3.96c0,5.4-0.216,9.144-0.792,12.96l0.144,0.216s3.384-0.216,5.904-0.216c2.448,0,4.464,0.216,4.464,0.216l0.216-0.216c-0.36-4.104-0.432-7.488-0.432-12.96v-7.344c2.736-3.6,5.76-5.76,8.352-5.76,1.944,0,3.744,1.44,3.744,6.696v6.408c0,5.4,0,9.144-0.432,12.96l0.144,0.216s2.304-0.216,4.824-0.216c2.448,0,5.616,0.216,5.616,0.216l0.144-0.216c-0.648-4.104-0.792-7.488-0.792-12.96"/>
    <path id="path3912" d="m-880.5,331.04c0,9.576,6.696,15.48,17.424,15.48,11.016,0,17.424-6.12,17.424-16.128,0-9.072-5.112-16.2-17.28-16.2-10.296,0-17.568,5.688-17.568,16.848m17.064-13.248c6.12,0,7.56,4.536,7.56,14.544,0,8.28-2.952,10.584-6.192,10.584-7.488,0-8.208-7.992-8.208-13.536,0-6.264,0.648-11.592,6.84-11.592"/>
    <path id="path3914" d="m-829.62,346.09c0.648-0.216,3.672-0.216,4.32-0.216s3.888,0,4.464,0.216c1.8-5.544,4.032-11.376,6.336-16.776,2.232,5.544,4.392,11.088,6.336,16.704,0.648-0.216,3.816-0.216,4.464-0.216s2.808,0,3.384,0.216c3.744-10.224,8.28-21.024,12.6-31.32-0.576,0.216-3.096,0.216-3.744,0.216s-2.376,0-2.952-0.216c-2.448,7.56-4.896,16.344-7.704,23.184h-0.504c-2.88-7.704-4.68-15.48-6.912-23.184-0.864,0.216-4.032,0.216-4.968,0.216-1.008,0-4.968,0-5.976-0.216,1.152,2.952,2.376,5.832,3.528,8.784-1.872,5.616-3.888,11.304-5.832,15.912h-0.72c-3.24-8.28-5.256-16.344-7.632-24.624-0.864,0.216-3.672,0.216-4.608,0.216-1.008,0-5.328,0-6.336-0.216,4.32,10.584,8.856,20.808,12.456,31.32"/>
    <path id="path3916" d="m-759.57,336.22c-1.8,4.608-4.104,6.12-6.984,6.12-3.888,0-6.48-3.456-6.48-12.456,0-9.72,3.096-12.096,6.624-12.096,3.384,0,6.048,2.52,6.84,6.192v12.24m0,5.688,0.144,0,0.36,3.888c0,0.144,0.216,0.216,0.648,0.216,0.93599-0.072,3.528-0.216,4.536-0.216,0.936,0,4.104,0.072,5.04,0.216l0.14399-0.216c-0.57599-3.096-1.368-8.424-1.368-13.824v-22.176c0-5.328,0.288-9.072,0.864-13.536,0-0.504-0.36001-0.72-0.792-0.72-1.872,0.72-7.416,2.16-10.296,2.376l-0.144,0.216c0.504,3.096,0.86401,8.064,0.86401,13.536v5.76c-1.368-1.944-4.752-3.24-6.768-3.24-4.824,0-7.488,1.008-10.728,3.384-4.464,3.24-6.192,8.496-6.192,13.608,0,8.856,5.4,15.336,13.392,15.336,4.536,0,8.352-1.224,10.296-4.608"/>
    <path id="path3918" d="m-728.6,320.67-0.36-0.216c0-1.584-0.00001-4.608-0.072-5.256-0.144-0.432-0.21601-0.72-0.648-0.72-2.088,0.36-6.84,0.36-9.36,0.216l-0.14401,0.216c0.504,3.096,0.79201,8.64,0.79201,13.968v3.96c0,5.4-0.14401,9.072-0.72,12.96l0.072,0.216s2.304-0.216,4.824-0.216c2.448,0,5.904,0.216,5.904,0.216l0.14399-0.216c-0.57599-4.104-0.71999-7.488-0.71999-12.96v-5.256c0-5.544,4.896-6.408,6.048-6.408,1.368,0,2.88,0.36,4.176,1.368l1.296-0.144,1.44-7.416-0.28799-0.288c-1.224-0.36-2.376-0.504-3.672-0.504-3.384,0-6.84,3.672-8.712,6.48"/>
    <path id="path3920" d="m-708.59,302.09c0,2.88,2.376,5.112,5.4,5.112s5.4-2.232,5.4-5.112-2.376-5.112-5.4-5.112-5.4,2.232-5.4,5.112m0.648,26.784,0,3.96c0,5.4-0.14401,9.072-0.72,12.96l0.144,0.216c2.16-0.144,2.808-0.216,5.328-0.216,2.448,0,3.168,0.072,5.328,0.216l0.144-0.216c-0.57599-4.104-0.71999-7.488-0.71999-12.96v-4.752c0-5.4,0.36-8.424,0.71999-12.816,0-0.504-0.216-0.72-0.64799-0.72-1.008,0.144-2.952,0.36-4.968,0.36-1.872,0-3.816-0.144-5.112-0.216l-0.216,0.288c0.57599,3.096,0.72,8.496,0.72,13.896"/>
    <path id="path3922" d="m-680.04,300.51c-3.168,3.312-5.328,7.848-5.328,12.24v2.16h-3.456c-1.296,0-1.656,0.864-1.656,1.44v1.728c0,0.36,0.072,0.432,0.36,0.432h4.752v12.888c0,5.4,0,10.728-0.504,14.4l0.072,0.216s2.88-0.216,5.4-0.216c2.448,0,4.968,0.216,4.968,0.216l0.144-0.216c-0.504-4.176-0.576-9-0.576-14.4v-12.888h9.72,0.576,4.176l-0.216,8.496c-0.144,4.32-0.216,10.296-0.216,12.456,0,3.384,2.376,7.056,6.984,7.056,3.744,0,7.488-0.648,10.584-2.52,0-1.152-0.432-2.448-1.224-2.952-1.584,0.792-2.304,0.864-4.176,0.864-1.944,0-2.664-2.592-2.664-5.544,0-2.16-0.072-5.832,0.072-10.152l0.144-7.704h6.552c0.72,0,1.728-0.288,1.728-0.936v-2.232c0-0.288-0.216-0.432-0.576-0.432h-7.704c0-5.4,0.072-5.832,0.36-10.008,0-0.504-0.216-0.72-0.648-0.72-1.8,0.72-6.48,2.592-9.36,3.24l-0.144,0.216c0.504,3.024,0.504,3.096,0.504,7.272h-3.096-1.08-10.296v-0.72c0-1.8-0.36-5.328-0.36-6.912,0-3.96,2.52-6.768,6.408-6.768,2.088,0,3.096,1.8,3.888,3.24l2.16-0.072c0.504-1.944,0.864-5.904,1.656-7.272l-0.072-0.216c-0.576-0.36-2.592-0.648-3.96-0.648-5.76,0-10.872,1.872-13.896,4.968"/>
   </g>
   <path id="path3186" stroke-linejoin="miter" d="m-553.06,410.23c-11.072-4.8504-23.478,19.805-0.60181,4.9859,1.7046-1.1042,4.7652,1.3328,7.8235-0.77327,4.3359-2.9858-5.1405-4.7378-7.2217-4.2127z" stroke="#000" stroke-linecap="butt" stroke-width="1px" fill="url(#linearGradient4166)"/>
   <path id="path3190" stroke-linejoin="miter" d="m-573.93,445.8c-0.28816-0.007-2.0711-4.4743-5.789-2.8654-11.74,5.8698,5.0903,6.4736,5.789,2.8654z" stroke="#000" stroke-linecap="butt" stroke-width="1px" fill="url(#linearGradient4126)"/>
   <path id="path3198" stroke-linejoin="miter" d="m-640.41,395.68c-5.2153,0-10.881,8.1862-5.9326,8.1862,1.2304,0,9.8312-2.771,10.833-3.8344,2.8238-2.9986,9.7408,2.4375,12.036,0,1.6338-1.7349-7.3325-6.0549-17.106-4.3518" stroke="#000" stroke-linecap="butt" stroke-width="1.03048968px" fill="url(#linearGradient4132)"/>
   <path id="path4094" stroke-linejoin="miter" d="m-468.33,439.19c-6.3996-1.0155-11.754,5.0902-9.2813,7.5626,1.9373,1.9373,8.1059,1.2961,12.944,1.2562,6.897-0.0568,5.4202-5.6603-3.7767-8.9335" stroke="#000" stroke-linecap="butt" stroke-width="1px" fill="url(#radialGradient4102)"/>
  </g>
  <g id="flowRoot3098" style="letter-spacing:0px;word-spacing:0px;" font-weight="bold" transform="translate(469.44361,152)" font-stretch="normal" line-height="125%" font-size="12px" font-variant="normal" font-family="Linux Biolinum Shadow O" font-style="normal" fill="#000">
   <path id="path3897" d="m-961.83,342.34c0.792,3.024,2.016,4.248,4.968,4.896h0.288c2.592-0.648,3.96-1.944,4.968-4.896v-0.36c-0.936-2.592-2.304-3.96-4.968-4.896h-0.288c-2.736,1.08-4.032,2.52-4.968,4.896v0.36"/>
   <path id="path3899" d="m-926.83,317.79c2.736,0,4.896,2.088,6.48,6.048l2.016-0.072,1.728-6.984-0.144-0.216c-2.232-1.152-7.128-2.376-10.728-2.376-9.648,0-17.496,5.76-17.496,17.064,0,4.536,1.44,8.064,3.888,10.656,2.52,2.808,7.128,4.608,12.6,4.608s8.64-1.152,11.88-3.888c-0.216-0.648-0.36-1.656-0.36-2.808l-1.152-0.36c-2.016,2.448-5.544,3.456-8.424,3.456-2.088,0-4.968-1.8-6.264-3.888s-2.16-5.472-2.16-9.648c0-3.384,0.504-6.12,1.728-8.136,1.368-2.232,3.816-3.456,6.408-3.456"/>
   <path id="path3901" d="m-911.3,331.04c0,9.576,6.696,15.48,17.424,15.48,11.016,0,17.424-6.12,17.424-16.128,0-9.072-5.112-16.2-17.28-16.2-10.296,0-17.568,5.688-17.568,16.848m17.064-13.248c6.12,0,7.56,4.536,7.56,14.544,0,8.28-2.952,10.584-6.192,10.584-7.488,0-8.208-7.992-8.208-13.536,0-6.264,0.64801-11.592,6.84-11.592"/>
   <path id="path3903" d="m-869.81,331.04c0,9.576,6.696,15.48,17.424,15.48,11.016,0,17.424-6.12,17.424-16.128,0-9.072-5.112-16.2-17.28-16.2-10.296,0-17.568,5.688-17.568,16.848m17.064-13.248c6.12,0,7.56,4.536,7.56,14.544,0,8.28-2.952,10.584-6.192,10.584-7.488,0-8.208-7.992-8.208-13.536,0-6.264,0.648-11.592,6.84-11.592"/>
   <path id="path3905" d="m-816.72,325.49c1.584-3.816,5.256-6.624,7.704-6.624,4.392,0,5.904,5.04,5.904,12.672,0,6.912-3.168,11.376-7.2,11.376-1.8,0-3.744-0.36-6.408-2.592v-14.832m0.288-5.472-0.36-0.216c0-1.584-0.00001-3.96-0.072-4.608-0.144-0.432-0.21601-0.72-0.64801-0.72-2.088,0.36-6.84,0.36-9.36,0.216l-0.144,0.216c0.504,3.096,0.79201,8.64,0.79201,13.968v19.224c0,5.4-0.14401,10.584-0.72001,14.4l0.072,0.216s2.808-0.216,5.328-0.216c2.448,0,5.4,0.216,5.4,0.216l0.144-0.216c-0.648-4.104-0.72-9-0.72-14.4v-3.6c2.376,1.512,5.04,2.016,7.704,2.016,9.072,0,16.128-7.488,16.128-17.64,0-5.688-2.16-9.432-5.472-12.096-2.16-1.656-4.392-2.592-7.992-2.592-3.096,0-6.552,1.008-10.08,5.832"/>
  </g>
  <g id="text3124" style="letter-spacing:0px;word-spacing:0px;" font-weight="bold" font-size="24px" font-style="normal" font-stretch="normal" line-height="125%" font-variant="normal" font-family="Linux Biolinum Keyboard O" fill="#000">
   <path id="path3925" d="m-641.31,365.15c1.088-1.696,2.976-2.944,4.064-2.944,1.952,0,2.144,2.24,1.44,5.632-0.672,3.072-2.496,5.056-4.288,5.056-0.8,0-1.632-0.16001-2.592-1.152l1.376-6.592m0.672-2.432-0.128-0.096c0.16-0.704,0.384-1.76,0.384-2.048,0-0.192-0.032-0.32-0.224-0.32-0.96,0.16-3.072,0.16-4.192,0.096l-0.064,0.096c-0.064,1.376-0.48001,3.84-0.992,6.208l-1.792,8.544c-0.512,2.4-1.056,4.704-1.696,6.4l0.032,0.096s1.248-0.096,2.368-0.096c1.088,0,2.4,0.096,2.4,0.096l0.064-0.096c0.128-1.824,0.544-4,1.056-6.4l0.32-1.6c0.92799,0.672,2.048,0.896,3.232,0.896,4.032,0,7.904-3.328,8.832-7.84,0.54399-2.528-0.064-4.192-1.28-5.376-0.768-0.736-1.696-1.152-3.296-1.152-1.376,0-3.008,0.448-5.024,2.592"/>
   <path id="path3927" d="m-627.14,367.77c-0.512,2.4-1.12,4.704-1.728,6.4v0.096s1.376-0.096,2.496-0.096c1.088,0,2.4,0.096,2.4,0.096l0.096-0.096c0.096-1.824,0.448-3.968,0.96-6.4l2.048-9.6c0.51199-2.4,0.992-4.032,1.664-6.016,0.032-0.224-0.096-0.32-0.288-0.32-0.864,0.32-3.488,0.96-4.8,1.056l-0.096,0.096c-0.032,1.376-0.38401,3.584-0.896,6.016l-1.856,8.768"/>
   <path id="path3929" d="m-614.12,365.37c0.256-1.12,1.024-2.208,1.6-2.88,0.67199-0.736,1.568-0.928,1.92-0.928,0.86399,0,2.08,0.576,1.536,3.136-0.032,0.192-0.128,0.608-0.192,0.672h-4.864m7.648,4.672c-1.6,1.344-3.456,2.016-4.672,2.016-2.496,0-4.352-0.80001-3.52-4.736,0.032-0.224,0.064-0.352,0.096-0.512h8.192c0.76799,0,1.088-0.704,1.184-1.152,0.57599-2.72-0.16001-5.696-4.864-5.696-3.648,0-7.744,2.848-8.8,7.744-0.384,1.888-0.064,3.968,1.056,5.184,0.95999,1.12,2.592,1.6,4.864,1.6,2.208,0,4.64-1.12,6.72-3.456,0.096-0.416,0.064-0.992-0.256-0.992"/>
   <path id="path3931" d="m-592.4,369.92c-1.216,2.048-2.4,2.72-3.68,2.72-1.728,0-2.56-1.536-1.728-5.536,0.92799-4.32,2.56-5.376,4.096-5.376,1.504,0,2.464,1.12,2.464,2.752l-1.152,5.44m-0.544,2.528,0.064,0-0.192,1.728c-0.032,0.064,0.064,0.096,0.256,0.096,0.44799-0.032,1.6-0.096,2.048-0.096,0.41599,0,1.792,0.032,2.208,0.096l0.096-0.096c0.032-1.376,0.16-3.744,0.672-6.144l2.112-9.856c0.51199-2.368,0.992-4.032,1.664-6.016,0.032-0.224-0.096-0.32-0.288-0.32-0.864,0.32-3.488,0.96-4.8,1.056l-0.096,0.096c-0.032,1.376-0.38401,3.584-0.896,6.016l-0.544,2.56c-0.416-0.864-1.792-1.44-2.688-1.44-2.144,0-3.392,0.448-5.088,1.504-2.304,1.44-3.552,3.776-4.032,6.048-0.832,3.936,0.928,6.816,4.48,6.816,2.016,0,3.84-0.54401,5.024-2.048"/>
   <path id="path3933" d="m-570.09,364.92c0.224-1.088-0.12801-2.4-0.992-3.072,0.95999,0,2.08,0.192,3.2,0.256l0.096-0.096c0-0.288,0.032-0.576,0.096-0.864s0.16-0.64,0.288-0.928l-0.064-0.096c-1.568,0.16-3.584,0.16-6.016,0.288-0.512-0.192-1.568-0.288-2.24-0.288-3.456,0-6.72,1.856-7.36,4.928-0.384,1.792,0.352,2.688,1.056,3.264,0.38399,0.352,1.152,0.576,1.152,0.576l-0.096,0.16c-1.536,0.48-3.168,1.728-3.392,2.752-0.288,1.344,0.288,2.24,2.016,2.496-0.8,0.448-2.112,0.896-2.976,1.344-0.704,0.704-1.088,1.728-1.248,2.496-0.576,2.784,2.56,3.648,5.408,3.648,2.08,0,4.576-0.22401,6.688-1.184,2.112-0.928,3.872-2.528,4.224-4.256,0.76799-3.648-3.136-4.288-6.08-4.288-0.544,0-1.312,0.064-2.08,0.16-0.448,0.032-0.448,0.064-0.608,0.064-0.896,0-1.824-0.16001-1.536-1.536,0.128-0.512,0.224-0.896,0.672-1.44,0.41599,0.192,1.248,0.352,2.336,0.352,3.712,0,6.816-1.728,7.456-4.736m-4.256,0.032c-0.48,2.272-1.376,3.424-2.912,3.424-1.952,0-2.016-1.152-1.536-3.488,0.44799-2.112,1.248-3.488,2.912-3.488,1.92,0,2.048,1.152,1.536,3.552m-6.656,9.728c0.192,0.032,0.448,0.064,0.736,0.064,0.92799,0,1.792-0.032,2.24-0.032,1.792,0,3.936,0.16,3.456,2.368-0.416,1.952-2.656,3.264-5.408,3.264-1.088,0-3.104-0.67201-2.656-2.848,0.224-1.056,0.608-1.952,1.632-2.816"/>
   <path id="path3935" d="m-562.06,365.37c0.256-1.12,1.024-2.208,1.6-2.88,0.67199-0.736,1.568-0.928,1.92-0.928,0.86399,0,2.08,0.576,1.536,3.136-0.032,0.192-0.128,0.608-0.192,0.672h-4.864m7.648,4.672c-1.6,1.344-3.456,2.016-4.672,2.016-2.496,0-4.352-0.80001-3.52-4.736,0.032-0.224,0.064-0.352,0.096-0.512h8.192c0.76799,0,1.088-0.704,1.184-1.152,0.57599-2.72-0.16001-5.696-4.864-5.696-3.648,0-7.744,2.848-8.8,7.744-0.384,1.888-0.064,3.968,1.056,5.184,0.95999,1.12,2.592,1.6,4.864,1.6,2.208,0,4.64-1.12,6.72-3.456,0.096-0.416,0.064-0.992-0.256-0.992"/>
   <path id="path3937" d="m-541.61,360.35c0.67199,2.784,2.368,11.008,2.912,14.208l0.032,0.256c-1.536,2.368-2.784,4.544-4.736,6.944,0.352-0.096,1.76-0.16,2.08-0.16s1.248,0.064,1.536,0.16c2.08-4,12.64-19.264,14.144-21.408-0.32,0.096-1.056,0.096-1.376,0.096s-1.696,0-2.016-0.096c-1.696,3.232-3.744,6.784-5.76,9.856l-0.288-0.032c-0.704-3.36-1.312-6.528-1.696-9.824-0.416,0.096-1.568,0.096-2.016,0.096-0.416,0-2.368,0-2.816-0.096"/>
   <path id="path3939" d="m-525.23,367.61c-0.896,4.256,1.504,6.88,6.272,6.88,4.896,0,8.352-2.72,9.28-7.168,0.86399-4.032-0.73601-7.2-6.144-7.2-4.576,0-8.352,2.528-9.408,7.488m8.832-5.888c2.72,0,2.944,2.016,1.984,6.464-0.768,3.68-2.304,4.704-3.744,4.704-3.328,0-2.88-3.552-2.368-6.016,0.57599-2.784,1.376-5.152,4.128-5.152"/>
   <path id="path3941" d="m-497.47,372.12,0.064,0-0.256,2.048c-0.032,0.064,0.064,0.096,0.256,0.096,0.44799-0.032,1.408-0.096,1.856-0.096,0.41599,0,1.92,0.032,2.336,0.096l0.096-0.096c0.032-1.376,0.224-3.744,0.736-6.144l0.384-1.824c0.51199-2.4,0.864-4.064,1.536-5.76l-0.032-0.096s-1.344,0.096-2.464,0.096c-1.088,0-2.176-0.096-2.176-0.096l-0.064,0.096c-0.16,1.792-0.48001,3.328-1.024,5.76l-0.544,2.56c-0.384,1.856-2.816,3.264-4.256,3.264-0.96,0-1.824-0.32001-1.216-2.944l0.672-2.88c0.60799-2.4,0.928-4.16,1.504-5.76l-0.032-0.096s-1.28,0.096-2.4,0.096c-1.088,0-2.24-0.096-2.24-0.096l-0.064,0.096c-0.192,1.824-0.41601,3.456-0.992,5.76l-0.896,3.936c-0.48,2.208,0.16,4.352,3.328,4.352,1.312,0,3.68-0.44801,5.888-2.368"/>
   <path id="path3943" d="m-481.29,363-0.128-0.096c0.16-0.704,0.448-2.048,0.448-2.336,0-0.192-0.032-0.32-0.224-0.32-0.96,0.16-3.072,0.16-4.192,0.096l-0.064,0.096c-0.064,1.376-0.48001,3.84-0.992,6.208l-0.352,1.76c-0.512,2.4-0.92801,4.032-1.536,5.76v0.096s1.056-0.096,2.176-0.096c1.088,0,2.592,0.096,2.592,0.096l0.096-0.096c0.128-1.824,0.384-3.328,0.896-5.76l0.48-2.336c0.54399-2.464,2.816-2.848,3.296-2.848,0.60799,0,1.248,0.16,1.728,0.608l0.608-0.064,1.312-3.296-0.096-0.128c-0.512-0.16-0.99201-0.224-1.568-0.224-1.504,0-3.392,1.632-4.48,2.88"/>
   <path id="path3945" d="m-466.86,370.56-1.184,3.072c1.6,0.64,3.648,0.864,4.8,0.864,4.16,0,6.368-2.016,6.816-4.224,0.63999-2.88-1.44-3.776-3.456-4.992-0.928-0.544-1.696-1.12-1.472-2.144,0.192-0.896,0.64-1.568,1.888-1.568,1.568,0,2.176,1.504,2.4,2.4l0.896-0.032,1.216-2.88-0.064-0.096c-0.768-0.48-2.528-0.832-4.064-0.832-2.88,0-5.728,1.408-6.24,3.872-0.48,2.24,0.864,3.392,2.464,4.384,2.048,1.28,2.656,1.856,2.368,3.136-0.32,1.504-1.312,1.568-2.528,1.568-1.12,0-2.336-0.70401-2.88-2.56l-0.96,0.032"/>
   <path id="path3947" d="m-443.6,372.12,0.064,0-0.256,2.048c-0.032,0.064,0.064,0.096,0.256,0.096,0.44799-0.032,1.408-0.096,1.856-0.096,0.41599,0,1.92,0.032,2.336,0.096l0.096-0.096c0.032-1.376,0.224-3.744,0.736-6.144l0.384-1.824c0.51199-2.4,0.864-4.064,1.536-5.76l-0.032-0.096s-1.344,0.096-2.464,0.096c-1.088,0-2.176-0.096-2.176-0.096l-0.064,0.096c-0.16,1.792-0.48001,3.328-1.024,5.76l-0.544,2.56c-0.384,1.856-2.816,3.264-4.256,3.264-0.96,0-1.824-0.32001-1.216-2.944l0.672-2.88c0.60799-2.4,0.928-4.16,1.504-5.76l-0.032-0.096s-1.28,0.096-2.4,0.096c-1.088,0-2.24-0.096-2.24-0.096l-0.064,0.096c-0.192,1.824-0.41601,3.456-0.992,5.76l-0.896,3.936c-0.48,2.208,0.16,4.352,3.328,4.352,1.312,0,3.68-0.44801,5.888-2.368"/>
   <path id="path3949" d="m-428.31,365.15c1.088-1.696,2.976-2.944,4.064-2.944,1.952,0,2.144,2.24,1.44,5.632-0.672,3.072-2.496,5.056-4.288,5.056-0.8,0-1.632-0.16001-2.592-1.152l1.376-6.592m0.672-2.432-0.128-0.096c0.16-0.704,0.384-1.76,0.384-2.048,0-0.192-0.032-0.32-0.224-0.32-0.96,0.16-3.072,0.16-4.192,0.096l-0.064,0.096c-0.064,1.376-0.48001,3.84-0.992,6.208l-1.792,8.544c-0.512,2.4-1.056,4.704-1.696,6.4l0.032,0.096s1.248-0.096,2.368-0.096c1.088,0,2.4,0.096,2.4,0.096l0.064-0.096c0.128-1.824,0.544-4,1.056-6.4l0.32-1.6c0.92799,0.672,2.048,0.896,3.232,0.896,4.032,0,7.904-3.328,8.832-7.84,0.54399-2.528-0.064-4.192-1.28-5.376-0.768-0.736-1.696-1.152-3.296-1.152-1.376,0-3.008,0.448-5.024,2.592"/>
   <path id="path3951" d="m-409.56,365.15c1.088-1.696,2.976-2.944,4.064-2.944,1.952,0,2.144,2.24,1.44,5.632-0.672,3.072-2.496,5.056-4.288,5.056-0.8,0-1.632-0.16001-2.592-1.152l1.376-6.592m0.672-2.432-0.128-0.096c0.16-0.704,0.384-1.76,0.384-2.048,0-0.192-0.032-0.32-0.224-0.32-0.96,0.16-3.072,0.16-4.192,0.096l-0.064,0.096c-0.064,1.376-0.48001,3.84-0.992,6.208l-1.792,8.544c-0.512,2.4-1.056,4.704-1.696,6.4l0.032,0.096s1.248-0.096,2.368-0.096c1.088,0,2.4,0.096,2.4,0.096l0.064-0.096c0.128-1.824,0.544-4,1.056-6.4l0.32-1.6c0.92799,0.672,2.048,0.896,3.232,0.896,4.032,0,7.904-3.328,8.832-7.84,0.54399-2.528-0.064-4.192-1.28-5.376-0.768-0.736-1.696-1.152-3.296-1.152-1.376,0-3.008,0.448-5.024,2.592"/>
   <path id="path3953" d="m-396.48,367.61c-0.896,4.256,1.504,6.88,6.272,6.88,4.896,0,8.352-2.72,9.28-7.168,0.86399-4.032-0.73601-7.2-6.144-7.2-4.576,0-8.352,2.528-9.408,7.488m8.832-5.888c2.72,0,2.944,2.016,1.984,6.464-0.768,3.68-2.304,4.704-3.744,4.704-3.328,0-2.88-3.552-2.368-6.016,0.57599-2.784,1.376-5.152,4.128-5.152"/>
   <path id="path3955" d="m-371.48,363-0.128-0.096c0.16-0.704,0.448-2.048,0.448-2.336,0-0.192-0.032-0.32-0.224-0.32-0.96,0.16-3.072,0.16-4.192,0.096l-0.064,0.096c-0.064,1.376-0.48001,3.84-0.992,6.208l-0.352,1.76c-0.512,2.4-0.92801,4.032-1.536,5.76v0.096s1.056-0.096,2.176-0.096c1.088,0,2.592,0.096,2.592,0.096l0.096-0.096c0.128-1.824,0.384-3.328,0.896-5.76l0.48-2.336c0.54399-2.464,2.816-2.848,3.296-2.848,0.60799,0,1.248,0.16,1.728,0.608l0.608-0.064,1.312-3.296-0.096-0.128c-0.512-0.16-0.99201-0.224-1.568-0.224-1.504,0-3.392,1.632-4.48,2.88"/>
   <path id="path3957" d="m-364.22,362.04,2.112,0-0.896,3.776c-0.448,1.92-1.056,4.576-1.28,5.536-0.32,1.504,0.384,3.136,2.432,3.136,1.664,0,3.392-0.288,4.96-1.12,0.096-0.512,0.032-1.088-0.256-1.312-0.8,0.352-1.12,0.384-1.952,0.384-0.864,0-0.928-1.152-0.672-2.464,0.224-0.96,0.544-2.592,0.992-4.512l0.8-3.424h2.912c0.32,0,0.8-0.128,0.864-0.416l0.192-0.992c0.032-0.128-0.032-0.192-0.192-0.192h-3.424c0.51199-2.4,0.576-2.592,1.088-4.448,0.064-0.224-0.032-0.32-0.224-0.32-0.864,0.32-3.104,1.152-4.448,1.44l-0.096,0.096c-0.064,1.344-0.064,1.376-0.448,3.232h-1.856c-0.32,0-0.832,0.64-0.928,1.088-0.032,0.224,0.064,0.512,0.32,0.512"/>
   <path id="path3959" d="m-336.78,367.07-0.704,2.976c-0.096,0.416-0.512,1.216-0.8,1.44-0.896,0.736-1.696,1.088-2.592,1.088-0.96,0-1.44-0.96-1.28-1.824,0.256-1.152,0.96-2.56,2.656-3.008l2.72-0.672m3.072,4.544c0.192-0.928,1.376-5.952,1.44-6.304,0.41599-1.92,0.28799-3.104-0.448-3.904-0.8-0.896-2.976-1.28-4.512-1.28-2.304,0-5.28,1.024-6.176,1.696l-0.128,0.128,0.128,2.4,1.056,0.032c1.408-1.6,3.008-2.528,4.448-2.528,1.408,0,2.048,0.8,1.536,3.264-0.064,0.224-0.192,0.352-0.288,0.384l-3.936,0.992c-3.232,0.736-5.44,2.368-5.92,4.544-0.448,2.208,1.408,3.456,3.648,3.456,1.248,0,3.04-0.41601,4.8-1.856h0.064c0.16,1.312,0.736,1.856,2.112,1.856,1.248,0,2.944-0.32,4.032-1.056,0.032-0.256,0-0.512-0.16-0.672-1.28,0-1.952-0.096-1.696-1.152"/>
   <path id="path3961" d="m-328.4,362.04,2.112,0-0.896,3.776c-0.448,1.92-1.056,4.576-1.28,5.536-0.32,1.504,0.384,3.136,2.432,3.136,1.664,0,3.392-0.288,4.96-1.12,0.096-0.512,0.032-1.088-0.256-1.312-0.8,0.352-1.12,0.384-1.952,0.384-0.864,0-0.928-1.152-0.672-2.464,0.224-0.96,0.544-2.592,0.992-4.512l0.8-3.424h2.912c0.32,0,0.8-0.128,0.864-0.416l0.192-0.992c0.032-0.128-0.032-0.192-0.192-0.192h-3.424c0.51199-2.4,0.576-2.592,1.088-4.448,0.064-0.224-0.032-0.32-0.224-0.32-0.864,0.32-3.104,1.152-4.448,1.44l-0.096,0.096c-0.064,1.344-0.064,1.376-0.448,3.232h-1.856c-0.32,0-0.832,0.64-0.928,1.088-0.032,0.224,0.064,0.512,0.32,0.512"/>
  </g>
  <g id="g3872" transform="matrix(-1.1374336,0.01996939,0.01996939,1.1374336,-826.4164,40.149812)" stroke="#000" stroke-linecap="butt" stroke-miterlimit="4" stroke-dasharray="none" stroke-width="1.5">
   <path id="path3874" stroke-linejoin="miter" d="m-261.17,400.82c0.1661,1.7237,0.0903,2.9194,0.0903,2.9194-2.288,1.5395-2.6791,3.2106-2.1328,2.9962,1.0392-0.40794,4.8719-1.2359,4.8002-1.5638-0.20689-0.94706-1.521-1.5528-2.6674-1.4324" fill="none"/>
   <path id="path3876" stroke-linejoin="bevel" d="m-253.8,375.39c0.28518-0.28518-3.5578-3.3318-1.5186-7.4825l-16.536,4.0221c-3.1094,4.1514,0.89514,7.2142,1.3541,7.6731,1.487-0.31884,12.426-2.9138,16.7-4.2127z" fill="url(#linearGradient3914)"/>
   <path id="path3878" stroke-linejoin="miter" d="m-269.85,372.97c-1.2034,2.9305,0.89393,4.4925,1.328,4.7362" fill="none"/>
   <path id="path3880" stroke-linejoin="miter" d="m-266.12,372.09c-1.2034,2.9305,0.89393,4.4925,1.328,4.7362" fill="none"/>
   <path id="path3882" stroke-linejoin="miter" d="m-262.28,371.1c-1.2034,2.9305,0.89393,4.4925,1.328,4.7362" fill="none"/>
   <path id="path3884" stroke-linejoin="miter" d="m-258.57,370.23c-1.2034,2.9305,0.89393,4.4925,1.328,4.7362" fill="none"/>
   <path id="path3886" stroke-linejoin="miter" d="M452.78,71.739,451.16,47.49" transform="translate(-713.85297,330.44534)" fill="none"/>
  </g>
  <path id="path3049" stroke-linejoin="miter" d="m-600.01,468.47c-4.1818-2.9911-8.4356,2.907-9.3716,6.6508-3.0306,12.123,22.597,11.561,18.441-0.90693-0.80318-2.4095-3.7147-4.2541-6.0462-4.837-3.6078-0.90197-5.174-0.71165-8.4647,0.60462" stroke="#000" stroke-linecap="butt" stroke-miterlimit="4" stroke-dasharray="none" stroke-width="1.70641339" fill="none"/>
  <path id="path3051" stroke-linejoin="miter" d="m-602.12,484.49c-1.0524,12.328-6.6508,30.341-6.6508,38.998" stroke="#000" stroke-linecap="butt" stroke-miterlimit="4" stroke-dasharray="none" stroke-width="1.70641339" fill="none"/>
  <path id="path3053" stroke-linejoin="miter" d="m-603.55,496.65c-4.3628-2.7253-26.767-0.98382-24.222-7.8445" stroke="#000" stroke-linecap="butt" stroke-miterlimit="4" stroke-dasharray="none" stroke-width="1.70641339" fill="none"/>
  <path id="path3055" stroke-linejoin="miter" d="m-603.33,497.79c8.4895-3.7766,23.082-9.1755,26.301-12.395" stroke="#000" stroke-linecap="butt" stroke-miterlimit="4" stroke-dasharray="none" stroke-width="1.70641339" fill="none"/>
  <path id="path3049-6" stroke-linejoin="miter" d="m-545.31,467.75c4.1818-2.9911,8.4356,2.907,9.3716,6.6508,3.0306,12.123-22.597,11.561-18.441-0.90693,0.80317-2.4095,3.7147-4.2541,6.0462-4.837,3.6078-0.90197,5.174-0.71165,8.4647,0.60462" stroke="#000" stroke-linecap="butt" stroke-miterlimit="4" stroke-dasharray="none" stroke-width="1.70641339" fill="none"/>
  <path id="path3051-2" stroke-linejoin="miter" d="m-543.19,483.77c1.0524,12.328,6.6508,30.341,6.6508,38.998" stroke="#000" stroke-linecap="butt" stroke-miterlimit="4" stroke-dasharray="none" stroke-width="1.70641339" fill="none"/>
  <path id="path3053-8" stroke-linejoin="miter" d="m-539.86,496.77c2.8286-4.2965,23.917-12.057,18.743-17.232" stroke="#000" stroke-linecap="butt" stroke-miterlimit="4" stroke-dasharray="none" stroke-width="1.70641339" fill="none"/>
  <path id="path3055-4" stroke-linejoin="miter" d="m-541.98,497.08c-8.4895-3.7766-23.082-9.1755-26.301-12.395" stroke="#000" stroke-linecap="butt" stroke-miterlimit="4" stroke-dasharray="none" stroke-width="1.70641339" fill="none"/>
  <path id="path3182" stroke-linejoin="miter" d="m-577,477.75z" stroke="#000" stroke-linecap="butt" stroke-miterlimit="4" stroke-dasharray="none" stroke-width="1.70641339" fill="none"/>
  <path id="path3184" stroke-linejoin="miter" d="m-572.16,476.16c0.18954,4.0222,2.5012,9.3496,4.5999,8.6529,2.3304-0.77361-2.8074-10.449-4.5999-8.6529z" stroke="#000" stroke-linecap="butt" stroke-miterlimit="4" stroke-dasharray="none" stroke-width="1.70641339" fill="none"/>
  <g id="g3821" transform="matrix(1.1375096,-0.01503515,0.01503515,1.1375096,-335.17392,36.775294)" stroke="#000" stroke-linecap="butt" stroke-miterlimit="4" stroke-dasharray="none" stroke-width="1.5">
   <path id="path3080" stroke-linejoin="miter" d="m-261.17,400.82c0.1661,1.7237,0.0903,2.9194,0.0903,2.9194-2.288,1.5395-2.6791,3.2106-2.1328,2.9962,1.0392-0.40794,4.8719-1.2359,4.8002-1.5638-0.20689-0.94706-1.521-1.5528-2.6674-1.4324" fill="none"/>
   <path id="path3082" stroke-linejoin="bevel" d="m-253.8,375.39c0.28518-0.28518-3.5578-3.3318-1.5186-7.4825l-16.536,4.0221c-3.1094,4.1514,0.89514,7.2142,1.3541,7.6731,1.487-0.31884,12.426-2.9138,16.7-4.2127z" fill="url(#linearGradient3906)"/>
   <path id="path3098" stroke-linejoin="miter" d="m-269.85,372.97c-1.2034,2.9305,0.89393,4.4925,1.328,4.7362" fill="none"/>
   <path id="path3037" stroke-linejoin="miter" d="m-266.12,372.09c-1.2034,2.9305,0.89393,4.4925,1.328,4.7362" fill="none"/>
   <path id="path3039" stroke-linejoin="miter" d="m-262.28,371.1c-1.2034,2.9305,0.89393,4.4925,1.328,4.7362" fill="none"/>
   <path id="path3041" stroke-linejoin="miter" d="m-258.57,370.23c-1.2034,2.9305,0.89393,4.4925,1.328,4.7362" fill="none"/>
   <path id="path3819" stroke-linejoin="miter" d="M452.78,71.739,451.16,47.49" transform="translate(-713.85297,330.44534)" fill="none"/>
  </g>
  <path id="path3182-2" stroke-linejoin="miter" d="m-628.8,488.16z" stroke="#000" stroke-linecap="butt" stroke-miterlimit="4" stroke-dasharray="none" stroke-width="1.70641339" fill="#FFF"/>
  <path id="path3870" stroke-linejoin="miter" d="m-522.73,479.06z" stroke="#000" stroke-linecap="butt" stroke-miterlimit="4" stroke-dasharray="none" stroke-width="1.70641339" fill="#FFF"/>
 </g>
</svg>
