<?xml version="1.0" encoding="UTF-8" standalone="no"?>
<!-- Created with Inkscape (http://www.inkscape.org/) -->

<svg
   xmlns:dc="http://purl.org/dc/elements/1.1/"
   xmlns:cc="http://creativecommons.org/ns#"
   xmlns:rdf="http://www.w3.org/1999/02/22-rdf-syntax-ns#"
   xmlns:svg="http://www.w3.org/2000/svg"
   xmlns="http://www.w3.org/2000/svg"
   xmlns:xlink="http://www.w3.org/1999/xlink"
   xmlns:sodipodi="http://sodipodi.sourceforge.net/DTD/sodipodi-0.dtd"
   xmlns:inkscape="http://www.inkscape.org/namespaces/inkscape"
   version="1.2"
   width="354.384"
   height="188.56099"
   id="svg2"
   inkscape:version="0.48.3.1 r9886"
   sodipodi:docname="snowdrift-pledge-full.svg"
   inkscape:export-filename="/home/aaron/Dropbox/Snowdrift artwork/Logo/rendered/snowdrift-pledge-full.png"
   inkscape:export-xdpi="72"
   inkscape:export-ydpi="72">
  <sodipodi:namedview
     pagecolor="#ffffff"
     bordercolor="#666666"
     borderopacity="1"
     objecttolerance="10"
     gridtolerance="10"
     guidetolerance="10"
     inkscape:pageopacity="0"
     inkscape:pageshadow="2"
     inkscape:window-width="903"
     inkscape:window-height="592"
     id="namedview102"
     showgrid="false"
     fit-margin-top="4"
     fit-margin-left="4"
     fit-margin-bottom="4"
     fit-margin-right="4"
     inkscape:zoom="0.89047196"
     inkscape:cx="177.192"
     inkscape:cy="93.251061"
     inkscape:window-x="0"
     inkscape:window-y="38"
     inkscape:window-maximized="0"
     inkscape:current-layer="svg2" />
  <defs
     id="defs4">
    <linearGradient
       id="linearGradient3908">
      <stop
         id="stop3910"
         style="stop-color:#e2e3db;stop-opacity:1"
         offset="0" />
      <stop
         id="stop3912"
         style="stop-color:#e2e3db;stop-opacity:0"
         offset="1" />
    </linearGradient>
    <linearGradient
       id="linearGradient3898">
      <stop
         id="stop3900"
         style="stop-color:#e2e3db;stop-opacity:1"
         offset="0" />
      <stop
         id="stop3902"
         style="stop-color:#e2e3db;stop-opacity:0"
         offset="1" />
    </linearGradient>
    <linearGradient
       id="linearGradient3890">
      <stop
         id="stop3892"
         style="stop-color:#e2e3db;stop-opacity:1"
         offset="0" />
      <stop
         id="stop3894"
         style="stop-color:#e2e3db;stop-opacity:0"
         offset="1" />
    </linearGradient>
    <linearGradient
       id="linearGradient3864">
      <stop
         id="stop3866"
         style="stop-color:#333333;stop-opacity:1"
         offset="0" />
    </linearGradient>
    <linearGradient
       id="linearGradient4162">
      <stop
         id="stop4164"
         style="stop-color:#ffffff;stop-opacity:1"
         offset="0" />
    </linearGradient>
    <linearGradient
       id="linearGradient4134">
      <stop
         id="stop4136"
         style="stop-color:#ffffff;stop-opacity:1"
         offset="0" />
    </linearGradient>
    <linearGradient
       id="linearGradient4128">
      <stop
         id="stop4130"
         style="stop-color:#ffffff;stop-opacity:1"
         offset="0" />
    </linearGradient>
    <linearGradient
       id="linearGradient4122">
      <stop
         id="stop4124"
         style="stop-color:#ffffff;stop-opacity:1"
         offset="0" />
    </linearGradient>
    <linearGradient
       id="linearGradient4096">
      <stop
         id="stop4098"
         style="stop-color:#ffffff;stop-opacity:1"
         offset="0" />
    </linearGradient>
    <radialGradient
       cx="-480.72501"
       cy="443.14178"
       r="10.70114"
       fx="-480.72501"
       fy="443.14178"
       id="radialGradient4102"
       xlink:href="#linearGradient4096"
       gradientUnits="userSpaceOnUse"
       gradientTransform="matrix(1.0642288,0.25691514,-0.11258761,0.46637568,93.602761,360.43512)" />
    <linearGradient
       x1="-586.63373"
       y1="457.53033"
       x2="-578.33331"
       y2="456.95758"
       id="linearGradient4126"
       xlink:href="#linearGradient4122"
       gradientUnits="userSpaceOnUse"
       gradientTransform="translate(2.2687707,-12.154128)" />
    <linearGradient
       x1="-630.48102"
       y1="457.80765"
       x2="-604.69257"
       y2="457.80765"
       id="linearGradient4132"
       xlink:href="#linearGradient4128"
       gradientUnits="userSpaceOnUse"
       gradientTransform="matrix(1,0,0,1.0619089,-18.150165,-86.438213)" />
    <linearGradient
       x1="-566.92944"
       y1="414.81769"
       x2="-544.88379"
       y2="414.81769"
       id="linearGradient4166"
       xlink:href="#linearGradient4162"
       gradientUnits="userSpaceOnUse" />
    <linearGradient
       x1="-273.52643"
       y1="373.75037"
       x2="-253.28392"
       y2="373.75037"
       id="linearGradient3906"
       xlink:href="#linearGradient3898"
       gradientUnits="userSpaceOnUse"
       spreadMethod="pad" />
    <linearGradient
       x1="-252.70134"
       y1="374.04568"
       x2="-273.40765"
       y2="375.75604"
       id="linearGradient3914"
       xlink:href="#linearGradient3908"
       gradientUnits="userSpaceOnUse" />
  </defs>
  <metadata
     id="metadata7">
    <rdf:RDF>
      <cc:Work
         rdf:about="">
        <dc:format>image/svg+xml</dc:format>
        <dc:type
           rdf:resource="http://purl.org/dc/dcmitype/StillImage" />
        <dc:title />
      </cc:Work>
    </rdf:RDF>
  </metadata>
  <rect
     style="fill:#ffffff;fill-opacity:1;stroke:#000000;stroke-width:0.5;stroke-linejoin:miter;stroke-miterlimit:4;stroke-opacity:1;stroke-dasharray:none"
     id="rect3080"
     width="345.884"
     height="179.67999"
     x="4.25"
     y="4.25" />
  <g
     transform="translate(660.96099,-339.77767)"
     id="layer1">
    <g
       id="g4236" />
    <g
       transform="translate(6,-4)"
       id="g3106">
      <g
         transform="translate(311.42857,100)"
         id="flowRoot2985"
         style="font-size:12px;font-style:normal;font-variant:normal;font-weight:bold;font-stretch:normal;line-height:125%;letter-spacing:0px;word-spacing:0px;fill:#000000;fill-opacity:1;stroke:none;font-family:Linux Biolinum Shadow O;-inkscape-font-specification:Linux Biolinum Shadow O Bold">
        <path
           d="m -947.50275,342.7737 c -4.392,0 -10.44,-4.75201 -12.96,-8.568 l -1.872,0.072 c -0.288,2.59199 -0.864,6.624 -1.44,8.784 l 0.144,0.216 c 0,0 6.69601,3.24 15.48,3.24 10.58399,0 17.208,-6.76801 17.208,-14.112 0,-7.84799 -8.49601,-11.88001 -14.256,-14.616 -3.888,-1.8 -7.344,-3.52801 -7.344,-8.856 0,-3.6 2.592,-6.984 6.552,-6.984 4.32,0 8.568,5.112 10.44,8.64 l 2.16,-0.072 c 0.288,-2.592 0.792,-6.48 1.44,-8.64 l -0.144,-0.216 c 0,0 -5.90401,-3.24 -14.688,-3.24 -8.13599,0 -15.552,4.82401 -15.552,12.456 0,2.80799 0.504,5.544 2.232,7.776 3.312,4.39199 8.856,7.056 13.032,9.144 3.384,1.728 6.264,4.608 6.264,7.56 0,5.11199 -2.376,7.416 -6.696,7.416"
           id="path3908"
           style="font-size:72px;font-family:Linux Biolinum O;-inkscape-font-specification:Linux Biolinum O Bold"
           inkscape:connector-curvature="0" />
        <path
           d="m -889.761,332.8377 0,-7.992 c 0,-7.56 -3.52801,-10.656 -10.008,-10.656 -3.672,0 -7.992,2.232 -11.304,6.48 l -0.36,-0.216 c 0,-1.584 0,-4.608 -0.072,-5.256 -0.144,-0.432 -0.216,-0.72 -0.648,-0.72 -2.088,0.36 -6.84,0.36 -9.36,0.216 l -0.144,0.216 c 0.504,3.09599 0.792,8.64 0.792,13.968 l 0,3.96 c 0,5.39999 -0.216,9.144 -0.792,12.96 l 0.144,0.216 c 0,0 3.384,-0.216 5.904,-0.216 2.448,0 4.464,0.216 4.464,0.216 l 0.216,-0.216 c -0.36,-4.104 -0.432,-7.48801 -0.432,-12.96 l 0,-7.344 c 2.736,-3.6 5.76,-5.76 8.352,-5.76 1.944,0 3.744,1.44 3.744,6.696 l 0,6.408 c 0,5.39999 0,9.144 -0.432,12.96 l 0.144,0.216 c 0,0 2.304,-0.216 4.824,-0.216 2.448,0 5.616,0.216 5.616,0.216 l 0.144,-0.216 c -0.648,-4.104 -0.792,-7.48801 -0.792,-12.96"
           id="path3910"
           style="font-size:72px;font-family:Linux Biolinum O;-inkscape-font-specification:Linux Biolinum O Bold"
           inkscape:connector-curvature="0" />
        <path
           d="m -880.50112,331.0377 c 0,9.57599 6.69601,15.48 17.42399,15.48 11.01599,0 17.424,-6.12001 17.424,-16.128 0,-9.07199 -5.11201,-16.2 -17.28,-16.2 -10.29598,0 -17.56799,5.68801 -17.56799,16.848 m 17.06399,-13.248 c 6.12,0 7.56001,4.53601 7.56001,14.544 0,8.27999 -2.95201,10.584 -6.192,10.584 -7.488,0 -8.208,-7.99201 -8.208,-13.536 0,-6.264 0.648,-11.592 6.83999,-11.592"
           id="path3912"
           style="font-size:72px;font-family:Linux Biolinum O;-inkscape-font-specification:Linux Biolinum O Bold"
           inkscape:connector-curvature="0" />
        <path
           d="m -829.623,346.0857 c 0.648,-0.216 3.672,-0.216 4.32,-0.216 0.648,0 3.888,0 4.464,0.216 1.8,-5.544 4.032,-11.37601 6.336,-16.776 2.232,5.54399 4.392,11.088 6.336,16.704 0.648,-0.216 3.816,-0.216 4.464,-0.216 0.648,0 2.808,0 3.384,0.216 3.744,-10.22399 8.28,-21.02401 12.6,-31.32 -0.576,0.216 -3.096,0.216 -3.744,0.216 -0.648,0 -2.376,0 -2.952,-0.216 -2.448,7.55999 -4.896,16.344 -7.704,23.184 l -0.504,0 c -2.88,-7.70399 -4.68,-15.48001 -6.912,-23.184 -0.864,0.216 -4.032,0.216 -4.968,0.216 -1.008,0 -4.968,0 -5.976,-0.216 1.152,2.95199 2.376,5.832 3.528,8.784 -1.872,5.61599 -3.888,11.304 -5.832,15.912 l -0.72,0 c -3.24,-8.27999 -5.256,-16.34401 -7.632,-24.624 -0.864,0.216 -3.672,0.216 -4.608,0.216 -1.008,0 -5.328,0 -6.336,-0.216 4.32,10.58399 8.856,20.80801 12.456,31.32"
           id="path3914"
           style="font-size:72px;font-family:Linux Biolinum O;-inkscape-font-specification:Linux Biolinum O Bold"
           inkscape:connector-curvature="0" />
        <path
           d="m -759.56587,336.2217 c -1.8,4.60799 -4.10401,6.12 -6.98401,6.12 -3.88799,0 -6.47999,-3.45601 -6.47999,-12.456 0,-9.71999 3.096,-12.096 6.62399,-12.096 3.384,0 6.04801,2.52 6.84001,6.192 l 0,12.24 m 0,5.688 0.144,0 0.36,3.888 c 0,0.144 0.216,0.216 0.648,0.216 0.93599,-0.072 3.528,-0.216 4.53599,-0.216 0.936,0 4.10401,0.072 5.04001,0.216 l 0.14399,-0.216 c -0.57599,-3.096 -1.36799,-8.42401 -1.36799,-13.824 l 0,-22.176 c 0,-5.328 0.288,-9.07201 0.864,-13.536 0,-0.504 -0.36001,-0.72 -0.792,-0.72 -1.872,0.72 -7.41601,2.16 -10.29601,2.376 l -0.144,0.216 c 0.504,3.09599 0.86401,8.064 0.86401,13.536 l 0,5.76 c -1.368,-1.944 -4.75201,-3.24 -6.76801,-3.24 -4.82399,0 -7.488,1.008 -10.72799,3.384 -4.464,3.23999 -6.192,8.496 -6.192,13.608 0,8.85599 5.4,15.336 13.39199,15.336 4.536,0 8.35201,-1.22401 10.29601,-4.608"
           id="path3916"
           style="font-size:72px;font-family:Linux Biolinum O;-inkscape-font-specification:Linux Biolinum O Bold"
           inkscape:connector-curvature="0" />
        <path
           d="m -728.59687,320.6697 -0.36,-0.216 c 0,-1.584 -10e-6,-4.608 -0.072,-5.256 -0.144,-0.432 -0.21601,-0.72 -0.648,-0.72 -2.088,0.36 -6.84001,0.36 -9.36,0.216 l -0.14401,0.216 c 0.504,3.09599 0.79201,8.64 0.79201,13.968 l 0,3.96 c 0,5.39999 -0.14401,9.072 -0.72,12.96 l 0.072,0.216 c 0,0 2.304,-0.216 4.82399,-0.216 2.448,0 5.90401,0.216 5.90401,0.216 l 0.14399,-0.216 c -0.57599,-4.104 -0.71999,-7.48801 -0.71999,-12.96 l 0,-5.256 c 0,-5.544 4.896,-6.408 6.048,-6.408 1.36799,0 2.88,0.36 4.17599,1.368 l 1.29601,-0.144 1.43999,-7.416 -0.28799,-0.288 c -1.224,-0.36 -2.37601,-0.504 -3.672,-0.504 -3.384,0 -6.84001,3.672 -8.712,6.48"
           id="path3918"
           style="font-size:72px;font-family:Linux Biolinum O;-inkscape-font-specification:Linux Biolinum O Bold"
           inkscape:connector-curvature="0" />
        <path
           d="m -708.58987,302.0937 c 0,2.87999 2.376,5.112 5.39999,5.112 3.024,0 5.4,-2.23201 5.4,-5.112 0,-2.88 -2.376,-5.112 -5.4,-5.112 -3.02399,0 -5.39999,2.232 -5.39999,5.112 m 0.648,26.784 0,3.96 c 0,5.39999 -0.14401,9.072 -0.72,12.96 l 0.144,0.216 c 2.15999,-0.144 2.808,-0.216 5.32799,-0.216 2.448,0 3.16801,0.072 5.328,0.216 l 0.144,-0.216 c -0.57599,-4.104 -0.71999,-7.48801 -0.71999,-12.96 l 0,-4.752 c 0,-5.4 0.36,-8.42401 0.71999,-12.816 0,-0.504 -0.216,-0.72 -0.64799,-0.72 -1.008,0.144 -2.95201,0.36 -4.96801,0.36 -1.87199,0 -3.816,-0.144 -5.11199,-0.216 l -0.216,0.288 c 0.57599,3.09599 0.72,8.496 0.72,13.896"
           id="path3920"
           style="font-size:72px;font-family:Linux Biolinum O;-inkscape-font-specification:Linux Biolinum O Bold"
           inkscape:connector-curvature="0" />
        <path
           d="m -680.0385,300.5097 c -3.168,3.31199 -5.328,7.848 -5.328,12.24 l 0,2.16 -3.456,0 c -1.296,0 -1.656,0.864 -1.656,1.44 l 0,1.728 c 0,0.36 0.072,0.432 0.36,0.432 l 4.752,0 0,12.888 c 0,5.39999 0,10.728 -0.504,14.4 l 0.072,0.216 c 0,0 2.88,-0.216 5.4,-0.216 2.448,0 4.968,0.216 4.968,0.216 l 0.144,-0.216 c -0.504,-4.176 -0.576,-9.00001 -0.576,-14.4 l 0,-12.888 9.72,0 0.576,0 4.176,0 -0.216,8.496 c -0.144,4.31999 -0.216,10.296 -0.216,12.456 0,3.38399 2.376,7.056 6.984,7.056 3.744,0 7.488,-0.648 10.584,-2.52 0,-1.152 -0.432,-2.448 -1.224,-2.952 -1.584,0.792 -2.304,0.864 -4.176,0.864 -1.944,0 -2.664,-2.59201 -2.664,-5.544 0,-2.16 -0.072,-5.83201 0.072,-10.152 l 0.144,-7.704 6.552,0 c 0.72,0 1.728,-0.288 1.728,-0.936 l 0,-2.232 c 0,-0.288 -0.216,-0.432 -0.576,-0.432 l -7.704,0 c 0,-5.4 0.072,-5.83201 0.36,-10.008 0,-0.504 -0.216,-0.72 -0.648,-0.72 -1.8,0.72 -6.48,2.592 -9.36,3.24 l -0.144,0.216 c 0.504,3.02399 0.504,3.096 0.504,7.272 l -3.096,0 -1.08,0 -10.296,0 0,-0.72 c 0,-1.8 -0.36,-5.328 -0.36,-6.912 0,-3.96 2.52,-6.768 6.408,-6.768 2.088,0 3.096,1.8 3.888,3.24 l 2.16,-0.072 c 0.504,-1.944 0.864,-5.904 1.656,-7.272 l -0.072,-0.216 c -0.576,-0.36 -2.592,-0.648 -3.96,-0.648 -5.75999,0 -10.872,1.872 -13.896,4.968"
           id="path3922"
           style="font-size:72px;font-family:Linux Biolinum O;-inkscape-font-specification:Linux Biolinum O Bold"
           inkscape:connector-curvature="0" />
      </g>
      <path
         d="m -553.06347,410.23082 c -11.07164,-4.85035 -23.4779,19.80544 -0.60181,4.98594 1.70457,-1.10425 4.76518,1.33278 7.82353,-0.77327 4.33593,-2.98581 -5.14048,-4.7378 -7.22172,-4.21267 z"
         id="path3186"
         style="fill:url(#linearGradient4166);fill-opacity:1;stroke:#000000;stroke-width:1px;stroke-linecap:butt;stroke-linejoin:miter;stroke-opacity:1"
         inkscape:connector-curvature="0" />
      <path
         d="m -573.93079,445.80289 c -0.28816,-0.007 -2.07107,-4.47432 -5.78899,-2.86545 -11.73959,5.86979 5.09028,6.47357 5.78899,2.86545 z"
         id="path3190"
         style="fill:url(#linearGradient4126);fill-opacity:1;stroke:#000000;stroke-width:1px;stroke-linecap:butt;stroke-linejoin:miter;stroke-opacity:1"
         inkscape:connector-curvature="0" />
      <path
         d="m -640.41145,395.67955 c -5.21534,0 -10.88095,8.18623 -5.93259,8.18623 1.2304,0 9.83119,-2.77101 10.83258,-3.8344 2.82381,-2.99862 9.74085,2.43746 12.03621,0 1.63376,-1.73491 -7.33251,-6.05486 -17.1056,-4.35182"
         id="path3198"
         style="fill:url(#linearGradient4132);fill-opacity:1;stroke:#000000;stroke-width:1.03048968px;stroke-linecap:butt;stroke-linejoin:miter;stroke-opacity:1"
         inkscape:connector-curvature="0" />
      <path
         d="m -468.33071,439.19001 c -6.39955,-1.01553 -11.75374,5.09019 -9.28133,7.56259 1.93732,1.93733 8.10592,1.29609 12.94388,1.25623 6.89699,-0.0568 5.42022,-5.66031 -3.77666,-8.93352"
         id="path4094"
         style="fill:url(#radialGradient4102);fill-opacity:1;stroke:#000000;stroke-width:1px;stroke-linecap:butt;stroke-linejoin:miter;stroke-opacity:1"
         inkscape:connector-curvature="0" />
    </g>
    <g
       transform="translate(469.44361,152)"
       id="flowRoot3098"
       style="font-size:12px;font-style:normal;font-variant:normal;font-weight:bold;font-stretch:normal;line-height:125%;letter-spacing:0px;word-spacing:0px;fill:#000000;fill-opacity:1;stroke:none;font-family:Linux Biolinum Shadow O;-inkscape-font-specification:Linux Biolinum Shadow O Bold">
      <path
         d="m -961.83075,342.3417 c 0.792,3.02399 2.016,4.248 4.968,4.896 l 0.288,0 c 2.592,-0.648 3.96,-1.94401 4.968,-4.896 l 0,-0.36 c -0.936,-2.592 -2.304,-3.96 -4.968,-4.896 l -0.288,0 c -2.736,1.08 -4.032,2.52 -4.968,4.896 l 0,0.36"
         id="path3897"
         style="font-size:72px;font-family:Linux Biolinum O;-inkscape-font-specification:Linux Biolinum O Bold"
         inkscape:connector-curvature="0" />
      <path
         d="m -926.832,317.7897 c 2.736,0 4.896,2.088 6.48,6.048 l 2.016,-0.072 1.728,-6.984 -0.144,-0.216 c -2.232,-1.152 -7.128,-2.376 -10.728,-2.376 -9.64799,0 -17.496,5.76001 -17.496,17.064 0,4.53599 1.44,8.064 3.888,10.656 2.52,2.80799 7.12801,4.608 12.6,4.608 5.47199,0 8.64,-1.15201 11.88,-3.888 -0.216,-0.648 -0.36,-1.656 -0.36,-2.808 l -1.152,-0.36 c -2.016,2.44799 -5.544,3.456 -8.424,3.456 -2.088,0 -4.968,-1.8 -6.264,-3.888 -1.296,-2.088 -2.16,-5.47201 -2.16,-9.648 0,-3.384 0.504,-6.12 1.728,-8.136 1.368,-2.232 3.816,-3.456 6.408,-3.456"
         id="path3899"
         style="font-size:72px;font-family:Linux Biolinum O;-inkscape-font-specification:Linux Biolinum O Bold"
         inkscape:connector-curvature="0" />
      <path
         d="m -911.298,331.0377 c 0,9.57599 6.69601,15.48 17.424,15.48 11.01599,0 17.424,-6.12001 17.424,-16.128 0,-9.07199 -5.11201,-16.2 -17.28,-16.2 -10.29599,0 -17.568,5.68801 -17.568,16.848 m 17.064,-13.248 c 6.11999,0 7.56,4.53601 7.56,14.544 0,8.27999 -2.952,10.584 -6.192,10.584 -7.48799,0 -8.208,-7.99201 -8.208,-13.536 0,-6.264 0.64801,-11.592 6.84,-11.592"
         id="path3901"
         style="font-size:72px;font-family:Linux Biolinum O;-inkscape-font-specification:Linux Biolinum O Bold"
         inkscape:connector-curvature="0" />
      <path
         d="m -869.81362,331.0377 c 0,9.57599 6.69601,15.48 17.42399,15.48 11.01599,0 17.424,-6.12001 17.424,-16.128 0,-9.07199 -5.11201,-16.2 -17.28,-16.2 -10.29598,0 -17.56799,5.68801 -17.56799,16.848 m 17.06399,-13.248 c 6.12,0 7.56001,4.53601 7.56001,14.544 0,8.27999 -2.95201,10.584 -6.192,10.584 -7.488,0 -8.208,-7.99201 -8.208,-13.536 0,-6.264 0.648,-11.592 6.83999,-11.592"
         id="path3903"
         style="font-size:72px;font-family:Linux Biolinum O;-inkscape-font-specification:Linux Biolinum O Bold"
         inkscape:connector-curvature="0" />
      <path
         d="m -816.72037,325.4937 c 1.58399,-3.816 5.256,-6.624 7.70399,-6.624 4.392,0 5.904,5.04001 5.904,12.672 0,6.91199 -3.168,11.376 -7.19999,11.376 -1.8,0 -3.74401,-0.36 -6.408,-2.592 l 0,-14.832 m 0.288,-5.472 -0.36,-0.216 c 0,-1.584 -10e-6,-3.96 -0.072,-4.608 -0.144,-0.432 -0.21601,-0.72 -0.64801,-0.72 -2.08799,0.36 -6.84,0.36 -9.36,0.216 l -0.144,0.216 c 0.504,3.09599 0.79201,8.64 0.79201,13.968 l 0,19.224 c 0,5.39999 -0.14401,10.584 -0.72001,14.4 l 0.072,0.216 c 0,0 2.80801,-0.216 5.32801,-0.216 2.44799,0 5.4,0.216 5.4,0.216 l 0.144,-0.216 c -0.648,-4.104 -0.72,-9.00001 -0.72,-14.4 l 0,-3.6 c 2.37599,1.512 5.04,2.016 7.70399,2.016 9.072,0 16.12801,-7.48801 16.12801,-17.64 0,-5.688 -2.16001,-9.43201 -5.472,-12.096 -2.16,-1.656 -4.39201,-2.592 -7.99201,-2.592 -3.09599,0 -6.552,1.008 -10.07999,5.832"
         id="path3905"
         style="font-size:72px;font-family:Linux Biolinum O;-inkscape-font-specification:Linux Biolinum O Bold"
         inkscape:connector-curvature="0" />
    </g>
    <g
       id="text3124"
       style="font-size:24px;font-style:normal;font-variant:normal;font-weight:bold;font-stretch:normal;line-height:125%;letter-spacing:0px;word-spacing:0px;fill:#000000;fill-opacity:1;stroke:none;font-family:Linux Biolinum Keyboard O;-inkscape-font-specification:Linux Biolinum Keyboard O Bold">
      <path
         d="m -641.30999,365.14852 c 1.08799,-1.696 2.976,-2.944 4.064,-2.944 1.95199,0 2.14399,2.24 1.44,5.632 -0.672,3.07199 -2.49601,5.056 -4.288,5.056 -0.8,0 -1.63201,-0.16001 -2.592,-1.152 l 1.376,-6.592 m 0.672,-2.432 -0.128,-0.096 c 0.16,-0.704 0.384,-1.76 0.384,-2.048 0,-0.192 -0.032,-0.32 -0.224,-0.32 -0.96,0.16 -3.07201,0.16 -4.192,0.096 l -0.064,0.096 c -0.064,1.37599 -0.48001,3.84 -0.992,6.208 l -1.792,8.544 c -0.512,2.39999 -1.05601,4.704 -1.696,6.4 l 0.032,0.096 c 0,0 1.248,-0.096 2.368,-0.096 1.08799,0 2.4,0.096 2.4,0.096 l 0.064,-0.096 c 0.128,-1.824 0.544,-4.00001 1.056,-6.4 l 0.32,-1.6 c 0.92799,0.672 2.048,0.896 3.232,0.896 4.03199,0 7.904,-3.32801 8.832,-7.84 0.54399,-2.528 -0.064,-4.19201 -1.28,-5.376 -0.768,-0.736 -1.69601,-1.152 -3.296,-1.152 -1.376,0 -3.00801,0.448 -5.024,2.592"
         id="path3925"
         style="font-size:32px;font-style:italic;font-family:Linux Biolinum Slanted O;-inkscape-font-specification:Linux Biolinum Slanted O Bold Italic"
         inkscape:connector-curvature="0" />
      <path
         d="m -627.13599,367.77252 c -0.512,2.39999 -1.12001,4.704 -1.728,6.4 l 0,0.096 c 0,0 1.376,-0.096 2.496,-0.096 1.08799,0 2.4,0.096 2.4,0.096 l 0.096,-0.096 c 0.096,-1.824 0.448,-3.96801 0.96,-6.4 l 2.048,-9.6 c 0.51199,-2.4 0.992,-4.03201 1.664,-6.016 0.032,-0.224 -0.096,-0.32 -0.288,-0.32 -0.864,0.32 -3.48801,0.96 -4.8,1.056 l -0.096,0.096 c -0.032,1.37599 -0.38401,3.584 -0.896,6.016 l -1.856,8.768"
         id="path3927"
         style="font-size:32px;font-style:italic;font-family:Linux Biolinum Slanted O;-inkscape-font-specification:Linux Biolinum Slanted O Bold Italic"
         inkscape:connector-curvature="0" />
      <path
         d="m -614.12199,365.37252 c 0.256,-1.12 1.024,-2.208 1.6,-2.88 0.67199,-0.736 1.568,-0.928 1.92,-0.928 0.86399,0 2.07999,0.576 1.536,3.136 -0.032,0.192 -0.128,0.608 -0.192,0.672 l -4.864,0 m 7.648,4.672 c -1.6,1.34399 -3.45601,2.016 -4.672,2.016 -2.496,0 -4.352,-0.80001 -3.52,-4.736 0.032,-0.224 0.064,-0.352 0.096,-0.512 l 8.192,0 c 0.76799,0 1.088,-0.704 1.184,-1.152 0.57599,-2.72 -0.16001,-5.696 -4.864,-5.696 -3.648,0 -7.74401,2.848 -8.8,7.744 -0.384,1.88799 -0.064,3.968 1.056,5.184 0.95999,1.11999 2.592,1.6 4.864,1.6 2.20799,0 4.64,-1.12001 6.72,-3.456 0.096,-0.416 0.064,-0.992 -0.256,-0.992"
         id="path3929"
         style="font-size:32px;font-style:italic;font-family:Linux Biolinum Slanted O;-inkscape-font-specification:Linux Biolinum Slanted O Bold Italic"
         inkscape:connector-curvature="0" />
      <path
         d="m -592.39999,369.91652 c -1.216,2.04799 -2.40001,2.72 -3.68,2.72 -1.728,0 -2.56,-1.53601 -1.728,-5.536 0.92799,-4.32 2.56,-5.376 4.096,-5.376 1.50399,0 2.464,1.12 2.464,2.752 l -1.152,5.44 m -0.544,2.528 0.064,0 -0.192,1.728 c -0.032,0.064 0.064,0.096 0.256,0.096 0.44799,-0.032 1.6,-0.096 2.048,-0.096 0.41599,0 1.792,0.032 2.208,0.096 l 0.096,-0.096 c 0.032,-1.376 0.16,-3.74401 0.672,-6.144 l 2.112,-9.856 c 0.51199,-2.368 0.992,-4.03201 1.664,-6.016 0.032,-0.224 -0.096,-0.32 -0.288,-0.32 -0.864,0.32 -3.48801,0.96 -4.8,1.056 l -0.096,0.096 c -0.032,1.37599 -0.38401,3.584 -0.896,6.016 l -0.544,2.56 c -0.416,-0.864 -1.79201,-1.44 -2.688,-1.44 -2.144,0 -3.39201,0.448 -5.088,1.504 -2.304,1.43999 -3.55201,3.776 -4.032,6.048 -0.832,3.93599 0.928,6.816 4.48,6.816 2.01599,0 3.84,-0.54401 5.024,-2.048"
         id="path3931"
         style="font-size:32px;font-style:italic;font-family:Linux Biolinum Slanted O;-inkscape-font-specification:Linux Biolinum Slanted O Bold Italic"
         inkscape:connector-curvature="0" />
      <path
         d="m -570.09199,364.92452 c 0.224,-1.088 -0.12801,-2.4 -0.992,-3.072 0.95999,0 2.08,0.192 3.2,0.256 l 0.096,-0.096 c 0,-0.288 0.032,-0.576 0.096,-0.864 0.064,-0.288 0.16,-0.64 0.288,-0.928 l -0.064,-0.096 c -1.568,0.16 -3.58401,0.16 -6.016,0.288 -0.512,-0.192 -1.56801,-0.288 -2.24,-0.288 -3.456,0 -6.72001,1.856 -7.36,4.928 -0.384,1.79199 0.352,2.688 1.056,3.264 0.38399,0.352 1.152,0.576 1.152,0.576 l -0.096,0.16 c -1.536,0.48 -3.168,1.728 -3.392,2.752 -0.288,1.34399 0.288,2.24 2.016,2.496 -0.8,0.448 -2.11201,0.896 -2.976,1.344 -0.704,0.704 -1.088,1.728 -1.248,2.496 -0.576,2.78399 2.56,3.648 5.408,3.648 2.07999,0 4.576,-0.22401 6.688,-1.184 2.11199,-0.928 3.872,-2.52801 4.224,-4.256 0.76799,-3.648 -3.13601,-4.288 -6.08,-4.288 -0.544,0 -1.31201,0.064 -2.08,0.16 -0.448,0.032 -0.448,0.064 -0.608,0.064 -0.896,0 -1.824,-0.16001 -1.536,-1.536 0.128,-0.512 0.224,-0.896 0.672,-1.44 0.41599,0.192 1.248,0.352 2.336,0.352 3.71199,0 6.816,-1.72801 7.456,-4.736 m -4.256,0.032 c -0.48,2.27199 -1.37601,3.424 -2.912,3.424 -1.952,0 -2.016,-1.15201 -1.536,-3.488 0.44799,-2.112 1.248,-3.488 2.912,-3.488 1.91999,0 2.04799,1.152 1.536,3.552 m -6.656,9.728 c 0.192,0.032 0.448,0.064 0.736,0.064 0.92799,0 1.792,-0.032 2.24,-0.032 1.79199,0 3.93599,0.16 3.456,2.368 -0.416,1.95199 -2.65601,3.264 -5.408,3.264 -1.088,0 -3.104,-0.67201 -2.656,-2.848 0.224,-1.056 0.608,-1.952 1.632,-2.816"
         id="path3933"
         style="font-size:32px;font-style:italic;font-family:Linux Biolinum Slanted O;-inkscape-font-specification:Linux Biolinum Slanted O Bold Italic"
         inkscape:connector-curvature="0" />
      <path
         d="m -562.05949,365.37252 c 0.256,-1.12 1.024,-2.208 1.6,-2.88 0.67199,-0.736 1.568,-0.928 1.92,-0.928 0.86399,0 2.07999,0.576 1.536,3.136 -0.032,0.192 -0.128,0.608 -0.192,0.672 l -4.864,0 m 7.648,4.672 c -1.6,1.34399 -3.45601,2.016 -4.672,2.016 -2.496,0 -4.352,-0.80001 -3.52,-4.736 0.032,-0.224 0.064,-0.352 0.096,-0.512 l 8.192,0 c 0.76799,0 1.088,-0.704 1.184,-1.152 0.57599,-2.72 -0.16001,-5.696 -4.864,-5.696 -3.648,0 -7.74401,2.848 -8.8,7.744 -0.384,1.88799 -0.064,3.968 1.056,5.184 0.95999,1.11999 2.592,1.6 4.864,1.6 2.20799,0 4.64,-1.12001 6.72,-3.456 0.096,-0.416 0.064,-0.992 -0.256,-0.992"
         id="path3935"
         style="font-size:32px;font-style:italic;font-family:Linux Biolinum Slanted O;-inkscape-font-specification:Linux Biolinum Slanted O Bold Italic"
         inkscape:connector-curvature="0" />
      <path
         d="m -541.61149,360.34852 c 0.67199,2.78399 2.368,11.008 2.912,14.208 l 0.032,0.256 c -1.536,2.36799 -2.78401,4.544 -4.736,6.944 0.352,-0.096 1.76,-0.16 2.08,-0.16 0.32,0 1.248,0.064 1.536,0.16 2.07999,-4 12.64,-19.26401 14.144,-21.408 -0.32,0.096 -1.056,0.096 -1.376,0.096 -0.32,0 -1.696,0 -2.016,-0.096 -1.696,3.23199 -3.74401,6.784 -5.76,9.856 l -0.288,-0.032 c -0.704,-3.36 -1.31201,-6.52801 -1.696,-9.824 -0.416,0.096 -1.56801,0.096 -2.016,0.096 -0.416,0 -2.36801,0 -2.816,-0.096"
         id="path3937"
         style="font-size:32px;font-style:italic;font-family:Linux Biolinum Slanted O;-inkscape-font-specification:Linux Biolinum Slanted O Bold Italic"
         inkscape:connector-curvature="0" />
      <path
         d="m -525.23149,367.61252 c -0.896,4.25599 1.504,6.88 6.272,6.88 4.89599,0 8.352,-2.72001 9.28,-7.168 0.86399,-4.032 -0.73601,-7.2 -6.144,-7.2 -4.576,0 -8.35201,2.528 -9.408,7.488 m 8.832,-5.888 c 2.71999,0 2.94399,2.016 1.984,6.464 -0.768,3.67999 -2.30401,4.704 -3.744,4.704 -3.328,0 -2.88,-3.55201 -2.368,-6.016 0.57599,-2.784 1.376,-5.152 4.128,-5.152"
         id="path3939"
         style="font-size:32px;font-style:italic;font-family:Linux Biolinum Slanted O;-inkscape-font-specification:Linux Biolinum Slanted O Bold Italic"
         inkscape:connector-curvature="0" />
      <path
         d="m -497.47449,372.12452 0.064,0 -0.256,2.048 c -0.032,0.064 0.064,0.096 0.256,0.096 0.44799,-0.032 1.408,-0.096 1.856,-0.096 0.41599,0 1.92,0.032 2.336,0.096 l 0.096,-0.096 c 0.032,-1.376 0.224,-3.74401 0.736,-6.144 l 0.384,-1.824 c 0.51199,-2.4 0.864,-4.06401 1.536,-5.76 l -0.032,-0.096 c 0,0 -1.34401,0.096 -2.464,0.096 -1.088,0 -2.176,-0.096 -2.176,-0.096 l -0.064,0.096 c -0.16,1.79199 -0.48001,3.328 -1.024,5.76 l -0.544,2.56 c -0.384,1.85599 -2.81601,3.264 -4.256,3.264 -0.96,0 -1.824,-0.32001 -1.216,-2.944 l 0.672,-2.88 c 0.60799,-2.4 0.928,-4.16001 1.504,-5.76 l -0.032,-0.096 c 0,0 -1.28001,0.096 -2.4,0.096 -1.088,0 -2.24,-0.096 -2.24,-0.096 l -0.064,0.096 c -0.192,1.82399 -0.41601,3.456 -0.992,5.76 l -0.896,3.936 c -0.48,2.20799 0.16,4.352 3.328,4.352 1.31199,0 3.68,-0.44801 5.888,-2.368"
         id="path3941"
         style="font-size:32px;font-style:italic;font-family:Linux Biolinum Slanted O;-inkscape-font-specification:Linux Biolinum Slanted O Bold Italic"
         inkscape:connector-curvature="0" />
      <path
         d="m -481.28899,363.00452 -0.128,-0.096 c 0.16,-0.704 0.448,-2.048 0.448,-2.336 0,-0.192 -0.032,-0.32 -0.224,-0.32 -0.96,0.16 -3.07201,0.16 -4.192,0.096 l -0.064,0.096 c -0.064,1.37599 -0.48001,3.84 -0.992,6.208 l -0.352,1.76 c -0.512,2.39999 -0.92801,4.032 -1.536,5.76 l 0,0.096 c 0,0 1.056,-0.096 2.176,-0.096 1.08799,0 2.592,0.096 2.592,0.096 l 0.096,-0.096 c 0.128,-1.824 0.384,-3.32801 0.896,-5.76 l 0.48,-2.336 c 0.54399,-2.464 2.816,-2.848 3.296,-2.848 0.60799,0 1.248,0.16 1.728,0.608 l 0.608,-0.064 1.312,-3.296 -0.096,-0.128 c -0.512,-0.16 -0.99201,-0.224 -1.568,-0.224 -1.504,0 -3.39201,1.632 -4.48,2.88"
         id="path3943"
         style="font-size:32px;font-style:italic;font-family:Linux Biolinum Slanted O;-inkscape-font-specification:Linux Biolinum Slanted O Bold Italic"
         inkscape:connector-curvature="0" />
      <path
         d="m -466.86099,370.55652 -1.184,3.072 c 1.59999,0.64 3.648,0.864 4.8,0.864 4.15999,0 6.368,-2.01601 6.816,-4.224 0.63999,-2.88 -1.44001,-3.77601 -3.456,-4.992 -0.928,-0.544 -1.696,-1.12001 -1.472,-2.144 0.192,-0.896 0.64,-1.568 1.888,-1.568 1.56799,0 2.176,1.504 2.4,2.4 l 0.896,-0.032 1.216,-2.88 -0.064,-0.096 c -0.768,-0.48 -2.52801,-0.832 -4.064,-0.832 -2.88,0 -5.72801,1.408 -6.24,3.872 -0.48,2.23999 0.864,3.392 2.464,4.384 2.04799,1.27999 2.656,1.856 2.368,3.136 -0.32,1.50399 -1.31201,1.568 -2.528,1.568 -1.12,0 -2.33601,-0.70401 -2.88,-2.56 l -0.96,0.032"
         id="path3945"
         style="font-size:32px;font-style:italic;font-family:Linux Biolinum Slanted O;-inkscape-font-specification:Linux Biolinum Slanted O Bold Italic"
         inkscape:connector-curvature="0" />
      <path
         d="m -443.59949,372.12452 0.064,0 -0.256,2.048 c -0.032,0.064 0.064,0.096 0.256,0.096 0.44799,-0.032 1.408,-0.096 1.856,-0.096 0.41599,0 1.92,0.032 2.336,0.096 l 0.096,-0.096 c 0.032,-1.376 0.224,-3.74401 0.736,-6.144 l 0.384,-1.824 c 0.51199,-2.4 0.864,-4.06401 1.536,-5.76 l -0.032,-0.096 c 0,0 -1.34401,0.096 -2.464,0.096 -1.088,0 -2.176,-0.096 -2.176,-0.096 l -0.064,0.096 c -0.16,1.79199 -0.48001,3.328 -1.024,5.76 l -0.544,2.56 c -0.384,1.85599 -2.81601,3.264 -4.256,3.264 -0.96,0 -1.824,-0.32001 -1.216,-2.944 l 0.672,-2.88 c 0.60799,-2.4 0.928,-4.16001 1.504,-5.76 l -0.032,-0.096 c 0,0 -1.28001,0.096 -2.4,0.096 -1.088,0 -2.24,-0.096 -2.24,-0.096 l -0.064,0.096 c -0.192,1.82399 -0.41601,3.456 -0.992,5.76 l -0.896,3.936 c -0.48,2.20799 0.16,4.352 3.328,4.352 1.31199,0 3.68,-0.44801 5.888,-2.368"
         id="path3947"
         style="font-size:32px;font-style:italic;font-family:Linux Biolinum Slanted O;-inkscape-font-specification:Linux Biolinum Slanted O Bold Italic"
         inkscape:connector-curvature="0" />
      <path
         d="m -428.30999,365.14852 c 1.08799,-1.696 2.976,-2.944 4.064,-2.944 1.95199,0 2.14399,2.24 1.44,5.632 -0.672,3.07199 -2.49601,5.056 -4.288,5.056 -0.8,0 -1.63201,-0.16001 -2.592,-1.152 l 1.376,-6.592 m 0.672,-2.432 -0.128,-0.096 c 0.16,-0.704 0.384,-1.76 0.384,-2.048 0,-0.192 -0.032,-0.32 -0.224,-0.32 -0.96,0.16 -3.07201,0.16 -4.192,0.096 l -0.064,0.096 c -0.064,1.37599 -0.48001,3.84 -0.992,6.208 l -1.792,8.544 c -0.512,2.39999 -1.05601,4.704 -1.696,6.4 l 0.032,0.096 c 0,0 1.248,-0.096 2.368,-0.096 1.08799,0 2.4,0.096 2.4,0.096 l 0.064,-0.096 c 0.128,-1.824 0.544,-4.00001 1.056,-6.4 l 0.32,-1.6 c 0.92799,0.672 2.048,0.896 3.232,0.896 4.03199,0 7.904,-3.32801 8.832,-7.84 0.54399,-2.528 -0.064,-4.19201 -1.28,-5.376 -0.768,-0.736 -1.69601,-1.152 -3.296,-1.152 -1.376,0 -3.00801,0.448 -5.024,2.592"
         id="path3949"
         style="font-size:32px;font-style:italic;font-family:Linux Biolinum Slanted O;-inkscape-font-specification:Linux Biolinum Slanted O Bold Italic"
         inkscape:connector-curvature="0" />
      <path
         d="m -409.55999,365.14852 c 1.08799,-1.696 2.976,-2.944 4.064,-2.944 1.95199,0 2.14399,2.24 1.44,5.632 -0.672,3.07199 -2.49601,5.056 -4.288,5.056 -0.8,0 -1.63201,-0.16001 -2.592,-1.152 l 1.376,-6.592 m 0.672,-2.432 -0.128,-0.096 c 0.16,-0.704 0.384,-1.76 0.384,-2.048 0,-0.192 -0.032,-0.32 -0.224,-0.32 -0.96,0.16 -3.07201,0.16 -4.192,0.096 l -0.064,0.096 c -0.064,1.37599 -0.48001,3.84 -0.992,6.208 l -1.792,8.544 c -0.512,2.39999 -1.05601,4.704 -1.696,6.4 l 0.032,0.096 c 0,0 1.248,-0.096 2.368,-0.096 1.08799,0 2.4,0.096 2.4,0.096 l 0.064,-0.096 c 0.128,-1.824 0.544,-4.00001 1.056,-6.4 l 0.32,-1.6 c 0.92799,0.672 2.048,0.896 3.232,0.896 4.03199,0 7.904,-3.32801 8.832,-7.84 0.54399,-2.528 -0.064,-4.19201 -1.28,-5.376 -0.768,-0.736 -1.69601,-1.152 -3.296,-1.152 -1.376,0 -3.00801,0.448 -5.024,2.592"
         id="path3951"
         style="font-size:32px;font-style:italic;font-family:Linux Biolinum Slanted O;-inkscape-font-specification:Linux Biolinum Slanted O Bold Italic"
         inkscape:connector-curvature="0" />
      <path
         d="m -396.48149,367.61252 c -0.896,4.25599 1.504,6.88 6.272,6.88 4.89599,0 8.352,-2.72001 9.28,-7.168 0.86399,-4.032 -0.73601,-7.2 -6.144,-7.2 -4.576,0 -8.35201,2.528 -9.408,7.488 m 8.832,-5.888 c 2.71999,0 2.94399,2.016 1.984,6.464 -0.768,3.67999 -2.30401,4.704 -3.744,4.704 -3.328,0 -2.88,-3.55201 -2.368,-6.016 0.57599,-2.784 1.376,-5.152 4.128,-5.152"
         id="path3953"
         style="font-size:32px;font-style:italic;font-family:Linux Biolinum Slanted O;-inkscape-font-specification:Linux Biolinum Slanted O Bold Italic"
         inkscape:connector-curvature="0" />
      <path
         d="m -371.47649,363.00452 -0.128,-0.096 c 0.16,-0.704 0.448,-2.048 0.448,-2.336 0,-0.192 -0.032,-0.32 -0.224,-0.32 -0.96,0.16 -3.07201,0.16 -4.192,0.096 l -0.064,0.096 c -0.064,1.37599 -0.48001,3.84 -0.992,6.208 l -0.352,1.76 c -0.512,2.39999 -0.92801,4.032 -1.536,5.76 l 0,0.096 c 0,0 1.056,-0.096 2.176,-0.096 1.08799,0 2.592,0.096 2.592,0.096 l 0.096,-0.096 c 0.128,-1.824 0.384,-3.32801 0.896,-5.76 l 0.48,-2.336 c 0.54399,-2.464 2.816,-2.848 3.296,-2.848 0.60799,0 1.248,0.16 1.728,0.608 l 0.608,-0.064 1.312,-3.296 -0.096,-0.128 c -0.512,-0.16 -0.99201,-0.224 -1.568,-0.224 -1.504,0 -3.39201,1.632 -4.48,2.88"
         id="path3955"
         style="font-size:32px;font-style:italic;font-family:Linux Biolinum Slanted O;-inkscape-font-specification:Linux Biolinum Slanted O Bold Italic"
         inkscape:connector-curvature="0" />
      <path
         d="m -364.21649,362.04452 2.112,0 -0.896,3.776 c -0.448,1.91999 -1.056,4.576 -1.28,5.536 -0.32,1.50399 0.384,3.136 2.432,3.136 1.66399,0 3.392,-0.288 4.96,-1.12 0.096,-0.512 0.032,-1.088 -0.256,-1.312 -0.8,0.352 -1.12001,0.384 -1.952,0.384 -0.864,0 -0.928,-1.15201 -0.672,-2.464 0.224,-0.96 0.544,-2.59201 0.992,-4.512 l 0.8,-3.424 2.912,0 c 0.32,0 0.8,-0.128 0.864,-0.416 l 0.192,-0.992 c 0.032,-0.128 -0.032,-0.192 -0.192,-0.192 l -3.424,0 c 0.51199,-2.4 0.576,-2.59201 1.088,-4.448 0.064,-0.224 -0.032,-0.32 -0.224,-0.32 -0.864,0.32 -3.10401,1.152 -4.448,1.44 l -0.096,0.096 c -0.064,1.34399 -0.064,1.376 -0.448,3.232 l -1.856,0 c -0.32,0 -0.832,0.64 -0.928,1.088 -0.032,0.224 0.064,0.512 0.32,0.512"
         id="path3957"
         style="font-size:32px;font-style:italic;font-family:Linux Biolinum Slanted O;-inkscape-font-specification:Linux Biolinum Slanted O Bold Italic"
         inkscape:connector-curvature="0" />
      <path
         d="m -336.77599,367.06852 -0.704,2.976 c -0.096,0.416 -0.512,1.216 -0.8,1.44 -0.896,0.736 -1.69601,1.088 -2.592,1.088 -0.96,0 -1.44,-0.96 -1.28,-1.824 0.256,-1.152 0.96,-2.56 2.656,-3.008 l 2.72,-0.672 m 3.072,4.544 c 0.192,-0.928 1.376,-5.952 1.44,-6.304 0.41599,-1.92 0.28799,-3.104 -0.448,-3.904 -0.8,-0.896 -2.97601,-1.28 -4.512,-1.28 -2.304,0 -5.28001,1.024 -6.176,1.696 l -0.128,0.128 0.128,2.4 1.056,0.032 c 1.40799,-1.6 3.008,-2.528 4.448,-2.528 1.40799,0 2.04799,0.8 1.536,3.264 -0.064,0.224 -0.192,0.352 -0.288,0.384 l -3.936,0.992 c -3.232,0.736 -5.44001,2.368 -5.92,4.544 -0.448,2.20799 1.408,3.456 3.648,3.456 1.24799,0 3.04,-0.41601 4.8,-1.856 l 0.064,0 c 0.16,1.31199 0.736,1.856 2.112,1.856 1.24799,0 2.944,-0.32 4.032,-1.056 0.032,-0.256 0,-0.512 -0.16,-0.672 -1.28,0 -1.952,-0.096 -1.696,-1.152"
         id="path3959"
         style="font-size:32px;font-style:italic;font-family:Linux Biolinum Slanted O;-inkscape-font-specification:Linux Biolinum Slanted O Bold Italic"
         inkscape:connector-curvature="0" />
      <path
         d="m -328.40399,362.04452 2.112,0 -0.896,3.776 c -0.448,1.91999 -1.056,4.576 -1.28,5.536 -0.32,1.50399 0.384,3.136 2.432,3.136 1.66399,0 3.392,-0.288 4.96,-1.12 0.096,-0.512 0.032,-1.088 -0.256,-1.312 -0.8,0.352 -1.12001,0.384 -1.952,0.384 -0.864,0 -0.928,-1.15201 -0.672,-2.464 0.224,-0.96 0.544,-2.59201 0.992,-4.512 l 0.8,-3.424 2.912,0 c 0.32,0 0.8,-0.128 0.864,-0.416 l 0.192,-0.992 c 0.032,-0.128 -0.032,-0.192 -0.192,-0.192 l -3.424,0 c 0.51199,-2.4 0.576,-2.59201 1.088,-4.448 0.064,-0.224 -0.032,-0.32 -0.224,-0.32 -0.864,0.32 -3.10401,1.152 -4.448,1.44 l -0.096,0.096 c -0.064,1.34399 -0.064,1.376 -0.448,3.232 l -1.856,0 c -0.32,0 -0.832,0.64 -0.928,1.088 -0.032,0.224 0.064,0.512 0.32,0.512"
         id="path3961"
         style="font-size:32px;font-style:italic;font-family:Linux Biolinum Slanted O;-inkscape-font-specification:Linux Biolinum Slanted O Bold Italic"
         inkscape:connector-curvature="0" />
    </g>
    <g
       transform="matrix(-1.1374336,0.01996939,0.01996939,1.1374336,-826.4164,40.149812)"
       id="g3872"
       style="stroke-width:1.5;stroke-miterlimit:4;stroke-dasharray:none">
      <path
         d="m -261.16757,400.82319 c 0.1661,1.7237 0.0903,2.91935 0.0903,2.91935 -2.28805,1.53954 -2.6791,3.21064 -2.1328,2.99618 1.03917,-0.40794 4.87188,-1.2359 4.80025,-1.5638 -0.20689,-0.94706 -1.521,-1.5528 -2.66745,-1.43238"
         id="path3874"
         style="fill:none;stroke:#000000;stroke-width:1.5;stroke-linecap:butt;stroke-linejoin:miter;stroke-miterlimit:4;stroke-opacity:1;stroke-dasharray:none"
         inkscape:connector-curvature="0" />
      <path
         d="m -253.79914,375.38528 c 0.28518,-0.28518 -3.55782,-3.33179 -1.5186,-7.48247 l -16.5357,4.02206 c -3.10945,4.15145 0.89514,7.21415 1.35407,7.67308 1.48698,-0.31884 12.42582,-2.91376 16.70023,-4.21267 z"
         id="path3876"
         style="fill:url(#linearGradient3914);fill-opacity:1;stroke:#000000;stroke-width:1.5;stroke-linecap:butt;stroke-linejoin:bevel;stroke-miterlimit:4;stroke-opacity:1;stroke-dasharray:none"
         inkscape:connector-curvature="0" />
      <path
         d="m -269.85301,372.96913 c -1.20345,2.93047 0.89393,4.49252 1.328,4.73625"
         id="path3878"
         style="fill:none;stroke:#000000;stroke-width:1.5;stroke-linecap:butt;stroke-linejoin:miter;stroke-miterlimit:4;stroke-opacity:1;stroke-dasharray:none"
         inkscape:connector-curvature="0" />
      <path
         d="m -266.1206,372.08855 c -1.20345,2.93047 0.89393,4.49252 1.328,4.73625"
         id="path3880"
         style="fill:none;stroke:#000000;stroke-width:1.5;stroke-linecap:butt;stroke-linejoin:miter;stroke-miterlimit:4;stroke-opacity:1;stroke-dasharray:none"
         inkscape:connector-curvature="0" />
      <path
         d="m -262.28264,371.10242 c -1.20345,2.93047 0.89393,4.49252 1.328,4.73625"
         id="path3882"
         style="fill:none;stroke:#000000;stroke-width:1.5;stroke-linecap:butt;stroke-linejoin:miter;stroke-miterlimit:4;stroke-opacity:1;stroke-dasharray:none"
         inkscape:connector-curvature="0" />
      <path
         d="m -258.56906,370.23176 c -1.20345,2.93047 0.89393,4.49252 1.328,4.73625"
         id="path3884"
         style="fill:none;stroke:#000000;stroke-width:1.5;stroke-linecap:butt;stroke-linejoin:miter;stroke-miterlimit:4;stroke-opacity:1;stroke-dasharray:none"
         inkscape:connector-curvature="0" />
      <path
         d="M 452.77504,71.739463 451.1584,47.489843"
         transform="translate(-713.85297,330.44534)"
         id="path3886"
         style="fill:none;stroke:#000000;stroke-width:1.5;stroke-linecap:butt;stroke-linejoin:miter;stroke-miterlimit:4;stroke-opacity:1;stroke-dasharray:none"
         inkscape:connector-curvature="0" />
    </g>
    <path
       d="m -600.00549,468.46514 c -4.18177,-2.99108 -8.43563,2.90699 -9.37159,6.65081 -3.03065,12.12256 22.5969,11.56112 18.44088,-0.90693 -0.80318,-2.40951 -3.71471,-4.25408 -6.0462,-4.83695 -3.60783,-0.90197 -5.17398,-0.71165 -8.46466,0.60462"
       id="path3049"
       style="fill:none;stroke:#000000;stroke-width:1.70641339;stroke-linecap:butt;stroke-linejoin:miter;stroke-miterlimit:4;stroke-opacity:1;stroke-dasharray:none"
       inkscape:connector-curvature="0" />
    <path
       d="m -602.12164,484.48754 c -1.0524,12.32776 -6.65082,30.34085 -6.65082,38.99791"
       id="path3051"
       style="fill:none;stroke:#000000;stroke-width:1.70641339;stroke-linecap:butt;stroke-linejoin:miter;stroke-miterlimit:4;stroke-opacity:1;stroke-dasharray:none"
       inkscape:connector-curvature="0" />
    <path
       d="m -603.54904,496.64501 c -4.36278,-2.7253 -26.76666,-0.98382 -24.2219,-7.84446"
       id="path3053"
       style="fill:none;stroke:#000000;stroke-width:1.70641339;stroke-linecap:butt;stroke-linejoin:miter;stroke-miterlimit:4;stroke-opacity:1;stroke-dasharray:none"
       inkscape:connector-curvature="0" />
    <path
       d="m -603.33089,497.78915 c 8.48946,-3.77662 23.08177,-9.17553 26.30091,-12.39468"
       id="path3055"
       style="fill:none;stroke:#000000;stroke-width:1.70641339;stroke-linecap:butt;stroke-linejoin:miter;stroke-miterlimit:4;stroke-opacity:1;stroke-dasharray:none"
       inkscape:connector-curvature="0" />
    <path
       d="m -545.30567,467.75154 c 4.18177,-2.99107 8.43564,2.90699 9.37159,6.65081 3.03065,12.12256 -22.59689,11.56112 -18.44088,-0.90693 0.80317,-2.40951 3.71471,-4.25408 6.0462,-4.83695 3.60784,-0.90197 5.17399,-0.71165 8.46466,0.60462"
       id="path3049-6"
       style="fill:none;stroke:#000000;stroke-width:1.70641339;stroke-linecap:butt;stroke-linejoin:miter;stroke-miterlimit:4;stroke-opacity:1;stroke-dasharray:none"
       inkscape:connector-curvature="0" />
    <path
       d="m -543.18951,483.77394 c 1.05239,12.32776 6.65082,30.34085 6.65082,38.99791"
       id="path3051-2"
       style="fill:none;stroke:#000000;stroke-width:1.70641339;stroke-linecap:butt;stroke-linejoin:miter;stroke-miterlimit:4;stroke-opacity:1;stroke-dasharray:none"
       inkscape:connector-curvature="0" />
    <path
       d="m -539.8641,496.77324 c 2.82862,-4.29649 23.91735,-12.05745 18.74317,-17.23163"
       id="path3053-8"
       style="fill:none;stroke:#000000;stroke-width:1.70641339;stroke-linecap:butt;stroke-linejoin:miter;stroke-miterlimit:4;stroke-opacity:1;stroke-dasharray:none"
       inkscape:connector-curvature="0" />
    <path
       d="m -541.98026,497.07555 c -8.48948,-3.77662 -23.08177,-9.17553 -26.30092,-12.39468"
       id="path3055-4"
       style="fill:none;stroke:#000000;stroke-width:1.70641339;stroke-linecap:butt;stroke-linejoin:miter;stroke-miterlimit:4;stroke-opacity:1;stroke-dasharray:none"
       inkscape:connector-curvature="0" />
    <path
       d="m -577.00019,477.75035 c -4.61378,23.06309 6.90411,-5.17809 0,0 z"
       id="path3182"
       style="fill:none;stroke:#000000;stroke-width:1.70641339;stroke-linecap:butt;stroke-linejoin:miter;stroke-miterlimit:4;stroke-opacity:1;stroke-dasharray:none"
       inkscape:connector-curvature="0" />
    <path
       d="m -572.15917,476.15656 c 0.18954,4.02216 2.50115,9.34957 4.59992,8.65288 2.33041,-0.77361 -2.80739,-10.44882 -4.59992,-8.65288 z"
       id="path3184"
       style="fill:none;stroke:#000000;stroke-width:1.70641339;stroke-linecap:butt;stroke-linejoin:miter;stroke-miterlimit:4;stroke-opacity:1;stroke-dasharray:none"
       inkscape:connector-curvature="0" />
    <g
       transform="matrix(1.1375096,-0.01503515,0.01503515,1.1375096,-335.17392,36.775294)"
       id="g3821"
       style="stroke-width:1.5;stroke-miterlimit:4;stroke-dasharray:none">
      <path
         d="m -261.16757,400.82319 c 0.1661,1.7237 0.0903,2.91935 0.0903,2.91935 -2.28805,1.53954 -2.6791,3.21064 -2.1328,2.99618 1.03917,-0.40794 4.87188,-1.2359 4.80025,-1.5638 -0.20689,-0.94706 -1.521,-1.5528 -2.66745,-1.43238"
         id="path3080"
         style="fill:none;stroke:#000000;stroke-width:1.5;stroke-linecap:butt;stroke-linejoin:miter;stroke-miterlimit:4;stroke-opacity:1;stroke-dasharray:none"
         inkscape:connector-curvature="0" />
      <path
         d="m -253.79914,375.38528 c 0.28518,-0.28518 -3.55782,-3.33179 -1.5186,-7.48247 l -16.5357,4.02206 c -3.10945,4.15145 0.89514,7.21415 1.35407,7.67308 1.48698,-0.31884 12.42582,-2.91376 16.70023,-4.21267 z"
         id="path3082"
         style="fill:url(#linearGradient3906);fill-opacity:1;stroke:#000000;stroke-width:1.5;stroke-linecap:butt;stroke-linejoin:bevel;stroke-miterlimit:4;stroke-opacity:1;stroke-dasharray:none"
         inkscape:connector-curvature="0" />
      <path
         d="m -269.85301,372.96913 c -1.20345,2.93047 0.89393,4.49252 1.328,4.73625"
         id="path3098"
         style="fill:none;stroke:#000000;stroke-width:1.5;stroke-linecap:butt;stroke-linejoin:miter;stroke-miterlimit:4;stroke-opacity:1;stroke-dasharray:none"
         inkscape:connector-curvature="0" />
      <path
         d="m -266.1206,372.08855 c -1.20345,2.93047 0.89393,4.49252 1.328,4.73625"
         id="path3037"
         style="fill:none;stroke:#000000;stroke-width:1.5;stroke-linecap:butt;stroke-linejoin:miter;stroke-miterlimit:4;stroke-opacity:1;stroke-dasharray:none"
         inkscape:connector-curvature="0" />
      <path
         d="m -262.28264,371.10242 c -1.20345,2.93047 0.89393,4.49252 1.328,4.73625"
         id="path3039"
         style="fill:none;stroke:#000000;stroke-width:1.5;stroke-linecap:butt;stroke-linejoin:miter;stroke-miterlimit:4;stroke-opacity:1;stroke-dasharray:none"
         inkscape:connector-curvature="0" />
      <path
         d="m -258.56906,370.23176 c -1.20345,2.93047 0.89393,4.49252 1.328,4.73625"
         id="path3041"
         style="fill:none;stroke:#000000;stroke-width:1.5;stroke-linecap:butt;stroke-linejoin:miter;stroke-miterlimit:4;stroke-opacity:1;stroke-dasharray:none"
         inkscape:connector-curvature="0" />
      <path
         d="M 452.77504,71.739463 451.1584,47.489843"
         transform="translate(-713.85297,330.44534)"
         id="path3819"
         style="fill:none;stroke:#000000;stroke-width:1.5;stroke-linecap:butt;stroke-linejoin:miter;stroke-miterlimit:4;stroke-opacity:1;stroke-dasharray:none"
         inkscape:connector-curvature="0" />
    </g>
    <path
       d="m -628.7989,488.16194 c 1.64205,11.12014 6.90411,-5.17808 0,0 z"
       id="path3182-2"
       style="fill:#ffffff;fill-opacity:1;stroke:#000000;stroke-width:1.70641339;stroke-linecap:butt;stroke-linejoin:miter;stroke-miterlimit:4;stroke-opacity:1;stroke-dasharray:none"
       inkscape:connector-curvature="0" />
    <path
       d="m -522.73419,479.06256 c 1.64205,11.12015 6.90412,-5.17809 0,0 z"
       id="path3870"
       style="fill:#ffffff;fill-opacity:1;stroke:#000000;stroke-width:1.70641339;stroke-linecap:butt;stroke-linejoin:miter;stroke-miterlimit:4;stroke-opacity:1;stroke-dasharray:none"
       inkscape:connector-curvature="0" />
  </g>
</svg>
