<?xml version="1.0" encoding="UTF-8" standalone="no"?>
<!-- Created with Inkscape (http://www.inkscape.org/) -->
<svg id="svg3144" xmlns:rdf="http://www.w3.org/1999/02/22-rdf-syntax-ns#" xmlns="http://www.w3.org/2000/svg" height="71.428" width="498.18" version="1.1" xmlns:cc="http://creativecommons.org/ns#" xmlns:xlink="http://www.w3.org/1999/xlink" xmlns:dc="http://purl.org/dc/elements/1.1/">
 <defs id="defs3146">
  <linearGradient id="linearGradient4126" y2="456.96" gradientUnits="userSpaceOnUse" x2="-578.33" gradientTransform="translate(782.52328,91.204503)" y1="457.53" x1="-586.63">
   <stop id="stop4124" stop-color="#FFF" offset="0"/>
  </linearGradient>
  <radialGradient id="radialGradient4102" gradientUnits="userSpaceOnUse" cy="443.14" cx="-480.73" gradientTransform="matrix(1.0642288,0.25691514,-0.11258761,0.46637568,873.85727,463.79375)" r="10.701">
   <stop id="stop4098" stop-color="#FFF" offset="0"/>
  </radialGradient>
  <linearGradient id="linearGradient4166" y2="414.82" gradientUnits="userSpaceOnUse" x2="-544.88" gradientTransform="translate(780.25451,103.35863)" y1="414.82" x1="-566.93">
   <stop id="stop4164" stop-color="#FFF" offset="0"/>
  </linearGradient>
  <linearGradient id="linearGradient4132" y2="457.81" gradientUnits="userSpaceOnUse" x2="-604.69" gradientTransform="translate(762.10435,45.504983)" y1="457.81" x1="-630.48">
   <stop id="stop4130" stop-color="#FFF" offset="0"/>
  </linearGradient>
 </defs>
 <metadata id="metadata3149">
  <rdf:RDF>
   <cc:Work rdf:about="">
    <dc:format>image/svg+xml</dc:format>
    <dc:type rdf:resource="http://purl.org/dc/dcmitype/StillImage"/>
    <dc:title/>
   </cc:Work>
  </rdf:RDF>
 </metadata>
 <g id="layer1" transform="translate(-125.90835,-496.64803)">
  <g id="flowRoot2985" style="letter-spacing:0px;word-spacing:0px;" font-weight="bold" transform="translate(1091.6831,203.35863)" font-stretch="normal" line-height="125%" font-size="12px" font-variant="normal" font-family="Linux Biolinum Shadow O" font-style="normal" fill="#000">
   <path id="path3134" d="m-947.5,342.77c-4.392,0-10.44-4.752-12.96-8.568l-1.872,0.072c-0.288,2.592-0.864,6.624-1.44,8.784l0.144,0.216s6.696,3.24,15.48,3.24c10.584,0,17.208-6.768,17.208-14.112,0-7.848-8.496-11.88-14.256-14.616-3.888-1.8-7.344-3.528-7.344-8.856,0-3.6,2.592-6.984,6.552-6.984,4.32,0,8.568,5.112,10.44,8.64l2.16-0.072c0.288-2.592,0.792-6.48,1.44-8.64l-0.144-0.216s-5.904-3.24-14.688-3.24c-8.136,0-15.552,4.824-15.552,12.456,0,2.808,0.504,5.544,2.232,7.776,3.312,4.392,8.856,7.056,13.032,9.144,3.384,1.728,6.264,4.608,6.264,7.56,0,5.112-2.376,7.416-6.696,7.416"/>
   <path id="path3136" d="m-889.76,332.84,0-7.992c0-7.56-3.528-10.656-10.008-10.656-3.672,0-7.992,2.232-11.304,6.48l-0.36-0.216c0-1.584,0-4.608-0.072-5.256-0.144-0.432-0.216-0.72-0.648-0.72-2.088,0.36-6.84,0.36-9.36,0.216l-0.144,0.216c0.504,3.096,0.792,8.64,0.792,13.968v3.96c0,5.4-0.216,9.144-0.792,12.96l0.144,0.216s3.384-0.216,5.904-0.216c2.448,0,4.464,0.216,4.464,0.216l0.216-0.216c-0.36-4.104-0.432-7.488-0.432-12.96v-7.344c2.736-3.6,5.76-5.76,8.352-5.76,1.944,0,3.744,1.44,3.744,6.696v6.408c0,5.4,0,9.144-0.432,12.96l0.144,0.216s2.304-0.216,4.824-0.216c2.448,0,5.616,0.216,5.616,0.216l0.144-0.216c-0.648-4.104-0.792-7.488-0.792-12.96"/>
   <path id="path3138" d="m-880.5,331.04c0,9.576,6.696,15.48,17.424,15.48,11.016,0,17.424-6.12,17.424-16.128,0-9.072-5.112-16.2-17.28-16.2-10.296,0-17.568,5.688-17.568,16.848m17.064-13.248c6.12,0,7.56,4.536,7.56,14.544,0,8.28-2.952,10.584-6.192,10.584-7.488,0-8.208-7.992-8.208-13.536,0-6.264,0.648-11.592,6.84-11.592"/>
   <path id="path3140" d="m-829.62,346.09c0.648-0.216,3.672-0.216,4.32-0.216s3.888,0,4.464,0.216c1.8-5.544,4.032-11.376,6.336-16.776,2.232,5.544,4.392,11.088,6.336,16.704,0.648-0.216,3.816-0.216,4.464-0.216s2.808,0,3.384,0.216c3.744-10.224,8.28-21.024,12.6-31.32-0.576,0.216-3.096,0.216-3.744,0.216s-2.376,0-2.952-0.216c-2.448,7.56-4.896,16.344-7.704,23.184h-0.504c-2.88-7.704-4.68-15.48-6.912-23.184-0.864,0.216-4.032,0.216-4.968,0.216-1.008,0-4.968,0-5.976-0.216,1.152,2.952,2.376,5.832,3.528,8.784-1.872,5.616-3.888,11.304-5.832,15.912h-0.72c-3.24-8.28-5.256-16.344-7.632-24.624-0.864,0.216-3.672,0.216-4.608,0.216-1.008,0-5.328,0-6.336-0.216,4.32,10.584,8.856,20.808,12.456,31.32"/>
   <path id="path3142" d="m-759.57,336.22c-1.8,4.608-4.104,6.12-6.984,6.12-3.888,0-6.48-3.456-6.48-12.456,0-9.72,3.096-12.096,6.624-12.096,3.384,0,6.048,2.52,6.84,6.192v12.24m0,5.688,0.144,0,0.36,3.888c0,0.144,0.216,0.216,0.648,0.216,0.93599-0.072,3.528-0.216,4.536-0.216,0.936,0,4.104,0.072,5.04,0.216l0.14399-0.216c-0.57599-3.096-1.368-8.424-1.368-13.824v-22.176c0-5.328,0.288-9.072,0.864-13.536,0-0.504-0.36001-0.72-0.792-0.72-1.872,0.72-7.416,2.16-10.296,2.376l-0.144,0.216c0.504,3.096,0.86401,8.064,0.86401,13.536v5.76c-1.368-1.944-4.752-3.24-6.768-3.24-4.824,0-7.488,1.008-10.728,3.384-4.464,3.24-6.192,8.496-6.192,13.608,0,8.856,5.4,15.336,13.392,15.336,4.536,0,8.352-1.224,10.296-4.608"/>
   <path id="path3144" d="m-728.6,320.67-0.36-0.216c0-1.584-0.00001-4.608-0.072-5.256-0.144-0.432-0.21601-0.72-0.648-0.72-2.088,0.36-6.84,0.36-9.36,0.216l-0.14401,0.216c0.504,3.096,0.79201,8.64,0.79201,13.968v3.96c0,5.4-0.14401,9.072-0.72,12.96l0.072,0.216s2.304-0.216,4.824-0.216c2.448,0,5.904,0.216,5.904,0.216l0.14399-0.216c-0.57599-4.104-0.71999-7.488-0.71999-12.96v-5.256c0-5.544,4.896-6.408,6.048-6.408,1.368,0,2.88,0.36,4.176,1.368l1.296-0.144,1.44-7.416-0.28799-0.288c-1.224-0.36-2.376-0.504-3.672-0.504-3.384,0-6.84,3.672-8.712,6.48"/>
   <path id="path3146" d="m-708.59,302.09c0,2.88,2.376,5.112,5.4,5.112s5.4-2.232,5.4-5.112-2.376-5.112-5.4-5.112-5.4,2.232-5.4,5.112m0.648,26.784,0,3.96c0,5.4-0.14401,9.072-0.72,12.96l0.144,0.216c2.16-0.144,2.808-0.216,5.328-0.216,2.448,0,3.168,0.072,5.328,0.216l0.144-0.216c-0.57599-4.104-0.71999-7.488-0.71999-12.96v-4.752c0-5.4,0.36-8.424,0.71999-12.816,0-0.504-0.216-0.72-0.64799-0.72-1.008,0.144-2.952,0.36-4.968,0.36-1.872,0-3.816-0.144-5.112-0.216l-0.216,0.288c0.57599,3.096,0.72,8.496,0.72,13.896"/>
   <path id="path3148" d="m-680.04,300.51c-3.168,3.312-5.328,7.848-5.328,12.24v2.16h-3.456c-1.296,0-1.656,0.864-1.656,1.44v1.728c0,0.36,0.072,0.432,0.36,0.432h4.752v12.888c0,5.4,0,10.728-0.504,14.4l0.072,0.216s2.88-0.216,5.4-0.216c2.448,0,4.968,0.216,4.968,0.216l0.144-0.216c-0.504-4.176-0.576-9-0.576-14.4v-12.888h9.72,0.576,4.176l-0.216,8.496c-0.144,4.32-0.216,10.296-0.216,12.456,0,3.384,2.376,7.056,6.984,7.056,3.744,0,7.488-0.648,10.584-2.52,0-1.152-0.432-2.448-1.224-2.952-1.584,0.792-2.304,0.864-4.176,0.864-1.944,0-2.664-2.592-2.664-5.544,0-2.16-0.072-5.832,0.072-10.152l0.144-7.704h6.552c0.72,0,1.728-0.288,1.728-0.936v-2.232c0-0.288-0.216-0.432-0.576-0.432h-7.704c0-5.4,0.072-5.832,0.36-10.008,0-0.504-0.216-0.72-0.648-0.72-1.8,0.72-6.48,2.592-9.36,3.24l-0.144,0.216c0.504,3.024,0.504,3.096,0.504,7.272h-3.096-1.08-10.296v-0.72c0-1.8-0.36-5.328-0.36-6.912,0-3.96,2.52-6.768,6.408-6.768,2.088,0,3.096,1.8,3.888,3.24l2.16-0.072c0.504-1.944,0.864-5.904,1.656-7.272l-0.072-0.216c-0.576-0.36-2.592-0.648-3.96-0.648-5.76,0-10.872,1.872-13.896,4.968"/>
   <path id="path3150" d="m-638.53,342.34c0.79199,3.024,2.016,4.248,4.968,4.896h0.288c2.592-0.648,3.96-1.944,4.968-4.896v-0.36c-0.93599-2.592-2.304-3.96-4.968-4.896h-0.288c-2.736,1.08-4.032,2.52-4.968,4.896v0.36"/>
   <path id="path3152" d="m-603.54,317.79c2.736,0,4.896,2.088,6.48,6.048l2.016-0.072,1.728-6.984-0.144-0.216c-2.232-1.152-7.128-2.376-10.728-2.376-9.648,0-17.496,5.76-17.496,17.064,0,4.536,1.44,8.064,3.888,10.656,2.52,2.808,7.128,4.608,12.6,4.608s8.64-1.152,11.88-3.888c-0.216-0.648-0.36-1.656-0.36-2.808l-1.152-0.36c-2.016,2.448-5.544,3.456-8.424,3.456-2.088,0-4.968-1.8-6.264-3.888s-2.16-5.472-2.16-9.648c0-3.384,0.504-6.12,1.728-8.136,1.368-2.232,3.816-3.456,6.408-3.456"/>
   <path id="path3154" d="m-588,331.04c0,9.576,6.696,15.48,17.424,15.48,11.016,0,17.424-6.12,17.424-16.128,0-9.072-5.112-16.2-17.28-16.2-10.296,0-17.568,5.688-17.568,16.848m17.064-13.248c6.12,0,7.56,4.536,7.56,14.544,0,8.28-2.952,10.584-6.192,10.584-7.488,0-8.208-7.992-8.208-13.536,0-6.264,0.648-11.592,6.84-11.592"/>
   <path id="path3156" d="m-546.52,331.04c0,9.576,6.696,15.48,17.424,15.48,11.016,0,17.424-6.12,17.424-16.128,0-9.072-5.112-16.2-17.28-16.2-10.296,0-17.568,5.688-17.568,16.848m17.064-13.248c6.12,0,7.56,4.536,7.56,14.544,0,8.28-2.952,10.584-6.192,10.584-7.488,0-8.208-7.992-8.208-13.536,0-6.264,0.64801-11.592,6.84-11.592"/>
   <path id="path3158" d="m-493.42,325.49c1.584-3.816,5.256-6.624,7.704-6.624,4.392,0,5.904,5.04,5.904,12.672,0,6.912-3.168,11.376-7.2,11.376-1.8,0-3.744-0.36-6.408-2.592v-14.832m0.288-5.472-0.36-0.216c0-1.584,0-3.96-0.072-4.608-0.144-0.432-0.216-0.72-0.648-0.72-2.088,0.36-6.84,0.36-9.36,0.216l-0.144,0.216c0.504,3.096,0.792,8.64,0.792,13.968v19.224c0,5.4-0.144,10.584-0.72,14.4l0.072,0.216s2.808-0.216,5.328-0.216c2.448,0,5.4,0.216,5.4,0.216l0.144-0.216c-0.648-4.104-0.72-9-0.72-14.4v-3.6c2.376,1.512,5.04,2.016,7.704,2.016,9.072,0,16.128-7.488,16.128-17.64,0-5.688-2.16-9.432-5.472-12.096-2.16-1.656-4.392-2.592-7.992-2.592-3.096,0-6.552,1.008-10.08,5.832"/>
  </g>
  <path id="path3186" stroke-linejoin="miter" d="m227.19,513.59c-11.072-4.8504-23.478,19.805-0.60181,4.9859,1.7046-1.1042,4.7652,1.3328,7.8235-0.77327,4.3359-2.9858-5.1405-4.7378-7.2217-4.2127z" stroke="#000" stroke-linecap="butt" stroke-width="1px" fill="url(#linearGradient4166)"/>
  <path id="path3190" stroke-linejoin="miter" d="m206.32,549.16c-0.28816-0.007-2.0711-4.4743-5.789-2.8654-11.74,5.8698,5.0903,6.4736,5.789,2.8654z" stroke="#000" stroke-linecap="butt" stroke-width="1px" fill="url(#linearGradient4126)"/>
  <path id="path3198" stroke-linejoin="miter" d="m139.84,499.52c-5.2153,0-10.881,7.709-5.9326,7.709,1.2304,0,9.8312-2.6095,10.833-3.6109,2.8238-2.8238,9.7408,2.2954,12.036,0,1.6338-1.6338-7.3325-5.7019-17.106-4.0981" stroke="#000" stroke-linecap="butt" stroke-width="1px" fill="url(#linearGradient4132)"/>
  <path id="path4094" stroke-linejoin="miter" d="m311.92,542.55c-6.3996-1.0155-11.754,5.0902-9.2813,7.5626,1.9373,1.9373,8.1059,1.2961,12.944,1.2562,6.897-0.0568,5.4202-5.6603-3.7767-8.9335" stroke="#000" stroke-linecap="butt" stroke-width="1px" fill="url(#radialGradient4102)"/>
 </g>
</svg>
