<?xml version="1.0" encoding="UTF-8" standalone="no"?>
<!-- Created with Inkscape (http://www.inkscape.org/) -->

<svg
   xmlns:dc="http://purl.org/dc/elements/1.1/"
   xmlns:cc="http://creativecommons.org/ns#"
   xmlns:rdf="http://www.w3.org/1999/02/22-rdf-syntax-ns#"
   xmlns:svg="http://www.w3.org/2000/svg"
   xmlns="http://www.w3.org/2000/svg"
   xmlns:xlink="http://www.w3.org/1999/xlink"
   xmlns:sodipodi="http://sodipodi.sourceforge.net/DTD/sodipodi-0.dtd"
   xmlns:inkscape="http://www.inkscape.org/namespaces/inkscape"
   width="498.18326"
   height="71.428299"
   id="svg3144"
   version="1.1"
   inkscape:version="0.48.3.1 r9886"
   sodipodi:docname="New document 2">
  <defs
     id="defs3146">
    <linearGradient
       x1="-586.63373"
       y1="457.53033"
       x2="-578.33331"
       y2="456.95758"
       id="linearGradient4126"
       xlink:href="#linearGradient4122"
       gradientUnits="userSpaceOnUse"
       gradientTransform="translate(782.52328,91.204503)" />
    <linearGradient
       id="linearGradient4122">
      <stop
         id="stop4124"
         style="stop-color:#ffffff;stop-opacity:1"
         offset="0" />
    </linearGradient>
    <radialGradient
       cx="-480.72501"
       cy="443.14178"
       r="10.70114"
       fx="-480.72501"
       fy="443.14178"
       id="radialGradient4102"
       xlink:href="#linearGradient4096"
       gradientUnits="userSpaceOnUse"
       gradientTransform="matrix(1.0642288,0.25691514,-0.11258761,0.46637568,873.85727,463.79375)" />
    <linearGradient
       id="linearGradient4096">
      <stop
         id="stop4098"
         style="stop-color:#ffffff;stop-opacity:1"
         offset="0" />
    </linearGradient>
    <linearGradient
       gradientTransform="translate(780.25451,103.35863)"
       x1="-566.92944"
       y1="414.81769"
       x2="-544.88379"
       y2="414.81769"
       id="linearGradient4166"
       xlink:href="#linearGradient4162"
       gradientUnits="userSpaceOnUse" />
    <linearGradient
       id="linearGradient4162">
      <stop
         id="stop4164"
         style="stop-color:#ffffff;stop-opacity:1"
         offset="0" />
    </linearGradient>
    <linearGradient
       x1="-630.48102"
       y1="457.80765"
       x2="-604.69257"
       y2="457.80765"
       id="linearGradient4132"
       xlink:href="#linearGradient4128"
       gradientUnits="userSpaceOnUse"
       gradientTransform="translate(762.10435,45.504983)" />
    <linearGradient
       id="linearGradient4128">
      <stop
         id="stop4130"
         style="stop-color:#ffffff;stop-opacity:1"
         offset="0" />
    </linearGradient>
  </defs>
  <sodipodi:namedview
     id="base"
     pagecolor="#ffffff"
     bordercolor="#666666"
     borderopacity="1.0"
     inkscape:pageopacity="0"
     inkscape:pageshadow="2"
     inkscape:zoom="0.35"
     inkscape:cx="249.09165"
     inkscape:cy="35.714149"
     inkscape:document-units="px"
     inkscape:current-layer="layer1"
     showgrid="false"
     fit-margin-top="2"
     fit-margin-left="2"
     fit-margin-right="2"
     fit-margin-bottom="2"
     inkscape:window-width="507"
     inkscape:window-height="420"
     inkscape:window-x="1366"
     inkscape:window-y="39"
     inkscape:window-maximized="0" />
  <metadata
     id="metadata3149">
    <rdf:RDF>
      <cc:Work
         rdf:about="">
        <dc:format>image/svg+xml</dc:format>
        <dc:type
           rdf:resource="http://purl.org/dc/dcmitype/StillImage" />
        <dc:title></dc:title>
      </cc:Work>
    </rdf:RDF>
  </metadata>
  <g
     inkscape:label="Layer 1"
     inkscape:groupmode="layer"
     id="layer1"
     transform="translate(-125.90835,-496.64803)">
    <g
       transform="translate(1091.6831,203.35863)"
       id="flowRoot2985"
       style="font-size:12px;font-style:normal;font-variant:normal;font-weight:bold;font-stretch:normal;line-height:125%;letter-spacing:0px;word-spacing:0px;fill:#000000;fill-opacity:1;stroke:none;font-family:Linux Biolinum Shadow O;-inkscape-font-specification:Linux Biolinum Shadow O Bold">
      <path
         inkscape:connector-curvature="0"
         d="m -947.50275,342.7737 c -4.392,0 -10.44,-4.75201 -12.96,-8.568 l -1.872,0.072 c -0.288,2.59199 -0.864,6.624 -1.44,8.784 l 0.144,0.216 c 0,0 6.69601,3.24 15.48,3.24 10.58399,0 17.208,-6.76801 17.208,-14.112 0,-7.84799 -8.49601,-11.88001 -14.256,-14.616 -3.888,-1.8 -7.344,-3.52801 -7.344,-8.856 0,-3.6 2.592,-6.984 6.552,-6.984 4.32,0 8.568,5.112 10.44,8.64 l 2.16,-0.072 c 0.288,-2.592 0.792,-6.48 1.44,-8.64 l -0.144,-0.216 c 0,0 -5.90401,-3.24 -14.688,-3.24 -8.13599,0 -15.552,4.82401 -15.552,12.456 0,2.80799 0.504,5.544 2.232,7.776 3.312,4.39199 8.856,7.056 13.032,9.144 3.384,1.728 6.264,4.608 6.264,7.56 0,5.11199 -2.376,7.416 -6.696,7.416"
         id="path3134"
         style="font-size:72px;font-family:Linux Biolinum O;-inkscape-font-specification:Linux Biolinum O Bold" />
      <path
         inkscape:connector-curvature="0"
         d="m -889.761,332.8377 0,-7.992 c 0,-7.56 -3.52801,-10.656 -10.008,-10.656 -3.672,0 -7.992,2.232 -11.304,6.48 l -0.36,-0.216 c 0,-1.584 0,-4.608 -0.072,-5.256 -0.144,-0.432 -0.216,-0.72 -0.648,-0.72 -2.088,0.36 -6.84,0.36 -9.36,0.216 l -0.144,0.216 c 0.504,3.09599 0.792,8.64 0.792,13.968 l 0,3.96 c 0,5.39999 -0.216,9.144 -0.792,12.96 l 0.144,0.216 c 0,0 3.384,-0.216 5.904,-0.216 2.448,0 4.464,0.216 4.464,0.216 l 0.216,-0.216 c -0.36,-4.104 -0.432,-7.48801 -0.432,-12.96 l 0,-7.344 c 2.736,-3.6 5.76,-5.76 8.352,-5.76 1.944,0 3.744,1.44 3.744,6.696 l 0,6.408 c 0,5.39999 0,9.144 -0.432,12.96 l 0.144,0.216 c 0,0 2.304,-0.216 4.824,-0.216 2.448,0 5.616,0.216 5.616,0.216 l 0.144,-0.216 c -0.648,-4.104 -0.792,-7.48801 -0.792,-12.96"
         id="path3136"
         style="font-size:72px;font-family:Linux Biolinum O;-inkscape-font-specification:Linux Biolinum O Bold" />
      <path
         inkscape:connector-curvature="0"
         d="m -880.50112,331.0377 c 0,9.57599 6.69601,15.48 17.42399,15.48 11.01599,0 17.424,-6.12001 17.424,-16.128 0,-9.07199 -5.11201,-16.2 -17.28,-16.2 -10.29598,0 -17.56799,5.68801 -17.56799,16.848 m 17.06399,-13.248 c 6.12,0 7.56001,4.53601 7.56001,14.544 0,8.27999 -2.95201,10.584 -6.192,10.584 -7.488,0 -8.208,-7.99201 -8.208,-13.536 0,-6.264 0.648,-11.592 6.83999,-11.592"
         id="path3138"
         style="font-size:72px;font-family:Linux Biolinum O;-inkscape-font-specification:Linux Biolinum O Bold" />
      <path
         inkscape:connector-curvature="0"
         d="m -829.623,346.0857 c 0.648,-0.216 3.672,-0.216 4.32,-0.216 0.648,0 3.888,0 4.464,0.216 1.8,-5.544 4.032,-11.37601 6.336,-16.776 2.232,5.54399 4.392,11.088 6.336,16.704 0.648,-0.216 3.816,-0.216 4.464,-0.216 0.648,0 2.808,0 3.384,0.216 3.744,-10.22399 8.28,-21.02401 12.6,-31.32 -0.576,0.216 -3.096,0.216 -3.744,0.216 -0.648,0 -2.376,0 -2.952,-0.216 -2.448,7.55999 -4.896,16.344 -7.704,23.184 l -0.504,0 c -2.88,-7.70399 -4.68,-15.48001 -6.912,-23.184 -0.864,0.216 -4.032,0.216 -4.968,0.216 -1.008,0 -4.968,0 -5.976,-0.216 1.152,2.95199 2.376,5.832 3.528,8.784 -1.872,5.61599 -3.888,11.304 -5.832,15.912 l -0.72,0 c -3.24,-8.27999 -5.256,-16.34401 -7.632,-24.624 -0.864,0.216 -3.672,0.216 -4.608,0.216 -1.008,0 -5.328,0 -6.336,-0.216 4.32,10.58399 8.856,20.80801 12.456,31.32"
         id="path3140"
         style="font-size:72px;font-family:Linux Biolinum O;-inkscape-font-specification:Linux Biolinum O Bold" />
      <path
         inkscape:connector-curvature="0"
         d="m -759.56587,336.2217 c -1.8,4.60799 -4.10401,6.12 -6.98401,6.12 -3.88799,0 -6.47999,-3.45601 -6.47999,-12.456 0,-9.71999 3.096,-12.096 6.62399,-12.096 3.384,0 6.04801,2.52 6.84001,6.192 l 0,12.24 m 0,5.688 0.144,0 0.36,3.888 c 0,0.144 0.216,0.216 0.648,0.216 0.93599,-0.072 3.528,-0.216 4.53599,-0.216 0.936,0 4.10401,0.072 5.04001,0.216 l 0.14399,-0.216 c -0.57599,-3.096 -1.36799,-8.42401 -1.36799,-13.824 l 0,-22.176 c 0,-5.328 0.288,-9.07201 0.864,-13.536 0,-0.504 -0.36001,-0.72 -0.792,-0.72 -1.872,0.72 -7.41601,2.16 -10.29601,2.376 l -0.144,0.216 c 0.504,3.09599 0.86401,8.064 0.86401,13.536 l 0,5.76 c -1.368,-1.944 -4.75201,-3.24 -6.76801,-3.24 -4.82399,0 -7.488,1.008 -10.72799,3.384 -4.464,3.23999 -6.192,8.496 -6.192,13.608 0,8.85599 5.4,15.336 13.39199,15.336 4.536,0 8.35201,-1.22401 10.29601,-4.608"
         id="path3142"
         style="font-size:72px;font-family:Linux Biolinum O;-inkscape-font-specification:Linux Biolinum O Bold" />
      <path
         inkscape:connector-curvature="0"
         d="m -728.59687,320.6697 -0.36,-0.216 c 0,-1.584 -10e-6,-4.608 -0.072,-5.256 -0.144,-0.432 -0.21601,-0.72 -0.648,-0.72 -2.088,0.36 -6.84001,0.36 -9.36,0.216 l -0.14401,0.216 c 0.504,3.09599 0.79201,8.64 0.79201,13.968 l 0,3.96 c 0,5.39999 -0.14401,9.072 -0.72,12.96 l 0.072,0.216 c 0,0 2.304,-0.216 4.82399,-0.216 2.448,0 5.90401,0.216 5.90401,0.216 l 0.14399,-0.216 c -0.57599,-4.104 -0.71999,-7.48801 -0.71999,-12.96 l 0,-5.256 c 0,-5.544 4.896,-6.408 6.048,-6.408 1.36799,0 2.88,0.36 4.17599,1.368 l 1.29601,-0.144 1.43999,-7.416 -0.28799,-0.288 c -1.224,-0.36 -2.37601,-0.504 -3.672,-0.504 -3.384,0 -6.84001,3.672 -8.712,6.48"
         id="path3144"
         style="font-size:72px;font-family:Linux Biolinum O;-inkscape-font-specification:Linux Biolinum O Bold" />
      <path
         inkscape:connector-curvature="0"
         d="m -708.58987,302.0937 c 0,2.87999 2.376,5.112 5.39999,5.112 3.024,0 5.4,-2.23201 5.4,-5.112 0,-2.88 -2.376,-5.112 -5.4,-5.112 -3.02399,0 -5.39999,2.232 -5.39999,5.112 m 0.648,26.784 0,3.96 c 0,5.39999 -0.14401,9.072 -0.72,12.96 l 0.144,0.216 c 2.15999,-0.144 2.808,-0.216 5.32799,-0.216 2.448,0 3.16801,0.072 5.328,0.216 l 0.144,-0.216 c -0.57599,-4.104 -0.71999,-7.48801 -0.71999,-12.96 l 0,-4.752 c 0,-5.4 0.36,-8.42401 0.71999,-12.816 0,-0.504 -0.216,-0.72 -0.64799,-0.72 -1.008,0.144 -2.95201,0.36 -4.96801,0.36 -1.87199,0 -3.816,-0.144 -5.11199,-0.216 l -0.216,0.288 c 0.57599,3.09599 0.72,8.496 0.72,13.896"
         id="path3146"
         style="font-size:72px;font-family:Linux Biolinum O;-inkscape-font-specification:Linux Biolinum O Bold" />
      <path
         inkscape:connector-curvature="0"
         d="m -680.0385,300.5097 c -3.168,3.31199 -5.328,7.848 -5.328,12.24 l 0,2.16 -3.456,0 c -1.296,0 -1.656,0.864 -1.656,1.44 l 0,1.728 c 0,0.36 0.072,0.432 0.36,0.432 l 4.752,0 0,12.888 c 0,5.39999 0,10.728 -0.504,14.4 l 0.072,0.216 c 0,0 2.88,-0.216 5.4,-0.216 2.448,0 4.968,0.216 4.968,0.216 l 0.144,-0.216 c -0.504,-4.176 -0.576,-9.00001 -0.576,-14.4 l 0,-12.888 9.72,0 0.576,0 4.176,0 -0.216,8.496 c -0.144,4.31999 -0.216,10.296 -0.216,12.456 0,3.38399 2.376,7.056 6.984,7.056 3.744,0 7.488,-0.648 10.584,-2.52 0,-1.152 -0.432,-2.448 -1.224,-2.952 -1.584,0.792 -2.304,0.864 -4.176,0.864 -1.944,0 -2.664,-2.59201 -2.664,-5.544 0,-2.16 -0.072,-5.83201 0.072,-10.152 l 0.144,-7.704 6.552,0 c 0.72,0 1.728,-0.288 1.728,-0.936 l 0,-2.232 c 0,-0.288 -0.216,-0.432 -0.576,-0.432 l -7.704,0 c 0,-5.4 0.072,-5.83201 0.36,-10.008 0,-0.504 -0.216,-0.72 -0.648,-0.72 -1.8,0.72 -6.48,2.592 -9.36,3.24 l -0.144,0.216 c 0.504,3.02399 0.504,3.096 0.504,7.272 l -3.096,0 -1.08,0 -10.296,0 0,-0.72 c 0,-1.8 -0.36,-5.328 -0.36,-6.912 0,-3.96 2.52,-6.768 6.408,-6.768 2.088,0 3.096,1.8 3.888,3.24 l 2.16,-0.072 c 0.504,-1.944 0.864,-5.904 1.656,-7.272 l -0.072,-0.216 c -0.576,-0.36 -2.592,-0.648 -3.96,-0.648 -5.75999,0 -10.872,1.872 -13.896,4.968"
         id="path3148"
         style="font-size:72px;font-family:Linux Biolinum O;-inkscape-font-specification:Linux Biolinum O Bold" />
      <path
         inkscape:connector-curvature="0"
         d="m -638.53387,342.3417 c 0.79199,3.02399 2.016,4.248 4.968,4.896 l 0.288,0 c 2.59199,-0.648 3.96,-1.94401 4.96799,-4.896 l 0,-0.36 c -0.93599,-2.592 -2.304,-3.96 -4.96799,-4.896 l -0.288,0 c -2.736,1.08 -4.03201,2.52 -4.968,4.896 l 0,0.36"
         id="path3150"
         style="font-size:72px;font-family:Linux Biolinum O;-inkscape-font-specification:Linux Biolinum O Bold" />
      <path
         inkscape:connector-curvature="0"
         d="m -603.53512,317.7897 c 2.73599,0 4.896,2.088 6.48,6.048 l 2.01599,-0.072 1.72801,-6.984 -0.144,-0.216 c -2.232,-1.152 -7.12801,-2.376 -10.72801,-2.376 -9.64799,0 -17.49599,5.76001 -17.49599,17.064 0,4.53599 1.44,8.064 3.888,10.656 2.51999,2.80799 7.128,4.608 12.59999,4.608 5.472,0 8.64001,-1.15201 11.88001,-3.888 -0.216,-0.648 -0.36,-1.656 -0.36,-2.808 l -1.152,-0.36 c -2.016,2.44799 -5.54401,3.456 -8.424,3.456 -2.088,0 -4.96801,-1.8 -6.264,-3.888 -1.296,-2.088 -2.16,-5.47201 -2.16,-9.648 0,-3.384 0.504,-6.12 1.728,-8.136 1.36799,-2.232 3.816,-3.456 6.408,-3.456"
         id="path3152"
         style="font-size:72px;font-family:Linux Biolinum O;-inkscape-font-specification:Linux Biolinum O Bold" />
      <path
         inkscape:connector-curvature="0"
         d="m -588.00112,331.0377 c 0,9.57599 6.69601,15.48 17.42399,15.48 11.01599,0 17.424,-6.12001 17.424,-16.128 0,-9.07199 -5.11201,-16.2 -17.28,-16.2 -10.29598,0 -17.56799,5.68801 -17.56799,16.848 m 17.06399,-13.248 c 6.12,0 7.56001,4.53601 7.56001,14.544 0,8.27999 -2.95201,10.584 -6.192,10.584 -7.488,0 -8.208,-7.99201 -8.208,-13.536 0,-6.264 0.648,-11.592 6.83999,-11.592"
         id="path3154"
         style="font-size:72px;font-family:Linux Biolinum O;-inkscape-font-specification:Linux Biolinum O Bold" />
      <path
         inkscape:connector-curvature="0"
         d="m -546.51675,331.0377 c 0,9.57599 6.69601,15.48 17.424,15.48 11.01599,0 17.424,-6.12001 17.424,-16.128 0,-9.07199 -5.11201,-16.2 -17.28,-16.2 -10.29599,0 -17.568,5.68801 -17.568,16.848 m 17.064,-13.248 c 6.11999,0 7.56,4.53601 7.56,14.544 0,8.27999 -2.952,10.584 -6.192,10.584 -7.48799,0 -8.208,-7.99201 -8.208,-13.536 0,-6.264 0.64801,-11.592 6.84,-11.592"
         id="path3156"
         style="font-size:72px;font-family:Linux Biolinum O;-inkscape-font-specification:Linux Biolinum O Bold" />
      <path
         inkscape:connector-curvature="0"
         d="m -493.4235,325.4937 c 1.584,-3.816 5.256,-6.624 7.704,-6.624 4.392,0 5.904,5.04001 5.904,12.672 0,6.91199 -3.168,11.376 -7.2,11.376 -1.8,0 -3.744,-0.36 -6.408,-2.592 l 0,-14.832 m 0.288,-5.472 -0.36,-0.216 c 0,-1.584 0,-3.96 -0.072,-4.608 -0.144,-0.432 -0.216,-0.72 -0.648,-0.72 -2.088,0.36 -6.84,0.36 -9.36,0.216 l -0.144,0.216 c 0.504,3.09599 0.792,8.64 0.792,13.968 l 0,19.224 c 0,5.39999 -0.144,10.584 -0.72,14.4 l 0.072,0.216 c 0,0 2.808,-0.216 5.328,-0.216 2.448,0 5.4,0.216 5.4,0.216 l 0.144,-0.216 c -0.648,-4.104 -0.72,-9.00001 -0.72,-14.4 l 0,-3.6 c 2.376,1.512 5.04,2.016 7.704,2.016 9.07199,0 16.128,-7.48801 16.128,-17.64 0,-5.688 -2.16,-9.43201 -5.472,-12.096 -2.16,-1.656 -4.392,-2.592 -7.992,-2.592 -3.096,0 -6.552,1.008 -10.08,5.832"
         id="path3158"
         style="font-size:72px;font-family:Linux Biolinum O;-inkscape-font-specification:Linux Biolinum O Bold" />
    </g>
    <path
       inkscape:connector-curvature="0"
       d="m 227.19104,513.58945 c -11.07164,-4.85035 -23.4779,19.80544 -0.60181,4.98594 1.70458,-1.10425 4.76519,1.33278 7.82353,-0.77327 4.33593,-2.98581 -5.14048,-4.7378 -7.22172,-4.21267 z"
       id="path3186"
       style="fill:url(#linearGradient4166);fill-opacity:1;stroke:#000000;stroke-width:1px;stroke-linecap:butt;stroke-linejoin:miter;stroke-opacity:1" />
    <path
       inkscape:connector-curvature="0"
       d="m 206.32373,549.16152 c -0.28816,-0.007 -2.07108,-4.47432 -5.789,-2.86545 -11.73958,5.86979 5.09029,6.47357 5.789,2.86545 z"
       id="path3190"
       style="fill:url(#linearGradient4126);fill-opacity:1;stroke:#000000;stroke-width:1px;stroke-linecap:butt;stroke-linejoin:miter;stroke-opacity:1" />
    <path
       inkscape:connector-curvature="0"
       d="m 139.84306,499.51543 c -5.21534,0 -10.88095,7.70898 -5.93258,7.70898 1.23039,0 9.83118,-2.60946 10.83257,-3.61086 2.82381,-2.8238 9.74085,2.29536 12.03621,0 1.63376,-1.63376 -7.33251,-5.70186 -17.1056,-4.09811"
       id="path3198"
       style="fill:url(#linearGradient4132);fill-opacity:1;stroke:#000000;stroke-width:1px;stroke-linecap:butt;stroke-linejoin:miter;stroke-opacity:1" />
    <path
       inkscape:connector-curvature="0"
       d="m 311.92381,542.54864 c -6.39955,-1.01553 -11.75374,5.09019 -9.28134,7.56259 1.93732,1.93733 8.10593,1.29609 12.94389,1.25623 6.89698,-0.0568 5.42021,-5.66031 -3.77666,-8.93352"
       id="path4094"
       style="fill:url(#radialGradient4102);fill-opacity:1;stroke:#000000;stroke-width:1px;stroke-linecap:butt;stroke-linejoin:miter;stroke-opacity:1" />
  </g>
</svg>
