<?xml version="1.0" encoding="UTF-8" standalone="no"?>
<!-- Created with Inkscape (http://www.inkscape.org/) -->
<svg id="svg3178" xmlns:rdf="http://www.w3.org/1999/02/22-rdf-syntax-ns#" xmlns="http://www.w3.org/2000/svg" height="197.83" width="265.85" version="1.1" xmlns:cc="http://creativecommons.org/ns#" xmlns:dc="http://purl.org/dc/elements/1.1/">
 <metadata id="metadata3183">
  <rdf:RDF>
   <cc:Work rdf:about="">
    <dc:format>image/svg+xml</dc:format>
    <dc:type rdf:resource="http://purl.org/dc/dcmitype/StillImage"/>
    <dc:title/>
   </cc:Work>
  </rdf:RDF>
 </metadata>
 <g id="layer1" stroke-linejoin="miter" transform="translate(-198.50183,-299.15991)" stroke="#000" stroke-linecap="butt" stroke-width="1.47520232px" fill="none">
  <g id="g11342" transform="matrix(0.99551009,0,0,0.99551009,259.87878,3803.4884)">
   <path id="path11344" d="m-25.355-3496.1c5.4227-3.8787,10.056,5.5908,8.9353,10.623-1.1077,4.9753-5.584,9.581-8.742,9.9921-4.6182,0.6012-11.015-5.309-10.055-11.864,0.67365-4.598,2.9177-6.8191,5.9411-7.575,4.6785-1.1696,6.7094-0.9228,10.977,0.784"/>
   <path id="path11346" d="m-26.556-3475.9c1.3647,15.986-0.9444,19.932-0.9444,31.159"/>
   <path id="path11348" d="m-26.428-3471.2c3.668,5.5714,18.474,10.065,19.281,15.272"/>
   <path id="path11350" d="m-26.991-3470.1c-3.9498,5.0062-13.027,8.5391-17.279,13.638"/>
   <path id="path11352" d="m-27.303-3445.4c3.9825,12.321,5.1514,16.592,7.2456,26.247"/>
   <path id="path11354" d="m-27.457-3445.1c-2.9354,11.274-6.5758,19.433-8.1465,25.947"/>
  </g>
  <g id="g3205" transform="matrix(0.99551009,0,0,0.99551009,314.16448,3792.0599)">
   <path id="path3207" d="m-25.355-3496.1c5.4227-3.8787,10.056,5.5908,8.9353,10.623-1.1077,4.9753-5.584,9.581-8.742,9.9921-4.6182,0.6012-11.015-5.309-10.055-11.864,0.67365-4.598,2.9177-6.8191,5.9411-7.575,4.6785-1.1696,6.7094-0.9228,10.977,0.784"/>
   <path id="path3209" d="m-26.556-3475.9c1.3647,15.986-0.9444,19.932-0.9444,31.159"/>
   <path id="path3211" d="m-26.428-3471.2c3.668,5.5714,18.474,10.065,19.281,15.272"/>
   <path id="path3213" d="m-26.991-3470.1c-3.9498,5.0062-13.027,8.5391-17.279,13.638"/>
   <path id="path3215" d="m-27.303-3445.4c3.9825,12.321,5.1514,16.592,7.2456,26.247"/>
   <path id="path3217" d="m-27.457-3445.1c-2.9354,11.274-6.5758,19.433-8.1465,25.947"/>
  </g>
  <g id="g3219" transform="matrix(0.99551009,0,0,0.99551009,359.87879,3789.2027)">
   <path id="path3221" d="m-25.355-3496.1c5.4227-3.8787,10.056,5.5908,8.9353,10.623-1.1077,4.9753-5.584,9.581-8.742,9.9921-4.6182,0.6012-11.015-5.309-10.055-11.864,0.67365-4.598,2.9177-6.8191,5.9411-7.575,4.6785-1.1696,6.7094-0.9228,10.977,0.784"/>
   <path id="path3223" d="m-26.556-3475.9c1.3647,15.986-0.9444,19.932-0.9444,31.159"/>
   <path id="path3225" d="m-26.428-3471.2c3.668,5.5714,18.474,10.065,19.281,15.272"/>
   <path id="path3227" d="m-26.991-3470.1c-3.9498,5.0062-13.027,8.5391-17.279,13.638"/>
   <path id="path3229" d="m-27.303-3445.4c3.9825,12.321,5.1514,16.592,7.2456,26.247"/>
   <path id="path3231" d="m-27.457-3445.1c-2.9354,11.274-6.5758,19.433-8.1465,25.947"/>
  </g>
  <g id="g3233" transform="matrix(0.99551009,0,0,0.99551009,414.1645,3789.2027)">
   <path id="path3235" d="m-25.355-3496.1c5.4227-3.8787,10.056,5.5908,8.9353,10.623-1.1077,4.9753-5.584,9.581-8.742,9.9921-4.6182,0.6012-11.015-5.309-10.055-11.864,0.67365-4.598,2.9177-6.8191,5.9411-7.575,4.6785-1.1696,6.7094-0.9228,10.977,0.784"/>
   <path id="path3237" d="m-26.556-3475.9c1.3647,15.986-0.9444,19.932-0.9444,31.159"/>
   <path id="path3239" d="m-26.428-3471.2c3.668,5.5714,18.474,10.065,19.281,15.272"/>
   <path id="path3241" d="m-26.991-3470.1c-3.9498,5.0062-13.027,8.5391-17.279,13.638"/>
   <path id="path3243" d="m-27.303-3445.4c3.9825,12.321,5.1514,16.592,7.2456,26.247"/>
   <path id="path3245" d="m-27.457-3445.1c-2.9354,11.274-6.5758,19.433-8.1465,25.947"/>
  </g>
  <g id="g3247" transform="matrix(0.99551009,0,0,0.99551009,462.73593,3797.7742)">
   <path id="path3249" d="m-25.355-3496.1c5.4227-3.8787,10.056,5.5908,8.9353,10.623-1.1077,4.9753-5.584,9.581-8.742,9.9921-4.6182,0.6012-11.015-5.309-10.055-11.864,0.67365-4.598,2.9177-6.8191,5.9411-7.575,4.6785-1.1696,6.7094-0.9228,10.977,0.784"/>
   <path id="path3251" d="m-26.556-3475.9c1.3647,15.986-0.9444,19.932-0.9444,31.159"/>
   <path id="path3253" d="m-26.428-3471.2c3.668,5.5714,18.474,10.065,19.281,15.272"/>
   <path id="path3255" d="m-26.991-3470.1c-3.9498,5.0062-13.027,8.5391-17.279,13.638"/>
   <path id="path3257" d="m-27.303-3445.4c3.9825,12.321,5.1514,16.592,7.2456,26.247"/>
   <path id="path3259" d="m-27.457-3445.1c-2.9354,11.274-6.5758,19.433-8.1465,25.947"/>
  </g>
  <g id="g3261" transform="matrix(0.99551009,0,0,0.99551009,251.30735,3892.06)">
   <path id="path3263" d="m-25.355-3496.1c5.4227-3.8787,10.056,5.5908,8.9353,10.623-1.1077,4.9753-5.584,9.581-8.742,9.9921-4.6182,0.6012-11.015-5.309-10.055-11.864,0.67365-4.598,2.9177-6.8191,5.9411-7.575,4.6785-1.1696,6.7094-0.9228,10.977,0.784"/>
   <path id="path3265" d="m-26.556-3475.9c1.3647,15.986-0.9444,19.932-0.9444,31.159"/>
   <path id="path3267" d="m-26.428-3471.2c3.668,5.5714,18.474,10.065,19.281,15.272"/>
   <path id="path3269" d="m-26.991-3470.1c-3.9498,5.0062-13.027,8.5391-17.279,13.638"/>
   <path id="path3271" d="m-27.303-3445.4c3.9825,12.321,5.1514,16.592,7.2456,26.247"/>
   <path id="path3273" d="m-27.457-3445.1c-2.9354,11.274-6.5758,19.433-8.1465,25.947"/>
  </g>
  <g id="g3275" transform="matrix(0.99551009,0,0,0.99551009,308.45021,3889.2028)">
   <path id="path3277" d="m-25.355-3496.1c5.4227-3.8787,10.056,5.5908,8.9353,10.623-1.1077,4.9753-5.584,9.581-8.742,9.9921-4.6182,0.6012-11.015-5.309-10.055-11.864,0.67365-4.598,2.9177-6.8191,5.9411-7.575,4.6785-1.1696,6.7094-0.9228,10.977,0.784"/>
   <path id="path3279" d="m-26.556-3475.9c1.3647,15.986-0.9444,19.932-0.9444,31.159"/>
   <path id="path3281" d="m-26.428-3471.2c3.668,5.5714,18.474,10.065,19.281,15.272"/>
   <path id="path3283" d="m-26.991-3470.1c-3.9498,5.0062-13.027,8.5391-17.279,13.638"/>
   <path id="path3285" d="m-27.303-3445.4c3.9825,12.321,5.1514,16.592,7.2456,26.247"/>
   <path id="path3287" d="m-27.457-3445.1c-2.9354,11.274-6.5758,19.433-8.1465,25.947"/>
  </g>
  <g id="g3289" transform="matrix(0.99551009,0,0,0.99551009,354.16451,3874.917)">
   <path id="path3291" d="m-25.355-3496.1c5.4227-3.8787,10.056,5.5908,8.9353,10.623-1.1077,4.9753-5.584,9.581-8.742,9.9921-4.6182,0.6012-11.015-5.309-10.055-11.864,0.67365-4.598,2.9177-6.8191,5.9411-7.575,4.6785-1.1696,6.7094-0.9228,10.977,0.784"/>
   <path id="path3293" d="m-26.556-3475.9c1.3647,15.986-0.9444,19.932-0.9444,31.159"/>
   <path id="path3295" d="m-26.428-3471.2c3.668,5.5714,18.474,10.065,19.281,15.272"/>
   <path id="path3297" d="m-26.991-3470.1c-3.9498,5.0062-13.027,8.5391-17.279,13.638"/>
   <path id="path3299" d="m-27.303-3445.4c3.9825,12.321,5.1514,16.592,7.2456,26.247"/>
   <path id="path3301" d="m-27.457-3445.1c-2.9354,11.274-6.5758,19.433-8.1465,25.947"/>
  </g>
  <g id="g3303" transform="matrix(0.99551009,0,0,0.99551009,405.59308,3892.0599)">
   <path id="path3305" d="m-25.355-3496.1c5.4227-3.8787,10.056,5.5908,8.9353,10.623-1.1077,4.9753-5.584,9.581-8.742,9.9921-4.6182,0.6012-11.015-5.309-10.055-11.864,0.67365-4.598,2.9177-6.8191,5.9411-7.575,4.6785-1.1696,6.7094-0.9228,10.977,0.784"/>
   <path id="path3307" d="m-26.556-3475.9c1.3647,15.986-0.9444,19.932-0.9444,31.159"/>
   <path id="path3309" d="m-26.428-3471.2c3.668,5.5714,18.474,10.065,19.281,15.272"/>
   <path id="path3311" d="m-26.991-3470.1c-3.9498,5.0062-13.027,8.5391-17.279,13.638"/>
   <path id="path3313" d="m-27.303-3445.4c3.9825,12.321,5.1514,16.592,7.2456,26.247"/>
   <path id="path3315" d="m-27.457-3445.1c-2.9354,11.274-6.5758,19.433-8.1465,25.947"/>
  </g>
  <g id="g3317" transform="matrix(0.99551009,0,0,0.99551009,451.30736,3886.3456)">
   <path id="path3319" d="m-25.355-3496.1c5.4227-3.8787,10.056,5.5908,8.9353,10.623-1.1077,4.9753-5.584,9.581-8.742,9.9921-4.6182,0.6012-11.015-5.309-10.055-11.864,0.67365-4.598,2.9177-6.8191,5.9411-7.575,4.6785-1.1696,6.7094-0.9228,10.977,0.784"/>
   <path id="path3321" d="m-26.556-3475.9c1.3647,15.986-0.9444,19.932-0.9444,31.159"/>
   <path id="path3323" d="m-26.428-3471.2c3.668,5.5714,18.474,10.065,19.281,15.272"/>
   <path id="path3325" d="m-26.991-3470.1c-3.9498,5.0062-13.027,8.5391-17.279,13.638"/>
   <path id="path3327" d="m-27.303-3445.4c3.9825,12.321,5.1514,16.592,7.2456,26.247"/>
   <path id="path3329" d="m-27.457-3445.1c-2.9354,11.274-6.5758,19.433-8.1465,25.947"/>
  </g>
 </g>
</svg>
