<?xml version="1.0" encoding="UTF-8" standalone="no"?>
<!-- Created with Inkscape (http://www.inkscape.org/) -->
<svg id="svg13333" xmlns:rdf="http://www.w3.org/1999/02/22-rdf-syntax-ns#" xmlns="http://www.w3.org/2000/svg" height="120.16" width="126.06" version="1.1" xmlns:cc="http://creativecommons.org/ns#" xmlns:xlink="http://www.w3.org/1999/xlink" xmlns:dc="http://purl.org/dc/elements/1.1/">
 <defs id="defs13335">
  <radialGradient id="radialGradient7456" xlink:href="#linearGradient21829" gradientUnits="userSpaceOnUse" cy="283.7" cx="382.85" gradientTransform="matrix(0.17875711,0,0,0.20759031,83.284965,-67.88704)" r="131.81"/>
  <linearGradient id="linearGradient21829">
   <stop id="stop21831" stop-color="#7b6302" offset="0"/>
   <stop id="stop21833" stop-color="#6e5901" offset="1"/>
  </linearGradient>
  <linearGradient id="linearGradient7458" y2="218.75" xlink:href="#linearGradient21829" gradientUnits="userSpaceOnUse" x2="459.97" gradientTransform="matrix(0.17875711,0,0,0.1701143,83.859541,-56.161678)" y1="283.03" x1="494.26"/>
  <linearGradient id="linearGradient7460" y2="185.36" spreadMethod="reflect" gradientUnits="userSpaceOnUse" x2="394.79" gradientTransform="matrix(0.17875711,0,0,0.1701143,83.221123,-57.25527)" y1="191.07" x1="330.21">
   <stop id="stop22266" stop-color="#725c01" offset="0"/>
   <stop id="stop22268" stop-color="#796201" offset="1"/>
  </linearGradient>
  <linearGradient id="linearGradient7462" y2="550" xlink:href="#linearGradient21829" gradientUnits="userSpaceOnUse" x2="481.84" gradientTransform="matrix(0.17875711,0,0,0.1701143,83.284965,-57.25527)" y1="550" x1="258.49"/>
  <radialGradient id="radialGradient7464" xlink:href="#linearGradient21847" spreadMethod="reflect" gradientUnits="userSpaceOnUse" cy="223.65" cx="250.97" gradientTransform="matrix(0.0485608,-0.09943402,0.13711367,0.06064371,120.75591,-19.296475)" r="14.574"/>
  <linearGradient id="linearGradient21847">
   <stop id="stop21849" stop-color="#634f00" offset="0"/>
   <stop id="stop21851" stop-color="#735d01" offset="1"/>
  </linearGradient>
  <radialGradient id="radialGradient7466" xlink:href="#linearGradient21847" spreadMethod="reflect" gradientUnits="userSpaceOnUse" cy="223.65" cx="250.97" gradientTransform="matrix(0.04621747,-0.10044025,0.13850137,0.05771723,128.7469,20.00384)" r="14.574"/>
  <radialGradient id="radialGradient7468" xlink:href="#linearGradient21847" spreadMethod="reflect" gradientUnits="userSpaceOnUse" cy="223.65" cx="250.97" gradientTransform="matrix(0.04621747,-0.10044025,0.13850137,0.05771723,125.60248,19.634761)" r="14.574"/>
  <radialGradient id="radialGradient7470" xlink:href="#linearGradient21847" spreadMethod="reflect" gradientUnits="userSpaceOnUse" cy="223.65" cx="250.97" gradientTransform="matrix(-0.11260894,-0.02320648,0.0320002,-0.14062873,194.18046,43.446272)" r="14.574"/>
  <radialGradient id="radialGradient7472" xlink:href="#linearGradient21847" spreadMethod="reflect" gradientUnits="userSpaceOnUse" cy="223.65" cx="250.97" gradientTransform="matrix(0.04621747,-0.10044025,0.13850137,0.05771723,121.66837,19.309604)" r="14.574"/>
  <radialGradient id="radialGradient7474" xlink:href="#linearGradient21847" spreadMethod="reflect" gradientUnits="userSpaceOnUse" cy="223.65" cx="250.97" gradientTransform="matrix(-0.10413352,-0.04692739,0.0647099,-0.13004456,180.0224,47.27517)" r="14.574"/>
  <radialGradient id="radialGradient7476" xlink:href="#linearGradient21847" spreadMethod="reflect" gradientUnits="userSpaceOnUse" cy="223.65" cx="250.97" gradientTransform="matrix(-0.05714686,-0.09521093,0.13129048,-0.07136635,148.5713,46.306029)" r="14.574"/>
  <radialGradient id="radialGradient7478" xlink:href="#linearGradient21847" spreadMethod="reflect" gradientUnits="userSpaceOnUse" cy="223.65" cx="250.97" gradientTransform="matrix(0.04621747,-0.10044025,0.13850137,0.05771723,117.64442,18.992766)" r="14.574"/>
  <radialGradient id="radialGradient7480" xlink:href="#linearGradient21847" spreadMethod="reflect" gradientUnits="userSpaceOnUse" cy="223.65" cx="250.97" gradientTransform="matrix(0.04621747,-0.10044025,0.13850137,0.05771723,105.56786,12.690287)" r="14.574"/>
  <radialGradient id="radialGradient7482" xlink:href="#linearGradient21847" spreadMethod="reflect" gradientUnits="userSpaceOnUse" cy="223.65" cx="250.97" gradientTransform="matrix(0.04621747,-0.10044025,0.13850137,0.05771723,114.31516,17.489126)" r="14.574"/>
  <radialGradient id="radialGradient7484" xlink:href="#linearGradient21847" spreadMethod="reflect" gradientUnits="userSpaceOnUse" cy="223.65" cx="250.97" gradientTransform="matrix(0.04621747,-0.10044025,0.13850137,0.05771723,111.07576,15.977133)" r="14.574"/>
  <radialGradient id="radialGradient7486" xlink:href="#linearGradient21847" spreadMethod="reflect" gradientUnits="userSpaceOnUse" cy="223.65" cx="250.97" gradientTransform="matrix(0.04621747,-0.10044025,0.13850137,0.05771723,107.68295,14.738378)" r="14.574"/>
  <radialGradient id="radialGradient7488" xlink:href="#linearGradient21847" spreadMethod="reflect" gradientUnits="userSpaceOnUse" cy="223.65" cx="250.97" gradientTransform="matrix(-0.10413352,-0.04692739,0.0647099,-0.13004456,173.01394,46.454845)" r="14.574"/>
  <radialGradient id="radialGradient7490" xlink:href="#linearGradient21847" spreadMethod="reflect" gradientUnits="userSpaceOnUse" cy="223.65" cx="250.97" gradientTransform="matrix(-0.10413352,-0.04692739,0.0647099,-0.13004456,166.44528,43.439195)" r="14.574"/>
  <radialGradient id="radialGradient7492" xlink:href="#linearGradient21847" spreadMethod="reflect" gradientUnits="userSpaceOnUse" cy="223.65" cx="250.97" gradientTransform="matrix(-0.10413352,-0.04692739,0.0647099,-0.13004456,169.45233,44.454811)" r="14.574"/>
  <radialGradient id="radialGradient7494" xlink:href="#linearGradient21847" spreadMethod="reflect" gradientUnits="userSpaceOnUse" cy="223.65" cx="250.97" gradientTransform="matrix(-0.06189948,0.09248111,-0.12752622,-0.07730147,196.10701,-7.227546)" r="14.574"/>
  <radialGradient id="radialGradient7496" xlink:href="#linearGradient21847" spreadMethod="reflect" gradientUnits="userSpaceOnUse" cy="223.65" cx="250.97" gradientTransform="matrix(0.0485608,-0.09943402,0.13711367,0.06064371,103.76644,-10.13861)" r="14.574"/>
  <radialGradient id="radialGradient7498" xlink:href="#linearGradient21847" spreadMethod="reflect" gradientUnits="userSpaceOnUse" cy="223.65" cx="250.97" gradientTransform="matrix(0.0485608,-0.09943402,0.13711367,0.06064371,98.630224,10.539514)" r="14.574"/>
  <radialGradient id="radialGradient7500" xlink:href="#linearGradient21847" spreadMethod="reflect" gradientUnits="userSpaceOnUse" cy="223.65" cx="250.97" gradientTransform="matrix(0.0485608,-0.09943402,0.13711367,0.06064371,91.998398,14.867716)" r="14.574"/>
  <radialGradient id="radialGradient7502" xlink:href="#linearGradient21847" spreadMethod="reflect" gradientUnits="userSpaceOnUse" cy="223.65" cx="250.97" gradientTransform="matrix(0.0485608,-0.09943402,0.13711367,0.06064371,95.237609,12.840242)" r="14.574"/>
  <radialGradient id="radialGradient7504" xlink:href="#linearGradient21847" spreadMethod="reflect" gradientUnits="userSpaceOnUse" cy="223.65" cx="250.97" gradientTransform="matrix(0.0485608,-0.09943402,0.13711367,0.06064371,96.984116,7.757244)" r="14.574"/>
  <radialGradient id="radialGradient7506" xlink:href="#linearGradient21847" spreadMethod="reflect" gradientUnits="userSpaceOnUse" cy="223.65" cx="250.97" gradientTransform="matrix(0.0485608,-0.09943402,0.13711367,0.06064371,89.42934,7.509404)" r="14.574"/>
  <radialGradient id="radialGradient7508" xlink:href="#linearGradient21847" spreadMethod="reflect" gradientUnits="userSpaceOnUse" cy="223.65" cx="250.97" gradientTransform="matrix(0.0485608,-0.09943402,0.13711367,0.06064371,89.606537,1.277267)" r="14.574"/>
  <radialGradient id="radialGradient7510" xlink:href="#linearGradient21847" spreadMethod="reflect" gradientUnits="userSpaceOnUse" cy="223.65" cx="250.97" gradientTransform="matrix(0.0485608,-0.09943402,0.13711367,0.06064371,91.88557,-4.804829)" r="14.574"/>
  <radialGradient id="radialGradient7512" xlink:href="#linearGradient21847" spreadMethod="reflect" gradientUnits="userSpaceOnUse" cy="223.65" cx="250.97" gradientTransform="matrix(0.0485608,-0.09943402,0.13711367,0.06064371,87.776041,-6.840281)" r="14.574"/>
  <radialGradient id="radialGradient7514" xlink:href="#linearGradient21847" spreadMethod="reflect" gradientUnits="userSpaceOnUse" cy="223.65" cx="250.97" gradientTransform="matrix(0.0485608,-0.09943402,0.13711367,0.06064371,98.867862,-12.791407)" r="14.574"/>
  <radialGradient id="radialGradient7516" xlink:href="#linearGradient21847" spreadMethod="reflect" gradientUnits="userSpaceOnUse" cy="223.65" cx="250.97" gradientTransform="matrix(0.0485608,-0.09943402,0.13711367,0.06064371,97.618686,-8.419027)" r="14.574"/>
  <radialGradient id="radialGradient7518" xlink:href="#linearGradient21847" spreadMethod="reflect" gradientUnits="userSpaceOnUse" cy="223.65" cx="250.97" gradientTransform="matrix(0.0485608,-0.09943402,0.13711367,0.06064371,113.99672,-20.067144)" r="14.574"/>
  <radialGradient id="radialGradient7520" xlink:href="#linearGradient21847" spreadMethod="reflect" gradientUnits="userSpaceOnUse" cy="223.65" cx="250.97" gradientTransform="matrix(0.0485608,-0.09943402,0.13711367,0.06064371,105.47768,-19.103141)" r="14.574"/>
  <radialGradient id="radialGradient7522" xlink:href="#linearGradient21847" spreadMethod="reflect" gradientUnits="userSpaceOnUse" cy="223.65" cx="250.97" gradientTransform="matrix(0.0485608,-0.09943402,0.13711367,0.06064371,97.94044,-19.17993)" r="14.574"/>
  <radialGradient id="radialGradient7524" xlink:href="#linearGradient21847" spreadMethod="reflect" gradientUnits="userSpaceOnUse" cy="223.65" cx="250.97" gradientTransform="matrix(0.0485608,-0.09943402,0.13711367,0.06064371,89.61849,-15.955618)" r="14.574"/>
  <radialGradient id="radialGradient7526" xlink:href="#linearGradient21847" spreadMethod="reflect" gradientUnits="userSpaceOnUse" cy="223.65" cx="250.97" gradientTransform="matrix(0.11348288,-0.01896315,0.02614931,0.14172001,97.55805,-28.4943)" r="14.574"/>
  <radialGradient id="radialGradient7528" xlink:href="#linearGradient21847" spreadMethod="reflect" gradientUnits="userSpaceOnUse" cy="223.65" cx="250.97" gradientTransform="matrix(0.11348288,-0.01896315,0.02614931,0.14172001,95.594752,-36.774988)" r="14.574"/>
  <radialGradient id="radialGradient7530" xlink:href="#linearGradient21847" spreadMethod="reflect" gradientUnits="userSpaceOnUse" cy="223.65" cx="250.97" gradientTransform="matrix(0.11348288,-0.01896315,0.02614931,0.14172001,96.461985,-49.545928)" r="14.574"/>
  <radialGradient id="radialGradient7532" xlink:href="#linearGradient21847" spreadMethod="reflect" gradientUnits="userSpaceOnUse" cy="223.65" cx="250.97" gradientTransform="matrix(0.11348288,-0.01896315,0.02614931,0.14172001,101.27322,-40.669321)" r="14.574"/>
  <radialGradient id="radialGradient7534" xlink:href="#linearGradient21847" spreadMethod="reflect" gradientUnits="userSpaceOnUse" cy="223.65" cx="250.97" gradientTransform="matrix(0.11348288,-0.01896315,0.02614931,0.14172001,112.01615,-54.443961)" r="14.574"/>
  <radialGradient id="radialGradient7536" xlink:href="#linearGradient21847" spreadMethod="reflect" gradientUnits="userSpaceOnUse" cy="223.65" cx="250.97" gradientTransform="matrix(0.11348288,-0.01896315,0.02614931,0.14172001,101.75406,-49.237594)" r="14.574"/>
  <radialGradient id="radialGradient7538" xlink:href="#linearGradient21847" spreadMethod="reflect" gradientUnits="userSpaceOnUse" cy="223.65" cx="250.97" gradientTransform="matrix(0.11348288,-0.01896315,0.02614931,0.14172001,118.5164,-60.054875)" r="14.574"/>
  <radialGradient id="radialGradient7540" xlink:href="#linearGradient21847" spreadMethod="reflect" gradientUnits="userSpaceOnUse" cy="223.65" cx="250.97" gradientTransform="matrix(-0.11505987,0.00576393,-0.00794836,-0.14368943,195.76609,-1.183776)" r="14.574"/>
  <radialGradient id="radialGradient7542" xlink:href="#linearGradient21847" spreadMethod="reflect" gradientUnits="userSpaceOnUse" cy="223.65" cx="250.97" gradientTransform="matrix(-0.11505987,0.00576393,-0.00794836,-0.14368943,186.50674,-2.542122)" r="14.574"/>
  <radialGradient id="radialGradient7544" xlink:href="#linearGradient21847" spreadMethod="reflect" gradientUnits="userSpaceOnUse" cy="223.65" cx="250.97" gradientTransform="matrix(-0.10441346,0.04636108,-0.06392944,-0.1303938,190.59899,-16.40654)" r="14.574"/>
  <radialGradient id="radialGradient7546" xlink:href="#linearGradient21847" spreadMethod="reflect" gradientUnits="userSpaceOnUse" cy="223.65" cx="250.97" gradientTransform="matrix(-0.10441346,0.04636108,-0.06392944,-0.1303938,178.3143,-11.414978)" r="14.574"/>
  <radialGradient id="radialGradient7548" xlink:href="#linearGradient21847" spreadMethod="reflect" gradientUnits="userSpaceOnUse" cy="223.65" cx="250.97" gradientTransform="matrix(-0.10441346,0.04636108,-0.06392944,-0.1303938,172.50516,3.805455)" r="14.574"/>
  <radialGradient id="radialGradient7550" xlink:href="#linearGradient21847" spreadMethod="reflect" gradientUnits="userSpaceOnUse" cy="223.65" cx="250.97" gradientTransform="matrix(-0.10441346,0.04636108,-0.06392944,-0.1303938,180.08875,10.525293)" r="14.574"/>
  <radialGradient id="radialGradient7552" xlink:href="#linearGradient21847" spreadMethod="reflect" gradientUnits="userSpaceOnUse" cy="223.65" cx="250.97" gradientTransform="matrix(-0.10441346,0.04636108,-0.06392944,-0.1303938,178.67986,17.130848)" r="14.574"/>
  <radialGradient id="radialGradient7554" xlink:href="#linearGradient21847" spreadMethod="reflect" gradientUnits="userSpaceOnUse" cy="223.65" cx="250.97" gradientTransform="matrix(-0.04500532,0.10093749,-0.13918708,-0.05620355,186.01859,-46.505012)" r="14.574"/>
  <radialGradient id="radialGradient7556" xlink:href="#linearGradient21847" spreadMethod="reflect" gradientUnits="userSpaceOnUse" cy="223.65" cx="250.97" gradientTransform="matrix(-0.04500532,0.10093749,-0.13918708,-0.05620355,174.71635,-25.343052)" r="14.574"/>
  <radialGradient id="radialGradient7558" xlink:href="#linearGradient21847" spreadMethod="reflect" gradientUnits="userSpaceOnUse" cy="223.65" cx="250.97" gradientTransform="matrix(-0.04500532,0.10093749,-0.13918708,-0.05620355,185.65507,-39.838168)" r="14.574"/>
  <radialGradient id="radialGradient7560" xlink:href="#linearGradient21847" spreadMethod="reflect" gradientUnits="userSpaceOnUse" cy="223.65" cx="250.97" gradientTransform="matrix(-0.04500532,0.10093749,-0.13918708,-0.05620355,203.51839,-47.010961)" r="14.574"/>
  <linearGradient id="linearGradient7562" y2="228.59" gradientUnits="userSpaceOnUse" x2="414.07" gradientTransform="matrix(0.17875711,0,0,0.1701143,83.284965,-57.25527)" y1="286.96" x1="460.57">
   <stop id="stop22100" stop-color="#7b6300" offset="0"/>
   <stop id="stop22102" stop-color="#7b6300" stop-opacity="0" offset="1"/>
  </linearGradient>
  <linearGradient id="linearGradient7564" y2="226.91" gradientUnits="userSpaceOnUse" x2="451.16" gradientTransform="matrix(0.17875711,0,0,0.1701143,83.284965,-57.25527)" y1="236.01" x1="456.8">
   <stop id="stop22091" stop-color="#745b00" offset="0"/>
   <stop id="stop22093" stop-color="#685300" offset="1"/>
  </linearGradient>
  <radialGradient id="radialGradient7566" gradientUnits="userSpaceOnUse" cy="240.54" cx="459.82" gradientTransform="matrix(0.20285911,-2.0139696e-7,1.7810368e-7,0.16246868,72.202271,-55.41613)" r="15.893">
   <stop id="stop22118" stop-color="#695400" offset="0"/>
   <stop id="stop22120" stop-color="#6e5800" stop-opacity="0.0000000" offset="1"/>
  </radialGradient>
  <radialGradient id="radialGradient7568" xlink:href="#linearGradient21847" spreadMethod="reflect" gradientUnits="userSpaceOnUse" cy="223.65" cx="250.97" gradientTransform="matrix(-0.11521486,-9.5310109e-4,0.00131402,-0.14388302,161.52529,9.832111)" r="14.574"/>
  <radialGradient id="radialGradient7570" xlink:href="#linearGradient21847" spreadMethod="reflect" gradientUnits="userSpaceOnUse" cy="223.65" cx="250.97" gradientTransform="matrix(-0.11247952,-0.02376769,0.03277404,-0.14046729,159.22958,14.741933)" r="14.574"/>
  <radialGradient id="radialGradient7572" xlink:href="#linearGradient21847" spreadMethod="reflect" gradientUnits="userSpaceOnUse" cy="223.65" cx="250.97" gradientTransform="matrix(0.0485608,-0.09943402,0.13711367,0.06064371,101.9528,-21.045523)" r="14.574"/>
 </defs>
 <metadata id="metadata13338">
  <rdf:RDF>
   <cc:Work rdf:about="">
    <dc:format>image/svg+xml</dc:format>
    <dc:type rdf:resource="http://purl.org/dc/dcmitype/StillImage"/>
    <dc:title/>
   </cc:Work>
  </rdf:RDF>
 </metadata>
 <g id="layer1" transform="translate(-508.48769,-596.94227)">
  <g id="g7358" transform="translate(421.06034,651.71787)">
   <path id="path20899" stroke-linejoin="miter" fill="#735d04" fill-rule="evenodd" transform="matrix(0.17875711,0,0,0.1701143,83.284965,-57.25527)" stroke="#000" stroke-linecap="square" stroke-miterlimit="4" stroke-dasharray="none" stroke-width="2" d="M636.63,586.47c-120.8,144.07-335.51,162.93-479.58,42.13-144.06-120.8-162.93-335.51-42.13-479.58s335.51-162.93,479.58-42.13c140.41,117.73,162.44,325.47,49.86,470.03"/>
   <path id="path22049" d="m138.3,2.6701-0.051,7.4623c8.4474,2.3082,17.004,4.7151,25.575,8.2327,0.46899,0.19246,1.7823-11.427,1.7823-11.427,8.1752,2.307,9.2479,1.7653,8.5336-1.2476-0.93784-3.9556-2.188-2.1711-3.305-2.6637,0.84845-2.4489,1.0871-6.8047,2.021-10.961-1.694-1.9208,3.1637-1.7513,2.3344-3.3963-0.82926-1.645-4.9632-8.3434-6.8391-9.7767-0.0245-2.2764-0.0584-3.8935-0.6862-6.4903-0.277-1.1458,2.677-7.2704-13.248-8.6279-6.435-0.54857-12.851,0.77031-13.875,1.33-9.1966,5.0265-16.227,10.44-10.037,30.22,0.34594,1.1055,1.9723,11.513,7.795,7.3457z" fill-rule="evenodd" fill="url(#radialGradient7456)"/>
   <path id="path22051" stroke-linejoin="miter" d="m167.28-21.78c3.7593,3.3206,6.1839,7.6835,7.7665,9.9617,2.2822,3.2856,0.21441,3.012-1.8057,3.7805-1.5246,0.58003-3.6114,0.68736-5.4172,1.031-1.0397-0.2586-1.2495-1.8538,0.90286-2.2339,0.6019-0.34368,0.18234-1.1734,0.78425-1.5171-0.72229-2.864-3.1045-8.0367-2.2307-11.022z" stroke-opacity="0.42391304" fill-rule="evenodd" stroke="#504002" stroke-linecap="butt" stroke-miterlimit="4" stroke-dasharray="none" stroke-width="0.13461486" fill="url(#linearGradient7458)"/>
   <path id="path22067" d="m146.62-7.4361c-2.8835-0.57717-3.0431-6.3033-1.205-11.642,1.8251-5.3012,3.1203-10.776,3.1203-10.776l18.706-0.5468c1.3407,3.1188,2.3621,7.5134,1.7237,10.328-4.7456-0.78982-16.45,11.543-22.345,12.637z" fill-rule="evenodd" fill="url(#linearGradient7460)"/>
   <g id="g22212" stroke-linejoin="miter" font-weight="normal" font-family="Bitstream Vera Sans" transform="matrix(0.17875711,0,0,0.1701143,83.284965,-57.25527)" font-style="normal" stroke="#261e00" stroke-linecap="butt" stroke-miterlimit="4" stroke-dasharray="none" fill="#8c7104">
    <text id="text20901" space="preserve" transform="matrix(0.9952,-0.09786229,0.09786229,0.9952,0,0)" font-size="62.75154877px" y="120.02852" x="299.4971" stroke-width="0.77195311">
     <tspan id="tspan20903" y="120.02852" x="299.4971">W</tspan>
    </text>
    <text id="text21631" space="preserve" transform="matrix(0.999411,0.03430643,-0.03430643,0.999411,0,0)" font-size="62.75146103px" y="71.21431" x="367.55338" stroke-width="0.7719534">
     <tspan id="tspan21633" y="71.21431" x="367.55338">E</tspan>
    </text>
    <text id="text21635" space="preserve" transform="matrix(0.606934,-0.794752,0.794752,0.606934,0,0)" font-size="62.75144577px" y="238.35193" x="-105.72861" stroke-width="0.77195328">
     <tspan id="tspan21637" y="238.35193" x="-105.72861">I</tspan>
    </text>
    <text id="text21639" space="preserve" transform="matrix(0.608474,-0.793574,0.793574,0.608474,0,0)" font-size="62.75156403px" y="238.58147" x="-90.733513" stroke-width="0.77195299">
     <tspan id="tspan21641" y="238.58147" x="-90.733513">N</tspan>
    </text>
    <text id="text21643" space="preserve" transform="matrix(0.747126,-0.664683,0.664683,0.747126,0,0)" font-size="62.75164032px" y="242.12601" x="16.105219" stroke-width="0.77195287">
     <tspan id="tspan21645" y="242.12601" x="16.105219">G</tspan>
    </text>
    <text id="text21647" space="preserve" transform="matrix(0.847651,-0.530555,0.530555,0.847651,0,0)" font-size="62.75165939px" y="228.86568" x="98.332489" stroke-width="0.77195281">
     <tspan id="tspan21649" y="228.86568" x="98.332489">O</tspan>
    </text>
    <text id="text21651" space="preserve" transform="matrix(0.879958,-0.475051,0.475051,0.879958,0,0)" font-size="62.75144196px" y="220.07104" x="156.28166" stroke-width="0.77195328">
     <tspan id="tspan21653" y="220.07104" x="156.28166">D</tspan>
    </text>
    <text id="text21655" space="preserve" transform="matrix(0.969344,0.245709,-0.245709,0.969344,0,0)" font-size="62.75164795px" y="-19.761042" x="438.19611" stroke-width="0.77195287">
     <tspan id="tspan21657" y="-19.761042" x="438.19611">T</tspan>
    </text>
    <text id="text21659" space="preserve" transform="matrix(0.948192,0.317699,-0.317699,0.948192,0,0)" font-size="62.75164032px" y="-55.41991" x="469.7543" stroke-width="0.77195287">
     <tspan id="tspan21661" y="-55.41991" x="469.7543">R</tspan>
    </text>
    <text id="text21663" space="preserve" transform="matrix(0.888751,0.45839,-0.45839,0.888751,0,0)" font-size="62.75148773px" y="-129.07674" x="492.81558" stroke-width="0.77195323">
     <tspan id="tspan21665" y="-129.07674" x="492.81558">U</tspan>
    </text>
    <text id="text21667" space="preserve" transform="matrix(0.855091,0.518478,-0.518478,0.855091,0,0)" font-size="62.75151062px" y="-164.21391" x="523.89215" stroke-width="0.77195311">
     <tspan id="tspan21669" y="-164.21391" x="523.89215">S</tspan>
    </text>
    <text id="text21671" space="preserve" transform="matrix(0.725365,0.688365,-0.688365,0.725365,0,0)" font-size="62.75169373px" y="-277.28775" x="508.54889" stroke-width="0.77195281">
     <tspan id="tspan21673" y="-277.28775" x="508.54889">T</tspan>
    </text>
   </g>
   <text id="text21675" stroke-linejoin="miter" font-family="Bitstream Vera Sans" space="preserve" font-weight="normal" stroke-dasharray="none" transform="matrix(1.0143112,-0.14108439,0.14825232,0.96526976,0,0)" font-style="normal" stroke="#261e00" stroke-linecap="butt" stroke-miterlimit="4" font-size="10.26586533px" y="40.014393" x="87.846275" stroke-width="0.13461486" fill="#8c7104">
    <tspan id="tspan21677" stroke-dasharray="none" stroke-miterlimit="4" y="40.014393" x="87.846275" stroke-width="0.13461486">LIBERTY</tspan>
   </text>
   <text id="text21683" stroke-linejoin="miter" font-family="Bitstream Vera Sans" space="preserve" font-weight="normal" stroke-dasharray="none" transform="matrix(1.0143112,-0.14108439,0.14825232,0.96526976,0,0)" font-style="normal" stroke="#261e00" stroke-linecap="butt" stroke-miterlimit="4" font-size="10.94276237px" y="57.845791" x="165.26785" stroke-width="0.13461486" fill="#8c7104">
    <tspan id="tspan21685" stroke-dasharray="none" stroke-miterlimit="4" y="57.845791" x="165.26785" stroke-width="0.13461486">1974</tspan>
   </text>
   <path id="path21827" stroke-linejoin="miter" d="m138,10.459c-2.7086,10.454-9.7509,29.328-11.015,38.75-0.57181,5.2412-0.33105,6.2722-0.0903,8.7639,12.907,4.4988,18.485,5.0234,30.923,4.1242-0.10202-10.744-2.4108-19.706-7.7194-26.378-2.2079-2.7747-7.2046-3.6035-10.52-3.4915,5.4774-1.1917,12.96-1.3011,19.039,13.784-1.2138-9.9902-5.6116-14.631-11.769-18.111,2.2271,0.1154,5.0119,0.40857,6.6812,1.8043,9.4998,7.9431,10.804,20.249,15.8,23.8-0.5197-12.498-4.1676-21.411-9.0286-30.931,0.42134-1.2315,0.84267-2.4631,1.264-3.6946-7.8549-2.8067-15.71-5.6135-23.565-8.4202z" fill-rule="evenodd" stroke="#504002" stroke-linecap="butt" stroke-miterlimit="4" stroke-dasharray="none" stroke-width="0.13461486" fill="url(#linearGradient7462)"/>
   <path id="path21687" stroke-linejoin="miter" d="m138.06,8.9678,0,1.5796c8.1718,3.0783,15.897,6.521,24.068,10.814,0.44712,0.23491,0.95763-3.6453,0.95763-3.6453-7.5759-3.7668-16.556-6.6831-25.026-8.7487z" fill-rule="evenodd" stroke="#504002" stroke-linecap="butt" stroke-miterlimit="4" stroke-dasharray="none" stroke-width="0.13461486" fill="#715b02"/>
   <path id="path21689" stroke-linejoin="miter" d="m161.43,17.717,1.7876,0.12151-0.7661,4.8604c8.342,9.8018,13.702,21.698,16.298,33.079-3.6203,1.8435-6.0759,2.823-9.8613,4.0884-0.17025-13.285-2.947-24.368-9.1184-37.046l1.6599-5.1034z" fill-rule="evenodd" stroke="#504002" stroke-linecap="butt" stroke-miterlimit="4" stroke-dasharray="none" stroke-width="0.13461486" fill="#715b02"/>
   <path id="path21719" stroke-linejoin="miter" fill="none" transform="matrix(0.17670283,0,0,0.16815935,84.14194,-56.537204)" stroke="#846b04" stroke-linecap="square" stroke-miterlimit="4" stroke-dasharray="none" stroke-width="2" d="M636.63,586.47c-120.8,144.07-335.51,162.93-479.58,42.13-144.06-120.8-162.93-335.51-42.13-479.58s335.51-162.93,479.58-42.13c140.41,117.73,162.44,325.47,49.86,470.03"/>
   <path id="path21821" stroke-linejoin="miter" d="m163.79,16.492,1.0243-0.01324-0.0322,1.9014c9.466,8.8288,17.185,21.674,21.133,32.698-0.76059,0.58604-1.5239,1.0816-2.3988,1.4682-2.9643-13.439-12.54-27.797-19.931-34.051l0.20428-2.0035z" fill-rule="evenodd" stroke="#504002" stroke-linecap="butt" stroke-miterlimit="4" stroke-dasharray="none" stroke-width="0.13461486" fill="#715b02"/>
   <path id="path21823" stroke-linejoin="miter" d="m164.36,24.521c5.4478,5.1439,7.0652,5.3059,11.172,9.4778,2.5111,4.2934,4.6392,8.769,6.3842,13.184-2.8516-2.7542-5.0648-4.3541-7.1503-5.4072-2.5537-5.8325-5.7458-11.665-10.406-17.254z" fill-rule="evenodd" stroke="#504002" stroke-linecap="butt" stroke-miterlimit="4" stroke-dasharray="none" stroke-width="0.13461486" fill="#705800"/>
   <path id="path21837" stroke-linejoin="round" d="m162.53-29.98c1.9526,1.1252,3.1236,1.2138,4.1343,0.45088,0.60299-0.45516,0.67288-1.2877,0.6423-1.975-0.0208-0.46772-0.41194-1.2819-0.92939-1.5069-0.007,0.61086,0.24662,1.2745,0.11132,1.8496-0.0844,0.35853-0.30907,0.88739-0.63733,0.96828-0.56676,0.13966-1.4433-0.06496-2.0477-0.30665-0.35004-0.13997-0.67669-0.57586-0.94855-0.8553-0.20449,0.50624-0.42032,0.70888-0.32496,1.3752z" stroke-opacity="0.5" fill-rule="evenodd" stroke="#504002" stroke-linecap="round" stroke-miterlimit="4" stroke-dasharray="none" stroke-width="0.13461486" fill="url(#radialGradient7464)"/>
   <path id="path21855" stroke-linejoin="round" d="m170.26,8.4356c1.9785,1.0835,3.1513,1.1472,4.1439,0.36298,0.59216-0.46785,0.64251-1.3017,0.59583-1.9882-0.0318-0.46716-0.44189-1.2729-0.96448-1.4868,0.007,0.61086,0.27643,1.2689,0.15465,1.8467-0.0759,0.36023-0.28819,0.89373-0.61447,0.98157-0.56335,0.15166-1.4445-0.0343-2.0544-0.26309-0.35322-0.1325-0.69001-0.56134-0.96836-0.83494-0.19256,0.51045-0.40359,0.71763-0.29264,1.3818z" stroke-opacity="0.5" fill-rule="evenodd" stroke="#504002" stroke-linecap="round" stroke-miterlimit="4" stroke-dasharray="none" stroke-width="0.13461486" fill="url(#radialGradient7466)"/>
   <path id="path21859" stroke-linejoin="round" d="m167.11,8.0665c1.9785,1.0835,3.1513,1.1472,4.1439,0.36298,0.59216-0.46785,0.64251-1.3017,0.59583-1.9882-0.0318-0.46716-0.4419-1.2729-0.96449-1.4868,0.007,0.61086,0.27643,1.2689,0.15465,1.8467-0.0759,0.36023-0.28819,0.89373-0.61447,0.98157-0.56335,0.15166-1.4445-0.0343-2.0544-0.26309-0.35323-0.1325-0.69002-0.56134-0.96837-0.83494-0.19256,0.51045-0.40359,0.71763-0.29263,1.3818z" stroke-opacity="0.5" fill-rule="evenodd" stroke="#504002" stroke-linecap="round" stroke-miterlimit="4" stroke-dasharray="none" stroke-width="0.13461486" fill="url(#radialGradient7468)"/>
   <path id="path21863" stroke-linejoin="round" d="m174.04,7.0173c0.72388-2.0602,0.55711-3.1668-0.44733-3.9373-0.59922-0.45964-1.468-0.34136-2.1658-0.16179-0.47486,0.12221-1.2234,0.66443-1.3402,1.1943,0.62775-0.12769,1.2522-0.50931,1.8714-0.51022,0.38607-0.00051,0.97762,0.09171,1.1328,0.37864,0.26784,0.49543,0.25093,1.3542,0.13614,1.9684-0.0665,0.35574-0.44142,0.75487-0.66806,1.0687,0.56391,0.07846,0.81912,0.23425,1.4812-0.000851z" stroke-opacity="0.5" fill-rule="evenodd" stroke="#504002" stroke-linecap="round" stroke-miterlimit="4" stroke-dasharray="none" stroke-width="0.13461486" fill="url(#radialGradient7470)"/>
   <path id="path21867" stroke-linejoin="round" d="m163.18,7.7413c1.9785,1.0835,3.1513,1.1472,4.1439,0.36298,0.59216-0.46785,0.64251-1.3017,0.59583-1.9882-0.0318-0.46716-0.44189-1.2729-0.96448-1.4868,0.007,0.61086,0.27643,1.2689,0.15465,1.8467-0.0759,0.36023-0.28819,0.89373-0.61447,0.98157-0.56335,0.15166-1.4445-0.0343-2.0544-0.26309-0.35322-0.1325-0.69001-0.56134-0.96836-0.83494-0.19257,0.51045-0.40359,0.71763-0.29264,1.3817z" stroke-opacity="0.5" fill-rule="evenodd" stroke="#504002" stroke-linecap="round" stroke-miterlimit="4" stroke-dasharray="none" stroke-width="0.13461486" fill="url(#radialGradient7472)"/>
   <path id="path21871" stroke-linejoin="round" d="m169.1,7.4462c1.1964-1.85,1.298-2.9638,0.50352-3.9311-0.47393-0.57709-1.3483-0.64959-2.0707-0.62544-0.49161,0.01643-1.35,0.38278-1.5902,0.87358,0.64183,0.01126,1.341-0.22551,1.9443-0.09262,0.37612,0.08285,0.93022,0.30051,1.0129,0.61346,0.14266,0.54035-0.0786,1.373-0.33696,1.9465-0.14959,0.33209-0.60997,0.6398-0.90556,0.89651,0.53047,0.19824,0.74186,0.40509,1.4427,0.31914z" stroke-opacity="0.5" fill-rule="evenodd" stroke="#504002" stroke-linecap="round" stroke-miterlimit="4" stroke-dasharray="none" stroke-width="0.13461486" fill="url(#radialGradient7474)"/>
   <path id="path21875" stroke-linejoin="round" d="m163.57,7.6977c2.0939-0.86498,2.8472-1.7228,2.7778-2.9488-0.0414-0.73137-0.71466-1.2672-1.3215-1.641-0.41296-0.25438-1.3371-0.42168-1.8293-0.15012,0.51946,0.35892,1.2351,0.54571,1.6498,0.98337,0.25854,0.27286,0.5819,0.7532,0.46137,1.0548-0.2081,0.52076-0.8905,1.0829-1.4473,1.4123-0.32244,0.19078-0.88501,0.19224-1.2818,0.24166,0.31567,0.45155,0.36454,0.73632,0.99085,1.0477z" stroke-opacity="0.5" fill-rule="evenodd" stroke="#504002" stroke-linecap="round" stroke-miterlimit="4" stroke-dasharray="none" stroke-width="0.13461486" fill="url(#radialGradient7476)"/>
   <path id="path21879" stroke-linejoin="round" d="m159.16,7.4245c1.9785,1.0835,3.1513,1.1472,4.1439,0.36298,0.59216-0.46786,0.64251-1.3017,0.59583-1.9882-0.0318-0.46716-0.44189-1.2729-0.96448-1.4868,0.007,0.61086,0.27643,1.2689,0.15464,1.8467-0.0759,0.36023-0.28818,0.89373-0.61446,0.98157-0.56335,0.15166-1.4445-0.0343-2.0544-0.26309-0.35322-0.1325-0.69001-0.56134-0.96836-0.83494-0.19257,0.51045-0.4036,0.71763-0.29264,1.3817z" stroke-opacity="0.5" fill-rule="evenodd" stroke="#504002" stroke-linecap="round" stroke-miterlimit="4" stroke-dasharray="none" stroke-width="0.13461486" fill="url(#radialGradient7478)"/>
   <path id="path21883" stroke-linejoin="round" d="m147.08,1.122c1.9785,1.0835,3.1513,1.1472,4.1439,0.36298,0.59216-0.46786,0.64251-1.3017,0.59583-1.9882-0.0318-0.46716-0.4419-1.2729-0.96449-1.4868,0.007,0.61086,0.27643,1.2689,0.15465,1.8467-0.0759,0.36023-0.28819,0.89373-0.61447,0.98157-0.56335,0.15166-1.4445-0.0343-2.0544-0.26309-0.35323-0.1325-0.69002-0.56135-0.96837-0.83494-0.19256,0.51045-0.40359,0.71763-0.29264,1.3818z" stroke-opacity="0.5" fill-rule="evenodd" stroke="#504002" stroke-linecap="round" stroke-miterlimit="4" stroke-dasharray="none" stroke-width="0.13461486" fill="url(#radialGradient7480)"/>
   <path id="path21887" stroke-linejoin="round" d="m155.83,5.9208c1.9785,1.0835,3.1513,1.1472,4.1439,0.36298,0.59216-0.46786,0.64251-1.3017,0.59583-1.9882-0.0318-0.46716-0.44189-1.2729-0.96448-1.4868,0.007,0.61086,0.27643,1.2689,0.15464,1.8467-0.0759,0.36023-0.28818,0.89373-0.61446,0.98157-0.56335,0.15166-1.4445-0.0343-2.0544-0.26309-0.35322-0.1325-0.69001-0.56134-0.96836-0.83494-0.19257,0.51045-0.40359,0.71763-0.29264,1.3817z" stroke-opacity="0.5" fill-rule="evenodd" stroke="#504002" stroke-linecap="round" stroke-miterlimit="4" stroke-dasharray="none" stroke-width="0.13461486" fill="url(#radialGradient7482)"/>
   <path id="path21891" stroke-linejoin="round" d="m152.59,4.4089c1.9785,1.0835,3.1513,1.1472,4.1439,0.36298,0.59216-0.46786,0.64251-1.3017,0.59583-1.9882-0.0318-0.46716-0.44189-1.2729-0.96449-1.4868,0.007,0.61086,0.27644,1.2689,0.15465,1.8467-0.0759,0.36023-0.28819,0.89373-0.61446,0.98157-0.56335,0.15166-1.4445-0.0343-2.0544-0.26309-0.35323-0.1325-0.69001-0.56134-0.96836-0.83494-0.19257,0.51045-0.4036,0.71763-0.29264,1.3817z" stroke-opacity="0.5" fill-rule="evenodd" stroke="#504002" stroke-linecap="round" stroke-miterlimit="4" stroke-dasharray="none" stroke-width="0.13461486" fill="url(#radialGradient7484)"/>
   <path id="path21895" stroke-linejoin="round" d="m149.19,3.1701c1.9785,1.0835,3.1513,1.1472,4.1439,0.36298,0.59216-0.46786,0.64251-1.3017,0.59583-1.9882-0.0318-0.46716-0.44189-1.2729-0.96449-1.4868,0.007,0.61086,0.27643,1.2689,0.15465,1.8467-0.0759,0.36023-0.28819,0.89373-0.61447,0.98157-0.56334,0.15166-1.4445-0.0343-2.0544-0.26309-0.35323-0.1325-0.69001-0.56134-0.96837-0.83494-0.19256,0.51045-0.40359,0.71763-0.29263,1.3817z" stroke-opacity="0.5" fill-rule="evenodd" stroke="#504002" stroke-linecap="round" stroke-miterlimit="4" stroke-dasharray="none" stroke-width="0.13461486" fill="url(#radialGradient7486)"/>
   <path id="path21899" stroke-linejoin="round" d="m162.09,6.6258c1.1964-1.85,1.298-2.9638,0.50353-3.9311-0.47394-0.57709-1.3483-0.64959-2.0707-0.62544-0.49161,0.01643-1.35,0.38278-1.5902,0.87358,0.64183,0.01126,1.341-0.22551,1.9443-0.09262,0.37613,0.08285,0.93023,0.3005,1.0129,0.61346,0.14267,0.54035-0.0786,1.373-0.33695,1.9465-0.1496,0.33209-0.60997,0.6398-0.90556,0.89651,0.53047,0.19824,0.74186,0.40509,1.4427,0.31914z" stroke-opacity="0.5" fill-rule="evenodd" stroke="#504002" stroke-linecap="round" stroke-miterlimit="4" stroke-dasharray="none" stroke-width="0.13461486" fill="url(#radialGradient7488)"/>
   <path id="path21903" stroke-linejoin="round" d="m155.52,3.6102c1.1964-1.85,1.298-2.9638,0.50352-3.9311-0.47394-0.57709-1.3483-0.64959-2.0707-0.62544-0.49161,0.01643-1.35,0.38278-1.5902,0.87358,0.64183,0.01126,1.341-0.22551,1.9443-0.09262,0.37612,0.08285,0.93022,0.3005,1.0128,0.61346,0.14267,0.54035-0.0787,1.373-0.33696,1.9465-0.14959,0.33209-0.60996,0.6398-0.90555,0.89651,0.53047,0.19824,0.74186,0.40509,1.4427,0.31914z" stroke-opacity="0.5" fill-rule="evenodd" stroke="#504002" stroke-linecap="round" stroke-miterlimit="4" stroke-dasharray="none" stroke-width="0.13461486" fill="url(#radialGradient7490)"/>
   <path id="path21907" stroke-linejoin="round" d="m158.53,4.6258c1.1964-1.85,1.298-2.9638,0.50353-3.9311-0.47394-0.57709-1.3483-0.64959-2.0707-0.62544-0.49162,0.01643-1.35,0.38278-1.5902,0.87358,0.64182,0.01126,1.341-0.22551,1.9443-0.09262,0.37612,0.08285,0.93023,0.3005,1.0129,0.61346,0.14267,0.54035-0.0787,1.373-0.33696,1.9465-0.14959,0.33209-0.60997,0.6398-0.90555,0.89651,0.53047,0.19824,0.74186,0.40509,1.4427,0.31914z" stroke-opacity="0.5" fill-rule="evenodd" stroke="#504002" stroke-linecap="round" stroke-miterlimit="4" stroke-dasharray="none" stroke-width="0.13461486" fill="url(#radialGradient7492)"/>
   <path id="path21911" stroke-linejoin="round" d="m153.22-1.8725c-1.7798-1.3602-2.9284-1.5948-4.0359-0.96516-0.66073,0.37562-0.84523,1.1922-0.91005,1.8773-0.0441,0.46625,0.23093,1.3224,0.71273,1.6103,0.0917-0.60464-0.0681-1.2943,0.14564-1.8474,0.13323-0.34483,0.42919-0.84092,0.76578-0.87996,0.58116-0.0674,1.4218,0.2453,1.9875,0.56064,0.32761,0.18262,0.59109,0.65566,0.82191,0.96674,0.27277-0.4762,0.51477-0.65003,0.51246-1.3225z" stroke-opacity="0.5" fill-rule="evenodd" stroke="#504002" stroke-linecap="round" stroke-miterlimit="4" stroke-dasharray="none" stroke-width="0.13461486" fill="url(#radialGradient7494)"/>
   <path id="path21915" stroke-linejoin="round" d="m145.54-20.823c1.9526,1.1252,3.1236,1.2138,4.1344,0.45088,0.60298-0.45516,0.67287-1.2877,0.6423-1.975-0.0208-0.46772-0.41194-1.2819-0.92939-1.5069-0.007,0.61086,0.24661,1.2745,0.11131,1.8496-0.0844,0.35853-0.30907,0.88739-0.63733,0.96828-0.56676,0.13966-1.4433-0.06496-2.0477-0.30665-0.35004-0.13997-0.67668-0.57586-0.94855-0.8553-0.20448,0.50624-0.42032,0.70888-0.32496,1.3752z" stroke-opacity="0.5" fill-rule="evenodd" stroke="#504002" stroke-linecap="round" stroke-miterlimit="4" stroke-dasharray="none" stroke-width="0.13461486" fill="url(#radialGradient7496)"/>
   <path id="path21919" stroke-linejoin="round" d="m140.4-0.1444c1.9526,1.1252,3.1236,1.2138,4.1344,0.45088,0.60298-0.45516,0.67287-1.2877,0.6423-1.975-0.0208-0.46772-0.41194-1.2819-0.92939-1.5069-0.007,0.61086,0.24661,1.2745,0.11131,1.8496-0.0844,0.35852-0.30907,0.88739-0.63732,0.96827-0.56677,0.13966-1.4433-0.06496-2.0477-0.30665-0.35003-0.13997-0.67668-0.57586-0.94855-0.8553-0.20448,0.50624-0.42031,0.70888-0.32496,1.3752z" stroke-opacity="0.5" fill-rule="evenodd" stroke="#504002" stroke-linecap="round" stroke-miterlimit="4" stroke-dasharray="none" stroke-width="0.13461486" fill="url(#radialGradient7498)"/>
   <path id="path21923" stroke-linejoin="round" d="m133.77,4.1838c1.9526,1.1252,3.1236,1.2138,4.1343,0.45088,0.60298-0.45516,0.67288-1.2877,0.6423-1.975-0.0208-0.46772-0.41194-1.2819-0.92939-1.5069-0.007,0.61086,0.24662,1.2745,0.11132,1.8496-0.0844,0.35853-0.30908,0.88739-0.63733,0.96828-0.56676,0.13966-1.4433-0.06496-2.0477-0.30665-0.35003-0.13997-0.67668-0.57586-0.94854-0.8553-0.20449,0.50624-0.42032,0.70888-0.32496,1.3752z" stroke-opacity="0.5" fill-rule="evenodd" stroke="#504002" stroke-linecap="round" stroke-miterlimit="4" stroke-dasharray="none" stroke-width="0.13461486" fill="url(#radialGradient7500)"/>
   <path id="path21927" stroke-linejoin="round" d="m137.01,2.1563c1.9526,1.1252,3.1236,1.2138,4.1344,0.45088,0.60299-0.45516,0.67287-1.2877,0.6423-1.975-0.0208-0.46772-0.41194-1.2819-0.92939-1.5069-0.007,0.61086,0.24661,1.2745,0.11132,1.8496-0.0844,0.35852-0.30908,0.88739-0.63733,0.96827-0.56676,0.13966-1.4433-0.06496-2.0477-0.30665-0.35003-0.13997-0.67668-0.57586-0.94854-0.8553-0.20449,0.50624-0.42032,0.70888-0.32497,1.3752z" stroke-opacity="0.5" fill-rule="evenodd" stroke="#504002" stroke-linecap="round" stroke-miterlimit="4" stroke-dasharray="none" stroke-width="0.13461486" fill="url(#radialGradient7502)"/>
   <path id="path21931" stroke-linejoin="round" d="m138.76-2.9267c1.9526,1.1252,3.1236,1.2138,4.1344,0.45088,0.60298-0.45516,0.67287-1.2877,0.6423-1.975-0.0208-0.46772-0.41194-1.2819-0.92939-1.5069-0.007,0.61086,0.24661,1.2745,0.11131,1.8496-0.0844,0.35853-0.30907,0.88739-0.63732,0.96828-0.56677,0.13966-1.4433-0.06496-2.0477-0.30665-0.35003-0.13997-0.67668-0.57586-0.94855-0.8553-0.20448,0.50624-0.42031,0.70888-0.32496,1.3752z" stroke-opacity="0.5" fill-rule="evenodd" stroke="#504002" stroke-linecap="round" stroke-miterlimit="4" stroke-dasharray="none" stroke-width="0.13461486" fill="url(#radialGradient7504)"/>
   <path id="path21935" stroke-linejoin="round" d="m131.2-3.1745c1.9526,1.1252,3.1236,1.2138,4.1344,0.45088,0.60298-0.45516,0.67287-1.2877,0.64229-1.975-0.0208-0.46772-0.41193-1.2819-0.92938-1.5069-0.007,0.61086,0.24661,1.2745,0.11131,1.8496-0.0844,0.35852-0.30907,0.88739-0.63733,0.96828-0.56676,0.13965-1.4433-0.06496-2.0477-0.30665-0.35004-0.13997-0.67668-0.57586-0.94855-0.8553-0.20448,0.50624-0.42032,0.70889-0.32496,1.3752z" stroke-opacity="0.5" fill-rule="evenodd" stroke="#504002" stroke-linecap="round" stroke-miterlimit="4" stroke-dasharray="none" stroke-width="0.13461486" fill="url(#radialGradient7506)"/>
   <path id="path21939" stroke-linejoin="round" d="m131.38-9.4067c1.9526,1.1252,3.1236,1.2138,4.1344,0.45088,0.60298-0.45516,0.67287-1.2877,0.6423-1.975-0.0208-0.46772-0.41194-1.2819-0.92939-1.5069-0.007,0.61086,0.24661,1.2745,0.11131,1.8496-0.0844,0.35853-0.30907,0.88739-0.63732,0.96828-0.56677,0.13966-1.4433-0.06496-2.0477-0.30665-0.35003-0.13997-0.67668-0.57586-0.94855-0.8553-0.20448,0.50624-0.42031,0.70888-0.32496,1.3752z" stroke-opacity="0.5" fill-rule="evenodd" stroke="#504002" stroke-linecap="round" stroke-miterlimit="4" stroke-dasharray="none" stroke-width="0.13461486" fill="url(#radialGradient7508)"/>
   <path id="path21943" stroke-linejoin="round" d="m133.66-15.489c1.9526,1.1252,3.1236,1.2138,4.1343,0.45088,0.60299-0.45516,0.67288-1.2877,0.6423-1.975-0.0208-0.46772-0.41194-1.2819-0.92939-1.5069-0.007,0.61086,0.24662,1.2745,0.11132,1.8496-0.0844,0.35852-0.30907,0.88739-0.63733,0.96827-0.56676,0.13966-1.4433-0.06496-2.0477-0.30665-0.35004-0.13997-0.67668-0.57586-0.94855-0.8553-0.20449,0.50624-0.42032,0.70888-0.32496,1.3752z" stroke-opacity="0.5" fill-rule="evenodd" stroke="#504002" stroke-linecap="round" stroke-miterlimit="4" stroke-dasharray="none" stroke-width="0.13461486" fill="url(#radialGradient7510)"/>
   <path id="path21947" stroke-linejoin="round" d="m129.55-17.524c1.9526,1.1252,3.1236,1.2138,4.1343,0.45088,0.60299-0.45516,0.67288-1.2877,0.6423-1.975-0.0208-0.46771-0.41194-1.2819-0.92939-1.5069-0.007,0.61086,0.24662,1.2745,0.11132,1.8496-0.0844,0.35852-0.30907,0.88739-0.63733,0.96827-0.56676,0.13966-1.4433-0.06496-2.0477-0.30665-0.35004-0.13997-0.67669-0.57586-0.94855-0.8553-0.20449,0.50624-0.42032,0.70889-0.32496,1.3752z" stroke-opacity="0.5" fill-rule="evenodd" stroke="#504002" stroke-linecap="round" stroke-miterlimit="4" stroke-dasharray="none" stroke-width="0.13461486" fill="url(#radialGradient7512)"/>
   <path id="path21951" stroke-linejoin="round" d="m140.64-23.475c1.9526,1.1252,3.1236,1.2138,4.1343,0.45088,0.60299-0.45516,0.67288-1.2877,0.6423-1.975-0.0208-0.46772-0.41193-1.2819-0.92938-1.5069-0.007,0.61086,0.24661,1.2745,0.11131,1.8496-0.0844,0.35852-0.30907,0.88739-0.63733,0.96827-0.56676,0.13966-1.4433-0.06496-2.0477-0.30665-0.35004-0.13997-0.67668-0.57586-0.94855-0.8553-0.20448,0.50624-0.42032,0.70888-0.32496,1.3752z" stroke-opacity="0.5" fill-rule="evenodd" stroke="#504002" stroke-linecap="round" stroke-miterlimit="4" stroke-dasharray="none" stroke-width="0.13461486" fill="url(#radialGradient7514)"/>
   <path id="path21955" stroke-linejoin="round" d="m139.39-19.103c1.9526,1.1252,3.1236,1.2138,4.1344,0.45088,0.60298-0.45516,0.67287-1.2877,0.6423-1.975-0.0208-0.46772-0.41194-1.2819-0.92939-1.5069-0.007,0.61086,0.24661,1.2745,0.11131,1.8496-0.0844,0.35852-0.30907,0.88739-0.63732,0.96827-0.56677,0.13966-1.4433-0.06496-2.0477-0.30665-0.35003-0.13997-0.67668-0.57586-0.94855-0.8553-0.20448,0.50624-0.42031,0.70888-0.32496,1.3752z" stroke-opacity="0.5" fill-rule="evenodd" stroke="#504002" stroke-linecap="round" stroke-miterlimit="4" stroke-dasharray="none" stroke-width="0.13461486" fill="url(#radialGradient7516)"/>
   <path id="path21959" stroke-linejoin="round" d="m155.77-30.751c1.9526,1.1252,3.1236,1.2138,4.1344,0.45088,0.60298-0.45516,0.67287-1.2877,0.6423-1.975-0.0208-0.46772-0.41194-1.2819-0.92939-1.5069-0.007,0.61086,0.24661,1.2745,0.11131,1.8496-0.0844,0.35852-0.30907,0.88739-0.63732,0.96827-0.56677,0.13966-1.4433-0.06496-2.0477-0.30665-0.35003-0.13997-0.67668-0.57586-0.94855-0.8553-0.20448,0.50624-0.42032,0.70888-0.32496,1.3752z" stroke-opacity="0.5" fill-rule="evenodd" stroke="#504002" stroke-linecap="round" stroke-miterlimit="4" stroke-dasharray="none" stroke-width="0.13461486" fill="url(#radialGradient7518)"/>
   <path id="path21963" stroke-linejoin="round" d="m147.25-29.787c1.9526,1.1252,3.1236,1.2138,4.1344,0.45088,0.60298-0.45516,0.67287-1.2877,0.6423-1.975-0.0208-0.46772-0.41194-1.2819-0.92939-1.5069-0.007,0.61086,0.24661,1.2745,0.11131,1.8496-0.0844,0.35853-0.30907,0.88739-0.63732,0.96828-0.56677,0.13966-1.4433-0.06496-2.0477-0.30665-0.35003-0.13997-0.67668-0.57586-0.94855-0.8553-0.20448,0.50624-0.42032,0.70888-0.32496,1.3752z" stroke-opacity="0.5" fill-rule="evenodd" stroke="#504002" stroke-linecap="round" stroke-miterlimit="4" stroke-dasharray="none" stroke-width="0.13461486" fill="url(#radialGradient7520)"/>
   <path id="path21967" stroke-linejoin="round" d="m139.71-29.864c1.9526,1.1252,3.1236,1.2138,4.1344,0.45088,0.60298-0.45516,0.67287-1.2877,0.6423-1.975-0.0208-0.46772-0.41194-1.2819-0.92939-1.5069-0.007,0.61086,0.24661,1.2745,0.11131,1.8496-0.0844,0.35852-0.30907,0.88739-0.63732,0.96828-0.56677,0.13965-1.4433-0.06496-2.0477-0.30665-0.35004-0.13997-0.67668-0.57586-0.94855-0.8553-0.20448,0.50624-0.42032,0.70889-0.32496,1.3752z" stroke-opacity="0.5" fill-rule="evenodd" stroke="#504002" stroke-linecap="round" stroke-miterlimit="4" stroke-dasharray="none" stroke-width="0.13461486" fill="url(#radialGradient7522)"/>
   <path id="path21971" stroke-linejoin="round" d="m131.39-26.64c1.9526,1.1252,3.1236,1.2138,4.1343,0.45088,0.60299-0.45516,0.67288-1.2877,0.6423-1.975-0.0208-0.46772-0.41194-1.2819-0.92939-1.5069-0.007,0.61086,0.24662,1.2745,0.11132,1.8496-0.0844,0.35853-0.30907,0.88739-0.63733,0.96828-0.56676,0.13966-1.4433-0.06496-2.0477-0.30665-0.35003-0.13997-0.67668-0.57586-0.94854-0.8553-0.20449,0.50624-0.42032,0.70888-0.32496,1.3752z" stroke-opacity="0.5" fill-rule="evenodd" stroke="#504002" stroke-linecap="round" stroke-miterlimit="4" stroke-dasharray="none" stroke-width="0.13461486" fill="url(#radialGradient7524)"/>
   <path id="path21977" stroke-linejoin="round" d="m130.66-1.9959c0.14687,2.1678,0.74024,3.1326,1.976,3.4853,0.73722,0.21038,1.4948-0.21126,2.0698-0.62821,0.39125-0.28375,0.86938-1.0548,0.76736-1.5874-0.53066,0.34375-0.95749,0.92144-1.5306,1.1447-0.35728,0.13921-0.94167,0.26627-1.1991,0.05629-0.44454-0.36256-0.76951-1.1639-0.90688-1.7739-0.0795-0.3533,0.10934-0.8576,0.19472-1.2297-0.55332,0.12992-0.85144,0.07734-1.3712,0.53287z" stroke-opacity="0.5" fill-rule="evenodd" stroke="#504002" stroke-linecap="round" stroke-miterlimit="4" stroke-dasharray="none" stroke-width="0.13461486" fill="url(#radialGradient7526)"/>
   <path id="path21981" stroke-linejoin="round" d="m128.7-10.277c0.14687,2.1678,0.74024,3.1326,1.976,3.4853,0.73721,0.21038,1.4948-0.21126,2.0698-0.62821,0.39125-0.28375,0.86938-1.0548,0.76737-1.5874-0.53066,0.34375-0.9575,0.92144-1.5306,1.1447-0.35728,0.13921-0.94167,0.26627-1.1991,0.05629-0.44454-0.36256-0.76952-1.1639-0.90688-1.7739-0.0796-0.3533,0.10934-0.8576,0.19471-1.2297-0.55331,0.12992-0.85144,0.07734-1.3712,0.53287z" stroke-opacity="0.5" fill-rule="evenodd" stroke="#504002" stroke-linecap="round" stroke-miterlimit="4" stroke-dasharray="none" stroke-width="0.13461486" fill="url(#radialGradient7528)"/>
   <path id="path21985" stroke-linejoin="round" d="m129.56-23.047c0.14687,2.1678,0.74024,3.1326,1.976,3.4853,0.73721,0.21038,1.4948-0.21126,2.0698-0.62821,0.39125-0.28375,0.86938-1.0548,0.76737-1.5874-0.53067,0.34375-0.9575,0.92144-1.5306,1.1447-0.35728,0.13921-0.94167,0.26627-1.1991,0.05629-0.44454-0.36256-0.76951-1.1639-0.90688-1.7739-0.0796-0.3533,0.10934-0.8576,0.19472-1.2297-0.55332,0.12992-0.85144,0.07733-1.3712,0.53287z" stroke-opacity="0.5" fill-rule="evenodd" stroke="#504002" stroke-linecap="round" stroke-miterlimit="4" stroke-dasharray="none" stroke-width="0.13461486" fill="url(#radialGradient7530)"/>
   <path id="path21989" stroke-linejoin="round" d="m134.37-14.171c0.14688,2.1678,0.74025,3.1326,1.976,3.4853,0.73721,0.21038,1.4948-0.21126,2.0698-0.62821,0.39126-0.28375,0.86938-1.0548,0.76737-1.5874-0.53066,0.34375-0.95749,0.92144-1.5306,1.1447-0.35728,0.13921-0.94167,0.26627-1.1991,0.05629-0.44454-0.36256-0.76952-1.1639-0.90688-1.7739-0.0796-0.3533,0.10934-0.8576,0.19471-1.2297-0.55331,0.12992-0.85143,0.07734-1.3712,0.53287z" stroke-opacity="0.5" fill-rule="evenodd" stroke="#504002" stroke-linecap="round" stroke-miterlimit="4" stroke-dasharray="none" stroke-width="0.13461486" fill="url(#radialGradient7532)"/>
   <path id="path21993" stroke-linejoin="round" d="m145.12-27.946c0.14687,2.1678,0.74024,3.1326,1.976,3.4853,0.73721,0.21038,1.4948-0.21126,2.0698-0.62821,0.39125-0.28375,0.86938-1.0548,0.76736-1.5874-0.53066,0.34375-0.95749,0.92144-1.5306,1.1447-0.35728,0.13921-0.94167,0.26627-1.1991,0.05629-0.44454-0.36256-0.76951-1.1639-0.90688-1.7739-0.0795-0.3533,0.10934-0.8576,0.19472-1.2297-0.55332,0.12992-0.85144,0.07734-1.3712,0.53287z" stroke-opacity="0.5" fill-rule="evenodd" stroke="#504002" stroke-linecap="round" stroke-miterlimit="4" stroke-dasharray="none" stroke-width="0.13461486" fill="url(#radialGradient7534)"/>
   <path id="path21997" stroke-linejoin="round" d="m134.86-22.739c0.14687,2.1678,0.74024,3.1326,1.976,3.4853,0.73721,0.21038,1.4948-0.21126,2.0698-0.62821,0.39125-0.28375,0.86938-1.0548,0.76737-1.5874-0.53066,0.34375-0.9575,0.92144-1.5306,1.1447-0.35728,0.13921-0.94167,0.26627-1.1991,0.05629-0.44453-0.36256-0.76951-1.1639-0.90687-1.7739-0.0796-0.3533,0.10934-0.8576,0.19471-1.2296-0.55331,0.12992-0.85144,0.07733-1.3712,0.53287z" stroke-opacity="0.5" fill-rule="evenodd" stroke="#504002" stroke-linecap="round" stroke-miterlimit="4" stroke-dasharray="none" stroke-width="0.13461486" fill="url(#radialGradient7536)"/>
   <path id="path22001" stroke-linejoin="round" d="m151.62-33.556c0.14687,2.1678,0.74024,3.1326,1.976,3.4853,0.73721,0.21038,1.4948-0.21126,2.0698-0.62821,0.39126-0.28375,0.86939-1.0548,0.76737-1.5874-0.53066,0.34375-0.95749,0.92144-1.5306,1.1447-0.35728,0.13921-0.94166,0.26627-1.1991,0.05629-0.44454-0.36256-0.76952-1.1639-0.90688-1.7739-0.0796-0.3533,0.10934-0.8576,0.19471-1.2297-0.55331,0.12992-0.85143,0.07733-1.3712,0.53287z" stroke-opacity="0.5" fill-rule="evenodd" stroke="#504002" stroke-linecap="round" stroke-miterlimit="4" stroke-dasharray="none" stroke-width="0.13461486" fill="url(#radialGradient7538)"/>
   <path id="path22005" stroke-linejoin="round" d="m166.28-31.297c0.12968-2.1688-0.33673-3.1948-1.5186-3.6871-0.70507-0.29367-1.5107,0.03768-2.1344,0.3854-0.42445,0.23664-0.99704,0.94698-0.96346,1.4874,0.57045-0.28016,1.0676-0.80449,1.6648-0.9602,0.37235-0.09707,0.9686-0.15594,1.1975,0.08213,0.3952,0.41106,0.61597,1.2439,0.6748,1.8653,0.0341,0.35986-0.21751,0.83872-0.34954,1.1982,0.56576-0.06528,0.85501,0.02122,1.4289-0.37115z" stroke-opacity="0.5" fill-rule="evenodd" stroke="#504002" stroke-linecap="round" stroke-miterlimit="4" stroke-dasharray="none" stroke-width="0.13461486" fill="url(#radialGradient7540)"/>
   <path id="path22009" stroke-linejoin="round" d="m157.02-32.656c0.12968-2.1688-0.33673-3.1948-1.5186-3.6871-0.70507-0.29367-1.5107,0.03767-2.1344,0.3854-0.42444,0.23664-0.99703,0.94698-0.96345,1.4874,0.57045-0.28016,1.0676-0.80449,1.6648-0.9602,0.37235-0.09707,0.9686-0.15595,1.1975,0.08213,0.3952,0.41106,0.61597,1.2439,0.6748,1.8653,0.0341,0.35986-0.21751,0.83872-0.34954,1.1982,0.56576-0.06529,0.85501,0.02122,1.4289-0.37115z" stroke-opacity="0.5" fill-rule="evenodd" stroke="#504002" stroke-linecap="round" stroke-miterlimit="4" stroke-dasharray="none" stroke-width="0.13461486" fill="url(#radialGradient7542)"/>
   <path id="path22013" stroke-linejoin="round" d="m151.4-33.814c-0.73346-2.0571-1.5698-2.8422-2.8594-2.8773-0.76933-0.02095-1.3859,0.57347-1.8273,1.1182-0.30039,0.37072-0.55169,1.2335-0.30781,1.7226,0.41864-0.46312,0.67316-1.1265,1.1656-1.4838,0.30702-0.22274,0.83668-0.48988,1.1426-0.35074,0.52823,0.24024,1.0607,0.93372,1.3599,1.4889,0.17325,0.32152,0.12847,0.8552,0.14756,1.2356,0.49887-0.26222,0.80111-0.28512,1.1788-0.85349z" stroke-opacity="0.5" fill-rule="evenodd" stroke="#504002" stroke-linecap="round" stroke-miterlimit="4" stroke-dasharray="none" stroke-width="0.13461486" fill="url(#radialGradient7544)"/>
   <path id="path22017" stroke-linejoin="round" d="m139.12-28.823c-0.73346-2.0571-1.5698-2.8422-2.8594-2.8773-0.76933-0.02095-1.3859,0.57347-1.8273,1.1182-0.30039,0.37072-0.55169,1.2335-0.30781,1.7226,0.41863-0.46312,0.67316-1.1265,1.1656-1.4838,0.30702-0.22274,0.83668-0.48988,1.1426-0.35074,0.52823,0.24024,1.0607,0.93372,1.3599,1.4889,0.17325,0.32152,0.12846,0.8552,0.14756,1.2356,0.49887-0.26222,0.80111-0.28512,1.1788-0.85349z" stroke-opacity="0.5" fill-rule="evenodd" stroke="#504002" stroke-linecap="round" stroke-miterlimit="4" stroke-dasharray="none" stroke-width="0.13461486" fill="url(#radialGradient7546)"/>
   <path id="path22021" stroke-linejoin="round" d="m133.31-13.602c-0.73345-2.0571-1.5698-2.8422-2.8594-2.8773-0.76933-0.02095-1.3859,0.57347-1.8273,1.1182-0.30039,0.37072-0.55169,1.2335-0.30781,1.7226,0.41863-0.46312,0.67316-1.1265,1.1656-1.4838,0.30703-0.22274,0.83669-0.48988,1.1426-0.35074,0.52823,0.24024,1.0607,0.93372,1.3599,1.4889,0.17325,0.32152,0.12846,0.8552,0.14756,1.2356,0.49886-0.26222,0.80111-0.28512,1.1787-0.85349z" stroke-opacity="0.5" fill-rule="evenodd" stroke="#504002" stroke-linecap="round" stroke-miterlimit="4" stroke-dasharray="none" stroke-width="0.13461486" fill="url(#radialGradient7548)"/>
   <path id="path22025" stroke-linejoin="round" d="m140.89-6.8825c-0.73346-2.0571-1.5698-2.8422-2.8594-2.8773-0.76933-0.02094-1.3859,0.57348-1.8273,1.1182-0.30039,0.37072-0.55169,1.2335-0.30781,1.7226,0.41863-0.46311,0.67316-1.1265,1.1656-1.4838,0.30703-0.22274,0.83669-0.48988,1.1426-0.35074,0.52823,0.24024,1.0607,0.93372,1.3599,1.4889,0.17325,0.32152,0.12846,0.8552,0.14756,1.2356,0.49887-0.26222,0.80111-0.28512,1.1787-0.85349z" stroke-opacity="0.5" fill-rule="evenodd" stroke="#504002" stroke-linecap="round" stroke-miterlimit="4" stroke-dasharray="none" stroke-width="0.13461486" fill="url(#radialGradient7550)"/>
   <path id="path22029" stroke-linejoin="round" d="m139.48-0.27699c-0.73346-2.0571-1.5698-2.8422-2.8594-2.8773-0.76932-0.02095-1.3859,0.57347-1.8273,1.1182-0.30039,0.37072-0.55169,1.2335-0.30781,1.7226,0.41864-0.46311,0.67316-1.1265,1.1656-1.4838,0.30703-0.22274,0.83668-0.48988,1.1426-0.35074,0.52823,0.24024,1.0607,0.93372,1.3599,1.4889,0.17324,0.32151,0.12846,0.85519,0.14755,1.2356,0.49887-0.26221,0.80111-0.28512,1.1788-0.85349z" stroke-opacity="0.5" fill-rule="evenodd" stroke="#504002" stroke-linecap="round" stroke-miterlimit="4" stroke-dasharray="none" stroke-width="0.13461486" fill="url(#radialGradient7552)"/>
   <path id="path22033" stroke-linejoin="round" d="m144.65-34.485c-1.9914-1.0618-3.1649-1.1128-4.148-0.31779-0.58649,0.47428-0.6268,1.3086-0.57186,1.9945,0.0374,0.46678,0.45718,1.268,0.98232,1.4762-0.0145-0.61074-0.29169-1.2658-0.17687-1.8449,0.0716-0.36103,0.27741-0.89681,0.60261-0.9882,0.56148-0.15778,1.4448,0.01855,2.0574,0.24068,0.3548,0.12864,0.69672,0.55379,0.97835,0.82433,0.18641-0.51252,0.39493-0.72199,0.27599-1.3848z" stroke-opacity="0.5" fill-rule="evenodd" stroke="#504002" stroke-linecap="round" stroke-miterlimit="4" stroke-dasharray="none" stroke-width="0.13461486" fill="url(#radialGradient7554)"/>
   <path id="path22037" stroke-linejoin="round" d="m133.35-13.323c-1.9914-1.0618-3.1649-1.1128-4.148-0.31779-0.58649,0.47428-0.6268,1.3086-0.57186,1.9945,0.0374,0.46678,0.45718,1.268,0.98232,1.4762-0.0145-0.61074-0.29169-1.2658-0.17687-1.8449,0.0716-0.36103,0.27741-0.89681,0.60261-0.9882,0.56149-0.15778,1.4448,0.01855,2.0574,0.24068,0.3548,0.12864,0.69673,0.55379,0.97835,0.82433,0.18641-0.51252,0.39493-0.72199,0.27599-1.3848z" stroke-opacity="0.5" fill-rule="evenodd" stroke="#504002" stroke-linecap="round" stroke-miterlimit="4" stroke-dasharray="none" stroke-width="0.13461486" fill="url(#radialGradient7556)"/>
   <path id="path22041" stroke-linejoin="round" d="m144.29-27.818c-1.9914-1.0618-3.1649-1.1128-4.148-0.31779-0.58649,0.47428-0.62679,1.3086-0.57186,1.9945,0.0374,0.46678,0.45719,1.268,0.98233,1.4762-0.0145-0.61074-0.29169-1.2658-0.17687-1.8449,0.0716-0.36103,0.27741-0.89681,0.60261-0.9882,0.56148-0.15778,1.4448,0.01855,2.0574,0.24068,0.3548,0.12864,0.69673,0.55379,0.97836,0.82433,0.1864-0.51252,0.39493-0.72199,0.27598-1.3848z" stroke-opacity="0.5" fill-rule="evenodd" stroke="#504002" stroke-linecap="round" stroke-miterlimit="4" stroke-dasharray="none" stroke-width="0.13461486" fill="url(#radialGradient7558)"/>
   <path id="path22045" stroke-linejoin="round" d="m162.15-34.991c-1.9914-1.0618-3.1649-1.1128-4.148-0.31778-0.58649,0.47428-0.6268,1.3086-0.57186,1.9945,0.0374,0.46678,0.45718,1.268,0.98232,1.4762-0.0145-0.61074-0.29169-1.2658-0.17687-1.8449,0.0716-0.36103,0.27741-0.89681,0.60261-0.9882,0.56148-0.15778,1.4448,0.01855,2.0574,0.24068,0.3548,0.12864,0.69672,0.55379,0.97835,0.82433,0.1864-0.51252,0.39493-0.72198,0.27599-1.3848z" stroke-opacity="0.5" fill-rule="evenodd" stroke="#504002" stroke-linecap="round" stroke-miterlimit="4" stroke-dasharray="none" stroke-width="0.13461486" fill="url(#radialGradient7560)"/>
   <path id="path22095" stroke-linejoin="miter" d="m167.3-19.283c1.5322,2.9162,2.6394,5.9419,2.4898,8.931-0.0638,1.2759-2.5859,4.4762-6.6396,4.3136-4.0842-0.16382-5.1394-5.9821-9.5124-4.7389-2.8923,0.82225-2.1706,3.6453-7.4057,3.22l-2.7452-8.1412" stroke-opacity="0.5" fill-rule="evenodd" stroke="#805b00" stroke-linecap="butt" stroke-miterlimit="4" stroke-dasharray="none" stroke-width="0.13461486" fill="url(#linearGradient7562)"/>
   <path id="path21975" stroke-linejoin="miter" d="m149.51-15.017c-0.37123-1.0728-1.4628-3.7353-2.65-3.725-3.9121,0.03413-4.9399,2.7837-5.1853,4.2802-0.38709,2.3608,1.7526,4.4862,3.2879,7.2915,0.62978,1.1507,2.3876,2.3059,3.6252,1.7351,0.83816-0.38654,0.33191-2.5128-0.14482-3.1807-0.47673-0.66793-1.1528,1.143-1.852,0.51735-0.69919-0.62568-3.1746-7.5611-0.99546-7.9361,0.76003-0.13082,1.7658,1.1527,2.6827,1.391,0.38795,0.10086,1.3332-0.08003,1.2317-0.37341z" fill-rule="evenodd" stroke="#5e4400" stroke-linecap="butt" stroke-miterlimit="4" stroke-dasharray="none" stroke-width="0.13461486" fill="#7b6300"/>
   <path id="path22079" stroke-linejoin="miter" d="m169.17-19.668-2.7001,0.14146c-1.628,0.34428-3.3296,3.0757-4.9797,3.5846-0.6482,0.19991-1.0215-0.30378-1.6599-0.78982" stroke="url(#linearGradient7564)" stroke-linecap="round" stroke-miterlimit="4" stroke-dasharray="none" stroke-width="0.13461486" fill="none"/>
   <path id="path22106" fill-rule="evenodd" fill="url(#radialGradient7566)" d="m166.6-18.919c0.44689,0.60755,1.7237,5.1642,1.7237,5.1642l-5.6819-2.0049,3.9582-3.1593z"/>
   <path id="path22126" stroke-linejoin="round" d="m134.03-21.944c0.26902-2.1572-0.13048-3.2085-1.2785-3.7687-0.68484-0.33422-1.5103-0.05044-2.1552,0.26028-0.43887,0.21146-1.0561,0.88709-1.0574,1.4285,0.58741-0.24638,1.1173-0.74076,1.7235-0.86136,0.3779-0.07519,0.97682-0.0992,1.19,0.15177,0.368,0.43332,0.53476,1.2774,0.55349,1.9011,0.0108,0.36117-0.27109,0.82447-0.426,1.1756,0.5689-0.03219,0.85204,0.07102,1.4501-0.28717z" stroke-opacity="0.5" fill-rule="evenodd" stroke="#504002" stroke-linecap="round" stroke-miterlimit="4" stroke-dasharray="none" stroke-width="0.13461486" fill="url(#radialGradient7568)"/>
   <path id="path22130" stroke-linejoin="round" d="m139.29-21.787c0.73522-2.0566,0.57455-3.164-0.42564-3.9394-0.59668-0.46262-1.4661-0.34868-2.1649-0.17258-0.47553,0.11984-1.2271,0.65832-1.3468,1.1876,0.62845-0.12456,1.2549-0.50306,1.8742-0.50088,0.38607,0.0014,0.9771,0.09658,1.1306,0.38428,0.2651,0.49675,0.24347,1.3554,0.1253,1.9691-0.0684,0.3554-0.44558,0.75266-0.67394,1.0654,0.56347,0.08127,0.81782,0.23833,1.4811,0.0065z" stroke-opacity="0.5" fill-rule="evenodd" stroke="#504002" stroke-linecap="round" stroke-miterlimit="4" stroke-dasharray="none" stroke-width="0.13461486" fill="url(#radialGradient7570)"/>
   <path id="path22134" stroke-linejoin="round" d="m143.73-31.729c1.9526,1.1252,3.1236,1.2138,4.1344,0.45088,0.60298-0.45516,0.67287-1.2877,0.6423-1.975-0.0208-0.46772-0.41194-1.2819-0.92939-1.5069-0.007,0.61086,0.24661,1.2745,0.11131,1.8496-0.0844,0.35852-0.30907,0.88739-0.63733,0.96828-0.56676,0.13965-1.4433-0.06496-2.0477-0.30665-0.35004-0.13997-0.67668-0.57586-0.94855-0.8553-0.20448,0.50624-0.42032,0.70889-0.32496,1.3752z" stroke-opacity="0.5" fill-rule="evenodd" stroke="#504002" stroke-linecap="round" stroke-miterlimit="4" stroke-dasharray="none" stroke-width="0.13461486" fill="url(#radialGradient7572)"/>
   <path id="path22240" stroke-linejoin="miter" d="m171.9-3.2026c-1.6703,0.04296-3.4462,0.26099-4.8754,0.34368-1.1099,0.06422-1.0834,0.44392-1.6252,1.074" stroke="#564302" stroke-linecap="butt" stroke-miterlimit="4" stroke-dasharray="none" stroke-width="0.13461486" fill="none"/>
  </g>
 </g>
</svg>
