<?xml version="1.0" encoding="UTF-8" standalone="no"?>
<!-- Created with Inkscape (http://www.inkscape.org/) -->
<svg id="svg10395" xmlns:rdf="http://www.w3.org/1999/02/22-rdf-syntax-ns#" xmlns="http://www.w3.org/2000/svg" height="364.92" width="583.2" version="1.1" xmlns:cc="http://creativecommons.org/ns#" xmlns:xlink="http://www.w3.org/1999/xlink" xmlns:dc="http://purl.org/dc/elements/1.1/">
 <defs id="defs10397">
  <marker id="Arrow2Lstart" refY="0" refX="0" orient="auto">
   <path id="path5670" stroke-linejoin="round" d="M8.7186,4.0337-2.2073,0.016013,8.7186-4.0017c-1.7455,2.3721-1.7354,5.6175-6E-7,8.0354z" fill-rule="evenodd" transform="matrix(1.1,0,0,1.1,1.1,0)" stroke-width="0.625"/>
  </marker>
  <marker id="Arrow2Lend" refY="0" refX="0" orient="auto">
   <path id="path5673" stroke-linejoin="round" d="M8.7186,4.0337-2.2073,0.016013,8.7186-4.0017c-1.7455,2.3721-1.7354,5.6175-6E-7,8.0354z" fill-rule="evenodd" transform="matrix(-1.1,0,0,-1.1,-1.1,0)" stroke-width="0.625"/>
  </marker>
  <marker id="marker5223" refY="0" refX="0" orient="auto">
   <path id="path5225" stroke-linejoin="round" d="M8.7186,4.0337-2.2073,0.016013,8.7186-4.0017c-1.7455,2.3721-1.7354,5.6175-6E-7,8.0354z" fill-rule="evenodd" transform="matrix(-1.1,0,0,-1.1,-1.1,0)" stroke-width="0.625"/>
  </marker>
  <marker id="marker5219" refY="0" refX="0" orient="auto">
   <path id="path5221" stroke-linejoin="round" d="M8.7186,4.0337-2.2073,0.016013,8.7186-4.0017c-1.7455,2.3721-1.7354,5.6175-6E-7,8.0354z" fill-rule="evenodd" transform="matrix(1.1,0,0,1.1,1.1,0)" stroke-width="0.625"/>
  </marker>
  <filter id="filter4593-5" color-interpolation-filters="sRGB">
   <feGaussianBlur id="feGaussianBlur4595-8" stdDeviation="4.048535"/>
  </filter>
  <radialGradient id="radialGradient12579" gradientUnits="userSpaceOnUse" cy="35.737" cx="33.967" gradientTransform="scale(0.960493,1.041132)" r="86.708">
   <stop id="stop260" stop-color="#fafafa" offset="0"/>
   <stop id="stop261" stop-color="#BBB" offset="1"/>
  </radialGradient>
  <radialGradient id="radialGradient12581" gradientUnits="userSpaceOnUse" cy="3.7561" cx="8.8244" gradientTransform="matrix(0.968273,0,0,1.032767,3.353553,0.646447)" r="37.752">
   <stop id="stop270" stop-color="#a3a3a3" offset="0"/>
   <stop id="stop271" stop-color="#4c4c4c" offset="1"/>
  </radialGradient>
  <radialGradient id="radialGradient12583" gradientUnits="userSpaceOnUse" cy="7.2679" cx="8.1436" gradientTransform="matrix(0.968273,0,0,1.032767,3.353553,0.646447)" r="38.159">
   <stop id="stop15664" stop-color="#FFF" offset="0"/>
   <stop id="stop15666" stop-color="#f8f8f8" offset="1"/>
  </radialGradient>
  <radialGradient id="radialGradient12585" gradientUnits="userSpaceOnUse" cy="114.57" cx="20.892" gradientTransform="matrix(0.229703,0,0,0.229703,4.613529,3.979808)" r="5.256">
   <stop id="stop15566" stop-color="#f0f0f0" offset="0"/>
   <stop id="stop15568" stop-color="#9a9a9a" offset="1"/>
  </radialGradient>
  <radialGradient id="radialGradient12587" gradientUnits="userSpaceOnUse" cy="64.568" cx="20.892" gradientTransform="matrix(0.229703,0,0,0.229703,4.613529,3.979808)" r="5.257">
   <stop id="stop15573" stop-color="#f0f0f0" offset="0"/>
   <stop id="stop15575" stop-color="#9a9a9a" offset="1"/>
  </radialGradient>
  <radialGradient id="radialGradient12589" gradientUnits="userSpaceOnUse" cy="41.636" cx="24.218" gradientTransform="matrix(1,0,0,0.184,0,33.97501)" r="22.097">
   <stop id="stop12131" stop-color="#000" offset="0"/>
   <stop id="stop12133" stop-color="#000" stop-opacity="0" offset="1"/>
  </radialGradient>
  <linearGradient id="linearGradient12591" y2="36.033" gradientUnits="userSpaceOnUse" x2="31.081" gradientTransform="matrix(1.2555226,0,0,0.97664965,-3.2165457,4.2018909)" y1="3.7319" x1="12.487">
   <stop id="stop16177" stop-color="#d2d2d2" offset="0"/>
   <stop id="stop16179" stop-color="#ededed" offset="1"/>
  </linearGradient>
  <linearGradient id="linearGradient12593" y2="22.577" gradientUnits="userSpaceOnUse" x2="21.917" gradientTransform="matrix(1.110455,0,0,1.118244,-0.223961,1.61786)" y1="30.341" x1="21.877">
   <stop id="stop16184" stop-color="#5e4f07" offset="0"/>
   <stop id="stop16186" stop-color="#348a31" offset="1"/>
  </linearGradient>
  <linearGradient id="linearGradient12595" y2="7.1091" gradientUnits="userSpaceOnUse" x2="21.933" gradientTransform="matrix(1.098989,0,0,1.106697,0.02774881,1.968146)" y1="24.627" x1="21.933">
   <stop id="stop16199" stop-color="#d0d6e5" offset="0"/>
   <stop id="stop16201" stop-color="#093a80" offset="1"/>
  </linearGradient>
  <linearGradient id="linearGradient12597" y2="27.352" gradientUnits="userSpaceOnUse" x2="27.238" y1="20.227" x1="27.309">
   <stop id="stop2394" stop-color="#715b26" offset="0"/>
   <stop id="stop2396" stop-color="#312710" offset="1"/>
  </linearGradient>
 </defs>
 <metadata id="metadata10400">
  <rdf:RDF>
   <cc:Work rdf:about="">
    <dc:format>image/svg+xml</dc:format>
    <dc:type rdf:resource="http://purl.org/dc/dcmitype/StillImage"/>
    <dc:title/>
   </cc:Work>
  </rdf:RDF>
 </metadata>
 <g id="layer1" transform="translate(-276.41387,-320.24084)">
  <g id="g12440">
   <g id="g15739" transform="translate(-29.555454,3306.6114)">
    <path id="path8320-5" stroke-linejoin="miter" style="marker-end:url(#Arrow2Lend);marker-start:url(#Arrow2Lstart);" d="m828.31-2877-93.873,20.278" stroke="#000" stroke-linecap="butt" stroke-miterlimit="4" stroke-dasharray="none" stroke-width="1" fill="none"/>
    <g id="layer1-8-5-4" transform="matrix(0.70329316,0,0,0.4866829,310.52337,-2876.7139)">
     <g id="g3635-5-2" transform="matrix(1.0776677,0,0,0.9338009,-214.84682,-177.08134)" stroke="#000" stroke-miterlimit="4" stroke-dasharray="none">
      <path id="path3236-4-2" stroke-linejoin="round" d="m257.71,196.39c-6.1062,3.7905-10.749,8.0442-15.856,2.0154-5.1079-6.0288-10.558,4.0389-14.616,5.5205-4.0576,1.4816-12.19-7.5063-13.708,0.2566-1.5188,7.763,5.1636,11.346,11.432,14.766,6.2684,3.4198,18.513-12.018,16.436,8.6771-2.0768,20.695-38.917,14.545-37.995,49.658,0.94028,35.776,19.758,46.112,45.361,47.154,26.276,1.0692,48.396-11.044,48.439-43.334,0.0434-32.964-28.874-37.759-37.954-52.17-9.0804-14.411,0.87599-6.7804,8.2668-10.38,7.3908-3.5994,10.466-1.0485,14.814-7.3475,4.3482-6.299-5.2714-8.2616-11.791-5.3714s-6.7222-13.236-12.828-9.4452z" fill-rule="evenodd" stroke-linecap="butt" stroke-width="6.85734081" fill="#af794b"/>
      <path id="path3604-1-8" stroke-linejoin="round" d="m267.47,268.91c-12.262-17.131-63.188,0.93021-15.567,11.855s-6.013,35.099-19.277,8.1411" stroke-linecap="round" stroke-width="4.89120436" fill="none"/>
      <path id="path3606-1-5" stroke-linejoin="miter" d="m246.47,253.93,0,51.518" stroke-linecap="round" stroke-width="4.89120436" fill="none"/>
      <path id="path3624-6-6" stroke-linejoin="miter" d="m256.28,255.02,0,22.576,0,28.942" stroke-linecap="round" stroke-width="4.89120436" fill="none"/>
     </g>
    </g>
    <path id="path8714" stroke-linejoin="miter" style="marker-end:url(#marker5223);" d="m729.08-2797.4,106.16,39.139" stroke="#000" stroke-linecap="butt" stroke-width="1px" fill="none"/>
    <path id="path11274" stroke-linejoin="miter" style="marker-end:url(#marker5223);marker-start:url(#marker5219);" d="m623.41-2887.6-89.055-43.423" stroke="#000" stroke-linecap="butt" stroke-width="1px" fill="none"/>
    <path id="path10496" stroke-linejoin="miter" style="marker-end:url(#marker5223);" d="m512.42-2781-116.44-33.733" stroke="#000" stroke-linecap="butt" stroke-width="1px" fill="none"/>
    <g id="g11268" stroke-linejoin="miter" transform="matrix(-0.99551009,0,0,0.99551009,825.52239,553.51995)" stroke="#000" stroke-linecap="butt" stroke-width="1.47520232px" fill="none">
     <path id="path11270" d="m-25.355-3496.1c5.4227-3.8787,10.056,5.5908,8.9353,10.623-1.1077,4.9753-5.584,9.581-8.742,9.9921-4.6182,0.6012-11.015-5.309-10.055-11.864,0.67365-4.598,2.9177-6.8191,5.9411-7.575,4.6785-1.1696,6.7094-0.9228,10.977,0.784"/>
     <path id="path11272" d="m-26.556-3475.9c1.3647,15.986-0.9444,19.932-0.9444,31.159"/>
     <path id="path11275" d="m-26.428-3471.2c3.668,5.5714,18.474,10.065,19.281,15.272"/>
     <path id="path11277" d="m-26.991-3470.1c-3.9498,5.0062-13.027,8.5391-17.279,13.638"/>
     <path id="path11279" d="m-27.303-3445.4c3.9825,12.321,5.1514,16.592,7.2456,26.247"/>
     <path id="path11281" d="m-27.457-3445.1c-2.9354,11.274-6.5758,19.433-8.1465,25.947"/>
    </g>
    <g id="g11283" stroke-linejoin="miter" transform="matrix(-0.99551009,0,0,0.99551009,719.64423,511.04238)" stroke="#000" stroke-linecap="butt" stroke-width="1.47520232px" fill="none">
     <path id="path11285" d="m-25.355-3496.1c5.4227-3.8787,10.056,5.5908,8.9353,10.623-1.1077,4.9753-5.584,9.581-8.742,9.9921-4.6182,0.6012-11.015-5.309-10.055-11.864,0.67365-4.598,2.9177-6.8191,5.9411-7.575,4.6785-1.1696,6.7094-0.9228,10.977,0.784"/>
     <path id="path11287" d="m-26.556-3475.9c1.3647,15.986-0.9444,19.932-0.9444,31.159"/>
     <path id="path11289" d="m-26.428-3471.2c3.668,5.5714,18.474,10.065,19.281,15.272"/>
     <path id="path11291" d="m-26.991-3470.1c-3.9498,5.0062-13.027,8.5391-17.279,13.638"/>
     <path id="path11293" d="m-27.303-3445.4c3.9825,12.321,5.1514,16.592,7.2456,26.247"/>
     <path id="path11295" d="m-27.457-3445.1c-2.9354,11.274-6.5758,19.433-8.1465,25.947"/>
    </g>
    <path id="path11297" stroke-linejoin="miter" style="marker-end:url(#Arrow2Lend);marker-start:url(#Arrow2Lstart);" d="m727.08-2922.8-42.84,29.721" stroke="#000" stroke-linecap="butt" stroke-miterlimit="4" stroke-dasharray="none" stroke-width="1" fill="none"/>
    <g id="g11299" stroke-linejoin="miter" transform="matrix(-0.99551009,0,0,0.99551009,839.52842,683.59098)" stroke="#000" stroke-linecap="butt" stroke-width="1.47520232px" fill="none">
     <path id="path11301" d="m-25.355-3496.1c5.4227-3.8787,10.056,5.5908,8.9353,10.623-1.1077,4.9753-5.584,9.581-8.742,9.9921-4.6182,0.6012-11.015-5.309-10.055-11.864,0.67365-4.598,2.9177-6.8191,5.9411-7.575,4.6785-1.1696,6.7094-0.9228,10.977,0.784"/>
     <path id="path11303" d="m-26.556-3475.9c1.3647,15.986-0.9444,19.932-0.9444,31.159"/>
     <path id="path11305" d="m-26.428-3471.2c3.668,5.5714,18.474,10.065,19.281,15.272"/>
     <path id="path11307" d="m-26.991-3470.1c-3.9498,5.0062-13.027,8.5391-17.279,13.638"/>
     <path id="path11309" d="m-27.303-3445.4c3.9825,12.321,5.1514,16.592,7.2456,26.247"/>
     <path id="path11311" d="m-27.457-3445.1c-2.9354,11.274-6.5758,19.433-8.1465,25.947"/>
    </g>
    <g id="g11328" stroke-linejoin="miter" transform="matrix(0.99551009,0,0,0.99551009,561.15787,677.44227)" stroke="#000" stroke-linecap="butt" stroke-width="1.47520232px" fill="none">
     <path id="path11330" d="m-25.355-3496.1c5.4227-3.8787,10.056,5.5908,8.9353,10.623-1.1077,4.9753-5.584,9.581-8.742,9.9921-4.6182,0.6012-11.015-5.309-10.055-11.864,0.67365-4.598,2.9177-6.8191,5.9411-7.575,4.6785-1.1696,6.7094-0.9228,10.977,0.784"/>
     <path id="path11332" d="m-26.556-3475.9c1.3647,15.986-0.9444,19.932-0.9444,31.159"/>
     <path id="path11334" d="m-26.428-3471.2c3.668,5.5714,18.474,10.065,19.281,15.272"/>
     <path id="path11336" d="m-26.991-3470.1c-3.9498,5.0062-13.027,8.5391-17.279,13.638"/>
     <path id="path11338" d="m-27.303-3445.4c3.9825,12.321,5.1514,16.592,7.2456,26.247"/>
     <path id="path11340" d="m-27.457-3445.1c-2.9354,11.274-6.5758,19.433-8.1465,25.947"/>
    </g>
    <g id="g11342" stroke-linejoin="miter" transform="matrix(0.99551009,0,0,0.99551009,529.60476,500.6345)" stroke="#000" stroke-linecap="butt" stroke-width="1.47520232px" fill="none">
     <path id="path11344" d="m-25.355-3496.1c5.4227-3.8787,10.056,5.5908,8.9353,10.623-1.1077,4.9753-5.584,9.581-8.742,9.9921-4.6182,0.6012-11.015-5.309-10.055-11.864,0.67365-4.598,2.9177-6.8191,5.9411-7.575,4.6785-1.1696,6.7094-0.9228,10.977,0.784"/>
     <path id="path11346" d="m-26.556-3475.9c1.3647,15.986-0.9444,19.932-0.9444,31.159"/>
     <path id="path11348" d="m-26.428-3471.2c3.668,5.5714,18.474,10.065,19.281,15.272"/>
     <path id="path11350" d="m-26.991-3470.1c-3.9498,5.0062-13.027,8.5391-17.279,13.638"/>
     <path id="path11352" d="m-27.303-3445.4c3.9825,12.321,5.1514,16.592,7.2456,26.247"/>
     <path id="path11354" d="m-27.457-3445.1c-2.9354,11.274-6.5758,19.433-8.1465,25.947"/>
    </g>
    <g id="g11356" stroke-linejoin="miter" transform="matrix(0.99551009,0,0,0.99551009,499.02431,572.89229)" stroke="#000" stroke-linecap="butt" stroke-width="1.47520232px" fill="none">
     <path id="path11358" d="m-25.355-3496.1c5.4227-3.8787,10.056,5.5908,8.9353,10.623-1.1077,4.9753-5.584,9.581-8.742,9.9921-4.6182,0.6012-11.015-5.309-10.055-11.864,0.67365-4.598,2.9177-6.8191,5.9411-7.575,4.6785-1.1696,6.7094-0.9228,10.977,0.784"/>
     <path id="path11360" d="m-26.556-3475.9c1.3647,15.986-0.9444,19.932-0.9444,31.159"/>
     <path id="path11362" d="m-26.428-3471.2c3.668,5.5714,18.474,10.065,19.281,15.272"/>
     <path id="path11364" d="m-26.991-3470.1c-3.9498,5.0062-13.027,8.5391-17.279,13.638"/>
     <path id="path11366" d="m-27.303-3445.4c3.9825,12.321,5.1514,16.592,7.2456,26.247"/>
     <path id="path11368" d="m-27.457-3445.1c-2.9354,11.274-6.5758,19.433-8.1465,25.947"/>
    </g>
    <path id="path11370" stroke-linejoin="miter" style="marker-end:url(#marker5223);marker-start:url(#marker5219);" d="M605.89-2859.5,501.38-2869.7" stroke="#000" stroke-linecap="butt" stroke-width="1px" fill="none"/>
    <path id="path8602" stroke-linejoin="miter" style="marker-end:url(#marker5223);marker-start:none;" d="m617.35-2777-63.786-2.465" stroke="#000" stroke-linecap="butt" stroke-width="1px" fill="none"/>
    <g id="g8606" stroke-linejoin="miter" transform="matrix(0.99551009,0,0,0.99551009,543.98938,777.13937)" stroke="#000" stroke-linecap="butt" stroke-width="1.47520232px" fill="none">
     <path id="path8608" d="m-25.355-3496.1c5.4227-3.8787,10.056,5.5908,8.9353,10.623-1.1077,4.9753-5.584,9.581-8.742,9.9921-4.6182,0.6012-11.015-5.309-10.055-11.864,0.67365-4.598,2.9177-6.8191,5.9411-7.575,4.6785-1.1696,6.7094-0.9228,10.977,0.784"/>
     <path id="path8610" d="m-26.556-3475.9c1.3647,15.986-0.9444,19.932-0.9444,31.159"/>
     <path id="path8612" d="m-26.428-3471.2c3.668,5.5714,18.474,10.065,19.281,15.272"/>
     <path id="path8614" d="m-26.991-3470.1c-3.9498,5.0062-13.027,8.5391-17.279,13.638"/>
     <path id="path8617" d="m-27.303-3445.4c3.9825,12.321,5.1514,16.592,7.2456,26.247"/>
     <path id="path8619" d="m-27.457-3445.1c-2.9354,11.274-6.5758,19.433-8.1465,25.947"/>
    </g>
    <path id="path8621" stroke-linejoin="miter" style="marker-end:url(#marker5223);marker-start:url(#marker5219);" d="m632.35-2752.8-91.645,66.352" stroke="#000" stroke-linecap="butt" stroke-width="1px" fill="none"/>
    <path id="path10749" stroke-linejoin="miter" style="marker-end:url(#marker5223);" d="M496.73-2682,372.76-2803.9" stroke="#000" stroke-linecap="butt" stroke-width="1px" fill="none"/>
    <path id="path10757" stroke-linejoin="miter" style="marker-end:url(#marker5223);" d="m392.04-2850.1,56.384-32.023" stroke="#000" stroke-linecap="butt" stroke-width="1px" fill="none"/>
    <path id="path10761" stroke-linejoin="miter" style="marker-end:url(#marker5223);" d="m390.57-2874.6,83.607-77.233" stroke="#000" stroke-linecap="butt" stroke-width="1px" fill="none"/>
   </g>
   <g id="layer1-6" transform="matrix(0.58443172,0,0,0.58443172,420.63639,174.00329)">
    <g id="g16468" transform="translate(238.83797,4511.5632)">
     <g id="g6118" transform="translate(-58.463363,-2322.9493)">
      <g id="text3254" font-size="24px" font-family="Monospace" style="letter-spacing:0px;word-spacing:0px;" line-height="125%" font-stretch="normal" font-variant="normal" font-weight="normal" font-style="normal" fill="#000">
       <path id="path6683" d="m135.56-1710c-1.7891,0-3.1445-0.7539-4.0664-2.2617-0.92188-1.5156-1.3828-3.7031-1.3828-6.5625,0-5.875,1.8164-8.8125,5.4492-8.8125,1.8125,0,3.1797,0.7579,4.1016,2.2735,0.92967,1.5078,1.3945,3.6875,1.3945,6.539-0.00001,5.8828-1.832,8.8242-5.4961,8.8242m0-1.8164c1.1484,0,1.9922-0.5468,2.5312-1.6406,0.53905-1.1015,0.80858-2.8906,0.80859-5.3672-0.00001-2.4609-0.26954-4.2382-0.80859-5.332-0.53908-1.1016-1.3828-1.6523-2.5312-1.6524-1.1328,0.0001-1.9648,0.5469-2.4961,1.6407-0.52344,1.0859-0.78516,2.8672-0.78515,5.3437-0.00001,2.4844,0.26171,4.2735,0.78515,5.3672,0.53125,1.0938,1.3633,1.6406,2.4961,1.6406"/>
       <path id="path6685" d="m151.66-1710.2-2.0625,0,0-10.699c-0.00001-0.9531,0.0312-2.3632,0.0937-4.2304-0.3047,0.3359-0.77735,0.7773-1.418,1.3242l-1.7227,1.418-1.1367-1.4414,4.4883-3.5039h1.7578v17.133"/>
       <path id="path6687" d="m164.34-1710c-1.7891,0-3.1445-0.7539-4.0664-2.2617-0.92188-1.5156-1.3828-3.7031-1.3828-6.5625,0-5.875,1.8164-8.8125,5.4492-8.8125,1.8125,0,3.1797,0.7579,4.1016,2.2735,0.92967,1.5078,1.3945,3.6875,1.3945,6.539-0.00001,5.8828-1.832,8.8242-5.4961,8.8242m0-1.8164c1.1484,0,1.9922-0.5468,2.5312-1.6406,0.53905-1.1015,0.80858-2.8906,0.80859-5.3672-0.00001-2.4609-0.26954-4.2382-0.80859-5.332-0.53908-1.1016-1.3828-1.6523-2.5312-1.6524-1.1328,0.0001-1.9648,0.5469-2.4961,1.6407-0.52344,1.0859-0.78516,2.8672-0.78515,5.3437-0.00001,2.4844,0.26171,4.2735,0.78515,5.3672,0.53125,1.0938,1.3633,1.6406,2.4961,1.6406"/>
       <path id="path6689" d="m178.73-1710c-1.7891,0-3.1445-0.7539-4.0664-2.2617-0.92187-1.5156-1.3828-3.7031-1.3828-6.5625,0-5.875,1.8164-8.8125,5.4492-8.8125,1.8125,0,3.1797,0.7579,4.1016,2.2735,0.92968,1.5078,1.3945,3.6875,1.3945,6.539-0.00001,5.8828-1.832,8.8242-5.4961,8.8242m0-1.8164c1.1484,0,1.9922-0.5468,2.5312-1.6406,0.53905-1.1015,0.80858-2.8906,0.80859-5.3672-0.00001-2.4609-0.26954-4.2382-0.80859-5.332-0.53907-1.1016-1.3828-1.6523-2.5312-1.6524-1.1328,0.0001-1.9648,0.5469-2.4961,1.6407-0.52344,1.0859-0.78516,2.8672-0.78516,5.3437,0,2.4844,0.26172,4.2735,0.78516,5.3672,0.53124,1.0938,1.3633,1.6406,2.4961,1.6406"/>
       <path id="path6691" d="m194.83-1710.2-2.0625,0,0-10.699c0-0.9531,0.0312-2.3632,0.0937-4.2304-0.30469,0.3359-0.77735,0.7773-1.418,1.3242l-1.7226,1.418-1.1367-1.4414,4.4883-3.5039h1.7578v17.133"/>
       <path id="path6693" d="m207.51-1710c-1.7891,0-3.1445-0.7539-4.0664-2.2617-0.92187-1.5156-1.3828-3.7031-1.3828-6.5625,0-5.875,1.8164-8.8125,5.4492-8.8125,1.8125,0,3.1797,0.7579,4.1016,2.2735,0.92968,1.5078,1.3945,3.6875,1.3945,6.539-0.00001,5.8828-1.832,8.8242-5.4961,8.8242m0-1.8164c1.1484,0,1.9922-0.5468,2.5312-1.6406,0.53905-1.1015,0.80858-2.8906,0.80859-5.3672-0.00001-2.4609-0.26954-4.2382-0.80859-5.332-0.53907-1.1016-1.3828-1.6523-2.5312-1.6524-1.1328,0.0001-1.9648,0.5469-2.4961,1.6407-0.52344,1.0859-0.78516,2.8672-0.78516,5.3437,0,2.4844,0.26172,4.2735,0.78516,5.3672,0.53124,1.0938,1.3633,1.6406,2.4961,1.6406"/>
       <path id="path6695" d="m223.61-1710.2-2.0625,0,0-10.699c0-0.9531,0.0312-2.3632,0.0937-4.2304-0.30469,0.3359-0.77735,0.7773-1.418,1.3242l-1.7226,1.418-1.1367-1.4414,4.4883-3.5039h1.7578v17.133"/>
       <path id="path6697" d="m238-1710.2-2.0625,0,0-10.699c-0.00001-0.9531,0.0312-2.3632,0.0937-4.2304-0.3047,0.3359-0.77735,0.7773-1.418,1.3242l-1.7227,1.418-1.1367-1.4414,4.4883-3.5039h1.7578v17.133"/>
       <path id="path6699" d="m250.68-1710c-1.7891,0-3.1445-0.7539-4.0664-2.2617-0.92188-1.5156-1.3828-3.7031-1.3828-6.5625,0-5.875,1.8164-8.8125,5.4492-8.8125,1.8125,0,3.1797,0.7579,4.1016,2.2735,0.92967,1.5078,1.3945,3.6875,1.3945,6.539-0.00001,5.8828-1.832,8.8242-5.4961,8.8242m0-1.8164c1.1484,0,1.9922-0.5468,2.5312-1.6406,0.53905-1.1015,0.80858-2.8906,0.80859-5.3672-0.00001-2.4609-0.26954-4.2382-0.80859-5.332-0.53908-1.1016-1.3828-1.6523-2.5312-1.6524-1.1328,0.0001-1.9648,0.5469-2.4961,1.6407-0.52344,1.0859-0.78516,2.8672-0.78515,5.3437-0.00001,2.4844,0.26171,4.2735,0.78515,5.3672,0.53125,1.0938,1.3633,1.6406,2.4961,1.6406"/>
      </g>
      <g id="g2992" transform="matrix(0.19008903,0,0,0.19008903,148.85122,-1700.8349)">
       <path id="path2796" d="m226.86,138.73,92.58-12v88.12c-8.65-2.05-21.03-2.05-30.52,5.89-19.01,15.9-2.33,33.78,19.43,24.91,12.38-5.05,16.51-13.15,16.51-25.38v-109.54l-103.42,12v109.73c-8.65-2.05-21.03-2.04-30.52,5.9-19.01,15.9-2.33,33.78,19.43,24.91,12.38-5.05,16.51-13.16,16.51-25.39v-99.15z"/>
       <path id="path2810" d="M8.5,87.5h381.12" stroke="#000" stroke-width="3.75" fill="none"/>
       <use id="use2812" xlink:href="#path2810" transform="translate(0,36.03)" height="300" width="400" y="0" x="0"/>
       <use id="use2814" xlink:href="#path2810" transform="translate(0,72.061)" height="300" width="400" y="0" x="0"/>
       <use id="use2816" xlink:href="#path2810" transform="translate(0,108.09)" height="300" width="400" y="0" x="0"/>
       <use id="use2818" xlink:href="#path2810" transform="translate(0,144.12)" height="300" width="400" y="0" x="0"/>
       <path id="path2820" d="m389.62,89.289v140.46" stroke="#000" stroke-linecap="square" stroke-width="7.5" fill="none"/>
       <path id="path1981" d="m69.5,269c40-31.26-37.238-44.91-13.5,3,5.182,10.46,55.5,36.51,55.5-40,0-57.5-35-130.5-35-159.5s23-44.5,23-6-56.5,71.5-56.5,111.5c0,66.03,90.5,67.03,90.5,18,0-45.5-42.327-46.9-56-35.5-19.514,16.27-12.443,47.9,10.5,50-33.656-43.11,31.7-54.41,36-18,4.73,40.03-69.5,41.16-69.5-7.5,0-38.5,61.27-77.6,58.5-115.5-4-54.691-39.861-71.599-44-5-2.91,46.32,34.83,105.02,36.5,170.5,1.07,41.81-30.318,52.85-36,34z"/>
      </g>
      <g id="g3195" transform="translate(190.77607,-1633.047)">
       <g id="g3049">
        <rect id="rect15391" stroke-linejoin="round" style="color:#000000;" fill-rule="nonzero" stroke-dashoffset="0" ry="1.149" height="40.92" width="34.875" stroke="url(#radialGradient12581)" stroke-linecap="round" stroke-miterlimit="4" y="3.6464" x="6.6036" stroke-width="1" display="block" fill="url(#radialGradient12579)"/>
        <rect id="rect15660" stroke-linejoin="round" style="color:#000000;" stroke-dashoffset="0" rx="0.14905" ry="0.14905" height="38.946" width="32.776" stroke="url(#radialGradient12583)" stroke-linecap="round" stroke-miterlimit="4" y="4.5839" x="7.6661" stroke-width="1" display="block" fill="none"/>
        <g id="g2270" fill-rule="nonzero" transform="translate(0.646447,-0.03798933)">
         <g id="g1440" transform="matrix(0.229703,0,0,0.229703,4.967081,4.244972)" stroke="#000" stroke-miterlimit="4" fill="#FFF">
          <path id="path1448" d="m23.428,113.07c0,1.973-1.6,3.572-3.573,3.572-1.974,0-3.573-1.6-3.573-3.572,0-1.974,1.6-3.573,3.573-3.573s3.573,1.6,3.573,3.573z"/>
          <path id="path1456" d="m23.428,63.07c0,1.973-1.6,3.573-3.573,3.573-1.974,0-3.573-1.6-3.573-3.573,0-1.974,1.6-3.573,3.573-3.573s3.573,1.6,3.573,3.573z"/>
         </g>
         <path id="path15570" fill="url(#radialGradient12585)" d="m9.995,29.952c0,0.4532-0.36752,0.8205-0.82073,0.8205-0.45343,0-0.82073-0.36752-0.82073-0.8205,0-0.45343,0.36752-0.82073,0.82073-0.82073,0.4532,0,0.82073,0.36752,0.82073,0.82073z"/>
         <path id="path15577" fill="url(#radialGradient12587)" d="m9.995,18.467c0,0.4532-0.36752,0.82073-0.82073,0.82073-0.45343,0-0.82073-0.36752-0.82073-0.82073,0-0.45343,0.36752-0.82073,0.82073-0.82073,0.4532,0,0.82073,0.36752,0.82073,0.82073z"/>
        </g>
        <path id="path15672" stroke-linejoin="miter" d="m11.506,5.4943,0,37.907" stroke-opacity="0.01754384" stroke="#000" stroke-linecap="butt" stroke-miterlimit="4" stroke-width="0.98855311" fill="none"/>
        <path id="path15674" stroke-linejoin="miter" d="m12.5,5.0205,0,38.018" stroke-opacity="0.20467834" stroke="#FFF" stroke-linecap="butt" stroke-miterlimit="4" stroke-width="1" fill="none"/>
       </g>
       <g id="g3161">
        <g id="g2253" fill-opacity="0.54970757" fill-rule="nonzero" transform="matrix(0.909091,0,0,1,2.363628,0)" fill="#9b9b9b">
         <rect id="rect15686" style="color:#000000;" rx="0.15156" ry="0.065391" height="1" width="22" y="9" x="15" display="block"/>
         <rect id="rect15688" style="color:#000000;" rx="0.15156" ry="0.065391" height="1" width="22" y="11" x="15" display="block"/>
         <rect id="rect15690" style="color:#000000;" rx="0.15156" ry="0.065391" height="1" width="22" y="13" x="15" display="block"/>
         <rect id="rect15692" style="color:#000000;" rx="0.15156" ry="0.065391" height="1" width="22" y="15" x="15" display="block"/>
         <rect id="rect15694" style="color:#000000;" rx="0.15156" ry="0.065391" height="1" width="22" y="17" x="15" display="block"/>
         <rect id="rect15696" style="color:#000000;" rx="0.15156" ry="0.065391" height="1" width="22" y="19" x="15" display="block"/>
         <rect id="rect15698" style="color:#000000;" rx="0.15156" ry="0.065391" height="1" width="22" y="21" x="15" display="block"/>
         <rect id="rect15700" style="color:#000000;" rx="0.15156" ry="0.065391" height="1" width="22" y="23" x="15" display="block"/>
         <rect id="rect15732" style="color:#000000;" rx="0.068204" ry="0.065391" height="1" width="9.9" y="25" x="15" display="block"/>
         <rect id="rect15736" style="color:#000000;" rx="0.15156" ry="0.065391" height="1" width="22" y="29" x="15" display="block"/>
         <rect id="rect15738" style="color:#000000;" rx="0.15156" ry="0.065391" height="1" width="22" y="31" x="15" display="block"/>
         <rect id="rect15740" style="color:#000000;" rx="0.15156" ry="0.065391" height="1" width="22" y="33" x="15" display="block"/>
         <rect id="rect15742" style="color:#000000;" rx="0.15156" ry="0.065391" height="1" width="22" y="35" x="15" display="block"/>
         <rect id="rect15744" style="color:#000000;" rx="0.1061" ry="0.065391" height="1" width="15.4" y="37" x="15" display="block"/>
        </g>
       </g>
      </g>
      <g id="g3018" transform="translate(136.88905,-1634.8557)">
       <path id="path12127" opacity="0.52763821" style="color:#000000;" d="m46.315,41.636a22.097,4.0659,0,1,1,-44.194,0,22.097,4.0659,0,1,1,44.194,0z" fill-rule="nonzero" display="block" transform="translate(0.176777,-3.116115)" fill="url(#radialGradient12589)"/>
       <path id="path16181" d="m45.874,36.22c0,1.5626-1.6322,2.8323-3.641,2.8323h-36.787c-2.0088,0-3.641-1.2696-3.641-2.8323v-26.452c0-1.5626,1.6322-2.8323,3.641-2.8323h36.787c2.0088,0,3.641,1.2696,3.641,2.8323v26.452z" fill-rule="nonzero" stroke="#646464" stroke-miterlimit="4" stroke-dasharray="none" stroke-width="0.91411364" fill="url(#linearGradient12591)"/>
       <path id="path16188" d="m40.419,34.718-32.536,0,0-22.253,32.536,0,0,22.253,0,0z" fill-rule="nonzero" stroke="#646464" stroke-miterlimit="4" stroke-dasharray="none" stroke-width="0.99999923" fill="url(#linearGradient12593)"/>
       <path id="path16203" fill-rule="nonzero" fill="url(#linearGradient12595)" d="m8.3801,12.924,31.541,0,0,13.391-31.541,0,0-13.391z"/>
       <g id="g16205" fill-rule="nonzero" transform="matrix(1.110492,0,0,1.118281,-0.224752,1.617147)" stroke-miterlimit="4" stroke-width="0">
        <g id="g16207" stroke-width="0" stroke-miterlimit="4">
         <path id="path16209" opacity="0.04999994" fill="#e8f52f" d="m18.4,15.4c0,2.2-1.8,4.1-4.1,4.1-2.2,0-4.1-1.8-4.1-4.1,0-2.2,1.8-4.1,4.1-4.1,2.2,0,4.1,1.8,4.1,4.1z"/>
         <path id="path16211" opacity="0.20829994" fill="#ecf751" d="m18,15.4c0,2-1.6,3.7-3.7,3.7-2,0-3.7-1.6-3.7-3.7,0-2,1.6-3.7,3.7-3.7,2,0,3.7,1.6,3.7,3.7z"/>
         <path id="path16213" opacity="0.3667" fill="#f0f972" d="m17.6,15.4c0,1.8-1.5,3.3-3.3,3.3s-3.3-1.5-3.3-3.3,1.5-3.3,3.3-3.3,3.3,1.5,3.3,3.3z"/>
         <path id="path16215" opacity="0.525" fill="#f4fa95" d="m17.2,15.4c0,1.6-1.3,2.9-2.9,2.9s-2.9-1.3-2.9-2.9,1.3-2.9,2.9-2.9,2.9,1.3,2.9,2.9z"/>
         <path id="path16217" opacity="0.6833" fill="#f7fcb7" d="m16.8,15.4c0,1.4-1.1,2.5-2.5,2.5s-2.5-1.1-2.5-2.5,1.1-2.5,2.5-2.5,2.5,1.1,2.5,2.5z"/>
         <path id="path16219" opacity="0.8417" fill="#fbfddb" d="m16.4,15.4c0,1.2-1,2.1-2.1,2.1s-2.1-1-2.1-2.1,1-2.1,2.1-2.1,2.1,1,2.1,2.1z"/>
         <path id="path16221" fill="#FFF" d="m16,15.4c0,1-0.8,1.8-1.8,1.8s-1.8-0.8-1.8-1.8,0.8-1.8,1.8-1.8,1.8,0.8,1.8,1.8z"/>
        </g>
       </g>
       <path id="path11975" d="m44.979,35.756c0,1.4992-1.0162,2.4322-2.9435,2.4322h-36.3c-1.9272,0-3.0351-0.86176-3.0351-2.3609v-25.654c0-1.4992,1.5659-2.5747,3.4931-2.5747h35.384c1.9272,0,3.4015,1.0756,3.4015,2.5747v25.583z" stroke-opacity="0.86010359" stroke="#FFF" stroke-miterlimit="4" stroke-dasharray="none" stroke-width="0.9141137" fill="none"/>
       <path id="path12125" d="m41.577,35.51-34.853,0,0-24.002,34.853,0,0,24.002,0,0z" stroke-opacity="0.61658032" stroke="#FFF" stroke-miterlimit="4" stroke-dasharray="none" stroke-width="0.99999923" fill="none"/>
       <path id="path2099" fill-rule="evenodd" fill="url(#linearGradient12597)" d="m8.3085,26.345,31.555,0,0-3.7123-3.0936-2.1213-2.5633,1.3258-4.2426-3.9775-7.3362,6.9827-6.2756-0.44194-5.3033,1.5026-1.591-0.88388-1.149,1.3258z"/>
       <path id="path2388" fill-rule="evenodd" fill="#FFF" d="m29.988,17.86-1.4382,1.4382,0.81497-0.38352,0,0.67115,1.0547-0.76703,0.28764,0.28764,0-0.33558,0.67115,0.43146-1.3902-1.3423z"/>
      </g>
     </g>
     <g id="g16465">
      <path id="path3709" stroke-linejoin="round" d="m204.34-4061.2c25.617-1.0701,25.413,53.057,8.7534,68.798,23.775,12.017,5.6574,63.076-7.0582,62.974,3.7387,16.033-15.461,56.879-46.282,32.254-0.97739,23.865-88.179,32.441-84.248-7.9876-38.346-14.114-29.79-68.933-14.624-79.864-22.076-10.931-15.679-74.144,12.065-79.049-0.78149-21.194,56.476-22.89,69.562-5.3486,13.724-19.205,64.109-1.1801,61.475,7.8649" filter="url(#filter4593-5)" stroke="#a3a8c5" stroke-linecap="round" stroke-miterlimit="4" stroke-dasharray="none" stroke-width="4.40600014" fill="none"/>
     </g>
    </g>
   </g>
  </g>
 </g>
</svg>
