<?xml version="1.0" encoding="UTF-8" standalone="no"?>
<!-- Created with Inkscape (http://www.inkscape.org/) -->

<svg
   xmlns:dc="http://purl.org/dc/elements/1.1/"
   xmlns:cc="http://creativecommons.org/ns#"
   xmlns:rdf="http://www.w3.org/1999/02/22-rdf-syntax-ns#"
   xmlns:svg="http://www.w3.org/2000/svg"
   xmlns="http://www.w3.org/2000/svg"
   xmlns:xlink="http://www.w3.org/1999/xlink"
   xmlns:sodipodi="http://sodipodi.sourceforge.net/DTD/sodipodi-0.dtd"
   xmlns:inkscape="http://www.inkscape.org/namespaces/inkscape"
   id="svg8814"
   height="359.62863"
   width="400.82446"
   version="1.1"
   inkscape:version="0.48.4 r9939"
   sodipodi:docname="flo.svg"
   inkscape:export-filename="/home/aaron/sites-programs/snowdrift/static/img/intro/flo.png"
   inkscape:export-xdpi="80.159775"
   inkscape:export-ydpi="80.159775">
  <sodipodi:namedview
     pagecolor="#ffffff"
     bordercolor="#666666"
     borderopacity="1"
     objecttolerance="10"
     gridtolerance="10"
     guidetolerance="10"
     inkscape:pageopacity="0"
     inkscape:pageshadow="2"
     inkscape:window-width="959"
     inkscape:window-height="749"
     id="namedview172"
     showgrid="false"
     fit-margin-top="8"
     fit-margin-left="8"
     fit-margin-right="8"
     fit-margin-bottom="8"
     inkscape:zoom="0.76"
     inkscape:cx="243.17038"
     inkscape:cy="219.13941"
     inkscape:window-x="0"
     inkscape:window-y="38"
     inkscape:window-maximized="0"
     inkscape:current-layer="svg8814" />
  <defs
     id="defs8816">
    <radialGradient
       id="radialGradient16536-8"
       gradientUnits="userSpaceOnUse"
       cy="35.737"
       cx="33.966999"
       gradientTransform="scale(0.960493,1.041132)"
       r="86.708">
      <stop
         id="stop260-1"
         stop-color="#fafafa"
         offset="0" />
      <stop
         id="stop261-8"
         stop-color="#BBB"
         offset="1" />
    </radialGradient>
    <radialGradient
       id="radialGradient16538-6"
       gradientUnits="userSpaceOnUse"
       cy="3.7560999"
       cx="8.8243999"
       gradientTransform="matrix(0.968273,0,0,1.032767,3.353553,0.646447)"
       r="37.751999">
      <stop
         id="stop270-9"
         stop-color="#a3a3a3"
         offset="0" />
      <stop
         id="stop271-2"
         stop-color="#4c4c4c"
         offset="1" />
    </radialGradient>
    <radialGradient
       id="radialGradient16540-7"
       gradientUnits="userSpaceOnUse"
       cy="7.2679"
       cx="8.1436005"
       gradientTransform="matrix(0.968273,0,0,1.032767,3.353553,0.646447)"
       r="38.159">
      <stop
         id="stop15664-6"
         stop-color="#FFF"
         offset="0" />
      <stop
         id="stop15666-2"
         stop-color="#f8f8f8"
         offset="1" />
    </radialGradient>
    <radialGradient
       id="radialGradient16542-3"
       gradientUnits="userSpaceOnUse"
       cy="114.57"
       cx="20.892"
       gradientTransform="matrix(0.229703,0,0,0.229703,4.613529,3.979808)"
       r="5.256">
      <stop
         id="stop15566-6"
         stop-color="#f0f0f0"
         offset="0" />
      <stop
         id="stop15568-0"
         stop-color="#9a9a9a"
         offset="1" />
    </radialGradient>
    <radialGradient
       id="radialGradient16544-8"
       gradientUnits="userSpaceOnUse"
       cy="64.568001"
       cx="20.892"
       gradientTransform="matrix(0.229703,0,0,0.229703,4.613529,3.979808)"
       r="5.257">
      <stop
         id="stop15573-0"
         stop-color="#f0f0f0"
         offset="0" />
      <stop
         id="stop15575-1"
         stop-color="#9a9a9a"
         offset="1" />
    </radialGradient>
    <radialGradient
       id="radialGradient16546-8"
       gradientUnits="userSpaceOnUse"
       cy="41.636002"
       cx="24.218"
       gradientTransform="matrix(1,0,0,0.184,0,33.97501)"
       r="22.097">
      <stop
         id="stop12131-8"
         stop-color="#000"
         offset="0" />
      <stop
         id="stop12133-2"
         stop-color="#000"
         stop-opacity="0"
         offset="1" />
    </radialGradient>
    <linearGradient
       id="linearGradient16548-0"
       x1="12.487"
       gradientUnits="userSpaceOnUse"
       y1="3.7319"
       gradientTransform="matrix(1.2555226,0,0,0.97664965,-3.2165457,4.2018909)"
       x2="31.080999"
       y2="36.033001">
      <stop
         id="stop16177-7"
         stop-color="#d2d2d2"
         offset="0" />
      <stop
         id="stop16179-8"
         stop-color="#ededed"
         offset="1" />
    </linearGradient>
    <linearGradient
       id="linearGradient16550-0"
       x1="21.877001"
       gradientUnits="userSpaceOnUse"
       y1="30.341"
       gradientTransform="matrix(1.110455,0,0,1.118244,-0.223961,1.61786)"
       x2="21.917"
       y2="22.577">
      <stop
         id="stop16184-0"
         stop-color="#5e4f07"
         offset="0" />
      <stop
         id="stop16186-9"
         stop-color="#348a31"
         offset="1" />
    </linearGradient>
    <linearGradient
       id="linearGradient16552-2"
       x1="21.933001"
       gradientUnits="userSpaceOnUse"
       y1="24.627001"
       gradientTransform="matrix(1.098989,0,0,1.106697,0.02774881,1.968146)"
       x2="21.933001"
       y2="7.1090999">
      <stop
         id="stop16199-6"
         stop-color="#d0d6e5"
         offset="0" />
      <stop
         id="stop16201-7"
         stop-color="#093a80"
         offset="1" />
    </linearGradient>
    <linearGradient
       id="linearGradient16554-0"
       y2="27.351999"
       gradientUnits="userSpaceOnUse"
       y1="20.226999"
       x2="27.238001"
       x1="27.309">
      <stop
         id="stop2394-3"
         stop-color="#715b26"
         offset="0" />
      <stop
         id="stop2396-9"
         stop-color="#312710"
         offset="1" />
    </linearGradient>
    <filter
       id="filter4593-6"
       color-interpolation-filters="sRGB">
      <feGaussianBlur
         id="feGaussianBlur4595-4"
         stdDeviation="4.048535" />
    </filter>
  </defs>
  <metadata
     id="metadata8819">
    <rdf:RDF>
      <cc:Work
         rdf:about="">
        <dc:format>image/svg+xml</dc:format>
        <dc:type
           rdf:resource="http://purl.org/dc/dcmitype/StillImage" />
        <dc:title></dc:title>
      </cc:Work>
    </rdf:RDF>
  </metadata>
  <g
     id="layer1"
     transform="translate(-647.59255,-565.00583)">
    <g
       id="g15962"
       transform="translate(51.575805,4198.15)">
      <g
         id="g10074"
         transform="matrix(0.99998468,-0.00553645,0.00553645,0.99998468,30.852787,22.328429)">
        <path
           id="path7756"
           d="m 698.81,-3448.6 -47.92921,11.1831 0.21875,0.9687 47.92921,-11.1831 -0.21875,-0.9688 z"
           style="text-indent:0;text-align:start;text-transform:none;direction:ltr;block-progression:tb;baseline-shift:baseline;color:#000000;fill:#000000;enable-background:accumulate"
           inkscape:connector-curvature="0"
           sodipodi:nodetypes="cccccc" />
        <path
           id="path10080"
           d="m 656.13205,-3432.3993 -15.3791,-1.8853 12.93732,-8.5272 c -1.54081,3.6044 -0.54135,7.8067 2.44251,10.4125 z"
           inkscape:connector-curvature="0"
           style="fill-rule:evenodd;stroke-width:0.625;stroke-linejoin:round" />
        <path
           id="path10082"
           d="m 686.17965,-3450.9097 15.3791,1.8853 -12.93732,8.5272 c 1.54081,-3.6044 0.54135,-7.8067 -2.44251,-10.4125 z"
           inkscape:connector-curvature="0"
           style="fill-rule:evenodd;stroke-width:0.625;stroke-linejoin:round" />
      </g>
      <g
         id="g10092"
         transform="translate(-17.245763,17.245763)">
        <path
           id="path8318"
           d="m 938.62,-3584.4 -67.781,36.562 0.46875,0.875 67.812,-36.562 -0.5,-0.875 z"
           style="text-indent:0;text-align:start;text-transform:none;direction:ltr;block-progression:tb;baseline-shift:baseline;color:#000000;fill:#000000;enable-background:accumulate"
           inkscape:connector-curvature="0" />
        <path
           id="path10098"
           d="m 926.02906,-3583.4266 15.33796,-2.1931 -10.26358,11.6075 c 0.54697,-3.8814 -1.51444,-7.6775 -5.07486,-9.4144 z"
           inkscape:connector-curvature="0"
           style="fill-rule:evenodd;stroke-width:0.625;stroke-linejoin:round" />
      </g>
      <g
         id="g10100"
         transform="matrix(0.92978258,-0.36810917,0.36810917,0.92978258,1354.4317,16.88781)">
        <path
           id="path8320"
           d="m 688.19,-3567.9 -0.75,0.6875 33.344,37.031 0.75,-0.6562 -33.344,-37.062 z"
           style="text-indent:0;text-align:start;text-transform:none;direction:ltr;block-progression:tb;baseline-shift:baseline;color:#000000;fill:#000000;enable-background:accumulate"
           inkscape:connector-curvature="0" />
        <path
           id="path10106"
           d="m 691.78539,-3555.6036 -5.75343,-14.3869 13.70325,7.232 c -3.90092,0.3851 -7.1027,3.2848 -7.9497,7.1546 z"
           inkscape:connector-curvature="0"
           style="fill-rule:evenodd;stroke-width:0.625;stroke-linejoin:round" />
        <path
           id="path10108"
           d="m 717.18461,-3542.5964 5.75343,14.3869 -13.70325,-7.232 c 3.90092,-0.3851 7.1027,-3.2848 7.9497,-7.1546 z"
           inkscape:connector-curvature="0"
           style="fill-rule:evenodd;stroke-width:0.625;stroke-linejoin:round" />
      </g>
      <g
         id="g10084"
         transform="translate(36.842105,-12.030075)">
        <path
           id="path8322"
           d="m 901.97,-3457.9 -72.91919,5.0387 0.0312,1 72.91919,-5.0387 z"
           style="text-indent:0;text-align:start;text-transform:none;direction:ltr;block-progression:tb;baseline-shift:baseline;color:#000000;fill:#000000;enable-background:accumulate"
           inkscape:connector-curvature="0"
           sodipodi:nodetypes="ccccc" />
        <path
           id="path10090"
           d="m 889.81768,-3462.2271 14.77773,4.6565 -14.27437,6.0269 c 2.17195,-3.2633 1.955,-7.5775 -0.50389,-10.6834 z"
           inkscape:connector-curvature="0"
           style="fill-rule:evenodd;stroke-width:0.625;stroke-linejoin:round" />
      </g>
      <g
         id="g9946"
         transform="matrix(1.28742,0,0,1.28742,682.46852,913.10963)"
         style="fill:none;stroke:#000000;stroke-width:1.47520232px;stroke-linecap:butt;stroke-linejoin:miter">
        <path
           id="path9948"
           d="m -26.20945,-3496.1 c -5.4227,-3.8787 -10.056,5.5908 -8.9353,10.623 1.1077,4.9753 5.584,9.581 8.742,9.9921 4.6182,0.6012 11.015,-5.309 10.055,-11.864 -0.67365,-4.598 -1.292138,-5.9982 -3.147497,-7.9222 -3.96798,-3.0643 -9.503003,-0.5756 -13.770603,1.1312"
           inkscape:connector-curvature="0"
           sodipodi:nodetypes="ccsccc" />
        <path
           id="path9950"
           d="m -26.556,-3475.9 c 1.3647,15.986 -0.9444,19.932 -0.9444,31.159"
           inkscape:connector-curvature="0" />
        <path
           id="path9952"
           d="m -26.428,-3471.2 c 3.668,5.5714 18.474,10.065 19.281,15.272"
           inkscape:connector-curvature="0" />
        <path
           id="path9954"
           d="m -25.830039,-3471.5228 c -2.613588,5.8165 -10.558911,15.6271 -13.44308,21.6071"
           inkscape:connector-curvature="0"
           style="stroke-width:1.47520232"
           sodipodi:nodetypes="cc" />
        <path
           id="path9956"
           d="m -27.303,-3445.4 c 3.9825,12.321 5.1514,16.592 7.2456,26.247"
           inkscape:connector-curvature="0" />
        <path
           id="path9958"
           d="m -27.457,-3445.1 c -2.9354,11.274 -6.5758,19.433 -8.1465,25.947"
           inkscape:connector-curvature="0" />
      </g>
      <g
         id="g10218"
         transform="matrix(1.28742,0,0,1.28742,661.96043,1068.2174)"
         style="fill:none;stroke:#000000;stroke-width:1.47520232px;stroke-linecap:butt;stroke-linejoin:miter">
        <path
           id="path10220"
           d="m -25.355,-3496.1 c 5.4227,-3.8787 10.056,5.5908 8.9353,10.623 -1.1077,4.9753 -5.584,9.581 -8.742,9.9921 -4.6182,0.6012 -11.015,-5.309 -10.055,-11.864 0.67365,-4.598 2.9177,-6.8191 5.9411,-7.575 4.6785,-1.1696 6.7094,-0.9228 10.977,0.784"
           inkscape:connector-curvature="0" />
        <path
           id="path10222"
           d="m -26.556,-3475.9 c 1.3647,15.986 -0.9444,19.932 -0.9444,31.159"
           inkscape:connector-curvature="0" />
        <path
           id="path10224"
           d="m -26.428,-3471.2 c 3.668,5.5714 18.474,10.065 19.281,15.272"
           inkscape:connector-curvature="0" />
        <path
           id="path10226"
           d="m -26.991,-3470.1 c -3.9498,5.0062 -13.027,8.5391 -17.279,13.638"
           inkscape:connector-curvature="0" />
        <path
           id="path10228"
           d="m -27.303,-3445.4 c 3.9825,12.321 5.1514,16.592 7.2456,26.247"
           inkscape:connector-curvature="0" />
        <path
           id="path10230"
           d="m -27.457,-3445.1 c -2.9354,11.274 -6.5758,19.433 -8.1465,25.947"
           inkscape:connector-curvature="0" />
      </g>
      <g
         id="g10261"
         transform="matrix(-1.28742,0,0,1.28742,909.39207,1119.4208)"
         style="fill:none;stroke:#000000;stroke-width:1.47520232px;stroke-linecap:butt;stroke-linejoin:miter">
        <path
           id="path10263"
           d="m -25.355,-3496.1 c 5.4227,-3.8787 10.056,5.5908 8.9353,10.623 -1.1077,4.9753 -5.584,9.581 -8.742,9.9921 -4.6182,0.6012 -11.015,-5.309 -10.055,-11.864 0.67365,-4.598 2.9177,-6.8191 5.9411,-7.575 4.6785,-1.1696 6.7094,-0.9228 10.977,0.784"
           inkscape:connector-curvature="0" />
        <path
           id="path10265"
           d="m -26.556,-3475.9 c 1.3647,15.986 -0.9444,19.932 -0.9444,31.159"
           inkscape:connector-curvature="0" />
        <path
           id="path10267"
           d="m -26.428,-3471.2 c 3.668,5.5714 10.43664,14.0837 11.24364,19.2907"
           inkscape:connector-curvature="0"
           sodipodi:nodetypes="cc" />
        <path
           id="path10269"
           d="m -26.991,-3470.1 c -3.9498,5.0062 -9.00832,19.2556 -13.26032,24.3545"
           inkscape:connector-curvature="0"
           sodipodi:nodetypes="cc" />
        <path
           id="path10271"
           d="m -27.303,-3445.4 c 3.9825,12.321 5.1514,16.592 7.2456,26.247"
           inkscape:connector-curvature="0" />
        <path
           id="path10273"
           d="m -27.457,-3445.1 c -2.9354,11.274 -6.5758,19.433 -8.1465,25.947"
           inkscape:connector-curvature="0" />
      </g>
      <g
         id="g10695"
         transform="matrix(-1.28742,0,0,1.28742,930.89751,1003.021)"
         style="fill:none;stroke:#000000;stroke-width:1.47520232px;stroke-linecap:butt;stroke-linejoin:miter">
        <path
           id="path10697"
           d="m -26.21,-3496.1 c -5.4227,-3.8787 -10.056,5.5908 -8.9353,10.623 1.1077,4.9753 5.584,9.581 8.742,9.9921 4.6182,0.6012 11.015,-5.309 10.055,-11.864 -0.67365,-4.598 -2.9177,-6.8191 -5.9411,-7.575 -4.6785,-1.1696 -6.7094,-0.9228 -10.977,0.784"
           inkscape:connector-curvature="0" />
        <path
           id="path10699"
           d="m -26.556,-3475.9 c 1.3647,15.986 -0.9444,19.932 -0.9444,31.159"
           inkscape:connector-curvature="0" />
        <path
           id="path10701"
           d="m -26.428,-3471.2 c 3.668,5.5714 18.474,10.065 19.281,15.272"
           inkscape:connector-curvature="0" />
        <path
           id="path10703"
           d="m -26.991,-3470.1 c -3.9498,5.0062 -13.027,8.5391 -17.279,13.638"
           inkscape:connector-curvature="0" />
        <path
           id="path10705"
           d="m -27.303,-3445.4 c 3.9825,12.321 5.1514,16.592 7.2456,26.247"
           inkscape:connector-curvature="0" />
        <path
           id="path10707"
           d="m -27.457,-3445.1 c -2.9354,11.274 -6.5758,19.433 -8.1465,25.947"
           inkscape:connector-curvature="0" />
      </g>
      <g
         id="g10709"
         transform="matrix(-1.28742,0,0,1.28742,929.00151,877.92574)"
         style="fill:none;stroke:#000000;stroke-width:1.47520232px;stroke-linecap:butt;stroke-linejoin:miter">
        <path
           id="path10711"
           d="m -25.355,-3496.1 c 5.4227,-3.8787 10.056,5.5908 8.9353,10.623 -1.1077,4.9753 -5.584,9.581 -8.742,9.9921 -4.6182,0.6012 -11.015,-5.309 -10.055,-11.864 1.7186,-11.322 10.287,-10.01 13.41,-8.7955"
           inkscape:connector-curvature="0" />
        <path
           id="path10713"
           d="m -26.556,-3475.9 c 1.3647,15.986 -0.9444,19.932 -0.9444,31.159"
           inkscape:connector-curvature="0" />
        <path
           id="path10715"
           d="m -26.428,-3471.2 c 3.668,5.5714 14.45532,14.0837 15.26232,19.2907"
           inkscape:connector-curvature="0"
           sodipodi:nodetypes="cc" />
        <path
           id="path10717"
           d="m -26.991,-3470.1 c -3.9498,5.0062 -13.027,8.5391 -17.279,13.638"
           inkscape:connector-curvature="0" />
        <path
           id="path10719"
           d="m -27.303,-3445.4 c 3.9825,12.321 5.1514,16.592 7.2456,26.247"
           inkscape:connector-curvature="0" />
        <path
           id="path10721"
           d="m -27.457,-3445.1 c -2.9354,11.274 -6.5758,19.433 -8.1465,25.947"
           inkscape:connector-curvature="0" />
      </g>
      <g
         id="g3149"
         transform="matrix(1,0,0,-1,-24.144067,-6943.5966)">
        <path
           style="text-indent:0;text-align:start;text-transform:none;direction:ltr;block-progression:tb;baseline-shift:baseline;color:#000000;fill:#000000;enable-background:accumulate"
           d="m 938.62,-3584.4 -67.781,36.562 0.46875,0.875 67.812,-36.562 -0.5,-0.875 z"
           id="path3151"
           inkscape:connector-curvature="0" />
        <path
           d="m 926.02906,-3583.4266 15.33796,-2.1931 -10.26358,11.6075 c 0.54697,-3.8814 -1.51444,-7.6775 -5.07486,-9.4144 z"
           id="path3153"
           inkscape:connector-curvature="0"
           style="fill-rule:evenodd;stroke-width:0.625;stroke-linejoin:round" />
      </g>
    </g>
  </g>
  <g
     id="layer1-2"
     transform="matrix(0.75428715,0,0,0.75428715,-93.320364,-218.93113)">
    <g
       id="g16468"
       transform="translate(238.83797,4511.5632)">
      <g
         id="g6118"
         transform="translate(-58.463363,-2322.9493)">
        <g
           id="text3254"
           style="font-size:24px;font-style:normal;font-variant:normal;font-weight:normal;font-stretch:normal;line-height:125%;letter-spacing:0px;word-spacing:0px;fill:#000000;font-family:Monospace"
           line-height="125%"
           font-size="24px"
           font-style="normal"
           font-stretch="normal"
           font-variant="normal"
           font-weight="normal">
          <path
             id="path6683"
             d="m 135.56,-1710 c -1.7891,0 -3.1445,-0.7539 -4.0664,-2.2617 -0.92188,-1.5156 -1.3828,-3.7031 -1.3828,-6.5625 0,-5.875 1.8164,-8.8125 5.4492,-8.8125 1.8125,0 3.1797,0.7579 4.1016,2.2735 0.92967,1.5078 1.3945,3.6875 1.3945,6.539 -10e-6,5.8828 -1.832,8.8242 -5.4961,8.8242 m 0,-1.8164 c 1.1484,0 1.9922,-0.5468 2.5312,-1.6406 0.53905,-1.1015 0.80858,-2.8906 0.80859,-5.3672 -1e-5,-2.4609 -0.26954,-4.2382 -0.80859,-5.332 -0.53908,-1.1016 -1.3828,-1.6523 -2.5312,-1.6524 -1.1328,10e-5 -1.9648,0.5469 -2.4961,1.6407 -0.52344,1.0859 -0.78516,2.8672 -0.78515,5.3437 -1e-5,2.4844 0.26171,4.2735 0.78515,5.3672 0.53125,1.0938 1.3633,1.6406 2.4961,1.6406"
             inkscape:connector-curvature="0" />
          <path
             id="path6685"
             d="m 151.66,-1710.2 -2.0625,0 0,-10.699 c -1e-5,-0.9531 0.0312,-2.3632 0.0937,-4.2304 -0.3047,0.3359 -0.77735,0.7773 -1.418,1.3242 l -1.7227,1.418 -1.1367,-1.4414 4.4883,-3.5039 h 1.7578 v 17.133"
             inkscape:connector-curvature="0" />
          <path
             id="path6687"
             d="m 164.34,-1710 c -1.7891,0 -3.1445,-0.7539 -4.0664,-2.2617 -0.92188,-1.5156 -1.3828,-3.7031 -1.3828,-6.5625 0,-5.875 1.8164,-8.8125 5.4492,-8.8125 1.8125,0 3.1797,0.7579 4.1016,2.2735 0.92967,1.5078 1.3945,3.6875 1.3945,6.539 -10e-6,5.8828 -1.832,8.8242 -5.4961,8.8242 m 0,-1.8164 c 1.1484,0 1.9922,-0.5468 2.5312,-1.6406 0.53905,-1.1015 0.80858,-2.8906 0.80859,-5.3672 -1e-5,-2.4609 -0.26954,-4.2382 -0.80859,-5.332 -0.53908,-1.1016 -1.3828,-1.6523 -2.5312,-1.6524 -1.1328,10e-5 -1.9648,0.5469 -2.4961,1.6407 -0.52344,1.0859 -0.78516,2.8672 -0.78515,5.3437 -1e-5,2.4844 0.26171,4.2735 0.78515,5.3672 0.53125,1.0938 1.3633,1.6406 2.4961,1.6406"
             inkscape:connector-curvature="0" />
          <path
             id="path6689"
             d="m 178.73,-1710 c -1.7891,0 -3.1445,-0.7539 -4.0664,-2.2617 -0.92187,-1.5156 -1.3828,-3.7031 -1.3828,-6.5625 0,-5.875 1.8164,-8.8125 5.4492,-8.8125 1.8125,0 3.1797,0.7579 4.1016,2.2735 0.92968,1.5078 1.3945,3.6875 1.3945,6.539 -1e-5,5.8828 -1.832,8.8242 -5.4961,8.8242 m 0,-1.8164 c 1.1484,0 1.9922,-0.5468 2.5312,-1.6406 0.53905,-1.1015 0.80858,-2.8906 0.80859,-5.3672 -1e-5,-2.4609 -0.26954,-4.2382 -0.80859,-5.332 -0.53907,-1.1016 -1.3828,-1.6523 -2.5312,-1.6524 -1.1328,10e-5 -1.9648,0.5469 -2.4961,1.6407 -0.52344,1.0859 -0.78516,2.8672 -0.78516,5.3437 0,2.4844 0.26172,4.2735 0.78516,5.3672 0.53124,1.0938 1.3633,1.6406 2.4961,1.6406"
             inkscape:connector-curvature="0" />
          <path
             id="path6691"
             d="m 194.83,-1710.2 -2.0625,0 0,-10.699 c 0,-0.9531 0.0312,-2.3632 0.0937,-4.2304 -0.30469,0.3359 -0.77735,0.7773 -1.418,1.3242 l -1.7226,1.418 -1.1367,-1.4414 4.4883,-3.5039 h 1.7578 v 17.133"
             inkscape:connector-curvature="0" />
          <path
             id="path6693"
             d="m 207.51,-1710 c -1.7891,0 -3.1445,-0.7539 -4.0664,-2.2617 -0.92187,-1.5156 -1.3828,-3.7031 -1.3828,-6.5625 0,-5.875 1.8164,-8.8125 5.4492,-8.8125 1.8125,0 3.1797,0.7579 4.1016,2.2735 0.92968,1.5078 1.3945,3.6875 1.3945,6.539 -1e-5,5.8828 -1.832,8.8242 -5.4961,8.8242 m 0,-1.8164 c 1.1484,0 1.9922,-0.5468 2.5312,-1.6406 0.53905,-1.1015 0.80858,-2.8906 0.80859,-5.3672 -1e-5,-2.4609 -0.26954,-4.2382 -0.80859,-5.332 -0.53907,-1.1016 -1.3828,-1.6523 -2.5312,-1.6524 -1.1328,10e-5 -1.9648,0.5469 -2.4961,1.6407 -0.52344,1.0859 -0.78516,2.8672 -0.78516,5.3437 0,2.4844 0.26172,4.2735 0.78516,5.3672 0.53124,1.0938 1.3633,1.6406 2.4961,1.6406"
             inkscape:connector-curvature="0" />
          <path
             id="path6695"
             d="m 223.61,-1710.2 -2.0625,0 0,-10.699 c 0,-0.9531 0.0312,-2.3632 0.0937,-4.2304 -0.30469,0.3359 -0.77735,0.7773 -1.418,1.3242 l -1.7226,1.418 -1.1367,-1.4414 4.4883,-3.5039 h 1.7578 v 17.133"
             inkscape:connector-curvature="0" />
          <path
             id="path6697"
             d="m 238,-1710.2 -2.0625,0 0,-10.699 c -1e-5,-0.9531 0.0312,-2.3632 0.0937,-4.2304 -0.3047,0.3359 -0.77735,0.7773 -1.418,1.3242 l -1.7227,1.418 -1.1367,-1.4414 4.4883,-3.5039 h 1.7578 v 17.133"
             inkscape:connector-curvature="0" />
          <path
             id="path6699"
             d="m 250.68,-1710 c -1.7891,0 -3.1445,-0.7539 -4.0664,-2.2617 -0.92188,-1.5156 -1.3828,-3.7031 -1.3828,-6.5625 0,-5.875 1.8164,-8.8125 5.4492,-8.8125 1.8125,0 3.1797,0.7579 4.1016,2.2735 0.92967,1.5078 1.3945,3.6875 1.3945,6.539 -1e-5,5.8828 -1.832,8.8242 -5.4961,8.8242 m 0,-1.8164 c 1.1484,0 1.9922,-0.5468 2.5312,-1.6406 0.53905,-1.1015 0.80858,-2.8906 0.80859,-5.3672 -1e-5,-2.4609 -0.26954,-4.2382 -0.80859,-5.332 -0.53908,-1.1016 -1.3828,-1.6523 -2.5312,-1.6524 -1.1328,10e-5 -1.9648,0.5469 -2.4961,1.6407 -0.52344,1.0859 -0.78516,2.8672 -0.78515,5.3437 -1e-5,2.4844 0.26171,4.2735 0.78515,5.3672 0.53125,1.0938 1.3633,1.6406 2.4961,1.6406"
             inkscape:connector-curvature="0" />
        </g>
        <g
           id="g2992"
           transform="matrix(0.19008903,0,0,0.19008903,148.85122,-1700.8349)">
          <path
             id="path2796"
             d="m 226.86,138.73 92.58,-12 v 88.12 c -8.65,-2.05 -21.03,-2.05 -30.52,5.89 -19.01,15.9 -2.33,33.78 19.43,24.91 12.38,-5.05 16.51,-13.15 16.51,-25.38 V 110.73 l -103.42,12 v 109.73 c -8.65,-2.05 -21.03,-2.04 -30.52,5.9 -19.01,15.9 -2.33,33.78 19.43,24.91 12.38,-5.05 16.51,-13.16 16.51,-25.39 v -99.15 z"
             inkscape:connector-curvature="0" />
          <path
             id="path2810"
             d="M 8.5,87.5 H 389.62"
             inkscape:connector-curvature="0"
             style="fill:none;stroke:#000000;stroke-width:3.75" />
          <use
             id="use2812"
             xlink:href="#path2810"
             transform="translate(0,36.03)"
             height="300"
             width="400"
             y="0"
             x="0" />
          <use
             id="use2814"
             xlink:href="#path2810"
             transform="translate(0,72.061)"
             height="300"
             width="400"
             y="0"
             x="0" />
          <use
             id="use2816"
             xlink:href="#path2810"
             transform="translate(0,108.09)"
             height="300"
             width="400"
             y="0"
             x="0" />
          <use
             id="use2818"
             xlink:href="#path2810"
             transform="translate(0,144.12)"
             height="300"
             width="400"
             y="0"
             x="0" />
          <path
             id="path2820"
             d="m 389.62,89.289 v 140.46"
             inkscape:connector-curvature="0"
             style="fill:none;stroke:#000000;stroke-width:7.5;stroke-linecap:square" />
          <path
             id="path1981"
             d="m 69.5,269 c 40,-31.26 -37.238,-44.91 -13.5,3 5.182,10.46 55.5,36.51 55.5,-40 0,-57.5 -35,-130.5 -35,-159.5 0,-29 23,-44.5 23,-6 C 99.5,105 43,138 43,178 c 0,66.03 90.5,67.03 90.5,18 0,-45.5 -42.327,-46.9 -56,-35.5 -19.514,16.27 -12.443,47.9 10.5,50 -33.656,-43.11 31.7,-54.41 36,-18 4.73,40.03 -69.5,41.16 -69.5,-7.5 0,-38.5 61.27,-77.6 58.5,-115.5 -4,-54.691 -39.861,-71.599 -44,-5 -2.91,46.32 34.83,105.02 36.5,170.5 1.07,41.81 -30.318,52.85 -36,34 z"
             inkscape:connector-curvature="0" />
        </g>
        <g
           id="g3195"
           transform="translate(190.77607,-1633.047)">
          <g
             id="g3049">
            <rect
               id="rect15391"
               style="color:#000000;fill:url(#radialGradient16536-8);fill-rule:nonzero;stroke:url(#radialGradient16538-6);stroke-width:1;stroke-linecap:round;stroke-linejoin:round;stroke-miterlimit:4;stroke-dashoffset:0;display:block"
               display="block"
               ry="1.149"
               height="40.919998"
               width="34.875"
               stroke-miterlimit="4"
               y="3.6464"
               x="6.6036" />
            <rect
               id="rect15660"
               style="color:#000000;fill:none;stroke:url(#radialGradient16540-7);stroke-width:1;stroke-linecap:round;stroke-linejoin:round;stroke-miterlimit:4;stroke-dashoffset:0;display:block"
               display="block"
               rx="0.14905"
               ry="0.14905"
               height="38.945999"
               width="32.776001"
               stroke-miterlimit="4"
               y="4.5839"
               x="7.6661" />
            <g
               id="g2270"
               transform="translate(0.646447,-0.03798933)"
               style="fill-rule:nonzero">
              <g
                 id="g1440"
                 transform="matrix(0.229703,0,0,0.229703,4.967081,4.244972)"
                 stroke-miterlimit="4"
                 style="fill:#ffffff;stroke:#000000;stroke-miterlimit:4">
                <path
                   id="path1448"
                   d="m 23.428,113.07 c 0,1.973 -1.6,3.572 -3.573,3.572 -1.974,0 -3.573,-1.6 -3.573,-3.572 0,-1.974 1.6,-3.573 3.573,-3.573 1.973,0 3.573,1.6 3.573,3.573 z"
                   inkscape:connector-curvature="0" />
                <path
                   id="path1456"
                   d="m 23.428,63.07 c 0,1.973 -1.6,3.573 -3.573,3.573 -1.974,0 -3.573,-1.6 -3.573,-3.573 0,-1.974 1.6,-3.573 3.573,-3.573 1.973,0 3.573,1.6 3.573,3.573 z"
                   inkscape:connector-curvature="0" />
              </g>
              <path
                 id="path15570"
                 d="m 9.995,29.952 c 0,0.4532 -0.36752,0.8205 -0.82073,0.8205 -0.45343,0 -0.82073,-0.36752 -0.82073,-0.8205 0,-0.45343 0.36752,-0.82073 0.82073,-0.82073 0.4532,0 0.82073,0.36752 0.82073,0.82073 z"
                 inkscape:connector-curvature="0"
                 style="fill:url(#radialGradient16542-3)" />
              <path
                 id="path15577"
                 d="m 9.995,18.467 c 0,0.4532 -0.36752,0.82073 -0.82073,0.82073 -0.45343,0 -0.82073,-0.36752 -0.82073,-0.82073 0,-0.45343 0.36752,-0.82073 0.82073,-0.82073 0.4532,0 0.82073,0.36752 0.82073,0.82073 z"
                 inkscape:connector-curvature="0"
                 style="fill:url(#radialGradient16544-8)" />
            </g>
            <path
               id="path15672"
               d="m 11.506,5.4943 0,37.907"
               stroke-miterlimit="4"
               inkscape:connector-curvature="0"
               style="fill:none;stroke:#000000;stroke-width:0.98855311;stroke-linecap:butt;stroke-linejoin:miter;stroke-miterlimit:4;stroke-opacity:0.01754384" />
            <path
               id="path15674"
               d="m 12.5,5.0205 0,38.018"
               stroke-miterlimit="4"
               inkscape:connector-curvature="0"
               style="fill:none;stroke:#ffffff;stroke-width:1;stroke-linecap:butt;stroke-linejoin:miter;stroke-miterlimit:4;stroke-opacity:0.20467834" />
          </g>
          <g
             id="g3161">
            <g
               id="g2253"
               transform="matrix(0.909091,0,0,1,2.363628,0)"
               style="fill:#9b9b9b;fill-opacity:0.54970757;fill-rule:nonzero">
              <rect
                 id="rect15686"
                 style="color:#000000;display:block"
                 display="block"
                 rx="0.15155999"
                 ry="0.065390997"
                 height="1"
                 width="22"
                 y="9"
                 x="15" />
              <rect
                 id="rect15688"
                 style="color:#000000;display:block"
                 display="block"
                 rx="0.15155999"
                 ry="0.065390997"
                 height="1"
                 width="22"
                 y="11"
                 x="15" />
              <rect
                 id="rect15690"
                 style="color:#000000;display:block"
                 display="block"
                 rx="0.15155999"
                 ry="0.065390997"
                 height="1"
                 width="22"
                 y="13"
                 x="15" />
              <rect
                 id="rect15692"
                 style="color:#000000;display:block"
                 display="block"
                 rx="0.15155999"
                 ry="0.065390997"
                 height="1"
                 width="22"
                 y="15"
                 x="15" />
              <rect
                 id="rect15694"
                 style="color:#000000;display:block"
                 display="block"
                 rx="0.15155999"
                 ry="0.065390997"
                 height="1"
                 width="22"
                 y="17"
                 x="15" />
              <rect
                 id="rect15696"
                 style="color:#000000;display:block"
                 display="block"
                 rx="0.15155999"
                 ry="0.065390997"
                 height="1"
                 width="22"
                 y="19"
                 x="15" />
              <rect
                 id="rect15698"
                 style="color:#000000;display:block"
                 display="block"
                 rx="0.15155999"
                 ry="0.065390997"
                 height="1"
                 width="22"
                 y="21"
                 x="15" />
              <rect
                 id="rect15700"
                 style="color:#000000;display:block"
                 display="block"
                 rx="0.15155999"
                 ry="0.065390997"
                 height="1"
                 width="22"
                 y="23"
                 x="15" />
              <rect
                 id="rect15732"
                 style="color:#000000;display:block"
                 display="block"
                 rx="0.068204001"
                 ry="0.065390997"
                 height="1"
                 width="9.8999996"
                 y="25"
                 x="15" />
              <rect
                 id="rect15736"
                 style="color:#000000;display:block"
                 display="block"
                 rx="0.15155999"
                 ry="0.065390997"
                 height="1"
                 width="22"
                 y="29"
                 x="15" />
              <rect
                 id="rect15738"
                 style="color:#000000;display:block"
                 display="block"
                 rx="0.15155999"
                 ry="0.065390997"
                 height="1"
                 width="22"
                 y="31"
                 x="15" />
              <rect
                 id="rect15740"
                 style="color:#000000;display:block"
                 display="block"
                 rx="0.15155999"
                 ry="0.065390997"
                 height="1"
                 width="22"
                 y="33"
                 x="15" />
              <rect
                 id="rect15742"
                 style="color:#000000;display:block"
                 display="block"
                 rx="0.15155999"
                 ry="0.065390997"
                 height="1"
                 width="22"
                 y="35"
                 x="15" />
              <rect
                 id="rect15744"
                 style="color:#000000;display:block"
                 display="block"
                 rx="0.1061"
                 ry="0.065390997"
                 height="1"
                 width="15.4"
                 y="37"
                 x="15" />
            </g>
          </g>
        </g>
        <g
           id="g3018"
           transform="translate(136.88905,-1634.8557)">
          <path
             id="path12127"
             style="opacity:0.52763821;color:#000000;fill:url(#radialGradient16546-8);fill-rule:nonzero;display:block"
             d="m 46.315,41.636 a 22.097,4.0659 0 1 1 -44.194,0 22.097,4.0659 0 1 1 44.194,0 z"
             transform="translate(0.176777,-3.116115)"
             display="block"
             inkscape:connector-curvature="0" />
          <path
             id="path16181"
             d="m 45.874,36.22 c 0,1.5626 -1.6322,2.8323 -3.641,2.8323 H 5.446 c -2.0088,0 -3.641,-1.2696 -3.641,-2.8323 V 9.768 c 0,-1.5626 1.6322,-2.8323 3.641,-2.8323 h 36.787 c 2.0088,0 3.641,1.2696 3.641,2.8323 V 36.22 z"
             stroke-miterlimit="4"
             inkscape:connector-curvature="0"
             style="fill:url(#linearGradient16548-0);fill-rule:nonzero;stroke:#646464;stroke-width:0.91411364;stroke-miterlimit:4;stroke-dasharray:none" />
          <path
             id="path16188"
             d="m 40.419,34.718 -32.536,0 0,-22.253 32.536,0 0,22.253 0,0 z"
             stroke-miterlimit="4"
             inkscape:connector-curvature="0"
             style="fill:url(#linearGradient16550-0);fill-rule:nonzero;stroke:#646464;stroke-width:0.99999923;stroke-miterlimit:4;stroke-dasharray:none" />
          <path
             id="path16203"
             d="m 8.3801,12.924 31.541,0 0,13.391 -31.541,0 0,-13.391 z"
             inkscape:connector-curvature="0"
             style="fill:url(#linearGradient16552-2);fill-rule:nonzero" />
          <g
             id="g16205"
             transform="matrix(1.110492,0,0,1.118281,-0.224752,1.617147)"
             stroke-miterlimit="4"
             style="fill-rule:nonzero;stroke-width:0;stroke-miterlimit:4">
            <g
               id="g16207"
               stroke-miterlimit="4"
               style="stroke-width:0;stroke-miterlimit:4">
              <path
                 id="path16209"
                 d="m 18.4,15.4 c 0,2.2 -1.8,4.1 -4.1,4.1 -2.2,0 -4.1,-1.8 -4.1,-4.1 0,-2.2 1.8,-4.1 4.1,-4.1 2.2,0 4.1,1.8 4.1,4.1 z"
                 inkscape:connector-curvature="0"
                 style="opacity:0.04999994;fill:#e8f52f" />
              <path
                 id="path16211"
                 d="m 18,15.4 c 0,2 -1.6,3.7 -3.7,3.7 -2,0 -3.7,-1.6 -3.7,-3.7 0,-2 1.6,-3.7 3.7,-3.7 2,0 3.7,1.6 3.7,3.7 z"
                 inkscape:connector-curvature="0"
                 style="opacity:0.20829994;fill:#ecf751" />
              <path
                 id="path16213"
                 d="m 17.6,15.4 c 0,1.8 -1.5,3.3 -3.3,3.3 -1.8,0 -3.3,-1.5 -3.3,-3.3 0,-1.8 1.5,-3.3 3.3,-3.3 1.8,0 3.3,1.5 3.3,3.3 z"
                 inkscape:connector-curvature="0"
                 style="opacity:0.3667;fill:#f0f972" />
              <path
                 id="path16215"
                 d="m 17.2,15.4 c 0,1.6 -1.3,2.9 -2.9,2.9 -1.6,0 -2.9,-1.3 -2.9,-2.9 0,-1.6 1.3,-2.9 2.9,-2.9 1.6,0 2.9,1.3 2.9,2.9 z"
                 inkscape:connector-curvature="0"
                 style="opacity:0.525;fill:#f4fa95" />
              <path
                 id="path16217"
                 d="m 16.8,15.4 c 0,1.4 -1.1,2.5 -2.5,2.5 -1.4,0 -2.5,-1.1 -2.5,-2.5 0,-1.4 1.1,-2.5 2.5,-2.5 1.4,0 2.5,1.1 2.5,2.5 z"
                 inkscape:connector-curvature="0"
                 style="opacity:0.6833;fill:#f7fcb7" />
              <path
                 id="path16219"
                 d="m 16.4,15.4 c 0,1.2 -1,2.1 -2.1,2.1 -1.1,0 -2.1,-1 -2.1,-2.1 0,-1.1 1,-2.1 2.1,-2.1 1.1,0 2.1,1 2.1,2.1 z"
                 inkscape:connector-curvature="0"
                 style="opacity:0.8417;fill:#fbfddb" />
              <path
                 id="path16221"
                 d="m 16,15.4 c 0,1 -0.8,1.8 -1.8,1.8 -1,0 -1.8,-0.8 -1.8,-1.8 0,-1 0.8,-1.8 1.8,-1.8 1,0 1.8,0.8 1.8,1.8 z"
                 inkscape:connector-curvature="0"
                 style="fill:#ffffff" />
            </g>
          </g>
          <path
             id="path11975"
             d="m 44.979,35.756 c 0,1.4992 -1.0162,2.4322 -2.9435,2.4322 h -36.3 c -1.9272,0 -3.0351,-0.86176 -3.0351,-2.3609 v -25.654 c 0,-1.4992 1.5659,-2.5747 3.4931,-2.5747 h 35.384 c 1.9272,0 3.4015,1.0756 3.4015,2.5747 v 25.583 z"
             stroke-miterlimit="4"
             inkscape:connector-curvature="0"
             style="fill:none;stroke:#ffffff;stroke-width:0.9141137;stroke-miterlimit:4;stroke-opacity:0.86010359;stroke-dasharray:none" />
          <path
             id="path12125"
             d="m 41.577,35.51 -34.853,0 0,-24.002 34.853,0 0,24.002 0,0 z"
             stroke-miterlimit="4"
             inkscape:connector-curvature="0"
             style="fill:none;stroke:#ffffff;stroke-width:0.99999923;stroke-miterlimit:4;stroke-opacity:0.61658032;stroke-dasharray:none" />
          <path
             id="path2099"
             d="m 8.3085,26.345 31.555,0 0,-3.7123 -3.0936,-2.1213 -2.5633,1.3258 -4.2426,-3.9775 -7.3362,6.9827 -6.2756,-0.44194 -5.3033,1.5026 -1.591,-0.88388 -1.149,1.3258 z"
             inkscape:connector-curvature="0"
             style="fill:url(#linearGradient16554-0);fill-rule:evenodd" />
          <path
             id="path2388"
             d="m 29.988,17.86 -1.4382,1.4382 0.81497,-0.38352 0,0.67115 1.0547,-0.76703 0.28764,0.28764 0,-0.33558 0.67115,0.43146 -1.3902,-1.3423 z"
             inkscape:connector-curvature="0"
             style="fill:#ffffff;fill-rule:evenodd" />
        </g>
      </g>
      <g
         id="g16465">
        <path
           id="path3709"
           d="m 204.34,-4061.2 c 25.617,-1.0701 25.413,53.057 8.7534,68.798 23.775,12.017 5.6574,63.076 -7.0582,62.974 3.7387,16.033 -15.461,56.879 -46.282,32.254 -0.97739,23.865 -88.179,32.441 -84.248,-7.9876 -38.346,-14.114 -29.79,-68.933 -14.624,-79.864 -22.076,-10.931 -15.679,-74.144 12.065,-79.049 -0.78149,-21.194 56.476,-22.89 69.562,-5.3486 13.724,-19.205 64.109,-1.1801 61.475,7.8649"
           stroke-miterlimit="4"
           inkscape:connector-curvature="0"
           style="fill:none;stroke:#a3a8c5;stroke-width:4.40600014;stroke-linecap:round;stroke-linejoin:round;stroke-miterlimit:4;stroke-dasharray:none;filter:url(#filter4593-6)" />
      </g>
    </g>
  </g>
  <path
     id="path10082-6"
     d="m 254.90066,243.37238 -7.08921,-8.86382 11.34783,2.38198 c -2.72975,1.01528 -4.44108,3.63845 -4.25822,6.48224 z"
     inkscape:connector-curvature="0"
     style="fill-rule:evenodd;stroke-width:0.625;stroke-linejoin:round" />
</svg>
