<?xml version="1.0" encoding="UTF-8" standalone="no"?>
<!-- Created with Inkscape (http://www.inkscape.org/) -->
<svg id="svg12760" xmlns:rdf="http://www.w3.org/1999/02/22-rdf-syntax-ns#" xmlns="http://www.w3.org/2000/svg" height="261.39" width="548.38" version="1.1" xmlns:cc="http://creativecommons.org/ns#" xmlns:dc="http://purl.org/dc/elements/1.1/">
 <metadata id="metadata12765">
  <rdf:RDF>
   <cc:Work rdf:about="">
    <dc:format>image/svg+xml</dc:format>
    <dc:type rdf:resource="http://purl.org/dc/dcmitype/StillImage"/>
    <dc:title/>
   </cc:Work>
  </rdf:RDF>
 </metadata>
 <g id="layer1" transform="translate(36.543 -377.09)">
  <g id="g29135" transform="translate(-1751.1 601.58)">
   <g id="g13060">
    <path id="path28893" style="color:#000000;text-indent:0;block-progression:tb;text-transform:none" d="m1718.6 22.375v2.125h534.53v-2.125h-534.53z"/>
    <path id="path13066" stroke-linejoin="round" d="m2230.2 13.912 25.811 9.4913-25.811 9.4913c4.1235-5.6037 4.0998-13.27 0-18.983z" fill-rule="evenodd" stroke-width=".625"/>
   </g>
   <g id="g13068">
    <path id="path29109" style="color:#000000;text-indent:0;block-progression:tb;text-transform:none" d="m2248.5-197.5v117.19h2.125v-117.19h-2.125z"/>
    <path id="path13074" stroke-linejoin="round" d="m2240-174.54 9.4914-25.811 9.4913 25.811c-5.6037-4.1235-13.27-4.0998-18.983-0.00001z" fill-rule="evenodd" stroke-width=".625"/>
   </g>
   <g id="g13044">
    <path id="path29131" style="color:#000000;text-indent:0;block-progression:tb;text-transform:none" d="m1802-51.188v2.1562h48.812v-2.1562h-48.812z"/>
    <path id="path13050" stroke-linejoin="round" d="m1827.8-59.629 25.811 9.4913-25.811 9.4913c4.1235-5.6037 4.0998-13.27 0-18.983z" fill-rule="evenodd" stroke-width=".625"/>
   </g>
   <g id="g38413" transform="matrix(.24498 0 0 .24498 2042.3 -101.83)">
    <path id="path38415" d="m636.63 586.47c-120.8 144.07-335.51 162.93-479.58 42.13-144.06-120.8-162.93-335.51-42.13-479.58s335.51-162.93 479.58-42.13c140.41 117.73 162.44 325.47 49.86 470.03" fill-rule="evenodd" transform="matrix(.17876 0 0 .17011 83.819 -54.587)" stroke="#000" stroke-linecap="square" stroke-width="2" fill="#735d04"/>
   </g>
   <g id="g38417" transform="matrix(.24498 0 0 .24498 2042.3 -136.22)">
    <path id="path38419" d="m636.63 586.47c-120.8 144.07-335.51 162.93-479.58 42.13-144.06-120.8-162.93-335.51-42.13-479.58s335.51-162.93 479.58-42.13c140.41 117.73 162.44 325.47 49.86 470.03" fill-rule="evenodd" transform="matrix(.17876 0 0 .17011 83.819 -54.587)" stroke="#000" stroke-linecap="square" stroke-width="2" fill="#735d04"/>
   </g>
   <g id="g38421" transform="matrix(.24498 0 0 .24498 2083.5 -101.03)">
    <path id="path38423" d="m636.63 586.47c-120.8 144.07-335.51 162.93-479.58 42.13-144.06-120.8-162.93-335.51-42.13-479.58s335.51-162.93 479.58-42.13c140.41 117.73 162.44 325.47 49.86 470.03" fill-rule="evenodd" transform="matrix(.17876 0 0 .17011 83.819 -54.587)" stroke="#000" stroke-linecap="square" stroke-width="2" fill="#735d04"/>
   </g>
   <g id="g38425" transform="matrix(.24498 0 0 .24498 2083.5 -135.42)">
    <path id="path38427" d="m636.63 586.47c-120.8 144.07-335.51 162.93-479.58 42.13-144.06-120.8-162.93-335.51-42.13-479.58s335.51-162.93 479.58-42.13c140.41 117.73 162.44 325.47 49.86 470.03" fill-rule="evenodd" transform="matrix(.17876 0 0 .17011 83.819 -54.587)" stroke="#000" stroke-linecap="square" stroke-width="2" fill="#735d04"/>
   </g>
   <g id="g38429" transform="matrix(.24498 0 0 .24498 2126.3 -101.03)">
    <path id="path38431" d="m636.63 586.47c-120.8 144.07-335.51 162.93-479.58 42.13-144.06-120.8-162.93-335.51-42.13-479.58s335.51-162.93 479.58-42.13c140.41 117.73 162.44 325.47 49.86 470.03" fill-rule="evenodd" transform="matrix(.17876 0 0 .17011 83.819 -54.587)" stroke="#000" stroke-linecap="square" stroke-width="2" fill="#735d04"/>
   </g>
   <g id="g38433" transform="matrix(.24498 0 0 .24498 2126.3 -135.42)">
    <path id="path38435" d="m636.63 586.47c-120.8 144.07-335.51 162.93-479.58 42.13-144.06-120.8-162.93-335.51-42.13-479.58s335.51-162.93 479.58-42.13c140.41 117.73 162.44 325.47 49.86 470.03" fill-rule="evenodd" transform="matrix(.17876 0 0 .17011 83.819 -54.587)" stroke="#000" stroke-linecap="square" stroke-width="2" fill="#735d04"/>
   </g>
   <g id="g38437" transform="matrix(.24498 0 0 .24498 2167.5 -101.03)">
    <path id="path38439" d="m636.63 586.47c-120.8 144.07-335.51 162.93-479.58 42.13-144.06-120.8-162.93-335.51-42.13-479.58s335.51-162.93 479.58-42.13c140.41 117.73 162.44 325.47 49.86 470.03" fill-rule="evenodd" transform="matrix(.17876 0 0 .17011 83.819 -54.587)" stroke="#000" stroke-linecap="square" stroke-width="2" fill="#735d04"/>
   </g>
   <g id="g38441" transform="matrix(.24498 0 0 .24498 2167.5 -135.42)">
    <path id="path38443" d="m636.63 586.47c-120.8 144.07-335.51 162.93-479.58 42.13-144.06-120.8-162.93-335.51-42.13-479.58s335.51-162.93 479.58-42.13c140.41 117.73 162.44 325.47 49.86 470.03" fill-rule="evenodd" transform="matrix(.17876 0 0 .17011 83.819 -54.587)" stroke="#000" stroke-linecap="square" stroke-width="2" fill="#735d04"/>
   </g>
   <g id="g38445" transform="matrix(.24498 0 0 .24498 2042.3 -172.22)">
    <path id="path38447" d="m636.63 586.47c-120.8 144.07-335.51 162.93-479.58 42.13-144.06-120.8-162.93-335.51-42.13-479.58s335.51-162.93 479.58-42.13c140.41 117.73 162.44 325.47 49.86 470.03" fill-rule="evenodd" transform="matrix(.17876 0 0 .17011 83.819 -54.587)" stroke="#000" stroke-linecap="square" stroke-width="2" fill="#735d04"/>
   </g>
   <g id="g38453" transform="matrix(.24498 0 0 .24498 2083.5 -171.42)">
    <path id="path38455" d="m636.63 586.47c-120.8 144.07-335.51 162.93-479.58 42.13-144.06-120.8-162.93-335.51-42.13-479.58s335.51-162.93 479.58-42.13c140.41 117.73 162.44 325.47 49.86 470.03" fill-rule="evenodd" transform="matrix(.17876 0 0 .17011 83.819 -54.587)" stroke="#000" stroke-linecap="square" stroke-width="2" fill="#735d04"/>
   </g>
   <g id="g38461" transform="matrix(.24498 0 0 .24498 2126.3 -171.42)">
    <path id="path38463" d="m636.63 586.47c-120.8 144.07-335.51 162.93-479.58 42.13-144.06-120.8-162.93-335.51-42.13-479.58s335.51-162.93 479.58-42.13c140.41 117.73 162.44 325.47 49.86 470.03" fill-rule="evenodd" transform="matrix(.17876 0 0 .17011 83.819 -54.587)" stroke="#000" stroke-linecap="square" stroke-width="2" fill="#735d04"/>
   </g>
   <g id="g38469" transform="matrix(.24498 0 0 .24498 2167.5 -171.42)">
    <path id="path38471" d="m636.63 586.47c-120.8 144.07-335.51 162.93-479.58 42.13-144.06-120.8-162.93-335.51-42.13-479.58s335.51-162.93 479.58-42.13c140.41 117.73 162.44 325.47 49.86 470.03" fill-rule="evenodd" transform="matrix(.17876 0 0 .17011 83.819 -54.587)" stroke="#000" stroke-linecap="square" stroke-width="2" fill="#735d04"/>
   </g>
   <g stroke="#000" stroke-width="1.4752px" fill="none">
    <g id="g12103" transform="translate(1883.1 3076.6)">
     <path id="path12105" d="m-149.88-3146.9c5.4227-3.8787 6.7348 4.0701 6.7473 9.2251 0.0393 16.204-16.221 15.49-14.604-1.4763 0.44092-4.6261 0.91318-5.8168 3.9366-6.5727 4.6785-1.1696 6.7094-0.9228 10.977 0.784"/>
     <path id="path12107" d="m-151.09-3126.7c1.3647 15.986-0.9444 19.932-0.9444 31.159"/>
     <path id="path12109" d="m-150.96-3122c3.668 5.5714 12.159 16.78 9.7599 25.214"/>
     <path id="path12111" d="m-151.52-3120.9c-5.4532 6.0085-8.9213 17.656-9.7625 25.164"/>
     <path id="path12113" d="m-151.83-3096.2c3.9825 12.321 5.1514 16.592 7.2456 26.247"/>
     <path id="path12115" d="m-151.99-3095.9c-2.9354 11.274-6.5758 19.433-8.1465 25.947"/>
    </g>
    <g id="g11490" transform="translate(1923.1 3076.6)">
     <path id="path11492" d="m-149.88-3146.9c5.4227-3.8787 6.7348 4.0701 6.7473 9.2251 0.0393 16.204-16.221 15.49-14.604-1.4763 0.44092-4.6261 0.91318-5.8168 3.9366-6.5727 4.6785-1.1696 6.7094-0.9228 10.977 0.784"/>
     <path id="path11494" d="m-151.09-3126.7c1.3647 15.986-0.9444 19.932-0.9444 31.159"/>
     <path id="path11496" d="m-150.96-3122c3.668 5.5714 12.159 16.78 9.7599 25.214"/>
     <path id="path11498" d="m-151.52-3120.9c-5.4532 6.0085-8.9213 17.656-9.7625 25.164"/>
     <path id="path11500" d="m-151.83-3096.2c3.9825 12.321 5.1514 16.592 7.2456 26.247"/>
     <path id="path11502" d="m-151.99-3095.9c-2.9354 11.274-6.5758 19.433-8.1465 25.947"/>
    </g>
    <g id="g11504" transform="translate(2039.1 3076.6)">
     <path id="path11506" d="m-149.88-3146.9c5.4227-3.8787 6.7348 4.0701 6.7473 9.2251 0.0393 16.204-16.221 15.49-14.604-1.4763 0.44092-4.6261 0.91318-5.8168 3.9366-6.5727 4.6785-1.1696 6.7094-0.9228 10.977 0.784"/>
     <path id="path11508" d="m-151.09-3126.7c1.3647 15.986-0.9444 19.932-0.9444 31.159"/>
     <path id="path11510" d="m-150.96-3122c3.668 5.5714 12.159 16.78 9.7599 25.214"/>
     <path id="path11512" d="m-151.52-3120.9c-5.4532 6.0085-8.9213 17.656-9.7625 25.164"/>
     <path id="path11514" d="m-151.83-3096.2c3.9825 12.321 5.1514 16.592 7.2456 26.247"/>
     <path id="path11516" d="m-151.99-3095.9c-2.9354 11.274-6.5758 19.433-8.1465 25.947"/>
    </g>
    <g id="g11518" transform="translate(2077.1 3076.6)">
     <path id="path11520" d="m-149.88-3146.9c5.4227-3.8787 6.7348 4.0701 6.7473 9.2251 0.0393 16.204-16.221 15.49-14.604-1.4763 0.44092-4.6261 0.91318-5.8168 3.9366-6.5727 4.6785-1.1696 6.7094-0.9228 10.977 0.784"/>
     <path id="path11522" d="m-151.09-3126.7c1.3647 15.986-0.9444 19.932-0.9444 31.159"/>
     <path id="path11524" d="m-150.96-3122c3.668 5.5714 12.159 16.78 9.7599 25.214"/>
     <path id="path11526" d="m-151.52-3120.9c-5.4532 6.0085-8.9213 17.656-9.7625 25.164"/>
     <path id="path11528" d="m-151.83-3096.2c3.9825 12.321 5.1514 16.592 7.2456 26.247"/>
     <path id="path11530" d="m-151.99-3095.9c-2.9354 11.274-6.5758 19.433-8.1465 25.947"/>
    </g>
    <g id="g11532" transform="translate(2115.1 3076.6)">
     <path id="path11534" d="m-149.88-3146.9c5.4227-3.8787 6.7348 4.0701 6.7473 9.2251 0.0393 16.204-16.221 15.49-14.604-1.4763 0.44092-4.6261 0.91318-5.8168 3.9366-6.5727 4.6785-1.1696 6.7094-0.9228 10.977 0.784"/>
     <path id="path11536" d="m-151.09-3126.7c1.3647 15.986-0.9444 19.932-0.9444 31.159"/>
     <path id="path11538" d="m-150.96-3122c3.668 5.5714 12.159 16.78 9.7599 25.214"/>
     <path id="path11540" d="m-151.52-3120.9c-5.4532 6.0085-8.9213 17.656-9.7625 25.164"/>
     <path id="path11542" d="m-151.83-3096.2c3.9825 12.321 5.1514 16.592 7.2456 26.247"/>
     <path id="path11544" d="m-151.99-3095.9c-2.9354 11.274-6.5758 19.433-8.1465 25.947"/>
    </g>
    <g id="g11546" transform="translate(2230.6 3076.6)">
     <path id="path11548" d="m-149.88-3146.9c5.4227-3.8787 6.7348 4.0701 6.7473 9.2251 0.0393 16.204-16.221 15.49-14.604-1.4763 0.44092-4.6261 0.91318-5.8168 3.9366-6.5727 4.6785-1.1696 6.7094-0.9228 10.977 0.784"/>
     <path id="path11550" d="m-151.09-3126.7c1.3647 15.986-0.9444 19.932-0.9444 31.159"/>
     <path id="path11552" d="m-150.96-3122c3.668 5.5714 12.159 16.78 9.7599 25.214"/>
     <path id="path11554" d="m-151.52-3120.9c-5.4532 6.0085-8.9213 17.656-9.7625 25.164"/>
     <path id="path11556" d="m-151.83-3096.2c3.9825 12.321 5.1514 16.592 7.2456 26.247"/>
     <path id="path11558" d="m-151.99-3095.9c-2.9354 11.274-6.5758 19.433-8.1465 25.947"/>
    </g>
    <g id="g11560" transform="translate(2270.6 3076.6)">
     <path id="path11562" d="m-149.88-3146.9c5.4227-3.8787 6.7348 4.0701 6.7473 9.2251 0.0393 16.204-16.221 15.49-14.604-1.4763 0.44092-4.6261 0.91318-5.8168 3.9366-6.5727 4.6785-1.1696 6.7094-0.9228 10.977 0.784"/>
     <path id="path11564" d="m-151.09-3126.7c1.3647 15.986-0.9444 19.932-0.9444 31.159"/>
     <path id="path11566" d="m-150.96-3122c3.668 5.5714 12.159 16.78 9.7599 25.214"/>
     <path id="path11568" d="m-151.52-3120.9c-5.4532 6.0085-8.9213 17.656-9.7625 25.164"/>
     <path id="path11570" d="m-151.83-3096.2c3.9825 12.321 5.1514 16.592 7.2456 26.247"/>
     <path id="path11572" d="m-151.99-3095.9c-2.9354 11.274-6.5758 19.433-8.1465 25.947"/>
    </g>
    <g id="g11574" transform="translate(2312.5 3076.6)">
     <path id="path11576" d="m-149.88-3146.9c5.4227-3.8787 6.7348 4.0701 6.7473 9.2251 0.0393 16.204-16.221 15.49-14.604-1.4763 0.44092-4.6261 0.91318-5.8168 3.9366-6.5727 4.6785-1.1696 6.7094-0.9228 10.977 0.784"/>
     <path id="path11578" d="m-151.09-3126.7c1.3647 15.986-0.9444 19.932-0.9444 31.159"/>
     <path id="path11580" d="m-150.96-3122c3.668 5.5714 12.159 16.78 9.7599 25.214"/>
     <path id="path11582" d="m-151.52-3120.9c-5.4532 6.0085-8.9213 17.656-9.7625 25.164"/>
     <path id="path11584" d="m-151.83-3096.2c3.9825 12.321 5.1514 16.592 7.2456 26.247"/>
     <path id="path11586" d="m-151.99-3095.9c-2.9354 11.274-6.5758 19.433-8.1465 25.947"/>
    </g>
    <g id="g11588" transform="translate(2352.5 3076.6)">
     <path id="path11590" d="m-149.88-3146.9c5.4227-3.8787 6.7348 4.0701 6.7473 9.2251 0.0393 16.204-16.221 15.49-14.604-1.4763 0.44092-4.6261 0.91318-5.8168 3.9366-6.5727 4.6785-1.1696 6.7094-0.9228 10.977 0.784"/>
     <path id="path11592" d="m-151.09-3126.7c1.3647 15.986-0.9444 19.932-0.9444 31.159"/>
     <path id="path11594" d="m-150.96-3122c3.668 5.5714 12.159 16.78 9.7599 25.214"/>
     <path id="path11596" d="m-151.52-3120.9c-5.4532 6.0085-8.9213 17.656-9.7625 25.164"/>
     <path id="path11598" d="m-151.83-3096.2c3.9825 12.321 5.1514 16.592 7.2456 26.247"/>
     <path id="path11600" d="m-151.99-3095.9c-2.9354 11.274-6.5758 19.433-8.1465 25.947"/>
    </g>
   </g>
   <g id="g13052">
    <path id="path12126" style="color:#000000;text-indent:0;block-progression:tb;text-transform:none" d="m1993-51.188v2.1562h48.812v-2.1562h-48.812z"/>
    <path id="path13058" stroke-linejoin="round" d="m2018.8-59.629 25.811 9.4913-25.811 9.4913c4.1235-5.6037 4.0998-13.27 0-18.983z" fill-rule="evenodd" stroke-width=".625"/>
   </g>
   <g id="g6755" transform="matrix(.24498 0 0 .24498 1738 -101.83)">
    <path id="path6757" d="m636.63 586.47c-120.8 144.07-335.51 162.93-479.58 42.13-144.06-120.8-162.93-335.51-42.13-479.58s335.51-162.93 479.58-42.13c140.41 117.73 162.44 325.47 49.86 470.03" fill-rule="evenodd" transform="matrix(.17876 0 0 .17011 83.819 -54.587)" stroke="#000" stroke-linecap="square" stroke-width="2" fill="#735d04"/>
   </g>
   <g id="g6759" transform="matrix(.24498 0 0 .24498 1738 -136.22)">
    <path id="path6761" d="m636.63 586.47c-120.8 144.07-335.51 162.93-479.58 42.13-144.06-120.8-162.93-335.51-42.13-479.58s335.51-162.93 479.58-42.13c140.41 117.73 162.44 325.47 49.86 470.03" fill-rule="evenodd" transform="matrix(.17876 0 0 .17011 83.819 -54.587)" stroke="#000" stroke-linecap="square" stroke-width="2" fill="#735d04"/>
   </g>
   <g id="g6763" transform="matrix(.24498 0 0 .24498 1698 -101.83)">
    <path id="path6765" d="m636.63 586.47c-120.8 144.07-335.51 162.93-479.58 42.13-144.06-120.8-162.93-335.51-42.13-479.58s335.51-162.93 479.58-42.13c140.41 117.73 162.44 325.47 49.86 470.03" fill-rule="evenodd" transform="matrix(.17876 0 0 .17011 83.819 -54.587)" stroke="#000" stroke-linecap="square" stroke-width="2" fill="#735d04"/>
   </g>
   <g id="g6767" transform="matrix(.24498 0 0 .24498 1698 -136.22)">
    <path id="path6769" d="m636.63 586.47c-120.8 144.07-335.51 162.93-479.58 42.13-144.06-120.8-162.93-335.51-42.13-479.58s335.51-162.93 479.58-42.13c140.41 117.73 162.44 325.47 49.86 470.03" fill-rule="evenodd" transform="matrix(.17876 0 0 .17011 83.819 -54.587)" stroke="#000" stroke-linecap="square" stroke-width="2" fill="#735d04"/>
   </g>
   <g id="g6771" transform="matrix(.24498 0 0 .24498 1848.7 -101.83)">
    <path id="path6773" d="m636.63 586.47c-120.8 144.07-335.51 162.93-479.58 42.13-144.06-120.8-162.93-335.51-42.13-479.58s335.51-162.93 479.58-42.13c140.41 117.73 162.44 325.47 49.86 470.03" fill-rule="evenodd" transform="matrix(.17876 0 0 .17011 83.819 -54.587)" stroke="#000" stroke-linecap="square" stroke-width="2" fill="#735d04"/>
   </g>
   <g id="g6775" transform="matrix(.24498 0 0 .24498 1848.7 -136.22)">
    <path id="path6777" d="m636.63 586.47c-120.8 144.07-335.51 162.93-479.58 42.13-144.06-120.8-162.93-335.51-42.13-479.58s335.51-162.93 479.58-42.13c140.41 117.73 162.44 325.47 49.86 470.03" fill-rule="evenodd" transform="matrix(.17876 0 0 .17011 83.819 -54.587)" stroke="#000" stroke-linecap="square" stroke-width="2" fill="#735d04"/>
   </g>
   <g id="g6779" transform="matrix(.24498 0 0 .24498 1889.9 -101.03)">
    <path id="path6781" d="m636.63 586.47c-120.8 144.07-335.51 162.93-479.58 42.13-144.06-120.8-162.93-335.51-42.13-479.58s335.51-162.93 479.58-42.13c140.41 117.73 162.44 325.47 49.86 470.03" fill-rule="evenodd" transform="matrix(.17876 0 0 .17011 83.819 -54.587)" stroke="#000" stroke-linecap="square" stroke-width="2" fill="#735d04"/>
   </g>
   <g id="g6783" transform="matrix(.24498 0 0 .24498 1889.9 -135.42)">
    <path id="path6785" d="m636.63 586.47c-120.8 144.07-335.51 162.93-479.58 42.13-144.06-120.8-162.93-335.51-42.13-479.58s335.51-162.93 479.58-42.13c140.41 117.73 162.44 325.47 49.86 470.03" fill-rule="evenodd" transform="matrix(.17876 0 0 .17011 83.819 -54.587)" stroke="#000" stroke-linecap="square" stroke-width="2" fill="#735d04"/>
   </g>
   <g id="g6787" transform="matrix(.24498 0 0 .24498 1932.7 -101.03)">
    <path id="path6789" d="m636.63 586.47c-120.8 144.07-335.51 162.93-479.58 42.13-144.06-120.8-162.93-335.51-42.13-479.58s335.51-162.93 479.58-42.13c140.41 117.73 162.44 325.47 49.86 470.03" fill-rule="evenodd" transform="matrix(.17876 0 0 .17011 83.819 -54.587)" stroke="#000" stroke-linecap="square" stroke-width="2" fill="#735d04"/>
   </g>
   <g id="g6791" transform="matrix(.24498 0 0 .24498 1932.7 -135.42)">
    <path id="path6793" d="m636.63 586.47c-120.8 144.07-335.51 162.93-479.58 42.13-144.06-120.8-162.93-335.51-42.13-479.58s335.51-162.93 479.58-42.13c140.41 117.73 162.44 325.47 49.86 470.03" fill-rule="evenodd" transform="matrix(.17876 0 0 .17011 83.819 -54.587)" stroke="#000" stroke-linecap="square" stroke-width="2" fill="#735d04"/>
   </g>
   <g id="g6795" transform="matrix(.24498 0 0 .24498 1848.7 -172.22)">
    <path id="path6797" d="m636.63 586.47c-120.8 144.07-335.51 162.93-479.58 42.13-144.06-120.8-162.93-335.51-42.13-479.58s335.51-162.93 479.58-42.13c140.41 117.73 162.44 325.47 49.86 470.03" fill-rule="evenodd" transform="matrix(.17876 0 0 .17011 83.819 -54.587)" stroke="#000" stroke-linecap="square" stroke-width="2" fill="#735d04"/>
   </g>
   <g id="g6799" transform="matrix(.24498 0 0 .24498 1889.9 -171.42)">
    <path id="path6801" d="m636.63 586.47c-120.8 144.07-335.51 162.93-479.58 42.13-144.06-120.8-162.93-335.51-42.13-479.58s335.51-162.93 479.58-42.13c140.41 117.73 162.44 325.47 49.86 470.03" fill-rule="evenodd" transform="matrix(.17876 0 0 .17011 83.819 -54.587)" stroke="#000" stroke-linecap="square" stroke-width="2" fill="#735d04"/>
   </g>
   <g id="g6803" transform="matrix(.24498 0 0 .24498 1932.7 -171.42)">
    <path id="path6805" d="m636.63 586.47c-120.8 144.07-335.51 162.93-479.58 42.13-144.06-120.8-162.93-335.51-42.13-479.58s335.51-162.93 479.58-42.13c140.41 117.73 162.44 325.47 49.86 470.03" fill-rule="evenodd" transform="matrix(.17876 0 0 .17011 83.819 -54.587)" stroke="#000" stroke-linecap="square" stroke-width="2" fill="#735d04"/>
   </g>
   <g id="g6807" transform="matrix(.24498 0 0 .24498 2042.3 -208.22)">
    <path id="path6809" d="m636.63 586.47c-120.8 144.07-335.51 162.93-479.58 42.13-144.06-120.8-162.93-335.51-42.13-479.58s335.51-162.93 479.58-42.13c140.41 117.73 162.44 325.47 49.86 470.03" fill-rule="evenodd" transform="matrix(.17876 0 0 .17011 83.819 -54.587)" stroke="#000" stroke-linecap="square" stroke-width="2" fill="#735d04"/>
   </g>
   <g id="g6811" transform="matrix(.24498 0 0 .24498 2083.5 -207.42)">
    <path id="path6813" d="m636.63 586.47c-120.8 144.07-335.51 162.93-479.58 42.13-144.06-120.8-162.93-335.51-42.13-479.58s335.51-162.93 479.58-42.13c140.41 117.73 162.44 325.47 49.86 470.03" fill-rule="evenodd" transform="matrix(.17876 0 0 .17011 83.819 -54.587)" stroke="#000" stroke-linecap="square" stroke-width="2" fill="#735d04"/>
   </g>
   <g id="g6815" transform="matrix(.24498 0 0 .24498 2126.3 -207.42)">
    <path id="path6817" d="m636.63 586.47c-120.8 144.07-335.51 162.93-479.58 42.13-144.06-120.8-162.93-335.51-42.13-479.58s335.51-162.93 479.58-42.13c140.41 117.73 162.44 325.47 49.86 470.03" fill-rule="evenodd" transform="matrix(.17876 0 0 .17011 83.819 -54.587)" stroke="#000" stroke-linecap="square" stroke-width="2" fill="#735d04"/>
   </g>
   <g id="g6819" transform="matrix(.24498 0 0 .24498 2167.5 -207.42)">
    <path id="path6821" d="m636.63 586.47c-120.8 144.07-335.51 162.93-479.58 42.13-144.06-120.8-162.93-335.51-42.13-479.58s335.51-162.93 479.58-42.13c140.41 117.73 162.44 325.47 49.86 470.03" fill-rule="evenodd" transform="matrix(.17876 0 0 .17011 83.819 -54.587)" stroke="#000" stroke-linecap="square" stroke-width="2" fill="#735d04"/>
   </g>
  </g>
 </g>
</svg>
