<?xml version="1.0" encoding="UTF-8" standalone="no"?>
<!-- Created with Inkscape (http://www.inkscape.org/) -->

<svg
   xmlns:dc="http://purl.org/dc/elements/1.1/"
   xmlns:cc="http://creativecommons.org/ns#"
   xmlns:rdf="http://www.w3.org/1999/02/22-rdf-syntax-ns#"
   xmlns:svg="http://www.w3.org/2000/svg"
   xmlns="http://www.w3.org/2000/svg"
   xmlns:xlink="http://www.w3.org/1999/xlink"
   xmlns:sodipodi="http://sodipodi.sourceforge.net/DTD/sodipodi-0.dtd"
   xmlns:inkscape="http://www.inkscape.org/namespaces/inkscape"
   width="434.04883"
   height="266.9332"
   id="svg2"
   version="1.1"
   inkscape:version="0.48.4 r9939"
   sodipodi:docname="snowdrift.svg"
   inkscape:export-filename="/home/aaron/sites-programs/snowdrift/static/img/intro/snowdrift.png"
   inkscape:export-xdpi="70.129906"
   inkscape:export-ydpi="70.129906">
  <sodipodi:namedview
     id="base"
     pagecolor="#ffffff"
     bordercolor="#666666"
     borderopacity="1.0"
     inkscape:pageopacity="0.0"
     inkscape:pageshadow="2"
     inkscape:zoom="0.93"
     inkscape:cx="270.08569"
     inkscape:cy="140.12466"
     inkscape:document-units="px"
     inkscape:current-layer="layer1"
     showgrid="false"
     inkscape:window-width="1366"
     inkscape:window-height="710"
     inkscape:window-x="0"
     inkscape:window-y="35"
     inkscape:window-maximized="1"
     fit-margin-top="-40"
     fit-margin-left="-20"
     fit-margin-right="-20"
     fit-margin-bottom="-5"
     borderlayer="true" />
  <defs
     id="defs4">
    <linearGradient
       id="linearGradient4166">
      <stop
         style="stop-color:#c4cccf;stop-opacity:1;"
         offset="0"
         id="stop4168" />
      <stop
         id="stop4174"
         offset="0.5"
         style="stop-color:#ecf1f3;stop-opacity:1;" />
      <stop
         style="stop-color:#f6f6f6;stop-opacity:1;"
         offset="1"
         id="stop4170" />
    </linearGradient>
    <filter
       inkscape:collect="always"
       id="filter4028"
       x="-0.04902846"
       width="1.0980569"
       y="-0.19918931"
       height="1.3983786"
       color-interpolation-filters="sRGB">
      <feGaussianBlur
         inkscape:collect="always"
         stdDeviation="7.3293034"
         id="feGaussianBlur4030" />
    </filter>
    <filter
       inkscape:collect="always"
       id="filter4309"
       x="-0.030424759"
       width="1.0608495"
       y="-0.2437996"
       height="1.4875993"
       color-interpolation-filters="sRGB">
      <feGaussianBlur
         inkscape:collect="always"
         stdDeviation="1.3943174"
         id="feGaussianBlur4311" />
    </filter>
    <filter
       inkscape:collect="always"
       id="filter4160-9"
       color-interpolation-filters="sRGB">
      <feGaussianBlur
         inkscape:collect="always"
         stdDeviation="0.58166163"
         id="feGaussianBlur4162-4" />
    </filter>
    <filter
       inkscape:collect="always"
       id="filter4152-0"
       color-interpolation-filters="sRGB">
      <feGaussianBlur
         inkscape:collect="always"
         stdDeviation="0.58166163"
         id="feGaussianBlur4154-8" />
    </filter>
    <filter
       inkscape:collect="always"
       id="filter4148-6"
       color-interpolation-filters="sRGB">
      <feGaussianBlur
         inkscape:collect="always"
         stdDeviation="0.58166163"
         id="feGaussianBlur4150-2" />
    </filter>
    <filter
       inkscape:collect="always"
       id="filter4128-8"
       color-interpolation-filters="sRGB">
      <feGaussianBlur
         inkscape:collect="always"
         stdDeviation="0.58166163"
         id="feGaussianBlur4130-2" />
    </filter>
    <filter
       inkscape:collect="always"
       id="filter4140-0"
       color-interpolation-filters="sRGB">
      <feGaussianBlur
         inkscape:collect="always"
         stdDeviation="0.58166163"
         id="feGaussianBlur4142-4" />
    </filter>
    <filter
       inkscape:collect="always"
       id="filter4136-2"
       color-interpolation-filters="sRGB">
      <feGaussianBlur
         inkscape:collect="always"
         stdDeviation="0.58166163"
         id="feGaussianBlur4138-9" />
    </filter>
    <filter
       inkscape:collect="always"
       id="filter4132-4"
       color-interpolation-filters="sRGB">
      <feGaussianBlur
         inkscape:collect="always"
         stdDeviation="0.58166163"
         id="feGaussianBlur4134-3" />
    </filter>
    <filter
       inkscape:collect="always"
       id="filter4124-6"
       color-interpolation-filters="sRGB">
      <feGaussianBlur
         inkscape:collect="always"
         stdDeviation="0.58166163"
         id="feGaussianBlur4126-9" />
    </filter>
    <filter
       inkscape:collect="always"
       id="filter4120-8"
       color-interpolation-filters="sRGB">
      <feGaussianBlur
         inkscape:collect="always"
         stdDeviation="0.58166163"
         id="feGaussianBlur4122-8" />
    </filter>
    <linearGradient
       inkscape:collect="always"
       xlink:href="#linearGradient4166"
       id="linearGradient4572"
       gradientUnits="userSpaceOnUse"
       gradientTransform="translate(-2.112676,7.0422539)"
       x1="150.20422"
       y1="364.3136"
       x2="601.20422"
       y2="414.3136" />
  </defs>
  <metadata
     id="metadata7">
    <rdf:RDF>
      <cc:Work
         rdf:about="">
        <dc:format>image/svg+xml</dc:format>
        <dc:type
           rdf:resource="http://purl.org/dc/dcmitype/StillImage" />
        <dc:title></dc:title>
      </cc:Work>
    </rdf:RDF>
  </metadata>
  <g
     id="layer1"
     inkscape:groupmode="layer"
     inkscape:label="Layer 1"
     transform="translate(-155.10116,-233.84632)">
    <rect
       style="fill:#dfded4;fill-opacity:1;stroke:none"
       id="rect4334"
       width="461.29037"
       height="288.17203"
       x="145.42369"
       y="215.13435"
       rx="9.0959196"
       ry="10.195524" />
    <rect
       style="fill:#fafcfb;fill-opacity:0.84422111;stroke:#778d91;stroke-width:0.25866106;stroke-linecap:round;stroke-linejoin:round;stroke-miterlimit:4;stroke-opacity:0.36683415;stroke-dasharray:none;stroke-dashoffset:0"
       id="rect4576"
       width="449.49371"
       height="146.26788"
       x="147.55861"
       y="220.11868"
       rx="9.0965538"
       ry="8.1104584" />
    <g
       transform="translate(154.23826,230.37147)"
       id="g4359">
      <path
         d="m 277.88353,366.44934 0,-18 8.48678,-10.77849 7.50121,-4.21936 6.1849,1.15144 3.02368,2.38666 -3.02368,-2.38666 4.60906,-1.63217 3.19299,-2.72021 -3.19299,2.72021 -4.60906,1.63217 -6.1849,-1.15144 2.84967,-6.81097 4.48361,-2.40334 -4.48361,2.40334 -0.36055,-4.6698 -2.54846,-2.64598 2.54846,2.64598 0.36055,4.6698 -2.84967,6.81097 -7.50121,4.21936 3.40565,-11.25315 4.56302,-4.5187 3.66064,-0.59492 -3.66064,0.59492 1.97005,-4.97566 3.3134,-2.92317 1.27519,-3.66975 -1.27519,3.66975 -3.3134,2.92317 -0.52993,-3.67988 0.52993,3.67988 -1.97005,4.97566 -4.56302,4.5187 -1.11983,-6.92553 2.12122,-5.64035 -2.12122,5.64035 -2.43331,-3.32747 2.43331,3.32747 1.11983,6.92553 -3.40565,11.25315 -8.48678,10.77849 -7.96239,-13.95209 -0.048,-13.30416 2.88279,-6.31142 3.86842,-2.91105 1.26069,-3.93943 -1.26069,3.93943 -3.86842,2.91105 -1.04256,-4.05513 1.04256,4.05513 -2.88279,6.31142 -3.6265,-9.0148 1.54189,-6.12432 2.31351,-2.86093 -2.31351,2.86093 -1.71209,-4.39539 0.14456,-3.99862 -0.14456,3.99862 1.71209,4.39539 -1.54189,6.12432 -6.46566,-4.27344 -1.4194,-4.73499 -3.28067,-2.67801 3.28067,2.67801 1.4194,4.73499 -4.86242,-1.12858 4.86242,1.12858 6.46566,4.27344 3.6265,9.0148 0.048,13.30416 -9.88438,-8.26579 -4.07388,-7.16818 0.38117,-5.70231 -2.38025,-3.3427 -0.8663,-3.51987 0.8663,3.51987 2.38025,3.3427 -0.38117,5.70231 -5.63258,-2.5759 -2.52422,-3.47072 2.52422,3.47072 -5.19821,0.23875 -3.63219,-2.31067 -2.01234,-3.252 2.01234,3.252 3.63219,2.31067 -3.06701,2.11532 3.06701,-2.11532 5.19821,-0.23875 5.63258,2.5759 4.07388,7.16818 -7.72606,-0.43593 -4.83488,-3.57563 -2.25185,-3.52746 2.25185,3.52746 -4.18864,-0.25379 4.18864,0.25379 4.83488,3.57563 -5.14027,3.1495 -4.1459,0.83568 -2.88341,2.24996 2.88341,-2.24996 4.1459,-0.83568 -2.30699,4.28227 0.57965,4.28 2.43889,2.71806 -2.43889,-2.71806 -0.57965,-4.28 2.30699,-4.28227 5.14027,-3.1495 7.72606,0.43593 9.88438,8.26579 7.96239,13.95209 0,18"
         style="fill:none;stroke:#553e23;stroke-width:0.28999999;stroke-linecap:butt;stroke-linejoin:miter;stroke-miterlimit:4;stroke-opacity:1;stroke-dasharray:none;filter:url(#filter4160-9)"
         id="path4361"
         inkscape:connector-curvature="0"
         transform="matrix(0.87497877,0,0,0.74406852,-102.31008,-134.80186)" />
      <path
         inkscape:connector-curvature="0"
         id="path4363"
         style="fill:none;stroke:#553e23;stroke-width:0.28999999;stroke-linecap:butt;stroke-linejoin:miter;stroke-miterlimit:4;stroke-opacity:1;stroke-dasharray:none;filter:url(#filter4152-0)"
         d="m 456.05254,369.97047 0,-18 8.48678,-10.77849 7.50121,-4.21936 6.1849,1.15144 3.02368,2.38666 -3.02368,-2.38666 4.60906,-1.63217 3.19299,-2.72021 -3.19299,2.72021 -4.60906,1.63217 -6.1849,-1.15144 2.84967,-6.81097 4.48361,-2.40334 -4.48361,2.40334 -0.36055,-4.6698 -2.54846,-2.64598 2.54846,2.64598 0.36055,4.6698 -2.84967,6.81097 -7.50121,4.21936 3.40565,-11.25315 4.56302,-4.5187 3.66064,-0.59492 -3.66064,0.59492 1.97005,-4.97566 3.3134,-2.92317 1.27519,-3.66975 -1.27519,3.66975 -3.3134,2.92317 -0.52993,-3.67988 0.52993,3.67988 -1.97005,4.97566 -4.56302,4.5187 -1.11983,-6.92553 2.12122,-5.64035 -2.12122,5.64035 -2.43331,-3.32747 2.43331,3.32747 1.11983,6.92553 -3.40565,11.25315 -8.48678,10.77849 -7.96239,-13.95209 -0.048,-13.30416 2.88279,-6.31142 3.86842,-2.91105 1.26069,-3.93943 -1.26069,3.93943 -3.86842,2.91105 -1.04256,-4.05513 1.04256,4.05513 -2.88279,6.31142 -3.6265,-9.0148 1.54189,-6.12432 2.31351,-2.86093 -2.31351,2.86093 -1.71209,-4.39539 0.14456,-3.99862 -0.14456,3.99862 1.71209,4.39539 -1.54189,6.12432 -6.46566,-4.27344 -1.4194,-4.73499 -3.28067,-2.67801 3.28067,2.67801 1.4194,4.73499 -4.86242,-1.12858 4.86242,1.12858 6.46566,4.27344 3.6265,9.0148 0.048,13.30416 -9.88438,-8.26579 -4.07388,-7.16818 0.38117,-5.70231 -2.38025,-3.3427 -0.8663,-3.51987 0.8663,3.51987 2.38025,3.3427 -0.38117,5.70231 -5.63258,-2.5759 -2.52422,-3.47072 2.52422,3.47072 -5.19821,0.23875 -3.63219,-2.31067 -2.01234,-3.252 2.01234,3.252 3.63219,2.31067 -3.06701,2.11532 3.06701,-2.11532 5.19821,-0.23875 5.63258,2.5759 4.07388,7.16818 -7.72606,-0.43593 -4.83488,-3.57563 -2.25185,-3.52746 2.25185,3.52746 -4.18864,-0.25379 4.18864,0.25379 4.83488,3.57563 -5.14027,3.1495 -4.1459,0.83568 -2.88341,2.24996 2.88341,-2.24996 4.1459,-0.83568 -2.30699,4.28227 0.57965,4.28 2.43889,2.71806 -2.43889,-2.71806 -0.57965,-4.28 2.30699,-4.28227 5.14027,-3.1495 7.72606,0.43593 9.88438,8.26579 7.96239,13.95209 0,18"
         transform="matrix(0.87497877,0,0,0.74406852,-102.31008,-134.80186)" />
      <path
         d="m 401.82719,368.56202 0,-18 8.48678,-10.77849 7.50121,-4.21936 6.1849,1.15144 3.02368,2.38666 -3.02368,-2.38666 4.60906,-1.63217 3.19299,-2.72021 -3.19299,2.72021 -4.60906,1.63217 -6.1849,-1.15144 2.84967,-6.81097 4.48361,-2.40334 -4.48361,2.40334 -0.36055,-4.6698 -2.54846,-2.64598 2.54846,2.64598 0.36055,4.6698 -2.84967,6.81097 -7.50121,4.21936 3.40565,-11.25315 4.56302,-4.5187 3.66064,-0.59492 -3.66064,0.59492 1.97005,-4.97566 3.3134,-2.92317 1.27519,-3.66975 -1.27519,3.66975 -3.3134,2.92317 -0.52993,-3.67988 0.52993,3.67988 -1.97005,4.97566 -4.56302,4.5187 -1.11983,-6.92553 2.12122,-5.64035 -2.12122,5.64035 -2.43331,-3.32747 2.43331,3.32747 1.11983,6.92553 -3.40565,11.25315 -8.48678,10.77849 -7.96239,-13.95209 -0.048,-13.30416 2.88279,-6.31142 3.86842,-2.91105 1.26069,-3.93943 -1.26069,3.93943 -3.86842,2.91105 -1.04256,-4.05513 1.04256,4.05513 -2.88279,6.31142 -3.6265,-9.0148 1.54189,-6.12432 2.31351,-2.86093 -2.31351,2.86093 -1.71209,-4.39539 0.14456,-3.99862 -0.14456,3.99862 1.71209,4.39539 -1.54189,6.12432 -6.46566,-4.27344 -1.4194,-4.73499 -3.28067,-2.67801 3.28067,2.67801 1.4194,4.73499 -4.86242,-1.12858 4.86242,1.12858 6.46566,4.27344 3.6265,9.0148 0.048,13.30416 -9.88438,-8.26579 -4.07388,-7.16818 0.38117,-5.70231 -2.38025,-3.3427 -0.8663,-3.51987 0.8663,3.51987 2.38025,3.3427 -0.38117,5.70231 -5.63258,-2.5759 -2.52422,-3.47072 2.52422,3.47072 -5.19821,0.23875 -3.63219,-2.31067 -2.01234,-3.252 2.01234,3.252 3.63219,2.31067 -3.06701,2.11532 3.06701,-2.11532 5.19821,-0.23875 5.63258,2.5759 4.07388,7.16818 -7.72606,-0.43593 -4.83488,-3.57563 -2.25185,-3.52746 2.25185,3.52746 -4.18864,-0.25379 4.18864,0.25379 4.83488,3.57563 -5.14027,3.1495 -4.1459,0.83568 -2.88341,2.24996 2.88341,-2.24996 4.1459,-0.83568 -2.30699,4.28227 0.57965,4.28 2.43889,2.71806 -2.43889,-2.71806 -0.57965,-4.28 2.30699,-4.28227 5.14027,-3.1495 7.72606,0.43593 9.88438,8.26579 7.96239,13.95209 0,18"
         style="fill:none;stroke:#553e23;stroke-width:0.28999999;stroke-linecap:butt;stroke-linejoin:miter;stroke-miterlimit:4;stroke-opacity:1;stroke-dasharray:none;filter:url(#filter4148-6)"
         id="path4365"
         inkscape:connector-curvature="0"
         transform="matrix(0.66389139,0,0,0.72949639,-10.851335,-129.3947)" />
      <path
         id="path4367"
         style="fill:none;stroke:#553e23;stroke-width:0.99000001;stroke-linecap:butt;stroke-linejoin:miter;stroke-miterlimit:4;stroke-opacity:1;stroke-dasharray:none;filter:url(#filter4128-8)"
         d="m 366.81988,363.21998 0,-18 6.49172,-11.54346 8.29042,-4.34508 7.14945,0.92728 3.94866,2.49455 -3.94866,-2.49455 5.56721,-2.07704 4.28364,0.7634 3.50002,-1.14997 -3.50002,1.14997 -4.28364,-0.7634 3.11561,-4.10217 0.0716,-4.47902 -0.0716,4.47902 -3.11561,4.10217 -5.56721,2.07704 -7.14945,-0.92728 2.80722,-3.86967 -2.80722,3.86967 -8.29042,4.34508 -0.40171,-6.79545 2.75121,-4.25252 3.44751,-1.56747 -3.44751,1.56747 -0.15734,-3.67358 0.15734,3.67358 -2.75121,4.25252 -1.79711,-4.15288 -3.00437,-2.61904 3.00437,2.61904 1.79711,4.15288 0.40171,6.79545 -6.49172,11.54346 -8.07834,-12.75402 0.23075,-8.88349 2.61192,-5.84471 3.67347,-2.34917 1.8266,-3.10507 -1.8266,3.10507 -3.67347,2.34917 -2.61192,5.84471 -2.74389,-5.0756 2.74389,5.0756 -0.23075,8.88349 -10.089,-4.41726 -4.16141,-7.71128 0.40524,-4.42229 2.23266,-3.22895 -2.23266,3.22895 -0.40524,4.42229 -5.61564,-4.94962 -1.31884,-6.13163 0.80142,-4.32056 -0.80142,4.32056 -3.40532,-3.05188 3.40532,3.05188 1.31884,6.13163 -5.88713,-0.35214 -3.99621,-2.01103 3.99621,2.01103 -3.87751,1.82188 3.87751,-1.82188 5.88713,0.35214 5.61564,4.94962 4.16141,7.71128 -9.85136,-0.0783 -5.79293,-2.28382 -3.29918,-4.37818 0.1664,-4.47392 1.49824,-3.36535 -1.49824,3.36535 -2.05646,-3.08403 2.05646,3.08403 -0.1664,4.47392 -3.65616,-2.0879 3.65616,2.0879 3.29918,4.37818 -4.08049,0.3466 4.08049,-0.3466 5.79293,2.28382 -5.63575,3.30748 -4.8963,0.69587 -3.58014,-1.95309 3.58014,1.95309 4.8963,-0.69587 -1.42503,3.35806 1.42503,-3.35806 5.63575,-3.30748 9.85136,0.0783 10.089,4.41726 8.07834,12.75402 0,18"
         inkscape:connector-curvature="0"
         transform="matrix(0.87497877,0,0,0.74406852,-280.31008,-134.80186)" />
      <path
         d="m 508.86944,388.28032 0,-18 8.48678,-10.77849 7.50121,-4.21936 6.1849,1.15144 3.02368,2.38666 -3.02368,-2.38666 4.60906,-1.63217 3.19299,-2.72021 -3.19299,2.72021 -4.60906,1.63217 -6.1849,-1.15144 2.84967,-6.81097 4.48361,-2.40334 -4.48361,2.40334 -0.36055,-4.6698 -2.54846,-2.64598 2.54846,2.64598 0.36055,4.6698 -2.84967,6.81097 -7.50121,4.21936 3.40565,-11.25315 4.56302,-4.5187 3.66064,-0.59492 -3.66064,0.59492 1.97005,-4.97566 3.3134,-2.92317 1.27519,-3.66975 -1.27519,3.66975 -3.3134,2.92317 -0.52993,-3.67988 0.52993,3.67988 -1.97005,4.97566 -4.56302,4.5187 -1.11983,-6.92553 2.12122,-5.64035 -2.12122,5.64035 -2.43331,-3.32747 2.43331,3.32747 1.11983,6.92553 -3.40565,11.25315 -8.48678,10.77849 -7.96239,-13.95209 -0.048,-13.30416 2.88279,-6.31142 3.86842,-2.91105 1.26069,-3.93943 -1.26069,3.93943 -3.86842,2.91105 -1.04256,-4.05513 1.04256,4.05513 -2.88279,6.31142 -3.6265,-9.0148 1.54189,-6.12432 2.31351,-2.86093 -2.31351,2.86093 -1.71209,-4.39539 0.14456,-3.99862 -0.14456,3.99862 1.71209,4.39539 -1.54189,6.12432 -6.46566,-4.27344 -1.4194,-4.73499 -3.28067,-2.67801 3.28067,2.67801 1.4194,4.73499 -4.86242,-1.12858 4.86242,1.12858 6.46566,4.27344 3.6265,9.0148 0.048,13.30416 -9.88438,-8.26579 -4.07388,-7.16818 0.38117,-5.70231 -2.38025,-3.3427 -0.8663,-3.51987 0.8663,3.51987 2.38025,3.3427 -0.38117,5.70231 -5.63258,-2.5759 -2.52422,-3.47072 2.52422,3.47072 -5.19821,0.23875 -3.63219,-2.31067 -2.01234,-3.252 2.01234,3.252 3.63219,2.31067 -3.06701,2.11532 3.06701,-2.11532 5.19821,-0.23875 5.63258,2.5759 4.07388,7.16818 -7.72606,-0.43593 -4.83488,-3.57563 -2.25185,-3.52746 2.25185,3.52746 -4.18864,-0.25379 4.18864,0.25379 4.83488,3.57563 -5.14027,3.1495 -4.1459,0.83568 -2.88341,2.24996 2.88341,-2.24996 4.1459,-0.83568 -2.30699,4.28227 0.57965,4.28 2.43889,2.71806 -2.43889,-2.71806 -0.57965,-4.28 2.30699,-4.28227 5.14027,-3.1495 7.72606,0.43593 9.88438,8.26579 7.96239,13.95209 0,18"
         style="fill:none;stroke:#553e23;stroke-width:0.28999999;stroke-linecap:butt;stroke-linejoin:miter;stroke-miterlimit:4;stroke-opacity:1;stroke-dasharray:none;filter:url(#filter4140-0)"
         id="path4371"
         inkscape:connector-curvature="0"
         transform="matrix(0.51355255,0,0,0.50492829,77.3342,-54.023027)" />
      <path
         inkscape:connector-curvature="0"
         id="path4373"
         style="fill:none;stroke:#553e23;stroke-width:0.28999999;stroke-linecap:butt;stroke-linejoin:miter;stroke-miterlimit:4;stroke-opacity:1;stroke-dasharray:none;filter:url(#filter4136-2)"
         d="m 253.93986,370.67469 0,-18 8.48678,-10.77849 7.50121,-4.21936 6.1849,1.15144 3.02368,2.38666 -3.02368,-2.38666 4.60906,-1.63217 3.19299,-2.72021 -3.19299,2.72021 -4.60906,1.63217 -6.1849,-1.15144 2.84967,-6.81097 4.48361,-2.40334 -4.48361,2.40334 -0.36055,-4.6698 -2.54846,-2.64598 2.54846,2.64598 0.36055,4.6698 -2.84967,6.81097 -7.50121,4.21936 3.40565,-11.25315 4.56302,-4.5187 3.66064,-0.59492 -3.66064,0.59492 1.97005,-4.97566 3.3134,-2.92317 1.27519,-3.66975 -1.27519,3.66975 -3.3134,2.92317 -0.52993,-3.67988 0.52993,3.67988 -1.97005,4.97566 -4.56302,4.5187 -1.11983,-6.92553 2.12122,-5.64035 -2.12122,5.64035 -2.43331,-3.32747 2.43331,3.32747 1.11983,6.92553 -3.40565,11.25315 -8.48678,10.77849 -7.96239,-13.95209 -0.048,-13.30416 2.88279,-6.31142 3.86842,-2.91105 1.26069,-3.93943 -1.26069,3.93943 -3.86842,2.91105 -1.04256,-4.05513 1.04256,4.05513 -2.88279,6.31142 -3.6265,-9.0148 1.54189,-6.12432 2.31351,-2.86093 -2.31351,2.86093 -1.71209,-4.39539 0.14456,-3.99862 -0.14456,3.99862 1.71209,4.39539 -1.54189,6.12432 -6.46566,-4.27344 -1.4194,-4.73499 -3.28067,-2.67801 3.28067,2.67801 1.4194,4.73499 -4.86242,-1.12858 4.86242,1.12858 6.46566,4.27344 3.6265,9.0148 0.048,13.30416 -9.88438,-8.26579 -4.07388,-7.16818 0.38117,-5.70231 -2.38025,-3.3427 -0.8663,-3.51987 0.8663,3.51987 2.38025,3.3427 -0.38117,5.70231 -5.63258,-2.5759 -2.52422,-3.47072 2.52422,3.47072 -5.19821,0.23875 -3.63219,-2.31067 -2.01234,-3.252 2.01234,3.252 3.63219,2.31067 -3.06701,2.11532 3.06701,-2.11532 5.19821,-0.23875 5.63258,2.5759 4.07388,7.16818 -7.72606,-0.43593 -4.83488,-3.57563 -2.25185,-3.52746 2.25185,3.52746 -4.18864,-0.25379 4.18864,0.25379 4.83488,3.57563 -5.14027,3.1495 -4.1459,0.83568 -2.88341,2.24996 2.88341,-2.24996 4.1459,-0.83568 -2.30699,4.28227 0.57965,4.28 2.43889,2.71806 -2.43889,-2.71806 -0.57965,-4.28 2.30699,-4.28227 5.14027,-3.1495 7.72606,0.43593 9.88438,8.26579 7.96239,13.95209 0,18"
         transform="matrix(0.87497877,0,0,0.74406852,-102.31008,-134.80186)" />
      <path
         inkscape:connector-curvature="0"
         d="m 293.58044,361.81153 0,-18 6.49172,-11.54346 8.29042,-4.34508 7.14945,0.92728 3.94866,2.49455 -3.94866,-2.49455 5.56721,-2.07704 4.28364,0.7634 3.50002,-1.14997 -3.50002,1.14997 -4.28364,-0.7634 3.11561,-4.10217 0.0716,-4.47902 -0.0716,4.47902 -3.11561,4.10217 -5.56721,2.07704 -7.14945,-0.92728 2.80722,-3.86967 -2.80722,3.86967 -8.29042,4.34508 -0.40171,-6.79545 2.75121,-4.25252 3.44751,-1.56747 -3.44751,1.56747 -0.15734,-3.67358 0.15734,3.67358 -2.75121,4.25252 -1.79711,-4.15288 -3.00437,-2.61904 3.00437,2.61904 1.79711,4.15288 0.40171,6.79545 -6.49172,11.54346 -8.07834,-12.75402 0.23075,-8.88349 2.61192,-5.84471 3.67347,-2.34917 1.8266,-3.10507 -1.8266,3.10507 -3.67347,2.34917 -2.61192,5.84471 -2.74389,-5.0756 2.74389,5.0756 -0.23075,8.88349 -10.089,-4.41726 -4.16141,-7.71128 0.40524,-4.42229 2.23266,-3.22895 -2.23266,3.22895 -0.40524,4.42229 -5.61564,-4.94962 -1.31884,-6.13163 0.80142,-4.32056 -0.80142,4.32056 -3.40532,-3.05188 3.40532,3.05188 1.31884,6.13163 -5.88713,-0.35214 -3.99621,-2.01103 3.99621,2.01103 -3.87751,1.82188 3.87751,-1.82188 5.88713,0.35214 5.61564,4.94962 4.16141,7.71128 -9.85136,-0.0783 -5.79293,-2.28382 -3.29918,-4.37818 0.1664,-4.47392 1.49824,-3.36535 -1.49824,3.36535 -2.05646,-3.08403 2.05646,3.08403 -0.1664,4.47392 -3.65616,-2.0879 3.65616,2.0879 3.29918,4.37818 -4.08049,0.3466 4.08049,-0.3466 5.79293,2.28382 -5.63575,3.30748 -4.8963,0.69587 -3.58014,-1.95309 3.58014,1.95309 4.8963,-0.69587 -1.42503,3.35806 1.42503,-3.35806 5.63575,-3.30748 9.85136,0.0783 10.089,4.41726 8.07834,12.75402 0,18"
         style="fill:none;stroke:#553e23;stroke-width:0.99000001;stroke-linecap:butt;stroke-linejoin:miter;stroke-miterlimit:4;stroke-opacity:1;stroke-dasharray:none;filter:url(#filter4132-4)"
         id="path4375"
         transform="matrix(0.66099126,0,0,0.88558834,-118.82242,-186.18224)" />
      <path
         inkscape:connector-curvature="0"
         d="m 441.46777,363.21998 0,-18 6.49172,-11.54346 8.29042,-4.34508 7.14945,0.92728 3.94866,2.49455 -3.94866,-2.49455 5.56721,-2.07704 4.28364,0.7634 3.50002,-1.14997 -3.50002,1.14997 -4.28364,-0.7634 3.11561,-4.10217 0.0716,-4.47902 -0.0716,4.47902 -3.11561,4.10217 -5.56721,2.07704 -7.14945,-0.92728 2.80722,-3.86967 -2.80722,3.86967 -8.29042,4.34508 -0.40171,-6.79545 2.75121,-4.25252 3.44751,-1.56747 -3.44751,1.56747 -0.15734,-3.67358 0.15734,3.67358 -2.75121,4.25252 -1.79711,-4.15288 -3.00437,-2.61904 3.00437,2.61904 1.79711,4.15288 0.40171,6.79545 -6.49172,11.54346 -8.07834,-12.75402 0.23075,-8.88349 2.61192,-5.84471 3.67347,-2.34917 1.8266,-3.10507 -1.8266,3.10507 -3.67347,2.34917 -2.61192,5.84471 -2.74389,-5.0756 2.74389,5.0756 -0.23075,8.88349 -10.089,-4.41726 -4.16141,-7.71128 0.40524,-4.42229 2.23266,-3.22895 -2.23266,3.22895 -0.40524,4.42229 -5.61564,-4.94962 -1.31884,-6.13163 0.80142,-4.32056 -0.80142,4.32056 -3.40532,-3.05188 3.40532,3.05188 1.31884,6.13163 -5.88713,-0.35214 -3.99621,-2.01103 3.99621,2.01103 -3.87751,1.82188 3.87751,-1.82188 5.88713,0.35214 5.61564,4.94962 4.16141,7.71128 -9.85136,-0.0783 -5.79293,-2.28382 -3.29918,-4.37818 0.1664,-4.47392 1.49824,-3.36535 -1.49824,3.36535 -2.05646,-3.08403 2.05646,3.08403 -0.1664,4.47392 -3.65616,-2.0879 3.65616,2.0879 3.29918,4.37818 -4.08049,0.3466 4.08049,-0.3466 5.79293,2.28382 -5.63575,3.30748 -4.8963,0.69587 -3.58014,-1.95309 3.58014,1.95309 4.8963,-0.69587 -1.42503,3.35806 1.42503,-3.35806 5.63575,-3.30748 9.85136,0.0783 10.089,4.41726 8.07834,12.75402 0,18"
         style="fill:none;stroke:#553e23;stroke-width:0.99000001;stroke-linecap:butt;stroke-linejoin:miter;stroke-miterlimit:4;stroke-opacity:1;stroke-dasharray:none;filter:url(#filter4124-6)"
         id="path4377"
         transform="matrix(-0.87497877,0,0,0.74406852,670.24754,-132.80186)" />
      <path
         id="path4379"
         style="fill:none;stroke:#553e23;stroke-width:1.2178582;stroke-linecap:butt;stroke-linejoin:miter;stroke-miterlimit:4;stroke-opacity:1;stroke-dasharray:none;filter:url(#filter4120-8)"
         d="m 483.72129,377.30449 0,-18 6.49172,-11.54346 8.29042,-4.34508 7.14945,0.92728 3.94866,2.49455 -3.94866,-2.49455 5.56721,-2.07704 4.28364,0.7634 3.50002,-1.14997 -3.50002,1.14997 -4.28364,-0.7634 3.11561,-4.10217 0.0716,-4.47902 -0.0716,4.47902 -3.11561,4.10217 -5.56721,2.07704 -7.14945,-0.92728 2.80722,-3.86967 -2.80722,3.86967 -8.29042,4.34508 -0.40171,-6.79545 2.75121,-4.25252 3.44751,-1.56747 -3.44751,1.56747 -0.15734,-3.67358 0.15734,3.67358 -2.75121,4.25252 -1.79711,-4.15288 -3.00437,-2.61904 3.00437,2.61904 1.79711,4.15288 0.40171,6.79545 -6.49172,11.54346 -8.07834,-12.75402 0.23075,-8.88349 2.61192,-5.84471 3.67347,-2.34917 1.8266,-3.10507 -1.8266,3.10507 -3.67347,2.34917 -2.61192,5.84471 -2.74389,-5.0756 2.74389,5.0756 -0.23075,8.88349 -10.089,-4.41726 -4.16141,-7.71128 0.40524,-4.42229 2.23266,-3.22895 -2.23266,3.22895 -0.40524,4.42229 -5.61564,-4.94962 -1.31884,-6.13163 0.80142,-4.32056 -0.80142,4.32056 -3.40532,-3.05188 3.40532,3.05188 1.31884,6.13163 -5.88713,-0.35214 -3.99621,-2.01103 3.99621,2.01103 -3.87751,1.82188 3.87751,-1.82188 5.88713,0.35214 5.61564,4.94962 4.16141,7.71128 -9.85136,-0.0783 -5.79293,-2.28382 -3.29918,-4.37818 0.1664,-4.47392 1.49824,-3.36535 -1.49824,3.36535 -2.05646,-3.08403 2.05646,3.08403 -0.1664,4.47392 -3.65616,-2.0879 3.65616,2.0879 3.29918,4.37818 -4.08049,0.3466 4.08049,-0.3466 5.79293,2.28382 -5.63575,3.30748 -4.8963,0.69587 -3.58014,-1.95309 3.58014,1.95309 4.8963,-0.69587 -1.42503,3.35806 1.42503,-3.35806 5.63575,-3.30748 9.85136,0.0783 10.089,4.41726 8.07834,12.75402 0,18"
         inkscape:connector-curvature="0"
         transform="matrix(0.73359884,0,0,1.0542094,42.298476,-234.09107)" />
    </g>
    <g
       id="g4485">
      <path
         sodipodi:nodetypes="ccccccc"
         inkscape:connector-curvature="0"
         id="path4010"
         d="m 149.29578,488.27768 140.84507,-78.16902 166.9014,-5.6338 150.70423,79.57746 1.40352,21.02259 -460.5659,0.70462 z"
         style="fill:#403907;fill-opacity:0.2964824;stroke:none" />
      <path
         style="fill:#999999;stroke:#d5d2c5;stroke-width:1px;stroke-linecap:butt;stroke-linejoin:miter;stroke-opacity:1"
         d="M 151.06383,503.42601 288.82979,411.40474"
         id="path2996"
         inkscape:connector-curvature="0" />
      <path
         style="fill:#f0ecc3;fill-opacity:1;stroke:#f6ebd0;stroke-width:1px;stroke-linecap:butt;stroke-linejoin:miter;stroke-opacity:1"
         d="m 152.12766,486.40474 133.51064,-76.06383 -3.72341,0 -129.25532,70.74468 z"
         id="path3766"
         inkscape:connector-curvature="0" />
      <path
         style="fill:none;stroke:#f2eaca;stroke-width:1px;stroke-linecap:butt;stroke-linejoin:miter;stroke-opacity:1"
         d="m 461.17021,408.21325 121.2766,81.38298"
         id="path3768"
         inkscape:connector-curvature="0" />
      <path
         inkscape:connector-curvature="0"
         id="path3770"
         d="m 604.25532,481.61752 -136.70213,-75.53192 2.65958,-0.53191 133.51064,70.74468 z"
         style="fill:#f0ecc3;fill-opacity:1;stroke:#f6ebd0;stroke-width:1px;stroke-linecap:butt;stroke-linejoin:miter;stroke-opacity:1"
         sodipodi:nodetypes="ccccc" />
      <path
         style="fill:#e6a856;fill-opacity:1;stroke:none"
         d="m 360.6383,505.02176 10.6383,0 1.06383,-95.74468 -2.65958,1.59574 z"
         id="path3772"
         inkscape:connector-curvature="0"
         sodipodi:nodetypes="ccccc" />
      <path
         sodipodi:nodetypes="ccccc"
         inkscape:connector-curvature="0"
         id="path3774"
         d="m 387.23404,505.55367 -10.6383,0 -1.06383,-95.74468 3.19149,-1.59575 z"
         style="fill:#e6a856;fill-opacity:1;stroke:none" />
      <path
         style="fill:#e8eef0;fill-opacity:1;stroke:#5a8797;stroke-width:1px;stroke-linecap:butt;stroke-linejoin:miter;stroke-opacity:1;filter:url(#filter4028)"
         d="m 153.19149,217.78772 c 4.82106,13.69982 -3.7862,30.67751 3.42374,44.82922 5.10011,13.93331 20.94406,17.49212 34.09006,17.88821 13.11232,2.6817 23.12404,12.78628 34.1295,18.93418 12.65609,3.37029 24.147,-4.7077 35.99212,-7.86354 14.88777,-3.74717 19.54597,-23.82374 35.35578,-24.80215 14.992,3.44168 19.79153,20.1285 28.2854,30.80131 14.1443,4.7343 23.43608,-15.44187 37.15668,-12.43372 8.27677,9.71732 22.31266,16.16267 32.21936,3.81474 8.58901,-8.69114 21.03327,-9.29929 23.25539,-21.42647 5.27344,-0.12095 20.54786,-3.40031 31.78408,-3.10556 12.80348,-2.26697 24.88569,-7.23582 37.54501,-10.12671 11.24667,-4.03565 25.95161,-10.07616 25.53201,-24.30641 -0.84866,-8.67512 -12.10129,-17.07521 -22.067,-18.05417"
         id="path3776"
         inkscape:connector-curvature="0"
         sodipodi:nodetypes="cccccccccccccc" />
      <g
         id="g4348">
        <path
           style="opacity:0.72083285;fill:#0a213d;fill-opacity:0.2964824;stroke:none"
           d="m 222.53521,444.61569 c 0,0 41.73226,2.77552 54.22536,-2.8169 17.86645,-7.99776 55.69507,-15.93778 54.92958,-9.85915 -0.76549,6.07863 -34.17631,21.92061 -23.23944,23.94366 6.39893,1.18365 62.92855,-18.06705 65.49296,-16.90141 15.49296,7.04225 21.4569,6.20759 27.46479,-0.70422 8.28296,-9.52916 27.46478,-17.60564 27.46478,-17.60564 0,0 22.3787,-3.7986 38.02817,-7.74648 5.94997,-1.50099 -15.49295,-9.15493 -15.49295,-9.15493 l -81.69015,4.22536 -54.92957,0 c 0,0 -29.23815,0.89587 -34.50704,7.04225 -12.13783,14.15929 -45.4282,11.91849 -57.74649,29.57746 z"
           id="path4008"
           inkscape:connector-curvature="0"
           sodipodi:nodetypes="sszssscscccss" />
        <path
           style="fill:none;stroke:#d3d3d3;stroke-width:1px;stroke-linecap:butt;stroke-linejoin:miter;stroke-opacity:1"
           d="M 598.11191,366.99456 154.02589,363.76877"
           id="path4578"
           inkscape:connector-curvature="0"
           sodipodi:nodetypes="cc" />
        <path
           style="fill:url(#linearGradient4572);fill-opacity:1;stroke:#c5ced0;stroke-width:1px;stroke-linecap:butt;stroke-linejoin:miter;stroke-opacity:1"
           d="m 149.29578,477.7143 c 9.85916,14.08451 2.2508,6.77735 60.56338,-26.76056 25.88365,-14.88673 86.61972,-33.09859 86.61972,-33.09859 0,0 39.51163,6.49049 44.3662,5.6338 11.97182,-2.11268 35.91549,1.40845 43.66197,1.40845 7.74648,0 40.84507,-1.40845 45.77465,-1.40845 4.92957,0 45.07042,-11.97183 45.07042,-11.97183 0,0 14.85845,-4.36945 9.15493,2.11267 -2.08042,2.36443 8.86044,-0.21646 11.97183,-0.70422 12.20117,-1.91271 28.87324,10.56338 28.87324,10.56338 0,0 31.80635,0.92346 43.10919,9.01106 12.69459,9.08344 22.56551,24.76776 26.79086,18.87021 2.46087,-3.43478 8.97319,-61.68409 8.97319,-61.68409 l -21.83099,2.11268 c 0,0 -35.91549,-1.40845 -39.43662,0 -3.52112,1.40845 -33.87507,2.28291 -50.70422,0.70422 -12.87984,-1.20822 -27.02859,-0.93772 -38.02817,-7.74647 -8.10521,-5.01713 -8.99409,-18.44777 -17.60564,-22.53522 -19.93872,-9.46384 -37.89584,11.32972 -66.19718,1.40845 -10.21177,-3.57982 -16.90141,2.11268 -31.69014,-7.04225 -2.39511,-1.48269 -35.67612,-6.10327 -53.52113,-1.40845 -13.621,3.58353 -21.83131,12.77121 -42.25352,0 -14.72945,-9.2112 -33.42265,3.88763 -52.11267,-0.70422 -7.19799,-1.76844 -9.85916,-4.22536 -21.83099,-4.22536 -3.79237,0 -21.12676,-3.52112 -21.12676,-3.52112 1.89778,13.42338 -0.4657,139.58347 1.40845,130.98591 z"
           id="path4164"
           inkscape:connector-curvature="0"
           sodipodi:nodetypes="cscssscsscssccsssssssssscc" />
        <path
           style="fill:#e6edef;fill-opacity:1;stroke:#778d91;stroke-opacity:0.36683415"
           d="m 525.9901,419.93644 c -2.30912,0.5949 -5.47569,-0.87903 -7.67327,0 -5.66327,2.26531 -6.09432,14.29428 1.48515,12.12871 7.69771,-2.19934 29.05245,-1.1285 3.46535,-11.88119"
           id="path4192"
           inkscape:connector-curvature="0"
           sodipodi:nodetypes="cssc" />
        <path
           style="fill:#e6edef;fill-opacity:1;stroke:none"
           d="m 486.13861,393.69882 c 3.89753,1.76759 8.75908,2.47524 13.11882,2.47524 4.8025,0 15.92239,0.16163 18.31683,4.9505 0.62312,1.24625 -11.27265,2.43695 -12.87129,1.9802 -2.58109,-0.73746 -5.36657,-1.02237 -7.92079,-1.9802 -3.49206,-1.30952 -6.65247,-2.63344 -10.39604,-3.46535 -1.20498,-0.26777 -2.58993,-0.42863 -3.71287,-0.9901 -0.38914,-0.19457 -2.84732,-3.1248 -2.47525,-3.21782 1.50369,-0.37592 2.92329,0.36659 4.20792,0.49505 0.58053,0.058 1.19413,-0.47192 1.73267,-0.24752 6.31169,2.62987 -2.5311,0.82242 2.47525,1.73267 1.91287,0.34779 3.78708,0.42491 5.69307,0.74257"
           id="path4194"
           inkscape:connector-curvature="0" />
        <path
           style="fill:#e6edef;fill-opacity:1;stroke:none"
           d="m 443.31683,372.90674 c -2.96442,-0.97454 -4.99309,-3.47906 -6.79186,-5.88698 -2.2285,-2.67167 -6.65057,-3.74674 -9.50679,-1.45179 -1.55222,1.29436 -2.27469,3.51673 -1.89948,5.47839 0.92327,2.34958 4.50243,1.84444 6.19641,3.71778 3.05179,3.56557 4.79873,3.64777 5.95404,5.76996 2.7048,3.93133 2.39163,9.77495 5.96308,12.96405 1.53227,1.15027 3.02748,2.60821 4.95082,3.02985 1.23301,-0.50882 0.73665,-2.46519 1.07008,-3.6141 0.15021,-1.8695 0.39869,-3.77038 0.10504,-5.63585 -2.43098,-4.43603 -2.87348,-10.35712 -6.1964,-14.25594 -1.57909,-1.6597 0.88931,-0.54231 -0.33998,-0.85795"
           id="path4200"
           inkscape:connector-curvature="0"
           sodipodi:nodetypes="cccccccccccc" />
        <path
           style="fill:#eaf1f3;fill-opacity:1;stroke:#c5ced0;stroke-width:1px;stroke-linecap:butt;stroke-linejoin:miter;stroke-opacity:0.36683415000000003"
           d="m 443.01076,407.2009 c -17.05414,-8.06209 -34.45727,-16.56887 -53.76344,-20.43011 -18.80397,-3.76079 -39.93628,0.81773 -54.83871,10.75269 -0.78546,0.52364 -4.6827,0.38162 -5.37635,1.07527 -3.48248,3.48248 -9.14778,22.84547 -5.37634,24.73119 3.21474,1.60737 25.51961,-0.87817 29.03226,-1e-5 10.55623,2.63906 22.79629,-1.55899 33.33333,1.07527 7.77433,1.94358 15.84352,3.42325 23.65591,5.37634 3.03667,0.75917 78.7946,2.30898 80.64517,1.07527 3.23887,-2.15924 -0.56179,-11.54538 -8.60216,-16.12903 -13.22424,-7.53888 -8.75634,-10.52242 -18.27957,-12.90322 -6.17246,-1.54312 -25.69345,4.30107 -32.25806,4.30107"
           id="path4203"
           inkscape:connector-curvature="0"
           sodipodi:nodetypes="cssssssssssc" />
        <path
           style="fill:#e1e5e7;fill-opacity:1;stroke:#dde2e3;stroke-width:1px;stroke-linecap:butt;stroke-linejoin:miter;stroke-opacity:0.36683415"
           d="m 140.86021,482.46971 c 7.55551,6.39085 103.38602,-15.16057 112.90323,-21.50538 9.87804,-6.58536 8.06407,-9.3187 -1.07527,-19.35484 -16.11431,-28.29318 -13.04196,-21.75921 -34.4086,-35.48387 -6.04201,-4.028 -9.78977,-15.22228 -13.9785,-21.50537 -10.47544,-15.71317 -24.19101,-21.68374 -39.78495,-26.88172 -2.13125,-0.71042 -8.80342,-7.32561 -11.82795,-4.30108 -1.09038,1.09038 -1.67819,4.0649 -4.30108,5.37635 -1.8804,0.9402 -5.31923,3.11159 -6.45161,5.37634 -0.64337,1.28674 -2.5397,12.88017 -1.07527,13.97849 1.18225,0.88669 3.03386,0.31494 4.30108,1.07527 -4.64687,34.36119 -3.79147,70.77312 0,63.44086 2.27842,-4.09947 -6.51153,42.05531 -2.15054,33.33334"
           id="path4259"
           inkscape:connector-curvature="0"
           sodipodi:nodetypes="csccssssssccc" />
        <path
           style="opacity:0.54166667;fill:#bcc5ca;fill-opacity:1;stroke:none;filter:url(#filter4309)"
           d="m 160.03992,478.11935 c 10.15691,0 -10.86898,2.15053 -0.71207,2.15053 4.14502,0 40.87841,-1.2999 50.00431,-8.60215 9.12809,-1.26004 24.59637,-3.96988 35.84707,-6.83926 1.42944,-0.34314 18.26062,-8.41571 12.18829,-9.50897 -12.83982,-2.31167 -60.75367,2.38289 -71.09837,6.1078 -9.60503,3.45858 -31.23003,-3.92775 -38.71542,1.46292 -4.31595,3.10818 -2.02184,11.82998 -1.49231,12.00332"
           id="path4271"
           inkscape:connector-curvature="0"
           sodipodi:nodetypes="csccsssc" />
        <path
           sodipodi:nodetypes="ccccccccccc"
           inkscape:connector-curvature="0"
           id="path4313"
           d="m 221.69625,396.42192 c -8.69514,-2.17813 -11.41976,-15.30269 -16.69586,-20.68447 -6.53656,-5.97126 -24.88358,-14.82569 -33.26135,-9.6964 -4.55292,2.89293 5.1559,7.86 8.40699,16.54544 2.70811,5.25138 4.60424,6.27292 9.57297,10.45989 8.95141,7.96916 14.07548,8.15288 17.4642,12.89604 7.93363,8.78665 7.01505,21.84732 17.49071,28.97506 4.49441,2.57089 8.88011,5.82943 14.52159,6.77181 3.61662,-1.13723 2.16072,-5.50978 3.13872,-8.07763 0.44059,-4.17839 1.16943,-8.42692 0.3081,-12.5963 -7.13047,-9.91466 -12.72948,-14.54633 -20.32562,-25.41086"
           style="opacity:0.91000001;fill:#dae2e4;fill-opacity:1;stroke:none" />
      </g>
    </g>
  </g>
</svg>
