<?xml version="1.0" encoding="UTF-8" standalone="no"?>
<!-- Created with Inkscape (http://www.inkscape.org/) -->
<svg id="svg13333" xmlns:rdf="http://www.w3.org/1999/02/22-rdf-syntax-ns#" xmlns="http://www.w3.org/2000/svg" height="82.899" width="120.17" version="1.1" xmlns:cc="http://creativecommons.org/ns#" xmlns:dc="http://purl.org/dc/elements/1.1/">
 <defs id="defs13335"></defs>
 <metadata id="metadata13338">
  <rdf:RDF>
   <cc:Work rdf:about="">
    <dc:format>image/svg+xml</dc:format>
    <dc:type rdf:resource="http://purl.org/dc/dcmitype/StillImage"/>
    <dc:title/>
   </cc:Work>
  </rdf:RDF>
 </metadata>
 <g id="layer1" stroke="#000" transform="translate(-186.05975,-707.01278)">
  <g id="g3635-5-9" transform="matrix(0.39432321,0,0,0.22224307,109.21436,713.57467)" stroke-dasharray="none" stroke-miterlimit="4">
   <path id="path3236-4-7" stroke-linejoin="round" d="m257.71,196.39c-6.1062,3.7905-10.749,8.0442-15.856,2.0154-5.1079-6.0288-10.558,4.0389-14.616,5.5205-4.0576,1.4816-12.19-7.5063-13.708,0.2566-1.5188,7.763,5.1636,11.346,11.432,14.766,6.2684,3.4198,18.513-12.018,16.436,8.6771-2.0768,20.695-38.917,14.545-37.995,49.658,0.94028,35.776,19.758,46.112,45.361,47.154,26.276,1.0692,48.396-11.044,48.439-43.334,0.0434-32.964-28.874-37.759-37.954-52.17-9.0804-14.411,0.87599-6.7804,8.2668-10.38,7.3908-3.5994,10.466-1.0485,14.814-7.3475,4.3482-6.299-5.2714-8.2616-11.791-5.3714s-6.7222-13.236-12.828-9.4452z" fill-rule="evenodd" stroke-linecap="butt" stroke-width="6.85734081" fill="#af794b"/>
   <path id="path3604-1-85" stroke-linejoin="round" d="m267.47,268.91c-12.262-17.131-63.188,0.93021-15.567,11.855s-6.013,35.099-19.277,8.1411" stroke-linecap="round" stroke-width="4.89120436" fill="none"/>
   <path id="path3606-1-9" stroke-linejoin="miter" d="m246.47,253.93,0,51.518" stroke-linecap="round" stroke-width="4.89120436" fill="none"/>
   <path id="path3624-6-8" stroke-linejoin="miter" d="m256.28,255.02,0,22.576,0,28.942" stroke-linecap="round" stroke-width="4.89120436" fill="none"/>
  </g>
  <g id="g3635-5-5" transform="matrix(0.39432321,0,0,0.22224307,185.68482,712.50517)" stroke-dasharray="none" stroke-miterlimit="4">
   <path id="path3236-4-6" stroke-linejoin="round" d="m257.71,196.39c-6.1062,3.7905-10.749,8.0442-15.856,2.0154-5.1079-6.0288-10.558,4.0389-14.616,5.5205-4.0576,1.4816-12.19-7.5063-13.708,0.2566-1.5188,7.763,5.1636,11.346,11.432,14.766,6.2684,3.4198,18.513-12.018,16.436,8.6771-2.0768,20.695-38.917,14.545-37.995,49.658,0.94028,35.776,19.758,46.112,45.361,47.154,26.276,1.0692,48.396-11.044,48.439-43.334,0.0434-32.964-28.874-37.759-37.954-52.17-9.0804-14.411,0.87599-6.7804,8.2668-10.38,7.3908-3.5994,10.466-1.0485,14.814-7.3475,4.3482-6.299-5.2714-8.2616-11.791-5.3714s-6.7222-13.236-12.828-9.4452z" fill-rule="evenodd" stroke-linecap="butt" stroke-width="6.85734081" fill="#af794b"/>
   <path id="path3604-1-89" stroke-linejoin="round" d="m267.47,268.91c-12.262-17.131-63.188,0.93021-15.567,11.855s-6.013,35.099-19.277,8.1411" stroke-linecap="round" stroke-width="4.89120436" fill="none"/>
   <path id="path3606-1-0" stroke-linejoin="miter" d="m246.47,253.93,0,51.518" stroke-linecap="round" stroke-width="4.89120436" fill="none"/>
   <path id="path3624-6-62" stroke-linejoin="miter" d="m256.28,255.02,0,22.576,0,28.942" stroke-linecap="round" stroke-width="4.89120436" fill="none"/>
  </g>
  <g id="g11413" stroke-linejoin="miter" transform="translate(397.53194,3857.6622)" stroke-linecap="butt" stroke-width="1.47520232px" fill="none">
   <path id="path9064-0" d="m-149.88-3146.9c5.4227-3.8787,6.7348,4.0701,6.7473,9.2251,0.0393,16.204-16.221,15.49-14.604-1.4763,0.44092-4.6261,0.91318-5.8168,3.9366-6.5727,4.6785-1.1696,6.7094-0.9228,10.977,0.784"/>
   <path id="path9066-6" d="m-151.09-3126.7c1.3647,15.986-0.9444,19.932-0.9444,31.159"/>
   <path id="path9068-5" d="m-150.96-3122c3.668,5.5714,16.47,21.09,9.7599,27.8"/>
   <path id="path9070-4" d="m-151.52-3120.9c-5.4532,6.0085-8.9213,17.656-9.7625,25.164"/>
   <path id="path9096-2" d="m-151.83-3096.2c3.9825,12.321,5.1514,16.592,7.2456,26.247"/>
   <path id="path9098-6" d="m-151.99-3095.9c-2.9354,11.274-6.5758,19.433-8.1465,25.947"/>
  </g>
 </g>
</svg>
