<?xml version="1.0" encoding="UTF-8" standalone="no"?>
<!-- Created with Inkscape (http://www.inkscape.org/) -->
<svg id="svg3108" xmlns:rdf="http://www.w3.org/1999/02/22-rdf-syntax-ns#" xmlns="http://www.w3.org/2000/svg" xmlns:osb="http://www.openswatchbook.org/uri/2009/osb" height="75" width="75" version="1.1" xmlns:cc="http://creativecommons.org/ns#" xmlns:xlink="http://www.w3.org/1999/xlink" xmlns:dc="http://purl.org/dc/elements/1.1/">
 <defs id="defs3110">
  <linearGradient id="linearGradient3106" y2="457.81" gradientUnits="userSpaceOnUse" y1="457.81" gradientTransform="translate(-18.150165,-57.853652)" x2="-604.69" x1="-630.48">
   <stop id="stop4130" stop-color="#FFF" offset="0"/>
  </linearGradient>
 </defs>
 <metadata id="metadata3113">
  <rdf:RDF>
   <cc:Work rdf:about="">
    <dc:format>image/svg+xml</dc:format>
    <dc:type rdf:resource="http://purl.org/dc/dcmitype/StillImage"/>
    <dc:title/>
   </cc:Work>
  </rdf:RDF>
 </metadata>
 <g id="layer1" transform="translate(-444.89273,-349.04089)">
  <g id="g3084" transform="matrix(1.1466416,0,0,1.1466416,1211.5766,-96.084784)">
   <path id="path3057" d="m-947.5,342.77c-4.392,0-10.44-4.752-12.96-8.568l-1.872,0.072c-0.288,2.592-0.864,6.624-1.44,8.784l0.144,0.216s6.696,3.24,15.48,3.24c10.584,0,17.208-6.768,17.208-14.112,0-7.848-8.496-11.88-14.256-14.616-3.888-1.8-7.344-3.528-7.344-8.856,0-3.6,2.592-6.984,6.552-6.984,4.32,0,8.568,5.112,10.44,8.64l2.16-0.072c0.288-2.592,0.792-6.48,1.44-8.64l-0.144-0.216s-5.904-3.24-14.688-3.24c-8.136,0-15.552,4.824-15.552,12.456,0,2.808,0.504,5.544,2.232,7.776,3.312,4.392,8.856,7.056,13.032,9.144,3.384,1.728,6.264,4.608,6.264,7.56,0,5.112-2.376,7.416-6.696,7.416" transform="translate(311.42853,100)" fill="#000"/>
   <path id="path3198" stroke-linejoin="miter" d="m-640.41,396.16c-5.2153,0-10.881,7.709-5.9326,7.709,1.2304,0,9.8312-2.6095,10.833-3.6109,2.8238-2.8238,9.7408,2.2954,12.036,0,1.6338-1.6338-7.3325-5.7019-17.106-4.0981" stroke="#000" stroke-linecap="butt" stroke-width="1px" fill="url(#linearGradient3106)"/>
  </g>
 </g>
</svg>
