<?xml version="1.0" encoding="UTF-8" standalone="no"?>
<!-- Created with Inkscape (http://www.inkscape.org/) -->

<svg
   xmlns:dc="http://purl.org/dc/elements/1.1/"
   xmlns:cc="http://creativecommons.org/ns#"
   xmlns:rdf="http://www.w3.org/1999/02/22-rdf-syntax-ns#"
   xmlns:svg="http://www.w3.org/2000/svg"
   xmlns="http://www.w3.org/2000/svg"
   xmlns:xlink="http://www.w3.org/1999/xlink"
   xmlns:sodipodi="http://sodipodi.sourceforge.net/DTD/sodipodi-0.dtd"
   xmlns:inkscape="http://www.inkscape.org/namespaces/inkscape"
   id="svg10395"
   height="338.49219"
   width="439.1962"
   version="1.1"
   inkscape:version="0.48.4 r9939"
   sodipodi:docname="flo-funding.svg"
   inkscape:export-filename="/home/aaron/sites-programs/snowdrift/static/img/intro/flo-funding.png"
   inkscape:export-xdpi="90"
   inkscape:export-ydpi="90">
  <sodipodi:namedview
     pagecolor="#ffffff"
     bordercolor="#666666"
     borderopacity="1"
     objecttolerance="10"
     gridtolerance="10"
     guidetolerance="10"
     inkscape:pageopacity="0"
     inkscape:pageshadow="2"
     inkscape:window-width="1366"
     inkscape:window-height="710"
     id="namedview184"
     showgrid="false"
     fit-margin-top="8"
     fit-margin-left="8"
     fit-margin-right="8"
     fit-margin-bottom="8"
     inkscape:zoom="0.93303299"
     inkscape:cx="318.29652"
     inkscape:cy="160.13533"
     inkscape:window-x="0"
     inkscape:window-y="35"
     inkscape:window-maximized="1"
     inkscape:current-layer="g15739" />
  <defs
     id="defs10397">
    <marker
       inkscape:stockid="Arrow1Mend"
       orient="auto"
       refY="0"
       refX="0"
       id="Arrow1Mend"
       style="overflow:visible">
      <path
         id="path4718"
         d="M 0,0 5,-5 -12.5,0 5,5 0,0 z"
         style="fill-rule:evenodd;stroke:#000000;stroke-width:1pt"
         transform="matrix(-0.4,0,0,-0.4,-4,0)"
         inkscape:connector-curvature="0" />
    </marker>
    <marker
       id="Arrow2Lstart"
       refY="0"
       refX="0"
       orient="auto">
      <path
         id="path5670"
         d="M 8.7186,4.0337 -2.2073,0.016013 8.7186,-4.0017 c -1.7455,2.3721 -1.7354,5.6175 -6e-7,8.0354 z"
         transform="matrix(1.1,0,0,1.1,1.1,0)"
         inkscape:connector-curvature="0"
         style="fill-rule:evenodd;stroke-width:0.625;stroke-linejoin:round" />
    </marker>
    <marker
       id="Arrow2Lend"
       refY="0"
       refX="0"
       orient="auto">
      <path
         id="path5673"
         d="M 8.7186,4.0337 -2.2073,0.016013 8.7186,-4.0017 c -1.7455,2.3721 -1.7354,5.6175 -6e-7,8.0354 z"
         transform="matrix(-1.1,0,0,-1.1,-1.1,0)"
         inkscape:connector-curvature="0"
         style="fill-rule:evenodd;stroke-width:0.625;stroke-linejoin:round" />
    </marker>
    <marker
       id="marker5223"
       refY="0"
       refX="0"
       orient="auto">
      <path
         id="path5225"
         d="M 8.7186,4.0337 -2.2073,0.016013 8.7186,-4.0017 c -1.7455,2.3721 -1.7354,5.6175 -6e-7,8.0354 z"
         transform="matrix(-1.1,0,0,-1.1,-1.1,0)"
         inkscape:connector-curvature="0"
         style="fill-rule:evenodd;stroke-width:0.625;stroke-linejoin:round" />
    </marker>
    <marker
       id="marker5219"
       refY="0"
       refX="0"
       orient="auto">
      <path
         id="path5221"
         d="M 8.7186,4.0337 -2.2073,0.016013 8.7186,-4.0017 c -1.7455,2.3721 -1.7354,5.6175 -6e-7,8.0354 z"
         transform="matrix(1.1,0,0,1.1,1.1,0)"
         inkscape:connector-curvature="0"
         style="fill-rule:evenodd;stroke-width:0.625;stroke-linejoin:round" />
    </marker>
    <filter
       id="filter4593-5"
       color-interpolation-filters="sRGB">
      <feGaussianBlur
         id="feGaussianBlur4595-8"
         stdDeviation="4.048535" />
    </filter>
    <radialGradient
       id="radialGradient12579"
       gradientUnits="userSpaceOnUse"
       cy="35.737"
       cx="33.966999"
       gradientTransform="scale(0.960493,1.041132)"
       r="86.708">
      <stop
         id="stop260"
         stop-color="#fafafa"
         offset="0" />
      <stop
         id="stop261"
         stop-color="#BBB"
         offset="1" />
    </radialGradient>
    <radialGradient
       id="radialGradient12581"
       gradientUnits="userSpaceOnUse"
       cy="3.7560999"
       cx="8.8243999"
       gradientTransform="matrix(0.968273,0,0,1.032767,3.353553,0.646447)"
       r="37.751999">
      <stop
         id="stop270"
         stop-color="#a3a3a3"
         offset="0" />
      <stop
         id="stop271"
         stop-color="#4c4c4c"
         offset="1" />
    </radialGradient>
    <radialGradient
       id="radialGradient12583"
       gradientUnits="userSpaceOnUse"
       cy="7.2679"
       cx="8.1436005"
       gradientTransform="matrix(0.968273,0,0,1.032767,3.353553,0.646447)"
       r="38.159">
      <stop
         id="stop15664"
         stop-color="#FFF"
         offset="0" />
      <stop
         id="stop15666"
         stop-color="#f8f8f8"
         offset="1" />
    </radialGradient>
    <radialGradient
       id="radialGradient12585"
       gradientUnits="userSpaceOnUse"
       cy="114.57"
       cx="20.892"
       gradientTransform="matrix(0.229703,0,0,0.229703,4.613529,3.979808)"
       r="5.256">
      <stop
         id="stop15566"
         stop-color="#f0f0f0"
         offset="0" />
      <stop
         id="stop15568"
         stop-color="#9a9a9a"
         offset="1" />
    </radialGradient>
    <radialGradient
       id="radialGradient12587"
       gradientUnits="userSpaceOnUse"
       cy="64.568001"
       cx="20.892"
       gradientTransform="matrix(0.229703,0,0,0.229703,4.613529,3.979808)"
       r="5.257">
      <stop
         id="stop15573"
         stop-color="#f0f0f0"
         offset="0" />
      <stop
         id="stop15575"
         stop-color="#9a9a9a"
         offset="1" />
    </radialGradient>
    <radialGradient
       id="radialGradient12589"
       gradientUnits="userSpaceOnUse"
       cy="41.636002"
       cx="24.218"
       gradientTransform="matrix(1,0,0,0.184,0,33.97501)"
       r="22.097">
      <stop
         id="stop12131"
         stop-color="#000"
         offset="0" />
      <stop
         id="stop12133"
         stop-color="#000"
         stop-opacity="0"
         offset="1" />
    </radialGradient>
    <linearGradient
       id="linearGradient12591"
       y2="36.033001"
       gradientUnits="userSpaceOnUse"
       x2="31.080999"
       gradientTransform="matrix(1.2555226,0,0,0.97664965,-3.2165457,4.2018909)"
       y1="3.7319"
       x1="12.487">
      <stop
         id="stop16177"
         stop-color="#d2d2d2"
         offset="0" />
      <stop
         id="stop16179"
         stop-color="#ededed"
         offset="1" />
    </linearGradient>
    <linearGradient
       id="linearGradient12593"
       y2="22.577"
       gradientUnits="userSpaceOnUse"
       x2="21.917"
       gradientTransform="matrix(1.110455,0,0,1.118244,-0.223961,1.61786)"
       y1="30.341"
       x1="21.877001">
      <stop
         id="stop16184"
         stop-color="#5e4f07"
         offset="0" />
      <stop
         id="stop16186"
         stop-color="#348a31"
         offset="1" />
    </linearGradient>
    <linearGradient
       id="linearGradient12595"
       y2="7.1090999"
       gradientUnits="userSpaceOnUse"
       x2="21.933001"
       gradientTransform="matrix(1.098989,0,0,1.106697,0.02774881,1.968146)"
       y1="24.627001"
       x1="21.933001">
      <stop
         id="stop16199"
         stop-color="#d0d6e5"
         offset="0" />
      <stop
         id="stop16201"
         stop-color="#093a80"
         offset="1" />
    </linearGradient>
    <linearGradient
       id="linearGradient12597"
       y2="27.351999"
       gradientUnits="userSpaceOnUse"
       x2="27.238001"
       y1="20.226999"
       x1="27.309">
      <stop
         id="stop2394"
         stop-color="#715b26"
         offset="0" />
      <stop
         id="stop2396"
         stop-color="#312710"
         offset="1" />
    </linearGradient>
  </defs>
  <metadata
     id="metadata10400">
    <rdf:RDF>
      <cc:Work
         rdf:about="">
        <dc:format>image/svg+xml</dc:format>
        <dc:type
           rdf:resource="http://purl.org/dc/dcmitype/StillImage" />
        <dc:title></dc:title>
      </cc:Work>
    </rdf:RDF>
  </metadata>
  <g
     id="layer1"
     transform="translate(-383.92666,-327.61099)">
    <g
       id="g12440">
      <g
         id="g15739"
         transform="translate(-29.555454,3306.6114)">
        <path
           id="path8320-5"
           style="fill:none;stroke:#000000;stroke-width:1.20000005;stroke-linecap:butt;stroke-linejoin:miter;stroke-miterlimit:4;stroke-dasharray:none;marker-start:url(#Arrow2Lstart);marker-end:url(#Arrow1Mend)"
           d="m 791.8697,-2866.2823 -57.4327,9.5603"
           stroke-miterlimit="4"
           inkscape:connector-curvature="0"
           sodipodi:nodetypes="cc" />
        <g
           id="layer1-8-5-4"
           transform="matrix(0.70329316,0,0,0.4866829,420.44513,-2820.7466)">
          <g
             id="g3635-5-2"
             transform="matrix(1.0776677,0,0,0.9338009,-214.84682,-177.08134)"
             stroke-miterlimit="4"
             style="stroke:#000000;stroke-miterlimit:4;stroke-dasharray:none">
            <path
               id="path3236-4-2"
               d="m 257.71,196.39 c -6.1062,3.7905 -10.749,8.0442 -15.856,2.0154 -5.1079,-6.0288 -10.558,4.0389 -14.616,5.5205 -4.0576,1.4816 -12.19,-7.5063 -13.708,0.2566 -1.5188,7.763 5.1636,11.346 11.432,14.766 6.2684,3.4198 18.513,-12.018 16.436,8.6771 -2.0768,20.695 -38.917,14.545 -37.995,49.658 0.94028,35.776 19.758,46.112 45.361,47.154 26.276,1.0692 48.396,-11.044 48.439,-43.334 0.0434,-32.964 -28.874,-37.759 -37.954,-52.17 -9.0804,-14.411 0.87599,-6.7804 8.2668,-10.38 7.3908,-3.5994 10.466,-1.0485 14.814,-7.3475 4.3482,-6.299 -5.2714,-8.2616 -11.791,-5.3714 -6.5196,2.8902 -6.7222,-13.236 -12.828,-9.4452 z"
               inkscape:connector-curvature="0"
               style="fill:#af794b;fill-rule:evenodd;stroke-width:6.85734081;stroke-linecap:butt;stroke-linejoin:round" />
            <path
               id="path3604-1-8"
               d="m 267.47,268.91 c -12.262,-17.131 -63.188,0.93021 -15.567,11.855 47.621,10.92479 -6.013,35.099 -19.277,8.1411"
               inkscape:connector-curvature="0"
               style="fill:none;stroke-width:4.89120436;stroke-linecap:round;stroke-linejoin:round" />
            <path
               id="path3606-1-5"
               d="m 246.47,253.93 0,51.518"
               inkscape:connector-curvature="0"
               style="fill:none;stroke-width:4.89120436;stroke-linecap:round;stroke-linejoin:miter" />
            <path
               id="path3624-6-6"
               d="m 256.28,255.02 0,22.576 0,28.942"
               inkscape:connector-curvature="0"
               style="fill:none;stroke-width:4.89120436;stroke-linecap:round;stroke-linejoin:miter" />
          </g>
        </g>
        <path
           id="path8714"
           style="fill:none;stroke:#000000;stroke-width:1.20000005;stroke-linecap:butt;stroke-linejoin:miter;stroke-miterlimit:4;stroke-dasharray:none;marker-end:url(#marker5223)"
           d="m 729.08,-2797.4 68.64793,26.2777"
           inkscape:connector-curvature="0"
           sodipodi:nodetypes="cc" />
        <path
           id="path11274"
           style="fill:none;stroke:#000000;stroke-width:1.29999995;stroke-linecap:butt;stroke-linejoin:miter;stroke-miterlimit:4;stroke-dasharray:none;marker-start:url(#marker5219);marker-end:url(#marker5223)"
           d="m 647.06591,-2753.0692 -75.0765,43.4229"
           inkscape:connector-curvature="0"
           sodipodi:nodetypes="cc" />
        <path
           id="path10496"
           style="fill:none;stroke:#000000;stroke-width:1.20000005;stroke-linecap:butt;stroke-linejoin:miter;stroke-miterlimit:4;stroke-dasharray:none;marker-end:url(#marker5223)"
           d="m 517.79633,-2842.465 -18.32171,28.3567"
           inkscape:connector-curvature="0"
           sodipodi:nodetypes="cc" />
        <g
           id="g11268"
           transform="matrix(-0.99551009,0,0,0.99551009,797.65628,561.02236)"
           style="fill:none;stroke:#000000;stroke-width:1.47520232px;stroke-linecap:butt;stroke-linejoin:miter">
          <path
             id="path11270"
             d="m -25.355,-3496.1 c 5.4227,-3.8787 10.056,5.5908 8.9353,10.623 -1.1077,4.9753 -5.584,9.581 -8.742,9.9921 -4.6182,0.6012 -11.015,-5.309 -10.055,-11.864 0.67365,-4.598 2.9177,-6.8191 5.9411,-7.575 4.6785,-1.1696 6.7094,-0.9228 10.977,0.784"
             inkscape:connector-curvature="0" />
          <path
             id="path11272"
             d="m -26.556,-3475.9 c 1.3647,15.986 -0.9444,19.932 -0.9444,31.159"
             inkscape:connector-curvature="0" />
          <path
             id="path11275"
             d="m -26.428,-3471.2 c 3.668,5.5714 18.474,10.065 19.281,15.272"
             inkscape:connector-curvature="0" />
          <path
             id="path11277"
             d="m -26.991,-3470.1 c -3.9498,5.0062 -13.027,8.5391 -17.279,13.638"
             inkscape:connector-curvature="0" />
          <path
             id="path11279"
             d="m -27.303,-3445.4 c 3.9825,12.321 5.1514,16.592 7.2456,26.247"
             inkscape:connector-curvature="0" />
          <path
             id="path11281"
             d="m -27.457,-3445.1 c -2.9354,11.274 -6.5758,19.433 -8.1465,25.947"
             inkscape:connector-curvature="0" />
        </g>
        <g
           id="g11283"
           transform="matrix(-0.99551009,0,0,0.99551009,719.64423,511.04238)"
           style="fill:none;stroke:#000000;stroke-width:1.47520232px;stroke-linecap:butt;stroke-linejoin:miter">
          <path
             id="path11285"
             d="m -25.355,-3496.1 c 5.4227,-3.8787 10.056,5.5908 8.9353,10.623 -1.1077,4.9753 -5.584,9.581 -8.742,9.9921 -4.6182,0.6012 -11.015,-5.309 -10.055,-11.864 0.67365,-4.598 2.9177,-6.8191 5.9411,-7.575 4.6785,-1.1696 6.7094,-0.9228 10.977,0.784"
             inkscape:connector-curvature="0" />
          <path
             id="path11287"
             d="m -26.556,-3475.9 c 1.3647,15.986 -0.9444,19.932 -0.9444,31.159"
             inkscape:connector-curvature="0" />
          <path
             id="path11289"
             d="m -26.428,-3471.2 c 3.668,5.5714 18.474,10.065 19.281,15.272"
             inkscape:connector-curvature="0" />
          <path
             id="path11291"
             d="m -26.991,-3470.1 c -3.9498,5.0062 -13.027,8.5391 -17.279,13.638"
             inkscape:connector-curvature="0" />
          <path
             id="path11293"
             d="m -27.303,-3445.4 c 3.9825,12.321 5.1514,16.592 7.2456,26.247"
             inkscape:connector-curvature="0" />
          <path
             id="path11295"
             d="m -27.457,-3445.1 c -2.9354,11.274 -6.5758,19.433 -8.1465,25.947"
             inkscape:connector-curvature="0" />
        </g>
        <path
           id="path11297"
           style="fill:none;stroke:#000000;stroke-width:1.20000005;stroke-linecap:butt;stroke-linejoin:miter;stroke-miterlimit:4;stroke-dasharray:none;marker-start:url(#Arrow2Lstart);marker-end:url(#Arrow2Lend)"
           d="m 727.08,-2922.8 -42.84,29.721"
           stroke-miterlimit="4"
           inkscape:connector-curvature="0" />
        <g
           id="g11299"
           transform="matrix(-0.99551009,0,0,0.99551009,799.8728,701.81113)"
           style="fill:none;stroke:#000000;stroke-width:1.47520232px;stroke-linecap:butt;stroke-linejoin:miter">
          <path
             id="path11301"
             d="m -25.355,-3496.1 c 5.4227,-3.8787 10.056,5.5908 8.9353,10.623 -1.1077,4.9753 -5.584,9.581 -8.742,9.9921 -4.6182,0.6012 -11.015,-5.309 -10.055,-11.864 0.67365,-4.598 2.9177,-6.8191 5.9411,-7.575 4.6785,-1.1696 6.7094,-0.9228 10.977,0.784"
             inkscape:connector-curvature="0" />
          <path
             id="path11303"
             d="m -26.556,-3475.9 c 1.3647,15.986 -0.9444,19.932 -0.9444,31.159"
             inkscape:connector-curvature="0" />
          <path
             id="path11305"
             d="m -26.428,-3471.2 c 3.668,5.5714 18.474,10.065 19.281,15.272"
             inkscape:connector-curvature="0" />
          <path
             id="path11307"
             d="m -26.991,-3470.1 c -3.9498,5.0062 -13.027,8.5391 -17.279,13.638"
             inkscape:connector-curvature="0" />
          <path
             id="path11309"
             d="m -27.303,-3445.4 c 3.9825,12.321 5.1514,16.592 7.2456,26.247"
             inkscape:connector-curvature="0" />
          <path
             id="path11311"
             d="m -27.457,-3445.1 c -2.9354,11.274 -6.5758,19.433 -8.1465,25.947"
             inkscape:connector-curvature="0" />
        </g>
        <g
           id="g11328"
           transform="matrix(-0.99551009,0,0,0.99551009,519.35585,600.57948)"
           style="fill:none;stroke:#000000;stroke-width:1.47520232px;stroke-linecap:butt;stroke-linejoin:miter">
          <path
             id="path11330"
             d="m -25.603641,-3497.5918 c 5.919982,0.8454 10.304641,7.0826 9.183941,12.1148 -1.1077,4.9753 -5.584,9.581 -8.742,9.9921 -4.6182,0.6012 -8.791738,-4.9048 -10.055,-11.864 -0.741153,-4.1938 0.487433,-8.3109 3.510833,-9.0668 4.6785,-1.1696 6.260242,-1.9255 5.55502,-0.716"
             inkscape:connector-curvature="0"
             sodipodi:nodetypes="ccsccc" />
          <path
             id="path11332"
             d="m -26.556,-3475.9 c 1.3647,15.986 -0.134311,21.5522 -0.134311,32.7792"
             inkscape:connector-curvature="0"
             sodipodi:nodetypes="cc" />
          <path
             id="path11334"
             d="m -26.428,-3471.2 c 3.668,5.5714 18.474,10.065 19.281,15.272"
             inkscape:connector-curvature="0" />
          <path
             id="path11336"
             d="m -26.991,-3470.1 c -3.9498,5.0062 -13.027,8.5391 -17.279,13.638"
             inkscape:connector-curvature="0" />
          <path
             id="path11338"
             d="m -26.34888,-3445.4 c -3.9825,12.321 -5.1514,16.592 -7.2456,26.247"
             inkscape:connector-curvature="0"
             style="stroke-width:1.47520232" />
          <path
             id="path11340"
             d="m -26.19488,-3445.1 c 2.9354,11.274 6.5758,19.433 8.1465,25.947"
             inkscape:connector-curvature="0"
             style="stroke-width:1.47520232" />
        </g>
        <g
           id="g11342"
           transform="matrix(0.99551009,0,0,0.99551009,569.38971,754.55878)"
           style="fill:none;stroke:#000000;stroke-width:1.47520232px;stroke-linecap:butt;stroke-linejoin:miter">
          <path
             id="path11344"
             d="m -25.355,-3496.1 c 5.4227,-3.8787 10.056,5.5908 8.9353,10.623 -1.1077,4.9753 -5.584,9.581 -8.742,9.9921 -4.6182,0.6012 -11.015,-5.309 -10.055,-11.864 0.67365,-4.598 2.9177,-6.8191 5.9411,-7.575 4.6785,-1.1696 6.7094,-0.9228 10.977,0.784"
             inkscape:connector-curvature="0" />
          <path
             id="path11346"
             d="m -26.556,-3475.9 c 1.3647,15.986 -0.9444,19.932 -0.9444,31.159"
             inkscape:connector-curvature="0" />
          <path
             id="path11348"
             d="m -26.428,-3471.2 c 3.668,5.5714 18.474,10.065 19.281,15.272"
             inkscape:connector-curvature="0" />
          <path
             id="path11350"
             d="m -26.991,-3470.1 c -3.9498,5.0062 -13.027,8.5391 -17.279,13.638"
             inkscape:connector-curvature="0" />
          <path
             id="path11352"
             d="m -27.303,-3445.4 c 3.9825,12.321 5.1514,16.592 7.2456,26.247"
             inkscape:connector-curvature="0" />
          <path
             id="path11354"
             d="m -27.457,-3445.1 c -2.9354,11.274 -6.5758,19.433 -8.1465,25.947"
             inkscape:connector-curvature="0" />
        </g>
        <g
           id="g11356"
           transform="matrix(0.99551009,0,0,0.99551009,518.37915,753.26873)"
           style="fill:none;stroke:#000000;stroke-width:1.47520232px;stroke-linecap:butt;stroke-linejoin:miter"
           inkscape:transform-center-y="-16.129032">
          <path
             id="path11358"
             d="m -25.355,-3496.1 c 5.4227,-3.8787 10.056,5.5908 8.9353,10.623 -1.1077,4.9753 -5.584,9.581 -8.742,9.9921 -4.6182,0.6012 -11.015,-5.309 -10.055,-11.864 0.67365,-4.598 2.9177,-6.8191 5.9411,-7.575 4.6785,-1.1696 6.7094,-0.9228 10.977,0.784"
             inkscape:connector-curvature="0" />
          <path
             id="path11360"
             d="m -26.556,-3475.9 c 1.3647,15.986 -0.9444,19.932 -0.9444,31.159"
             inkscape:connector-curvature="0" />
          <path
             id="path11362"
             d="m -26.428,-3471.2 c 3.668,5.5714 18.474,10.065 19.281,15.272"
             inkscape:connector-curvature="0" />
          <path
             id="path11364"
             d="m -26.991,-3470.1 c -3.9498,5.0062 -13.027,8.5391 -17.279,13.638"
             inkscape:connector-curvature="0" />
          <path
             id="path11366"
             d="m -27.303,-3445.4 c 3.9825,12.321 5.1514,16.592 7.2456,26.247"
             inkscape:connector-curvature="0" />
          <path
             id="path11368"
             d="m -27.457,-3445.1 c -2.9354,11.274 -6.5758,19.433 -8.1465,25.947"
             inkscape:connector-curvature="0" />
        </g>
        <path
           id="path11370"
           style="fill:none;stroke:#000000;stroke-width:1.39999998;stroke-linecap:butt;stroke-linejoin:miter;stroke-miterlimit:4;stroke-dasharray:none;marker-start:url(#marker5219);marker-end:url(#marker5223)"
           d="m 609.11581,-2781.1692 -57.3275,34.9801"
           inkscape:connector-curvature="0"
           sodipodi:nodetypes="cc" />
        <path
           id="path8602"
           style="fill:none;stroke:#000000;stroke-width:1.20000005;stroke-linecap:butt;stroke-linejoin:miter;stroke-miterlimit:4;stroke-dasharray:none;marker-start:none;marker-end:url(#marker5223)"
           d="m 602.83387,-2849.6907 -40.16505,-9.6594"
           inkscape:connector-curvature="0"
           sodipodi:nodetypes="cc" />
        <g
           id="g8606"
           transform="matrix(0.99551009,0,0,0.99551009,539.92915,521.8536)"
           style="fill:none;stroke:#000000;stroke-width:1.47520232px;stroke-linecap:butt;stroke-linejoin:miter">
          <path
             id="path8608"
             d="m -25.355,-3496.1 c 5.4227,-3.8787 10.056,5.5908 8.9353,10.623 -1.1077,4.9753 -5.584,9.581 -8.742,9.9921 -4.6182,0.6012 -11.015,-5.309 -10.055,-11.864 0.67365,-4.598 2.9177,-6.8191 5.9411,-7.575 4.6785,-1.1696 6.7094,-0.9228 10.977,0.784"
             inkscape:connector-curvature="0" />
          <path
             id="path8610"
             d="m -26.556,-3475.9 c 1.3647,15.986 -0.9444,19.932 -0.9444,31.159"
             inkscape:connector-curvature="0" />
          <path
             id="path8612"
             d="m -26.428,-3471.2 c 3.668,5.5714 18.474,10.065 19.281,15.272"
             inkscape:connector-curvature="0" />
          <path
             id="path8614"
             d="m -26.991,-3470.1 c -3.9498,5.0062 -13.027,8.5391 -17.279,13.638"
             inkscape:connector-curvature="0" />
          <path
             id="path8617"
             d="m -27.303,-3445.4 c 3.9825,12.321 5.1514,16.592 7.2456,26.247"
             inkscape:connector-curvature="0" />
          <path
             id="path8619"
             d="m -27.457,-3445.1 c -2.9354,11.274 -6.5758,19.433 -8.1465,25.947"
             inkscape:connector-curvature="0" />
        </g>
        <path
           id="path8621"
           style="fill:none;stroke:#000000;stroke-width:1.20000005;stroke-linecap:butt;stroke-linejoin:miter;stroke-miterlimit:4;stroke-dasharray:none;marker-start:none;marker-end:url(#marker5223)"
           d="m 616.22097,-2882.7617 -77.9563,-48.3028"
           inkscape:connector-curvature="0"
           sodipodi:nodetypes="cc" />
        <path
           id="path10749"
           style="fill:none;stroke:#000000;stroke-width:1.39999998;stroke-linecap:butt;stroke-linejoin:miter;stroke-miterlimit:4;stroke-dasharray:none;marker-end:url(#marker5223)"
           d="m 497.21171,-2910.0204 -29.55923,79.4339"
           inkscape:connector-curvature="0"
           sodipodi:nodetypes="cc" />
        <path
           id="path10757"
           style="fill:none;stroke:#000000;stroke-width:1.20000005;stroke-linecap:butt;stroke-linejoin:miter;stroke-miterlimit:4;stroke-dasharray:none;marker-end:url(#marker5223)"
           d="m 502.77171,-2771.2249 26.23453,40.6111"
           inkscape:connector-curvature="0"
           sodipodi:nodetypes="cc" />
        <path
           id="path10761"
           style="fill:none;stroke:#000000;stroke-width:1.20000005;stroke-linecap:butt;stroke-linejoin:miter;stroke-miterlimit:4;stroke-dasharray:none;marker-end:url(#marker5223)"
           d="m 455.94818,-2748.8125 17.15705,38.6492"
           inkscape:connector-curvature="0"
           sodipodi:nodetypes="cc" />
      </g>
      <g
         id="layer1-6"
         transform="matrix(0.58443172,0,0,0.58443172,420.63639,174.00329)">
        <g
           id="g16468"
           transform="translate(238.83797,4511.5632)">
          <g
             id="g6118"
             transform="translate(-58.463363,-2322.9493)">
            <g
               id="text3254"
               font-size="24px"
               style="font-size:24px;font-style:normal;font-variant:normal;font-weight:normal;font-stretch:normal;line-height:125%;letter-spacing:0px;word-spacing:0px;fill:#000000;font-family:Monospace"
               line-height="125%"
               font-stretch="normal"
               font-variant="normal"
               font-weight="normal"
               font-style="normal">
              <path
                 id="path6683"
                 d="m 135.56,-1710 c -1.7891,0 -3.1445,-0.7539 -4.0664,-2.2617 -0.92188,-1.5156 -1.3828,-3.7031 -1.3828,-6.5625 0,-5.875 1.8164,-8.8125 5.4492,-8.8125 1.8125,0 3.1797,0.7579 4.1016,2.2735 0.92967,1.5078 1.3945,3.6875 1.3945,6.539 -10e-6,5.8828 -1.832,8.8242 -5.4961,8.8242 m 0,-1.8164 c 1.1484,0 1.9922,-0.5468 2.5312,-1.6406 0.53905,-1.1015 0.80858,-2.8906 0.80859,-5.3672 -1e-5,-2.4609 -0.26954,-4.2382 -0.80859,-5.332 -0.53908,-1.1016 -1.3828,-1.6523 -2.5312,-1.6524 -1.1328,10e-5 -1.9648,0.5469 -2.4961,1.6407 -0.52344,1.0859 -0.78516,2.8672 -0.78515,5.3437 -1e-5,2.4844 0.26171,4.2735 0.78515,5.3672 0.53125,1.0938 1.3633,1.6406 2.4961,1.6406"
                 inkscape:connector-curvature="0" />
              <path
                 id="path6685"
                 d="m 151.66,-1710.2 -2.0625,0 0,-10.699 c -1e-5,-0.9531 0.0312,-2.3632 0.0937,-4.2304 -0.3047,0.3359 -0.77735,0.7773 -1.418,1.3242 l -1.7227,1.418 -1.1367,-1.4414 4.4883,-3.5039 h 1.7578 v 17.133"
                 inkscape:connector-curvature="0" />
              <path
                 id="path6687"
                 d="m 164.34,-1710 c -1.7891,0 -3.1445,-0.7539 -4.0664,-2.2617 -0.92188,-1.5156 -1.3828,-3.7031 -1.3828,-6.5625 0,-5.875 1.8164,-8.8125 5.4492,-8.8125 1.8125,0 3.1797,0.7579 4.1016,2.2735 0.92967,1.5078 1.3945,3.6875 1.3945,6.539 -10e-6,5.8828 -1.832,8.8242 -5.4961,8.8242 m 0,-1.8164 c 1.1484,0 1.9922,-0.5468 2.5312,-1.6406 0.53905,-1.1015 0.80858,-2.8906 0.80859,-5.3672 -1e-5,-2.4609 -0.26954,-4.2382 -0.80859,-5.332 -0.53908,-1.1016 -1.3828,-1.6523 -2.5312,-1.6524 -1.1328,10e-5 -1.9648,0.5469 -2.4961,1.6407 -0.52344,1.0859 -0.78516,2.8672 -0.78515,5.3437 -1e-5,2.4844 0.26171,4.2735 0.78515,5.3672 0.53125,1.0938 1.3633,1.6406 2.4961,1.6406"
                 inkscape:connector-curvature="0" />
              <path
                 id="path6689"
                 d="m 178.73,-1710 c -1.7891,0 -3.1445,-0.7539 -4.0664,-2.2617 -0.92187,-1.5156 -1.3828,-3.7031 -1.3828,-6.5625 0,-5.875 1.8164,-8.8125 5.4492,-8.8125 1.8125,0 3.1797,0.7579 4.1016,2.2735 0.92968,1.5078 1.3945,3.6875 1.3945,6.539 -1e-5,5.8828 -1.832,8.8242 -5.4961,8.8242 m 0,-1.8164 c 1.1484,0 1.9922,-0.5468 2.5312,-1.6406 0.53905,-1.1015 0.80858,-2.8906 0.80859,-5.3672 -1e-5,-2.4609 -0.26954,-4.2382 -0.80859,-5.332 -0.53907,-1.1016 -1.3828,-1.6523 -2.5312,-1.6524 -1.1328,10e-5 -1.9648,0.5469 -2.4961,1.6407 -0.52344,1.0859 -0.78516,2.8672 -0.78516,5.3437 0,2.4844 0.26172,4.2735 0.78516,5.3672 0.53124,1.0938 1.3633,1.6406 2.4961,1.6406"
                 inkscape:connector-curvature="0" />
              <path
                 id="path6691"
                 d="m 194.83,-1710.2 -2.0625,0 0,-10.699 c 0,-0.9531 0.0312,-2.3632 0.0937,-4.2304 -0.30469,0.3359 -0.77735,0.7773 -1.418,1.3242 l -1.7226,1.418 -1.1367,-1.4414 4.4883,-3.5039 h 1.7578 v 17.133"
                 inkscape:connector-curvature="0" />
              <path
                 id="path6693"
                 d="m 207.51,-1710 c -1.7891,0 -3.1445,-0.7539 -4.0664,-2.2617 -0.92187,-1.5156 -1.3828,-3.7031 -1.3828,-6.5625 0,-5.875 1.8164,-8.8125 5.4492,-8.8125 1.8125,0 3.1797,0.7579 4.1016,2.2735 0.92968,1.5078 1.3945,3.6875 1.3945,6.539 -1e-5,5.8828 -1.832,8.8242 -5.4961,8.8242 m 0,-1.8164 c 1.1484,0 1.9922,-0.5468 2.5312,-1.6406 0.53905,-1.1015 0.80858,-2.8906 0.80859,-5.3672 -1e-5,-2.4609 -0.26954,-4.2382 -0.80859,-5.332 -0.53907,-1.1016 -1.3828,-1.6523 -2.5312,-1.6524 -1.1328,10e-5 -1.9648,0.5469 -2.4961,1.6407 -0.52344,1.0859 -0.78516,2.8672 -0.78516,5.3437 0,2.4844 0.26172,4.2735 0.78516,5.3672 0.53124,1.0938 1.3633,1.6406 2.4961,1.6406"
                 inkscape:connector-curvature="0" />
              <path
                 id="path6695"
                 d="m 223.61,-1710.2 -2.0625,0 0,-10.699 c 0,-0.9531 0.0312,-2.3632 0.0937,-4.2304 -0.30469,0.3359 -0.77735,0.7773 -1.418,1.3242 l -1.7226,1.418 -1.1367,-1.4414 4.4883,-3.5039 h 1.7578 v 17.133"
                 inkscape:connector-curvature="0" />
              <path
                 id="path6697"
                 d="m 238,-1710.2 -2.0625,0 0,-10.699 c -1e-5,-0.9531 0.0312,-2.3632 0.0937,-4.2304 -0.3047,0.3359 -0.77735,0.7773 -1.418,1.3242 l -1.7227,1.418 -1.1367,-1.4414 4.4883,-3.5039 h 1.7578 v 17.133"
                 inkscape:connector-curvature="0" />
              <path
                 id="path6699"
                 d="m 250.68,-1710 c -1.7891,0 -3.1445,-0.7539 -4.0664,-2.2617 -0.92188,-1.5156 -1.3828,-3.7031 -1.3828,-6.5625 0,-5.875 1.8164,-8.8125 5.4492,-8.8125 1.8125,0 3.1797,0.7579 4.1016,2.2735 0.92967,1.5078 1.3945,3.6875 1.3945,6.539 -1e-5,5.8828 -1.832,8.8242 -5.4961,8.8242 m 0,-1.8164 c 1.1484,0 1.9922,-0.5468 2.5312,-1.6406 0.53905,-1.1015 0.80858,-2.8906 0.80859,-5.3672 -1e-5,-2.4609 -0.26954,-4.2382 -0.80859,-5.332 -0.53908,-1.1016 -1.3828,-1.6523 -2.5312,-1.6524 -1.1328,10e-5 -1.9648,0.5469 -2.4961,1.6407 -0.52344,1.0859 -0.78516,2.8672 -0.78515,5.3437 -1e-5,2.4844 0.26171,4.2735 0.78515,5.3672 0.53125,1.0938 1.3633,1.6406 2.4961,1.6406"
                 inkscape:connector-curvature="0" />
            </g>
            <g
               id="g2992"
               transform="matrix(0.19008903,0,0,0.19008903,148.85122,-1700.8349)">
              <path
                 id="path2796"
                 d="m 226.86,138.73 92.58,-12 v 88.12 c -8.65,-2.05 -21.03,-2.05 -30.52,5.89 -19.01,15.9 -2.33,33.78 19.43,24.91 12.38,-5.05 16.51,-13.15 16.51,-25.38 V 110.73 l -103.42,12 v 109.73 c -8.65,-2.05 -21.03,-2.04 -30.52,5.9 -19.01,15.9 -2.33,33.78 19.43,24.91 12.38,-5.05 16.51,-13.16 16.51,-25.39 v -99.15 z"
                 inkscape:connector-curvature="0" />
              <path
                 id="path2810"
                 d="M 8.5,87.5 H 389.62"
                 inkscape:connector-curvature="0"
                 style="fill:none;stroke:#000000;stroke-width:3.75" />
              <use
                 id="use2812"
                 xlink:href="#path2810"
                 transform="translate(0,36.03)"
                 height="300"
                 width="400"
                 y="0"
                 x="0" />
              <use
                 id="use2814"
                 xlink:href="#path2810"
                 transform="translate(0,72.061)"
                 height="300"
                 width="400"
                 y="0"
                 x="0" />
              <use
                 id="use2816"
                 xlink:href="#path2810"
                 transform="translate(0,108.09)"
                 height="300"
                 width="400"
                 y="0"
                 x="0" />
              <use
                 id="use2818"
                 xlink:href="#path2810"
                 transform="translate(0,144.12)"
                 height="300"
                 width="400"
                 y="0"
                 x="0" />
              <path
                 id="path2820"
                 d="m 389.62,89.289 v 140.46"
                 inkscape:connector-curvature="0"
                 style="fill:none;stroke:#000000;stroke-width:7.5;stroke-linecap:square" />
              <path
                 id="path1981"
                 d="m 69.5,269 c 40,-31.26 -37.238,-44.91 -13.5,3 5.182,10.46 55.5,36.51 55.5,-40 0,-57.5 -35,-130.5 -35,-159.5 0,-29 23,-44.5 23,-6 C 99.5,105 43,138 43,178 c 0,66.03 90.5,67.03 90.5,18 0,-45.5 -42.327,-46.9 -56,-35.5 -19.514,16.27 -12.443,47.9 10.5,50 -33.656,-43.11 31.7,-54.41 36,-18 4.73,40.03 -69.5,41.16 -69.5,-7.5 0,-38.5 61.27,-77.6 58.5,-115.5 -4,-54.691 -39.861,-71.599 -44,-5 -2.91,46.32 34.83,105.02 36.5,170.5 1.07,41.81 -30.318,52.85 -36,34 z"
                 inkscape:connector-curvature="0" />
            </g>
            <g
               id="g3195"
               transform="translate(190.77607,-1633.047)">
              <g
                 id="g3049">
                <rect
                   id="rect15391"
                   style="color:#000000;fill:url(#radialGradient12579);fill-rule:nonzero;stroke:url(#radialGradient12581);stroke-width:1;stroke-linecap:round;stroke-linejoin:round;stroke-miterlimit:4;stroke-dashoffset:0;display:block"
                   ry="1.149"
                   height="40.919998"
                   width="34.875"
                   stroke-miterlimit="4"
                   y="3.6464"
                   x="6.6036"
                   display="block" />
                <rect
                   id="rect15660"
                   style="color:#000000;fill:none;stroke:url(#radialGradient12583);stroke-width:1;stroke-linecap:round;stroke-linejoin:round;stroke-miterlimit:4;stroke-dashoffset:0;display:block"
                   rx="0.14905"
                   ry="0.14905"
                   height="38.945999"
                   width="32.776001"
                   stroke-miterlimit="4"
                   y="4.5839"
                   x="7.6661"
                   display="block" />
                <g
                   id="g2270"
                   transform="translate(0.646447,-0.03798933)"
                   style="fill-rule:nonzero">
                  <g
                     id="g1440"
                     transform="matrix(0.229703,0,0,0.229703,4.967081,4.244972)"
                     stroke-miterlimit="4"
                     style="fill:#ffffff;stroke:#000000;stroke-miterlimit:4">
                    <path
                       id="path1448"
                       d="m 23.428,113.07 c 0,1.973 -1.6,3.572 -3.573,3.572 -1.974,0 -3.573,-1.6 -3.573,-3.572 0,-1.974 1.6,-3.573 3.573,-3.573 1.973,0 3.573,1.6 3.573,3.573 z"
                       inkscape:connector-curvature="0" />
                    <path
                       id="path1456"
                       d="m 23.428,63.07 c 0,1.973 -1.6,3.573 -3.573,3.573 -1.974,0 -3.573,-1.6 -3.573,-3.573 0,-1.974 1.6,-3.573 3.573,-3.573 1.973,0 3.573,1.6 3.573,3.573 z"
                       inkscape:connector-curvature="0" />
                  </g>
                  <path
                     id="path15570"
                     d="m 9.995,29.952 c 0,0.4532 -0.36752,0.8205 -0.82073,0.8205 -0.45343,0 -0.82073,-0.36752 -0.82073,-0.8205 0,-0.45343 0.36752,-0.82073 0.82073,-0.82073 0.4532,0 0.82073,0.36752 0.82073,0.82073 z"
                     inkscape:connector-curvature="0"
                     style="fill:url(#radialGradient12585)" />
                  <path
                     id="path15577"
                     d="m 9.995,18.467 c 0,0.4532 -0.36752,0.82073 -0.82073,0.82073 -0.45343,0 -0.82073,-0.36752 -0.82073,-0.82073 0,-0.45343 0.36752,-0.82073 0.82073,-0.82073 0.4532,0 0.82073,0.36752 0.82073,0.82073 z"
                     inkscape:connector-curvature="0"
                     style="fill:url(#radialGradient12587)" />
                </g>
                <path
                   id="path15672"
                   d="m 11.506,5.4943 0,37.907"
                   stroke-miterlimit="4"
                   inkscape:connector-curvature="0"
                   style="fill:none;stroke:#000000;stroke-width:0.98855311;stroke-linecap:butt;stroke-linejoin:miter;stroke-miterlimit:4;stroke-opacity:0.01754384" />
                <path
                   id="path15674"
                   d="m 12.5,5.0205 0,38.018"
                   stroke-miterlimit="4"
                   inkscape:connector-curvature="0"
                   style="fill:none;stroke:#ffffff;stroke-width:1;stroke-linecap:butt;stroke-linejoin:miter;stroke-miterlimit:4;stroke-opacity:0.20467834" />
              </g>
              <g
                 id="g3161">
                <g
                   id="g2253"
                   transform="matrix(0.909091,0,0,1,2.363628,0)"
                   style="fill:#9b9b9b;fill-opacity:0.54970757;fill-rule:nonzero">
                  <rect
                     id="rect15686"
                     style="color:#000000;display:block"
                     rx="0.15155999"
                     ry="0.065390997"
                     height="1"
                     width="22"
                     y="9"
                     x="15"
                     display="block" />
                  <rect
                     id="rect15688"
                     style="color:#000000;display:block"
                     rx="0.15155999"
                     ry="0.065390997"
                     height="1"
                     width="22"
                     y="11"
                     x="15"
                     display="block" />
                  <rect
                     id="rect15690"
                     style="color:#000000;display:block"
                     rx="0.15155999"
                     ry="0.065390997"
                     height="1"
                     width="22"
                     y="13"
                     x="15"
                     display="block" />
                  <rect
                     id="rect15692"
                     style="color:#000000;display:block"
                     rx="0.15155999"
                     ry="0.065390997"
                     height="1"
                     width="22"
                     y="15"
                     x="15"
                     display="block" />
                  <rect
                     id="rect15694"
                     style="color:#000000;display:block"
                     rx="0.15155999"
                     ry="0.065390997"
                     height="1"
                     width="22"
                     y="17"
                     x="15"
                     display="block" />
                  <rect
                     id="rect15696"
                     style="color:#000000;display:block"
                     rx="0.15155999"
                     ry="0.065390997"
                     height="1"
                     width="22"
                     y="19"
                     x="15"
                     display="block" />
                  <rect
                     id="rect15698"
                     style="color:#000000;display:block"
                     rx="0.15155999"
                     ry="0.065390997"
                     height="1"
                     width="22"
                     y="21"
                     x="15"
                     display="block" />
                  <rect
                     id="rect15700"
                     style="color:#000000;display:block"
                     rx="0.15155999"
                     ry="0.065390997"
                     height="1"
                     width="22"
                     y="23"
                     x="15"
                     display="block" />
                  <rect
                     id="rect15732"
                     style="color:#000000;display:block"
                     rx="0.068204001"
                     ry="0.065390997"
                     height="1"
                     width="9.8999996"
                     y="25"
                     x="15"
                     display="block" />
                  <rect
                     id="rect15736"
                     style="color:#000000;display:block"
                     rx="0.15155999"
                     ry="0.065390997"
                     height="1"
                     width="22"
                     y="29"
                     x="15"
                     display="block" />
                  <rect
                     id="rect15738"
                     style="color:#000000;display:block"
                     rx="0.15155999"
                     ry="0.065390997"
                     height="1"
                     width="22"
                     y="31"
                     x="15"
                     display="block" />
                  <rect
                     id="rect15740"
                     style="color:#000000;display:block"
                     rx="0.15155999"
                     ry="0.065390997"
                     height="1"
                     width="22"
                     y="33"
                     x="15"
                     display="block" />
                  <rect
                     id="rect15742"
                     style="color:#000000;display:block"
                     rx="0.15155999"
                     ry="0.065390997"
                     height="1"
                     width="22"
                     y="35"
                     x="15"
                     display="block" />
                  <rect
                     id="rect15744"
                     style="color:#000000;display:block"
                     rx="0.1061"
                     ry="0.065390997"
                     height="1"
                     width="15.4"
                     y="37"
                     x="15"
                     display="block" />
                </g>
              </g>
            </g>
            <g
               id="g3018"
               transform="translate(136.88905,-1634.8557)">
              <path
                 id="path12127"
                 style="opacity:0.52763821;color:#000000;fill:url(#radialGradient12589);fill-rule:nonzero;display:block"
                 d="m 46.315,41.636 a 22.097,4.0659 0 1 1 -44.194,0 22.097,4.0659 0 1 1 44.194,0 z"
                 display="block"
                 transform="translate(0.176777,-3.116115)"
                 inkscape:connector-curvature="0" />
              <path
                 id="path16181"
                 d="m 45.874,36.22 c 0,1.5626 -1.6322,2.8323 -3.641,2.8323 H 5.446 c -2.0088,0 -3.641,-1.2696 -3.641,-2.8323 V 9.768 c 0,-1.5626 1.6322,-2.8323 3.641,-2.8323 h 36.787 c 2.0088,0 3.641,1.2696 3.641,2.8323 V 36.22 z"
                 stroke-miterlimit="4"
                 inkscape:connector-curvature="0"
                 style="fill:url(#linearGradient12591);fill-rule:nonzero;stroke:#646464;stroke-width:0.91411364;stroke-miterlimit:4;stroke-dasharray:none" />
              <path
                 id="path16188"
                 d="m 40.419,34.718 -32.536,0 0,-22.253 32.536,0 0,22.253 0,0 z"
                 stroke-miterlimit="4"
                 inkscape:connector-curvature="0"
                 style="fill:url(#linearGradient12593);fill-rule:nonzero;stroke:#646464;stroke-width:0.99999923;stroke-miterlimit:4;stroke-dasharray:none" />
              <path
                 id="path16203"
                 d="m 8.3801,12.924 31.541,0 0,13.391 -31.541,0 0,-13.391 z"
                 inkscape:connector-curvature="0"
                 style="fill:url(#linearGradient12595);fill-rule:nonzero" />
              <g
                 id="g16205"
                 transform="matrix(1.110492,0,0,1.118281,-0.224752,1.617147)"
                 stroke-miterlimit="4"
                 style="fill-rule:nonzero;stroke-width:0;stroke-miterlimit:4">
                <g
                   id="g16207"
                   stroke-miterlimit="4"
                   style="stroke-width:0;stroke-miterlimit:4">
                  <path
                     id="path16209"
                     d="m 18.4,15.4 c 0,2.2 -1.8,4.1 -4.1,4.1 -2.2,0 -4.1,-1.8 -4.1,-4.1 0,-2.2 1.8,-4.1 4.1,-4.1 2.2,0 4.1,1.8 4.1,4.1 z"
                     inkscape:connector-curvature="0"
                     style="opacity:0.04999994;fill:#e8f52f" />
                  <path
                     id="path16211"
                     d="m 18,15.4 c 0,2 -1.6,3.7 -3.7,3.7 -2,0 -3.7,-1.6 -3.7,-3.7 0,-2 1.6,-3.7 3.7,-3.7 2,0 3.7,1.6 3.7,3.7 z"
                     inkscape:connector-curvature="0"
                     style="opacity:0.20829994;fill:#ecf751" />
                  <path
                     id="path16213"
                     d="m 17.6,15.4 c 0,1.8 -1.5,3.3 -3.3,3.3 -1.8,0 -3.3,-1.5 -3.3,-3.3 0,-1.8 1.5,-3.3 3.3,-3.3 1.8,0 3.3,1.5 3.3,3.3 z"
                     inkscape:connector-curvature="0"
                     style="opacity:0.3667;fill:#f0f972" />
                  <path
                     id="path16215"
                     d="m 17.2,15.4 c 0,1.6 -1.3,2.9 -2.9,2.9 -1.6,0 -2.9,-1.3 -2.9,-2.9 0,-1.6 1.3,-2.9 2.9,-2.9 1.6,0 2.9,1.3 2.9,2.9 z"
                     inkscape:connector-curvature="0"
                     style="opacity:0.525;fill:#f4fa95" />
                  <path
                     id="path16217"
                     d="m 16.8,15.4 c 0,1.4 -1.1,2.5 -2.5,2.5 -1.4,0 -2.5,-1.1 -2.5,-2.5 0,-1.4 1.1,-2.5 2.5,-2.5 1.4,0 2.5,1.1 2.5,2.5 z"
                     inkscape:connector-curvature="0"
                     style="opacity:0.6833;fill:#f7fcb7" />
                  <path
                     id="path16219"
                     d="m 16.4,15.4 c 0,1.2 -1,2.1 -2.1,2.1 -1.1,0 -2.1,-1 -2.1,-2.1 0,-1.1 1,-2.1 2.1,-2.1 1.1,0 2.1,1 2.1,2.1 z"
                     inkscape:connector-curvature="0"
                     style="opacity:0.8417;fill:#fbfddb" />
                  <path
                     id="path16221"
                     d="m 16,15.4 c 0,1 -0.8,1.8 -1.8,1.8 -1,0 -1.8,-0.8 -1.8,-1.8 0,-1 0.8,-1.8 1.8,-1.8 1,0 1.8,0.8 1.8,1.8 z"
                     inkscape:connector-curvature="0"
                     style="fill:#ffffff" />
                </g>
              </g>
              <path
                 id="path11975"
                 d="m 44.979,35.756 c 0,1.4992 -1.0162,2.4322 -2.9435,2.4322 h -36.3 c -1.9272,0 -3.0351,-0.86176 -3.0351,-2.3609 v -25.654 c 0,-1.4992 1.5659,-2.5747 3.4931,-2.5747 h 35.384 c 1.9272,0 3.4015,1.0756 3.4015,2.5747 v 25.583 z"
                 stroke-miterlimit="4"
                 inkscape:connector-curvature="0"
                 style="fill:none;stroke:#ffffff;stroke-width:0.9141137;stroke-miterlimit:4;stroke-opacity:0.86010359;stroke-dasharray:none" />
              <path
                 id="path12125"
                 d="m 41.577,35.51 -34.853,0 0,-24.002 34.853,0 0,24.002 0,0 z"
                 stroke-miterlimit="4"
                 inkscape:connector-curvature="0"
                 style="fill:none;stroke:#ffffff;stroke-width:0.99999923;stroke-miterlimit:4;stroke-opacity:0.61658032;stroke-dasharray:none" />
              <path
                 id="path2099"
                 d="m 8.3085,26.345 31.555,0 0,-3.7123 -3.0936,-2.1213 -2.5633,1.3258 -4.2426,-3.9775 -7.3362,6.9827 -6.2756,-0.44194 -5.3033,1.5026 -1.591,-0.88388 -1.149,1.3258 z"
                 inkscape:connector-curvature="0"
                 style="fill:url(#linearGradient12597);fill-rule:evenodd" />
              <path
                 id="path2388"
                 d="m 29.988,17.86 -1.4382,1.4382 0.81497,-0.38352 0,0.67115 1.0547,-0.76703 0.28764,0.28764 0,-0.33558 0.67115,0.43146 -1.3902,-1.3423 z"
                 inkscape:connector-curvature="0"
                 style="fill:#ffffff;fill-rule:evenodd" />
            </g>
          </g>
          <g
             id="g16465">
            <path
               id="path3709"
               d="m 204.34,-4061.2 c 25.617,-1.0701 25.413,53.057 8.7534,68.798 23.775,12.017 5.6574,63.076 -7.0582,62.974 3.7387,16.033 -15.461,56.879 -46.282,32.254 -0.97739,23.865 -88.179,32.441 -84.248,-7.9876 -38.346,-14.114 -29.79,-68.933 -14.624,-79.864 -22.076,-10.931 -15.679,-74.144 12.065,-79.049 -0.78149,-21.194 56.476,-22.89 69.562,-5.3486 13.724,-19.205 64.109,-1.1801 61.475,7.8649"
               stroke-miterlimit="4"
               inkscape:connector-curvature="0"
               style="fill:none;stroke:#a3a8c5;stroke-width:4.40600014;stroke-linecap:round;stroke-linejoin:round;stroke-miterlimit:4;stroke-dasharray:none;filter:url(#filter4593-5)" />
          </g>
        </g>
      </g>
    </g>
  </g>
</svg>
